<?xml version="1.0" encoding="UTF-8"?>
<svg version="1.1" xmlns="http://www.w3.org/2000/svg" width="1280" height="674">
<path d="M0 0 C0.6909375 0.57621094 1.381875 1.15242188 2.09375 1.74609375 C4.10512862 3.46428291 4.10512862 3.46428291 6.28125 4.97265625 C25.53194446 18.76672781 37.35207017 42.75075725 41.4375 65.65625 C42.48428966 73.02650374 42.49424477 80.44532331 42.5 87.875 C42.50299103 88.89773514 42.50299103 88.89773514 42.50604248 89.94113159 C42.5019644 102.25563394 41.19273539 113.62664064 37.0625 125.25 C36.61003906 126.52967651 36.61003906 126.52967651 36.1484375 127.83520508 C31.05148058 141.6235569 22.81267512 154.3123341 12.125 164.4375 C11.38121094 165.20964844 10.63742187 165.98179687 9.87109375 166.77734375 C-3.21233102 179.45132991 -20.44618093 187.68418571 -37.875 192.4375 C-38.55054932 192.62368896 -39.22609863 192.80987793 -39.92211914 193.00170898 C-47.59708154 194.83974438 -55.34283724 194.77500834 -63.1862793 194.75317383 C-65.54068025 194.75002914 -67.89380174 194.77348721 -70.24804688 194.79882812 C-83.98705607 194.8587628 -96.63709819 192.82934527 -109.5 187.75 C-110.39533447 187.39969727 -111.29066895 187.04939453 -112.21313477 186.68847656 C-129.96386747 179.52986354 -144.4688182 167.74116092 -155.875 152.4375 C-156.58398438 151.53128906 -157.29296875 150.62507812 -158.0234375 149.69140625 C-162.66937962 143.60332225 -166.04856555 137.54425424 -168.875 130.4375 C-169.41253906 129.16326172 -169.41253906 129.16326172 -169.9609375 127.86328125 C-173.10825307 119.94766426 -174.52289437 111.80849789 -175.875 103.4375 C-176.06191406 102.30570313 -176.24882813 101.17390625 -176.44140625 100.0078125 C-178.06454958 86.64247012 -176.87409695 73.50429456 -173.875 60.4375 C-173.60816406 59.24640625 -173.34132813 58.0553125 -173.06640625 56.828125 C-169.76111544 43.84200466 -163.82122092 31.47380666 -154.875 21.4375 C-154.11703125 20.58414063 -153.3590625 19.73078125 -152.578125 18.8515625 C-151.05811535 17.15769554 -149.52911912 15.47181776 -147.98828125 13.796875 C-145.84264775 11.46443456 -145.84264775 11.46443456 -143.95703125 8.91796875 C-140.02682982 4.23564622 -134.84406393 0.9370162 -129.875 -2.5625 C-129.11445312 -3.10132813 -128.35390625 -3.64015625 -127.5703125 -4.1953125 C-90.35026722 -28.43470142 -35.35492048 -27.15403686 0 0 Z M-98.875 46.4375 C-99.84050781 47.18257812 -100.80601562 47.92765625 -101.80078125 48.6953125 C-105.14620185 51.50752712 -107.57845363 54.73950351 -110.0625 58.3125 C-110.48724609 58.89902344 -110.91199219 59.48554687 -111.34960938 60.08984375 C-120.00191585 72.33494311 -120.79216984 87.27128106 -118.296875 101.8046875 C-113.99849608 114.97335748 -103.58018874 127.38028009 -91.578125 134.08203125 C-79.13606149 140.32104287 -64.83261035 141.98295738 -51.375 137.8125 C-49.52158261 137.06906796 -47.68661816 136.27767074 -45.875 135.4375 C-44.94429687 135.025 -44.01359375 134.6125 -43.0546875 134.1875 C-29.90818334 127.74241718 -21.73667612 117.04331763 -16.78125 103.43359375 C-12.44692255 88.36377934 -14.62422737 73.10510015 -21.9765625 59.38671875 C-29.92663049 47.03630449 -42.61868176 39.0365656 -56.86352539 35.79272461 C-72.21673875 33.08136092 -86.59786161 36.76460308 -98.875 46.4375 Z " fill="#00A5DE" transform="translate(1074.875,454.5625)"/>
<path d="M0 0 C0.85384277 0.15017578 1.70768555 0.30035156 2.58740234 0.45507812 C5.35350258 0.95277124 8.11478298 1.4706904 10.875 2 C12.18827271 2.2489502 12.18827271 2.2489502 13.52807617 2.50292969 C14.34123291 2.66696289 15.15438965 2.83099609 15.9921875 3 C17.08055908 3.2165625 17.08055908 3.2165625 18.19091797 3.4375 C20 4 20 4 22 6 C22.24050903 8.51834106 22.24050903 8.51834106 22.22705078 11.73486328 C22.22682419 13.53650436 22.22682419 13.53650436 22.22659302 15.37454224 C22.21627045 16.67664642 22.20594788 17.97875061 22.1953125 19.3203125 C22.19158276 20.66266673 22.18873561 22.00502367 22.18673706 23.34738159 C22.17909744 26.882014 22.1594463 30.41648228 22.1373291 33.9510498 C22.11687765 37.5571877 22.10773685 41.16335209 22.09765625 44.76953125 C22.0762006 51.84642135 22.04206079 58.92319997 22 66 C20.1796875 66.6015625 20.1796875 66.6015625 18 67 C16.41706894 66.10529984 14.83942909 65.20001187 13.2890625 64.25 C-4.11806781 54.74439983 -25.18201626 53.77058136 -44 59 C-56.70371034 63.72978237 -68.02533941 73.26900249 -74.24609375 85.4375 C-80.353123 99.75434512 -80.50882319 113.61233118 -74.78125 128.078125 C-69.51238352 139.49400237 -62.13400012 147.25157112 -51 153 C-49.96875 153.5775 -48.9375 154.155 -47.875 154.75 C-30.41850308 162.33978127 -10.26861669 159.23992032 7 153 C9.43798859 151.95514775 11.83433772 150.8549651 14.23046875 149.71875 C16.56998933 148.76848116 18.51235935 148.61130615 21 149 C22.70301242 150.70301242 22.13626608 152.89362977 22.14526367 155.22241211 C22.15164352 156.3370433 22.15802338 157.4516745 22.16459656 158.6000824 C22.16626579 160.42032677 22.16626579 160.42032677 22.16796875 162.27734375 C22.17129715 163.51416397 22.17462555 164.75098419 22.17805481 166.02528381 C22.1831293 168.64730455 22.18546298 171.26933178 22.18530273 173.89135742 C22.18522129 176.58706342 22.19218657 179.28260019 22.20581055 181.97827148 C22.22405346 185.84884898 22.22903586 189.71922767 22.23046875 193.58984375 C22.23765427 194.80131577 22.24483978 196.01278778 22.25224304 197.26097107 C22.24916641 198.37875443 22.24608978 199.49653778 22.24291992 200.64819336 C22.24434494 201.63556992 22.24576996 202.62294647 22.24723816 203.64024353 C22 206 22 206 20 208 C17.12823784 208.94109898 14.14661068 209.45874041 11.1875 210.0625 C10.39923828 210.23587891 9.61097656 210.40925781 8.79882812 210.58789062 C-19.9137469 216.57828398 -51.20401142 215.04271498 -78 203 C-78.64340332 202.71608398 -79.28680664 202.43216797 -79.94970703 202.13964844 C-100.0140539 193.16501251 -113.27805514 179.08223918 -125 161 C-125.61101562 160.08992187 -126.22203125 159.17984375 -126.8515625 158.2421875 C-141.28993768 135.80717376 -141.17088223 106.50045715 -137 81 C-136.81695312 79.87851562 -136.63390625 78.75703125 -136.4453125 77.6015625 C-131.60454442 52.91962156 -113.09795457 29.83789805 -92.77880859 15.77050781 C-88.1626403 12.82933293 -83.29928251 10.55085799 -78.3125 8.3125 C-77.26030273 7.83699707 -76.20810547 7.36149414 -75.12402344 6.87158203 C-51.54471428 -3.55063179 -25.24617143 -4.45079798 0 0 Z " fill="#00A5DE" transform="translate(286,433)"/>
<path d="M0 0 C1 1 1 1 1.12025452 3.47401428 C1.11803391 4.57321701 1.11581329 5.67241974 1.11352539 6.80493164 C1.11344986 8.04614273 1.11337433 9.28735382 1.11329651 10.56617737 C1.10818911 11.9308374 1.1029731 13.29549702 1.09765625 14.66015625 C1.095792 16.04878183 1.09436813 17.43740807 1.09336853 18.82603455 C1.08954387 22.48721115 1.07971403 26.1483483 1.06866455 29.80950928 C1.05844932 33.54292263 1.05387067 37.27634234 1.04882812 41.00976562 C1.03809171 48.33986177 1.02101591 55.66992536 1 63 C-1.85226968 62.32071189 -4.29431006 61.46089861 -6.9375 60.1875 C-27.5119391 50.91213811 -48.62442094 49.28780931 -69.8125 57.02734375 C-81.58841524 62.33027994 -91.07877091 71.19934278 -96.26171875 83.0390625 C-101.56452826 97.12377346 -100.93645238 111.79156649 -95.5 125.70703125 C-89.31503028 139.28497258 -78.69697137 146.72698755 -65 152 C-49.44796476 157.27187635 -33.59239863 155.04497783 -18.125 150.625 C-17.42366943 150.42817627 -16.72233887 150.23135254 -15.99975586 150.02856445 C-12.4345827 148.96219002 -9.41299039 147.73599405 -6.2421875 145.7734375 C-3 144 -3 144 1 145 C1 164.14 1 183.28 1 203 C-3.60157949 204.53385983 -7.95219257 205.69274966 -12.6875 206.5625 C-13.33138672 206.68818359 -13.97527344 206.81386719 -14.63867188 206.94335938 C-24.82799609 208.84576497 -35.01219472 209.18656041 -45.36035156 209.18530273 C-47.36545052 209.18748958 -49.36999756 209.20572665 -51.375 209.22460938 C-83.09619695 209.27153422 -111.37989659 197.16086874 -134.0234375 175.1328125 C-153.01824143 155.74911943 -159.59834585 127.9466816 -160.3125 101.625 C-159.75376235 73.89764412 -150.77243052 48.29775771 -132.4453125 27.328125 C-131 26 -131 26 -129 26 C-129 25.34 -129 24.68 -129 24 C-126.99897593 22.19360441 -124.99992565 20.5254873 -122.875 18.875 C-122.24480957 18.38435059 -121.61461914 17.89370117 -120.96533203 17.38818359 C-108.52931485 7.91209298 -94.88578367 1.54876825 -79.875 -2.75 C-79.14700195 -2.96100342 -78.41900391 -3.17200684 -77.66894531 -3.3894043 C-53.31740793 -10.04538193 -24.07679255 -6.54132171 0 0 Z " fill="#00A5DE" transform="translate(847,437)"/>
<path d="M0 0 C0.77934906 0.00115814 1.55869812 0.00231628 2.36166382 0.00350952 C13.85986655 0.0373656 24.77045749 0.69464252 36 3.3125 C37.37927557 3.59444593 38.75951 3.87173839 40.140625 4.14453125 C49.76542219 6.07792219 49.76542219 6.07792219 51 7.3125 C51.0928726 8.72475046 51.11746772 10.14158934 51.11352539 11.55688477 C51.11344986 12.45774307 51.11337433 13.35860138 51.11329651 14.28675842 C51.10813522 15.26591721 51.10297394 16.24507599 51.09765625 17.25390625 C51.09553383 18.75001686 51.09553383 18.75001686 51.09336853 20.27635193 C51.08775114 23.47593124 51.07519571 26.67544169 51.0625 29.875 C51.05748724 32.03841045 51.05292395 34.20182199 51.04882812 36.36523438 C51.03777607 41.68101325 51.02102104 46.99675171 51 52.3125 C46.69052608 51.80107157 42.45467616 51.27835439 38.21484375 50.33984375 C21.03463778 46.73943612 0.50038695 43.42843937 -16 51.3125 C-18.74466704 53.21729893 -19.42326607 54.21967574 -21 57.3125 C-21.71713316 62.42207379 -20.87753653 65.11609256 -18 69.3125 C-18 69.9725 -18 70.6325 -18 71.3125 C-16.87271484 71.67408203 -16.87271484 71.67408203 -15.72265625 72.04296875 C-10.58612865 73.79467019 -5.51590805 75.71226111 -0.4375 77.625 C0.6364502 78.02944336 1.71040039 78.43388672 2.81689453 78.85058594 C4.93461614 79.64869806 7.05213591 80.44734597 9.16943359 81.24658203 C11.48178213 82.11735258 13.79638966 82.98126975 16.11328125 83.83984375 C26.504302 87.73492099 35.57224121 91.99403596 44 99.3125 C44.82628906 100.00859375 45.65257812 100.7046875 46.50390625 101.421875 C58.12121509 111.99273922 63.42169781 125.37844569 64.171875 140.859375 C64.61022212 161.98770636 59.83379573 177.01541668 45.375 192.375 C32.63969838 204.75022613 15.18210954 210.38205432 -2 213.3125 C-3.04027344 213.49683594 -4.08054687 213.68117188 -5.15234375 213.87109375 C-24.57130954 216.09885328 -44.38398209 213.83594312 -63.71142578 211.67236328 C-67.51177487 211.25649732 -71.31606478 210.90394233 -75.12475586 210.57397461 C-77 210.3125 -77 210.3125 -79 209.3125 C-79 192.4825 -79 175.6525 -79 158.3125 C-72.82096764 159.19521891 -67.27071782 160.56064137 -61.3046875 162.27734375 C-50.74427235 164.98915087 -40.23978584 165.65359154 -29.375 165.625 C-27.52648437 165.64916992 -27.52648437 165.64916992 -25.640625 165.67382812 C-14.34850667 165.67982182 -4.88029572 164.24378941 3.8125 156.75 C6.62373698 153.34692366 6.28367131 149.49665186 6 145.3125 C3.48111545 138.68430892 -0.58430609 136.85265685 -6.71484375 134.03515625 C-12.19926105 131.72232569 -17.89418735 130.14281932 -23.60644531 128.50073242 C-41.91501094 123.20683607 -62.74212988 113.9000066 -72.5390625 96.59375 C-73.85583445 93.85240021 -74.98712249 91.1810874 -76 88.3125 C-76.25749023 87.6114917 -76.51498047 86.9104834 -76.78027344 86.18823242 C-79.11045915 79.3036558 -79.54145426 72.86142492 -79.5 65.625 C-79.49500488 64.4803125 -79.49000977 63.335625 -79.48486328 62.15625 C-79.21345382 48.93392974 -75.7457357 38.17589432 -68 27.3125 C-67.54625 26.64089844 -67.0925 25.96929687 -66.625 25.27734375 C-56.38702072 11.86665734 -36.1523692 3.66608 -19.98193359 0.67431641 C-13.3515038 -0.13019456 -6.66903449 -0.03051244 0 0 Z " fill="#00A5DE" transform="translate(575,435.6875)"/>
<path d="M0 0 C6.25323019 6.06814516 9.07534701 13.86007066 9.37752342 22.48638916 C9.3938852 24.56670843 9.39402454 26.64719653 9.38095093 28.72753906 C9.38797089 30.45689131 9.38797089 30.45689131 9.39513266 32.22117996 C9.40706168 36.06944667 9.39763325 39.91735589 9.38818359 43.765625 C9.39060046 46.53064709 9.39748444 49.29565418 9.40411377 52.06066895 C9.41742783 58.78221115 9.41458378 65.50365265 9.40587585 72.22519875 C9.39909052 77.68973235 9.39818625 83.1542378 9.4014473 88.61877441 C9.401907 89.39760837 9.40236669 90.17644232 9.40284032 90.97887731 C9.40379954 92.56124593 9.40477218 94.14361454 9.4057581 95.72598314 C9.41430517 110.55101316 9.40448859 125.37598745 9.388357 140.20100832 C9.37495443 152.91137719 9.37728272 165.62166386 9.39111328 178.33203125 C9.40718117 193.10534899 9.41348126 207.87861794 9.40427649 222.65194321 C9.40332088 224.22837066 9.40237777 225.80479812 9.4014473 227.38122559 C9.40098447 228.15678338 9.40052164 228.93234118 9.40004479 229.73140073 C9.39745853 235.18703464 9.40181805 240.6426375 9.40888596 246.0982666 C9.41731459 252.75021299 9.41499223 259.40205322 9.39904372 266.0539875 C9.39117918 269.44556178 9.38966292 272.83681343 9.39799118 276.22840881 C9.40619746 279.90993542 9.39589522 283.59096587 9.38095093 287.27246094 C9.39098918 288.86980009 9.39098918 288.86980009 9.40123022 290.49940872 C9.32632203 300.02361613 7.5281795 307.28441571 0.8828125 314.27734375 C-4.77824107 319.45685542 -11.62233927 322 -19.29296875 322 C-27.87897291 321.29065714 -35.26293709 318.59591391 -41 312 C-46.0863928 303.99186638 -47.87821523 297.19354111 -47.7484436 287.79780579 C-47.75639242 286.63009036 -47.76434123 285.46237493 -47.77253091 284.25927418 C-47.78832642 281.05381095 -47.77758976 277.84977167 -47.75502992 274.64439189 C-47.73721361 271.17400434 -47.75427042 267.70375461 -47.76675415 264.23336792 C-47.78565636 257.44995198 -47.77259703 250.66696387 -47.74822827 243.88357989 C-47.72088573 235.97579203 -47.72427284 228.06810421 -47.72849493 220.16028108 C-47.73486359 206.04809145 -47.7116011 191.93610423 -47.67236328 177.82397461 C-47.63433793 164.14422445 -47.62019519 150.46471134 -47.63134766 136.78491211 C-47.64347312 121.86761875 -47.64309273 106.9504294 -47.62037599 92.03314465 C-47.61796154 90.44159806 -47.61554956 88.85005147 -47.61314011 87.25850487 C-47.61193303 86.4755397 -47.61072595 85.69257454 -47.6094823 84.88588316 C-47.60173703 79.37911856 -47.60250607 73.87239279 -47.6063118 68.36562538 C-47.61056322 61.6533163 -47.60005047 54.94121435 -47.57108469 48.22896353 C-47.55663437 44.80699799 -47.54841006 41.38533354 -47.55757141 37.96334267 C-47.56402521 34.24897699 -47.54582737 30.53551596 -47.52139282 26.82124329 C-47.52895147 25.74672403 -47.53651012 24.67220478 -47.54429781 23.56512433 C-47.45363654 15.76709277 -45.8210365 9.75750429 -41.10546875 3.4765625 C-29.73904473 -7.49631934 -13.27089353 -9.53328003 0 0 Z " fill="#00A5DE" transform="translate(371,31)"/>
<path d="M0 0 C6.07727901 5.35113354 9.70461106 12.24684908 10.30967379 20.34178329 C10.38263966 23.32360676 10.39148654 26.29949072 10.37896729 29.28219604 C10.38208727 30.42522159 10.38520725 31.56824713 10.38842177 32.74590981 C10.39639347 36.57268387 10.39008119 40.399299 10.38378906 44.22607422 C10.38539919 46.97109302 10.38998819 49.71610509 10.39440918 52.46112061 C10.40329569 59.14147645 10.40138431 65.82178732 10.3955839 72.50214492 C10.39106374 77.93335025 10.39045604 83.36454299 10.39263153 88.79574966 C10.392938 89.56930388 10.39324446 90.34285809 10.39356022 91.13985334 C10.39419968 92.71143102 10.39484811 94.2830087 10.3955054 95.85458638 C10.40120672 110.58707835 10.39465431 125.31954543 10.38390467 140.05203332 C10.37497288 152.68395266 10.37651851 165.31583523 10.38574219 177.94775391 C10.39645443 192.62509616 10.40065368 207.30241658 10.39451766 221.9797622 C10.39388058 223.54611023 10.39325184 225.11245827 10.39263153 226.6788063 C10.39232298 227.44942586 10.39201443 228.22004541 10.39169653 229.01401707 C10.38997219 234.43555728 10.39287914 239.85708361 10.39759064 245.27862167 C10.40321023 251.89033717 10.40166053 258.50200519 10.39102915 265.11371528 C10.38578635 268.48496742 10.38477517 271.85607531 10.39032745 275.22733688 C10.3957986 278.88697794 10.38892934 282.54639721 10.37896729 286.20602417 C10.38342873 287.26449928 10.38789017 288.32297439 10.39248681 289.41352451 C10.34158943 299.06460086 9.55737588 307.23137528 2.58984375 314.46484375 C-3.6940665 320.30501547 -10.50858126 322.43052426 -19.00390625 322.99609375 C-26.24590778 322.68079572 -33.10451571 319.68126164 -38.375 314.71484375 C-43.25180511 308.72043747 -45.99722209 301.7178326 -46.00363445 294.02838516 C-46.0068589 293.0500038 -46.01008335 292.07162243 -46.0134055 291.06359315 C-46.0118569 289.99123595 -46.0103083 288.91887875 -46.00871277 287.81402588 C-46.01097833 286.67285805 -46.01324388 285.53169021 -46.01557809 284.35594153 C-46.02192736 280.51755761 -46.02108812 276.67920892 -46.02026367 272.84082031 C-46.02271038 270.09462347 -46.02662853 267.34842913 -46.03044128 264.60223389 C-46.03875063 257.90777842 -46.04149627 251.21333176 -46.04205366 244.51887158 C-46.04252876 239.07662346 -46.0445832 233.63437824 -46.04775429 228.19213104 C-46.05656222 212.76177951 -46.06117353 197.33143494 -46.06042381 181.90108088 C-46.06038386 181.06908552 -46.0603439 180.23709015 -46.06030273 179.37988281 C-46.06026185 178.54687117 -46.06022097 177.71385952 -46.06017885 176.8556051 C-46.05977251 163.35914468 -46.06933872 149.86271218 -46.0834411 136.36625984 C-46.0978076 122.50762051 -46.10471111 108.64899478 -46.10384732 94.79034781 C-46.10351541 87.01006374 -46.10625983 79.22980892 -46.11702538 71.44953156 C-46.12613406 64.8241782 -46.12830266 58.19886735 -46.12151595 51.57351044 C-46.11825237 48.1942986 -46.11927641 44.81523481 -46.1268692 41.4360199 C-46.13457443 37.76930568 -46.12995378 34.10280572 -46.12223816 30.43609619 C-46.12738172 29.37266188 -46.13252529 28.30922757 -46.13782471 27.21356797 C-46.09194421 17.34854927 -44.47176174 9.5186671 -37.875 1.87109375 C-27.33688253 -7.09936988 -11.39475057 -7.81514965 0 0 Z " fill="#00A5DE" transform="translate(932.875,30.12890625)"/>
<path d="M0 0 C1.05456894 -0.00637985 2.10913788 -0.0127597 3.19566345 -0.01933289 C4.34353836 -0.02044571 5.49141327 -0.02155853 6.67407227 -0.02270508 C7.84430435 -0.02603348 9.01453644 -0.02936188 10.2202301 -0.03279114 C12.70101527 -0.03786542 15.1818073 -0.04019931 17.66259766 -0.04003906 C21.47057271 -0.0422249 25.27825794 -0.06037384 29.08618164 -0.0793457 C31.49047752 -0.08227957 33.89477478 -0.08426441 36.29907227 -0.08520508 C37.44492294 -0.09239059 38.59077362 -0.09957611 39.77134705 -0.10697937 C41.3579287 -0.10236443 41.3579287 -0.10236443 42.9765625 -0.09765625 C43.91064438 -0.09908127 44.84472626 -0.10050629 45.80711365 -0.10197449 C48.05297852 0.14526367 48.05297852 0.14526367 50.05297852 2.14526367 C50.25066342 4.84885201 50.3222121 7.45010757 50.3069458 10.15490723 C50.31006578 10.99233318 50.31318576 11.82975913 50.31640029 12.69256163 C50.32441417 15.51475666 50.31804352 18.33673869 50.31176758 21.15893555 C50.31447594 23.17566555 50.31803599 25.19239457 50.3223877 27.2091217 C50.33153242 32.69865643 50.32795888 38.18811627 50.32162952 43.67765236 C50.31658029 49.41160922 50.32125797 55.1455595 50.32440186 60.8795166 C50.32804465 70.51026567 50.32323419 80.1409841 50.3137207 89.77172852 C50.30283556 100.92005414 50.30636092 112.06830661 50.31737351 123.21663046 C50.32643747 132.77331721 50.32773604 142.32998189 50.32249618 151.88667154 C50.31937156 157.60104986 50.31898056 163.31539376 50.32556915 169.0297699 C50.33132905 174.40099463 50.32737067 179.77212469 50.31578064 185.14333916 C50.31312677 187.11949442 50.31391145 189.09565761 50.31830597 191.07180977 C50.32373431 193.75985564 50.31696053 196.44759407 50.3069458 199.13562012 C50.31140724 199.9260746 50.31586869 200.71652907 50.32046533 201.53093672 C50.28127861 206.91696358 50.28127861 206.91696358 48.05297852 209.14526367 C45.80711365 209.35453796 45.80711365 209.35453796 42.9765625 209.29638672 C41.9188414 209.2794426 40.8611203 209.26249847 39.77134705 209.24504089 C38.62549637 209.2159816 37.47964569 209.1869223 36.29907227 209.15698242 C35.12788345 209.13432816 33.95669464 209.11167389 32.75001526 209.08833313 C30.27090451 209.03830963 27.79188954 208.98333459 25.31298828 208.92382812 C21.50316199 208.83306583 17.69327691 208.75839315 13.88305664 208.6862793 C11.48004173 208.63579583 9.07704588 208.58439473 6.67407227 208.53198242 C5.52619736 208.50899582 4.37832245 208.48600922 3.19566345 208.46232605 C2.14109451 208.43592545 1.08652557 208.40952484 0 208.38232422 C-0.93328629 208.36074753 -1.86657257 208.33917084 -2.82814026 208.31694031 C-4.94702148 208.14526367 -4.94702148 208.14526367 -5.94702148 207.14526367 C-6.04706192 204.49209127 -6.08142381 201.86488187 -6.07400513 199.21118164 C-6.07556512 198.369821 -6.07712511 197.52846035 -6.07873237 196.66160393 C-6.082746 193.82020227 -6.07955133 190.9788533 -6.07641602 188.13745117 C-6.0777699 186.10939502 -6.07954975 184.08133912 -6.08172607 182.05328369 C-6.08630199 176.52865247 -6.0845102 171.00403983 -6.08134699 165.47940826 C-6.0788242 159.71161344 -6.0811607 153.94382027 -6.08273315 148.17602539 C-6.08455509 138.48803419 -6.08214792 128.8000506 -6.07739258 119.11206055 C-6.07194991 107.89388608 -6.07371255 96.67572979 -6.07921898 85.45755577 C-6.08374944 75.84485912 -6.084401 66.23216796 -6.08178031 56.6194706 C-6.08021717 50.86990689 -6.0800248 45.12035174 -6.0833168 39.37078857 C-6.08619454 33.96677546 -6.08422163 28.56278589 -6.07842255 23.15877533 C-6.07709442 21.16929921 -6.07748994 19.17982112 -6.07968521 17.19034576 C-6.08239467 14.48665185 -6.07901811 11.78303465 -6.07400513 9.0793457 C-6.07623585 8.28140532 -6.07846657 7.48346493 -6.08076489 6.66134453 C-6.0587762 0.59907983 -6.02217503 0.02459622 0 0 Z " fill="#00A4DE" transform="translate(381.947021484375,436.854736328125)"/>
<path d="M0 0 C6.34653888 5.15881232 10.29370567 11.42995648 11.69140625 19.4921875 C13.8448299 44.07568808 12.7085106 69.12803984 12.44946289 93.76464844 C12.38811778 99.62907669 12.34153419 105.49352384 12.29863262 111.35811234 C12.26325686 115.9204635 12.21904319 120.48269738 12.17228127 125.04494476 C12.15136632 127.20894449 12.13342638 129.37297525 12.11862755 131.53702545 C12.09696108 134.54731899 12.06305865 137.557243 12.02612305 140.56738281 C12.02239182 141.44324036 12.01866058 142.3190979 12.01481628 143.22149658 C11.92892633 148.86663465 11.12631563 154.03263202 9.69140625 159.4921875 C9.03140625 159.4921875 8.37140625 159.4921875 7.69140625 159.4921875 C7.52640625 160.1728125 7.36140625 160.8534375 7.19140625 161.5546875 C4.08068724 167.64651222 -1.30567208 171.37579157 -7.49609375 174.0546875 C-16.2072992 176.83793571 -24.33245441 174.79458087 -32.30859375 170.7421875 C-38.35043252 167.12763767 -42.04775083 163.28244639 -44.30859375 156.4921875 C-44.56586266 153.66601086 -44.56586266 153.66601086 -44.57601929 150.51591492 C-44.58454926 149.31737885 -44.59307922 148.11884277 -44.60186768 146.88398743 C-44.6009613 145.57737656 -44.60005493 144.27076569 -44.59912109 142.92456055 C-44.60510866 141.52795045 -44.61191473 140.13134367 -44.61947632 138.73474121 C-44.63712154 134.94741309 -44.6418311 131.16017538 -44.64310789 127.37281013 C-44.64453102 125.00429139 -44.6488037 122.63579553 -44.65410233 120.26728249 C-44.67259853 111.99759084 -44.68077355 103.7279636 -44.67919922 95.45825195 C-44.6779983 87.76071708 -44.69909186 80.06346281 -44.73068655 72.36599892 C-44.75687678 65.74840471 -44.76756535 59.13090199 -44.7662884 52.51325637 C-44.76577952 48.56481005 -44.77142124 44.61661312 -44.7926445 40.66821861 C-44.81207316 36.95231907 -44.81212026 33.23690561 -44.79761124 29.52098846 C-44.79453828 27.51629266 -44.81116762 25.51159657 -44.82849121 23.50697327 C-44.76833898 14.85234575 -43.67593882 9.49659785 -37.99609375 2.7421875 C-26.58272844 -6.81318811 -12.75292438 -8.32932117 0 0 Z " fill="#00A5DE" transform="translate(1072.30859375,126.5078125)"/>
<path d="M0 0 C6.14952181 5.87159412 9.61669666 13.69105863 10.13690186 22.12585449 C10.17207426 24.52049852 10.17522629 26.91576341 10.15136719 29.31054688 C10.1618811 30.62926285 10.17239502 31.94797882 10.18322754 33.30665588 C10.21032054 36.88756008 10.20008602 40.4674142 10.18095303 44.04833412 C10.16562588 47.81834096 10.17988778 51.58826551 10.18927002 55.35827637 C10.20014674 61.68611583 10.18590423 68.01353338 10.15722656 74.34130859 C10.12457975 81.62844583 10.13515959 88.91457543 10.168185 96.20168829 C10.1955257 102.48920152 10.19920051 108.77641368 10.18355298 115.06396723 C10.17426013 118.80570618 10.17277982 122.54697351 10.19277191 126.28868103 C10.21353035 130.46453264 10.18465995 134.63868247 10.15136719 138.81445312 C10.16958527 140.64303612 10.16958527 140.64303612 10.18817139 142.50856018 C10.05377144 151.65891661 7.76299635 159.62066069 1.56943893 166.5959549 C-3.79083355 171.61826193 -10.31318622 174.19690931 -17.625 174.5625 C-26.57946355 173.92782308 -34.00244757 171.0223539 -40.51171875 164.7421875 C-47.43219698 156.46442419 -46.91946384 145.90681787 -46.88378906 135.63647461 C-46.8872937 134.38150681 -46.89079834 133.126539 -46.89440918 131.83354187 C-46.9016599 128.42032901 -46.90002189 125.00736137 -46.89365101 121.5941627 C-46.88855126 118.00560753 -46.89329332 114.4170621 -46.89642334 110.82850647 C-46.90005101 104.80581809 -46.895295 98.78317894 -46.88574219 92.76049805 C-46.87485499 85.81674125 -46.87838996 78.8731019 -46.889395 71.92934793 C-46.89849626 65.94518088 -46.89973946 59.96104901 -46.89451766 53.97687727 C-46.89141416 50.41252791 -46.89094383 46.8482336 -46.89759064 43.28388786 C-46.90448691 39.30892308 -46.8949051 35.33408793 -46.88378906 31.35913086 C-46.88783752 30.19160278 -46.89188599 29.02407471 -46.89605713 27.82116699 C-46.84150584 17.26076723 -45.89129557 9.51565933 -38.625 1.5625 C-27.88627587 -8.62552032 -11.67499198 -8.68598965 0 0 Z " fill="#00A5DF" transform="translate(792.625,127.4375)"/>
<path d="M0 0 C7.41833842 5.78317793 9.96499508 13.06050233 12 22 C12.50100546 26.35853952 12.54895528 30.65138015 12.51757812 35.03540039 C12.5245874 36.26648026 12.53159668 37.49756012 12.53881836 38.76594543 C12.55327336 42.10094224 12.55007586 45.4349289 12.53730202 48.76986623 C12.5270636 52.28493909 12.53659717 55.79997338 12.54284668 59.31504822 C12.55009099 65.21312058 12.54061963 71.11099153 12.52148438 77.0090332 C12.49971152 83.79784271 12.50678268 90.58617161 12.52879 97.37496954 C12.54702435 103.23783249 12.54946366 109.10055197 12.53903532 114.96343416 C12.5328455 118.45020594 12.53183869 121.93675286 12.54518127 125.4235096 C12.55903292 129.31385672 12.5397596 133.20367843 12.51757812 137.09399414 C12.52567505 138.22732178 12.53377197 139.36064941 12.54211426 140.52832031 C12.43437598 150.79390267 10.41744926 160.74076415 3.05078125 168.3125 C-2.86841885 173.18315608 -9.35540135 175.87865716 -17 176 C-27.3871586 174.79091276 -35.48891355 170.20763715 -42 162 C-43.817182 158.22474386 -44.25546809 155.20226207 -44.27415466 151.03045654 C-44.28412979 149.83336563 -44.29410492 148.63627472 -44.30438232 147.40290833 C-44.305047 146.0978685 -44.30571167 144.79282867 -44.30639648 143.44824219 C-44.31402215 142.05325377 -44.32245035 140.65826954 -44.33161926 139.26329041 C-44.35353353 135.48003683 -44.36235922 131.69686406 -44.36744571 127.91355419 C-44.3710935 125.54703761 -44.37733581 123.18054206 -44.3844471 120.81403351 C-44.40893278 112.54967828 -44.42199118 104.28538573 -44.42553711 96.02099609 C-44.42916974 88.33137687 -44.45904756 80.64215743 -44.50094169 72.95266032 C-44.53569827 66.34014552 -44.55108649 59.72776284 -44.55178314 53.11515737 C-44.55257426 49.17052461 -44.56123582 45.22629911 -44.58978081 41.28176117 C-44.61605347 37.56824657 -44.61811636 33.85547417 -44.60212517 30.14190865 C-44.59946061 28.14096009 -44.62143248 26.14002539 -44.64431763 24.13920593 C-44.56833024 14.73483589 -42.54347546 8.49785938 -36 1.6875 C-25.00569117 -6.96810717 -11.65433127 -6.57780981 0 0 Z " fill="#00A5DF" transform="translate(509,126)"/>
<path d="M0 0 C7.44605568 5.9540294 11.06981787 14.26119446 12.69140625 23.52734375 C12.98283673 27.68390693 12.98521875 31.82953764 12.98193359 35.99511719 C12.98865082 37.22546692 12.99536804 38.45581665 13.00228882 39.72344971 C13.017971 43.07912264 13.0246403 46.43454795 13.02592039 49.79024029 C13.02734799 51.89296957 13.03162909 53.99567338 13.03691483 56.0983963 C13.0553858 63.45200736 13.06358928 70.8055462 13.06201172 78.15917969 C13.06081166 84.98477555 13.08189467 91.81005453 13.11349905 98.63557029 C13.13976066 104.5195372 13.15037487 110.40340125 13.1491009 116.28742623 C13.14859409 119.79107347 13.15411982 123.29443884 13.175457 126.79802704 C13.19865015 130.71280474 13.18925831 134.62715728 13.17724609 138.54199219 C13.18848511 139.68317505 13.19972412 140.82435791 13.21130371 142.00012207 C13.14038442 151.14675273 11.79443138 160.4813894 5.50390625 167.52734375 C-0.56828204 172.89285496 -8.78787268 176.01446146 -16.90625 175.86328125 C-25.87212458 174.60951667 -34.73294185 169.66559873 -40.30859375 162.52734375 C-43.75724721 155.37108182 -43.73467686 148.84010633 -43.69677734 140.98632812 C-43.70084872 139.62868326 -43.70619376 138.27104171 -43.71270752 136.91340637 C-43.72631982 133.24602102 -43.72110787 129.57889042 -43.71157026 125.91150093 C-43.70394193 122.06220978 -43.71102805 118.21293953 -43.71572876 114.36364746 C-43.72117711 107.90108347 -43.71401895 101.43862254 -43.69970703 94.97607422 C-43.68338224 87.51878967 -43.6886714 80.06175123 -43.70518625 72.60447264 C-43.71882744 66.18638369 -43.72070794 59.76836856 -43.71287024 53.35026979 C-43.70820816 49.52377066 -43.70752833 45.69738697 -43.71747971 41.87089539 C-43.72618558 38.27236677 -43.72006204 34.67415356 -43.70279694 31.0756588 C-43.69697848 29.1354299 -43.70581666 27.19517414 -43.71517944 25.25495911 C-43.64167033 15.09683095 -41.84135781 8.08690628 -34.75390625 0.515625 C-24.3415247 -7.95067246 -10.85073571 -6.92170451 0 0 Z " fill="#00A5DE" transform="translate(226.30859375,126.47265625)"/>
<path d="M0 0 C6.9162438 4.81564909 10.70593351 10.14494221 12.890625 18.31640625 C13.43696035 23.42245101 13.43139945 28.50416623 13.38671875 33.6328125 C13.38687412 35.09911674 13.38836932 36.56542137 13.39112854 38.03172302 C13.39250487 41.08863726 13.38008316 44.14507794 13.35717773 47.2019043 C13.32876966 51.09757798 13.3315474 54.99246788 13.34426785 58.88819981 C13.35125991 61.91076724 13.34339622 64.9331571 13.33101082 67.95570183 C13.32653225 69.39124811 13.32612765 70.82681369 13.33007622 72.26236153 C13.34510293 82.52775517 13.10552129 91.93238056 5.74609375 99.74609375 C-1.28320061 105.69509655 -9.31468106 107.87583217 -18.38671875 107.12890625 C-25.86516698 105.86716454 -33.08698356 101.97056944 -38.109375 96.25390625 C-42.4188943 89.92429977 -43.21585323 83.67584538 -43.28637695 76.1184082 C-43.29921219 74.91307938 -43.31204742 73.70775055 -43.32527161 72.46589661 C-43.33265854 71.1751976 -43.34004547 69.8844986 -43.34765625 68.5546875 C-43.35173178 67.88990072 -43.3558073 67.22511395 -43.36000633 66.54018211 C-43.38079354 63.01971126 -43.39512552 59.49927851 -43.40454102 55.97875977 C-43.41557723 52.37234866 -43.44996508 48.76655928 -43.48971272 45.16036701 C-43.516056 42.36080402 -43.52424845 39.56138519 -43.52782249 36.76170921 C-43.53496471 34.79493228 -43.56132358 32.82825466 -43.58821106 30.86164856 C-43.5644902 20.96090278 -42.09259723 11.2023276 -34.90625 3.8203125 C-25.51185842 -4.0423848 -11.01312292 -6.03199671 0 0 Z " fill="#00A5DE" transform="translate(1211.109375,194.68359375)"/>
<path d="M0 0 C7.16540064 4.11423775 11.69142109 10.32892207 14.02734375 18.1640625 C14.59535835 23.3971321 14.56756298 28.60051101 14.5234375 33.85546875 C14.52359279 35.37043833 14.5250867 36.8854083 14.52784729 38.40037537 C14.52922513 41.56161251 14.51677613 44.72239256 14.49389648 47.88354492 C14.46548888 51.91722097 14.46826389 55.95014013 14.4809866 59.98387241 C14.48797044 63.10762395 14.48012422 66.23120326 14.46772957 69.35493279 C14.463243 70.84154536 14.46285358 72.3281766 14.46679497 73.81479073 C14.49015096 90.36940637 14.49015096 90.36940637 9.30078125 97.5546875 C2.23368739 104.4763679 -3.41701262 107.33447739 -13.41015625 107.7265625 C-21.42628042 107.4778139 -27.068699 105.70503322 -33.03125 100.296875 C-42.06640504 90.64184446 -42.12850944 80.1832522 -42.140625 67.58203125 C-42.1439534 66.3726741 -42.1472818 65.16331696 -42.15071106 63.91731262 C-42.15576175 61.36471943 -42.15811996 58.81211967 -42.15795898 56.25952148 C-42.16014286 52.37537639 -42.17831162 48.49151669 -42.19726562 44.60742188 C-42.20020053 42.11979263 -42.20218468 39.63216205 -42.203125 37.14453125 C-42.21031052 35.99317184 -42.21749603 34.84181244 -42.22489929 33.65556335 C-42.19432334 22.74535237 -41.29794991 13.64598148 -33.97265625 5.1640625 C-25.01595646 -3.08817776 -11.2106287 -4.46755036 0 0 Z " fill="#00A7DF" transform="translate(646.97265625,193.8359375)"/>
<path d="M0 0 C6.29920818 4.19125397 10.58899554 7.96296542 12.99609375 15.328125 C13.3837738 18.88743591 13.3837738 18.88743591 13.40014648 22.69702148 C13.40700974 23.39720398 13.41387299 24.09738647 13.42094421 24.81878662 C13.43910981 27.11247562 13.4353897 29.40547389 13.4296875 31.69921875 C13.43425426 33.30672932 13.4395613 34.91423795 13.4455719 36.52174377 C13.45448289 39.88314773 13.45210299 43.24431386 13.44213867 46.60571289 C13.43065174 50.89735396 13.45086591 55.18817186 13.48005581 59.47970486 C13.49846807 62.79731902 13.4981154 66.11473774 13.49241829 69.43239021 C13.49226569 71.01391822 13.49825925 72.59546 13.51070976 74.17693901 C13.57465456 83.62999545 13.40383041 90.75834868 7.27734375 98.5 C0.74116574 104.29082438 -7.13461646 107.82386702 -16.00390625 107.453125 C-23.57181129 106.23249515 -31.28554402 102.63718802 -36.56640625 97.015625 C-42.4959064 88.67697467 -42.45960078 79.76567016 -42.4375 69.8359375 C-42.44207281 68.4402542 -42.44738161 67.04457314 -42.4533844 65.64889526 C-42.46227342 62.73572597 -42.45994161 59.82283141 -42.44995117 56.90966797 C-42.43847666 53.20573568 -42.45866998 49.50275902 -42.48786831 45.7989521 C-42.50635744 42.9195672 -42.50591269 40.04040588 -42.50023079 37.16097641 C-42.50000613 35.14106913 -42.5167859 33.12118245 -42.53404236 31.10134888 C-42.45354127 20.36225359 -40.68404773 10.90650163 -32.9609375 2.98828125 C-24.11254799 -4.51783759 -10.22133706 -5.48744749 0 0 Z " fill="#00A5DF" transform="translate(83.00390625,194.671875)"/>
<path d="M0 0 C1.05456894 -0.00637985 2.10913788 -0.0127597 3.19566345 -0.01933289 C4.34353836 -0.02044571 5.49141327 -0.02155853 6.67407227 -0.02270508 C7.84430435 -0.02603348 9.01453644 -0.02936188 10.2202301 -0.03279114 C12.70101527 -0.03786542 15.1818073 -0.04019931 17.66259766 -0.04003906 C21.47057271 -0.0422249 25.27825794 -0.06037384 29.08618164 -0.0793457 C31.49047752 -0.08227957 33.89477478 -0.08426441 36.29907227 -0.08520508 C37.44492294 -0.09239059 38.59077362 -0.09957611 39.77134705 -0.10697937 C41.3579287 -0.10236443 41.3579287 -0.10236443 42.9765625 -0.09765625 C43.91064438 -0.09908127 44.84472626 -0.10050629 45.80711365 -0.10197449 C48.05297852 0.14526367 48.05297852 0.14526367 50.05297852 2.14526367 C50.25066342 4.84885201 50.3222121 7.45010757 50.3069458 10.15490723 C50.31006578 10.99233318 50.31318576 11.82975913 50.31640029 12.69256163 C50.32441417 15.51475666 50.31804352 18.33673869 50.31176758 21.15893555 C50.31447594 23.17566555 50.31803599 25.19239457 50.3223877 27.2091217 C50.33153242 32.69865643 50.32795888 38.18811627 50.32162952 43.67765236 C50.31658029 49.41160922 50.32125797 55.1455595 50.32440186 60.8795166 C50.32804465 70.51026567 50.32323419 80.1409841 50.3137207 89.77172852 C50.30283556 100.92005414 50.30636092 112.06830661 50.31737351 123.21663046 C50.32643747 132.77331721 50.32773604 142.32998189 50.32249618 151.88667154 C50.31937156 157.60104986 50.31898056 163.31539376 50.32556915 169.0297699 C50.33132905 174.40099463 50.32737067 179.77212469 50.31578064 185.14333916 C50.31312677 187.11949442 50.31391145 189.09565761 50.31830597 191.07180977 C50.32373431 193.75985564 50.31696053 196.44759407 50.3069458 199.13562012 C50.31140724 199.9260746 50.31586869 200.71652907 50.32046533 201.53093672 C50.28127861 206.91696358 50.28127861 206.91696358 48.05297852 209.14526367 C45.80711365 209.35453796 45.80711365 209.35453796 42.9765625 209.29638672 C41.9188414 209.2794426 40.8611203 209.26249847 39.77134705 209.24504089 C38.62549637 209.2159816 37.47964569 209.1869223 36.29907227 209.15698242 C35.12788345 209.13432816 33.95669464 209.11167389 32.75001526 209.08833313 C30.27090451 209.03830963 27.79188954 208.98333459 25.31298828 208.92382812 C21.50316199 208.83306583 17.69327691 208.75839315 13.88305664 208.6862793 C11.48004173 208.63579583 9.07704588 208.58439473 6.67407227 208.53198242 C5.52619736 208.50899582 4.37832245 208.48600922 3.19566345 208.46232605 C2.14109451 208.43592545 1.08652557 208.40952484 0 208.38232422 C-0.93328629 208.36074753 -1.86657257 208.33917084 -2.82814026 208.31694031 C-4.94702148 208.14526367 -4.94702148 208.14526367 -5.94702148 207.14526367 C-6.04706192 204.49209127 -6.08142381 201.86488187 -6.07400513 199.21118164 C-6.07556512 198.369821 -6.07712511 197.52846035 -6.07873237 196.66160393 C-6.082746 193.82020227 -6.07955133 190.9788533 -6.07641602 188.13745117 C-6.0777699 186.10939502 -6.07954975 184.08133912 -6.08172607 182.05328369 C-6.08630199 176.52865247 -6.0845102 171.00403983 -6.08134699 165.47940826 C-6.0788242 159.71161344 -6.0811607 153.94382027 -6.08273315 148.17602539 C-6.08455509 138.48803419 -6.08214792 128.8000506 -6.07739258 119.11206055 C-6.07194991 107.89388608 -6.07371255 96.67572979 -6.07921898 85.45755577 C-6.08374944 75.84485912 -6.084401 66.23216796 -6.08178031 56.6194706 C-6.08021717 50.86990689 -6.0800248 45.12035174 -6.0833168 39.37078857 C-6.08619454 33.96677546 -6.08422163 28.56278589 -6.07842255 23.15877533 C-6.07709442 21.16929921 -6.07748994 19.17982112 -6.07968521 17.19034576 C-6.08239467 14.48665185 -6.07901811 11.78303465 -6.07400513 9.0793457 C-6.07623585 8.28140532 -6.07846657 7.48346493 -6.08076489 6.66134453 C-6.0587762 0.59907983 -6.02217503 0.02459622 0 0 Z M-3.94702148 2.14526367 C-3.96956571 28.72629026 -3.98799902 55.30730915 -3.99883366 81.88834286 C-4.00399732 94.22943908 -4.01104136 106.57052895 -4.02246094 118.91162109 C-4.03240562 129.66389821 -4.0388744 140.41617073 -4.04110998 151.16845232 C-4.04241745 156.86549578 -4.04550561 162.56252609 -4.05275154 168.25956535 C-4.05950837 173.61513567 -4.06163914 178.97068735 -4.06012917 184.32626152 C-4.06040565 186.29800009 -4.06241276 188.26973925 -4.06622696 190.24147415 C-4.07115894 192.92113289 -4.07002162 195.60072006 -4.067276 198.28038025 C-4.07018884 199.07122086 -4.07310168 199.86206147 -4.07610279 200.67686695 C-4.39201255 204.20442966 -4.39201255 204.20442966 -2.94702148 207.14526367 C13.88297852 207.14526367 30.71297852 207.14526367 48.05297852 207.14526367 C48.05297852 139.49526367 48.05297852 71.84526367 48.05297852 2.14526367 C30.89297852 2.14526367 13.73297852 2.14526367 -3.94702148 2.14526367 Z " fill="#00ACE9" transform="translate(381.947021484375,436.854736328125)"/>
<path d="M0 0 C37.51408816 -0.61011236 37.51408816 -0.61011236 53 3 C54.37927557 3.28194593 55.75951 3.55923839 57.140625 3.83203125 C66.76542219 5.76542219 66.76542219 5.76542219 68 7 C68.0928726 8.41225046 68.11746772 9.82908934 68.11352539 11.24438477 C68.11341209 12.59567223 68.11341209 12.59567223 68.11329651 13.97425842 C68.10813522 14.95341721 68.10297394 15.93257599 68.09765625 16.94140625 C68.0962413 17.93881332 68.09482635 18.9362204 68.09336853 19.96385193 C68.08775114 23.16343124 68.07519571 26.36294169 68.0625 29.5625 C68.05748724 31.72591045 68.05292395 33.88932199 68.04882812 36.05273438 C68.03777607 41.36851325 68.02102104 46.68425171 68 52 C63.69052608 51.48857157 59.45467616 50.96585439 55.21484375 50.02734375 C38.03463778 46.42693612 17.50038695 43.11593937 1 51 C-1.74466704 52.90479893 -2.42326607 53.90717574 -4 57 C-4.71713316 62.10957379 -3.87753653 64.80359256 -1 69 C-1 69.66 -1 70.32 -1 71 C-0.24847656 71.24105469 0.50304687 71.48210937 1.27734375 71.73046875 C6.41387135 73.48217019 11.48409195 75.39976111 16.5625 77.3125 C17.6364502 77.71694336 18.71040039 78.12138672 19.81689453 78.53808594 C21.93461614 79.33619806 24.05213591 80.13484597 26.16943359 80.93408203 C28.48178213 81.80485258 30.79638966 82.66876975 33.11328125 83.52734375 C47.68857541 88.99089713 61.34765564 96.30737978 71 109 C70.61083984 111.14575195 70.61083984 111.14575195 70 113 C69.5875 112.57178955 69.175 112.1435791 68.75 111.70239258 C66.84160261 109.73089667 64.92097046 107.77174407 63 105.8125 C62.35160156 105.13896484 61.70320312 104.46542969 61.03515625 103.77148438 C49.31167344 91.87389043 33.71794636 86.35977361 18.12109375 81.33984375 C10.90438327 79.01626303 4.08718317 76.63785384 -2 72 C-2.763125 71.46375 -3.52625 70.9275 -4.3125 70.375 C-7.44761509 65.96261579 -7.39363221 60.47425961 -6.5625 55.25 C-1.82806544 48.43241424 5.12719801 45.68381004 13 44 C17.0308763 43.55058603 21.00889143 43.47745937 25.0625 43.5 C26.7321582 43.50205444 26.7321582 43.50205444 28.43554688 43.50415039 C40.21769557 43.7152555 55.26984115 44.63492057 66 50 C66 36.14 66 22.28 66 8 C61.05 7.505 61.05 7.505 56 7 C53.21430767 6.53445287 50.45531285 6.0486734 47.6875 5.5 C46.67333008 5.30470703 46.67333008 5.30470703 45.63867188 5.10546875 C40.37281287 4.08825891 40.37281287 4.08825891 37.78173828 3.47485352 C34.1450689 2.85405994 30.53474292 2.76671332 26.85546875 2.68359375 C25.7007885 2.6524221 25.7007885 2.6524221 24.52278137 2.62062073 C22.07777333 2.55553951 19.63266317 2.49643409 17.1875 2.4375 C15.52407823 2.39427532 13.86066656 2.35065979 12.19726562 2.30664062 C8.13161352 2.19990093 4.06585929 2.09851829 0 2 C0 1.34 0 0.68 0 0 Z " fill="#00BCF5" transform="translate(558,436)"/>
<path d="M0 0 C0.99 0.33 1.98 0.66 3 1 C2.5359375 2.051875 2.5359375 2.051875 2.0625 3.125 C-0.36311241 9.68842183 -0.14384576 16.28141088 -0.13371277 23.1836853 C-0.13597833 24.31431133 -0.13824388 25.44493736 -0.14057809 26.60982478 C-0.14691113 30.40053809 -0.14608917 34.19121558 -0.14526367 37.98193359 C-0.14771219 40.69886918 -0.15162986 43.41580224 -0.15544128 46.13273621 C-0.16374021 52.74804285 -0.16649577 59.36334057 -0.16705366 65.97865199 C-0.16752914 71.356493 -0.16958549 76.73433108 -0.17275429 82.11217117 C-0.18155847 97.36469384 -0.18617398 112.61720947 -0.18542381 127.86973469 C-0.18536388 129.10259004 -0.18536388 129.10259004 -0.18530273 130.36035156 C-0.18526185 131.18326036 -0.18522097 132.00616916 -0.18517885 132.85401459 C-0.18477236 146.19191809 -0.19434342 159.52979336 -0.2084411 172.8676887 C-0.22280762 186.56818964 -0.22971115 200.26867681 -0.22884732 213.96918547 C-0.22851547 221.65889594 -0.23125754 229.34857681 -0.24202538 237.03828049 C-0.25113395 243.58490024 -0.25330266 250.13147698 -0.24651595 256.67810033 C-0.24325265 260.01682133 -0.24427571 263.35539249 -0.2518692 266.69411659 C-0.25957527 270.31693405 -0.25495327 273.9395347 -0.24723816 277.56234741 C-0.25238172 278.61274464 -0.25752529 279.66314187 -0.26282471 280.74536932 C-0.22389703 289.01652576 0.95102047 295.63821904 5 303 C4.34 303.33 3.68 303.66 3 304 C2.18247697 302.41925436 1.37118003 300.83528777 0.5625 299.25 C-0.11619141 297.92742187 -0.11619141 297.92742187 -0.80859375 296.578125 C-2.60651284 292.68754598 -3.12507086 289.43060502 -3.12863445 285.15729141 C-3.1318589 284.17891005 -3.13508335 283.20052868 -3.1384055 282.1924994 C-3.1368569 281.1201422 -3.1353083 280.047785 -3.13371277 278.94293213 C-3.13597833 277.8017643 -3.13824388 276.66059646 -3.14057809 275.48484778 C-3.14692736 271.64646386 -3.14608812 267.80811517 -3.14526367 263.96972656 C-3.14771038 261.22352972 -3.15162853 258.47733538 -3.15544128 255.73114014 C-3.16375063 249.03668467 -3.16649627 242.34223801 -3.16705366 235.64777783 C-3.16752876 230.20552971 -3.1695832 224.76328449 -3.17275429 219.32103729 C-3.18156222 203.89068576 -3.18617353 188.46034119 -3.18542381 173.02998713 C-3.18538386 172.19799177 -3.1853439 171.3659964 -3.18530273 170.50878906 C-3.18526185 169.67577742 -3.18522097 168.84276577 -3.18517885 167.98451135 C-3.18477251 154.48805093 -3.19433872 140.99161843 -3.2084411 127.49516609 C-3.2228076 113.63652676 -3.22971111 99.77790103 -3.22884732 85.91925406 C-3.22851541 78.13896999 -3.23125983 70.35871517 -3.24202538 62.57843781 C-3.25113406 55.95308445 -3.25330266 49.3277736 -3.24651595 42.70241669 C-3.24325237 39.32320485 -3.24427641 35.94414106 -3.2518692 32.56492615 C-3.25957443 28.89821193 -3.25495378 25.23171197 -3.24723816 21.56500244 C-3.25238172 20.50156813 -3.25752529 19.43813382 -3.26282471 18.34247422 C-3.23294846 11.91861598 -2.92935406 5.85870812 0 0 Z " fill="#00ACEC" transform="translate(890,39)"/>
<path d="M0 0 C1 1 1 1 1.12025452 3.47401428 C1.11803391 4.57321701 1.11581329 5.67241974 1.11352539 6.80493164 C1.11341209 8.66674828 1.11341209 8.66674828 1.11329651 10.56617737 C1.10818911 11.9308374 1.1029731 13.29549702 1.09765625 14.66015625 C1.095792 16.04878183 1.09436813 17.43740807 1.09336853 18.82603455 C1.08954387 22.48721115 1.07971403 26.1483483 1.06866455 29.80950928 C1.05844932 33.54292263 1.05387067 37.27634234 1.04882812 41.00976562 C1.03809171 48.33986177 1.02101591 55.66992536 1 63 C-1.85226968 62.32071189 -4.29431006 61.46089861 -6.9375 60.1875 C-27.4536548 50.93841382 -48.72977075 49.18312434 -69.84765625 57.0625 C-76.74388703 60.21006651 -82.32303636 65.0461477 -88 70 C-88.66 69.67 -89.32 69.34 -90 69 C-82.53106249 58.28369835 -70.09062327 52.29492791 -57.5625 49.625 C-38.40149498 46.90772297 -17.79432295 50.40324403 -1 60 C-1 40.86 -1 21.72 -1 2 C-5.95 1.505 -5.95 1.505 -11 1 C-14.68608221 0.31560129 -18.33457534 -0.47740403 -21.99609375 -1.28125 C-32.80169983 -3.37092919 -43.73481074 -3.12329092 -54.6875 -3.0625 C-56.27538921 -3.05747247 -57.86327996 -3.05291179 -59.45117188 -3.04882812 C-63.30082025 -3.03792755 -67.15039253 -3.02073283 -71 -3 C-71 -3.66 -71 -4.32 -71 -5 C-47.40701717 -7.79168482 -22.96998294 -6.2406173 0 0 Z " fill="#00B8F4" transform="translate(847,437)"/>
<path d="M0 0 C0.66 0.66 1.32 1.32 2 2 C1.49210938 2.825 0.98421875 3.65 0.4609375 4.5 C-8.09383509 18.71206185 -12.68243393 32.61030612 -15 49 C-15.185625 50.19753906 -15.37125 51.39507813 -15.5625 52.62890625 C-18.19097893 72.88227513 -13.69135534 93.89436495 -5.07421875 112.171875 C-4 115 -4 115 -5 118 C-8.29270365 114.24410256 -9.80495859 109.91234494 -11.5625 105.3125 C-12.01786133 104.16491211 -12.01786133 104.16491211 -12.48242188 102.99414062 C-23.07993077 75.58838232 -20.93651434 42.33376719 -9.51953125 15.5234375 C-6.82846955 9.94761301 -3.78367685 4.89652299 0 0 Z " fill="#00B3EE" transform="translate(706,476)"/>
<path d="M0 0 C2.12109375 1.64453125 2.12109375 1.64453125 3.5625 3.1875 C3.5625 4.1775 3.5625 5.1675 3.5625 6.1875 C2.9025 5.630625 2.2425 5.07375 1.5625 4.5 C-22.27690229 -13.87620593 -53.28562762 -21.08717717 -82.95166016 -17.50927734 C-86.19986089 -16.97271593 -89.35267709 -16.27101366 -92.546875 -15.46875 C-95.29084655 -14.8457943 -97.63702845 -14.6880346 -100.4375 -14.8125 C-100.4375 -15.4725 -100.4375 -16.1325 -100.4375 -16.8125 C-66.3161467 -26.02115438 -28.81974641 -21.22384426 0 0 Z " fill="#00BFF7" transform="translate(1075.4375,454.8125)"/>
<path d="M0 0 C5.02619539 0.71802791 9.30943619 1.55939589 14.125 2.9375 C21.01498917 4.85770361 27.90077709 6.09015018 35 7 C33 9 33 9 30.84765625 9.15234375 C20.51593717 8.35536682 12.54742555 5.7756383 2 3 C2 18.51 2 34.02 2 50 C4.64 50 7.28 50 10 50 C12.5 50.5 12.5 50.5 14 51 C14 51.66 14 52.32 14 53 C12.0412957 52.85923685 10.08303907 52.7122324 8.125 52.5625 C7.03445313 52.48128906 5.94390625 52.40007813 4.8203125 52.31640625 C2 52 2 52 0 51 C0 34.17 0 17.34 0 0 Z " fill="#00B0ED" transform="translate(496,594)"/>
<path d="M0 0 C-2.4439324 2.4439324 -4.77458902 3.35094782 -7.9375 4.75 C-31.15640183 15.32266423 -46.69519681 30.36452977 -60 52 C-60.90854159 49.54192123 -61.138281 48.36988463 -60.20703125 45.87890625 C-55.78493261 38.53351551 -50.24415435 32.59931546 -44.33642578 26.45288086 C-43.14791527 25.16080449 -42.0575758 23.77996247 -40.984375 22.390625 C-32.75151825 12.47230151 -13.45886715 -0.83351818 0 0 Z " fill="#00B5F0" transform="translate(972,441)"/>
<path d="M0 0 C2.19130534 0.69579454 2.19130534 0.69579454 4 1 C3.67 1.99 3.34 2.98 3 4 C0.10722431 3.37196317 -1.78985312 2.59096892 -4.5 1.1875 C-20.64650127 -6.98982569 -38.62103154 -8.70483531 -56.25 -5.4453125 C-59.57689189 -4.90658285 -62.64098082 -4.84731731 -66 -5 C-48.77090226 -16.48606516 -16.66171056 -10.40254945 0 0 Z " fill="#00C1F7" transform="translate(304,496)"/>
<path d="M0 0 C1.28076416 0.20931152 1.28076416 0.20931152 2.58740234 0.42285156 C5.35479101 0.88269988 8.11492884 1.37321352 10.875 1.875 C11.75051514 2.02420898 12.62603027 2.17341797 13.52807617 2.32714844 C14.34123291 2.48473633 15.15438965 2.64232422 15.9921875 2.8046875 C16.71776855 2.93858887 17.44334961 3.07249023 18.19091797 3.21044922 C20 4 20 4 21.25048828 6.07470703 C21.49782715 6.71005371 21.74516602 7.34540039 22 8 C20.97261719 7.73445313 19.94523437 7.46890625 18.88671875 7.1953125 C3.2849792 3.20091967 -11.65590706 0.80184596 -27.8125 0.875 C-29.37484375 0.87790039 -29.37484375 0.87790039 -30.96875 0.88085938 C-38.68329861 0.92398418 -46.31905279 1.24272351 -54 2 C-54.33 1.34 -54.66 0.68 -55 0 C-36.76501559 -2.96417744 -18.22469708 -3.13802731 0 0 Z " fill="#00BEF8" transform="translate(286,433)"/>
<path d="M0 0 C0.66 0 1.32 0 2 0 C2.495 0.680625 2.99 1.36125 3.5 2.0625 C12.22418925 12.31342237 26.6636802 18.42895803 39.8515625 19.84375 C48.26775742 20.4558369 56.61246407 19.73621005 65 19 C65.495 19.99 65.495 19.99 66 21 C46.44631503 24.53227857 26.00596309 23.53313497 9 12 C7.62517293 10.36739286 6.29352333 8.69774938 5 7 C4.0925 6.113125 3.185 5.22625 2.25 4.3125 C0 2 0 2 0 0 Z " fill="#00BAF4" transform="translate(755,572)"/>
<path d="M0 0 C2.80852357 2.1965851 5.44045695 4.51910213 8 7 C7.01 7.33 6.02 7.66 5 8 C3.34375 6.9609375 3.34375 6.9609375 1.5 5.375 C-7.61717138 -1.83158767 -18.56807302 -5.39558789 -30.125 -5.4375 C-30.85493164 -5.44064209 -31.58486328 -5.44378418 -32.33691406 -5.44702148 C-38.83580186 -5.30663083 -44.03253487 -3.69263064 -50.046875 -1.19140625 C-52.7257283 -0.11065194 -55.15766377 0.54206805 -58 1 C-54.89215863 -4.19453486 -49.98073767 -5.37839135 -44.453125 -7.015625 C-29.39226623 -10.78421657 -13.13141618 -8.15575601 0 0 Z " fill="#00BCF6" transform="translate(1038,496)"/>
<path d="M0 0 C0.66 0 1.32 0 2 0 C1.67 47.19 1.34 94.38 1 143 C0.67 143 0.34 143 0 143 C-0.15375407 124.50281567 -0.30179122 106.0055941 -0.4429636 87.50830936 C-0.50864201 78.9203102 -0.57621344 70.33233362 -0.64819336 61.74438477 C-0.71090331 54.26187228 -0.77011039 46.77934182 -0.82505554 39.29676813 C-0.85429051 35.33233577 -0.88531714 31.3679352 -0.92053413 27.4035511 C-0.95358822 23.67642827 -0.98197857 19.94929975 -1.00670624 16.22211266 C-1.01664569 14.85023248 -1.02832662 13.4783637 -1.04183006 12.10651398 C-1.05993478 10.24142298 -1.07131435 8.37627023 -1.08229065 6.51112366 C-1.09058679 5.46488862 -1.09888292 4.41865358 -1.10743046 3.34071445 C-1 1 -1 1 0 0 Z " fill="#00BDFE" transform="translate(1029,139)"/>
<path d="M0 0 C2 2 2 2 2.23047829 4.43252754 C2.22126036 5.4630921 2.21204243 6.49365665 2.20254517 7.55545044 C2.19688034 8.73618134 2.19121552 9.91691223 2.18537903 11.13342285 C2.16883774 12.43533569 2.15229645 13.73724854 2.13525391 15.07861328 C2.12483181 16.45819483 2.11529583 17.83778331 2.10658264 19.21737671 C2.08036243 22.96932218 2.04169745 26.72104981 2.00085878 30.47286081 C1.96030306 34.39126299 1.93110779 38.30974907 1.90072632 42.22824097 C1.84143556 49.65144732 1.77187388 57.07452077 1.69865549 64.49760139 C1.61580913 72.94724065 1.54436187 81.39696414 1.47388959 89.84671426 C1.32864328 107.23126815 1.16902503 124.61566138 1 142 C0.67 142 0.34 142 0 142 C-0.15391155 124.07616535 -0.30194454 106.15229228 -0.4429636 88.22835159 C-0.50857727 79.90611491 -0.57612049 71.58390221 -0.64819336 63.26171875 C-0.7110011 56.00880762 -0.77020154 48.7558776 -0.82505554 41.50290179 C-0.85423134 37.66189206 -0.88522342 33.82091622 -0.92053413 29.97995758 C-0.9537077 26.36527288 -0.98206049 22.75058252 -1.00670624 19.13582993 C-1.02132891 17.17563793 -1.04107198 15.21548623 -1.06095886 13.25534058 C-1.06799835 12.08868866 -1.07503784 10.92203674 -1.08229065 9.72003174 C-1.09058679 8.70605946 -1.09888292 7.69208717 -1.10743046 6.64738846 C-1.01069132 4.26346419 -0.68558287 2.27554402 0 0 Z " fill="#00C0FE" transform="translate(184,138)"/>
<path d="M0 0 C3.99496184 0.83568079 7.71056591 2.39839965 11.5 3.875 C16.41387729 5.76134881 21.23911751 7.42440409 26.375 8.625 C36.12677286 10.90789135 46.83502916 14.44670554 53.0625 22.75 C54.33149826 27.14919397 54.62979316 31.45240263 54 36 C53.34 36.66 52.68 37.32 52 38 C52.33 34.37 52.66 30.74 53 27 C52.34 27 51.68 27 51 27 C50.62746094 26.0821875 50.25492188 25.164375 49.87109375 24.21875 C44.75241226 15.41333549 30.6652779 12.81870074 21.4309082 10.21240234 C13.97021277 8.08569185 7.02720212 5.28091225 0 2 C0 1.34 0 0.68 0 0 Z " fill="#00C1F9" transform="translate(530,554)"/>
<path d="M0 0 C3.67849582 0.55057747 4.94815663 1.78464748 7.1875 4.6875 C17.22094386 16.67189128 31.17128383 20.4634879 46.046875 22.4375 C48.74260655 22.95097268 50.64675656 23.62917858 53 25 C37.4896894 26.00667881 22.38159034 22.27226545 10.01171875 12.68359375 C6.2831401 9.40827213 2.75596769 6.1558243 0 2 C0 1.34 0 0.68 0 0 Z " fill="#00B6F5" transform="translate(213,570)"/>
<path d="M0 0 C5.21692023 4.17156381 8.49460658 9.22210624 10.69140625 15.52734375 C10.69140625 16.84734375 10.69140625 18.16734375 10.69140625 19.52734375 C10.03140625 19.52734375 9.37140625 19.52734375 8.69140625 19.52734375 C8.3975 18.45806641 8.3975 18.45806641 8.09765625 17.3671875 C5.83016621 10.10535517 3.23005741 5.5688216 -3.30859375 1.52734375 C-10.4876666 -2.17486871 -16.42760191 -3.12123107 -24.30859375 -1.47265625 C-25.0046875 -1.34503906 -25.70078125 -1.21742187 -26.41796875 -1.0859375 C-28.53287711 -0.66088943 -28.53287711 -0.66088943 -31.30859375 0.52734375 C-32.55034171 2.42746145 -32.55034171 2.42746145 -33.30859375 4.52734375 C-35.43359375 6.27734375 -35.43359375 6.27734375 -37.30859375 7.52734375 C-37.10167053 3.90618733 -36.37538514 2.59927294 -33.87109375 -0.09765625 C-23.57907367 -7.94037348 -10.47870456 -6.68438514 0 0 Z " fill="#00C2F8" transform="translate(226.30859375,126.47265625)"/>
<path d="M0 0 C0.33 0.66 0.66 1.32 1 2 C0.34 2 -0.32 2 -1 2 C-1.42152344 2.85271484 -1.42152344 2.85271484 -1.8515625 3.72265625 C-2.5963225 5.19951027 -3.36091697 6.66659155 -4.1484375 8.12109375 C-11.99941807 22.94794559 -12.76571638 36.480985 -13 53 C-13.66 53 -14.32 53 -15 53 C-15.67130883 34.82095679 -16.28424185 16.92331171 -4 2 C-1.81640625 0.73828125 -1.81640625 0.73828125 0 0 Z " fill="#00B1ED" transform="translate(511,461)"/>
<path d="M0 0 C0.78117188 0.01804687 1.56234375 0.03609375 2.3671875 0.0546875 C2.94726562 0.07789063 3.52734375 0.10109375 4.125 0.125 C4.125 0.455 4.125 0.785 4.125 1.125 C3.26261719 1.30933594 2.40023437 1.49367188 1.51171875 1.68359375 C-16.03554539 5.8526903 -31.35221388 13.6947734 -44.875 25.625 C-47.875 28.125 -47.875 28.125 -50.875 28.125 C-50.875 27.465 -50.875 26.805 -50.875 26.125 C-48.87397593 24.31860441 -46.87492565 22.6504873 -44.75 21 C-44.11980957 20.50935059 -43.48961914 20.01870117 -42.84033203 19.51318359 C-31.41590737 10.80791392 -14.79855856 -0.44844117 0 0 Z " fill="#00B9F4" transform="translate(768.875,434.875)"/>
<path d="M0 0 C3.1489715 1.36911804 5.0478487 2.8752136 7.25 5.5 C8.03117188 6.41265625 8.03117188 6.41265625 8.828125 7.34375 C10 9 10 9 10 11 C10.55171875 11.23589844 11.1034375 11.47179687 11.671875 11.71484375 C14.57706108 13.31854546 16.77362864 15.35244232 19.25 17.5625 C28.77932415 25.76522217 40.11849332 31.91573208 52 36 C49.14205087 37.17969399 47.9391594 36.98077902 44.93359375 36.03125 C27.08609945 28.21424691 11.37922795 17.04531349 0 1 C0 0.67 0 0.34 0 0 Z " fill="#00BCF6" transform="translate(919,606)"/>
<path d="M0 0 C0.57363281 0.23203125 1.14726562 0.4640625 1.73828125 0.703125 C0.45200414 1.87573111 -0.84091658 3.0410533 -2.13671875 4.203125 C-2.85601562 4.8528125 -3.5753125 5.5025 -4.31640625 6.171875 C-6.26171875 7.703125 -6.26171875 7.703125 -8.26171875 7.703125 C-8.52597656 8.28835938 -8.79023438 8.87359375 -9.0625 9.4765625 C-10.30603022 11.78539711 -11.6674065 13.41175942 -13.44921875 15.328125 C-18.17700936 20.60864269 -22.35820974 26.32486767 -25.83984375 32.50390625 C-26.3090625 33.22964844 -26.77828125 33.95539063 -27.26171875 34.703125 C-27.92171875 34.703125 -28.58171875 34.703125 -29.26171875 34.703125 C-26.00884523 25.93450943 -10.93182495 -1.43492003 0 0 Z " fill="#00B5EF" transform="translate(188.26171875,454.296875)"/>
<path d="M0 0 C3.27520695 3.09615236 5.88986136 6.43880709 8.5625 10.0625 C14.9626724 18.54984241 21.96251304 26.2789008 31 32 C29.515 32.495 29.515 32.495 28 33 C18.46314005 27.52300814 10.80257466 18.41928509 4.4375 9.625 C3.99543213 9.017771 3.55336426 8.41054199 3.09790039 7.78491211 C0 3.37633784 0 3.37633784 0 0 Z " fill="#00BAF6" transform="translate(162,593)"/>
<path d="M0 0 C8.05133138 5.78604154 11.40103233 15.32187043 13.54296875 24.75390625 C14.3981466 30.82786174 14.22576752 36.87919159 14 43 C13.67 43 13.34 43 13 43 C13 38.38 13 33.76 13 29 C12.34 29 11.68 29 11 29 C10.77957031 27.90945313 10.77957031 27.90945313 10.5546875 26.796875 C8.44928826 17.35887841 5.05299195 8.63829937 -1 1 C-0.67 0.67 -0.34 0.34 0 0 Z " fill="#00B8F2" transform="translate(1048,506)"/>
<path d="M0 0 C0.66 0.33 1.32 0.66 2 1 C1.855625 2.03253906 1.71125 3.06507813 1.5625 4.12890625 C-0.08295229 16.77923733 -0.22152978 29.25692541 0 42 C-0.33 42 -0.66 42 -1 42 C-1 40.02 -1 38.04 -1 36 C-1.66 36 -2.32 36 -3 36 C-3.36758529 23.59739987 -2.61097143 12.13790886 0 0 Z " fill="#00B8F2" transform="translate(901,515)"/>
<path d="M0 0 C0.66 0 1.32 0 2 0 C2.21914063 0.51949219 2.43828125 1.03898437 2.6640625 1.57421875 C5.60179337 8.03483826 9.23349667 12.03987099 15.9375 14.75 C21.20831747 16.53040972 26.4453535 17.16832262 32 17 C32.495 17.99 32.495 17.99 33 19 C23.84794055 20.61621475 16.45489349 19.64620735 8.6875 14.3125 C4.85054689 11.19935346 2.00759907 7.52674982 0 3 C0 2.01 0 1.02 0 0 Z " fill="#00C1FC" transform="translate(326,333)"/>
<path d="M0 0 C3.35769244 1.28959161 6.51191575 2.75260323 9.6875 4.4375 C20.37326115 9.74904403 30.24213877 10.6044339 42 11 C42 11.33 42 11.66 42 12 C25.5675197 12.76446552 12.88666781 11.72066747 -1 2 C-0.67 1.34 -0.34 0.68 0 0 Z " fill="#00B8F8" transform="translate(976,584)"/>
<path d="M0 0 C7.3900876 -0.65689668 14.22151205 1.3991408 20.34375 5.61328125 C24.33094462 8.96817821 27.50248855 12.42122901 30 17 C30 17.99 30 18.98 30 20 C29.34 20 28.68 20 28 20 C26.66796875 18.171875 26.66796875 18.171875 25.1875 15.75 C20.17815011 8.09216608 14.59527299 5.62633341 6 3 C2.55614866 2.24014434 2.55614866 2.24014434 0 2 C0 1.34 0 0.68 0 0 Z " fill="#00B9F6" transform="translate(1052,121)"/>
<path d="M0 0 C7.9891155 4.33212601 14.29062077 12.30801392 19 20 C18.67 20.99 18.34 21.98 18 23 C14.59128894 19.68130771 11.48406799 16.26631678 8.5 12.5625 C7.72785156 11.60859375 6.95570312 10.6546875 6.16015625 9.671875 C5.44730469 8.79015625 4.73445313 7.9084375 4 7 C2.34150057 4.99294758 0.67210631 2.99573978 -1 1 C-0.67 0.67 -0.34 0.34 0 0 Z " fill="#00B2F1" transform="translate(1082,461)"/>
<path d="M0 0 C5.61393088 3.28518918 10.47084541 7.10939328 15.125 11.625 C15.62233643 12.09204346 16.11967285 12.55908691 16.63208008 13.0402832 C18.0078125 14.4140625 18.0078125 14.4140625 20 17 C19.62451172 19.16162109 19.62451172 19.16162109 19 21 C7.671875 9.671875 7.671875 9.671875 5.73632812 7.72851562 C4.34826637 6.34669936 2.93583515 4.98937804 1.515625 3.640625 C0 2 0 2 0 0 Z " fill="#00B7F2" transform="translate(609,528)"/>
<path d="M0 0 C2 2 2 2 3.125 4.6875 C6.662563 10.93719464 12.13511155 15.38568627 18.99609375 17.57421875 C24.68590595 18.7831652 30.32873921 17.94521013 36 17 C34.06581962 19.7803843 32.74943283 20.05616161 29.375 20.8125 C20.35742775 21.5694495 13.18620233 18.25483207 6 13 C2.61617333 10.06528534 1.12611218 7.60145809 0.1875 3.125 C0.125625 2.09375 0.06375 1.0625 0 0 Z " fill="#00C4F9" transform="translate(43,281)"/>
<path d="M0 0 C-2.85443184 1.90295456 -5.30799906 2.92379965 -8.5 4.125 C-14.29348216 6.4719946 -18.91685558 9.58118677 -23.8203125 13.42578125 C-26 15 -26 15 -28 15 C-28 15.66 -28 16.32 -28 17 C-28.66 16.67 -29.32 16.34 -30 16 C-28.88903782 12.66711347 -28.48512203 12.38107788 -25.6484375 10.625 C-24.96136719 10.19703125 -24.27429688 9.7690625 -23.56640625 9.328125 C-22.84324219 8.88984375 -22.12007812 8.4515625 -21.375 8 C-20.67503906 7.56171875 -19.97507812 7.1234375 -19.25390625 6.671875 C-13.076904 2.86711666 -7.49171033 -0.54817393 0 0 Z " fill="#00B8F4" transform="translate(543,442)"/>
<path d="M0 0 C2 1 2 1 3.5625 4.1875 C6.92559275 10.33209803 13.53939429 13.79031431 20 16 C22.6616187 16.44549357 22.6616187 16.44549357 25.3125 16.625 C26.19550781 16.69976562 27.07851562 16.77453125 27.98828125 16.8515625 C28.98408203 16.92503906 28.98408203 16.92503906 30 17 C29.67 17.66 29.34 18.32 29 19 C19.11816648 18.96550843 11.50492498 16.8447599 3.98046875 10.22265625 C1.41704743 7.47913507 0.10694962 5.83777203 -0.375 2.0625 C-0.25125 1.381875 -0.1275 0.70125 0 0 Z " fill="#00C0F9" transform="translate(1171,283)"/>
<path d="M0 0 C3.41158256 1.13719419 4.11854601 2.04342944 6 5 C6 5.66 6 6.32 6 7 C6.66 7 7.32 7 8 7 C8 7.66 8 8.32 8 9 C8.55429687 9.2578125 9.10859375 9.515625 9.6796875 9.78125 C12.3211106 11.16866415 14.6861504 12.78188506 17.125 14.5 C18.42824219 15.41265625 18.42824219 15.41265625 19.7578125 16.34375 C22 18 22 18 24 20 C14.57888332 18.6420012 7.40879897 11.94555713 1.36328125 5.015625 C0 3 0 3 0 0 Z " fill="#00B4F4" transform="translate(505,533)"/>
<path d="M0 0 C1.32 0.66 2.64 1.32 4 2 C3.38125 2.0825 2.7625 2.165 2.125 2.25 C-0.1346633 2.77905978 -0.1346633 2.77905978 -0.9375 4.75 C-1.288125 5.4925 -1.63875 6.235 -2 7 C-4.5 9.75 -4.5 9.75 -7 12 C-7.66 12 -8.32 12 -9 12 C-9.12375 12.969375 -9.2475 13.93875 -9.375 14.9375 C-9.58125 15.948125 -9.7875 16.95875 -10 18 C-10.66 18.33 -11.32 18.66 -12 19 C-11.40468344 11.55854301 -8.80520633 7.42676742 -3.25 2.625 C-2.17281969 1.7424363 -1.0915857 0.86468305 0 0 Z " fill="#00B0EC" transform="translate(55,194)"/>
<path d="M0 0 C0.66 0.33 1.32 0.66 2 1 C1.67 19.81 1.34 38.62 1 58 C0.67 58 0.34 58 0 58 C0 39.85 0 21.7 0 3 C-0.99 2.67 -1.98 2.34 -3 2 C-2.01 1.34 -1.02 0.68 0 0 Z " fill="#00B6FC" transform="translate(846,581)"/>
<path d="M0 0 C7.71043875 0.4582023 15.26534615 1.01709998 21 6.6875 C21.99 7.8321875 21.99 7.8321875 23 9 C22.01 9.495 22.01 9.495 21 10 C19.1953125 9.0390625 19.1953125 9.0390625 17.125 7.625 C12.18964049 4.26595304 8.18258336 3.85278084 2.25 3.4375 C1.07953125 3.35371094 -0.0909375 3.26992187 -1.296875 3.18359375 C-2.18890625 3.12300781 -3.0809375 3.06242187 -4 3 C-2.68 2.67 -1.36 2.34 0 2 C0 1.34 0 0.68 0 0 Z " fill="#00BDF8" transform="translate(771,121)"/>
<path d="M0 0 C4.53370838 1.32036678 8.0129453 3.14373201 11.9375 5.75 C18.89346513 10.23440159 26.25088738 13.1704485 34 16 C33.67 16.66 33.34 17.32 33 18 C25.73885254 15.45308824 18.80880847 12.57316524 12 9 C11.06692017 8.52046875 11.06692017 8.52046875 10.11499023 8.03125 C6.00283181 5.82116675 3.11564097 3.39888106 0 0 Z " fill="#00C2FA" transform="translate(727,623)"/>
<path d="M0 0 C0.99 0.33 1.98 0.66 3 1 C4.18622086 3.41965449 5.18350207 5.73776179 6.125 8.25 C6.38925781 8.91902344 6.65351562 9.58804687 6.92578125 10.27734375 C9.30884219 16.43459258 10.12911921 21.41492009 10 28 C7.94117047 24.91175571 7.14804209 22.48432775 6.125 18.9375 C4.5945089 13.79366901 2.8349339 8.86209466 0.734375 3.92578125 C0 2 0 2 0 0 Z " fill="#00B2ED" transform="translate(1104,491)"/>
<path d="M0 0 C2.5215021 -0.08172936 5.04029917 -0.14083373 7.5625 -0.1875 C8.26697266 -0.21263672 8.97144531 -0.23777344 9.69726562 -0.26367188 C15.70608601 -0.34674312 20.31014803 0.72397141 25.03125 4.71875 C25.75828125 5.60046875 25.75828125 5.60046875 26.5 6.5 C27.0053125 7.0878125 27.510625 7.675625 28.03125 8.28125 C28.3509375 8.8484375 28.670625 9.415625 29 10 C28.67 10.99 28.34 11.98 28 13 C27.34 11.68 26.68 10.36 26 9 C25.34 9 24.68 9 24 9 C23.278125 8.21625 22.55625 7.4325 21.8125 6.625 C15.82005126 1.03204784 7.82270731 1.48811638 0 1 C0 0.67 0 0.34 0 0 Z " fill="#00BEF9" transform="translate(627,193)"/>
<path d="M0 0 C7.43588931 -0.84498742 14.96526323 1.90279542 20.8828125 6.4453125 C22.25 7.8125 22.25 7.8125 24 10 C23.67 10.99 23.34 11.98 23 13 C21.576875 11.63875 21.576875 11.63875 20.125 10.25 C14.41806314 5.35337872 7.45787379 2.78503935 0 2 C0 1.34 0 0.68 0 0 Z " fill="#00B6F3" transform="translate(490,121)"/>
<path d="M0 0 C0.33 0 0.66 0 1 0 C1.14695312 0.70382812 1.29390625 1.40765625 1.4453125 2.1328125 C3.14297473 9.60642896 5.65695971 16.1602211 8.890625 23.06640625 C10 26 10 26 9 29 C6.00283082 25.49880237 4.41489222 21.57761818 2.8125 17.3125 C2.54421387 16.60222656 2.27592773 15.89195312 1.99951172 15.16015625 C0.11207804 9.90649958 -0.60068271 5.60637196 0 0 Z " fill="#00B8F3" transform="translate(692,565)"/>
<path d="M0 0 C0.7425 1.0209375 0.7425 1.0209375 1.5 2.0625 C7.93276104 9.62099422 14.32291143 14.62056028 24.4375 15.6875 C25.95751235 15.80303 27.47819196 15.91120235 29 16 C29 16.33 29 16.66 29 17 C20.4933069 17.657734 14.05504167 17.06360134 7 12 C4.3132862 9.56411047 1.87259141 7.1189188 0 4 C0 2.68 0 1.36 0 0 Z " fill="#00C1F8" transform="translate(609,284)"/>
<path d="M0 0 C1.125 1.5 1.125 1.5 1.125 4.5 C0.135 4.17 -0.855 3.84 -1.875 3.5 C-1.875 2.84 -1.875 2.18 -1.875 1.5 C-7.54831458 -1.5548617 -12.82744493 -2.76145915 -19.25 -3.125 C-20.49523438 -3.19976562 -21.74046875 -3.27453125 -23.0234375 -3.3515625 C-23.96445313 -3.40054688 -24.90546875 -3.44953125 -25.875 -3.5 C-25.875 -3.83 -25.875 -4.16 -25.875 -4.5 C-16.39188263 -5.76312014 -7.92811872 -6.34249498 0 0 Z " fill="#00BAF1" transform="translate(1214.875,197.5)"/>
<path d="M0 0 C0.33 0 0.66 0 1 0 C0.63113475 9.59049655 -3.88901042 17.74899935 -10 25 C-10 20.55867917 -8.70554691 17.98402688 -6.6875 14.1875 C-4.25221836 9.52538462 -2.02169246 4.85828249 0 0 Z " fill="#00B2F0" transform="translate(1109,579)"/>
<path d="M0 0 C1 3 1 3 0.07421875 5.04296875 C-0.61220703 6.10451172 -0.61220703 6.10451172 -1.3125 7.1875 C-1.76238281 7.90292969 -2.21226563 8.61835937 -2.67578125 9.35546875 C-3.33126953 10.16951172 -3.33126953 10.16951172 -4 11 C-4.66 11 -5.32 11 -6 11 C-6 11.66 -6 12.32 -6 13 C-7.53125 14.2890625 -7.53125 14.2890625 -9.5 15.625 C-10.1496875 16.07101562 -10.799375 16.51703125 -11.46875 16.9765625 C-11.9740625 17.31429687 -12.479375 17.65203125 -13 18 C-13 15 -13 15 -11.609375 13.421875 C-10.99578125 12.87015625 -10.3821875 12.3184375 -9.75 11.75 C-6.26400022 8.44006081 -4.27201066 5.20742714 -2 1 C-1.34 0.67 -0.68 0.34 0 0 Z " fill="#00B1ED" transform="translate(1055,566)"/>
<path d="M0 0 C-3 2 -3 2 -5.0625 2.375 C-7.14142162 2.80217126 -7.14142162 2.80217126 -7.9375 4.6875 C-8.288125 5.450625 -8.63875 6.21375 -9 7 C-11.15202945 9.83314315 -13.48380679 12.48380679 -16 15 C-16.73046875 13.2890625 -16.73046875 13.2890625 -17 11 C-15.48828125 8.7109375 -15.48828125 8.7109375 -13.3125 6.375 C-12.60738281 5.59898437 -11.90226563 4.82296875 -11.17578125 4.0234375 C-7.52162461 0.62513743 -4.96720929 -0.27595607 0 0 Z " fill="#00B6F3" transform="translate(766,124)"/>
<path d="M0 0 C0.66 0.66 1.32 1.32 2 2 C-4.28962602 7.90727794 -10.17066482 11.35786653 -19 12 C-22.4375 11.5625 -22.4375 11.5625 -25 11 C-25 10.67 -25 10.34 -25 10 C-23.64068359 9.88785156 -23.64068359 9.88785156 -22.25390625 9.7734375 C-12.91132088 8.76503146 -6.67628485 6.67628485 0 0 Z " fill="#00B8F4" transform="translate(794,290)"/>
<path d="M0 0 C-1.90914424 1.27276283 -3.84497749 2.5069865 -5.8125 3.6875 C-10.9785179 7.43539534 -15.11430284 11.77719936 -17 18 C-17.33 18 -17.66 18 -18 18 C-18.56317104 14.78187974 -18.4751869 12.71897843 -16.65234375 9.9609375 C-7.42111784 -0.87307269 -7.42111784 -0.87307269 0 0 Z " fill="#00B7F2" transform="translate(345,27)"/>
<path d="M0 0 C0.33 0 0.66 0 1 0 C1 1.98 1 3.96 1 6 C1.66 6 2.32 6 3 6 C3.81690177 8.22763988 4.62861872 10.4569486 5.4375 12.6875 C5.66759766 13.31333984 5.89769531 13.93917969 6.13476562 14.58398438 C7.38053667 18.03242308 8.39804449 21.3813479 9 25 C5.28867592 21.8041376 3.86192494 18.77949604 2.25 14.1875 C1.60804688 12.41439453 1.60804688 12.41439453 0.953125 10.60546875 C-0.02388619 6.90964362 -0.17534402 3.80399118 0 0 Z " fill="#00B6F3" transform="translate(745,546)"/>
<path d="M0 0 C0.33 0 0.66 0 1 0 C1.07654536 4.51617599 1.10228696 8.59085217 0 13 C-0.66 13 -1.32 13 -2 13 C-2 13.66 -2 14.32 -2 15 C-3.64453125 16.32421875 -3.64453125 16.32421875 -5.8125 17.6875 C-6.52019531 18.14511719 -7.22789062 18.60273437 -7.95703125 19.07421875 C-10 20 -10 20 -13 19 C-12.484375 18.62875 -11.96875 18.2575 -11.4375 17.875 C-10.633125 17.25625 -9.82875 16.6375 -9 16 C-8.42121094 15.60941406 -7.84242188 15.21882812 -7.24609375 14.81640625 C-3.18610615 11.82439033 -1.54873743 9.64132993 -0.5625 4.625 C-0.34699819 3.08699762 -0.14969169 1.54579583 0 0 Z " fill="#00B1E9" transform="translate(582,581)"/>
<path d="M0 0 C-2.30471737 1.53647825 -4.33093476 2.66226759 -6.8125 3.8125 C-10.74881035 5.74063723 -13.74873214 8.07385893 -17 11 C-17.66 10.34 -18.32 9.68 -19 9 C-13.49975586 2.99973367 -8.58629234 -0.70092182 0 0 Z " fill="#00C0F7" transform="translate(1051,123)"/>
<path d="M0 0 C5.15707429 2.02599347 7.37107065 5.71967953 9.75 10.5625 C11 14 11 14 11 18 C10.34 18 9.68 18 9 18 C8.76925781 17.26394531 8.53851563 16.52789062 8.30078125 15.76953125 C6.3291085 9.87009935 4.71166396 6.05726619 0 2 C0 1.34 0 0.68 0 0 Z " fill="#00B3EF" transform="translate(226,128)"/>
<path d="M0 0 C0.66 0 1.32 0 2 0 C2.21914063 0.51949219 2.43828125 1.03898437 2.6640625 1.57421875 C5.29272826 7.35514629 8.18063897 11.09031948 14 14 C14 14.66 14 15.32 14 16 C9.75618848 15.51032944 6.85491125 12.9923134 4 10 C1.69453575 6.77517883 0 4.06790821 0 0 Z " fill="#00B4F4" transform="translate(326,333)"/>
<path d="M0 0 C2.76022358 1.08437355 3.9853779 1.98084 5.8125 4.375 C8.56139124 7.67366949 11.20710863 9.0306141 15 11 C13 12 13 12 11.265625 11.46875 C5.88855439 8.88442149 2.54291463 5.7775667 -1 1 C-0.67 0.67 -0.34 0.34 0 0 Z " fill="#00C0F5" transform="translate(187,287)"/>
<path d="M0 0 C0.99 0.33 1.98 0.66 3 1 C1.8553125 2.3303125 1.8553125 2.3303125 0.6875 3.6875 C-1.01940131 5.7174589 -2.33243823 7.56637624 -3.6875 9.875 C-4.120625 10.57625 -4.55375 11.2775 -5 12 C-5.66 12 -6.32 12 -7 12 C-5.63855967 6.80177328 -3.53269829 3.90456127 0 0 Z " fill="#00B6EF" transform="translate(614,198)"/>
<path d="M0 0 C6.67353409 0.28398017 10.71077185 3.07805532 16 7 C15.34 7.66 14.68 8.32 14 9 C13.34 8.67 12.68 8.34 12 8 C12 7.34 12 6.68 12 6 C11.13375 5.71125 10.2675 5.4225 9.375 5.125 C6.25 4.08333333 3.125 3.04166667 0 2 C0 1.34 0 0.68 0 0 Z " fill="#00B4F6" transform="translate(357,26)"/>
<path d="M0 0 C2 2 2 2 3.1875 4.75 C5.45792914 8.82111432 8.35253452 11.18195818 12 14 C11.34 14.66 10.68 15.32 10 16 C5.4537591 12.48756182 2.0490245 9.54441923 0 4 C0 2.68 0 1.36 0 0 Z " fill="#00B7EF" transform="translate(43,281)"/>
<path d="M0 0 C0.66 0.66 1.32 1.32 2 2 C1.48050781 2.23074219 0.96101562 2.46148438 0.42578125 2.69921875 C-4.24375905 4.88294093 -7.46660475 7.15483458 -11 11 C-11.99 11.495 -11.99 11.495 -13 12 C-12.68826807 8.83968324 -12.44197236 7.39795121 -10.0390625 5.234375 C-9.24242187 4.74453125 -8.44578125 4.2546875 -7.625 3.75 C-6.83351563 3.24984375 -6.04203125 2.7496875 -5.2265625 2.234375 C-3 1 -3 1 0 0 Z " fill="#00B8F5" transform="translate(906,26)"/>
<path d="M0 0 C3.85103301 0.53675903 5.31797587 2.11600923 7.75 5.0625 C8.36359375 5.79597656 8.9771875 6.52945313 9.609375 7.28515625 C10.06828125 7.85105469 10.5271875 8.41695312 11 9 C10.34 9.66 9.68 10.32 9 11 C5.26115668 8.34345343 3.35021826 6.41889613 2 2 C1.34 2 0.68 2 0 2 C0 1.34 0 0.68 0 0 Z " fill="#00B4EF" transform="translate(963,572)"/>
<path d="M0 0 C1.15224028 0.92961422 2.29659176 1.8690125 3.4375 2.8125 C4.07558594 3.33457031 4.71367188 3.85664063 5.37109375 4.39453125 C7 6 7 6 8 9 C7.01 10.485 7.01 10.485 6 12 C5.401875 11.0925 4.80375 10.185 4.1875 9.25 C2.51893234 6.77098519 0.82063145 4.36682089 -1 2 C-0.67 1.34 -0.34 0.68 0 0 Z " fill="#00BAF6" transform="translate(86,197)"/>
<path d="M0 0 C0 0.99 0 1.98 0 3 C-1.63790712 4.04644066 -3.31008021 5.0398183 -5 6 C-6.36984198 7.29579647 -7.7151049 8.61992749 -9 10 C-9 6 -9 6 -7.5390625 4.296875 C-6.90742188 3.78640625 -6.27578125 3.2759375 -5.625 2.75 C-4.99851562 2.22921875 -4.37203125 1.7084375 -3.7265625 1.171875 C-2 0 -2 0 0 0 Z " fill="#00BCF0" transform="translate(479,125)"/>
<path d="M0 0 C3.62276315 1.3255581 6.63505348 2.94346955 9.8125 5.125 C10.60269531 5.66382813 11.39289062 6.20265625 12.20703125 6.7578125 C12.79871094 7.16773438 13.39039063 7.57765625 14 8 C12.359375 8.71484375 12.359375 8.71484375 10 9 C7.203125 7.56640625 7.203125 7.56640625 4.25 5.5625 C3.26515625 4.90378906 2.2803125 4.24507812 1.265625 3.56640625 C0.51796875 3.04949219 -0.2296875 2.53257812 -1 2 C-0.67 1.34 -0.34 0.68 0 0 Z " fill="#00C2F9" transform="translate(515,544)"/>
<path d="M0 0 C0.99 0.33 1.98 0.66 3 1 C2.07161713 2.31896465 1.13194268 3.62998689 0.1875 4.9375 C-0.59560547 6.03384766 -0.59560547 6.03384766 -1.39453125 7.15234375 C-3 9 -3 9 -6 10 C-6 6.41087588 -5.33563446 5.89142971 -3 3.3125 C-2.443125 2.68988281 -1.88625 2.06726563 -1.3125 1.42578125 C-0.879375 0.95527344 -0.44625 0.48476563 0 0 Z " fill="#00B9F4" transform="translate(716,463)"/>
<path d="M0 0 C1.24523437 0.01804688 2.49046875 0.03609375 3.7734375 0.0546875 C5.18496094 0.08949219 5.18496094 0.08949219 6.625 0.125 C6.625 0.455 6.625 0.785 6.625 1.125 C2.335 1.125 -1.955 1.125 -6.375 1.125 C-6.375 1.785 -6.375 2.445 -6.375 3.125 C-8.685 3.785 -10.995 4.445 -13.375 5.125 C-13.375 4.135 -13.375 3.145 -13.375 2.125 C-8.75130977 0.31820413 -4.94971347 -0.09339082 0 0 Z " fill="#00ACEB" transform="translate(633.375,191.875)"/>
<path d="M0 0 C0 0.66 0 1.32 0 2 C-0.61875 2.0825 -1.2375 2.165 -1.875 2.25 C-4.15723303 2.78648121 -4.15723303 2.78648121 -5 4.875 C-5.33 5.57625 -5.66 6.2775 -6 7 C-8.125 8.75 -8.125 8.75 -10 10 C-9.84876423 7.35337395 -9.49998757 5.55721506 -7.703125 3.5546875 C-3.6 0 -3.6 0 0 0 Z " fill="#00B4F3" transform="translate(199,124)"/>
<path d="M0 0 C0.66 0.66 1.32 1.32 2 2 C0.75146327 2.79397239 -0.49890043 3.58507217 -1.75 4.375 C-2.44609375 4.81585938 -3.1421875 5.25671875 -3.859375 5.7109375 C-9.32121212 9 -9.32121212 9 -13 9 C-13 8.34 -13 7.68 -13 7 C-12.14535156 6.57847656 -11.29070312 6.15695312 -10.41015625 5.72265625 C-9.30542969 5.17480469 -8.20070313 4.62695312 -7.0625 4.0625 C-5.96035156 3.51722656 -4.85820313 2.97195313 -3.72265625 2.41015625 C-1.15205586 1.25295022 -1.15205586 1.25295022 0 0 Z " fill="#00BAF3" transform="translate(1215,292)"/>
<path d="M0 0 C0.66 0.66 1.32 1.32 2 2 C-4.93 4.97 -4.93 4.97 -12 8 C-12.66 7.34 -13.32 6.68 -14 6 C-9.38 4.02 -4.76 2.04 0 0 Z " fill="#00B6F2" transform="translate(1059,636)"/>
<path d="M0 0 C1 3 1 3 -0.21484375 5.69921875 C-0.78332031 6.68535156 -1.35179687 7.67148437 -1.9375 8.6875 C-2.50339844 9.68136719 -3.06929687 10.67523437 -3.65234375 11.69921875 C-4.31943359 12.83810547 -4.31943359 12.83810547 -5 14 C-5.66 14 -6.32 14 -7 14 C-6.34097701 10.42959697 -4.83770842 7.82267745 -2.9375 4.75 C-2.38964844 3.85796875 -1.84179688 2.9659375 -1.27734375 2.046875 C-0.64505859 1.03367187 -0.64505859 1.03367187 0 0 Z " fill="#00B9F2" transform="translate(633,606)"/>
<path d="M0 0 C0.98484375 0.00902344 1.9696875 0.01804687 2.984375 0.02734375 C4.10585937 0.04474609 4.10585937 0.04474609 5.25 0.0625 C5.25 0.7225 5.25 1.3825 5.25 2.0625 C0.63 2.3925 -3.99 2.7225 -8.75 3.0625 C-9.08 2.4025 -9.41 1.7425 -9.75 1.0625 C-6.43929162 0.06140485 -3.44915231 -0.04106134 0 0 Z " fill="#00B8EB" transform="translate(240.75,431.9375)"/>
<path d="M0 0 C2.1479894 0.44812018 4.29336561 0.90878348 6.4375 1.375 C8.22994141 1.75785156 8.22994141 1.75785156 10.05859375 2.1484375 C11.51458984 2.56996094 11.51458984 2.56996094 13 3 C13.33 3.66 13.66 4.32 14 5 C8.72684667 4.5547115 3.98229776 3.91626837 -1 2 C-0.67 1.34 -0.34 0.68 0 0 Z " fill="#00CBFE" transform="translate(903,348)"/>
<path d="M0 0 C2 0 2 0 3.625 1.375 C5 3 5 3 5 5 C5.66 5 6.32 5 7 5 C8.38232443 6.62626404 9.71937515 8.2925002 11 10 C7.6989701 9.40114059 5.78574977 8.30314403 3.25 6.125 C2.63640625 5.61195313 2.0228125 5.09890625 1.390625 4.5703125 C0 3 0 3 0 0 Z " fill="#00BCF4" transform="translate(716,612)"/>
<path d="M0 0 C0.33 0.99 0.66 1.98 1 3 C-0.24556092 3.81928886 -1.49666635 4.63015186 -2.75 5.4375 C-3.44609375 5.88996094 -4.1421875 6.34242188 -4.859375 6.80859375 C-6.92957014 7.9608009 -8.68696324 8.54676982 -11 9 C-11.33 8.34 -11.66 7.68 -12 7 C-11.30132813 6.66226562 -10.60265625 6.32453125 -9.8828125 5.9765625 C-8.97273437 5.53054688 -8.06265625 5.08453125 -7.125 4.625 C-6.22007812 4.18414062 -5.31515625 3.74328125 -4.3828125 3.2890625 C-1.90465528 2.09497301 -1.90465528 2.09497301 0 0 Z " fill="#00B8F7" transform="translate(651,292)"/>
<path d="M0 0 C0.33 0.99 0.66 1.98 1 3 C-0.62170379 4.00533667 -2.24747237 5.00411907 -3.875 6 C-5.23238281 6.8353125 -5.23238281 6.8353125 -6.6171875 7.6875 C-9 9 -9 9 -11 9 C-11 8.34 -11 7.68 -11 7 C-9.21601386 5.71993203 -7.37146094 4.52339649 -5.5 3.375 C-3.96859375 2.42753906 -3.96859375 2.42753906 -2.40625 1.4609375 C-1.6121875 0.97882812 -0.818125 0.49671875 0 0 Z " fill="#00B8F2" transform="translate(1072,628)"/>
<path d="M0 0 C-1.10095362 3.30286086 -1.6896019 3.78510901 -4.4375 5.6875 C-5.36369141 6.34298828 -5.36369141 6.34298828 -6.30859375 7.01171875 C-8 8 -8 8 -10 8 C-10 7.34 -10 6.68 -10 6 C-9.34 6 -8.68 6 -8 6 C-8 5.34 -8 4.68 -8 4 C-2.58823529 0 -2.58823529 0 0 0 Z " fill="#00B4F2" transform="translate(230,496)"/>
<path d="M0 0 C0.66 0 1.32 0 2 0 C3.40234375 1.64453125 3.40234375 1.64453125 4.9375 3.8125 C6.80547282 6.43530583 8.65869193 8.78449355 11 11 C7.46180427 10.42073787 5.74971757 9.15676523 3.25 6.625 C2.63640625 6.01914062 2.0228125 5.41328125 1.390625 4.7890625 C0 3 0 3 0 0 Z " fill="#00BEF3" transform="translate(467,285)"/>
<path d="M0 0 C0.33 0.99 0.66 1.98 1 3 C-0.45706726 3.50367757 -1.91570096 4.00282556 -3.375 4.5 C-4.59316406 4.91765625 -4.59316406 4.91765625 -5.8359375 5.34375 C-8 6 -8 6 -10 6 C-10 5.34 -10 4.68 -10 4 C-6.7 2.68 -3.4 1.36 0 0 Z " fill="#00B6EB" transform="translate(1029,589)"/>
<path d="M0 0 C0.66 0 1.32 0 2 0 C1.67 4.95 1.34 9.9 1 15 C0.67 15 0.34 15 0 15 C-0.19448477 12.87562788 -0.38038289 10.75046809 -0.5625 8.625 C-0.66691406 7.44164062 -0.77132812 6.25828125 -0.87890625 5.0390625 C-1 2 -1 2 0 0 Z " fill="#00B2F4" transform="translate(149,516)"/>
<path d="M0 0 C1.12894876 0.93274109 2.25300876 1.87140122 3.375 2.8125 C4.00148438 3.33457031 4.62796875 3.85664063 5.2734375 4.39453125 C7 6 7 6 9 9 C4.04303419 7.76075855 1.88341534 6.21422242 -1 2 C-0.67 1.34 -0.34 0.68 0 0 Z " fill="#00B6F8" transform="translate(1033,288)"/>
<path d="M0 0 C2.31 1.98 4.62 3.96 7 6 C6.67 7.32 6.34 8.64 6 10 C5.34 8.68 4.68 7.36 4 6 C3.34 6 2.68 6 2 6 C1.34 4.02 0.68 2.04 0 0 Z " fill="#00B0EF" transform="translate(649,196)"/>
<path d="M0 0 C4.57071175 0.34495938 7.58325171 0.85659158 11 4 C2.42857143 3.14285714 2.42857143 3.14285714 -1 1 C-0.67 0.67 -0.34 0.34 0 0 Z " fill="#00C0FB" transform="translate(502,596)"/>
<path d="M0 0 C7.75 -0.125 7.75 -0.125 10 1 C10 1.66 10 2.32 10 3 C10.66 3.33 11.32 3.66 12 4 C10.5608866 3.71640113 9.12374482 3.42278601 7.6875 3.125 C6.88699219 2.96257812 6.08648437 2.80015625 5.26171875 2.6328125 C3 2 3 2 0 0 Z " fill="#00B2F2" transform="translate(286,491)"/>
<path d="M0 0 C0.66 0.33 1.32 0.66 2 1 C-1.465 3.97 -1.465 3.97 -5 7 C-5 5.68 -5 4.36 -5 3 C-2.625 1.1875 -2.625 1.1875 0 0 Z " fill="#00B8F5" transform="translate(1179,198)"/>
<path d="M0 0 C0.66 0.33 1.32 0.66 2 1 C1.67 4.3 1.34 7.6 1 11 C0.34 10.34 -0.32 9.68 -1 9 C-0.9765625 6.8359375 -0.9765625 6.8359375 -0.625 4.375 C-0.51414063 3.55773437 -0.40328125 2.74046875 -0.2890625 1.8984375 C-0.19367188 1.27195312 -0.09828125 0.64546875 0 0 Z " fill="#00BBEF" transform="translate(206,525)"/>
<path d="M0 0 C0.66 0.33 1.32 0.66 2 1 C1.21718695 2.33855056 0.42348123 3.67073644 -0.375 5 C-0.81585937 5.7425 -1.25671875 6.485 -1.7109375 7.25 C-2.34902344 8.11625 -2.34902344 8.11625 -3 9 C-3.66 9 -4.32 9 -5 9 C-4.42647107 5.12867972 -2.51295648 2.91827204 0 0 Z " fill="#00C0F5" transform="translate(755,509)"/>
<path d="M0 0 C-6.4 4.06153846 -6.4 4.06153846 -9.4375 3.75 C-9.953125 3.5025 -10.46875 3.255 -11 3 C-7.68381684 -0.31618316 -4.50821267 -1.6697084 0 0 Z " fill="#00C0F5" transform="translate(207,445)"/>
<path d="M0 0 C0.33 0.99 0.66 1.98 1 3 C-1.31 4.32 -3.62 5.64 -6 7 C-6.66 6.34 -7.32 5.68 -8 5 C-4.04 2.525 -4.04 2.525 0 0 Z " fill="#00B4F4" transform="translate(614,630)"/>
<path d="M0 0 C1.45823212 -0.0270043 2.91660675 -0.04639787 4.375 -0.0625 C5.18710937 -0.07410156 5.99921875 -0.08570313 6.8359375 -0.09765625 C9 0 9 0 11 1 C11 1.66 11 2.32 11 3 C7.31733897 2.40049704 3.65456815 1.75241109 0 1 C0 0.67 0 0.34 0 0 Z " fill="#00B1F3" transform="translate(825,491)"/>
<path d="M0 0 C0.99 0 1.98 0 3 0 C1.87548273 2.9719385 0.77706209 5.33440687 -1 8 C-1.66 7.34 -2.32 6.68 -3 6 C-2.01 4.02 -1.02 2.04 0 0 Z " fill="#00C4F0" transform="translate(157,490)"/>
<path d="M0 0 C1.9375 0.6875 1.9375 0.6875 4 2 C4.75 4.625 4.75 4.625 5 7 C3.02 5.35 1.04 3.7 -1 2 C-0.67 1.34 -0.34 0.68 0 0 Z " fill="#00A5F7" transform="translate(711,607)"/>
<path d="M0 0 C-2.75 1.625 -2.75 1.625 -6 3 C-8.375 2.1875 -8.375 2.1875 -10 1 C-3.71428571 -1.42857143 -3.71428571 -1.42857143 0 0 Z " fill="#00BAF4" transform="translate(841,586)"/>
<path d="M0 0 C0.33 0.66 0.66 1.32 1 2 C-1.31 3.65 -3.62 5.3 -6 7 C-6 4 -6 4 -4.6875 2.375 C-3 1 -3 1 0 0 Z " fill="#00B9F7" transform="translate(1048,577)"/>
<path d="M0 0 C0.33 0.99 0.66 1.98 1 3 C-0.32 4.32 -1.64 5.64 -3 7 C-3.66 6.34 -4.32 5.68 -5 5 C-3.35 3.35 -1.7 1.7 0 0 Z " fill="#00B5F4" transform="translate(968,506)"/>
<path d="M0 0 C2.475 0.495 2.475 0.495 5 1 C5 1.66 5 2.32 5 3 C7.97 3.495 7.97 3.495 11 4 C9.4375 4.75 9.4375 4.75 7 5 C4.49713591 3.86915563 2.32992278 2.47860484 0 1 C0 0.67 0 0.34 0 0 Z " fill="#00C8FC" transform="translate(559,509)"/>
<path d="M0 0 C0.66 0 1.32 0 2 0 C0.87548273 2.9719385 -0.22293791 5.33440687 -2 8 C-2.66 8 -3.32 8 -4 8 C-2.87548273 5.0280615 -1.77706209 2.66559313 0 0 Z " fill="#00BBF5" transform="translate(163,481)"/>
<path d="M0 0 C0.66 0.66 1.32 1.32 2 2 C-0.25 4.0625 -0.25 4.0625 -3 6 C-4.32 5.67 -5.64 5.34 -7 5 C-4.69 3.35 -2.38 1.7 0 0 Z " fill="#00B3F7" transform="translate(87,292)"/>
<path d="M0 0 C2.64 1.98 5.28 3.96 8 6 C7.01 6.33 6.02 6.66 5 7 C2.3125 5.25 2.3125 5.25 0 3 C0 2.01 0 1.02 0 0 Z " fill="#00C1FB" transform="translate(753,290)"/>
<path d="M0 0 C4.42857143 5.14285714 4.42857143 5.14285714 5 9 C4.34 9 3.68 9 3 9 C0.56839395 5.63316085 0 4.26649636 0 0 Z " fill="#00ADED" transform="translate(1077,132)"/>
<path d="M0 0 C0.33 0 0.66 0 1 0 C0.67 3.3 0.34 6.6 0 10 C-0.66 10 -1.32 10 -2 10 C-2.22036864 6.14354879 -1.60355101 3.50776784 0 0 Z " fill="#00B7F1" transform="translate(1113,566)"/>
<path d="M0 0 C0.66 0.66 1.32 1.32 2 2 C-2.75 6 -2.75 6 -5 6 C-3.63016497 2.83884224 -3.0109362 2.0072908 0 0 Z " fill="#00B9F7" transform="translate(370,343)"/>
<path d="M0 0 C0.66 0 1.32 0 2 0 C1.33333333 3.33333333 0.66666667 6.66666667 0 10 C-0.33 10 -0.66 10 -1 10 C-1.125 2.25 -1.125 2.25 0 0 Z " fill="#00B9F5" transform="translate(1171,206)"/>
</svg>
