<?xml version="1.0" encoding="UTF-8"?>
<svg version="1.1" xmlns="http://www.w3.org/2000/svg" width="1280" height="640">
<path d="M0 0 C4.54136585 3.07678508 6.49803344 8.45071113 8.69921875 13.28613281 C11.2563966 18.62126589 14.3807027 23.6519443 17.375 28.75 C18.67388815 31.00926047 19.97077614 33.26967208 21.265625 35.53125 C24.95888942 41.95202227 28.74726032 48.31085524 32.57495117 54.65209961 C36.31601953 60.85073985 40.01036513 67.07573328 43.6875 73.3125 C47.50349807 79.78128248 51.32621371 86.24562337 55.1875 92.6875 C55.54996826 93.29311768 55.91243652 93.89873535 56.28588867 94.52270508 C57.80718492 97.05524843 59.36067711 99.54101566 61 102 C61.74783111 95.45725075 62.15935566 89.00291369 62.20532227 82.41943359 C62.21522186 81.52064484 62.22512146 80.62185608 62.23532104 79.6958313 C62.26658088 76.76339229 62.29155096 73.83093716 62.31640625 70.8984375 C62.33700656 68.85006317 62.35800378 66.8016928 62.37937927 64.75332642 C62.43428241 59.39080024 62.48383028 54.02823774 62.53222656 48.66564941 C62.5826751 43.18201508 62.63823865 37.69843276 62.69335938 32.21484375 C62.80055184 21.47660706 62.90208142 10.73832498 63 0 C67.53897705 -0.02465392 72.07791543 -0.04283789 76.61694336 -0.05493164 C78.16219766 -0.0599714 79.70744716 -0.0668032 81.25268555 -0.07543945 C83.46925029 -0.08752076 85.68575218 -0.09323173 87.90234375 -0.09765625 C88.5971434 -0.10281754 89.29194305 -0.10797882 90.00779724 -0.11329651 C91.6722933 -0.11349277 93.33665499 -0.06189129 95 0 C96.81439386 1.81439386 96.12618652 4.62676754 96.12698364 7.06712341 C96.12980347 8.38662994 96.13262329 9.70613647 96.13552856 11.06562805 C96.13358395 12.54171766 96.13153576 14.01780714 96.12939453 15.49389648 C96.13074852 17.03757773 96.13252843 18.58125866 96.13470459 20.12493896 C96.13927965 24.32943341 96.13748897 28.53390342 96.1343255 32.73839831 C96.13180182 37.12972249 96.13413951 41.52104452 96.13571167 45.91236877 C96.13753353 53.28932065 96.13512682 60.66626253 96.13037109 68.04321289 C96.12493045 76.58136975 96.12668962 85.11950272 96.1321975 93.65765899 C96.13673055 100.97654788 96.13737817 108.29542955 96.13475883 115.61431938 C96.13319686 119.99066533 96.13300007 124.36700003 96.13629532 128.74334526 C96.13917675 132.85792538 96.1371933 136.97247462 96.13140106 141.08705139 C96.13007484 142.60040295 96.13046525 144.11375708 96.13266373 145.62710762 C96.13538068 147.68673823 96.13198736 149.74626877 96.12698364 151.80589294 C96.1264181 153.53783732 96.1264181 153.53783732 96.12584114 155.30477047 C96 158 96 158 95 160 C90.51604697 160.12379245 86.03300398 160.21442571 81.54785156 160.2746582 C80.0229357 160.29977103 78.49813985 160.33386883 76.97363281 160.37719727 C74.77899574 160.43800044 72.5859519 160.46623887 70.390625 160.48828125 C69.07094727 160.51446533 67.75126953 160.54064941 66.39160156 160.56762695 C63 160 63 160 60.69848633 157.73046875 C60.13798584 156.82941406 59.57748535 155.92835938 59 155 C58.5558374 154.31381592 58.1116748 153.62763184 57.65405273 152.9206543 C57.25130127 152.22883057 56.8485498 151.53700684 56.43359375 150.82421875 C55.95817139 150.01315674 55.48274902 149.20209473 54.99291992 148.36645508 C54.47963135 147.4823999 53.96634277 146.59834473 53.4375 145.6875 C52.27655896 143.70542609 51.11506663 141.72367501 49.953125 139.7421875 C49.00663086 138.12521973 49.00663086 138.12521973 48.04101562 136.47558594 C44.68643764 130.75482512 41.29218769 125.05750689 37.90310669 119.35714722 C35.86556032 115.92999965 33.829146 112.50217989 31.79296875 109.07421875 C31.39061508 108.39688187 30.98826141 107.71954498 30.57371521 107.02168274 C27.91515212 102.54479685 25.26229544 98.064573 22.61328125 93.58203125 C16.64444445 83.48371304 10.67146818 73.38940229 4.5625 63.375 C3.87994141 62.25472412 3.87994141 62.25472412 3.18359375 61.11181641 C1.32554301 57.88016164 1.32554301 57.88016164 -1 55 C-1.33 89.65 -1.66 124.3 -2 160 C-12.56 160 -23.12 160 -34 160 C-35.7454072 158.2545928 -35.1337218 155.8401889 -35.14044189 153.46678162 C-35.14615204 152.26533005 -35.15186218 151.06387848 -35.15774536 149.82601929 C-35.15899089 148.48223887 -35.16011595 147.13845834 -35.16113281 145.79467773 C-35.16575889 144.38880787 -35.17078326 142.98293927 -35.17617798 141.57707214 C-35.18933045 137.74613836 -35.19575328 133.91522213 -35.20018864 130.08426929 C-35.20311678 127.69031776 -35.20722124 125.29637106 -35.21169281 122.90242195 C-35.22537961 115.41128735 -35.23503861 107.92016373 -35.2388947 100.42901748 C-35.24336864 91.78473103 -35.26088056 83.14060323 -35.2898953 74.49636501 C-35.3115408 67.81516778 -35.32160063 61.13401507 -35.32293582 54.45278317 C-35.32398245 50.46295618 -35.32985905 46.47327811 -35.34775543 42.48348808 C-35.36428421 38.72503853 -35.36636847 34.96684897 -35.35761642 31.20837593 C-35.35648368 29.17979156 -35.37016673 27.15121564 -35.3843689 25.12268066 C-35.31871228 10.72565756 -35.31871228 10.72565756 -30.6542244 5.48920345 C-22.72349938 -1.5857049 -10.02554172 -2.83691469 0 0 Z " fill="#737070" transform="translate(418,299)"/>
<path d="M0 0 C0.70946777 -0.0049649 1.41893555 -0.00992981 2.14990234 -0.01504517 C4.50123061 -0.02966515 6.85249112 -0.03647305 9.20385742 -0.04199219 C10.84754944 -0.04774942 12.49124146 -0.05350708 14.13493347 -0.05926514 C17.58914502 -0.06977854 21.0433333 -0.07561712 24.49755859 -0.07910156 C28.8871993 -0.08454802 33.27652378 -0.10849096 37.66606617 -0.13707352 C41.06795588 -0.15587238 44.4697726 -0.16091485 47.87170982 -0.16243744 C49.48735954 -0.16543233 51.10300897 -0.1733514 52.71860695 -0.18662262 C68.74627132 -0.30874255 85.47565897 1.02648865 97.93432617 12.41113281 C108.00483211 23.53781377 108.83616193 37.51635156 108.19213867 51.74658203 C107.48073073 60.54136269 104.42182515 68.97909598 97.99682617 75.16113281 C94.77330597 77.68011117 91.45355139 79.97506153 87.99682617 82.16113281 C88.5047168 82.48984375 89.01260742 82.81855469 89.53588867 83.15722656 C97.15446866 88.42175094 102.47493595 95.44198412 104.546875 104.58959961 C105.19061189 109.69932669 105.11896492 114.75855607 105.09448242 119.90332031 C105.09306747 121.02682892 105.09165253 122.15033752 105.0901947 123.30789185 C105.08461282 126.88399965 105.07206358 130.46004404 105.05932617 134.03613281 C105.05430883 136.46581941 105.04974633 138.89550698 105.0456543 141.32519531 C105.03464931 147.27052932 105.01792918 153.21582653 104.99682617 159.16113281 C102.14675486 160.58616847 99.71062362 160.29093317 96.52807617 160.29394531 C95.23514648 160.29523438 93.9422168 160.29652344 92.61010742 160.29785156 C91.93544434 160.29575684 91.26078125 160.29366211 90.56567383 160.29150391 C88.50488928 160.28615375 86.44432268 160.29145316 84.38354492 160.29785156 C83.09061523 160.2965625 81.79768555 160.29527344 80.46557617 160.29394531 C79.27383789 160.29281738 78.08209961 160.29168945 76.85424805 160.29052734 C73.99682617 160.16113281 73.99682617 160.16113281 71.99682617 159.16113281 C71.58276367 156.73144531 71.58276367 156.73144531 71.37182617 153.28613281 C71.3317041 152.64772461 71.29158203 152.00931641 71.25024414 151.3515625 C71.00695091 146.74478947 70.99392163 142.15641265 71.04370117 137.54394531 C71.05481934 136.3707373 71.0659375 135.1975293 71.07739258 133.98876953 C71.10645185 131.64901905 71.14981138 129.30939127 71.20922852 126.97021484 C71.32356023 118.52073198 70.57561012 110.58190529 66.24682617 103.16113281 C57.64432425 95.51446443 45.03197046 97.00407707 34.30932617 97.03613281 C32.3515625 97.03033203 32.3515625 97.03033203 30.35424805 97.02441406 C29.09805664 97.02570313 27.84186523 97.02699219 26.54760742 97.02832031 C25.40976807 97.02944824 24.27192871 97.03057617 23.09960938 97.03173828 C20.27110947 97.14969445 17.75601573 97.57256559 14.99682617 98.16113281 C14.98651871 98.92312485 14.97621124 99.68511688 14.96559143 100.47019958 C14.86778207 107.63673021 14.76529177 114.80317108 14.65748692 121.96955776 C14.60222452 125.65423471 14.54879938 129.33891954 14.49951172 133.02368164 C14.45191686 136.57691122 14.3995761 140.13004156 14.34388542 143.68315315 C14.32343967 145.04156092 14.30473032 146.39999593 14.28775215 147.75845146 C14.2637574 149.65502986 14.23312285 151.5515208 14.20214844 153.44799805 C14.18660416 154.52943588 14.17105988 155.61087372 14.15504456 156.7250824 C13.99682617 159.16113281 13.99682617 159.16113281 12.99682617 160.16113281 C11.56468407 160.26040502 10.12771588 160.29193269 8.69213867 160.29394531 C7.35022461 160.29587891 7.35022461 160.29587891 5.98120117 160.29785156 C5.03760742 160.29398438 4.09401367 160.29011719 3.12182617 160.28613281 C2.2169043 160.29 1.31198242 160.29386719 0.37963867 160.29785156 C-0.52786133 160.2965625 -1.43536133 160.29527344 -2.37036133 160.29394531 C-3.18617676 160.29281738 -4.00199219 160.29168945 -4.8425293 160.29052734 C-7.81224581 160.16894927 -10.74172962 159.92755268 -13.70071411 159.65304565 C-15.18934054 159.51557828 -15.18934054 159.51557828 -16.70804024 159.37533379 C-17.46543432 159.30464746 -18.22282841 159.23396114 -19.00317383 159.16113281 C-19.07326828 140.09836251 -19.12616415 121.03561837 -19.15861034 101.9727459 C-19.1740764 93.1214352 -19.19516091 84.2702046 -19.22949219 75.41894531 C-19.25940256 67.70379906 -19.27875074 59.98871081 -19.28543931 52.27350819 C-19.2893488 48.18870368 -19.29853115 44.10406512 -19.320364 40.01931381 C-19.34075506 36.17307787 -19.34700237 32.32707595 -19.34249687 28.48079109 C-19.3433209 27.07069819 -19.34927108 25.66059731 -19.36079025 24.25055122 C-19.37577351 22.32154152 -19.37032661 20.3924057 -19.36393738 18.46334839 C-19.36670276 17.3848506 -19.36946814 16.30635281 -19.37231731 15.19517326 C-18.86245347 11.00453304 -17.35669174 7.64506781 -14.50317383 4.51660156 C-9.46231784 0.59156005 -6.30388849 0.03353619 0 0 Z M13.99682617 29.16113281 C13.9081741 32.04547101 13.88161321 34.90575439 13.89916992 37.79003906 C13.90058487 38.65426987 13.90199982 39.51850067 13.90345764 40.40892029 C13.90907378 43.18052573 13.92162898 45.95205161 13.93432617 48.72363281 C13.93933909 50.59798061 13.94390236 52.47232966 13.94799805 54.34667969 C13.95904846 58.95152825 13.97632388 63.55631702 13.99682617 68.16113281 C20.25895321 68.23753825 26.52095888 68.28988118 32.78344727 68.32592773 C34.91142265 68.34096357 37.03936731 68.36139764 39.16723633 68.38745117 C42.23551034 68.42406371 45.30337266 68.44091162 48.37182617 68.45410156 C49.78637085 68.47732735 49.78637085 68.47732735 51.22949219 68.50102234 C58.40835039 68.5028291 64.09479122 67.54725044 69.80932617 62.84863281 C75.00171885 56.46940753 75.8196422 51.20644506 74.99682617 43.16113281 C73.7362198 36.94214137 71.24198075 33.65790253 65.99682617 30.16113281 C60.55503366 27.77399775 55.43247288 27.88657633 49.60229492 27.93066406 C48.12035393 27.93135139 48.12035393 27.93135139 46.60847473 27.93205261 C44.52998649 27.93506356 42.45150027 27.94291503 40.37304688 27.95532227 C37.17789813 27.97366972 33.98303792 27.97583117 30.7878418 27.97558594 C28.76765698 27.98049806 26.74747413 27.98632505 24.72729492 27.99316406 C23.76695847 27.99427689 22.80662201 27.99538971 21.81718445 27.99653625 C20.49494621 28.00610603 20.49494621 28.00610603 19.14599609 28.01586914 C17.97734261 28.02158684 17.97734261 28.02158684 16.78507996 28.02742004 C14.97311611 27.96737182 14.97311611 27.96737182 13.99682617 29.16113281 Z " fill="#FE6904" transform="translate(693.003173828125,298.8388671875)"/>
<path d="M0 0 C8.1948333 8.74412467 14.85747803 19.43363553 15.7890625 31.5625 C15.90628662 33.02623047 15.90628662 33.02623047 16.02587891 34.51953125 C16.07921387 35.25558594 16.13254883 35.99164063 16.1875 36.75 C12.16680575 36.83765069 8.1463599 36.89061018 4.125 36.9375 C2.4244043 36.97520508 2.4244043 36.97520508 0.68945312 37.01367188 C-7.02743664 37.08116654 -12.33360423 36.71978907 -18.375 31.5625 C-20.31833877 29.32018604 -22.02538976 27.09123137 -23.75 24.6875 C-29.27333342 17.28595496 -35.97425037 15.31641682 -44.8125 13.75 C-55.94218345 12.58505729 -65.65585388 15.72933314 -74.875 21.75 C-82.59849746 28.65050183 -86.04617681 38.85859016 -87.8125 48.75 C-87.94269531 49.44609375 -88.07289063 50.1421875 -88.20703125 50.859375 C-88.51218445 52.82863031 -88.69003772 54.76091571 -88.8125 56.75 C-88.86535156 57.6059375 -88.91820312 58.461875 -88.97265625 59.34375 C-89.43413841 74.2716946 -86.44449 89.50521212 -76.7421875 101.2578125 C-69.52342137 108.26958892 -60.16239595 111.30439327 -50.25 112 C-40.96144639 111.82474427 -31.65582542 109.21314068 -24.8125 102.75 C-20.16298956 96.75457864 -18.25026304 91.06328912 -15.8125 83.75 C-23.4025 83.75 -30.9925 83.75 -38.8125 83.75 C-38.8125 74.51 -38.8125 65.27 -38.8125 55.75 C-30.99792926 55.72709829 -23.183474 55.70716897 -15.36889648 55.69506836 C-12.70808519 55.69002617 -10.04727668 55.68319264 -7.38647461 55.67456055 C-3.57144484 55.66248991 0.24354844 55.65677071 4.05859375 55.65234375 C5.85543861 55.64460182 5.85543861 55.64460182 7.68858337 55.63670349 C9.34018211 55.63659019 9.34018211 55.63659019 11.02514648 55.63647461 C11.99999496 55.634254 12.97484344 55.63203339 13.97923279 55.62974548 C16.1875 55.75 16.1875 55.75 17.1875 56.75 C17.28262944 59.42787973 17.31305279 62.07988869 17.30102539 64.75805664 C17.30117142 65.59700974 17.30131744 66.43596283 17.3014679 67.30033875 C17.3007685 70.08697044 17.29297485 72.87353616 17.28515625 75.66015625 C17.28329217 77.58686791 17.28186822 79.51358005 17.28086853 81.44029236 C17.27704259 86.52187397 17.26721166 91.6034272 17.25616455 96.68499756 C17.24595206 101.86616634 17.24137126 107.04733969 17.23632812 112.22851562 C17.22558946 122.40235826 17.20799205 132.57617233 17.1875 142.75 C7.2875 142.75 -2.6125 142.75 -12.8125 142.75 C-12.8125 138.13 -12.8125 133.51 -12.8125 128.75 C-13.61171875 129.35328125 -14.4109375 129.9565625 -15.234375 130.578125 C-30.87482522 142.07866781 -47.14053759 144.54385289 -66.3125 142.0625 C-77.83637085 140.04126078 -87.70453113 136.1064364 -96.8125 128.75 C-97.50859375 128.21632813 -98.2046875 127.68265625 -98.921875 127.1328125 C-113.77513008 115.10052447 -121.48488708 96.31714225 -123.8125 77.75 C-124.79137135 57.7350472 -124.93904205 38.05309255 -115.8125 19.75 C-115.33167969 18.76515625 -114.85085937 17.7803125 -114.35546875 16.765625 C-106.29622785 1.62758613 -92.9935262 -9.51718055 -76.62158203 -14.67382812 C-51.22603365 -22.06208564 -19.84697583 -18.74250668 0 0 Z " fill="#737170" transform="translate(355.8125,316.25)"/>
<path d="M0 0 C0.96164062 0.00966797 1.92328125 0.01933594 2.9140625 0.02929688 C9.95618158 0.14368158 9.95618158 0.14368158 11.125 1.3125 C11.22818238 2.69834182 11.26293691 4.0893582 11.26976013 5.47901917 C11.27665863 6.37756119 11.28355713 7.27610321 11.29066467 8.20187378 C11.29327805 9.1955899 11.29589142 10.18930603 11.29858398 11.21313477 C11.305271 12.25381607 11.31195801 13.29449738 11.31884766 14.36671448 C11.33293789 16.63608675 11.34481914 18.90547354 11.35479546 21.17486763 C11.37116124 24.76872593 11.39440004 28.36247771 11.41969299 31.95628357 C11.49057108 42.17791454 11.55046947 52.39959056 11.60180664 62.62133789 C11.63365614 68.86655198 11.67495513 75.11164666 11.72200203 81.35676384 C11.73799586 83.73650899 11.75032948 86.11628171 11.75890923 88.49606514 C11.77110648 91.83286723 11.79527787 95.16939073 11.82202148 98.50610352 C11.82261063 99.48565002 11.82319977 100.46519653 11.82380676 101.47442627 C11.91407698 110.00402629 13.20150699 117.20078787 18.125 124.3125 C26.06969046 130.7027945 35.95792599 131.94577582 45.91015625 131.06640625 C52.71148014 129.87853979 59.39253525 127.83977904 63.9375 122.375 C71.17627681 110.24327305 69.59970634 94.63054248 69.63671875 81.07421875 C69.65358887 78.73866343 69.6717422 76.40311706 69.69111633 74.06758118 C69.73836901 67.96036578 69.7683379 61.85318669 69.79455566 55.74584961 C69.82448663 49.49781122 69.87097357 43.24989762 69.91601562 37.00195312 C70.00176716 24.77218679 70.06770434 12.54243279 70.125 0.3125 C81.015 0.3125 91.905 0.3125 103.125 0.3125 C104.40160771 77.93024888 104.40160771 77.93024888 103.875 101.25 C103.86211945 102.01046631 103.84923889 102.77093262 103.83596802 103.55444336 C103.5448268 119.31831377 101.59201589 135.44408907 90.3828125 147.4296875 C73.19341811 161.76409597 46.98137189 161.72002876 25.765625 160.00390625 C11.98095555 158.63797526 -1.93241066 154.99035412 -11.6875 144.5625 C-23.91228969 129.31746815 -23.35078415 111.02648598 -23.34375 92.4765625 C-23.35086376 90.18402931 -23.35856451 87.89149787 -23.36682129 85.59896851 C-23.38019622 80.81999744 -23.38186412 76.04119146 -23.37597656 71.26220703 C-23.37005601 65.14913441 -23.40080258 59.03684927 -23.44109344 52.92392921 C-23.46696461 48.20034542 -23.46984893 43.47695221 -23.46620178 38.75330734 C-23.46789038 36.49911885 -23.47750763 34.24492131 -23.49534607 31.99080276 C-23.51754722 28.84180098 -23.50783046 25.69440767 -23.49023438 22.54541016 C-23.50349762 21.62369019 -23.51676086 20.70197021 -23.53042603 19.75231934 C-23.44888531 13.45361056 -21.96865658 9.16194474 -17.875 4.3125 C-12.13104099 -0.23539772 -7.14899035 -0.22095094 0 0 Z " fill="#72706F" transform="translate(546.875,298.6875)"/>
<path d="M0 0 C22 0 22 0 28 4 C32.16568606 9.57535772 32.57556841 13.98152819 32.50170898 20.81225586 C32.50981346 22.25290405 32.50981346 22.25290405 32.51808167 23.72265625 C32.5305511 26.88703587 32.51407809 30.05050174 32.49609375 33.21484375 C32.49624889 35.43095446 32.4977404 37.64706544 32.50050354 39.86317444 C32.50188714 44.50924676 32.48934462 49.15501028 32.46655273 53.80102539 C32.43831799 59.71494024 32.44086543 65.62833648 32.45364285 71.54228878 C32.46065183 76.12295338 32.45274916 80.70350138 32.44038582 85.28415108 C32.43591124 87.46192538 32.43549903 89.6397124 32.43945122 91.81748772 C32.47621597 129.93580184 32.47621597 129.93580184 19.8125 143.875 C6.09270324 156.29534464 -13.09889225 160.09421636 -31 160 C-44.85273296 159.10028642 -57.69304294 155.67268278 -68 146 C-82.33315195 129.12308047 -84.26543474 107.23659073 -83 86 C-81.68292361 72.30933752 -77.26959827 60.01908107 -69 49 C-68.39542969 48.17628906 -67.79085937 47.35257812 -67.16796875 46.50390625 C-60.61151414 38.93149651 -50.96482532 33.67905118 -40.98974609 32.82861328 C-28.24854378 32.04398084 -17.91493909 33.34124569 -7.65625 41.53515625 C-6 43 -6 43 -4.40625 44.68359375 C-3.07769512 46.22780043 -3.07769512 46.22780043 -1 46 C-0.67 30.82 -0.34 15.64 0 0 Z M-44.4375 69.75 C-48.96614771 76.56855715 -50.57221595 83.92395563 -51 92 C-51.05285156 92.91652344 -51.10570312 93.83304688 -51.16015625 94.77734375 C-51.48283953 105.45395147 -50.06785992 116.57447207 -43 125 C-37.90635459 130.36897759 -32.83066752 132.07419943 -25.5625 132.3125 C-18.2610519 132.14453705 -12.92781361 129.66607023 -7.5703125 124.7890625 C0.95772266 115.07304234 0.76381526 100.14943641 0 88 C-1.30708328 79.07507201 -4.14089036 71.37963404 -10.8125 65.125 C-21.64690638 57.90206241 -36.09566797 59.42595046 -44.4375 69.75 Z " fill="#FE6905" transform="translate(1005,299)"/>
<path d="M0 0 C1.5017981 0.00737183 1.5017981 0.00737183 3.03393555 0.01489258 C17.85635465 0.24640013 32.10298363 2.37474494 43.41015625 12.77734375 C50.12549489 19.81501865 51.17507455 26.89625296 51.10205078 36.17333984 C51.10234283 37.14957306 51.10263489 38.12580627 51.10293579 39.13162231 C51.10154687 42.34565237 51.08600612 45.55944814 51.0703125 48.7734375 C51.06658082 51.00688551 51.06373458 53.24033516 51.06173706 55.4737854 C51.05411284 61.34279933 51.03447467 67.21171377 51.0123291 73.08068848 C50.99184463 79.07330988 50.98272978 85.06594741 50.97265625 91.05859375 C50.95122771 102.80993947 50.91710631 114.56121145 50.875 126.3125 C47.8465618 126.49153026 44.8179722 126.66523587 41.7890625 126.8359375 C40.93836182 126.8867749 40.08766113 126.9376123 39.21118164 126.98999023 C33.06572046 127.33058206 26.95266705 127.47630858 20.875 126.3125 C20.545 125.9825 20.215 125.6525 19.875 125.3125 C18.12217542 125.36670912 16.37154129 125.4944635 14.625 125.65234375 C12.99884766 125.7925293 12.99884766 125.7925293 11.33984375 125.93554688 C10.19644531 126.03931641 9.05304687 126.14308594 7.875 126.25 C-9.45853005 127.80660322 -25.54606744 128.73518025 -40.2578125 117.71484375 C-47.88919629 110.72766768 -51.40831046 101.05530663 -52.34375 90.94921875 C-52.72059006 81.10427219 -50.49379281 71.01028209 -44.125 63.3125 C-30.89449989 49.40268325 -10.93694998 49.38613602 7 48.75 C8.14726563 48.70681641 9.29453125 48.66363281 10.4765625 48.61914062 C13.27595143 48.51416354 16.07541215 48.41200535 18.875 48.3125 C20.84168563 44.37912873 20.19841652 39.61020798 19.875 35.3125 C18.53846996 31.30290989 17.3233519 30.56254241 13.625 28.5 C6.10483499 26.07683572 -3.66526135 25.65364435 -10.875 29.125 C-14.00736868 30.98838135 -14.00736868 30.98838135 -15.38598633 32.9309082 C-18.15409701 35.13008529 -20.72983677 34.64795098 -24.19921875 34.60546875 C-24.8830513 34.60122391 -25.56688385 34.59697906 -26.2714386 34.59260559 C-28.45219561 34.57583353 -30.63202309 34.53818657 -32.8125 34.5 C-34.29230435 34.48495114 -35.7721232 34.47126308 -37.25195312 34.45898438 C-40.87660336 34.42593569 -44.50071094 34.37416446 -48.125 34.3125 C-47.30235048 24.13993745 -44.07380652 17.27566427 -36.5546875 10.16796875 C-25.77820396 1.93833904 -13.18175263 -0.07711241 0 0 Z M-20.125 80.3125 C-22.51034639 84.51070965 -22.39694035 88.51401035 -21.734375 93.19140625 C-20.75727811 96.59245504 -18.90856097 98.24101276 -16.125 100.3125 C-7.42839725 103.38884927 4.60675339 102.00682295 12.875 98.3125 C17.0261874 95.92777532 18.85114803 93.31210561 20.37890625 88.74609375 C21.34742842 83.99499679 21.27594772 79.1315832 20.875 74.3125 C19.2007489 72.6382489 17.14746769 73.14815081 14.91015625 73.12182617 C-3.98214611 72.44388806 -3.98214611 72.44388806 -20.125 80.3125 Z " fill="#FE6904" transform="translate(860.125,331.6875)"/>
<path d="M0 0 C6.11904748 3.83919148 10.06362285 9.55759216 12.22265625 16.39453125 C13.46810769 22.07755756 13.24891063 26.68092272 11.59765625 32.25390625 C10.9378819 36.02011816 11.65361076 38.53660808 13.75390625 41.703125 C15.80558912 43.92171064 17.67849144 45.75495837 20.22265625 47.39453125 C22.60896888 47.47360984 24.28316054 46.89520109 26.54296875 46.13671875 C34.61896798 43.89992596 44.28080149 44.33621274 51.87890625 47.9453125 C60.78308972 53.45106595 66.70159195 60.31086057 69.828125 70.3359375 C71.54031735 79.26985203 70.50805526 88.66299403 65.96875 96.58203125 C61.13448948 103.53704366 54.38926636 108.90255551 46.22265625 111.39453125 C43.3529891 111.76987133 40.55005797 111.77125129 37.66015625 111.70703125 C36.93119141 111.71025391 36.20222656 111.71347656 35.45117188 111.71679688 C30.98548057 111.67258211 27.44588626 110.9782425 23.22265625 109.39453125 C20.09803745 109.31441282 18.69703678 109.97969639 16.35546875 112.02734375 C14.59327194 113.77538636 12.88902016 115.55528809 11.22265625 117.39453125 C12.52069785 120.7838621 14.00929277 123.94764573 15.72265625 127.14453125 C21.43337268 138.58280988 21.80070891 151.21004792 18.3203125 163.48046875 C13.67465161 175.81378913 4.59761246 184.27861928 -6.953125 190.20703125 C-18.34509671 194.99701659 -31.29081091 194.57551017 -42.77734375 190.39453125 C-56.11641347 183.74302216 -65.0485514 173.56396494 -70.15234375 159.64453125 C-72.64594049 147.09942598 -71.21089242 133.75337817 -64.71484375 122.70703125 C-57.92282308 112.83937858 -49.15629909 105.89986864 -37.49609375 102.78515625 C-25.68311928 101.0878898 -13.29781501 101.3680203 -2.90234375 107.64453125 C-0.08460358 109.61537468 -0.08460358 109.61537468 2.18359375 109.1953125 C4.57420046 108.2564727 6.07109427 107.05075073 7.97265625 105.33203125 C8.58625 104.78417969 9.19984375 104.23632812 9.83203125 103.671875 C10.2909375 103.25035156 10.74984375 102.82882812 11.22265625 102.39453125 C10.28935664 99.89555613 9.35984994 97.61196246 7.93359375 95.3515625 C2.96666972 87.37834235 3.0807455 78.48564275 4.22265625 69.39453125 C5.45678429 64.60836973 7.4162157 61.37533732 10.53515625 57.58203125 C12.45853804 55.60105954 12.45853804 55.60105954 12.05078125 53.4921875 C11.02814494 50.90183044 9.67718883 49.55154387 7.66015625 47.64453125 C7.01949219 47.0309375 6.37882812 46.41734375 5.71875 45.78515625 C5.22503906 45.32625 4.73132813 44.86734375 4.22265625 44.39453125 C3.60777344 44.74386719 2.99289063 45.09320313 2.359375 45.453125 C1.14701172 46.13568359 1.14701172 46.13568359 -0.08984375 46.83203125 C-1.29060547 47.51072266 -1.29060547 47.51072266 -2.515625 48.203125 C-8.31248078 51.25673642 -15.01895997 51.47002521 -21.2890625 49.67578125 C-29.62847836 46.16444826 -35.09660995 41.02407222 -39.02734375 32.76953125 C-40.98502228 23.95997787 -40.59706698 15.19789267 -35.77734375 7.39453125 C-26.49303118 -3.27940728 -12.89725871 -5.93483612 0 0 Z M-23.77734375 14.39453125 C-26.82880811 18.87001232 -27.7278816 23.10320389 -26.77734375 28.39453125 C-24.55597812 32.75498972 -22.34167346 35.52730546 -17.77734375 37.39453125 C-12.95011283 37.93089024 -10.79843589 37.91471026 -6.46484375 35.70703125 C-2.98528533 32.71299261 -1.16627876 30.70456946 -0.390625 26.09765625 C-0.05587952 21.18805586 -0.4272069 18.15646003 -3.65234375 14.33203125 C-6.6706872 11.23349027 -8.69697372 10.22195817 -13.02734375 10.08203125 C-17.68309307 10.1493974 -20.25554509 11.20814199 -23.77734375 14.39453125 Z M22.91015625 67.58203125 C20.19896805 72.10067825 18.73097574 76.5100056 19.6328125 81.80078125 C21.19348195 86.91773027 23.1316867 91.59614897 27.94140625 94.39453125 C33.1051924 96.68954732 37.7941252 96.966462 43.22265625 95.39453125 C48.37003912 93.03362533 51.32357745 89.59020581 53.56640625 84.4375 C55.05732118 79.79613982 54.52869539 76.328756 53.03515625 71.76953125 C50.4255698 66.91030131 47.34522893 63.51647285 42.22265625 61.39453125 C34.08031296 60.22159738 28.88497401 61.93017661 22.91015625 67.58203125 Z M-42.6640625 130.33203125 C-48.59235079 137.91105357 -49.83061131 144.85968806 -48.77734375 154.39453125 C-46.86294594 160.91238799 -43.54393518 165.53299989 -37.875 169.2734375 C-31.4180284 172.72437018 -24.87595688 173.13250648 -17.77734375 171.39453125 C-10.06095882 168.02787116 -4.94744426 162.1612775 -1.77734375 154.39453125 C0.00249738 147.13825588 -1.26442706 140.68979368 -4.83984375 134.20703125 C-8.38443414 128.91659783 -13.78778751 125.39105 -19.77734375 123.39453125 C-28.57884637 122.36939783 -36.30219897 123.79893743 -42.6640625 130.33203125 Z " fill="#FE6905" transform="translate(139.77734375,308.60546875)"/>
<path d="M0 0 C11.60619449 8.69905522 17.96248888 25.11497338 20 39 C21.2810313 60.69448602 20.56811452 81.91385423 6.81640625 99.84765625 C-1.12330768 108.49138423 -12.2339358 114.69058109 -24 116 C-25.13050781 116.13148438 -26.26101563 116.26296875 -27.42578125 116.3984375 C-43.29810743 117.85758904 -58.76106857 115.19891949 -71.94140625 105.71875 C-84.70261856 95.06422739 -89.99668447 80.28617833 -91.82128906 64.07617188 C-93.50488257 44.51704725 -91.98836881 22.62243846 -78.8671875 7.0234375 C-58.9228486 -14.58988374 -23.78837738 -16.51682097 0 0 Z M-53.25 25 C-61.58294607 35.90568625 -61.14593342 49.92912152 -60 63 C-58.86515803 71.08679978 -56.81835791 79.04940668 -51 85 C-45.03614492 88.84496046 -39.11748999 90.68878935 -32 90 C-24.85942682 87.74991585 -20.33461776 84.10825629 -16.40625 77.76171875 C-12.15023443 69.40337706 -11.729052 61.10248578 -11.625 51.875 C-11.61090088 50.95686523 -11.59680176 50.03873047 -11.58227539 49.09277344 C-11.64459468 40.2860325 -13.31161316 31.95247281 -19 25 C-25.37367155 18.80134918 -29.76619833 17.62726331 -38.703125 17.7265625 C-44.87407392 18.23837106 -48.95061032 20.63659956 -53.25 25 Z " fill="#FE6904" transform="translate(1183,342)"/>
<path d="M0 0 C9.12995969 12.66413763 6.0098675 30.99626912 5.81640625 46.02734375 C5.79205093 48.2479244 5.76821028 50.46851075 5.74485779 52.68910217 C5.68255453 58.48402487 5.61334079 64.27884439 5.54260254 70.07366943 C5.47142803 76.00674817 5.40690683 81.93989904 5.34179688 87.87304688 C5.21347937 99.47794389 5.07784864 111.08274268 4.9375 122.6875 C3.36520272 122.85342575 1.79263909 123.01682851 0.2199707 123.17919922 C-0.65572067 123.27047089 -1.53141205 123.36174255 -2.43363953 123.45578003 C-6.252113 123.79235801 -10.04428448 123.83352863 -13.875 123.8125 C-14.59880859 123.81636719 -15.32261719 123.82023438 -16.06835938 123.82421875 C-19.87636607 123.81726349 -23.35029339 123.49549569 -27.0625 122.6875 C-27.19474754 110.67152509 -27.32524062 98.65553243 -27.45365143 86.63951588 C-27.51336553 81.05662433 -27.57362596 75.47373992 -27.63525391 69.89086914 C-28.10472943 27.2820186 -28.10472943 27.2820186 -28.15625 9.13671875 C-28.1627356 7.95318314 -28.16922119 6.76964752 -28.17590332 5.55024719 C-28.17650757 4.50330185 -28.17711182 3.45635651 -28.17773438 2.37768555 C-28.18081604 1.03869453 -28.18081604 1.03869453 -28.18395996 -0.3273468 C-28.0625 -2.3125 -28.0625 -2.3125 -27.0625 -3.3125 C-18.19276109 -4.80333897 -7.48905005 -5.65499698 0 0 Z " fill="#FE6904" transform="translate(1075.0625,335.3125)"/>
<path d="M0 0 C1.33110918 1.1241613 2.64470901 2.26947529 3.9375 3.4375 C4.61683594 4.0253125 5.29617187 4.613125 5.99609375 5.21875 C8.90794982 7.89039259 10.63433032 9.52308133 11.90234375 13.34765625 C11.9375 16.4375 11.9375 16.4375 10.06640625 18.9921875 C9.21949219 19.75789063 8.37257813 20.52359375 7.5 21.3125 C6.65566406 22.09367187 5.81132812 22.87484375 4.94140625 23.6796875 C3.94947266 24.54980469 3.94947266 24.54980469 2.9375 25.4375 C-0.61453426 24.25348858 -1.0499356 23.32057861 -3.125 20.3125 C-10.56398398 10.4617191 -22.03243484 4.62231506 -34.0625 2.4375 C-44.98506059 1.43747013 -56.17312922 1.2388068 -66.0625 6.4375 C-66.8565625 6.82292969 -67.650625 7.20835937 -68.46875 7.60546875 C-76.93983707 11.96807859 -82.66648149 17.64983958 -88.0625 25.4375 C-90.94414201 24.10163946 -93.31526708 22.60112669 -95.75 20.5625 C-96.35199219 20.07007813 -96.95398438 19.57765625 -97.57421875 19.0703125 C-99.3473256 17.12501417 -99.91350033 16.06982753 -100.0625 13.4375 C-93.49783774 0.8295566 -78.89510805 -7.21131149 -65.93359375 -11.62890625 C-42.81241321 -18.14058567 -19.29018455 -14.50857684 0 0 Z " fill="#FE6905" transform="translate(170.0625,270.5625)"/>
<path d="M0 0 C8.6045784 7.09127319 8.6045784 7.09127319 9.51953125 11.5078125 C8.79837042 14.96721557 7.20264139 16.09783553 4.5 18.3125 C3.6646875 19.00988281 2.829375 19.70726562 1.96875 20.42578125 C1.3190625 20.94527344 0.669375 21.46476562 0 22 C-3.02408936 20.66509863 -4.04779294 19.93674464 -6.125 17.1875 C-10.71159871 11.43314763 -18.49700496 8.49943848 -25.59765625 7.2265625 C-35.51145652 6.29160247 -43.72712834 8.41729956 -52 14 C-54.63039842 16.47907262 -56.88788495 19.06981223 -59 22 C-62.34820898 20.53374144 -64.69266359 18.66341553 -67.3125 16.125 C-68.03050781 15.44695312 -68.74851562 14.76890625 -69.48828125 14.0703125 C-71 12 -71 12 -70.85546875 9.921875 C-67.54271901 2.47953311 -60.38588346 -2.10746125 -53.1484375 -5.23046875 C-35.51289138 -11.81408907 -15.7802513 -10.87240529 0 0 Z " fill="#FE6905" transform="translate(157,290)"/>
<path d="M0 0 C2.41734542 -0.08117951 4.83194949 -0.14056926 7.25 -0.1875 C7.93191406 -0.21263672 8.61382813 -0.23777344 9.31640625 -0.26367188 C12.45428866 -0.30936919 14.66653154 -0.17598256 17.46484375 1.30078125 C19 3 19 3 19.3125 6.375 C19 10 19 10 18.25 12.5625 C17.86889856 16.27823903 19.80569369 18.14075238 22 21 C25.19217101 17.35863128 26.53637049 13.30297285 28.125 8.8125 C30.88676671 1.11323329 30.88676671 1.11323329 32 0 C34.67058851 -0.14115161 37.32432238 -0.04247107 40 0 C42.41932293 5.23060321 44.66806147 10.52588378 46.8125 15.875 C47.25207031 16.96554687 47.69164062 18.05609375 48.14453125 19.1796875 C49 22 49 22 48 25 C45.125 24.6875 45.125 24.6875 42 24 C41.34 23.01 40.68 22.02 40 21 C38.02252878 20.63702064 38.02252878 20.63702064 35.875 20.8125 C34.59625 20.874375 33.3175 20.93625 32 21 C31.505 22.485 31.505 22.485 31 24 C25.56927452 25.27144027 20.42921453 25.38653787 15 24 C11 19.62790698 11 19.62790698 11 16 C9.68 15.67 8.36 15.34 7 15 C7 17.97 7 20.94 7 24 C3 25 3 25 0 24 C-0.19632025 20.3754207 -0.38055978 16.75032733 -0.5625 13.125 C-0.64661133 11.57619141 -0.64661133 11.57619141 -0.73242188 9.99609375 C-0.78076172 9.00996094 -0.82910156 8.02382813 -0.87890625 7.0078125 C-0.9260376 6.09660645 -0.97316895 5.18540039 -1.02172852 4.24658203 C-1 2 -1 2 0 0 Z M7 5 C7 6.65 7 8.3 7 10 C8.65 9.67 10.3 9.34 12 9 C11.34 7.68 10.68 6.36 10 5 C9.01 5 8.02 5 7 5 Z M36 9 C35.34 10.65 34.68 12.3 34 14 C35.32 14 36.64 14 38 14 C37.67 12.35 37.34 10.7 37 9 C36.67 9 36.34 9 36 9 Z " fill="#9A9898" transform="translate(835,477)"/>
<path d="M0 0 C1.42022461 -0.04350586 1.42022461 -0.04350586 2.86914062 -0.08789062 C8.71751774 -0.14094638 12.22571579 0.30540416 16.8125 4.3125 C22.59431314 11.31153696 20.8125 15.00349986 20.8125 25.3125 C10.2525 25.3125 -0.3075 25.3125 -11.1875 25.3125 C-11.208125 21.373125 -11.22875 17.43375 -11.25 13.375 C-11.26365601 11.50920288 -11.26365601 11.50920288 -11.27758789 9.60571289 C-11.28133423 8.14766235 -11.28133423 8.14766235 -11.28515625 6.66015625 C-11.29039307 5.65992432 -11.29562988 4.65969238 -11.30102539 3.62915039 C-11.03388819 -1.82217191 -4.22669861 0.04229518 0 0 Z " fill="#928285" transform="translate(1059.1875,298.6875)"/>
<path d="M0 0 C2.31 0 4.62 0 7 0 C7.99 3.3 8.98 6.6 10 10 C11.66905241 6.66189518 12.8741386 3.53842155 14 0 C16.31 0 18.62 0 21 0 C21.99 3.3 22.98 6.6 24 10 C26.18975773 6.71536341 26.99806563 3.79303725 28 0 C30.31 0 32.62 0 35 0 C34.88406494 0.54938232 34.76812988 1.09876465 34.64868164 1.66479492 C34.11968524 4.17230658 33.59108912 6.67990246 33.0625 9.1875 C32.78889648 10.48397461 32.78889648 10.48397461 32.50976562 11.80664062 C31.65404145 15.86744081 30.80092216 19.92794314 30 24 C27.03 24 24.06 24 21 24 C20.01 20.04 19.02 16.08 18 12 C16.49947591 15.00104818 15.61151408 17.09351107 14.875 20.25 C14.58625 21.4875 14.2975 22.725 14 24 C11.36 24 8.72 24 6 24 C2.91896324 16.51748216 0 8.15457066 0 0 Z " fill="#9C9999" transform="translate(702,477)"/>
<path d="M0 0 C5.19689119 -0.70466321 5.19689119 -0.70466321 8 0 C10.21956005 2.40408404 11.62753981 5.04393189 13 8 C15.40921705 5.59078295 16.53812156 3.05665491 18 0 C20.97 0 23.94 0 27 0 C27 7.92 27 15.84 27 24 C22 25 22 25 20 24 C19.40644386 21.35139573 19.25790731 18.70802678 19 16 C18.608125 16.66 18.21625 17.32 17.8125 18 C16 20 16 20 13.3125 20.25 C12.549375 20.1675 11.78625 20.085 11 20 C10.319375 18.5459375 10.319375 18.5459375 9.625 17.0625 C8.34213779 13.92920418 8.34213779 13.92920418 6 13 C6 16.63 6 20.26 6 24 C4.35 24.33 2.7 24.66 1 25 C-1 23 -1 23 -1.24291992 20.98461914 C-1.23881104 20.17629639 -1.23470215 19.36797363 -1.23046875 18.53515625 C-1.22853516 17.65279297 -1.22660156 16.77042969 -1.22460938 15.86132812 C-1.20624023 14.4759082 -1.20624023 14.4759082 -1.1875 13.0625 C-1.18685547 12.14275391 -1.18621094 11.22300781 -1.18554688 10.27539062 C-1.14055525 3.42166574 -1.14055525 3.42166574 0 0 Z " fill="#989795" transform="translate(1184,477)"/>
<path d="M0 0 C2.64 0 5.28 0 8 0 C10.05859375 2.1875 10.05859375 2.1875 11.4375 5 C12.28799389 6.66854386 13.14112941 8.33575249 14 10 C14.33 10 14.66 10 15 10 C15.33 6.7 15.66 3.4 16 0 C17.98 0 19.96 0 22 0 C23.21858107 2.43716215 23.12925575 4.03274057 23.1328125 6.75390625 C23.13474609 8.15866211 23.13474609 8.15866211 23.13671875 9.59179688 C23.13285156 10.57212891 23.12898437 11.55246094 23.125 12.5625 C23.13080078 14.03879883 23.13080078 14.03879883 23.13671875 15.54492188 C23.13542969 16.48013672 23.13414062 17.41535156 23.1328125 18.37890625 C23.13168457 19.2407251 23.13055664 20.10254395 23.12939453 20.99047852 C23 23 23 23 22 24 C18.75 24.5625 18.75 24.5625 15 24 C12.80407723 21.5987442 11.41864859 18.91168325 10 16 C9.34 14.68 8.68 13.36 8 12 C7.67 15.96 7.34 19.92 7 24 C4.69 24 2.38 24 0 24 C0 16.08 0 8.16 0 0 Z " fill="#989797" transform="translate(558,477)"/>
<path d="M0 0 C2.40879165 2.06467856 2.96331553 2.88994659 4 6 C4.36403898 11.55159439 4.29431293 15.27815147 1 20 C-3.34333479 22.96136463 -6.80222575 23.55690438 -12 23 C-16.1030761 21.42189381 -18.92051317 19.94008031 -21 16 C-22.2884631 10.74703507 -21.99165712 7.02656321 -20 2 C-18.1905386 -0.29198444 -16.88253823 -1.63481177 -14.1875 -2.75 C-8.51292058 -3.39852336 -4.68895728 -3.51671796 0 0 Z M-12.8125 4 C-14.71020228 7.19613015 -14.55003751 10.383315 -14 14 C-12.97578739 16.10938785 -12.97578739 16.10938785 -11 17 C-8.37429296 17.25069913 -8.37429296 17.25069913 -6 17 C-3.60224317 13.21892192 -2.86770048 11.67252256 -3.75 7.1875 C-4.68254896 4.18407051 -4.68254896 4.18407051 -6 3 C-8.69969684 2.71582139 -10.41135091 2.67522809 -12.8125 4 Z " fill="#9B9998" transform="translate(1045,479)"/>
<path d="M0 0 C3.160755 2.13167197 4.32031654 3.24263207 5.6875 6.8125 C6.23195333 11.40254401 6.22491877 15.40923989 4.5625 19.75 C1.23515288 23.41008184 -1.93251052 24.66464398 -6.8125 25.1875 C-11.67111199 24.66693443 -14.82333533 23.40094231 -18.1875 19.8125 C-19.93015226 15.1654273 -19.98268535 10.7100083 -19.3125 5.8125 C-14.95698532 -1.80965069 -7.8912256 -2.82892993 0 0 Z M-11.125 6.4375 C-12.65290738 9.49331477 -12.73506988 11.43194093 -12.3125 14.8125 C-11.27307155 17.25495747 -11.27307155 17.25495747 -9.3125 18.8125 C-6.8125 19.47916667 -6.8125 19.47916667 -4.3125 18.8125 C-1.80342692 16.56298621 -1.35593691 15.15999528 -0.9375 11.8125 C-1.35593691 8.46500472 -1.80342692 7.06201379 -4.3125 4.8125 C-7.4873727 4.17752546 -8.69356456 4.25759237 -11.125 6.4375 Z " fill="#9B9999" transform="translate(498.3125,477.1875)"/>
<path d="M0 0 C0 1.65 0 3.3 0 5 C-0.99 5.495 -0.99 5.495 -2 6 C-4.625 5.0625 -4.625 5.0625 -7 4 C-6.1028125 5.7015625 -6.1028125 5.7015625 -5.1875 7.4375 C-4.85105469 8.07558594 -4.51460938 8.71367187 -4.16796875 9.37109375 C-3.00980201 11.32267987 -3.00980201 11.32267987 0 12 C0.33 11.01 0.66 10.02 1 9 C2.98 9 4.96 9 7 9 C6.85691406 10.24716797 6.85691406 10.24716797 6.7109375 11.51953125 C6.54464844 13.14955078 6.54464844 13.14955078 6.375 14.8125 C6.25898438 15.89144531 6.14296875 16.97039062 6.0234375 18.08203125 C5.72539844 21.19624332 5.72539844 21.19624332 8 24 C4.93793523 24.24941254 1.87716917 24.47514145 -1.1875 24.6875 C-2.05181641 24.76033203 -2.91613281 24.83316406 -3.80664062 24.90820312 C-8.78111238 25.23221086 -11.95611923 25.30577438 -16 22 C-18 20 -18 20 -18.3125 16.625 C-17.97276234 12.68404313 -17.3235149 11.97409907 -15 9 C-14.855625 7.824375 -14.71125 6.64875 -14.5625 5.4375 C-14 2 -14 2 -12.375 0.0625 C-8.1735316 -1.81710428 -4.28914818 -1.42971606 0 0 Z M-11 14 C-10.67 15.65 -10.34 17.3 -10 19 C-8.02 19.495 -8.02 19.495 -6 20 C-5.7226499 16.81509993 -5.7226499 16.81509993 -8 14 C-8.99 14 -9.98 14 -11 14 Z " fill="#9A9899" transform="translate(455,477)"/>
<path d="M0 0 C3.2186267 2.1213676 4.36898801 3.20652425 5.75 6.8125 C6.29445333 11.40254401 6.28741877 15.40923989 4.625 19.75 C1.32238114 23.38288075 -1.8590233 24.6354666 -6.6875 25.25 C-11.26890432 24.6873714 -13.47953453 23.47400504 -17.25 20.8125 C-20.23013656 16.24823769 -19.88047544 11.05867833 -19.25 5.8125 C-17.45805441 2.56045059 -16.12569763 1.30951757 -12.9375 -0.5 C-8.23461778 -1.70306289 -4.57354857 -1.67110428 0 0 Z M-11.0625 6.4375 C-12.59040738 9.49331477 -12.67256988 11.43194093 -12.25 14.8125 C-11.21057155 17.25495747 -11.21057155 17.25495747 -9.25 18.8125 C-6.75 19.47916667 -6.75 19.47916667 -4.25 18.8125 C-1.74092692 16.56298621 -1.29343691 15.15999528 -0.875 11.8125 C-1.29343691 8.46500472 -1.74092692 7.06201379 -4.25 4.8125 C-7.4248727 4.17752546 -8.63106456 4.25759237 -11.0625 6.4375 Z " fill="#9D9A98" transform="translate(947.25,477.1875)"/>
<path d="M0 0 C16.20535714 -0.80357143 16.20535714 -0.80357143 20.4375 2.5 C23.02709001 5.38865027 24.0550804 8.11259853 24.203125 11.9765625 C23.85155974 15.4786934 22.77327426 17.98543376 21 21 C16.79803241 24.38035382 12.8531383 24.36613423 7.6875 24.1875 C5.150625 24.125625 2.61375 24.06375 0 24 C0 16.08 0 8.16 0 0 Z M8 5 C6.68737429 6.08552366 6.68737429 6.08552366 6.90234375 8.72265625 C6.91394531 9.82480469 6.92554688 10.92695313 6.9375 12.0625 C6.94652344 13.16722656 6.95554687 14.27195312 6.96484375 15.41015625 C6.97644531 16.26480469 6.98804688 17.11945313 7 18 C8.86347862 18.64860453 8.86347862 18.64860453 11 19 C13.89286554 17.61963135 13.89286554 17.61963135 16 15 C16.83345815 11.45704496 16.83345815 11.45704496 16 8 C13.15739513 5.61835808 11.71594733 5 8 5 Z " fill="#9D9A9A" transform="translate(890,477)"/>
<path d="M0 0 C3.2186267 2.1213676 4.36898801 3.20652425 5.75 6.8125 C6.29445333 11.40254401 6.28741877 15.40923989 4.625 19.75 C1.32238114 23.38288075 -1.8590233 24.6354666 -6.6875 25.25 C-11.26890432 24.6873714 -13.47953453 23.47400504 -17.25 20.8125 C-20.05037502 16.4398214 -19.89151443 11.83373641 -19.25 6.8125 C-17.53803735 3.26176266 -16.31597467 1.44632277 -12.9375 -0.5625 C-8.22230955 -1.65905592 -4.57012389 -1.66985296 0 0 Z M-11.0625 6.4375 C-12.59040738 9.49331477 -12.67256988 11.43194093 -12.25 14.8125 C-11.21057155 17.25495747 -11.21057155 17.25495747 -9.25 18.8125 C-6.75 19.47916667 -6.75 19.47916667 -4.25 18.8125 C-1.74092692 16.56298621 -1.29343691 15.15999528 -0.875 11.8125 C-1.29343691 8.46500472 -1.74092692 7.06201379 -4.25 4.8125 C-7.4248727 4.17752546 -8.63106456 4.25759237 -11.0625 6.4375 Z " fill="#9C9999" transform="translate(643.25,477.1875)"/>
<path d="M0 0 C2.578125 -0.061875 5.15625 -0.12375 7.8125 -0.1875 C9.02450073 -0.22846802 9.02450073 -0.22846802 10.26098633 -0.27026367 C15.52428737 -0.33167215 15.52428737 -0.33167215 17.9609375 1.3671875 C19.41323902 3.64937561 19.8110278 5.29139841 20 8 C19.608125 8.94875 19.21625 9.8975 18.8125 10.875 C17.70132043 13.82382324 17.70132043 13.82382324 18.7890625 15.796875 C19.16804688 16.40015625 19.54703125 17.0034375 19.9375 17.625 C22 21 22 21 21.75 23.4375 C21.5025 23.953125 21.255 24.46875 21 25 C14.73361522 23.9154334 14.73361522 23.9154334 12.64453125 21.30859375 C11.67912119 19.58340249 10.83056012 17.79400985 10 16 C9.34 16 8.68 16 8 16 C7.67 18.64 7.34 21.28 7 24 C4.69 24 2.38 24 0 24 C0 16.08 0 8.16 0 0 Z M7 5 C7.33 6.65 7.66 8.3 8 10 C9.32 9.67 10.64 9.34 12 9 C11.67 7.68 11.34 6.36 11 5 C9.68 5 8.36 5 7 5 Z " fill="#979695" transform="translate(349,477)"/>
<path d="M0 0 C2.31 0 4.62 0 7 0 C7.33 2.64 7.66 5.28 8 8 C9.98 8 11.96 8 14 8 C14.144375 6.865625 14.28875 5.73125 14.4375 4.5625 C15 1 15 1 16 0 C17.99958364 -0.04080783 20.00045254 -0.04254356 22 0 C22.74592798 7.63244161 23.48945645 15.32705028 23 23 C22 24 22 24 19 24.125 C16 24 16 24 15 23 C14.54540142 20.34536879 14.29756762 17.67810862 14 15 C12.02 15 10.04 15 8 15 C7.67 17.97 7.34 20.94 7 24 C4.69 24 2.38 24 0 24 C0 16.08 0 8.16 0 0 Z " fill="#A2A09F" transform="translate(260,477)"/>
<path d="M0 0 C3.58875 -0.0928125 3.58875 -0.0928125 7.25 -0.1875 C8.37003418 -0.22846802 8.37003418 -0.22846802 9.51269531 -0.27026367 C12.58597812 -0.30870037 14.72895695 -0.14260902 17.46484375 1.296875 C19 3 19 3 19.3125 6.4375 C19 10 19 10 18.25 12 C17.87166223 15.0267022 19.45922428 16.83454815 21.08984375 19.31640625 C22 21 22 21 22 24 C18.6875 24.25 18.6875 24.25 15 24 C12.66869281 21.74640305 12.02928092 20.08784275 11 17 C9.68 16.34 8.36 15.68 7 15 C7 17.97 7 20.94 7 24 C4 25 4 25 0 24 C0 16.08 0 8.16 0 0 Z M7 5 C7 6.65 7 8.3 7 10 C8.65 9.67 10.3 9.34 12 9 C12 8.01 12 7.02 12 6 C10.35 5.67 8.7 5.34 7 5 Z " fill="#9C9A9A" transform="translate(770,477)"/>
<path d="M0 0 C5.28 0 10.56 0 16 0 C15.01 0.33 14.02 0.66 13 1 C13 1.99 13 2.98 13 4 C11.02 3.34 9.04 2.68 7 2 C7.01160156 2.97582031 7.02320313 3.95164062 7.03515625 4.95703125 C7.04417969 6.22933594 7.05320312 7.50164062 7.0625 8.8125 C7.07410156 10.07707031 7.08570313 11.34164063 7.09765625 12.64453125 C7 16 7 16 6 19 C9.63 19 13.26 19 17 19 C17.33 17.35 17.66 15.7 18 14 C19.5625 12.1875 19.5625 12.1875 21 11 C21.66 11.33 22.32 11.66 23 12 C22.34 10.02 21.68 8.04 21 6 C21.66 6 22.32 6 23 6 C25.14336161 9.4766338 25.21277626 12.21229195 25.125 16.25 C25.10695313 17.32765625 25.08890625 18.4053125 25.0703125 19.515625 C25.04710937 20.33546875 25.02390625 21.1553125 25 22 C20.8882744 22.02465746 16.77657722 22.04283959 12.66479492 22.05493164 C11.26504772 22.0599708 9.8653058 22.06680216 8.46557617 22.07543945 C6.45754223 22.0875232 4.44947043 22.09269807 2.44140625 22.09765625 C1.23170166 22.10289307 0.02199707 22.10812988 -1.22436523 22.11352539 C-4 22 -4 22 -5 21 C-5.12635423 18.91956287 -5.17581705 16.83423788 -5.1875 14.75 C-5.20167969 13.61046875 -5.21585938 12.4709375 -5.23046875 11.296875 C-5.00592304 8.08472955 -4.37296905 5.88703374 -3 3 C-2.34 3.66 -1.68 4.32 -1 5 C-0.67 3.35 -0.34 1.7 0 0 Z " fill="#7B7576" transform="translate(1054,301)"/>
<path d="M0 0 C2.97 0 5.94 0 9 0 C10.37548025 3.22049477 11.72149275 6.45251589 13.0625 9.6875 C13.64741211 11.05551758 13.64741211 11.05551758 14.24414062 12.45117188 C14.60830078 13.33740234 14.97246094 14.22363281 15.34765625 15.13671875 C15.68804932 15.94842529 16.02844238 16.76013184 16.37915039 17.59643555 C17.10597356 20.41026728 16.76240117 22.22468695 16 25 C13.97954558 24.39816251 11.97888961 23.72693904 10 23 C9.67 22.34 9.34 21.68 9 21 C7.72125 20.938125 6.4425 20.87625 5.125 20.8125 C4.40570312 20.77769531 3.68640625 20.74289062 2.9453125 20.70703125 C1.98238281 20.85205078 1.98238281 20.85205078 1 21 C0.34 21.99 -0.32 22.98 -1 24 C-4.625 24.1875 -4.625 24.1875 -8 24 C-7.3661521 18.482845 -5.49435691 13.73252191 -3.4375 8.625 C-2.9434668 7.37783203 -2.9434668 7.37783203 -2.43945312 6.10546875 C-1.63157594 4.06821324 -0.81650915 2.0338113 0 0 Z M4 9 C3.67 10.98 3.34 12.96 3 15 C4.32 14.67 5.64 14.34 7 14 C6.34 12.35 5.68 10.7 5 9 C4.67 9 4.34 9 4 9 Z " fill="#9C9A9A" transform="translate(746,477)"/>
<path d="M0 0 C-0.33 1.65 -0.66 3.3 -1 5 C-3.97 5 -6.94 5 -10 5 C-7.06677021 7.0509381 -7.06677021 7.0509381 -3.9375 8.5 C-1 10 -1 10 1 12 C1.78837421 18.98274296 1.78837421 18.98274296 -0.9375 22.5 C-6.01139097 24.98517109 -10.74735668 24.735557 -16.0625 23 C-16.701875 22.67 -17.34125 22.34 -18 22 C-18 20.02 -18 18.04 -18 16 C-14.37 16.33 -10.74 16.66 -7 17 C-8.99863222 14.73875491 -8.99863222 14.73875491 -12.4375 13.625 C-17.48005066 11.32488917 -17.48005066 11.32488917 -19 8 C-18.86850006 4.77825143 -18.58842409 2.77564994 -16.625 0.1875 C-11.59375956 -3.48917571 -5.30632957 -2.57276585 0 0 Z " fill="#9C9A98" transform="translate(1072,478)"/>
<path d="M0 0 C-0.33 1.65 -0.66 3.3 -1 5 C-4.3 5 -7.6 5 -11 5 C-8.0177978 7.12416419 -8.0177978 7.12416419 -4.4375 8.5 C-1 10 -1 10 1 12 C1.78504673 18.95327103 1.78504673 18.95327103 -0.875 22.5 C-5.23343544 24.59204901 -9.23940051 24.66570985 -14 24 C-16.30859375 22.9765625 -16.30859375 22.9765625 -18 22 C-18 20.02 -18 18.04 -18 16 C-14.37 16.33 -10.74 16.66 -7 17 C-8.99863222 14.73875491 -8.99863222 14.73875491 -12.4375 13.625 C-17.48005066 11.32488917 -17.48005066 11.32488917 -19 8 C-18.86850006 4.77825143 -18.58842409 2.77564994 -16.625 0.1875 C-11.59375956 -3.48917571 -5.30632957 -2.57276585 0 0 Z " fill="#9D9A98" transform="translate(1126,478)"/>
<path d="M0 0 C5.94 0 11.88 0 18 0 C18 1.65 18 3.3 18 5 C17 6 17 6 14.93359375 6.09765625 C14.10988281 6.08605469 13.28617187 6.07445312 12.4375 6.0625 C11.61121094 6.05347656 10.78492188 6.04445313 9.93359375 6.03515625 C9.29550781 6.02355469 8.65742188 6.01195312 8 6 C8.33 6.66 8.66 7.32 9 8 C10.89533342 8.46523063 10.89533342 8.46523063 13.0625 8.625 C14.361875 8.74875 15.66125 8.8725 17 9 C17 10.65 17 12.3 17 14 C14.03 14 11.06 14 8 14 C8 15.65 8 17.3 8 19 C11.3 19 14.6 19 18 19 C18 20.65 18 22.3 18 24 C12.29558601 25.94468659 5.85064053 24.48755338 0 24 C0 16.08 0 8.16 0 0 Z " fill="#989696" transform="translate(399,477)"/>
<path d="M0 0 C0 1.65 0 3.3 0 5 C-3.63 4.67 -7.26 4.34 -11 4 C-11 4.99 -11 5.98 -11 7 C-10.07767578 7.16435547 -10.07767578 7.16435547 -9.13671875 7.33203125 C-8.32847656 7.49058594 -7.52023437 7.64914062 -6.6875 7.8125 C-5.88699219 7.96332031 -5.08648438 8.11414063 -4.26171875 8.26953125 C-1.68870374 9.10053955 -0.59520892 9.82747737 1 12 C1.55618667 14.704594 1.42629934 17.27736823 1 20 C-0.81163267 22.67431489 -1.87761077 22.95920359 -5 24 C-6.47586615 24.11687338 -7.95706612 24.17501742 -9.4375 24.1875 C-10.19933594 24.20167969 -10.96117187 24.21585937 -11.74609375 24.23046875 C-14.23347315 23.97612666 -15.84808106 23.24017196 -18 22 C-18 20.02 -18 18.04 -18 16 C-14.37 16.33 -10.74 16.66 -7 17 C-6.67 16.34 -6.34 15.68 -6 15 C-6.61488281 14.89042969 -7.22976563 14.78085937 -7.86328125 14.66796875 C-9.07564453 14.43013672 -9.07564453 14.43013672 -10.3125 14.1875 C-11.11300781 14.03667969 -11.91351562 13.88585937 -12.73828125 13.73046875 C-15.31129626 12.89946045 -16.40479108 12.17252263 -18 10 C-18.55618667 7.295406 -18.42629934 4.72263177 -18 2 C-13.95795801 -3.96682389 -5.73098077 -2.77865734 0 0 Z " fill="#979595" transform="translate(617,478)"/>
<path d="M0 0 C0.96164062 0.00966797 1.92328125 0.01933594 2.9140625 0.02929688 C9.95618158 0.14368158 9.95618158 0.14368158 11.125 1.3125 C11.22026806 4.26496354 11.25052452 7.19398421 11.23852539 10.14672852 C11.23867142 11.07346375 11.23881744 12.00019897 11.2389679 12.95501709 C11.23826838 16.03383687 11.23047421 19.11259697 11.22265625 22.19140625 C11.22079221 24.31990018 11.21936824 26.44839453 11.21836853 28.57688904 C11.21454228 34.1911232 11.20471108 39.80533168 11.19366455 45.41955566 C11.18345273 51.14363253 11.1788714 56.86771353 11.17382812 62.59179688 C11.16308891 73.83204256 11.1460112 85.07226915 11.125 96.3125 C10.465 96.3125 9.805 96.3125 9.125 96.3125 C9.125 64.9625 9.125 33.6125 9.125 1.3125 C-5.1919176 0.88215361 -5.1919176 0.88215361 -16.51953125 6.8125 C-19.6586188 10.84397029 -21.00131309 13.58844363 -20.99525452 18.6594696 C-20.99662918 19.54707977 -20.99800385 20.43468994 -20.99942017 21.34919739 C-20.99402725 22.80575996 -20.99402725 22.80575996 -20.98852539 24.29174805 C-20.98867142 25.31631104 -20.98881744 26.34087402 -20.9889679 27.39648438 C-20.98827023 30.7890839 -20.98048462 34.18162879 -20.97265625 37.57421875 C-20.97079155 39.9240567 -20.96936789 42.27389504 -20.96836853 44.62373352 C-20.96454743 50.81333486 -20.9547206 57.0029128 -20.94366455 63.19250488 C-20.93344169 69.50658858 -20.92886903 75.82067604 -20.92382812 82.13476562 C-20.91309799 94.52735404 -20.89602643 106.91992508 -20.875 119.3125 C-22.93621856 116.22067216 -23.12756684 115.55638277 -23.14915466 112.05732727 C-23.15912979 111.18969254 -23.16910492 110.3220578 -23.17938232 109.4281311 C-23.180047 108.47900848 -23.18071167 107.52988586 -23.18139648 106.55200195 C-23.18972 105.55004288 -23.19804352 104.5480838 -23.20661926 103.51576233 C-23.23076865 100.19406272 -23.23949866 96.87255942 -23.24609375 93.55078125 C-23.25505824 91.24252767 -23.26418005 88.9342747 -23.27345276 86.62602234 C-23.28996008 81.78134753 -23.29764572 76.93674195 -23.30053711 72.09204102 C-23.30591428 65.89236906 -23.34356012 59.69335073 -23.38928127 53.49386311 C-23.41907022 48.72309514 -23.42626112 43.95248396 -23.42726326 39.18163109 C-23.43146398 36.89673058 -23.44389221 34.61182953 -23.46478081 32.32702065 C-23.49172415 29.12418733 -23.48685938 25.9228606 -23.47436523 22.7199707 C-23.48919952 21.78096924 -23.50403381 20.84196777 -23.51931763 19.87451172 C-23.44898156 13.52261011 -22.0169436 9.19872329 -17.875 4.3125 C-12.13104099 -0.23539772 -7.14899035 -0.22095094 0 0 Z " fill="#82807E" transform="translate(546.875,298.6875)"/>
<path d="M0 0 C1.58206057 0.00667536 3.16410534 0.0186375 4.74609375 0.03515625 C5.55240234 0.03966797 6.35871094 0.04417969 7.18945312 0.04882812 C9.18753131 0.06065107 11.18557158 0.07858711 13.18359375 0.09765625 C13.22631475 1.7637753 13.22423207 3.4314851 13.18359375 5.09765625 C11.13660961 7.14464039 6.87948134 6.79811318 4.18359375 7.09765625 C5.29734375 7.22140625 6.41109375 7.34515625 7.55859375 7.47265625 C11.18359375 8.09765625 11.18359375 8.09765625 13.18359375 10.09765625 C13.18359375 11.41765625 13.18359375 12.73765625 13.18359375 14.09765625 C9.88359375 14.09765625 6.58359375 14.09765625 3.18359375 14.09765625 C3.51359375 15.41765625 3.84359375 16.73765625 4.18359375 18.09765625 C7.15359375 18.42765625 10.12359375 18.75765625 13.18359375 19.09765625 C13.51359375 20.41765625 13.84359375 21.73765625 14.18359375 23.09765625 C13.18359375 24.09765625 13.18359375 24.09765625 9.3671875 24.1953125 C7.78512693 24.18863714 6.20308216 24.176675 4.62109375 24.16015625 C3.81478516 24.15564453 3.00847656 24.15113281 2.17773438 24.14648438 C0.17965619 24.13466143 -1.81838408 24.11672539 -3.81640625 24.09765625 C-4.01227535 20.28553722 -4.1967019 16.47295091 -4.37890625 12.66015625 C-4.43498047 11.57154297 -4.49105469 10.48292969 -4.54882812 9.36132812 C-4.59716797 8.32685547 -4.64550781 7.29238281 -4.6953125 6.2265625 C-4.74244385 5.2682251 -4.7895752 4.3098877 -4.83813477 3.32250977 C-4.80060091 -0.52070374 -4.00570298 0.10250008 0 0 Z " fill="#9D9B99" transform="translate(1163.81640625,476.90234375)"/>
<path d="M0 0 C5.61 0 11.22 0 17 0 C17.33 1.65 17.66 3.3 18 5 C17 6 17 6 14.71484375 6.09765625 C13.34005859 6.08025391 13.34005859 6.08025391 11.9375 6.0625 C11.01839844 6.05347656 10.09929688 6.04445313 9.15234375 6.03515625 C8.44207031 6.02355469 7.73179687 6.01195312 7 6 C7.33 6.66 7.66 7.32 8 8 C10.12576782 8.46651207 10.12576782 8.46651207 12.5625 8.625 C13.38878906 8.69976562 14.21507812 8.77453125 15.06640625 8.8515625 C15.70449219 8.90054687 16.34257813 8.94953125 17 9 C17 10.65 17 12.3 17 14 C12.545 14.495 12.545 14.495 8 15 C8 15.99 8 16.98 8 18 C11.3 18.33 14.6 18.66 18 19 C18 20.65 18 22.3 18 24 C11.97483271 25.55488188 6.00267451 25.50066863 0 24 C0 16.08 0 8.16 0 0 Z " fill="#9C999A" transform="translate(796,477)"/>
<path d="M0 0 C1.58206057 0.00667536 3.16410534 0.0186375 4.74609375 0.03515625 C5.55240234 0.03966797 6.35871094 0.04417969 7.18945312 0.04882812 C9.18753131 0.06065107 11.18557158 0.07858711 13.18359375 0.09765625 C13.18359375 1.74765625 13.18359375 3.39765625 13.18359375 5.09765625 C10.22694856 6.57597885 7.44129638 6.15798408 4.18359375 6.09765625 C4.18359375 6.75765625 4.18359375 7.41765625 4.18359375 8.09765625 C6.82359375 8.42765625 9.46359375 8.75765625 12.18359375 9.09765625 C12.18359375 10.74765625 12.18359375 12.39765625 12.18359375 14.09765625 C9.21359375 14.09765625 6.24359375 14.09765625 3.18359375 14.09765625 C3.51359375 15.41765625 3.84359375 16.73765625 4.18359375 18.09765625 C7.15359375 18.42765625 10.12359375 18.75765625 13.18359375 19.09765625 C13.51359375 20.41765625 13.84359375 21.73765625 14.18359375 23.09765625 C13.18359375 24.09765625 13.18359375 24.09765625 11.41772461 24.21118164 C10.66885986 24.20594482 9.91999512 24.20070801 9.1484375 24.1953125 C8.33955078 24.19208984 7.53066406 24.18886719 6.69726562 24.18554688 C5.84712891 24.17716797 4.99699219 24.16878906 4.12109375 24.16015625 C3.26708984 24.15564453 2.41308594 24.15113281 1.53320312 24.14648438 C-0.58336288 24.13465998 -2.6998931 24.11672394 -4.81640625 24.09765625 C-4.84527861 20.28517199 -4.86316117 16.47271555 -4.87890625 12.66015625 C-4.88728516 11.57154297 -4.89566406 10.48292969 -4.90429688 9.36132812 C-4.90751953 8.32685547 -4.91074219 7.29238281 -4.9140625 6.2265625 C-4.91929932 5.2682251 -4.92453613 4.3098877 -4.92993164 3.32250977 C-4.73433141 -0.51083405 -4.03367373 0.10321581 0 0 Z " fill="#ADA8A9" transform="translate(379.81640625,476.90234375)"/>
<path d="M0 0 C2.536875 -0.103125 5.07375 -0.20625 7.6875 -0.3125 C8.47729248 -0.35802002 9.26708496 -0.40354004 10.08081055 -0.45043945 C14.17923901 -0.53076015 15.61894685 -0.29815037 18.98046875 2.33203125 C21 5 21 5 21.625 8 C20.76352053 12.13510144 19.40062986 13.52037406 16 16 C13.2653507 16.68745343 10.8410739 16.85553862 8 17 C8.061875 17.94875 8.12375 18.8975 8.1875 19.875 C8.125625 20.90625 8.06375 21.9375 8 23 C7.01 23.66 6.02 24.32 5 25 C2.525 24.01 2.525 24.01 0 23 C0 15.41 0 7.82 0 0 Z M8 5 C7.67 6.65 7.34 8.3 7 10 C10.04913228 11.01111093 10.04913228 11.01111093 13 10 C12.67 8.35 12.34 6.7 12 5 C10.68 5 9.36 5 8 5 Z " fill="#9C9A9B" transform="translate(509,477)"/>
<path d="M0 0 C5.61 0 11.22 0 17 0 C17.33 1.32 17.66 2.64 18 4 C14.55549263 6.29633824 12.06187717 6.54016485 8 7 C10.98241547 7.77321882 13.97580475 8.41196203 17 9 C17 10.65 17 12.3 17 14 C12.545 14.495 12.545 14.495 8 15 C8 15.99 8 16.98 8 18 C11.3 18.33 14.6 18.66 18 19 C18 20.65 18 22.3 18 24 C12.06 24 6.12 24 0 24 C0 16.08 0 8.16 0 0 Z " fill="#9E9B9A" transform="translate(973,477)"/>
<path d="M0 0 C5.94 0 11.88 0 18 0 C18 1.65 18 3.3 18 5 C14.32589215 6.17571451 10.83070817 6.07366746 7 6 C7.33 6.66 7.66 7.32 8 8 C10.12576782 8.46651207 10.12576782 8.46651207 12.5625 8.625 C13.38878906 8.69976562 14.21507812 8.77453125 15.06640625 8.8515625 C15.70449219 8.90054687 16.34257813 8.94953125 17 9 C17 10.65 17 12.3 17 14 C12.545 14.495 12.545 14.495 8 15 C8 15.99 8 16.98 8 18 C11.3 18.33 14.6 18.66 18 19 C18.33 20.32 18.66 21.64 19 23 C18 24 18 24 16.23413086 24.11352539 C15.48526611 24.10828857 14.73640137 24.10305176 13.96484375 24.09765625 C12.87224243 24.09390991 12.87224243 24.09390991 11.75756836 24.09008789 C10.8269458 24.08098389 9.89632324 24.07187988 8.9375 24.0625 C4.5134375 24.0315625 4.5134375 24.0315625 0 24 C0 16.08 0 8.16 0 0 Z " fill="#9B999A" transform="translate(534,477)"/>
<path d="M0 0 C5.61 0 11.22 0 17 0 C17 1.65 17 3.3 17 5 C16 6 16 6 14.15234375 6.09765625 C12.1015625 6.06510417 10.05078125 6.03255208 8 6 C8 6.66 8 7.32 8 8 C10.64 8.33 13.28 8.66 16 9 C16 10.65 16 12.3 16 14 C13.03 14 10.06 14 7 14 C7.33 15.32 7.66 16.64 8 18 C10.97 18.33 13.94 18.66 17 19 C17 20.65 17 22.3 17 24 C11.39 24 5.78 24 0 24 C0 16.08 0 8.16 0 0 Z " fill="#C1BCBA" transform="translate(287,477)"/>
<path d="M0 0 C1.5 1.75 1.5 1.75 1.5 5.75 C0.34371094 5.69779297 0.34371094 5.69779297 -0.8359375 5.64453125 C-2.34027344 5.60392578 -2.34027344 5.60392578 -3.875 5.5625 C-4.87273438 5.52769531 -5.87046875 5.49289062 -6.8984375 5.45703125 C-8.18621094 5.60205078 -8.18621094 5.60205078 -9.5 5.75 C-11.81332486 9.21998729 -11.83957563 10.67509248 -11.5 14.75 C-10.84 15.74 -10.18 16.73 -9.5 17.75 C-6.83346095 18.11460453 -6.83346095 18.11460453 -3.875 17.9375 C-2.87210938 17.91042969 -1.86921875 17.88335937 -0.8359375 17.85546875 C0.32035156 17.80326172 0.32035156 17.80326172 1.5 17.75 C1.5 19.4 1.5 21.05 1.5 22.75 C-2.22928028 25.23618685 -6.1764728 25.41020341 -10.5 24.75 C-13.80809533 23.49898539 -16.69281876 21.99451689 -18.66796875 18.94921875 C-20.28709523 14.66955581 -20.15867291 10.23429838 -19.5 5.75 C-17.25 2.6875 -17.25 2.6875 -14.5 0.75 C-13.901875 0.316875 -13.30375 -0.11625 -12.6875 -0.5625 C-8.33549458 -1.93027313 -4.10667241 -2.0533362 0 0 Z " fill="#999795" transform="translate(1015.5,477.25)"/>
<path d="M0 0 C5.94 0 11.88 0 18 0 C18 1.65 18 3.3 18 5 C16.41727399 6.58272601 14.61965997 6.34735747 12.4375 6.5625 C11.61121094 6.64628906 10.78492188 6.73007812 9.93359375 6.81640625 C8.97646484 6.90728516 8.97646484 6.90728516 8 7 C10.88395737 8.44197868 13.82430479 8.58833581 17 9 C17 10.65 17 12.3 17 14 C12.545 14.495 12.545 14.495 8 15 C7.67 17.97 7.34 20.94 7 24 C4.69 24 2.38 24 0 24 C0 16.08 0 8.16 0 0 Z " fill="#9F9D9C" transform="translate(325,477)"/>
<path d="M0 0 C1.58206057 0.00667536 3.16410534 0.0186375 4.74609375 0.03515625 C5.55240234 0.03966797 6.35871094 0.04417969 7.18945312 0.04882812 C9.18753131 0.06065107 11.18557158 0.07858711 13.18359375 0.09765625 C13.18359375 1.74765625 13.18359375 3.39765625 13.18359375 5.09765625 C9.48941174 6.32905025 6.97796765 5.74198389 3.18359375 5.09765625 C3.18359375 6.41765625 3.18359375 7.73765625 3.18359375 9.09765625 C6.15359375 9.09765625 9.12359375 9.09765625 12.18359375 9.09765625 C12.18359375 10.74765625 12.18359375 12.39765625 12.18359375 14.09765625 C9.21359375 14.09765625 6.24359375 14.09765625 3.18359375 14.09765625 C3.18359375 17.39765625 3.18359375 20.69765625 3.18359375 24.09765625 C0.850646 24.14007348 -1.48343192 24.13858562 -3.81640625 24.09765625 C-5.47034742 22.44371508 -4.94640308 20.49450212 -4.94921875 18.22265625 C-4.95050781 17.2378125 -4.95179688 16.25296875 -4.953125 15.23828125 C-4.94925781 14.201875 -4.94539062 13.16546875 -4.94140625 12.09765625 C-4.94720703 10.54304688 -4.94720703 10.54304688 -4.953125 8.95703125 C-4.95183594 7.9721875 -4.95054687 6.98734375 -4.94921875 5.97265625 C-4.94809082 5.06257813 -4.94696289 4.1525 -4.94580078 3.21484375 C-4.717027 -0.52841324 -3.94224738 0.10087634 0 0 Z " fill="#AAA5A6" transform="translate(658.81640625,476.90234375)"/>
<path d="M0 0 C5.32011893 -0.34886026 5.32011893 -0.34886026 8 0 C10 1.875 10 1.875 11 4 C11 4.66 11 5.32 11 6 C11.99 6 12.98 6 14 6 C14.309375 5.195625 14.61875 4.39125 14.9375 3.5625 C16 1 16 1 17 0 C19.33297433 -0.04092937 21.66705225 -0.04241723 24 0 C23.36715636 3.46481895 21.96335169 5.72716842 20 8.625 C16.82962532 13.72187029 16.025289 18.05708489 16 24 C11.25 25.125 11.25 25.125 9 24 C8.83203125 22.1015625 8.83203125 22.1015625 8.8125 19.625 C8.38336509 13.77698505 5.90930026 10.0695977 2.59375 5.34765625 C1 3 1 3 0 0 Z " fill="#9E9B99" transform="translate(1077,477)"/>
<path d="M0 0 C1.33901367 0.07250977 1.33901367 0.07250977 2.70507812 0.14648438 C4.09823242 0.2305957 4.09823242 0.2305957 5.51953125 0.31640625 C6.93008789 0.3947168 6.93008789 0.3947168 8.36914062 0.47460938 C10.69044626 0.60422543 13.01131534 0.73918806 15.33203125 0.87890625 C15.33203125 2.52890625 15.33203125 4.17890625 15.33203125 5.87890625 C13.02203125 5.87890625 10.71203125 5.87890625 8.33203125 5.87890625 C8.33203125 12.14890625 8.33203125 18.41890625 8.33203125 24.87890625 C3.33203125 25.87890625 3.33203125 25.87890625 0.33203125 23.87890625 C0.11095338 21.09037735 0.0509559 18.53237444 0.14453125 15.75390625 C0.15806641 14.99980469 0.17160156 14.24570312 0.18554688 13.46875 C0.2209314 11.60516498 0.27473958 9.74194647 0.33203125 7.87890625 C-1.97796875 7.21890625 -4.28796875 6.55890625 -6.66796875 5.87890625 C-6.99796875 4.22890625 -7.32796875 2.57890625 -7.66796875 0.87890625 C-4.68926498 -0.11399501 -3.0761399 -0.17633923 0 0 Z " fill="#9E9B9B" transform="translate(682.66796875,476.12109375)"/>
<path d="M0 0 C7.59 0 15.18 0 23 0 C23 1.65 23 3.3 23 5 C20.69 5.33 18.38 5.66 16 6 C15.67 11.94 15.34 17.88 15 24 C11 25 11 25 8 24 C7.67 18.06 7.34 12.12 7 6 C4.69 5.67 2.38 5.34 0 5 C0 3.35 0 1.7 0 0 Z " fill="#9E9C9A" transform="translate(1131,477)"/>
<path d="M0 0 C7.59 0 15.18 0 23 0 C23 1.65 23 3.3 23 5 C20.69 5.33 18.38 5.66 16 6 C15.67 11.94 15.34 17.88 15 24 C12.69 24 10.38 24 8 24 C7.67 18.06 7.34 12.12 7 6 C4.69 5.67 2.38 5.34 0 5 C0 3.35 0 1.7 0 0 Z " fill="#9E9C9B" transform="translate(232,477)"/>
<path d="M0 0 C2.31 0 4.62 0 7 0 C7 7.92 7 15.84 7 24 C4.69 24 2.38 24 0 24 C0 16.08 0 8.16 0 0 Z " fill="#9D9998" transform="translate(917,477)"/>
<path d="M0 0 C4.95 0 9.9 0 15 0 C15.33 0.99 15.66 1.98 16 3 C12.04 3 8.08 3 4 3 C4.165 4.546875 4.33 6.09375 4.5 7.6875 C4.87355654 11.18959256 5 14.45235012 5 18 C8.3 18.33 11.6 18.66 15 19 C15 19.99 15 20.98 15 22 C10.05 22 5.1 22 0 22 C0 14.74 0 7.48 0 0 Z " fill="#979695" transform="translate(377,478)"/>
<path d="M0 0 C5.61 0 11.22 0 17 0 C17 1.65 17 3.3 17 5 C16 6 16 6 13.93359375 6.09765625 C13.10988281 6.08605469 12.28617187 6.07445312 11.4375 6.0625 C10.61121094 6.05347656 9.78492188 6.04445313 8.93359375 6.03515625 C8.29550781 6.02355469 7.65742188 6.01195312 7 6 C7.33 6.66 7.66 7.32 8 8 C9.89533342 8.46523063 9.89533342 8.46523063 12.0625 8.625 C13.361875 8.74875 14.66125 8.8725 16 9 C16 10.65 16 12.3 16 14 C13.03 14 10.06 14 7 14 C7 15.65 7 17.3 7 19 C10.3 19 13.6 19 17 19 C17 20.65 17 22.3 17 24 C13.31599416 25.23104155 10.08525024 24.90767252 6.25 24.5625 C5.07953125 24.46066406 3.9090625 24.35882813 2.703125 24.25390625 C1.81109375 24.17011719 0.9190625 24.08632813 0 24 C0 23.67 0 23.34 0 23 C5.28 23 10.56 23 16 23 C16 22.01 16 21.02 16 20 C15.28972656 20.01160156 14.57945312 20.02320313 13.84765625 20.03515625 C12.92855469 20.04417969 12.00945312 20.05320312 11.0625 20.0625 C10.14597656 20.07410156 9.22945313 20.08570313 8.28515625 20.09765625 C6 20 6 20 5 19 C4.92686433 16.46950598 4.90752473 13.96695163 4.9375 11.4375 C4.94201172 10.72658203 4.94652344 10.01566406 4.95117188 9.28320312 C4.96299136 7.52209987 4.98092737 5.76103964 5 4 C8.65188082 2.92825237 11.26432828 3.23588533 15 4 C15 3.01 15 2.02 15 1 C10.05 1.33 5.1 1.66 0 2 C0 1.34 0 0.68 0 0 Z " fill="#AEA9AC" transform="translate(400,477)"/>
<path d="M0 0 C0 1.65 0 3.3 0 5 C-3.63 4.67 -7.26 4.34 -11 4 C-11 4.99 -11 5.98 -11 7 C-10.07767578 7.16435547 -10.07767578 7.16435547 -9.13671875 7.33203125 C-8.32847656 7.49058594 -7.52023437 7.64914062 -6.6875 7.8125 C-5.88699219 7.96332031 -5.08648438 8.11414063 -4.26171875 8.26953125 C-1.68870374 9.10053955 -0.59520892 9.82747737 1 12 C1.55618667 14.704594 1.42629934 17.27736823 1 20 C-0.81163267 22.67431489 -1.87761077 22.95920359 -5 24 C-6.47586615 24.11687338 -7.95706612 24.17501742 -9.4375 24.1875 C-10.19933594 24.20167969 -10.96117187 24.21585937 -11.74609375 24.23046875 C-14.23347315 23.97612666 -15.84808106 23.24017196 -18 22 C-18 20.02 -18 18.04 -18 16 C-17.34 16 -16.68 16 -16 16 C-16 17.65 -16 19.3 -16 21 C-10.60973577 21.9293559 -7.15071924 22.26129137 -2 20 C-1.67 19.67 -1.34 19.34 -1 19 C-1.28730055 16.66055264 -1.61936779 14.3260857 -2 12 C-2.71027344 11.75765625 -3.42054688 11.5153125 -4.15234375 11.265625 C-5.07144531 10.93046875 -5.99054687 10.5953125 -6.9375 10.25 C-7.85402344 9.92515625 -8.77054688 9.6003125 -9.71484375 9.265625 C-12 8 -12 8 -12.94140625 5.984375 C-12.96074219 5.32953125 -12.98007812 4.6746875 -13 4 C-10.23776722 1.23776722 -7.79293383 1.42143709 -4 1 C-5.62463842 0.94604522 -7.24978541 0.90722805 -8.875 0.875 C-9.77992188 0.85179687 -10.68484375 0.82859375 -11.6171875 0.8046875 C-14.18806994 0.75675164 -14.18806994 0.75675164 -16 3 C-16.16681109 6.08347826 -16.16681109 6.08347826 -16 9 C-15.0925 9.45375 -14.185 9.9075 -13.25 10.375 C-10.83333333 11.58333333 -8.41666667 12.79166667 -6 14 C-7.43861294 13.91253716 -8.87597508 13.80434652 -10.3125 13.6875 C-11.11300781 13.62949219 -11.91351562 13.57148438 -12.73828125 13.51171875 C-15.43851458 12.90078513 -16.3889478 12.23501528 -18 10 C-18.55618667 7.295406 -18.42629934 4.72263177 -18 2 C-13.95795801 -3.96682389 -5.73098077 -2.77865734 0 0 Z " fill="#A6A1A3" transform="translate(617,478)"/>
<path d="M0 0 C6.62660602 6.25784042 12.72391521 14.14632416 15.50390625 22.9375 C15.17390625 23.9275 14.84390625 24.9175 14.50390625 25.9375 C14.03082031 24.97070312 13.55773437 24.00390625 13.0703125 23.0078125 C5.32534302 7.58537648 -4.14724203 -3.18183085 -20.93359375 -8.875 C-38.22416185 -14.32289092 -55.7631788 -14.30244531 -73.49609375 -11.0625 C-73.16609375 -11.7225 -72.83609375 -12.3825 -72.49609375 -13.0625 C-48.38984414 -19.5791952 -19.61238845 -16.20554163 0 0 Z " fill="#807B7D" transform="translate(353.49609375,314.0625)"/>
<path d="M0 0 C1.65 0 3.3 0 5 0 C5 2.64 5 5.28 5 8 C7.97 8.33 10.94 8.66 14 9 C14 9.99 14 10.98 14 12 C11.36 12 8.72 12 6 12 C6 15.63 6 19.26 6 23 C4.02 22.67 2.04 22.34 0 22 C0 14.74 0 7.48 0 0 Z " fill="#979594" transform="translate(656,478)"/>
<path d="M0 0 C1.32 0 2.64 0 4 0 C4 7.26 4 14.52 4 22 C2.02 22 0.04 22 -2 22 C-2.33 19.03 -2.66 16.06 -3 13 C-4.32 12.67 -5.64 12.34 -7 12 C-6.67 11.01 -6.34 10.02 -6 9 C-4.35 8.67 -2.7 8.34 -1 8 C-0.67 5.36 -0.34 2.72 0 0 Z " fill="#979695" transform="translate(277,478)"/>
<path d="M0 0 C5.11211925 -0.88139987 5.11211925 -0.88139987 8 0 C10.03182305 2.46937983 11.42047162 4.96659283 12.87109375 7.8125 C13.24363281 8.534375 13.61617187 9.25625 14 10 C14.33 10 14.66 10 15 10 C15.33 6.7 15.66 3.4 16 0 C17.98 0 19.96 0 22 0 C23.21858107 2.43716215 23.12925575 4.03274057 23.1328125 6.75390625 C23.13474609 8.15866211 23.13474609 8.15866211 23.13671875 9.59179688 C23.13285156 10.57212891 23.12898437 11.55246094 23.125 12.5625 C23.13080078 14.03879883 23.13080078 14.03879883 23.13671875 15.54492188 C23.13542969 16.48013672 23.13414062 17.41535156 23.1328125 18.37890625 C23.13168457 19.2407251 23.13055664 20.10254395 23.12939453 20.99047852 C23 23 23 23 22 24 C18.75 24.5625 18.75 24.5625 15 24 C12.80407723 21.5987442 11.41864859 18.91168325 10 16 C9.60425781 15.31421875 9.20851563 14.6284375 8.80078125 13.921875 C8 12 8 12 9 9 C9.44730469 9.92683594 9.89460937 10.85367187 10.35546875 11.80859375 C10.96521223 13.01870004 11.57594115 14.22831014 12.1875 15.4375 C12.62545898 16.35499023 12.62545898 16.35499023 13.07226562 17.29101562 C14.06476781 19.3144743 14.06476781 19.3144743 16 22 C17.65 22.33 19.3 22.66 21 23 C21 15.74 21 8.48 21 1 C19.68 1 18.36 1 17 1 C17 5.29 17 9.58 17 14 C16.01 14.33 15.02 14.66 14 15 C11.69 10.71 9.38 6.42 7 2 C4.69 2 2.38 2 0 2 C0 1.34 0 0.68 0 0 Z " fill="#ABA7AB" transform="translate(558,477)"/>
<path d="M0 0 C4 1 4 1 5.30078125 2.55859375 C6.26069107 4.34128342 7.13325366 6.17020217 8 8 C7.67 8.66 7.34 9.32 7 10 C5.35 7.69 3.7 5.38 2 3 C1.67 37.32 1.34 71.64 1 107 C0.67 107 0.34 107 0 107 C0 71.69 0 36.38 0 0 Z " fill="#8F898E" transform="translate(415,351)"/>
<path d="M0 0 C0.66 0 1.32 0 2 0 C2 0.66 2 1.32 2 2 C2.66 2 3.32 2 4 2 C4.33 6.95 4.66 11.9 5 17 C8.3 17.33 11.6 17.66 15 18 C15 18.99 15 19.98 15 21 C10.05 21 5.1 21 0 21 C0 14.07 0 7.14 0 0 Z " fill="#9A9897" transform="translate(288,479)"/>
<path d="M0 0 C0.66 0.33 1.32 0.66 2 1 C2 2.32 2 3.64 2 5 C0.84371094 4.94779297 0.84371094 4.94779297 -0.3359375 4.89453125 C-1.84027344 4.85392578 -1.84027344 4.85392578 -3.375 4.8125 C-4.37273438 4.77769531 -5.37046875 4.74289062 -6.3984375 4.70703125 C-7.68621094 4.85205078 -7.68621094 4.85205078 -9 5 C-11.31332486 8.46998729 -11.33957563 9.92509248 -11 14 C-10.01 15.485 -10.01 15.485 -9 17 C-6.33346095 17.36460453 -6.33346095 17.36460453 -3.375 17.1875 C-2.37210938 17.16042969 -1.36921875 17.13335937 -0.3359375 17.10546875 C0.82035156 17.05326172 0.82035156 17.05326172 2 17 C2 18.65 2 20.3 2 22 C-1.72928028 24.48618685 -5.6764728 24.66020341 -10 24 C-13.30885443 22.74869832 -16.18872822 21.23981734 -18.17578125 18.203125 C-19.1753079 15.53140449 -19.30075668 13.34971349 -19.3125 10.5 C-19.32925781 9.5615625 -19.34601562 8.623125 -19.36328125 7.65625 C-18.94768059 4.61744947 -18.01958576 3.25937827 -16 1 C-15.34 1.33 -14.68 1.66 -14 2 C-14.495 2.66 -14.99 3.32 -15.5 4 C-17.53084499 8.06168997 -17.35925552 10.47338043 -17 15 C-15.82986774 18.4203866 -15.12689277 18.91540482 -12 21 C-5.92595907 22.21436426 -5.92595907 22.21436426 0 21 C0.33 20.34 0.66 19.68 1 19 C0.24074219 19.04640625 -0.51851562 19.0928125 -1.30078125 19.140625 C-2.29464844 19.17671875 -3.28851562 19.2128125 -4.3125 19.25 C-5.29863281 19.29640625 -6.28476562 19.3428125 -7.30078125 19.390625 C-10 19 -10 19 -11.83203125 17.234375 C-13.04365766 14.916481 -13.40535172 13.59001335 -13.375 11 C-13.38273438 10.34 -13.39046875 9.68 -13.3984375 9 C-12.85668707 6.28062531 -11.97882446 4.94019231 -10 3 C-7.51953125 2.609375 -7.51953125 2.609375 -4.8125 2.75 C-3.91144531 2.78609375 -3.01039063 2.8221875 -2.08203125 2.859375 C-1.39496094 2.90578125 -0.70789063 2.9521875 0 3 C0 2.01 0 1.02 0 0 Z " fill="#A8A3A0" transform="translate(1015,478)"/>
<path d="M0 0 C5.30575444 -0.43489791 5.30575444 -0.43489791 8 0 C10.0625 2.3125 10.0625 2.3125 11 5 C10.67 5.99 10.34 6.98 10 8 C9.443125 6.5459375 9.443125 6.5459375 8.875 5.0625 C8.25625 4.051875 7.6375 3.04125 7 2 C4.03 1.505 4.03 1.505 1 1 C1 8.26 1 15.52 1 23 C2.32 23 3.64 23 5 23 C5 18.38 5 13.76 5 9 C5.99 8.67 6.98 8.34 8 8 C8.25394531 8.69867188 8.50789063 9.39734375 8.76953125 10.1171875 C9.11371094 11.02726562 9.45789062 11.93734375 9.8125 12.875 C10.14894531 13.77992188 10.48539063 14.68484375 10.83203125 15.6171875 C11.89649024 18.29425849 11.89649024 18.29425849 15 20 C12.625 19.8125 12.625 19.8125 10 19 C8.8125 16.5 8.8125 16.5 8 14 C7.34 13.67 6.68 13.34 6 13 C6 16.63 6 20.26 6 24 C4.35 24.33 2.7 24.66 1 25 C-1 23 -1 23 -1.24291992 20.98461914 C-1.23881104 20.17629639 -1.23470215 19.36797363 -1.23046875 18.53515625 C-1.22853516 17.65279297 -1.22660156 16.77042969 -1.22460938 15.86132812 C-1.20624023 14.4759082 -1.20624023 14.4759082 -1.1875 13.0625 C-1.18685547 12.14275391 -1.18621094 11.22300781 -1.18554688 10.27539062 C-1.14055525 3.42166574 -1.14055525 3.42166574 0 0 Z " fill="#A6A3A0" transform="translate(1184,477)"/>
<path d="M0 0 C5.28 0 10.56 0 16 0 C16.33 0.66 16.66 1.32 17 2 C12.05 2 7.1 2 2 2 C2 8.6 2 15.2 2 22 C3.32 22.33 4.64 22.66 6 23 C6 20.36 6 17.72 6 15 C7.65 14.67 9.3 14.34 11 14 C11.31453125 14.56589844 11.6290625 15.13179688 11.953125 15.71484375 C12.38109375 16.44832031 12.8090625 17.18179687 13.25 17.9375 C13.66765625 18.66839844 14.0853125 19.39929688 14.515625 20.15234375 C16.04716805 22.4399115 16.04716805 22.4399115 20 23 C18.68 20.03 17.36 17.06 16 14 C19 15 19 15 20.75 17.8125 C21.98589446 20.96403086 22.28222189 21.96929372 21 25 C14.73361522 23.9154334 14.73361522 23.9154334 12.64453125 21.30859375 C11.67912119 19.58340249 10.83056012 17.79400985 10 16 C9.34 16 8.68 16 8 16 C7.67 18.64 7.34 21.28 7 24 C4.69 24 2.38 24 0 24 C0 16.08 0 8.16 0 0 Z " fill="#AEA9AA" transform="translate(349,477)"/>
<path d="M0 0 C3.96 0 7.92 0 12 0 C10 2 10 2 6.375 2.125 C5.26125 2.08375 4.1475 2.0425 3 2 C3 2.66 3 3.32 3 4 C5.64 4.33 8.28 4.66 11 5 C11 6.65 11 8.3 11 10 C7.7 10 4.4 10 1 10 C0.67 6.7 0.34 3.4 0 0 Z " fill="#B3ADAF" transform="translate(381,481)"/>
<path d="M0 0 C0.75410156 0.00322266 1.50820312 0.00644531 2.28515625 0.00976562 C3.06246094 0.01814453 3.83976562 0.02652344 4.640625 0.03515625 C5.43339844 0.03966797 6.22617188 0.04417969 7.04296875 0.04882812 C8.99222008 0.0605706 10.94143238 0.07850479 12.890625 0.09765625 C12.890625 0.42765625 12.890625 0.75765625 12.890625 1.09765625 C7.940625 1.09765625 2.990625 1.09765625 -2.109375 1.09765625 C-1.779375 2.08765625 -1.449375 3.07765625 -1.109375 4.09765625 C-2.099375 5.58265625 -2.099375 5.58265625 -3.109375 7.09765625 C-3.769375 6.43765625 -4.429375 5.77765625 -5.109375 5.09765625 C-6.24418027 8.70758797 -6.20953267 12.08188895 -6.171875 15.84765625 C-6.16285156 17.018125 -6.15382813 18.18859375 -6.14453125 19.39453125 C-6.13292969 20.2865625 -6.12132812 21.17859375 -6.109375 22.09765625 C-4.789375 22.75765625 -3.469375 23.41765625 -2.109375 24.09765625 C-4.089375 24.09765625 -6.069375 24.09765625 -8.109375 24.09765625 C-8.109375 16.50765625 -8.109375 8.91765625 -8.109375 1.09765625 C-5.02589218 0.32678555 -3.05700214 -0.02315911 0 0 Z " fill="#8D7B7A" transform="translate(1056.109375,299.90234375)"/>
<path d="M0 0 C1.51400391 0.01740234 1.51400391 0.01740234 3.05859375 0.03515625 C4.07050781 0.04417969 5.08242188 0.05320312 6.125 0.0625 C7.29869141 0.07990234 7.29869141 0.07990234 8.49609375 0.09765625 C8.16609375 0.75765625 7.83609375 1.41765625 7.49609375 2.09765625 C4.19609375 2.09765625 0.89609375 2.09765625 -2.50390625 2.09765625 C-2.17390625 2.75765625 -1.84390625 3.41765625 -1.50390625 4.09765625 C0.62186157 4.56416832 0.62186157 4.56416832 3.05859375 4.72265625 C3.88488281 4.79742187 4.71117187 4.8721875 5.5625 4.94921875 C6.20058594 4.99820312 6.83867188 5.0471875 7.49609375 5.09765625 C7.49609375 6.74765625 7.49609375 8.39765625 7.49609375 10.09765625 C4.19609375 10.09765625 0.89609375 10.09765625 -2.50390625 10.09765625 C-3.3828125 3.1640625 -3.3828125 3.1640625 -3.50390625 1.09765625 C-2.50390625 0.09765625 -2.50390625 0.09765625 0 0 Z " fill="#AFABAF" transform="translate(543.50390625,480.90234375)"/>
<path d="M0 0 C1.39214652 4.17643955 -0.29335734 6.83437793 -1.9375 10.6875 C-2.22818359 11.38939453 -2.51886719 12.09128906 -2.81835938 12.81445312 C-3.53710313 14.54650775 -4.26745331 16.27373781 -5 18 C-3.35 18 -1.7 18 0 18 C0.33 17.01 0.66 16.02 1 15 C1 16.32 1 17.64 1 19 C-2.79267192 19.9360342 -5.93674565 19.98276252 -9.8125 19.5625 C-10.78832031 19.46066406 -11.76414062 19.35882813 -12.76953125 19.25390625 C-13.50558594 19.17011719 -14.24164062 19.08632813 -15 19 C-15 18.67 -15 18.34 -15 18 C-13.35 18 -11.7 18 -10 18 C-10.680625 16.88625 -11.36125 15.7725 -12.0625 14.625 C-13.22265625 12.7265625 -13.22265625 12.7265625 -14 11 C-13.67 10.34 -13.34 9.68 -13 9 C-10.525 12.465 -10.525 12.465 -8 16 C-5.35820725 12.80815657 -3.85450983 9.58418661 -2.3125 5.75 C-1.87550781 4.67234375 -1.43851563 3.5946875 -0.98828125 2.484375 C-0.66214844 1.66453125 -0.33601562 0.8446875 0 0 Z " fill="#A6A0A1" transform="translate(865,482)"/>
<path d="M0 0 C0 1.65 0 3.3 0 5 C-2.475 4.505 -2.475 4.505 -5 4 C-4.01 3.67 -3.02 3.34 -2 3 C-2 2.01 -2 1.02 -2 0 C-3.95901454 0.11382653 -5.9172338 0.24141125 -7.875 0.375 C-9.51082031 0.47941406 -9.51082031 0.47941406 -11.1796875 0.5859375 C-14.13046474 0.73253491 -14.13046474 0.73253491 -16 3 C-16.16681109 6.08347826 -16.16681109 6.08347826 -16 9 C-15.0925 9.45375 -14.185 9.9075 -13.25 10.375 C-10.83333333 11.58333333 -8.41666667 12.79166667 -6 14 C-7.43861294 13.91253716 -8.87597508 13.80434652 -10.3125 13.6875 C-11.11300781 13.62949219 -11.91351562 13.57148438 -12.73828125 13.51171875 C-15.43851458 12.90078513 -16.3889478 12.23501528 -18 10 C-18.55618667 7.295406 -18.42629934 4.72263177 -18 2 C-13.95795801 -3.96682389 -5.73098077 -2.77865734 0 0 Z " fill="#ACA6A9" transform="translate(617,478)"/>
<path d="M0 0 C0 1.65 0 3.3 0 5 C-0.62648438 5.03738281 -1.25296875 5.07476562 -1.8984375 5.11328125 C-3.12433594 5.21189453 -3.12433594 5.21189453 -4.375 5.3125 C-5.18710937 5.37050781 -5.99921875 5.42851562 -6.8359375 5.48828125 C-9.37921338 5.82990528 -9.37921338 5.82990528 -11 9 C-11.125 2.25 -11.125 2.25 -10 0 C-6.30581799 -1.231394 -3.7943739 -0.64432764 0 0 Z " fill="#B8B2B0" transform="translate(990,486)"/>
<path d="M0 0 C2.97 0 5.94 0 9 0 C9 0.99 9 1.98 9 3 C6.36 3 3.72 3 1 3 C1 4.65 1 6.3 1 8 C3.97 8 6.94 8 10 8 C10 9.65 10 11.3 10 13 C7.03 13 4.06 13 1 13 C1 12.67 1 12.34 1 12 C3.64 12 6.28 12 9 12 C9 11.01 9 10.02 9 9 C8.36191406 9.01160156 7.72382812 9.02320313 7.06640625 9.03515625 C5.82697266 9.04869141 5.82697266 9.04869141 4.5625 9.0625 C3.32693359 9.07990234 3.32693359 9.07990234 2.06640625 9.09765625 C0 9 0 9 -1 8 C-0.82364548 5.30917128 -0.38164079 2.67148554 0 0 Z " fill="#A9A5A6" transform="translate(661,478)"/>
<path d="M0 0 C2.97 0 5.94 0 9 0 C9.33 1.65 9.66 3.3 10 5 C6.7 5 3.4 5 0 5 C-0.33 6.32 -0.66 7.64 -1 9 C-2.25541557 5.23375329 -1.37061958 3.62811066 0 0 Z " fill="#A9A7A5" transform="translate(1167,486)"/>
<path d="M0 0 C3.08424294 -0.3916499 5.05087322 -0.61991849 8 0 C10.0625 1.9375 10.0625 1.9375 11 5 C11.0212522 8.08156882 10.78009283 11.01453194 10 14 C8 16 8 16 4.5625 16.3125 C1 16 1 16 -0.703125 14.79296875 C-2.41909339 12.42059077 -2.36868249 10.90420263 -2.3125 8 C-2.30863281 7.13375 -2.30476563 6.2675 -2.30078125 5.375 C-2 3 -2 3 0 0 Z M0.1875 2 C-1.71020228 5.19613015 -1.55003751 8.383315 -1 12 C0.02421261 14.10938785 0.02421261 14.10938785 2 15 C4.62570704 15.25069913 4.62570704 15.25069913 7 15 C9.39775683 11.21892192 10.13229952 9.67252256 9.25 5.1875 C8.31745104 2.18407051 8.31745104 2.18407051 7 1 C4.30030316 0.71582139 2.58864909 0.67522809 0.1875 2 Z " fill="#A8A4A0" transform="translate(1032,481)"/>
<path d="M0 0 C3.3 0 6.6 0 10 0 C10 1.65 10 3.3 10 5 C6.7 5 3.4 5 0 5 C0 3.35 0 1.7 0 0 Z " fill="#B4ADB1" transform="translate(803,486)"/>
<path d="M0 0 C0 1.65 0 3.3 0 5 C-2.97 5 -5.94 5 -9 5 C-9.33 3.35 -9.66 1.7 -10 0 C-6.33694766 -0.74926071 -3.57644848 -1.2380014 0 0 Z " fill="#C4BFBD" transform="translate(303,486)"/>
<path d="M0 0 C0.99 0.33 1.98 0.66 3 1 C3 2.65 3 4.3 3 6 C1 7 1 7 -2.125 6.0625 C-3.07375 5.711875 -4.0225 5.36125 -5 5 C-5 4.67 -5 4.34 -5 4 C-2.69 4 -0.38 4 2 4 C2 3.34 2 2.68 2 2 C-1.3 2.33 -4.6 2.66 -8 3 C-8.12375 3.804375 -8.2475 4.60875 -8.375 5.4375 C-8.58125 6.283125 -8.7875 7.12875 -9 8 C-9.99 8.495 -9.99 8.495 -11 9 C-11.8125 7.3125 -11.8125 7.3125 -12 5 C-8.45801703 0.12977342 -5.89412577 -0.65490286 0 0 Z " fill="#A5A0A4" transform="translate(452,476)"/>
<path d="M0 0 C0.99 0.33 1.98 0.66 3 1 C2.46375 1.721875 1.9275 2.44375 1.375 3.1875 C-0.30788391 5.90041737 -0.30788391 5.90041737 0.5625 8.6875 C2.25903027 11.41670086 2.89418901 12.18268132 6 13 C8.72709002 12.85371931 11.29648083 12.45058653 14 12 C14 12.66 14 13.32 14 14 C5.99970458 15.44667651 5.99970458 15.44667651 2.0625 13.6875 C0 12 0 12 -2 10 C-2.31537716 5.66356399 -2.44897847 3.67346771 0 0 Z " fill="#A4A0A3" transform="translate(439,487)"/>
<path d="M0 0 C1.58206057 0.00667536 3.16410534 0.0186375 4.74609375 0.03515625 C5.55240234 0.03966797 6.35871094 0.04417969 7.18945312 0.04882812 C9.18753131 0.06065107 11.18557158 0.07858711 13.18359375 0.09765625 C13.18359375 1.74765625 13.18359375 3.39765625 13.18359375 5.09765625 C9.48941174 6.32905025 6.97796765 5.74198389 3.18359375 5.09765625 C3.18359375 4.76765625 3.18359375 4.43765625 3.18359375 4.09765625 C5.82359375 4.09765625 8.46359375 4.09765625 11.18359375 4.09765625 C11.18359375 3.10765625 11.18359375 2.11765625 11.18359375 1.09765625 C6.56359375 1.09765625 1.94359375 1.09765625 -2.81640625 1.09765625 C-2.81640625 3.40765625 -2.81640625 5.71765625 -2.81640625 8.09765625 C-3.14640625 8.09765625 -3.47640625 8.09765625 -3.81640625 8.09765625 C-4.19703846 5.77157055 -4.5291057 3.43710361 -4.81640625 1.09765625 C-3.81640625 0.09765625 -3.81640625 0.09765625 0 0 Z " fill="#B9B0B3" transform="translate(658.81640625,476.90234375)"/>
<path d="M0 0 C0 1.65 0 3.3 0 5 C-2.97 5 -5.94 5 -9 5 C-9 3.68 -9 2.36 -9 1 C-5.92677456 0.08941469 -3.19902639 -0.08886184 0 0 Z " fill="#C2BBC0" transform="translate(416,486)"/>
<path d="M0 0 C2.49645479 2.49645479 3.05707869 4.81743317 4.12109375 8.125 C4.96788846 10.35267006 4.96788846 10.35267006 8 12 C5.625 11.8125 5.625 11.8125 3 11 C1.8125 8.5 1.8125 8.5 1 6 C0.34 5.67 -0.32 5.34 -1 5 C-1 8.63 -1 12.26 -1 16 C-1.33 16 -1.66 16 -2 16 C-2 11.05 -2 6.1 -2 1 C-1.34 0.67 -0.68 0.34 0 0 Z " fill="#B0ACA9" transform="translate(1191,485)"/>
<path d="M0 0 C-0.33 1.65 -0.66 3.3 -1 5 C-2.65 4.67 -4.3 4.34 -6 4 C-4.68 3.67 -3.36 3.34 -2 3 C-2.33 2.34 -2.66 1.68 -3 1 C-8.40289652 -0.09889421 -11.81389561 -0.20409437 -17 2 C-17 1.34 -17 0.68 -17 0 C-11.14880182 -2.83694457 -5.85119818 -2.83694457 0 0 Z " fill="#ADA69F" transform="translate(1126,478)"/>
<path d="M0 0 C-0.33 1.65 -0.66 3.3 -1 5 C-1.99 4.34 -2.98 3.68 -4 3 C-3.34 3 -2.68 3 -2 3 C-2.33 2.34 -2.66 1.68 -3 1 C-7.29 1 -11.58 1 -16 1 C-13.22268836 -4.55462329 -4.51581147 -2.18948435 0 0 Z " fill="#B0A8A4" transform="translate(1072,478)"/>
<path d="M0 0 C0.66 0.33 1.32 0.66 2 1 C2 2.32 2 3.64 2 5 C0.84371094 4.94779297 0.84371094 4.94779297 -0.3359375 4.89453125 C-1.84027344 4.85392578 -1.84027344 4.85392578 -3.375 4.8125 C-4.37273438 4.77769531 -5.37046875 4.74289062 -6.3984375 4.70703125 C-7.68621094 4.85205078 -7.68621094 4.85205078 -9 5 C-11.12508244 8.18762365 -11.5020163 10.26512223 -12 14 C-12.33 14 -12.66 14 -13 14 C-13.36455002 7.68113294 -13.36455002 7.68113294 -11.8125 4.78125 C-10 3 -10 3 -7.51953125 2.609375 C-6.17955078 2.67898438 -6.17955078 2.67898438 -4.8125 2.75 C-3.91144531 2.78609375 -3.01039063 2.8221875 -2.08203125 2.859375 C-1.05142578 2.92898438 -1.05142578 2.92898438 0 3 C0 2.01 0 1.02 0 0 Z " fill="#AFA9A6" transform="translate(1015,478)"/>
<path d="M0 0 C2.875 -0.125 2.875 -0.125 6 0 C6.66 0.66 7.32 1.32 8 2 C7.625 4.625 7.625 4.625 7 7 C5.0085944 7.38133299 3.00720923 7.71325582 1 8 C0 7 0 7 -0.0625 3.4375 C-0.041875 2.303125 -0.02125 1.16875 0 0 Z M1 1 C1.33 2.65 1.66 4.3 2 6 C3.32 5.67 4.64 5.34 6 5 C5.67 3.68 5.34 2.36 5 1 C3.68 1 2.36 1 1 1 Z " fill="#AEA9AA" transform="translate(355,481)"/>
<path d="M0 0 C-0.33 2.97 -0.66 5.94 -1 9 C-1.99 7.68 -2.98 6.36 -4 5 C-4.66 6.32 -5.32 7.64 -6 9 C-6.66 8.34 -7.32 7.68 -8 7 C-7.01 5.02 -6.02 3.04 -5 1 C-4.67 1.66 -4.34 2.32 -4 3 C-3.525625 2.505 -3.05125 2.01 -2.5625 1.5 C-1 0 -1 0 0 0 Z " fill="#A19F9C" transform="translate(1206,488)"/>
<path d="M0 0 C1.99954746 -0.04254356 4.00041636 -0.04080783 6 0 C7 1 7 1 7.25 3.4375 C7.1675 4.283125 7.085 5.12875 7 6 C4 8 4 8 1 8 C-0.35439668 5.29120665 -0.06501451 2.99066732 0 0 Z M1 1 C1 2.65 1 4.3 1 6 C2.65 5.67 4.3 5.34 6 5 C5.34 3.68 4.68 2.36 4 1 C3.01 1 2.02 1 1 1 Z " fill="#A49EA1" transform="translate(841,481)"/>
<path d="M0 0 C3.63 0.33 7.26 0.66 11 1 C11 1.33 11 1.66 11 2 C6.545 2.495 6.545 2.495 2 3 C4.00032373 4.00016187 5.83125748 4.49396008 8 5 C5.6739143 5.38063221 3.33944736 5.71269945 1 6 C0.67 5.67 0.34 5.34 0 5 C0 3.35 0 1.7 0 0 Z " fill="#A3A0A0" transform="translate(331,481)"/>
<path d="M0 0 C2.97 0 5.94 0 9 0 C9 0.99 9 1.98 9 3 C6.36 3 3.72 3 1 3 C0.67 2.01 0.34 1.02 0 0 Z " fill="#ACA9A8" transform="translate(294,478)"/>
<path d="M0 0 C0.66 0 1.32 0 2 0 C2 0.66 2 1.32 2 2 C4.97851562 1.90234375 4.97851562 1.90234375 7.95703125 1.8046875 C10 2 10 2 13 4 C9.04 4 5.08 4 1 4 C0.67 2.68 0.34 1.36 0 0 Z " fill="#7B7677" transform="translate(383,455)"/>
<path d="M0 0 C3.3 0 6.6 0 10 0 C10 0.99 10 1.98 10 3 C8.5199159 2.88637738 7.04089926 2.75877092 5.5625 2.625 C4.73878906 2.55539062 3.91507812 2.48578125 3.06640625 2.4140625 C2.38449219 2.27742188 1.70257813 2.14078125 1 2 C0.67 1.34 0.34 0.68 0 0 Z " fill="#9D9B9B" transform="translate(405,478)"/>
<path d="M0 0 C0.66 0 1.32 0 2 0 C2.04241723 2.33294775 2.04092937 4.66702567 2 7 C1 8 1 8 -1.06640625 8.09765625 C-1.89011719 8.08605469 -2.71382813 8.07445312 -3.5625 8.0625 C-4.38878906 8.05347656 -5.21507812 8.04445313 -6.06640625 8.03515625 C-6.70449219 8.02355469 -7.34257812 8.01195312 -8 8 C-8 7.67 -8 7.34 -8 7 C-4.535 6.505 -4.535 6.505 -1 6 C-0.67 4.02 -0.34 2.04 0 0 Z " fill="#A9A6A5" transform="translate(275,479)"/>
<path d="M0 0 C0 1.65 0 3.3 0 5 C-1.65 5 -3.3 5 -5 5 C-4.34 4.34 -3.68 3.68 -3 3 C-3.99 2.67 -4.98 2.34 -6 2 C-6 1.34 -6 0.68 -6 0 C-3.50907189 -1.24546405 -2.58919267 -0.7767578 0 0 Z " fill="#D6CFCD" transform="translate(303,486)"/>
<path d="M0 0 C0.66 0.33 1.32 0.66 2 1 C1.67 3.31 1.34 5.62 1 8 C0.01 8 -0.98 8 -2 8 C-2 5.69 -2 3.38 -2 1 C-1.34 0.67 -0.68 0.34 0 0 Z " fill="#A48C8F" transform="translate(1067,311)"/>
<path d="M0 0 C0.33 0 0.66 0 1 0 C1.25 7.625 1.25 7.625 -1 11 C-4.625 11.6875 -4.625 11.6875 -8 12 C-6.32608747 10.88405831 -4.63118114 9.79389534 -2.875 8.8125 C-0.15452397 6.1827065 -0.27669583 3.66621969 0 0 Z " fill="#A7A0A1" transform="translate(906,485)"/>
<path d="M0 0 C1.99954746 -0.04254356 4.00041636 -0.04080783 6 0 C7 1 7 1 7.0625 3.5625 C7.041875 4.366875 7.02125 5.17125 7 6 C5.35 5.67 3.7 5.34 2 5 C2.99 4.67 3.98 4.34 5 4 C5 3.01 5 2.02 5 1 C3.35 1 1.7 1 0 1 C0 0.67 0 0.34 0 0 Z " fill="#B0AAAC" transform="translate(610,477)"/>
<path d="M0 0 C1.65 0 3.3 0 5 0 C5.33 0.99 5.66 1.98 6 3 C3.69 3 1.38 3 -1 3 C-0.67 2.01 -0.34 1.02 0 0 Z " fill="#A6A3A2" transform="translate(984,487)"/>
<path d="M0 0 C1.65 0 3.3 0 5 0 C5 1.65 5 3.3 5 5 C3.35 5 1.7 5 0 5 C0.66 4.34 1.32 3.68 2 3 C1.34 2.67 0.68 2.34 0 2 C0 1.34 0 0.68 0 0 Z " fill="#D3C8D1" transform="translate(411,486)"/>
<path d="M0 0 C1.94723595 2.92085393 2.55175352 4.59332678 3 8 C2 9 2 9 -1.0625 9.0625 C-2.031875 9.041875 -3.00125 9.02125 -4 9 C-2.68 8.34 -1.36 7.68 0 7 C0 4.69 0 2.38 0 0 Z " fill="#A9A3A6" transform="translate(872,484)"/>
<path d="M0 0 C1.32 0 2.64 0 4 0 C4 1.65 4 3.3 4 5 C2 6 2 6 -1.125 5.0625 C-2.07375 4.711875 -3.0225 4.36125 -4 4 C-4 3.67 -4 3.34 -4 3 C-1.69 3 0.62 3 3 3 C3 2.34 3 1.68 3 1 C2.01 0.67 1.02 0.34 0 0 Z " fill="#B1A9B0" transform="translate(451,477)"/>
<path d="M0 0 C0.66 0.33 1.32 0.66 2 1 C2.625 3.5625 2.625 3.5625 3 6 C-0.01031744 6.93423645 -0.86650268 7.04449911 -4 6 C-3.67 5.34 -3.34 4.68 -3 4 C-1.02 4.495 -1.02 4.495 1 5 C0.67 3.35 0.34 1.7 0 0 Z " fill="#AFA7AA" transform="translate(881,495)"/>
<path d="M0 0 C0.66 0 1.32 0 2 0 C2 0.99 2 1.98 2 3 C4.31 3 6.62 3 9 3 C9 3.33 9 3.66 9 4 C5.7 4 2.4 4 -1 4 C-0.67 2.68 -0.34 1.36 0 0 Z " fill="#BFB8BD" transform="translate(804,487)"/>
<path d="M0 0 C2.78211944 0.37596209 4.5879284 0.67318459 6.8125 2.4375 C8 4 8 4 8 6 C7.01 5.67 6.02 5.34 5 5 C4.67 4.34 4.34 3.68 4 3 C1.97536745 2.34786708 1.97536745 2.34786708 0 2 C0 1.34 0 0.68 0 0 Z " fill="#AEA9AE" transform="translate(443,489)"/>
<path d="M0 0 C0.33 0.66 0.66 1.32 1 2 C4.60992379 1.34414811 4.60992379 1.34414811 8 0 C7.67 1.32 7.34 2.64 7 4 C4.69 3.67 2.38 3.34 0 3 C0 2.01 0 1.02 0 0 Z " fill="#A29EA2" transform="translate(444,494)"/>
<path d="M0 0 C2.52588702 2.36292656 3.88820837 3.66462511 5 7 C4.34 7.66 3.68 8.32 3 9 C1.68 6.36 0.36 3.72 -1 1 C-0.67 0.67 -0.34 0.34 0 0 Z " fill="#A5A0A3" transform="translate(569,483)"/>
<path d="M0 0 C1.98 0 3.96 0 6 0 C6 0.99 6 1.98 6 3 C4.35 3 2.7 3 1 3 C0.67 2.01 0.34 1.02 0 0 Z " fill="#999898" transform="translate(544,487)"/>
<path d="M0 0 C2.00720923 0.28674418 4.0085944 0.61866701 6 1 C6 1.33 6 1.66 6 2 C4.35 2.33 2.7 2.66 1 3 C0.67 4.65 0.34 6.3 0 8 C-0.33 8 -0.66 8 -1 8 C-1.04241723 5.66705225 -1.04092937 3.33297433 -1 1 C-0.67 0.67 -0.34 0.34 0 0 Z " fill="#A9A5A8" transform="translate(516,480)"/>
<path d="M0 0 C1.65 0 3.3 0 5 0 C5.33 1.65 5.66 3.3 6 5 C5.01 5.495 5.01 5.495 4 6 C3.34 5.34 2.68 4.68 2 4 C2.66 4 3.32 4 4 4 C3.04134491 1.66924071 3.04134491 1.66924071 0 0 Z " fill="#BAB4AF" transform="translate(1066,477)"/>
<path d="M0 0 C3.48331435 3.01887244 4.79157144 5.56909529 6 10 C3.08511023 7.3765992 1.11496102 4.28183606 -1 1 C-0.67 0.67 -0.34 0.34 0 0 Z " fill="#858381" transform="translate(417,351)"/>
</svg>
