<?xml version="1.0" encoding="UTF-8"?>
<svg version="1.1" xmlns="http://www.w3.org/2000/svg" width="1280" height="720">
<path d="M0 0 C1.26580524 0.00054477 2.53161049 0.00108953 3.83577347 0.00165081 C4.89541208 -0.00197294 4.89541208 -0.00197294 5.97645754 -0.00566989 C8.3683956 -0.01134754 10.76007013 -0.00260833 13.15199661 0.00596905 C14.87536216 0.00491601 16.59872737 0.00299804 18.3220911 0.00028515 C23.08061115 -0.00456382 27.83903971 0.00329128 32.59754872 0.01327062 C37.73125202 0.02200108 42.86495206 0.01957183 47.99866104 0.01871014 C58.08384789 0.01898642 68.16899241 0.03067775 78.25416595 0.04630488 C86.45884814 0.05878322 94.6635236 0.06668588 102.86821365 0.07164288 C211.93943191 0.13950994 321.00929585 0.6569588 430.07875443 1.24888897 C430.92586298 4.81394478 431.12330844 7.82536835 430.81505203 11.47110271 C430.7310968 12.5048251 430.64714157 13.53854748 430.56064224 14.60359478 C430.41274498 16.29139553 430.41274498 16.29139553 430.26185989 18.01329327 C430.11319221 19.80584797 430.11319221 19.80584797 429.96152115 21.6346159 C429.68731631 24.92370712 429.40683413 28.21215069 429.12358618 31.50046802 C428.82327508 35.00430609 428.53097017 38.50881266 428.23772049 42.01324749 C427.67560296 48.71600782 427.10620205 55.41812927 426.53427422 62.12005883 C425.9038532 69.51168245 425.28170852 76.90399395 424.66025496 84.29637599 C423.56530949 97.31828566 422.46038982 110.33932042 421.34762526 123.35971904 C420.6212151 131.85992973 419.89975571 140.3605211 419.18819368 148.86198848 C418.68110757 154.92019561 418.16962412 160.97802232 417.6566391 167.03573322 C417.44612952 169.53180535 417.23726853 172.02801716 417.03019714 174.52437687 C416.74506517 177.9587425 416.45385581 181.3925437 416.16127396 184.82628155 C416.08089512 185.8127725 416.00051628 186.79926346 415.91770172 187.81564808 C415.51183104 192.50954168 414.95860792 197.10604983 414.11885452 201.74273968 C412.62575999 210.35822514 412.05500559 219.06192625 411.35463333 227.76988506 C411.19379378 229.7229913 411.03249034 231.67605938 410.87076187 233.62909222 C410.5247891 237.81765904 410.18184276 242.00645851 409.84122467 246.19546413 C409.29983062 252.85053681 408.75016731 259.50491118 408.19920731 266.15919781 C406.83082288 282.70060166 405.47153241 299.24275127 404.11738968 315.78532696 C403.06641705 328.6242245 402.01209681 341.46282651 400.94732797 354.30058825 C400.49014677 359.81637843 400.03585805 365.33237136 399.58887482 370.84899807 C396.38505647 410.36576425 396.38505647 410.36576425 393.95131302 428.80601788 C393.71363677 430.60786572 393.71363677 430.60786572 393.47115898 432.44611454 C391.99494705 442.9546319 391.99494705 442.9546319 390.07875443 447.24888897 C387.74184036 448.58897686 387.74184036 448.58897686 384.81312943 449.40904522 C383.73225052 449.72115948 382.65137161 450.03327374 381.5377388 450.354846 C379.82554153 450.79739727 379.82554153 450.79739727 378.07875443 451.24888897 C376.97338333 451.54005596 375.86801224 451.83122295 374.72914505 452.13121319 C370.11501352 453.30870867 365.48390916 454.41057955 360.85219193 455.51646709 C354.62248569 457.03226978 348.48475437 458.70148002 342.37953568 460.65904522 C332.54970874 463.80787057 322.56505415 466.32275249 312.56679153 468.87388897 C304.46216997 470.94722076 296.43282765 473.05446585 288.52016068 475.78013897 C279.41781406 478.90394181 270.11764421 481.06722772 260.76723099 483.30113506 C250.32993948 485.80546612 240.22027439 488.7272166 230.07875443 492.24888897 C213.50369603 497.65414016 200.17620464 494.10205049 184.10799026 488.57043743 C178.52340576 486.65900908 172.90867999 485.1069002 167.18031693 483.69029522 C165.30007846 483.21710763 163.41987109 482.74379651 161.53969193 482.27037334 C158.62223403 481.54002887 155.70433418 480.81153318 152.78578568 480.08555889 C134.06285649 475.41903934 134.06285649 475.41903934 125.8658638 472.22960186 C119.23735343 469.89719768 112.3290116 468.38439922 105.51625443 466.68638897 C102.45168403 465.91728086 99.38794603 465.14493408 96.32484818 464.36998272 C95.22680107 464.09233074 95.22680107 464.09233074 94.1065712 463.80906963 C88.71538501 462.43555431 83.39307457 460.89467022 78.07875443 459.24888897 C74.77063078 458.27524386 71.45641908 457.32325174 68.14125443 456.37388897 C67.24680618 456.11704327 66.35235794 455.86019756 65.43080521 455.59556866 C58.32964503 453.57094538 51.19887549 451.67667787 44.03212357 449.89781475 C40.59551148 449.02304076 38.05731047 448.234593 35.07875443 446.24888897 C34.40341091 444.33369923 34.40341091 444.33369923 33.9826088 441.97523785 C33.82219258 441.09704325 33.66177637 440.21884865 33.49649906 439.31404209 C33.33890456 438.36199957 33.18131006 437.40995705 33.01893997 436.42906475 C32.8483063 435.44027891 32.67767263 434.45149307 32.50186825 433.43274403 C30.83988298 423.44921193 29.8630608 413.44724754 29.03578568 403.36607647 C28.86512999 401.38227209 28.69357168 399.3985452 28.52119827 397.41488934 C28.06127431 392.09164319 27.61429185 386.76738393 27.16977692 381.44283199 C26.69806202 375.82176043 26.2135212 370.20179231 25.73085403 364.58165264 C23.73469691 341.27432797 21.80201593 317.96169019 19.87547112 294.64852428 C19.565398 290.89742671 19.25488833 287.14636549 18.94427872 283.39531231 C18.74061621 280.93456073 18.53698744 278.47380635 18.3333931 276.01304913 C18.18390355 274.20623795 18.18390355 274.20623795 18.031394 272.36292553 C17.44122031 265.22012084 16.85720095 258.07684415 16.27809334 250.93313408 C15.91608954 246.47717047 15.55017879 242.02153295 15.18348312 237.56595325 C15.014838 235.50520318 14.84796329 233.44430729 14.68304062 231.38325596 C13.95392041 222.27674072 13.20370995 213.28318483 11.5619545 204.28845501 C10.44998639 197.2936289 10.00458713 190.19821771 9.41469193 183.14342022 C9.26030579 181.33950811 9.10551934 179.53563023 8.95036697 177.73178387 C8.53246321 172.85742431 8.12078587 167.98255781 7.71055984 163.10754681 C7.36606659 159.02125909 7.01830266 154.93525224 6.67060089 150.84923649 C5.55892868 137.78235129 4.46020178 124.714392 3.36395645 111.64620495 C3.07716324 108.22993486 2.7897942 104.8137137 2.50221634 101.39750957 C1.27658452 86.83769693 0.05811364 72.27730551 -1.15317154 57.71629238 C-1.42077993 54.50447764 -1.68957359 51.29276401 -1.95866013 48.08107281 C-2.38230175 43.02156391 -2.80210183 37.96175026 -3.21894836 32.90167713 C-3.37242681 31.04541472 -3.5271416 29.18925403 -3.68320465 27.33320713 C-3.89689596 24.78877349 -4.10593187 22.24399743 -4.3138237 19.69908428 C-4.3760795 18.97031991 -4.4383353 18.24155554 -4.50247765 17.4907074 C-4.80065792 13.77807888 -4.99954244 10.06964955 -5.08420944 6.34575176 C-5.10193153 5.6098922 -5.11965363 4.87403263 -5.13791275 4.11587429 C-4.73964805 0.68409307 -3.22594926 0.2748496 0 0 Z " fill="#E44D26" transform="translate(426.9212455749512,171.7511110305786)"/>
<path d="M0 0 C89.76 0 179.52 0 272 0 C269.60365854 29.95426829 269.60365854 29.95426829 268.9375 37.6875 C268.82051758 39.08838867 268.82051758 39.08838867 268.70117188 40.51757812 C268.62318359 41.42314453 268.54519531 42.32871094 268.46484375 43.26171875 C268.399021 44.03475342 268.33319824 44.80778809 268.26538086 45.60424805 C267.95378242 48.41723375 267.46528057 51.20831661 267 54 C198.36 54 129.72 54 59 54 C59.66 58.62 60.32 63.24 61 68 C61.31374151 70.9293212 61.6099017 73.8434162 61.8515625 76.77734375 C61.94719986 77.88801964 61.94719986 77.88801964 62.04476929 79.02113342 C62.17597478 80.5556738 62.30526957 82.09037879 62.43261719 83.62524414 C62.62684135 85.95963122 62.82863958 88.29328044 63.03125 90.62695312 C63.15929777 92.13537908 63.28691761 93.64384143 63.4140625 95.15234375 C63.47340973 95.83787827 63.53275696 96.52341278 63.59390259 97.22972107 C63.94573436 101.52867179 64 105.66134423 64 110 C129.34 110 194.68 110 262 110 C258.59555725 156.52738421 258.59555725 156.52738421 256.92227173 173.00622559 C256.37922906 178.36094633 255.85503396 183.7175086 255.33203125 189.07421875 C255.22314072 190.18886505 255.11425018 191.30351135 255.00205994 192.45193481 C253.41817562 208.82537078 252.06330191 225.2200278 250.69970703 241.61303711 C249.70748009 253.44699779 248.63718697 265.2355941 247 277 C246.01942627 277.27150879 245.03885254 277.54301758 244.02856445 277.82275391 C239.45625081 279.08911618 234.88431099 280.35682437 230.3125 281.625 C229.48168915 281.85541992 228.6508783 282.08583984 227.79489136 282.32324219 C218.70643228 284.84486508 209.62206794 287.37611096 200.5625 290 C189.30567816 293.25273663 177.98394421 296.27070148 166.66821289 299.31054688 C165.9150177 299.5137001 165.16182251 299.71685333 164.38580322 299.92616272 C162.86870468 300.33271685 161.35016821 300.73394205 159.83026123 301.12986755 C155.98089289 302.14250025 152.21312075 303.24675701 148.45776367 304.56860352 C136.84099174 308.52676245 129.18556198 307.67497288 117.6875 303.8125 C116.11220771 303.32381444 114.53534181 302.84017587 112.95703125 302.36132812 C109.7839406 301.39384407 106.61894894 300.40494732 103.45849609 299.39697266 C97.18922708 297.41170134 90.84964603 295.70907198 84.5 294 C82.18053297 293.36233566 79.86153059 292.72297906 77.54296875 292.08203125 C76.34978027 291.75283691 75.1565918 291.42364258 73.92724609 291.08447266 C67.02183258 289.17810277 60.11760527 287.26746122 53.21435547 285.35327148 C51.63584565 284.91572358 50.0572353 284.47853817 48.47851562 284.04174805 C46.26273321 283.42860397 44.04733991 282.81407199 41.83203125 282.19921875 C40.56077393 281.84690186 39.2895166 281.49458496 37.97973633 281.1315918 C33.30111798 279.81743945 28.65102021 278.40816628 24 277 C23.23068961 268.59281338 22.46539847 260.18527375 21.7049036 251.77728558 C21.35146003 247.87096167 20.99675558 243.96476175 20.63891602 240.05883789 C20.29207997 236.27246363 19.94888664 232.48577365 19.60796928 228.69886208 C19.47886995 227.27145994 19.34857045 225.84416569 19.21690559 224.41699791 C18.19044241 213.27704212 17.58875236 202.18629492 17 191 C35.15 191 53.3 191 72 191 C72.495 196.589375 72.99 202.17875 73.5 207.9375 C73.65662109 209.68281006 73.81324219 211.42812012 73.97460938 213.22631836 C74.09796479 214.63913325 74.22103021 216.0519735 74.34375 217.46484375 C74.44091309 218.52934753 74.44091309 218.52934753 74.54003906 219.61535645 C74.98164663 224.75955888 75.05339052 229.83669199 75 235 C75.63619263 235.12000366 76.27238525 235.24000732 76.92785645 235.36364746 C83.94885405 236.70049603 90.83911341 238.43606669 97.75 240.25 C98.92143555 240.55357422 100.09287109 240.85714844 101.29980469 241.16992188 C107.02103872 242.66026229 112.72510161 244.19124412 118.40625 245.828125 C119.3952832 246.11010742 120.38431641 246.39208984 121.40332031 246.68261719 C123.24993351 247.2128454 125.09331866 247.75449988 126.93261719 248.30957031 C127.76438477 248.54772461 128.59615234 248.78587891 129.453125 249.03125 C130.16629883 249.24330078 130.87947266 249.45535156 131.61425781 249.67382812 C136.99092788 250.40891114 142.30873645 248.75796713 147.47265625 247.36328125 C148.69227051 247.03585937 149.91188477 246.7084375 151.16845703 246.37109375 C152.46647336 246.01823654 153.76448764 245.66537181 155.0625 245.3125 C156.39947226 244.95273619 157.73655017 244.5933648 159.07373047 244.234375 C165.29708517 242.56052467 171.51347004 240.86248111 177.72265625 239.13671875 C178.7273999 238.85852295 179.73214355 238.58032715 180.76733398 238.29370117 C182.62889991 237.77666138 184.48916869 237.25492105 186.34790039 236.7277832 C187.58721313 236.38299927 187.58721313 236.38299927 188.8515625 236.03125 C189.56135254 235.83080078 190.27114258 235.63035156 191.00244141 235.42382812 C193 235 193 235 197 235 C196.98771866 234.20875732 196.97543732 233.41751465 196.96278381 232.60229492 C196.89427505 224.76983274 197.28973835 217.10389851 198.05859375 209.3125 C198.22150658 207.59329346 198.22150658 207.59329346 198.38771057 205.83935547 C198.61602557 203.44259489 198.84724991 201.04610978 199.08129883 198.64990234 C199.43925038 194.98206431 199.78773529 191.31341716 200.13476562 187.64453125 C200.35882698 185.30463496 200.58341739 182.96478925 200.80859375 180.625 C200.91280136 179.53227783 201.01700897 178.43955566 201.12437439 177.3137207 C201.22440262 176.2949585 201.32443085 175.27619629 201.42749023 174.2265625 C201.55739601 172.88972412 201.55739601 172.88972412 201.68992615 171.52587891 C202.00018416 168.9984998 202.50061941 166.49690293 203 164 C140.63 164 78.26 164 14 164 C12.68 149.15 11.36 134.3 10 119 C9.12875642 109.74739316 8.25620261 100.49551887 7.3616333 91.24523926 C5.49165404 71.87888184 3.64034586 52.51031852 1.88671875 33.13305664 C1.71494389 31.24080916 1.54149641 29.34871262 1.36621094 27.45678711 C1.12726427 24.87264916 0.89475389 22.28801127 0.6640625 19.703125 C0.59563141 18.97575134 0.52720032 18.24837769 0.45669556 17.4989624 C-0.05743249 11.60105668 0 5.99261435 0 0 Z " fill="#FEFEFE" transform="translate(504,265)"/>
<path d="M0 0 C58.41 0 116.82 0 177 0 C177 5.83393922 176.9999984 11.24951496 176.49682617 16.98974609 C176.38628403 18.27543488 176.27574188 19.56112366 176.16184998 20.88577271 C176.03895867 22.26500046 175.9159963 23.64422189 175.79296875 25.0234375 C175.66615823 26.48148253 175.53974822 27.93956244 175.41371155 29.39767456 C175.07869476 33.26207504 174.73863281 37.1260154 174.39753723 40.98988342 C174.04619219 44.97964696 173.69942593 48.96980772 173.35253906 52.95996094 C173.21439616 54.5484628 173.07624313 56.13696378 172.93807983 57.72546387 C172.87019634 58.50596603 172.80231285 59.2864682 172.73237228 60.09062195 C172.52814187 62.43614629 172.32331201 64.78161759 172.11831665 67.1270752 C171.3945335 75.41392959 170.68200631 83.70144197 170.00390625 91.9921875 C169.93572189 92.8246701 169.86753754 93.65715271 169.79728699 94.51486206 C169.50732085 98.06611129 169.220761 101.61758256 168.93823242 105.16943359 C168.42306591 111.50272757 167.80583039 117.81329432 167.07421875 124.125 C165.7462888 135.67727186 164.83930484 147.2664689 163.88400269 158.85430908 C162.42481403 176.53549267 160.96046736 194.2112796 159.09619141 211.85522461 C157.62646396 226.085047 156.55831376 240.35243502 155.44506836 254.61376953 C154.72893632 263.7029595 153.95873729 272.75680525 152.82580566 281.80413818 C151.34668419 293.984911 150.40835682 306.2337258 149.34057617 318.45629883 C149.00530496 322.29394775 148.66599032 326.13122616 148.32541561 329.96840763 C148.05876478 332.97731755 147.79413809 335.98640299 147.53009224 338.99554253 C147.40589696 340.40861446 147.28114959 341.821638 147.15577507 343.23460579 C146.38166374 351.97561529 145.7452293 360.70950106 145.26930237 369.47093201 C145.02274187 372.70197958 144.58966669 375.8157769 144 379 C125.93946006 384.20582972 107.86599037 389.34576748 89.72183228 394.25292969 C80.27289641 396.81028229 70.86335289 399.47539882 61.47851562 402.25976562 C50.39887108 405.51848461 39.23652817 408.47733819 28.07714844 411.44897461 C20.13091336 413.57153554 12.24688327 415.7828277 4.4128418 418.29418945 C2 419 2 419 0 419 C0 400.19 0 381.38 0 362 C39.12825729 350.91822084 39.12825729 350.91822084 54.73046875 346.79052734 C61.77305773 344.91034377 68.7814782 342.9260593 75.78515625 340.90625 C76.73665054 340.63223862 77.68814484 340.35822723 78.66847229 340.07591248 C83.46063221 338.69487196 88.2507601 337.30726852 93.03833008 335.91040039 C94.80414939 335.39973002 96.5700164 334.88922451 98.3359375 334.37890625 C99.15139542 334.13865723 99.96685333 333.8984082 100.80702209 333.65087891 C101.56470383 333.43294678 102.32238556 333.21501465 103.10302734 332.99047852 C103.76184906 332.79841324 104.42067078 332.60634796 105.09945679 332.40846252 C107 332 107 332 111 332 C111.05492111 331.04902435 111.10984222 330.09804871 111.16642761 329.11825562 C111.77383398 318.86701178 112.58588097 308.64310562 113.48828125 298.4140625 C113.63310953 296.75680189 113.77780009 295.09952924 113.92236328 293.44224548 C114.30451072 289.06842738 114.68937162 284.69485234 115.0749855 280.32133865 C115.31384791 277.60969814 115.55187394 274.89798543 115.78964233 272.18624878 C117.70437927 250.35423173 119.65535355 228.52706195 121.78564453 206.71484375 C122.77956633 196.51537396 123.67072028 186.31419868 124.40551758 176.09204102 C124.50449341 174.7509729 124.50449341 174.7509729 124.60546875 173.3828125 C124.65856201 172.62371582 124.71165527 171.86461914 124.76635742 171.08251953 C125 169 125 169 126 165 C60.66 165 -4.68 165 -72 165 C-73.92842514 146.35855696 -75.61557638 127.68971892 -77 109 C-8.36 109 60.28 109 131 109 C131.33 103.72 131.66 98.44 132 93 C132.22763614 89.96013382 132.46030118 86.92369673 132.71875 83.88671875 C132.78155151 83.13961136 132.84435303 82.39250397 132.90905762 81.62275696 C133.03918104 80.08314175 133.17023204 78.54360464 133.30224609 77.00415039 C133.50368225 74.64436314 133.69915297 72.2841238 133.89453125 69.92382812 C134.02307874 68.4114278 134.15197138 66.89905676 134.28125 65.38671875 C134.338573 64.6868132 134.395896 63.98690765 134.45495605 63.26579285 C134.71205019 60.32674985 135.06238649 57.81284052 136 55 C46.24 55 -43.52 55 -136 55 C-136.33 56.32 -136.66 57.64 -137 59 C-137 57.35 -137 55.7 -137 54 C-91.79 54 -46.58 54 0 54 C0 36.18 0 18.36 0 0 Z " fill="#F0652A" transform="translate(640,210)"/>
<path d="M0 0 C89.76 0 179.52 0 272 0 C269.60365854 29.95426829 269.60365854 29.95426829 268.9375 37.6875 C268.82051758 39.08838867 268.82051758 39.08838867 268.70117188 40.51757812 C268.62318359 41.42314453 268.54519531 42.32871094 268.46484375 43.26171875 C268.399021 44.03475342 268.33319824 44.80778809 268.26538086 45.60424805 C267.95378242 48.41723375 267.46528057 51.20831661 267 54 C198.36 54 129.72 54 59 54 C59.66 58.62 60.32 63.24 61 68 C61.31374151 70.9293212 61.6099017 73.8434162 61.8515625 76.77734375 C61.94719986 77.88801964 61.94719986 77.88801964 62.04476929 79.02113342 C62.17597478 80.5556738 62.30526957 82.09037879 62.43261719 83.62524414 C62.62684135 85.95963122 62.82863958 88.29328044 63.03125 90.62695312 C63.15929777 92.13537908 63.28691761 93.64384143 63.4140625 95.15234375 C63.47340973 95.83787827 63.53275696 96.52341278 63.59390259 97.22972107 C63.94573436 101.52867179 64 105.66134423 64 110 C87.76 110 111.52 110 136 110 C136 127.82 136 145.64 136 164 C95.74 164 55.48 164 14 164 C12.68 149.15 11.36 134.3 10 119 C9.12875642 109.74739316 8.25620261 100.49551887 7.3616333 91.24523926 C5.49165404 71.87888184 3.64034586 52.51031852 1.88671875 33.13305664 C1.71494389 31.24080916 1.54149641 29.34871262 1.36621094 27.45678711 C1.12726427 24.87264916 0.89475389 22.28801127 0.6640625 19.703125 C0.59563141 18.97575134 0.52720032 18.24837769 0.45669556 17.4989624 C-0.05743249 11.60105668 0 5.99261435 0 0 Z " fill="#EBEAEA" transform="translate(504,265)"/>
<path d="M0 0 C18.15 0 36.3 0 55 0 C55.495 5.589375 55.99 11.17875 56.5 16.9375 C56.65662109 18.68281006 56.81324219 20.42812012 56.97460938 22.22631836 C57.09796479 23.63913325 57.22103021 25.0519735 57.34375 26.46484375 C57.40852539 27.17451294 57.47330078 27.88418213 57.54003906 28.61535645 C57.98164663 33.75955888 58.05339052 38.83669199 58 44 C58.95428894 44.18000549 58.95428894 44.18000549 59.92785645 44.36364746 C66.94872815 45.70047206 73.83959442 47.43454179 80.75 49.25 C81.91781006 49.55502441 83.08562012 49.86004883 84.28881836 50.17431641 C92.05520023 52.20958592 99.81341787 54.27483 107.5625 56.375 C108.4896582 56.62540039 109.41681641 56.87580078 110.37207031 57.13378906 C111.21995117 57.36549805 112.06783203 57.59720703 112.94140625 57.8359375 C113.68076416 58.03751465 114.42012207 58.2390918 115.18188477 58.44677734 C117 59 117 59 119 60 C119 78.81 119 97.62 119 117 C103.19374253 112.82046077 87.41487527 108.59261469 71.68426514 104.13790894 C57.96882752 100.25437589 44.22549824 96.47524188 30.47509766 92.7175293 C29.65348145 92.49251236 28.83186523 92.26749542 27.98535156 92.03565979 C26.46203625 91.61847008 24.93846094 91.2022278 23.41455078 90.78721619 C17.91579945 89.28024004 12.45537351 87.65672163 7 86 C6.23068961 77.59281338 5.46539847 69.18527375 4.7049036 60.77728558 C4.35146003 56.87096167 3.99675558 52.96476175 3.63891602 49.05883789 C3.29207997 45.27246363 2.94888664 41.48577365 2.60796928 37.69886208 C2.47886995 36.27145994 2.34857045 34.84416569 2.21690559 33.41699791 C1.19044241 22.27704212 0.58875236 11.18629492 0 0 Z " fill="#EAEAE9" transform="translate(521,456)"/>
<path d="M0 0 C44.88 0 89.76 0 136 0 C133.60365854 29.95426829 133.60365854 29.95426829 132.9375 37.6875 C132.85951172 38.62142578 132.78152344 39.55535156 132.70117188 40.51757812 C132.62318359 41.42314453 132.54519531 42.32871094 132.46484375 43.26171875 C132.399021 44.03475342 132.33319824 44.80778809 132.26538086 45.60424805 C131.95378242 48.41723375 131.46528057 51.20831661 131 54 C87.77 54 44.54 54 0 54 C0 36.18 0 18.36 0 0 Z " fill="#FEFEFE" transform="translate(640,265)"/>
<path d="M0 0 C4.03814395 -0.14886815 8.07521605 -0.25745089 12.11547852 -0.32958984 C13.4881575 -0.3596733 14.86064563 -0.40055334 16.23266602 -0.45263672 C27.60602088 -0.87341372 27.60602088 -0.87341372 31.01293945 1.26123047 C33.5093663 4.16172138 34.66631435 7.21822934 35 11 C35.66 11 36.32 11 37 11 C38.3671875 12.72265625 38.3671875 12.72265625 39.875 15.0625 C40.4009375 15.8771875 40.926875 16.691875 41.46875 17.53125 C43.39983971 20.64463953 45.22661902 23.79427284 47 27 C47.53109375 26.13117188 48.0621875 25.26234375 48.609375 24.3671875 C49.3228556 23.20308757 50.03640073 22.03902719 50.75 20.875 C51.09804688 20.30523437 51.44609375 19.73546875 51.8046875 19.1484375 C53.53296735 16.33198144 55.29449688 13.55852486 57.12890625 10.80859375 C58.57917198 8.6316813 59.92335495 6.47328064 61.1875 4.1875 C63 1 63 1 64 0 C66.13353174 -0.10003289 68.27037542 -0.13081048 70.40625 -0.1328125 C71.70691406 -0.13410156 73.00757813 -0.13539062 74.34765625 -0.13671875 C75.36883545 -0.13357666 75.36883545 -0.13357666 76.41064453 -0.13037109 C78.49128515 -0.1250224 80.57170989 -0.1303168 82.65234375 -0.13671875 C84.60333984 -0.13478516 84.60333984 -0.13478516 86.59375 -0.1328125 C87.79708984 -0.13168457 89.00042969 -0.13055664 90.24023438 -0.12939453 C93 0 93 0 94 1 C94.09509559 3.61688441 94.12556 6.207289 94.11352539 8.82446289 C94.11367142 9.64390884 94.11381744 10.4633548 94.1139679 11.30763245 C94.11326852 14.02933353 94.10547501 16.75096705 94.09765625 19.47265625 C94.09579216 21.35452741 94.09436821 23.23639906 94.09336853 25.11827087 C94.08954267 30.08148529 94.07971181 35.04467064 94.06866455 40.00787354 C94.0584519 45.06839606 94.05387122 50.12892327 94.04882812 55.18945312 C94.03808959 65.12631694 94.02049225 75.06315151 94 85 C84.43 85 74.86 85 65 85 C64.67 73.12 64.34 61.24 64 49 C58.44839707 56.89144777 58.44839707 56.89144777 53.1875 64.9375 C51.48426179 67.64631134 49.77508897 70.33736654 48 73 C46.13671875 72.734375 46.13671875 72.734375 44 72 C42.83203125 70.390625 42.83203125 70.390625 41.8125 68.25 C39.27349493 63.30729734 36.23427106 58.86973144 33.03442383 54.34277344 C30.07661194 50.15322387 30.07661194 50.15322387 29 48 C28.67 60.21 28.34 72.42 28 85 C18.76 85 9.52 85 0 85 C-1.2026134 81.39215981 -1.13974769 78.10220972 -1.12939453 74.34741211 C-1.13114685 73.56990097 -1.13289917 72.79238983 -1.13470459 71.99131775 C-1.1391078 69.41997042 -1.13619077 66.84869179 -1.1328125 64.27734375 C-1.13348591 62.4928028 -1.13445625 60.70826195 -1.13571167 58.92372131 C-1.13718651 55.1837578 -1.13504067 51.44381816 -1.13037109 47.70385742 C-1.12466981 42.90286582 -1.12795669 38.10193007 -1.13394356 33.30094051 C-1.1375514 29.61645586 -1.13640962 25.93198452 -1.13381577 22.24749947 C-1.13314733 20.4768123 -1.13397202 18.70612393 -1.13629532 16.93543816 C-1.13882593 14.46465714 -1.13497563 11.99396754 -1.12939453 9.52319336 C-1.13141876 8.78703796 -1.13344299 8.05088257 -1.13552856 7.29241943 C-1.11426528 2.22853056 -1.11426528 2.22853056 0 0 Z " fill="#000000" transform="translate(644,52)"/>
<path d="M0 0 C9.24 0 18.48 0 28 0 C29 1 29 1 29.11352539 3.59204102 C29.10828857 4.71795654 29.10305176 5.84387207 29.09765625 7.00390625 C29.09443359 8.21884766 29.09121094 9.43378906 29.08789062 10.68554688 C29.07951172 11.96494141 29.07113281 13.24433594 29.0625 14.5625 C29.05798828 15.84576172 29.05347656 17.12902344 29.04882812 18.45117188 C29.03699555 21.6341342 29.01905944 24.81707274 29 28 C36.26 27.67 43.52 27.34 51 27 C51.33 18.09 51.66 9.18 52 0 C56.11177927 -0.02291394 60.22339658 -0.04283951 64.33520508 -0.05493164 C65.73495228 -0.0599708 67.1346942 -0.06680216 68.53442383 -0.07543945 C70.54245777 -0.0875232 72.55052957 -0.09269807 74.55859375 -0.09765625 C76.37315063 -0.10551147 76.37315063 -0.10551147 78.22436523 -0.11352539 C81 0 81 0 82 1 C82.10039611 3.58100756 82.13617269 6.13527897 82.12939453 8.71679688 C82.13202301 9.92892601 82.13202301 9.92892601 82.13470459 11.1655426 C82.13912376 13.8499666 82.13618489 16.53432528 82.1328125 19.21875 C82.13348552 21.07580579 82.13445553 22.9328615 82.13571167 24.78991699 C82.13718873 28.68726437 82.13503382 32.58458887 82.13037109 36.48193359 C82.1246738 41.489345 82.12795276 46.49670281 82.13394356 51.50411224 C82.13754895 55.34039721 82.13641069 59.17666937 82.13381577 63.01295471 C82.13314644 64.85982774 82.13397513 66.70670192 82.13629532 68.55357361 C82.13882149 71.13014832 82.13498177 73.70663501 82.12939453 76.28320312 C82.13141876 77.0541481 82.13344299 77.82509308 82.13552856 78.61940002 C82.11426255 83.88573745 82.11426255 83.88573745 81 85 C78.9394469 85.09993532 76.8754741 85.13080906 74.8125 85.1328125 C73.55695313 85.13410156 72.30140625 85.13539063 71.0078125 85.13671875 C70.35071289 85.13462402 69.69361328 85.1325293 69.01660156 85.13037109 C67.00838665 85.12502234 65.00039541 85.13031691 62.9921875 85.13671875 C61.73664062 85.13542969 60.48109375 85.13414062 59.1875 85.1328125 C58.02605469 85.13168457 56.86460937 85.13055664 55.66796875 85.12939453 C53 85 53 85 52 84 C51.84193469 82.07521187 51.748865 80.1450079 51.68359375 78.21484375 C51.64169922 77.04501953 51.59980469 75.87519531 51.55664062 74.66992188 C51.51732422 73.43822266 51.47800781 72.20652344 51.4375 70.9375 C51.39431641 69.70193359 51.35113281 68.46636719 51.30664062 67.19335938 C51.20015889 64.12905159 51.09953935 61.06454115 51 58 C43.74 58 36.48 58 29 58 C29 66.91 29 75.82 29 85 C19.43 85 9.86 85 0 85 C0 56.95 0 28.9 0 0 Z " fill="#000000" transform="translate(463,52)"/>
<path d="M0 0 C22.11 0 44.22 0 67 0 C64.70145603 28.73179961 64.70145603 28.73179961 63.9296875 37.50390625 C63.84373322 38.48955063 63.75777893 39.47519501 63.66921997 40.4907074 C63.40532095 43.51471249 63.14019794 46.53860857 62.875 49.5625 C62.69132312 51.66470628 62.50772915 53.76691981 62.32421875 55.86914062 C61.88376033 60.91284377 61.44220776 65.95644994 61 71 C47.26375327 74.71895486 33.52525734 78.42371112 19.73999023 81.95751953 C14.49487625 83.3115032 9.34371335 84.80758555 4.20898438 86.53808594 C1.77017874 87.04805723 0.33714928 86.79015366 -2 86 C-1.34 86 -0.68 86 0 86 C0 57.62 0 29.24 0 0 Z " fill="#F16529" transform="translate(640,429)"/>
<path d="M0 0 C25.41 0 50.82 0 77 0 C77 18.15 77 36.3 77 55 C53.24 55 29.48 55 5 55 C3.03883865 36.69582739 1.35989906 18.3586373 0 0 Z " fill="#E44D26" transform="translate(563,319)"/>
<path d="M0 0 C0.70548981 0.00202423 1.41097961 0.00404846 2.1378479 0.00613403 C3.24756454 0.00350555 3.24756454 0.00350555 4.37969971 0.00082397 C6.83686638 -0.00359453 9.29396168 -0.00065657 11.75112915 0.00271606 C13.45124322 0.00204302 15.1513572 0.001073 16.85147095 -0.00018311 C20.41926996 -0.00166008 23.98704398 0.00049445 27.55484009 0.00515747 C32.13851409 0.01085476 36.72212954 0.00757575 41.30580139 0.00158501 C44.81782476 -0.00202063 48.32983414 -0.00088201 51.84185791 0.0017128 C53.53243008 0.00238206 55.22300351 0.00155367 56.91357422 -0.00076675 C59.27222072 -0.00329332 61.6307711 0.00054735 63.9894104 0.00613403 C64.69490021 0.0041098 65.40039001 0.00208557 66.1272583 0 C70.94936644 0.02126585 70.94936644 0.02126585 72.06362915 1.13552856 C72.16356447 3.19608167 72.19443821 5.26005446 72.19644165 7.32302856 C72.19773071 8.57857544 72.19901978 9.83412231 72.2003479 11.12771606 C72.19825317 11.78481567 72.19615845 12.44191528 72.19400024 13.118927 C72.18865149 15.12714191 72.19394606 17.13513316 72.2003479 19.14334106 C72.19905884 20.39888794 72.19776978 21.65443481 72.19644165 22.94802856 C72.19531372 24.10947388 72.19418579 25.27091919 72.19302368 26.46755981 C72.06362915 29.13552856 72.06362915 29.13552856 71.06362915 30.13552856 C69.35590557 30.22266688 67.64464266 30.24252864 65.9347229 30.23318481 C64.38301392 30.22835083 64.38301392 30.22835083 62.79995728 30.22341919 C61.71134399 30.21504028 60.62273071 30.20666138 59.50112915 30.19802856 C57.86240845 30.19126099 57.86240845 30.19126099 56.19058228 30.18435669 C53.4815442 30.17252683 50.77261316 30.156044 48.06362915 30.13552856 C48.06584976 30.80982407 48.06807037 31.48411957 48.07035828 32.17884827 C48.09240844 39.16985547 48.10753462 46.16085287 48.11856079 53.15188599 C48.12360292 55.76419475 48.1304364 58.37650068 48.1390686 60.98880005 C48.15113951 64.73433125 48.15685851 68.47982528 48.1612854 72.22537231 C48.16644669 73.40139511 48.17160797 74.57741791 48.17692566 75.78907776 C48.17700119 76.87012283 48.17707672 77.95116791 48.17715454 79.06497192 C48.17937515 80.02205551 48.18159576 80.9791391 48.18388367 81.96522522 C48.06362915 84.13552856 48.06362915 84.13552856 47.06362915 85.13552856 C42.97279916 85.54908358 38.85839353 85.65274397 34.75112915 85.82302856 C33.59677368 85.88296997 32.44241821 85.94291138 31.25308228 86.00466919 C30.14255493 86.05171997 29.03202759 86.09877075 27.8878479 86.14724731 C26.86779663 86.19325073 25.84774536 86.23925415 24.79678345 86.28665161 C22.06362915 86.13552856 22.06362915 86.13552856 18.06362915 84.13552856 C18.06362915 66.31552856 18.06362915 48.49552856 18.06362915 30.13552856 C10.47362915 30.13552856 2.88362915 30.13552856 -4.93637085 30.13552856 C-6.7667114 28.30518801 -6.06679882 25.40340865 -6.06918335 22.94802856 C-6.07047241 21.69248169 -6.07176147 20.43693481 -6.0730896 19.14334106 C-6.07099487 18.48624146 -6.06890015 17.82914185 -6.06674194 17.15213013 C-6.06139319 15.14391522 -6.06668776 13.13592397 -6.0730896 11.12771606 C-6.07180054 9.87216919 -6.07051147 8.61662231 -6.06918335 7.32302856 C-6.06749146 5.5808606 -6.06749146 5.5808606 -6.06576538 3.80349731 C-5.84486626 -0.75119258 -4.09749796 0.01807027 0 0 Z " fill="#000000" transform="translate(560.9363708496094,51.864471435546875)"/>
<path d="M0 0 C1.21042969 -0.00128906 2.42085937 -0.00257812 3.66796875 -0.00390625 C4.94285156 -0.00003906 6.21773437 0.00382812 7.53125 0.0078125 C9.44357422 0.00201172 9.44357422 0.00201172 11.39453125 -0.00390625 C13.21017578 -0.00197266 13.21017578 -0.00197266 15.0625 0 C16.18205078 0.00112793 17.30160156 0.00225586 18.45507812 0.00341797 C21.03125 0.1328125 21.03125 0.1328125 22.03125 1.1328125 C22.1248419 2.85146659 22.14869611 4.57396994 22.14477539 6.29516602 C22.14469986 7.39623184 22.14462433 8.49729767 22.14454651 9.63172913 C22.13938522 10.8296257 22.13422394 12.02752228 22.12890625 13.26171875 C22.1274913 14.48108627 22.12607635 15.7004538 22.12461853 16.95677185 C22.11899967 20.8696432 22.10644396 24.78245831 22.09375 28.6953125 C22.08873743 31.34049397 22.0841741 33.98567633 22.08007812 36.63085938 C22.06902411 43.13152976 22.05226764 49.63216711 22.03125 56.1328125 C23.177146 56.12757568 24.32304199 56.12233887 25.50366211 56.11694336 C29.73965682 56.09889533 33.97564812 56.08738122 38.21166992 56.07788086 C40.04793875 56.07284019 41.88420354 56.06600773 43.72045898 56.05737305 C46.35401401 56.04529578 48.98751616 56.03958169 51.62109375 56.03515625 C52.44713608 56.02999496 53.27317841 56.02483368 54.12425232 56.01951599 C56.09361368 56.01932045 58.06286614 56.07077098 60.03125 56.1328125 C66.87067818 62.97224068 61.03125 75.46040041 61.03125 85.1328125 C38.92125 85.1328125 16.81125 85.1328125 -5.96875 85.1328125 C-7.51402242 82.04226767 -7.10720077 78.78551015 -7.09814453 75.39428711 C-7.09989685 74.59580856 -7.10164917 73.79733002 -7.10345459 72.97465515 C-7.10786578 70.32813359 -7.10493796 67.68167852 -7.1015625 65.03515625 C-7.10223568 63.20194994 -7.10320583 61.36874372 -7.10446167 59.53553772 C-7.10593759 55.69124503 -7.10378721 51.84697555 -7.09912109 48.00268555 C-7.09341986 43.06368382 -7.09670597 38.12473639 -7.10269356 33.18573666 C-7.10629859 29.40006599 -7.10516092 25.6144083 -7.10256577 21.82873726 C-7.10189654 20.00698401 -7.10272476 18.1852296 -7.10504532 16.36347771 C-7.10757133 13.82293427 -7.10373219 11.28248011 -7.09814453 8.74194336 C-7.10016876 7.98192017 -7.10219299 7.22189697 -7.10427856 6.43884277 C-7.07734078 -0.13787299 -6.42613725 0.00647423 0 0 Z " fill="#000000" transform="translate(756.96875,51.8671875)"/>
<path d="M0 0 C7.23339501 1.19649169 14.22713072 2.76228875 21.26171875 4.8203125 C22.17838821 5.08383514 23.09505768 5.34735779 24.039505 5.61886597 C26.9236463 6.44922632 29.80558026 7.28696585 32.6875 8.125 C34.66066511 8.69450326 36.63397131 9.26351795 38.60742188 9.83203125 C43.40659448 11.21572162 48.20380445 12.60602714 53 14 C53 14.99 53 15.98 53 17 C52.20384277 16.72029358 52.20384277 16.72029358 51.39160156 16.43493652 C45.57418209 14.43764354 39.72536734 12.85294916 33.75 11.40625 C31.82408092 10.92894121 29.89830351 10.45106049 27.97265625 9.97265625 C24.9673639 9.22961391 21.96127591 8.49061215 18.95263672 7.76123047 C16.0279362 7.05027707 13.10758533 6.32339256 10.1875 5.59375 C9.28032227 5.37803345 8.37314453 5.16231689 7.43847656 4.94006348 C6.60670898 4.72974487 5.77494141 4.51942627 4.91796875 4.30273438 C4.18344482 4.12303101 3.4489209 3.94332764 2.69213867 3.75817871 C2.13373291 3.50797974 1.57532715 3.25778076 1 3 C0.67 2.01 0.34 1.02 0 0 Z " fill="#EF5429" transform="translate(568,646)"/>
<path d="M0 0 C0.61931396 0.16943115 1.23862793 0.3388623 1.87670898 0.51342773 C7.3637079 2.01242489 12.85398431 3.49829106 18.34765625 4.97265625 C20.26859191 5.49280762 22.1895257 6.01296709 24.11010742 6.53442383 C25.42717072 6.89065841 26.74489823 7.2444451 28.06323242 7.59594727 C29.99307197 8.111029 31.92041236 8.635446 33.84765625 9.16015625 C34.98211182 9.46574463 36.11656738 9.77133301 37.28540039 10.08618164 C40 11 40 11 42 13 C33.81127522 12.51900041 26.161456 10.72201243 18.25 8.625 C16.46142578 8.16867187 16.46142578 8.16867187 14.63671875 7.703125 C9.05913831 6.24485257 4.11437957 4.71373295 -1 2 C-0.67 1.34 -0.34 0.68 0 0 Z " fill="#F0552C" transform="translate(463,616)"/>
<path d="M0 0 C-4.08283053 1.10603135 -8.16635701 2.20947252 -12.25 3.3125 C-13.38953125 3.62123047 -14.5290625 3.92996094 -15.703125 4.24804688 C-23.11572062 6.24860535 -30.54427597 8.16666704 -38 10 C-38.33 9.34 -38.66 8.68 -39 8 C-31.34461488 5.62885441 -23.67963091 3.29147046 -16 1 C-15.27312988 0.78279297 -14.54625977 0.56558594 -13.79736328 0.34179688 C-12.1409847 -0.14452738 -10.4771509 -0.60529251 -8.8125 -1.0625 C-7.95269531 -1.30097656 -7.09289062 -1.53945313 -6.20703125 -1.78515625 C-3.51291472 -2.04741538 -2.33487436 -1.27075698 0 0 Z " fill="#ED5329" transform="translate(760,635)"/>
<path d="M0 0 C-0.33 0.66 -0.66 1.32 -1 2 C-3.21928049 2.72466683 -5.47393965 3.34173299 -7.73828125 3.91015625 C-8.415457 4.08252304 -9.09263275 4.25488983 -9.79032898 4.43247986 C-11.96253126 4.98349344 -14.13738724 5.52310276 -16.3125 6.0625 C-17.76776645 6.42959278 -19.22284724 6.79742239 -20.67773438 7.16601562 C-24.44960186 8.11966148 -28.22430303 9.06161958 -32 10 C-32.76594482 10.24290771 -33.53188965 10.48581543 -34.32104492 10.73608398 C-34.8751001 10.82317627 -35.42915527 10.91026855 -36 11 C-36.66 10.34 -37.32 9.68 -38 9 C-28.66666667 6.33333333 -19.33333333 3.66666667 -10 1 C-8.76644775 0.60925293 -7.53289551 0.21850586 -6.26196289 -0.18408203 C-3 -1 -3 -1 0 0 Z " fill="#EE532A" transform="translate(704,649)"/>
<path d="M0 0 C6.46684143 0.59682298 12.31293197 2.12454483 18.5 4.0625 C19.87671875 4.48499023 19.87671875 4.48499023 21.28125 4.91601562 C23.52272203 5.6048013 25.76215031 6.29955305 28 7 C28 7.99 28 8.98 28 10 C21.61819503 8.44970304 15.30999836 6.69402022 9 4.875 C7.55173828 4.45927734 7.55173828 4.45927734 6.07421875 4.03515625 C3.71579396 3.35798478 1.35773328 2.67957442 -1 2 C-0.67 1.34 -0.34 0.68 0 0 Z " fill="#F05428" transform="translate(539,638)"/>
<path d="M0 0 C8.1706591 0.38695289 16.29343623 3.47606973 24 6 C23.67 6.66 23.34 7.32 23 8 C14.45269656 6.67429579 6.27758852 4.48931859 -2 2 C-1.34 1.34 -0.68 0.68 0 0 Z " fill="#F0542E" transform="translate(514,631)"/>
<path d="M0 0 C-4.08483118 2.72322079 -8.27092588 3.51855281 -13 4.6875 C-13.91523437 4.92533203 -14.83046875 5.16316406 -15.7734375 5.40820312 C-16.65257812 5.62798828 -17.53171875 5.84777344 -18.4375 6.07421875 C-19.24058594 6.27619873 -20.04367187 6.47817871 -20.87109375 6.6862793 C-23 7 -23 7 -26 6 C-22.97009024 2.97009024 -19.31202973 2.44048452 -15.25 1.3125 C-14.45078125 1.07466797 -13.6515625 0.83683594 -12.828125 0.59179688 C-8.18839368 -0.70931199 -4.7831505 -1.27293521 0 0 Z " fill="#EE5129" transform="translate(808,621)"/>
<path d="M0 0 C3.63 0.66 7.26 1.32 11 2 C11.33 2.99 11.66 3.98 12 5 C7.6822542 4.49202991 3.96697886 3.80317221 0 2 C0 1.34 0 0.68 0 0 Z " fill="#EE532B" transform="translate(622,661)"/>
<path d="M0 0 C2.97 0.99 5.94 1.98 9 3 C8.01 3.66 7.02 4.32 6 5 C3.95703125 4.5390625 3.95703125 4.5390625 1.8125 3.625 C1.09707031 3.32851563 0.38164062 3.03203125 -0.35546875 2.7265625 C-0.89816406 2.48679687 -1.44085938 2.24703125 -2 2 C-1.34 1.34 -0.68 0.68 0 0 Z " fill="#F24A27" transform="translate(505,628)"/>
<path d="M0 0 C-0.33 0.66 -0.66 1.32 -1 2 C-3.64860427 2.59355614 -6.29197322 2.74209269 -9 3 C-9.33 2.34 -9.66 1.68 -10 1 C-3.375 -1.125 -3.375 -1.125 0 0 Z " fill="#ED532A" transform="translate(658,662)"/>
</svg>
