<?xml version="1.0" encoding="UTF-8"?>
<svg version="1.1" xmlns="http://www.w3.org/2000/svg" width="2400" height="1350">
<path d="M0 0 C792 0 1584 0 2400 0 C2400 445.5 2400 891 2400 1350 C1608 1350 816 1350 0 1350 C0 904.5 0 459 0 0 Z " fill="#B22C0B" transform="translate(0,0)"/>
<path d="M0 0 C268.62 0 537.24 0 814 0 C814 13.49949779 814 13.49949779 813.4050293 19.89111328 C813.34157318 20.58927658 813.27811707 21.28743988 813.21273804 22.00675964 C813.00501456 24.27844933 812.78965932 26.54934289 812.57421875 28.8203125 C812.42396741 30.4480235 812.27422431 32.07578148 812.12495422 33.70358276 C811.73138743 37.98165462 811.33143665 42.25910479 810.92993164 46.53643799 C810.53379743 50.76615799 810.14290215 54.9963606 809.75195312 59.2265625 C809.59729593 60.89940999 809.44262777 62.57225647 809.28794861 64.24510193 C809.21153578 65.07157164 809.13512295 65.89804134 809.05639458 66.74955559 C808.82321282 69.26867978 808.58930303 71.78773551 808.35523987 74.30677795 C807.23972517 86.32400426 806.16439804 98.34437489 805.11047363 110.36714172 C804.98829779 111.76071312 804.86610539 113.15428307 804.74389648 114.54785156 C804.65305062 115.58380227 804.65305062 115.58380227 804.56036949 116.64068127 C803.84830284 124.74725258 803.11763906 132.85214195 802.38671875 140.95703125 C802.24845846 142.49118455 802.11020879 144.02533881 801.9719696 145.55949402 C801.76108443 147.89966607 801.5501872 150.23983702 801.33925343 152.58000469 C799.30425841 175.1577203 797.27318594 197.73566169 795.31640625 220.3203125 C795.21593019 221.4794708 795.21593019 221.4794708 795.1134243 222.66204643 C794.47760864 229.99981934 793.8438438 237.3377633 793.21526527 244.67615986 C791.90711435 259.93725675 790.53043583 275.18891878 789.02008057 290.43125916 C788.0625073 300.13547373 787.25779321 309.84662177 786.52734375 319.5703125 C786.09797165 325.04412308 785.57779717 330.50759204 785.05078125 335.97265625 C784.37965245 342.93349479 783.73511221 349.89546507 783.140625 356.86328125 C783.06980713 357.69290375 782.99898926 358.52252625 782.92602539 359.37728882 C782.77810833 361.11286409 782.63031453 362.84844987 782.4826355 364.58404541 C780.80662841 384.24101642 778.99398138 403.88402502 777.13618469 423.52446365 C775.39358917 441.94754995 773.66585567 460.36877114 772.18334961 478.81494141 C771.37950197 488.73883144 770.4975684 498.65508079 769.59375 508.5703125 C769.52935226 509.27692898 769.46495453 509.98354546 769.39860535 510.71157455 C768.74603312 517.86739665 768.09037752 525.02293125 767.43068695 532.17810059 C766.0777455 546.86120324 764.77264287 561.54657955 763.5625 576.2421875 C761.88813301 596.57331464 760.07647966 616.89180835 758.26037598 637.21069336 C757.74047677 643.02976216 757.22195768 648.84895407 756.703269 654.66813087 C756.279905 659.41772761 755.85635035 664.1673071 755.43226624 668.9168396 C754.6777066 677.37067123 753.92554754 685.82468679 753.18530273 694.27978516 C751.66948929 711.58782851 750.08322855 728.88784588 748.43707275 746.18408203 C745.75147431 774.43953591 743.26940875 802.70776598 741 831 C737.06677492 832.7416894 733.31427008 834.32620995 729.12890625 835.359375 C728.23751953 835.58431641 727.34613281 835.80925781 726.42773438 836.04101562 C725.48220703 836.27498047 724.53667969 836.50894531 723.5625 836.75 C715.32303298 838.8402951 707.14854615 841.07965958 699 843.5 C690.16889216 846.11813843 681.30231108 848.51558672 672.37866211 850.79638672 C665.21488295 852.64299497 658.14234909 854.72188854 651.06982422 856.88867188 C645.39371799 858.61553863 639.69624275 860.13562903 633.93139648 861.53393555 C626.6665928 863.302084 619.47868797 865.33325023 612.28222656 867.35888672 C608.52390951 868.414657 604.76179211 869.45669367 601 870.5 C599.49998134 870.91659949 597.99998135 871.33326619 596.5 871.75 C587.5 874.25 587.5 874.25 585.24975586 874.875 C583.75052301 875.29149876 582.25133675 875.7081653 580.75219727 876.125 C576.99082511 877.1706198 573.22867541 878.21326565 569.46484375 879.25 C562.22640834 881.24710579 555.00614913 883.28437467 547.8125 885.4375 C540.16938419 887.72089435 532.46142449 889.71322446 524.73535156 891.69458008 C517.44971538 893.57998295 510.25262457 895.68737188 503.05834961 897.89257812 C498.14760658 899.38713077 493.23927344 900.73000334 488.25 901.9375 C481.58168222 903.55264029 475.01572303 905.42647919 468.4375 907.375 C459.46592706 910.03161706 450.46262142 912.48051608 441.39575195 914.78930664 C434.1023147 916.66418574 426.8988771 918.77330931 419.73144531 921.08422852 C409.53826605 924.27912185 402.65152054 924.12564124 392.4375 920.8125 C390.29890268 920.15259183 388.159577 919.49503951 386.01953125 918.83984375 C384.46999756 918.3600708 384.46999756 918.3600708 382.88916016 917.87060547 C379.15729231 916.74606256 375.41320489 915.7925451 371.625 914.875 C363.7915672 912.97328852 356.04050173 910.82488728 348.28222656 908.64111328 C344.52390906 907.58534288 340.7617632 906.54341176 337 905.5 C335.50129511 905.08335841 334.0025972 904.66669173 332.50390625 904.25 C329.49184981 903.41313604 326.47875159 902.58017044 323.46484375 901.75 C316.22640834 899.75289421 309.00614913 897.71562533 301.8125 895.5625 C294.16938419 893.27910565 286.46142449 891.28677554 278.73535156 889.30541992 C272.2963833 887.63912079 265.92146872 885.82334804 259.5625 883.875 C253.05589692 881.88150385 246.54429087 880.07007137 239.93139648 878.46606445 C232.6665928 876.697916 225.47868797 874.66674977 218.28222656 872.64111328 C214.52390897 871.58534285 210.76175712 870.54343393 207 869.5 C205.49218279 869.08074612 203.98437028 868.6614753 202.4765625 868.2421875 C199.55583728 867.43066393 196.63394581 866.62357176 193.7109375 865.8203125 C185.07362431 863.44148264 176.46878333 860.9693453 167.875 858.4375 C160.02485645 856.12762617 152.17580692 854.01048482 144.22265625 852.0859375 C137.87372313 850.49831737 131.61851282 848.5668992 125.34472656 846.70922852 C118.34480398 844.64974988 111.31914421 842.74401914 104.25 840.9375 C93.74042471 838.25081443 83.36336515 835.20095178 73 832 C72.93941406 830.90300781 72.87882813 829.80601562 72.81640625 828.67578125 C72.73195502 827.22134346 72.64730934 825.76691695 72.5625 824.3125 C72.52318359 823.59126953 72.48386719 822.87003906 72.44335938 822.12695312 C72.40146484 821.42119141 72.35957031 820.71542969 72.31640625 819.98828125 C72.27974854 819.34415283 72.24309082 818.70002441 72.20532227 818.03637695 C72.03101936 815.94398355 72.03101936 815.94398355 71.51539612 813.69979858 C71.00726124 811.03803653 70.74039326 808.46865828 70.54833984 805.7668457 C70.47362457 804.74842087 70.3989093 803.72999603 70.32192993 802.68070984 C70.24405243 801.5859584 70.16617493 800.49120697 70.0859375 799.36328125 C69.06861173 785.62481434 67.86677566 771.90722439 66.625 758.1875 C66.40273536 755.71795222 66.18065225 753.24838809 65.95874023 750.77880859 C65.62283838 747.04113041 65.28680547 743.30346453 64.95011902 739.56585693 C64.29315345 732.27226067 63.64094661 724.97827077 62.99609375 717.68359375 C62.91830185 716.80383377 62.84050995 715.92407379 62.76036072 715.01765442 C62.60509401 713.26147536 62.44983577 711.50529556 62.29458618 709.74911499 C61.05670733 695.75286397 59.7991433 681.75847628 58.5234375 667.765625 C58.42656898 666.70305292 58.42656898 666.70305292 58.32774353 665.61901474 C57.99742545 661.99606352 57.66700167 658.37312195 57.33654785 654.75018311 C57.20352983 653.29178893 57.07051388 651.83339456 56.9375 650.375 C56.87185349 649.65524239 56.80620697 648.93548477 56.73857117 648.19391632 C53.71521201 615.03951355 53.71521201 615.03951355 52.3125 598.5 C52.25551941 597.82855957 52.19853882 597.15711914 52.13983154 596.46533203 C51.86671852 593.24419049 51.5943878 590.02298319 51.32226562 586.80175781 C50.74502105 579.99202109 50.15841016 573.18312865 49.5625 566.375 C49.50196442 565.68323669 49.44142883 564.99147339 49.37905884 564.27874756 C48.41089629 553.26011288 47.34878701 542.25191878 46.25924683 531.24468994 C44.30634582 511.51061957 42.58917855 491.76633642 41 472 C37.52356704 427.97193297 37.52356704 427.97193297 33.25390625 384.015625 C33.00223548 381.67712298 32.75093399 379.33858119 32.5 377 C32.37761963 375.85950195 32.25523926 374.71900391 32.12915039 373.54394531 C30.80354316 360.78116278 29.89831233 347.98650955 29.00195312 335.1875 C28.94226349 334.34964966 28.88257385 333.51179932 28.82107544 332.64855957 C28.70921263 331.07413551 28.60005292 329.49951611 28.49411011 327.92468262 C28.22917038 324.20483789 27.77676908 320.64453375 27 317 C26.87597184 315.6587058 26.78105739 314.31432457 26.71875 312.96875 C26.68136719 312.24042969 26.64398437 311.51210938 26.60546875 310.76171875 C26.5 308.5 26.5 308.5 26.39453125 306.23828125 C26.35714844 305.50996094 26.31976562 304.78164063 26.28125 304.03125 C26.25095703 303.37705078 26.22066406 302.72285156 26.18945312 302.04882812 C26.03825301 299.96508149 26.03825301 299.96508149 25.52868652 297.82029724 C24.90438671 294.48994746 24.62165048 291.20446142 24.3515625 287.82641602 C24.29450134 287.12331299 24.23744019 286.42020996 24.1786499 285.69580078 C24.05567679 284.17578555 23.93406027 282.65566008 23.81365967 281.13543892 C23.62280589 278.72620908 23.42831966 276.31729635 23.23291016 273.90843201 C22.81865438 268.79338318 22.40912182 263.67796163 22 258.5625 C21.5256631 252.63606912 21.04937656 246.70980441 20.56903076 240.78385735 C20.3780396 238.41658111 20.19016328 236.04907121 20.00244141 233.68153381 C19.88458504 232.22200367 19.76659097 230.76248464 19.6484375 229.30297852 C19.49640869 227.40032982 19.49640869 227.40032982 19.34130859 225.45924377 C19.02655968 222.26918863 18.55426024 219.15576048 18 216 C17.82156563 214.20400143 17.66699092 212.405488 17.53515625 210.60546875 C17.45837646 209.57897217 17.38159668 208.55247559 17.30249023 207.49487305 C17.22329346 206.40343994 17.14409668 205.31200684 17.0625 204.1875 C16.8882839 201.86456359 16.71379727 199.54164745 16.5390625 197.21875 C16.40612793 195.43597656 16.40612793 195.43597656 16.27050781 193.6171875 C15.83596215 187.80651191 15.39090977 181.99673207 14.9375 176.1875 C14.81870483 174.61488403 14.81870483 174.61488403 14.69750977 173.01049805 C14.62072998 172.03121338 14.5439502 171.05192871 14.46484375 170.04296875 C14.399021 169.18727295 14.33319824 168.33157715 14.26538086 167.44995117 C14.04014542 165.0015056 14.04014542 165.0015056 13.50820923 162.63275146 C13.03978936 160.20612672 12.77368618 157.88894529 12.60327148 155.42602539 C12.53672867 154.50567001 12.47018585 153.58531464 12.40162659 152.6370697 C12.32967575 151.61343826 12.25772491 150.58980682 12.18359375 149.53515625 C11.27239459 137.18009022 10.23336704 124.83804222 9.16015625 112.49609375 C9.0762904 111.53095478 8.99242455 110.56581581 8.9060173 109.57143021 C8.38193135 103.54432895 7.85574004 97.51741289 7.32904053 91.49053955 C6.97561935 87.44234149 6.62363104 83.39401942 6.27167702 79.34569359 C5.83939771 74.37493019 5.40605009 69.40426008 4.97265625 64.43359375 C4.88847065 63.46691143 4.80428505 62.50022911 4.71754837 61.50425339 C3.86202512 51.68815814 2.99598267 41.87342576 2.07763672 32.06298828 C2.00606952 31.29439641 1.93450232 30.52580454 1.86076641 29.733922 C1.53239222 26.20883743 1.20036446 22.6841986 0.85987854 19.16026306 C0.68838539 17.33115135 0.68838539 17.33115135 0.51342773 15.46508789 C0.41360092 14.4252626 0.31377411 13.38543732 0.21092224 12.31410217 C-0.0498275 8.21708854 0 4.10530281 0 0 Z " fill="#E34D26" transform="translate(793,326)"/>
<path d="M0 0 C168.63 0 337.26 0 511 0 C509.84999152 20.70015272 509.84999152 20.70015272 508.9140625 30.515625 C508.81161224 31.61759216 508.70916199 32.71955933 508.60360718 33.85491943 C508.28052774 37.32024691 507.95275963 40.78511246 507.625 44.25 C507.41377811 46.5155985 507.20283962 48.78122345 506.9921875 51.046875 C505.40156233 68.03940729 503.69827746 85.01722536 502 102 C373.3 102 244.6 102 112 102 C112.99 109.92 112.99 109.92 114 118 C114.31077144 121.01243542 114.61042517 124.01711193 114.86962891 127.03320312 C114.93819595 127.80297485 115.006763 128.57274658 115.07740784 129.36584473 C115.29674569 131.83739659 115.5118666 134.30929095 115.7265625 136.78125 C115.88048795 138.53285079 116.03457448 140.28443743 116.18881226 142.03601074 C116.50836555 145.67292763 116.82576054 149.31002454 117.14160156 152.94726562 C117.54512721 157.59185303 117.9545291 162.23590131 118.36556435 166.87982941 C118.68375023 170.48281467 118.99865611 174.08608099 119.312603 177.68943787 C119.46225802 179.40222848 119.61295787 181.11492817 119.76475906 182.82752991 C119.9762527 185.21872551 120.18326138 187.61027012 120.38916016 190.00195312 C120.48262978 191.04319336 120.48262978 191.04319336 120.57798767 192.10546875 C120.97474792 196.7879745 121 201.26257478 121 206 C243.43 206 365.86 206 492 206 C492 216.12461591 492 216.12461591 491.54443359 221.10888672 C491.3929335 222.79963318 491.3929335 222.79963318 491.2383728 224.52453613 C491.12619415 225.73073608 491.0140155 226.93693604 490.8984375 228.1796875 C490.71917465 230.16176726 490.53991185 232.14384703 490.36065102 234.12592697 C490.16840062 236.2428472 489.97414972 238.35957513 489.77929688 240.47625732 C489.36696699 244.95596763 488.96041085 249.43619108 488.5546875 253.91650391 C487.98727018 260.17758465 487.41768449 266.43846423 486.84667969 272.69921875 C485.61272925 286.23436198 484.39789944 299.77121736 483.18522644 313.30828094 C482.99854935 315.39118606 482.8116258 317.47406893 482.62463379 319.5569458 C481.25041536 334.86674557 479.89117181 350.17768479 478.5703125 365.4921875 C478.51115095 366.17783594 478.4519894 366.86348438 478.39103508 367.56991005 C478.08987174 371.06044175 477.78886341 374.55098681 477.48788452 378.04153442 C477.427962 378.73642597 477.36803947 379.43131752 477.30630112 380.14726639 C477.18580585 381.54477265 477.06534513 382.94228189 476.94491959 384.33979416 C474.38086434 414.08629963 471.65226462 443.81724749 468.88744068 473.54571056 C468.54951373 477.18111661 468.21261228 480.81661736 467.87580681 484.45212746 C467.64496291 486.9385459 467.41244251 489.4248035 467.17982483 491.91105652 C466.34069762 500.9348207 465.59979226 509.95656342 465 519 C458.59206982 521.50977265 452.10992182 523.52909747 445.5 525.4375 C444.43555664 525.74679443 443.37111328 526.05608887 442.27441406 526.37475586 C435.21081375 528.40994902 428.12925345 530.24573023 420.984375 531.97265625 C415.40279078 533.36805231 409.92078882 535.1061236 404.42089844 536.78930664 C398.03075249 538.73000401 391.61660044 540.36695151 385.125 541.9375 C380.36707938 543.12698016 375.68858513 544.56500879 371 546 C364.38563455 548.0243967 357.78048964 549.85150701 351.05395508 551.4675293 C345.87152966 552.73346038 340.78541937 554.24328399 335.6875 555.8125 C326.53300522 558.62485263 317.29456361 561.02476922 308.01513672 563.38720703 C300.24198439 565.38040786 292.55876777 567.57407706 284.88964844 569.93261719 C277.32426506 572.2452209 269.69124941 574.15275669 262 576 C261.37480469 576.21285645 260.74960938 576.42571289 260.10546875 576.64501953 C254.24030527 578.52088071 250.20622363 577.36331283 244.5 575.375 C242.72755238 574.7990282 240.95409815 574.22614552 239.1796875 573.65625 C238.30538086 573.37136719 237.43107422 573.08648438 236.53027344 572.79296875 C232.93012013 571.66470766 229.29342888 570.75061634 225.625 569.875 C219.5883047 568.41330328 213.61740361 566.78582973 207.65234375 565.0546875 C203.67129068 563.90507859 199.68115966 562.79230885 195.6875 561.6875 C188.28795779 559.63816044 180.89315316 557.57226833 173.5 555.5 C166.33548775 553.49217617 159.17004041 551.48799642 152 549.5 C143.74188271 547.21031868 135.49004227 544.89840706 127.23828125 542.5859375 C121.16085055 540.88336861 115.08196112 539.18631085 109 537.5 C100.7528398 535.21335669 92.51175666 532.90518667 84.27124023 530.59472656 C78.63250654 529.01444451 72.99183235 527.44168181 67.34741211 525.88183594 C47.35282824 520.35282824 47.35282824 520.35282824 46 519 C45.76703728 517.23002554 45.60027102 515.45135908 45.45703125 513.671875 C45.35592041 512.45258301 45.25480957 511.23329102 45.15063477 509.97705078 C45.09626251 509.29676819 45.04189026 508.6164856 44.98587036 507.91558838 C44.74162927 504.86474584 44.48666034 501.81482306 44.23240662 498.76480103 C44.08379841 496.98194183 43.93568083 495.1990417 43.78797913 493.41610718 C42.65202802 479.73719917 41.45104563 466.06379971 40.25972748 452.38962555 C39.99650076 449.36717673 39.73367782 446.34469285 39.47083855 443.32221031 C37.025943 415.21077812 34.5546991 387.10169005 32 359 C65.99 359 99.98 359 135 359 C135.969375 369.003125 136.93875 379.00625 137.9375 389.3125 C138.24163818 392.42856689 138.54577637 395.54463379 138.85913086 398.75512695 C140.21805322 412.82507249 141.47800489 426.86942036 142 441 C142.58714783 441.12932922 143.17429565 441.25865845 143.77923584 441.39190674 C158.79203267 444.71104289 173.67116888 448.54094926 188.43701172 452.82373047 C199.16233341 455.93114224 209.96781495 458.71025381 220.7835083 461.48400879 C223.59100771 462.20420877 226.39817458 462.92570166 229.2053833 463.64703369 C231.27495435 464.1778697 233.34520514 464.7059891 235.41552734 465.23388672 C236.710636 465.56598708 238.00572163 465.89817723 239.30078125 466.23046875 C240.44716064 466.52332764 241.59354004 466.81618652 242.7746582 467.11791992 C244.93078831 467.70758748 247.0690419 468.36681444 249.18334961 469.09228516 C256.42495779 471.42602003 262.75593134 469.48960107 269.75 467.3125 C271.61894246 466.75366248 273.4887586 466.19773968 275.359375 465.64453125 C276.77186523 465.2261499 276.77186523 465.2261499 278.21289062 464.79931641 C282.44788028 463.58476173 286.71871002 462.53710118 291 461.5 C297.88269813 459.82137585 304.69776043 457.97938138 311.5 456 C319.11185308 453.78502946 326.74961528 451.77769992 334.4519043 449.90332031 C341.67324061 448.1274764 348.81032964 446.09428169 355.93554688 443.96679688 C356.75732422 443.72509766 357.57910156 443.48339844 358.42578125 443.234375 C359.14161377 443.02006836 359.85744629 442.80576172 360.5949707 442.58496094 C363.70286676 441.82904591 366.83339044 441.43811076 370 441 C369.98345871 440.10983688 369.96691742 439.21967377 369.94987488 438.30253601 C369.84914951 428.57601304 370.46672683 419.06799772 371.42578125 409.39453125 C371.57621493 407.82075871 371.72595214 406.24691946 371.87504578 404.67301941 C372.26731682 400.5485012 372.66757623 396.42480137 373.07006836 392.30126953 C373.70269786 385.80678301 374.32354023 379.31115324 374.94424057 372.81551743 C375.09841479 371.20347394 375.25296761 369.59146662 375.40790176 367.979496 C376.73665326 354.14291069 377.92805924 340.29732625 379.03303528 326.44111633 C379.09104876 325.72262072 379.14906223 325.0041251 379.20883369 324.26385689 C379.36419311 322.33719458 379.51699974 320.4103269 379.66960144 318.48344421 C380.00221236 314.97667469 380.50184214 311.487105 381 308 C264.51 308 148.02 308 28 308 C24.55255689 275.82386435 24.55255689 275.82386435 23.65307617 265.98266602 C23.54511121 264.82003959 23.43714624 263.65741316 23.32590961 262.45955563 C22.97960262 258.72452035 22.63619011 254.98922622 22.29296875 251.25390625 C22.04469106 248.5673295 21.79627512 245.88076581 21.54772949 243.19421387 C20.95963669 236.8328655 20.3739718 230.47129599 19.78937519 224.10962546 C19.31759055 218.97590894 18.84479835 213.84228601 18.37149048 208.70870972 C15.16545692 173.92955418 11.997075 139.14810707 9.02954102 104.34765625 C7.77757328 89.70482466 6.46221446 75.06946847 5.08984375 60.4375 C5.00794737 59.56386747 4.92605099 58.69023495 4.8416729 57.79012871 C4.03780072 49.22024294 3.22965808 40.65077672 2.41217518 32.08217812 C2.11606954 28.97424186 1.8220173 25.86611326 1.52830696 22.75794983 C1.32569649 20.62313492 1.11997794 18.48863453 0.91416931 16.35412598 C0.79312332 15.072677 0.67207733 13.79122803 0.54736328 12.47094727 C0.44110626 11.36002213 0.33484924 10.24909698 0.22537231 9.10450745 C0.00556876 6.07670982 0 3.03576548 0 0 Z " fill="#FEFEFE" transform="translate(944,496)"/>
<path d="M0 0 C109.89 0 219.78 0 333 0 C330.6822407 30.13087091 330.6822407 30.13087091 329.37698364 44.91621399 C329.28094975 46.00580225 329.18491585 47.09539051 329.08597183 48.2179966 C328.93706812 49.90639688 328.93706812 49.90639688 328.78515625 51.62890625 C328.57201163 54.05660808 328.35895062 56.48431725 328.14596558 58.91203308 C327.57357898 65.43034663 326.99907766 71.94847236 326.42387009 78.46653748 C326.11900918 81.9212902 325.81457323 85.37608023 325.51027626 88.83088267 C321.94253737 129.33656944 318.30834424 169.83580577 314.61060333 210.32985306 C309.82732623 262.71464795 305.12483452 315.10654054 300.4375 367.5 C300.34299907 368.55629278 300.24849813 369.61258555 300.15113354 370.7008872 C298.50539755 389.09656608 296.85992822 407.49226884 295.21493149 425.88801384 C292.4450737 456.86283211 289.67064932 487.83723773 286.89190549 518.8112601 C286.160493 526.96419464 285.42927511 535.11714661 284.69819641 543.27011108 C284.54505591 544.97791132 284.54505591 544.97791132 284.38882166 546.72021258 C283.97989164 551.28057783 283.57096754 555.8409436 283.16206324 560.40131116 C281.97611238 573.62774258 280.78956 586.85411967 279.60196567 600.08040363 C278.86022393 608.34193624 278.11932807 616.60354447 277.37904954 624.86520833 C276.95424834 629.60576663 276.52909781 634.34629282 276.10289383 639.08672523 C273.97857803 662.71733196 271.93821751 686.35337039 270 710 C268.1657997 710.54846963 266.33158333 711.09688555 264.49736023 711.64527893 C262.96521897 712.10338628 262.96521897 712.10338628 261.40212536 712.57074833 C239.82187429 719.01592776 218.15467925 725.13926989 196.375 730.875 C184.03899669 734.12404266 171.79160264 737.63839411 159.54763794 741.21670532 C147.79825373 744.64762227 136.0212371 747.90625742 124.18212891 751.01611328 C113.97117909 753.71038528 103.81972947 756.58883796 93.67175293 759.50900269 C82.31855821 762.77570604 70.9490469 765.97652618 59.5625 769.125 C47.38790065 772.49220532 35.22913385 775.90728432 23.09008789 779.40087891 C20.06134679 780.27185574 17.03127233 781.13787656 14 782 C12.97406738 782.29277832 11.94813477 782.58555664 10.89111328 782.88720703 C9.90739746 783.16290527 8.92368164 783.43860352 7.91015625 783.72265625 C7.03625244 783.96894775 6.16234863 784.21523926 5.26196289 784.46899414 C3 785 3 785 0 785 C0 750.02 0 715.04 0 679 C19.17070038 673.36155871 19.17070038 673.36155871 28.75 670.9375 C35.74514638 669.14056069 42.66607801 667.23768699 49.55078125 665.05078125 C55.02752071 663.38232948 60.55773714 661.91471243 66.08447266 660.421875 C73.21544574 658.49374237 80.32837323 656.50703595 87.4375 654.5 C96.65588607 651.90071268 105.90409142 649.44564991 115.17944336 647.05859375 C120.99071408 645.55329811 126.71798024 643.88787865 132.4375 642.0625 C138.43563313 640.2735831 144.50879553 638.76873194 150.5703125 637.2109375 C155.58630121 635.91437645 160.56276071 634.57571467 165.5 633 C172.37162682 630.80692761 179.35113838 629.04933407 186.34179688 627.28125 C191.56042664 625.94852567 196.72017609 624.49778685 201.86523438 622.90234375 C203.01906616 622.54519287 204.17289795 622.18804199 205.36169434 621.82006836 C206.23233521 621.5494458 207.10297607 621.27882324 208 621 C208.07659348 620.10291824 208.15318695 619.20583649 208.23210144 618.28157043 C214.78205768 541.61107441 214.78205768 541.61107441 217.625 511.9375 C217.77418884 510.37973343 217.77418884 510.37973343 217.9263916 508.79049683 C218.02577026 507.75289215 218.12514893 506.71528748 218.22753906 505.64624023 C219.68756051 490.39402572 221.08201431 475.13685892 222.4375 459.875 C222.53919495 458.7301413 222.64088989 457.58528259 222.7456665 456.4057312 C223.16510599 451.6815159 223.58422684 446.95727251 224.00286865 442.23298645 C224.82122661 433.00123655 225.64548705 423.77002612 226.47265625 414.5390625 C226.53592039 413.83302761 226.59918453 413.12699272 226.66436577 412.39956284 C227.04807547 408.11769582 227.43193639 403.83584237 227.81584549 399.55399323 C230.55192809 369.03671121 233.27515268 338.51829002 236 308 C113.57 308 -8.86 308 -135 308 C-139.66153536 260.21926257 -139.66153536 260.21926257 -141.43798828 239.40136719 C-141.76120798 235.61883677 -142.08944729 231.83676082 -142.41796875 228.0546875 C-142.62789079 225.61460797 -142.83753823 223.17450481 -143.046875 220.734375 C-143.14369568 219.62012146 -143.24051636 218.50586792 -143.340271 217.35784912 C-143.42746399 216.32935852 -143.51465698 215.30086792 -143.60449219 214.24121094 C-143.68125183 213.34561462 -143.75801147 212.45001831 -143.83709717 211.52728271 C-143.99853047 209.02279838 -144 206.50968175 -144 204 C-15.3 204 113.4 204 246 204 C246 200.37 246 196.74 246 193 C246.21022747 190.17839082 246.4515475 187.39713613 246.76953125 184.58984375 C246.8502034 183.83177429 246.93087555 183.07370483 247.01399231 182.29266357 C247.18633447 180.6762484 247.36109833 179.06008979 247.53814697 177.44418335 C248.01081061 173.12559396 248.46432247 168.8049972 248.91796875 164.484375 C249.01033813 163.60742477 249.10270752 162.73047455 249.19787598 161.82695007 C250.2456555 151.79346571 251.117345 141.74559632 251.96020508 131.69311523 C252.80412791 121.7646482 253.89840124 111.91438884 255 102 C170.85 102 86.7 102 0 102 C0 68.34 0 34.68 0 0 Z " fill="#F06529" transform="translate(1200,394)"/>
<path d="M0 0 C168.63 0 337.26 0 511 0 C509.84999152 20.70015272 509.84999152 20.70015272 508.9140625 30.515625 C508.81161224 31.61759216 508.70916199 32.71955933 508.60360718 33.85491943 C508.28052774 37.32024691 507.95275963 40.78511246 507.625 44.25 C507.41377811 46.5155985 507.20283962 48.78122345 506.9921875 51.046875 C505.40156233 68.03940729 503.69827746 85.01722536 502 102 C373.3 102 244.6 102 112 102 C112.99 109.92 112.99 109.92 114 118 C114.31077144 121.01243542 114.61042517 124.01711193 114.86962891 127.03320312 C114.93819595 127.80297485 115.006763 128.57274658 115.07740784 129.36584473 C115.29674569 131.83739659 115.5118666 134.30929095 115.7265625 136.78125 C115.88048795 138.53285079 116.03457448 140.28443743 116.18881226 142.03601074 C116.50836555 145.67292763 116.82576054 149.31002454 117.14160156 152.94726562 C117.54512721 157.59185303 117.9545291 162.23590131 118.36556435 166.87982941 C118.68375023 170.48281467 118.99865611 174.08608099 119.312603 177.68943787 C119.46225802 179.40222848 119.61295787 181.11492817 119.76475906 182.82752991 C119.9762527 185.21872551 120.18326138 187.61027012 120.38916016 190.00195312 C120.48262978 191.04319336 120.48262978 191.04319336 120.57798767 192.10546875 C120.97474792 196.7879745 121 201.26257478 121 206 C243.43 206 365.86 206 492 206 C492 206.33 492 206.66 492 207 C414.12 207 336.24 207 256 207 C256 240.33 256 273.66 256 308 C180.76 308 105.52 308 28 308 C24.55255689 275.82386435 24.55255689 275.82386435 23.65307617 265.98266602 C23.54511121 264.82003959 23.43714624 263.65741316 23.32590961 262.45955563 C22.97960262 258.72452035 22.63619011 254.98922622 22.29296875 251.25390625 C22.04469106 248.5673295 21.79627512 245.88076581 21.54772949 243.19421387 C20.95963669 236.8328655 20.3739718 230.47129599 19.78937519 224.10962546 C19.31759055 218.97590894 18.84479835 213.84228601 18.37149048 208.70870972 C15.16545692 173.92955418 11.997075 139.14810707 9.02954102 104.34765625 C7.77757328 89.70482466 6.46221446 75.06946847 5.08984375 60.4375 C5.00794737 59.56386747 4.92605099 58.69023495 4.8416729 57.79012871 C4.03780072 49.22024294 3.22965808 40.65077672 2.41217518 32.08217812 C2.11606954 28.97424186 1.8220173 25.86611326 1.52830696 22.75794983 C1.32569649 20.62313492 1.11997794 18.48863453 0.91416931 16.35412598 C0.79312332 15.072677 0.67207733 13.79122803 0.54736328 12.47094727 C0.44110626 11.36002213 0.33484924 10.24909698 0.22537231 9.10450745 C0.00556876 6.07670982 0 3.03576548 0 0 Z " fill="#EBEAEA" transform="translate(944,496)"/>
<path d="M0 0 C33.99 0 67.98 0 103 0 C103.969375 10.003125 104.93875 20.00625 105.9375 30.3125 C106.24163818 33.42856689 106.54577637 36.54463379 106.85913086 39.75512695 C108.21805322 53.82507249 109.47800489 67.86942036 110 82 C110.58714783 82.12932922 111.17429565 82.25865845 111.77923584 82.39190674 C126.79203267 85.71104289 141.67116888 89.54094926 156.43701172 93.82373047 C165.25077923 96.37731401 174.1149023 98.70878157 183 101 C184.21204102 101.31259766 185.42408203 101.62519531 186.67285156 101.94726562 C188.01367027 102.29297497 189.35449063 102.63867791 190.6953125 102.984375 C191.37641083 103.16001984 192.05750916 103.33566467 192.75924683 103.51663208 C196.1644596 104.39463798 199.56994181 105.27156422 202.97607422 106.14599609 C210.33413728 108.03865811 217.67763245 109.97340919 225 112 C224.01 112.495 224.01 112.495 223 113 C223.33 147.98 223.66 182.96 224 219 C216.29268679 217.22138926 208.81359527 215.43370353 201.25 213.23046875 C195.76186885 211.63247001 190.25497052 210.10125858 184.75 208.5625 C183.65913086 208.25731445 182.56826172 207.95212891 181.44433594 207.63769531 C174.59422768 205.72228158 167.74194694 203.81483249 160.88769531 201.91430664 C153.334085 199.81844336 145.7864668 197.7012374 138.23828125 195.5859375 C132.16085055 193.88336861 126.08196112 192.18631085 120 190.5 C111.74188271 188.21031868 103.49004227 185.89840706 95.23828125 183.5859375 C89.16085055 181.88336861 83.08196112 180.18631085 77 178.5 C68.7528398 176.21335669 60.51175666 173.90518667 52.27124023 171.59472656 C46.63250654 170.01444451 40.99183235 168.44168181 35.34741211 166.88183594 C15.35282824 161.35282824 15.35282824 161.35282824 14 160 C13.76703728 158.23002554 13.60027102 156.45135908 13.45703125 154.671875 C13.35592041 153.45258301 13.25480957 152.23329102 13.15063477 150.97705078 C13.09626251 150.29676819 13.04189026 149.6164856 12.98587036 148.91558838 C12.74162927 145.86474584 12.48666034 142.81482306 12.23240662 139.76480103 C12.08379841 137.98194183 11.93568083 136.1990417 11.78797913 134.41610718 C10.65202802 120.73719917 9.45104563 107.06379971 8.25972748 93.38962555 C7.99650076 90.36717673 7.73367782 87.34469285 7.47083855 84.32221031 C5.025943 56.21077812 2.5546991 28.10169005 0 0 Z " fill="#EAEAEA" transform="translate(976,855)"/>
<path d="M0 0 C84.48 0 168.96 0 256 0 C254.84999152 20.70015272 254.84999152 20.70015272 253.9140625 30.515625 C253.81161224 31.61759216 253.70916199 32.71955933 253.60360718 33.85491943 C253.28052774 37.32024691 252.95275963 40.78511246 252.625 44.25 C252.41377811 46.5155985 252.20283962 48.78122345 251.9921875 51.046875 C250.40156233 68.03940729 248.69827746 85.01722536 247 102 C165.49 102 83.98 102 0 102 C0 68.34 0 34.68 0 0 Z " fill="#FEFEFE" transform="translate(1199,496)"/>
<path d="M0 0 C17.82 0 35.64 0 54 0 C68.98147233 24.20083992 68.98147233 24.20083992 76.125 36 C76.85928887 37.21098973 77.59366416 38.42192706 78.328125 39.6328125 C81.22843238 44.41609472 84.12503169 49.20142852 87 54 C92.75966177 44.85620517 98.44419451 35.66888584 104.0625 26.4375 C104.89128662 25.07612915 104.89128662 25.07612915 105.73681641 23.68725586 C110.52340521 15.8104051 115.25759467 7.90400888 120 0 C137.82 0 155.64 0 174 0 C174 51.15 174 102.3 174 155 C157.17 155 140.34 155 123 155 C122.67 130.25 122.34 105.5 122 80 C112.81507237 94.12809356 112.81507237 94.12809356 103.63989258 108.26245117 C101.5757392 111.44247566 99.50695317 114.6194691 97.43652344 117.79541016 C96.51925112 119.20312073 95.60311883 120.61157526 94.68847656 122.02099609 C93.56783067 123.74621284 92.44045964 125.46705614 91.3125 127.1875 C90.71050781 128.10917969 90.10851563 129.03085938 89.48828125 129.98046875 C88 132 88 132 86 133 C85.35675781 132.00484375 84.71351562 131.0096875 84.05078125 129.984375 C78.39019365 121.23001279 72.71904196 112.48262711 67.0324707 103.74511719 C61.67291179 95.50661485 56.33937453 87.25176064 51 79 C50.67 104.08 50.34 129.16 50 155 C33.5 155 17 155 0 155 C0 103.85 0 52.7 0 0 Z " fill="#000000" transform="translate(1208,100)"/>
<path d="M0 0 C16.83 0 33.66 0 51 0 C51 16.83 51 33.66 51 51 C66.84 51 82.68 51 99 51 C99 34.17 99 17.34 99 0 C115.83 0 132.66 0 150 0 C150 51.15 150 102.3 150 155 C133.17 155 116.34 155 99 155 C99 137.84 99 120.68 99 103 C83.16 103 67.32 103 51 103 C51 120.16 51 137.32 51 155 C34.17 155 17.34 155 0 155 C0 103.85 0 52.7 0 0 Z " fill="#000000" transform="translate(869,100)"/>
<path d="M0 0 C116.49 0 232.98 0 353 0 C352.39159743 10.95124628 351.74401364 21.81852247 350.73046875 32.7265625 C350.60783231 34.0734626 350.48552262 35.42039248 350.36351013 36.76734924 C350.1066159 39.59825498 349.84802731 42.42899782 349.58795166 45.25961304 C348.90631564 52.68148247 348.23656514 60.10443077 347.56640625 67.52734375 C347.49940773 68.26843447 347.43240921 69.00952518 347.36338043 69.7730732 C346.05633373 84.23949972 344.81962631 98.71134057 343.625 113.1875 C343.49730728 114.73392181 343.49730728 114.73392181 343.36703491 116.31158447 C342.9083302 121.87414475 342.45258529 127.4369386 342 133 C324.24023398 138.30301373 324.24023398 138.30301373 315.25 140.4375 C308.28324505 142.13418034 301.38441318 143.99576597 294.5 146 C287.69771968 147.97949624 280.88237228 149.8199174 274 151.5 C263.58199993 154.04480764 253.29816911 157.01281332 243 160 C240.81428643 160.63121901 238.62718407 161.25769545 236.4375 161.875 C235.25994141 162.21144531 235.25994141 162.21144531 234.05859375 162.5546875 C232 163 232 163 228 163 C228 109.54 228 56.08 228 1 C152.76 1 77.52 1 0 1 C0 0.67 0 0.34 0 0 Z " fill="#F0652A" transform="translate(972,804)"/>
<path d="M0 0 C47.52 0 95.04 0 144 0 C144 34.32 144 68.64 144 104 C99.45 104 54.9 104 9 104 C4.33846464 56.21926257 4.33846464 56.21926257 2.56201172 35.40136719 C2.23879202 31.61883677 1.91055271 27.83676082 1.58203125 24.0546875 C1.37210921 21.61460797 1.16246177 19.17450481 0.953125 16.734375 C0.85630432 15.62012146 0.75948364 14.50586792 0.659729 13.35784912 C0.57253601 12.32935852 0.48534302 11.30086792 0.39550781 10.24121094 C0.31874817 9.34561462 0.24198853 8.45001831 0.16290283 7.52728271 C0.00146953 5.02279838 0 2.50968175 0 0 Z " fill="#E44D26" transform="translate(1056,598)"/>
<path d="M0 0 C46.86 0 93.72 0 142 0 C142 16.83 142 33.66 142 51 C126.82 51 111.64 51 96 51 C96 85.32 96 119.64 96 155 C79.17 155 62.34 155 45 155 C45 120.68 45 86.36 45 51 C30.15 51 15.3 51 0 51 C0 34.17 0 17.34 0 0 Z " fill="#000000" transform="translate(1043,100)"/>
<path d="M0 0 C17.16 0 34.32 0 52 0 C52 34.32 52 68.64 52 104 C76.09 104 100.18 104 125 104 C125 120.83 125 137.66 125 155 C83.75 155 42.5 155 0 155 C0 103.85 0 52.7 0 0 Z " fill="#010000" transform="translate(1408,100)"/>
</svg>
