<?xml version="1.0" encoding="UTF-8"?>
<svg version="1.1" xmlns="http://www.w3.org/2000/svg" width="2800" height="1750">
<path d="M0 0 C406.89 0 813.78 0 1233 0 C1233 1.65 1233 3.3 1233 5 C1233.99 5.33 1234.98 5.66 1236 6 C1236.3243275 24.28826994 1235.54703523 42.28004429 1233.93296409 60.49424648 C1233.62083977 64.04504512 1233.32206254 67.5969759 1233.02119446 71.14874268 C1232.42658053 78.14170174 1231.81904636 85.13348072 1231.20681149 92.12491679 C1230.69778607 97.94099556 1230.19416812 103.75752277 1229.69366455 109.57434082 C1224.33717941 171.8079352 1218.69645844 234.01593926 1213.00231278 296.21942043 C1212.18086603 305.19312205 1211.35982388 314.16686067 1210.5390625 323.140625 C1210.4476784 324.13965284 1210.3562943 325.13868069 1210.26214099 326.1679821 C1207.17756901 359.89432244 1204.14697841 393.62528129 1201.1484375 427.359375 C1201.04729149 428.49714504 1200.94614548 429.63491508 1200.84193444 430.807163 C1199.82039808 442.29870918 1198.7995693 453.79031815 1197.77914149 465.28196281 C1191.82423794 532.34363021 1185.82760576 599.39935193 1179.49376059 666.42636907 C1178.78780297 673.8974325 1178.08282703 681.36858813 1177.37890625 688.83984375 C1177.28211751 689.86689336 1177.28211751 689.86689336 1177.18337345 690.91469145 C1174.59224775 718.4181516 1172.08370852 745.92897476 1169.58984375 773.44140625 C1169.49392331 774.49953711 1169.39800286 775.55766796 1169.29917574 776.64786339 C1168.21953905 788.55872622 1167.14095937 800.46968469 1166.06274414 812.38067627 C1160.57213493 873.03429411 1155.07469792 933.68522658 1149.20410156 994.3034668 C1148.77776297 998.70749713 1148.3516837 1003.11155247 1147.92578125 1007.515625 C1147.81818859 1008.62765604 1147.71059593 1009.73968708 1147.59974289 1010.88541603 C1145.35764396 1034.08185867 1143.18520866 1057.28472562 1141.01641297 1080.4881146 C1140.63501337 1084.56796617 1140.25333035 1088.64779121 1139.87164575 1092.72761613 C1138.24870913 1110.07571419 1136.6258461 1127.42381819 1135.01168823 1144.7727356 C1132.70891766 1169.518455 1130.39234963 1194.26275612 1128 1219 C1127.93245955 1219.69883773 1127.86491909 1220.39767546 1127.79533195 1221.11769009 C1127.04904951 1228.82995353 1126.28678819 1236.54022327 1125.48498154 1244.24692345 C1125.28473661 1246.18335878 1125.08870055 1248.12023497 1124.89731216 1250.05756569 C1124.64488482 1252.5981384 1124.37592785 1255.13633134 1124.10107422 1257.67456055 C1124.03302456 1258.39117796 1123.9649749 1259.10779537 1123.89486313 1259.84612846 C1123.5854326 1262.54849347 1123.2783117 1264.5967774 1121.71644592 1266.8596344 C1119.65796805 1268.22723784 1117.81481054 1268.89190155 1115.43579102 1269.57128906 C1114.50053589 1269.84360352 1113.56528076 1270.11591797 1112.60168457 1270.39648438 C1111.0682843 1270.82670898 1111.0682843 1270.82670898 1109.50390625 1271.265625 C1108.4303186 1271.57532227 1107.35673096 1271.88501953 1106.25061035 1272.20410156 C1102.69050689 1273.22871608 1099.12659445 1274.23936368 1095.5625 1275.25 C1093.04913836 1275.97012381 1090.53603966 1276.69116592 1088.02319336 1277.41308594 C1083.49566719 1278.71275913 1078.96734788 1280.00952713 1074.43764591 1281.30159378 C1067.05586817 1283.40742539 1059.68185425 1285.53864112 1052.3125 1287.6875 C1024.68889163 1295.73223633 996.98810418 1303.4832189 969.25969124 1311.15683174 C952.83998147 1315.701064 936.43001282 1320.27039224 920.0625 1325 C898.49015617 1331.23169353 876.81942169 1337.10991106 855.1534071 1343.00580788 C851.40529114 1344.0259699 847.65758212 1345.04761856 843.91015625 1346.0703125 C843.16808489 1346.27282246 842.42601353 1346.47533241 841.66145515 1346.68397903 C830.55154403 1349.71940595 819.47074348 1352.84805815 808.40234375 1356.03125 C791.88600678 1360.78056309 775.31367686 1365.30552347 758.72012329 1369.77646255 C751.81204158 1371.63885713 744.90594588 1373.50861017 738 1375.37890625 C737.25012314 1375.58192793 736.50024628 1375.78494961 735.72764587 1375.99412346 C724.12645161 1379.13632874 712.54548997 1382.34493084 700.97891235 1385.61245728 C683.64294741 1390.50811892 666.24433436 1395.14523306 648.8125 1399.6875 C647.62495117 1399.99853668 646.43740234 1400.30957336 645.21386719 1400.6300354 C641.83802426 1401.51290609 638.46038931 1402.38852814 635.08203125 1403.26171875 C634.07884354 1403.52463715 633.07565582 1403.78755554 632.04206848 1404.05844116 C622.74414149 1406.4431001 615.65141611 1407.36463657 606.24609375 1404.97265625 C605.32015915 1404.74877731 604.39422455 1404.52489838 603.44023132 1404.29423523 C600.43579288 1403.56395942 597.43674681 1402.81378721 594.4375 1402.0625 C592.35488977 1401.55080115 590.27204259 1401.04006576 588.18896484 1400.53027344 C583.0515747 1399.26849778 577.9188368 1397.98898476 572.78814697 1396.70025635 C570.25958191 1396.06519523 567.73029418 1395.43312689 565.20068359 1394.80224609 C551.74087535 1391.4389108 538.35877428 1387.87565384 525.06298828 1383.91162109 C514.76114831 1380.87006178 504.38150541 1378.12889398 494 1375.375 C492.0460544 1374.85622677 490.09211567 1374.33742766 488.13818359 1373.81860352 C485.13174402 1373.02041722 482.12529848 1372.2222536 479.11880493 1371.42427063 C450.38528831 1363.79411007 421.71389113 1355.9653755 393.12106323 1347.82342529 C371.96423736 1341.80083337 350.75995373 1335.95985042 329.53905392 1330.16806126 C327.60576839 1329.64040101 325.67255081 1329.11249182 323.73933411 1328.58457947 C321.3884087 1327.94287994 319.0372634 1327.30198514 316.68583679 1326.66212463 C306.60224961 1323.91142629 296.55526428 1321.03600351 286.51670837 1318.12574768 C262.07180949 1311.04050523 237.54019832 1304.29509309 212.96020508 1297.69628906 C198.7820336 1293.88347562 184.66553303 1289.9063601 170.58251953 1285.75650024 C164.42387287 1283.9524412 158.24229696 1282.22992082 152.0625 1280.5 C150.71719325 1280.11979119 149.37198047 1279.73924975 148.02685547 1279.35839844 C141.52444697 1277.52124137 135.01687173 1275.73113075 128.47265625 1274.046875 C127.31306396 1273.74201172 126.15347168 1273.43714844 124.95874023 1273.12304688 C122.78953082 1272.55496977 120.61594107 1272.00328103 118.43774414 1271.47070312 C117.4811792 1271.21740234 116.52461426 1270.96410156 115.5390625 1270.703125 C114.70584473 1270.49333008 113.87262695 1270.28353516 113.01416016 1270.06738281 C110.1967093 1268.57430461 110.01180787 1266.97652438 109 1264 C108.61973953 1262.30482189 108.29247165 1260.59710555 108.01194763 1258.88259888 C107.76884023 1257.40010556 107.76884023 1257.40010556 107.52082157 1255.88766289 C107.35595973 1254.82919214 107.19109789 1253.7707214 107.02124023 1252.68017578 C106.84653167 1251.56884844 106.6718231 1250.4575211 106.49182034 1249.31251717 C104.75861188 1237.94994951 103.6506555 1226.56432751 102.66015625 1215.1171875 C102.45557084 1212.83086754 102.25017544 1210.54461994 102.04405212 1208.25843811 C101.60403271 1203.36013115 101.16934531 1198.46139283 100.73901367 1193.56222534 C100.0501848 1185.72112196 99.34927024 1177.8811224 98.64648438 1170.04125977 C98.40130376 1167.30446703 98.15623362 1164.56766441 97.91122437 1161.83085632 C97.81894265 1160.80010254 97.81894265 1160.80010254 97.72479665 1159.74852544 C97.28077331 1154.78677019 96.83854976 1149.82485634 96.39712524 1144.86286926 C94.45382522 1123.02229631 92.48239807 1101.18435867 90.49609375 1079.34765625 C90.42297446 1078.54379549 90.34985518 1077.73993473 90.27452016 1076.91171455 C89.61504892 1069.66221484 88.95526258 1062.41274382 88.29505634 1055.163311 C87.37289355 1045.03723471 86.45236182 1034.91101166 85.5331651 1024.7846657 C85.13043017 1020.34848218 84.727418 1015.91232383 84.32439536 1011.47616643 C84.01268809 1008.04498687 83.70114441 1004.61379268 83.38987541 1001.18257332 C81.74220006 983.02258061 80.05638484 964.86645395 78.34885025 946.71201897 C74.74331382 908.3465037 71.28024676 869.96874056 67.87948555 831.58460748 C67.23242623 824.28205175 66.58383998 816.97963179 65.93528092 809.67720914 C63.4725661 781.94651401 61.01681127 754.21521249 58.57353401 726.48279762 C58.24293018 722.7310842 57.91209048 718.97939166 57.5811615 715.22770691 C57.47355279 714.00772286 57.36594408 712.78773882 57.2550745 711.53078556 C57.04107271 709.10464412 56.82706005 706.67850365 56.61303616 704.25236416 C56.11296158 698.58186946 55.61363344 692.91131145 55.11636353 687.24057007 C52.86211732 661.53477039 50.52677355 635.83771447 48.11321831 610.14645386 C44.37997471 570.4046341 40.83062098 530.64792057 37.33948582 490.88416624 C36.52604424 481.62015958 35.71003651 472.3563793 34.89408231 463.09259367 C31.10690634 420.09168288 27.34373501 377.08870624 23.59934235 334.08404922 C21.62102479 311.36324229 19.63252197 288.64445409 17.5 265.9375 C11.61798088 203.28188013 6.25567736 140.57635232 0.94599324 77.86994952 C0.55254842 73.22588277 0.1565751 68.58203584 -0.24032593 63.93826294 C-0.77590279 57.66896509 -1.30634259 51.39925299 -1.83284378 45.12918663 C-2.0275019 42.8200823 -2.22383139 40.51111815 -2.421978 38.20231056 C-4.35405178 15.6596757 -4.35405178 15.6596757 -4 6 C-2.68 5.67 -1.36 5.34 0 5 C0 3.35 0 1.7 0 0 Z " fill="#E4A126" transform="translate(784,343)"/>
<path d="M0 0 C5.06365198 0.00655221 10.12730156 0.01057922 15.19095698 0.01330629 C86.24379407 0.05258176 157.29624973 0.29382497 228.34858968 0.54680696 C240.53721071 0.59017731 252.72583497 0.63253027 264.914462 0.6741797 C265.78848619 0.6771667 266.66251039 0.68015369 267.56302017 0.6832312 C276.28096541 0.71300922 284.99891107 0.74266043 293.71685687 0.77227199 C297.10963813 0.78379639 300.50241938 0.7953267 303.89520061 0.8068603 C305.56908078 0.81255005 307.24296096 0.81823749 308.91684114 0.8239226 C319.38668909 0.85949675 329.85653449 0.89572301 340.32637742 0.93274751 C345.55073245 0.95121794 350.77508835 0.9694402 355.99944449 0.98759559 C359.43191351 0.99954118 362.86438168 1.01166318 366.29684916 1.02405038 C370.03676133 1.03753823 373.77667471 1.05059639 377.51658907 1.06346193 C378.68668257 1.06764886 379.85677606 1.0718358 381.06232693 1.07614961 C386.26007838 1.09318637 391.45754591 1.1038587 396.65531245 1.08944765 C411.2196887 1.04998015 425.77170438 1.29862264 440.33267489 1.6014258 C442.73761877 1.6498039 445.14256668 1.69798202 447.54751864 1.74595705 C453.35095235 1.86215131 459.15433219 1.98077539 464.95767489 2.1014258 C465.06368265 3.30304259 465.16969042 4.50465938 465.27891054 5.7426888 C467.83460402 34.71019099 470.39387426 63.67737543 472.9571622 92.64420648 C473.27734477 96.26251243 473.59749908 99.88082087 473.91763582 103.49913087 C473.98133087 104.21903157 474.04502591 104.93893227 474.1106511 105.68064814 C475.06030163 116.41459613 476.00805628 127.14871037 476.9547452 137.88291994 C478.42074482 154.50426277 479.89030498 171.12528805 481.36392489 187.74595705 C481.42393191 188.42294187 481.48393893 189.09992668 481.54576435 189.79742619 C485.09348007 229.81998618 488.75853332 269.82897089 492.69851961 309.81500307 C492.85551957 311.4120392 493.01251733 313.00907556 493.16951266 314.60611215 C493.45422523 317.50131575 493.74178894 320.39621365 494.03148165 323.29092279 C494.15500506 324.54075008 494.27852846 325.79057737 494.405795 327.07827821 C494.51322779 328.15422589 494.62066057 329.23017357 494.7313489 330.33872572 C494.95767489 333.1014258 494.95767489 333.1014258 494.95767489 337.1014258 C476.37238719 337.12482995 457.78710251 337.14244182 439.20180311 337.15323797 C430.57151251 337.15838499 421.94123108 337.1653972 413.31094637 337.17686525 C405.78509547 337.18686091 398.25925123 337.19329081 390.73339387 337.19551429 C386.75189367 337.19681313 382.77041249 337.19984632 378.7889184 337.20715585 C375.03382767 337.21399324 371.27876361 337.2160272 367.52366724 337.21453348 C365.50401616 337.2149355 363.48436792 337.22029018 361.46472445 337.22584596 C340.19055811 337.20200687 340.19055811 337.20200687 333.95767489 333.1014258 C332.5216051 330.22928623 332.64287618 327.60700138 332.44986239 324.3983008 C332.35375285 322.90077637 332.25686178 321.40330196 332.15933504 319.90586916 C332.10706759 319.08956026 332.05480013 318.27325136 332.00094881 317.43220583 C330.64215179 296.59263606 328.66595687 275.81596223 326.58267489 255.0389258 C326.50678259 254.28139261 326.4308903 253.52385942 326.35269823 252.74337068 C323.91797139 228.48329751 321.23991858 204.26334606 317.95767489 180.1014258 C304.28193519 175.10900563 288.3035734 175.45395635 273.89517489 174.6014258 C272.84965456 174.53828188 271.80413424 174.47513795 270.72693148 174.41008058 C235.02327354 172.26910157 199.25876895 171.11802436 163.49893465 170.44273439 C156.23887417 170.29965007 149.00755518 170.08344171 141.76236239 169.5858008 C134.00976886 169.06832296 126.28832341 168.90394488 118.52017489 168.9139258 C117.7742206 168.91386537 117.02826632 168.91380495 116.25970736 168.91374269 C73.49257779 168.9609828 30.66293516 170.99976257 -12.04232511 173.1014258 C-15.6734846 204.75944814 -18.90489731 236.44233733 -21.83920011 268.1717383 C-21.91968406 269.04198231 -22.00016802 269.91222633 -22.08309088 270.80884138 C-23.07554253 281.5478074 -24.06029123 292.28747404 -25.04213295 303.02741471 C-25.96652982 313.13709336 -26.89700219 323.2462117 -27.82748136 333.35533205 C-28.78087118 343.71456472 -29.73383058 354.07383469 -30.68264494 364.43348756 C-30.89836603 366.78741513 -31.11410681 369.1413409 -31.32984838 371.49526659 C-31.52291086 373.60309716 -31.71557572 375.71096379 -31.90821562 377.81883302 C-32.92526043 388.91568642 -33.98045432 400.00878308 -35.04232511 411.1014258 C-33.59727615 411.10403017 -33.59727615 411.10403017 -32.12303427 411.10668716 C25.15540666 411.21000021 82.43383683 411.31821257 139.71225686 411.43254274 C146.61168975 411.44631306 153.51112272 411.46003847 160.41055575 411.47374025 C161.09704527 411.47510433 161.7835348 411.47646842 162.49082704 411.47787384 C184.64660002 411.52187732 206.80237725 411.56292872 228.95815871 411.60240992 C252.42198379 411.64423838 275.88579954 411.68951394 299.34961137 411.73830435 C313.3698892 411.76734988 327.39016662 411.79374874 341.41045593 411.81660477 C351.06488777 411.83260845 360.71930902 411.85207606 370.37372899 411.87409421 C375.91815979 411.88664209 381.46258293 411.89783032 387.00702372 411.90484491 C407.47611184 411.93181619 427.94282925 412.01674017 448.40825682 412.43353901 C450.20159702 412.46973165 451.99498591 412.50361313 453.78842038 412.53478649 C463.19460413 412.7039042 472.5683236 413.10130691 481.94445791 413.88968626 C482.78858133 413.949064 483.63270474 414.00844175 484.50240765 414.06961882 C488.30766619 414.42888002 490.40257349 414.67990377 493.50288692 417.03415909 C495.33560384 419.63846622 495.31525635 420.81188237 494.94728365 423.94842592 C494.84418572 424.92233844 494.74108778 425.89625097 494.63486567 426.899676 C494.50025746 427.96116798 494.36564924 429.02265997 494.226962 430.11631837 C494.10301876 431.23691589 493.97907553 432.35751341 493.85137644 433.51206842 C493.5792933 435.95137707 493.29731935 438.38959774 493.00674906 440.82677332 C492.5403165 444.74394167 492.09870854 448.66344094 491.66688814 452.58453432 C491.51839294 453.93104249 491.36988766 455.27754956 491.22137251 456.62405553 C491.11021229 457.63266077 491.11021229 457.63266077 490.99680641 458.66164187 C490.76787293 460.72962532 490.53615782 462.79728077 490.30374136 464.86487547 C488.78490268 478.41080355 487.50582014 491.97575907 486.27408114 505.55064455 C486.05191711 507.97877425 485.82959962 510.40688992 485.60713473 512.83499208 C485.0285901 519.16123784 484.45434886 525.48786777 483.88092699 531.81457964 C483.51149914 535.88450511 483.14050575 539.95428465 482.7688016 544.0240027 C479.60760202 578.63711742 476.49166451 613.2541886 473.40342822 647.87388626 C472.02689859 663.30400847 470.64928113 678.73403366 469.27017489 694.1639258 C469.19011721 695.05965083 469.11005954 695.95537586 469.02757588 696.87824407 C461.29125771 783.42279745 461.29125771 783.42279745 456.98541155 826.39205614 C456.71323661 829.10841867 456.44230443 831.82490319 456.17145052 834.54139772 C455.27496614 843.50609979 454.34592004 852.46609059 453.35684481 861.42106691 C452.97333743 864.95701665 452.62173634 868.49509916 452.27212801 872.03453127 C452.04959693 874.05575726 451.82515333 876.07677412 451.59829989 878.09751955 C451.51980807 878.97690691 451.44131624 879.85629427 451.36044588 880.76232973 C450.84987315 884.95174897 450.52805112 886.57710577 447.33023348 889.516709 C443.73533087 891.20590205 440.18218229 892.44597337 436.35611239 893.4608008 C434.83197055 893.88718337 433.30822308 894.31497756 431.78482332 894.74400392 C430.99184847 894.96483644 430.19887362 895.18566896 429.38186922 895.41319337 C425.33749057 896.56139856 421.32493437 897.81041481 417.30923739 899.0545508 C415.57865627 899.58744961 413.84793937 900.11990767 412.11709872 900.65196291 C411.2213312 900.92732881 410.32556368 901.20269472 409.40265169 901.48640504 C338.83664958 923.13234769 267.56205656 942.73085233 196.21716585 961.63938966 C189.46612019 963.42921108 182.72246789 965.24505518 175.98103609 967.07074037 C170.9958476 968.4165395 166.00643333 969.74614795 161.01593294 971.0720984 C158.6356477 971.70769044 156.25698122 972.34938178 153.88012972 972.99769655 C150.59650955 973.89199973 147.30749238 974.76293493 144.01626864 975.62876955 C143.05722628 975.8956357 142.09818392 976.16250185 141.11007967 976.43745485 C129.93293243 979.31868433 120.2702595 976.94051293 109.35220614 973.91783205 C107.54091974 973.42791528 107.54091974 973.42791528 105.69304171 972.92810121 C102.40440075 972.03608699 99.11829832 971.13567461 95.83315554 970.23091951 C93.03935377 969.46306547 90.24366676 968.70220015 87.44800081 967.94116655 C64.71042809 961.74983152 42.02203309 955.38248426 19.3465909 948.96788087 C5.66562813 945.0991333 -8.02357438 941.26540807 -21.73763761 937.5154883 C-22.43576063 937.32453584 -23.13388365 937.13358339 -23.8531619 936.9368445 C-26.69192013 936.16041978 -29.53072903 935.38418051 -32.3695651 934.60804048 C-62.92571156 926.25326293 -93.3853052 917.5940938 -123.8030673 908.74888673 C-124.55748861 908.529517 -125.31190992 908.31014726 -126.08919248 908.08412996 C-129.78707407 907.00822971 -133.48414837 905.92967222 -137.17977628 904.8460547 C-143.70398723 902.93468431 -150.23085173 901.03878975 -156.78046713 899.21603265 C-159.67482343 898.41002382 -162.56659485 897.59495015 -165.45829878 896.77948442 C-166.81542905 896.39979667 -168.17389096 896.02483196 -169.5337306 895.65496507 C-171.40004728 895.14717248 -173.26161085 894.62200673 -175.12289152 894.0960547 C-176.17393064 893.80598543 -177.22496977 893.51591615 -178.30785856 893.2170569 C-181.3679856 891.96856004 -182.94973734 890.63784518 -185.04232511 888.1014258 C-185.86019621 885.50328127 -185.86019621 885.50328127 -186.31576261 882.4686133 C-186.49735929 881.29886964 -186.67895597 880.12912599 -186.86605558 878.92393556 C-187.04797453 877.62125734 -187.22989347 876.31857912 -187.41732511 874.9764258 C-187.62536379 873.5531004 -187.83387672 872.12984426 -188.04281339 870.70665041 C-188.74520688 865.842946 -189.39757843 860.97306262 -190.04232511 856.1014258 C-190.21344816 854.81724764 -190.21344816 854.81724764 -190.38802824 853.50712648 C-196.94006217 804.13009285 -201.43162844 754.43345467 -205.41732511 704.7889258 C-205.4968643 703.80327638 -205.57640348 702.81762697 -205.65835294 701.80210939 C-206.44326098 691.99273632 -207.13464646 682.18335366 -207.63998136 672.35533205 C-207.68097959 671.56632005 -207.72197782 670.77730806 -207.76421842 669.96438661 C-208.14622231 662.01068977 -208.13512947 654.0619773 -208.04232511 646.1014258 C-204.72957426 644.99717551 -202.28672485 644.97835029 -198.79716215 644.98117128 C-197.48884428 644.97979662 -196.18052641 644.97842195 -194.83256254 644.97700563 C-193.37945257 644.9805448 -191.92634283 644.98417961 -190.47323332 644.98790041 C-188.94571665 644.98818243 -187.41819985 644.98802425 -185.89068327 644.9874579 C-181.74015501 644.98717051 -177.58965553 644.99305793 -173.43913398 645.00003186 C-169.10294229 645.00627499 -164.76674997 645.00686996 -160.43055448 645.00805727 C-152.2176852 645.01116774 -144.00482919 645.01937733 -135.79196576 645.02940676 C-126.44262002 645.04057667 -117.09327366 645.04608056 -107.74392292 645.05110219 C-88.51004945 645.06156017 -69.27618835 645.07915415 -50.04232511 645.1014258 C-48.75464331 659.21902397 -47.4680308 673.33671925 -46.182623 687.45452467 C-45.58563887 694.01094133 -44.98832142 700.56732725 -44.3902255 707.12364259 C-43.81235774 713.458356 -43.23538737 719.79315057 -42.65902242 726.12800089 C-42.43967388 728.53715767 -42.22000948 730.94628572 -42.0000144 733.35538355 C-39.78679219 757.59607691 -39.78679219 757.59607691 -39.04232511 768.1014258 C-38.05880064 768.22224519 -37.07527616 768.34306459 -36.06194792 768.46754518 C-31.85432194 769.07183141 -27.82360033 770.12109615 -23.72836027 771.24351564 C-22.92512831 771.46007814 -22.12189634 771.67664064 -21.29432401 771.89976564 C-18.63893873 772.61672805 -15.9851845 773.33954581 -13.33138761 774.0623633 C-11.44431242 774.5730426 -9.55713373 775.08333962 -7.66985807 775.5932776 C-2.67707739 776.9433531 2.31436367 778.29831661 7.30551424 779.65440431 C12.22270305 780.98966046 17.14097783 782.32090129 22.05923739 783.65220705 C24.00560126 784.1791306 25.95196153 784.70606745 27.8983182 785.23301759 C28.86059202 785.49353914 29.82286585 785.75406068 30.81429949 786.02247682 C33.73524747 786.8134831 36.6560638 787.60497377 39.57684603 788.39659181 C52.82988545 791.98803309 66.08693376 795.56429159 79.34829989 799.1248633 C80.1802223 799.34846906 81.01214472 799.57207483 81.86927691 799.80245653 C92.67659972 802.70662088 103.49539126 805.56094985 114.33267489 808.3514258 C115.51972018 808.65892763 116.70676546 808.96642946 117.92978182 809.28324953 C130.54865367 812.47298976 141.7001482 809.47972782 154.08267489 806.4764258 C154.87735171 806.28601717 155.67202852 806.09560854 156.49078646 805.89942995 C229.90515553 791.10000997 229.90515553 791.10000997 299.95767489 766.1014258 C302.40173877 756.4922128 303.19676468 746.50725302 304.29751864 736.6717383 C304.45878394 735.24526161 304.45878394 735.24526161 304.62330713 733.78996721 C307.35166868 709.55796914 309.43524061 685.27054125 311.52017489 660.9764258 C312.26495647 652.30658187 313.0140229 643.63713258 313.77408114 634.9686133 C313.91045426 633.41273122 313.91045426 633.41273122 314.04958239 631.82541719 C315.86839459 611.19419857 318.02826396 590.60730227 320.95767489 570.1014258 C146.38767489 570.1014258 -28.18232511 570.1014258 -208.04232511 570.1014258 C-208.04232511 561.01628938 -207.89118068 552.27055406 -207.11190519 543.26768556 C-207.01264738 542.06651598 -206.91338957 540.86534639 -206.81112394 539.62777773 C-206.54024618 536.36431161 -206.26425038 533.10133053 -205.98576293 529.83850661 C-205.68913457 526.34924736 -205.3989666 522.85944975 -205.10792265 519.36972108 C-204.614931 513.46949164 -204.11760048 507.56964129 -203.61727628 501.67002931 C-203.11435882 495.7396607 -202.61471956 489.80903102 -202.11922941 483.87803712 C-202.05908905 483.15816155 -201.99894868 482.43828598 -201.93698588 481.696596 C-201.87694792 480.97791653 -201.81690996 480.25923706 -201.75505266 479.51877943 C-198.95310502 445.9794549 -196.02289204 412.45394644 -192.94241819 378.93891397 C-191.84331611 366.96507191 -190.7757865 354.98845382 -189.71029386 343.01158205 C-189.511376 340.77773877 -189.31243167 338.54389785 -189.11346159 336.31005922 C-188.80657485 332.86453047 -188.49969778 329.41900087 -188.19289503 325.97346464 C-183.31535483 271.20398333 -178.37375012 216.44029712 -173.40531186 161.67899331 C-172.78744645 154.86783482 -172.17076795 148.05656953 -171.5546237 141.24525514 C-170.7943094 132.84055247 -170.03223577 124.43601134 -169.26810846 116.03165445 C-168.87546429 111.71275774 -168.48346216 107.39380593 -168.09348402 103.0746676 C-166.11975047 81.22318435 -163.98958942 59.39214013 -161.71504775 37.56986848 C-160.95848825 30.31071626 -160.21790142 23.04997913 -159.47982511 15.7889258 C-159.27021036 13.73032994 -159.06057897 11.67173578 -158.85091886 9.61314455 C-158.7664047 8.78258546 -158.68189054 7.95202638 -158.59481535 7.09629884 C-158.04232511 5.1014258 -158.04232511 5.1014258 -155.04232511 3.1014258 C-148.53534972 1.98793798 -141.98499468 1.80465518 -135.39628324 1.57371584 C-134.26272974 1.53237095 -133.12917624 1.49102606 -131.96127263 1.4484283 C-118.43704987 0.97837193 -104.90947884 0.74526956 -91.37899503 0.54478517 C-89.99177362 0.52360987 -88.60455273 0.50240055 -87.21733234 0.48115888 C-58.14514954 0.04076465 -29.07533272 -0.03807842 0 0 Z " fill="#EAEBEC" transform="translate(1267.0423251129687,501.8985742032528)"/>
<path d="M0 0 C165.99 0 331.98 0 503 0 C504.05721692 9.51495227 504.09460608 18.21095219 503.30078125 27.671875 C503.22566818 28.60233643 503.15055511 29.53279785 503.07316589 30.49145508 C502.82310641 33.57793244 502.56785115 36.66395627 502.3125 39.75 C502.13251678 41.95603058 501.95283658 44.1620859 501.7734375 46.36816406 C501.38830714 51.09587566 501.00087193 55.82339109 500.61181641 60.55078125 C500.09499506 66.83423532 499.58348442 73.11810822 499.07380676 79.40214539 C496.91629429 106.00295663 494.71750317 132.59932354 492.38110352 159.18505859 C491.36552894 170.74570069 490.38751856 182.30879878 489.4375 193.875 C488.42230303 206.22712845 487.30608249 218.56567614 486.12695312 230.90332031 C485.00978397 242.68038888 484.02555444 254.46699078 483.05688477 266.25708008 C482.31676023 275.25710837 481.53800024 284.25225177 480.69897461 293.24365234 C479.97857032 301.03964367 479.36377387 308.84338828 478.78491211 316.65112305 C478.32242914 322.67253957 477.71451596 328.6650975 477.02734375 334.6640625 C476.09016094 342.87894675 475.37244205 351.09850384 474.73849487 359.34173584 C473.74762104 372.19680756 472.66266351 385.04016685 471.4375 397.875 C471.37377197 398.54302643 471.31004395 399.21105286 471.24438477 399.89932251 C471.18114014 400.56201141 471.11789551 401.22470032 471.05273438 401.9074707 C470.35613845 409.20668367 469.68338948 416.50647296 469.0625 423.8125 C468.19811798 433.92161921 467.25828427 444.02325711 466.3125 454.125 C464.31625202 475.45489226 462.37474426 496.78968563 460.4375 518.125 C460.36318882 518.94334572 460.28887764 519.76169144 460.21231461 520.60483551 C459.56009813 527.78757286 458.90810315 534.97033029 458.25648499 542.15312195 C457.23495739 553.41340981 456.21178136 564.67354704 455.18778801 575.93361092 C454.50931728 583.39442618 453.83126879 590.85527784 453.15625 598.31640625 C452.93755616 600.73177592 452.71880841 603.14714071 452.5 605.5625 C452.41144745 606.54049057 452.41144745 606.54049057 452.32110596 607.53823853 C451.62147674 615.25862971 450.91109691 622.97786286 450.1796875 630.6953125 C450.11199158 631.41095871 450.04429565 632.12660492 449.97454834 632.86393738 C449.65253369 636.26636041 449.32878139 639.66859098 449.00195312 643.07055664 C448.31057775 650.35052924 447.7316411 657.62931172 447.22802734 664.92456055 C446.95754009 668.57266321 446.56587766 672.1810603 446.125 675.8125 C445.15713743 684.15455354 444.37746762 692.51110895 443.625 700.875 C443.5618158 701.57605865 443.49863159 702.27711731 443.43353271 702.99942017 C442.8838696 709.10338882 442.33856195 715.20774578 441.7935791 721.31213379 C439.36208934 748.53534019 436.79122963 775.74413244 434.17263794 802.94985962 C432.04906442 825.01300694 429.9452612 847.0778468 427.87865448 869.14640808 C427.69087635 871.15144831 427.50294084 873.15647381 427.31500244 875.16149902 C426.1698425 887.38362999 425.03142563 899.60625706 423.92578125 911.83203125 C423.15168867 920.39158366 422.3390995 928.94654345 421.5 937.5 C420.63086988 946.39280875 419.78612851 955.28692632 419 964.1875 C418.15798357 973.67802421 417.13831964 983.14649828 416.10546875 992.61791992 C415.33385761 999.740222 414.62520255 1006.86342866 414 1014 C412.43986562 1031.69843943 410.4620136 1049.35665842 408.375 1067 C408.2519751 1068.05034424 408.1289502 1069.10068848 408.00219727 1070.18286133 C407.88545654 1071.15376709 407.76871582 1072.12467285 407.6484375 1073.125 C407.54708496 1073.97320313 407.44573242 1074.82140625 407.34130859 1075.6953125 C406.67767928 1080.17647179 406.67767928 1080.17647179 406 1082 C403.30906511 1083.27565545 400.82086069 1084.22280278 398 1085.125 C396.71005127 1085.55679565 396.71005127 1085.55679565 395.39404297 1085.99731445 C377.9421736 1091.75207963 360.28160146 1096.94862729 342.60595703 1101.9675293 C338.6635176 1103.09634286 334.7297349 1104.25242606 330.796875 1105.4140625 C321.62915919 1108.11901726 312.44180756 1110.75324643 303.25 1113.375 C301.94568527 1113.74718658 301.94568527 1113.74718658 300.61502075 1114.12689209 C294.81895963 1115.78049089 289.02220984 1117.43166274 283.22515869 1119.08178711 C279.82623396 1120.04947174 276.4275199 1121.01789418 273.02880859 1121.98632812 C267.01467829 1123.69954841 260.99963435 1125.40953045 254.98400879 1127.11749268 C252.63358507 1127.78521106 250.28340279 1128.45378 247.93347168 1129.12322998 C244.62171122 1130.06640511 241.30902305 1131.00625244 237.99609375 1131.9453125 C236.52670601 1132.36487213 236.52670601 1132.36487213 235.02763367 1132.79290771 C230.10029355 1134.18574352 225.18777168 1135.45888152 220.16810608 1136.47457886 C217.38425478 1137.14922035 214.7148539 1138.08743499 212 1139 C209.83562875 1139.62981338 207.6668918 1140.24474469 205.49487305 1140.84765625 C204.87447144 1141.02029999 204.25406982 1141.19294373 203.61486816 1141.37081909 C201.580928 1141.93632215 199.54635885 1142.49952091 197.51171875 1143.0625 C196.0845192 1143.45834413 194.65733956 1143.85426005 193.23017883 1144.25024414 C190.24399733 1145.07837703 187.25748557 1145.90530598 184.27075195 1146.73144531 C180.46414469 1147.78451804 176.65851748 1148.84108496 172.85315228 1149.89863586 C169.90658284 1150.71699975 166.95942294 1151.53322079 164.0120945 1152.34884644 C162.60983393 1152.73722279 161.20776912 1153.12630675 159.80591393 1153.5161438 C153.18374904 1155.35669912 146.57536468 1157.1472216 139.84950256 1158.57304382 C137.1662578 1159.19246871 134.60013725 1160.0985929 132 1161 C129.48742498 1161.72702618 126.97407172 1162.44024844 124.453125 1163.13671875 C123.73382812 1163.33666443 123.01453125 1163.53661011 122.2734375 1163.74261475 C119.93276064 1164.39261448 117.59141801 1165.04017553 115.25 1165.6875 C113.60774312 1166.14264409 111.96549056 1166.59780375 110.32324219 1167.05297852 C100.30270556 1169.82701596 90.27240727 1172.56194671 80.22705078 1175.24487305 C73.63985228 1177.00808217 67.06333645 1178.80699568 60.4921875 1180.62890625 C41.05313884 1186.01517947 21.60566918 1191.24926019 2 1196 C0.18722812 1183.85693716 -0.41829428 1171.90777251 -0.62109375 1159.64453125 C-0.65908958 1157.68072775 -0.6972144 1155.71692674 -0.73545837 1153.75312805 C-1.13681642 1131.7941836 -1.11597195 1109.83342047 -1.06866455 1087.8717041 C-1.0581461 1082.43856219 -1.05380813 1077.00541493 -1.04882812 1071.57226562 C-1.03833188 1061.04816402 -1.02143556 1050.52408464 -1 1040 C-2.65 1039.34 -4.3 1038.68 -6 1038 C-6 1037.67 -6 1037.34 -6 1037 C-4.75468506 1036.69521729 -3.50937012 1036.39043457 -2.22631836 1036.07641602 C51.99242439 1022.7783251 105.81051441 1008.03914032 159.55957031 992.96429443 C163.06921097 991.98060133 166.57947251 990.99914893 170.08984375 990.01806641 C199.16388654 981.88720879 228.16685425 973.54302469 257.09576797 964.91137314 C259.28606874 964.2578859 261.47657179 963.60507994 263.66708374 962.95230103 C267.1277345 961.92045075 270.58741671 960.88541062 274.04635239 959.847826 C275.90293228 959.29121309 277.76006225 958.73643593 279.61721802 958.18174744 C287.02550979 955.95189622 294.36771741 953.57153114 301.69255066 951.08416748 C305.2202345 949.92780809 308.75637733 948.93893348 312.36328125 948.06640625 C314.9811379 946.36073832 315.15734236 943.93135683 316 941 C316.3207614 939.08578883 316.58062812 937.16062443 316.78686523 935.23071289 C316.91185898 934.08837189 317.03685272 932.94603088 317.16563416 931.76907349 C317.29531082 930.5162558 317.42498749 929.26343811 317.55859375 927.97265625 C317.70394492 926.61062354 317.84971579 925.24863556 317.99586487 923.88668823 C318.4002042 920.09423908 318.79418314 916.30077831 319.1852417 912.50693893 C319.4415646 910.02311312 319.69996121 907.53950975 319.95874023 905.05593872 C326.91072797 838.21259964 332.75902428 771.25550164 338.71942282 704.31789422 C339.06871453 700.39584387 339.41824376 696.4738147 339.76776516 692.55178481 C340.20794977 687.61209126 340.64795561 682.6723818 341.08789062 677.73266602 C341.17533279 676.75086424 341.26277496 675.76906246 341.35286689 674.75750911 C342.30088518 664.11116961 343.24678586 653.46464874 344.18676758 642.81759644 C348.34685844 595.69687138 352.71414216 548.60358052 357.42700195 501.53466797 C357.50072911 500.79775333 357.57445626 500.06083869 357.65041757 499.3015933 C358.39555171 491.86331307 359.15456825 484.42765984 360 477 C357.12030185 475.08020124 356.2657191 474.71156326 353.02752 474.38870901 C352.23710844 474.30794655 351.44669687 474.22718409 350.63233344 474.14397428 C349.77980847 474.06783872 348.9272835 473.99170316 348.04892445 473.91326046 C347.15722307 473.8296405 346.26552169 473.74602053 345.34679906 473.65986663 C335.9770948 472.83050606 326.61839113 472.55127196 317.21720886 472.38783264 C315.34922001 472.35012909 313.48123475 472.3122473 311.61325282 472.27420241 C291.00432846 471.87636502 270.39335091 471.82541039 249.78123105 471.79939139 C244.11798662 471.79119425 238.4547545 471.77756702 232.79151917 471.76467896 C223.03524994 471.74318229 213.2789793 471.72494368 203.52269936 471.70907402 C189.417661 471.68612568 175.31263641 471.65802114 161.20760991 471.62875474 C138.30971788 471.5813798 115.4118207 471.5380286 92.51391602 471.49731445 C70.30264849 471.45781138 48.09138597 471.41635327 25.88012695 471.37231445 C25.19254064 471.37095192 24.50495432 471.36958939 23.79653205 471.36818558 C16.88997806 471.35449734 9.98342416 471.34077007 3.07687031 471.32701423 C-54.6154091 471.21211173 -112.3076995 471.10374945 -170 471 C-168.02173661 449.31452926 -166.03934144 427.62943945 -164.05245018 405.94475746 C-163.12931334 395.86877549 -162.20738756 385.79268581 -161.28857422 375.71630859 C-154.20661667 298.06380501 -154.20661667 298.06380501 -150.5390625 262.7734375 C-150.35143404 260.96700209 -150.35143404 260.96700209 -150.16001511 259.12407303 C-149.81447551 255.81079241 -149.46611841 252.49782889 -149.11572266 249.18505859 C-149.01625965 248.24058239 -148.91679665 247.29610619 -148.81431961 246.32300949 C-147.31435521 232.31435521 -147.31435521 232.31435521 -146 231 C-143.91333879 230.82162854 -141.82084181 230.71133816 -139.72827148 230.62695312 C-139.06982553 230.59913852 -138.41137959 230.57132391 -137.73298073 230.54266644 C-135.52918297 230.45084627 -133.3251742 230.36599213 -131.12109375 230.28125 C-129.57196143 230.21839387 -128.02284357 230.15518051 -126.47373962 230.09162903 C-122.32117859 229.92276926 -118.16838762 229.76043238 -114.0154953 229.59994888 C-111.44324517 229.50022274 -108.87106003 229.39895916 -106.29888916 229.29721069 C-75.78903939 228.09185705 -45.28707663 226.96111203 -14.75 226.875 C-12.93894775 226.86786987 -12.93894775 226.86786987 -11.09130859 226.8605957 C-4.44057703 226.87296447 2.17407733 227.08786354 8.8125 227.453125 C17.78272868 227.94320065 26.75417522 228.21007189 35.734375 228.4296875 C37.17910282 228.46539347 38.6238304 228.50110934 40.06855774 228.53683472 C42.30866301 228.59206552 44.54877062 228.64719491 46.78888416 228.70208931 C72.2309315 229.32771299 97.6490166 230.11552027 123.0625 231.5 C124.17790161 231.55976013 125.29330322 231.61952026 126.44250488 231.68109131 C180.62034028 234.62034028 180.62034028 234.62034028 185 239 C185.57495117 241.78808594 185.57495117 241.78808594 186.04296875 245.484375 C186.13207016 246.17794601 186.22117157 246.87151703 186.31297302 247.58610535 C186.61501141 249.97288575 186.90206559 252.36117963 187.1875 254.75 C187.29060486 255.59289581 187.39370972 256.43579163 187.49993896 257.30422974 C189.79866962 276.15317116 191.72253444 295.04517323 193.625 313.9375 C193.70140087 314.69547504 193.77780174 315.45345009 193.85651779 316.23439407 C195.94920801 337.03573554 197.89344802 357.83648443 199.02587891 378.71655273 C199.09535233 379.86380829 199.09535233 379.86380829 199.16622925 381.03424072 C199.28632678 383.02442033 199.39144451 385.01548902 199.49511719 387.0065918 C199.76601702 389.96969029 199.76601702 389.96969029 201.35644531 391.86254883 C209.31726171 397.37197301 224.2521028 395.16372476 233.51098633 395.20532227 C234.91190357 395.21493087 236.3128181 395.22494254 237.71372986 395.23532104 C241.4731531 395.26205379 245.2325885 395.28323188 248.99205232 395.30332303 C252.93716207 395.32538081 256.88223576 395.35267147 260.82731628 395.37937927 C268.27838301 395.42904136 275.72947004 395.47407698 283.18057603 395.51740164 C291.67167086 395.56700225 300.16272948 395.62183479 308.65378916 395.67708123 C326.10249252 395.79049402 343.55122966 395.89741963 361 396 C360.81494101 394.91086697 360.81494101 394.91086697 360.62614346 393.79973125 C359.05416816 384.12957833 358.08929521 374.44801697 357.18969727 364.6965332 C357.01884271 362.8745966 356.84769833 361.05268717 356.67629051 359.23080254 C356.21133706 354.27583648 355.75170574 349.32039023 355.29340434 344.36480498 C355.00117062 341.20873694 354.70753032 338.05280276 354.41345406 334.8969059 C349.75833176 284.927918 345.30452381 234.94092455 340.88949835 184.95023739 C340.02838125 175.20482572 339.16163536 165.45991979 338.29388708 155.71509665 C337.44101048 146.13460385 336.59184262 136.55378706 335.74559313 126.97270662 C335.24716439 121.33023345 334.74731397 115.68789605 334.24363518 110.0458889 C333.7771456 104.81907372 333.31528762 99.59186967 332.856987 94.36433029 C332.68934587 92.4610649 332.52007692 90.55794203 332.34900856 88.65498161 C330.69726136 70.26048118 330.69726136 70.26048118 331 61 C329.9537914 61.00111031 328.9075828 61.00222061 327.82967091 61.00336456 C269.02513435 61.0634178 210.22207614 60.99707144 151.41796875 60.78125 C150.67118309 60.77851342 149.92439744 60.77577683 149.15498191 60.77295732 C130.14144247 60.70319538 111.12791845 60.62962589 92.11439908 60.55461788 C81.10222987 60.51121233 70.09005686 60.46888956 59.07788086 60.42724609 C57.89318097 60.4227656 57.89318097 60.4227656 56.68454774 60.41819459 C52.71741143 60.40319636 48.75027505 60.38821516 44.78313863 60.37324238 C12.52208204 60.25146103 -19.73896257 60.12676027 -52 60 C-52 59.67 -52 59.34 -52 59 C-26.755 58.505 -26.755 58.505 -1 58 C-1.01160156 53.98070312 -1.02320313 49.96140625 -1.03515625 45.8203125 C-1.04158508 42.61990897 -1.04700864 39.41950726 -1.05175018 36.21910095 C-1.05703562 32.83827422 -1.0641013 29.45747247 -1.07543945 26.07666016 C-1.08752436 22.19953741 -1.09323263 18.3224506 -1.09765625 14.4453125 C-1.10281754 13.23070343 -1.10797882 12.01609436 -1.11329651 10.76467896 C-1.11337204 9.64366791 -1.11344757 8.52265686 -1.11352539 7.36767578 C-1.115746 6.37728302 -1.11796661 5.38689026 -1.12025452 4.3664856 C-1 2 -1 2 0 0 Z " fill="#EFBE25" transform="translate(1401,443)"/>
<path d="M0 0 C1.01551593 -0.00260775 2.03103186 -0.00521549 3.07732099 -0.00790226 C4.20166675 -0.00567154 5.32601251 -0.00344082 6.48442936 -0.0011425 C7.67269748 -0.00270249 8.86096561 -0.00426248 10.08524185 -0.00586975 C13.39539563 -0.0091801 16.70549307 -0.00797231 20.01564348 -0.00488353 C23.58360993 -0.00262846 27.15157132 -0.00611026 30.71953678 -0.00886345 C37.72546994 -0.01332458 44.73139243 -0.01234155 51.73732602 -0.00945081 C57.4534437 -0.00719074 63.16955839 -0.0068869 68.88567638 -0.00797462 C70.10723376 -0.00820447 70.10723376 -0.00820447 71.35346906 -0.00843897 C73.00848555 -0.00875873 74.66350204 -0.00908295 76.31851853 -0.00941156 C91.87608238 -0.01226922 107.43364037 -0.00897869 122.99120326 -0.00361119 C136.24969555 0.00082274 149.50817906 0.00010997 162.76667118 -0.00452995 C178.20570061 -0.00993057 193.64472483 -0.01195845 209.08375508 -0.00891769 C210.74515601 -0.00859921 212.40655694 -0.00828484 214.06795788 -0.00797462 C215.29355427 -0.00774321 215.29355427 -0.00774321 216.54391019 -0.00750712 C222.21140591 -0.00665566 227.8788982 -0.00809804 233.54639339 -0.01045418 C291.88736761 -0.03229782 291.88736761 -0.03229782 317.80231571 0.50914192 C318.62998978 0.52428392 319.45766386 0.53942592 320.31041896 0.55502677 C329.26776965 0.72721543 338.19248127 1.16759243 347.12114811 1.91438484 C347.97068312 1.9737447 348.82021813 2.03310456 349.69549662 2.0942632 C353.41624034 2.44235962 355.66967283 2.74610028 358.78937054 4.89861965 C360.53168367 7.61099765 360.58231786 8.79626905 360.20964909 11.97284126 C360.10655115 12.94675379 360.00345322 13.92066631 359.8972311 14.92409134 C359.76262289 15.98558332 359.62801468 17.04707531 359.48932743 18.14073372 C359.3653842 19.26133123 359.24144096 20.38192875 359.11374187 21.53648376 C358.84165874 23.97579241 358.55968479 26.41401308 358.26911449 28.85118866 C357.80268193 32.76835701 357.36107397 36.68785628 356.92925358 40.60894966 C356.78075837 41.95545784 356.63225309 43.3019649 356.48373795 44.64847088 C356.40963113 45.32087437 356.33552432 45.99327786 356.25917184 46.68605721 C356.03023837 48.75404066 355.79852325 50.82169612 355.5661068 52.88929081 C354.04726811 66.43521889 352.76818557 80.00017442 351.53644657 93.57505989 C351.31428255 96.0031896 351.09196505 98.43130527 350.86950016 100.85940742 C350.29095553 107.18565319 349.71671429 113.51228312 349.14329243 119.83899498 C348.77386457 123.90892045 348.40287118 127.97869999 348.03116703 132.04841805 C344.86996746 166.66153277 341.75402995 201.27860395 338.66579366 235.8983016 C337.28926402 251.32842381 335.91164656 266.75844901 334.53254032 282.18834114 C334.45248265 283.08406617 334.37242497 283.9797912 334.28994131 284.90265942 C326.55362314 371.44721279 326.55362314 371.44721279 322.24777699 414.41647148 C321.97560204 417.13283402 321.70466987 419.84931854 321.43381596 422.56581306 C320.53733158 431.53051513 319.60828548 440.49050593 318.61921024 449.44548225 C318.23570287 452.981432 317.88410177 456.5195145 317.53449345 460.05894661 C317.31196237 462.0801726 317.08751877 464.10118946 316.86066532 466.12193489 C316.7821735 467.00132225 316.70368168 467.88070961 316.62281132 468.78674507 C316.08821716 473.17326809 315.80791155 474.62002735 312.33234501 477.61046028 C307.82818299 479.80353635 303.9622688 481.16662135 298.91364384 481.04844856 C295.01285907 481.13018224 292.24420936 481.86100157 288.55988407 483.11412239 C280.99717472 485.60330119 273.37825846 487.85319411 265.72394657 490.04380989 C264.51636692 490.38969154 263.30878727 490.7355732 262.0646143 491.09193611 C259.57053457 491.80521765 257.07619718 492.51759881 254.58161259 493.22911263 C250.76543967 494.31822155 246.95071247 495.41229377 243.13605595 496.50670052 C240.68627151 497.20686902 238.2364046 497.90674906 235.78644657 498.60630989 C234.65815937 498.93028252 233.52987217 499.25425514 232.36739445 499.58804512 C226.96014974 501.12619245 221.56703262 502.57082696 216.06438541 503.72662544 C211.04988931 504.81203271 206.17488506 506.44846782 201.27863407 507.96568489 C183.59414521 513.40744421 165.75823744 518.29494316 147.86399174 522.991045 C135.62629725 526.20352539 123.41749891 529.51386822 111.22004032 532.87584114 C110.39790043 533.10236366 109.57576054 533.32888618 108.72870731 533.56227303 C101.65263803 535.51281911 94.57795598 537.46830618 87.5071497 539.43785286 C74.64498838 543.02035399 61.7532777 546.48389288 48.84601688 549.9002552 C45.5035578 550.78514713 42.16192209 551.67309054 38.82062626 552.56236458 C34.03160181 553.83657706 29.24113432 555.10524383 24.44977665 556.37065315 C22.55235849 556.87259352 20.65538163 557.37620514 18.75885868 557.88151741 C16.08827447 558.59262771 13.41610593 559.29745765 10.74347782 560.00084114 C9.53919636 560.32367577 9.53919636 560.32367577 8.31058598 560.6530323 C4.80159265 561.57028873 1.87220544 562.12584114 -1.77995968 562.12584114 C-3.98076775 555.08325533 -4.32157456 548.05989585 -4.658988 540.73741341 C-4.73807387 539.03008432 -4.81990859 537.32287977 -4.90483761 535.61583138 C-6.06786611 511.65544482 -6.0014049 487.67243738 -6.02019405 463.68980598 C-6.02576968 457.63281347 -6.05005215 451.57603559 -6.07816601 445.51911163 C-6.09670136 440.83014949 -6.1019922 436.14124141 -6.10352993 431.45224571 C-6.10655718 429.21543463 -6.11458812 426.97862451 -6.12771511 424.7418499 C-6.14464852 421.64619933 -6.14293155 418.5511082 -6.13640499 415.45543098 C-6.14561977 414.53413399 -6.15483456 413.61283699 -6.16432858 412.6636219 C-6.15875942 411.82626503 -6.15319027 410.98890816 -6.14745235 410.12617683 C-6.14891891 409.39745558 -6.15038548 408.66873432 -6.15189648 407.9179306 C-5.77995968 406.12584114 -5.77995968 406.12584114 -2.77995968 404.12584114 C-0.57172219 403.44074399 1.657719 402.82317326 3.89582157 402.24302864 C4.56494068 402.06778664 5.23405979 401.89254463 5.92345524 401.71199226 C8.12518541 401.13649321 10.32884784 400.56877501 12.53254032 400.00084114 C14.06721101 399.60075922 15.60171452 399.20003552 17.13605595 398.7986927 C20.28670509 397.9749291 23.43796081 397.15355001 26.58966923 396.33384895 C33.4735003 394.54096268 40.34712096 392.71003327 47.22004032 390.87584114 C48.46575809 390.54390755 49.71147587 390.21197395 50.99494267 389.86998177 C58.26567104 387.92851662 65.5232151 385.94665286 72.76691532 383.906847 C77.46838754 382.59028213 82.18730787 381.3593939 86.91852665 380.15440559 C111.86590099 373.77787845 136.48639873 366.29901395 160.82697392 357.906847 C162.94580725 357.21534038 165.05068318 356.63273856 167.22004032 356.12584114 C175.04441647 318.85061382 177.24877988 280.59433884 180.34064579 242.70909309 C181.63946229 226.83467631 183.00395996 210.96877492 184.52838993 195.11427498 C184.73602264 192.94980004 184.94103064 190.78507136 185.14313602 188.62007332 C185.42374001 185.62506311 185.71485949 182.63125728 186.00910282 179.63755989 C186.08710117 178.79004158 186.16509953 177.94252327 186.24546146 177.06932259 C187.04053298 169.2202926 188.64744716 161.98880693 190.22004032 154.12584114 C125.87004032 154.12584114 61.52004032 154.12584114 -4.77995968 154.12584114 C-5.57914589 150.12991009 -5.90187186 147.04632035 -5.89348507 143.03999519 C-5.89341457 141.81740501 -5.89334408 140.59481483 -5.89327145 139.33517647 C-5.88813813 137.98854223 -5.88291668 136.64190832 -5.87761593 135.29527473 C-5.87569583 133.87085205 -5.87423247 132.44642868 -5.87319088 131.02200508 C-5.87003429 127.95981655 -5.86377246 124.89765572 -5.85512447 121.83547783 C-5.84159306 116.99514409 -5.83570626 112.15481953 -5.83098507 107.31447029 C-5.81989094 97.04324828 -5.80034707 86.77204827 -5.77995968 76.50084114 C-5.75794704 65.40540807 -5.73737223 54.30998395 -5.72654152 43.21453345 C-5.72155327 38.40082975 -5.71168527 33.58716794 -5.69811153 28.77348113 C-5.69066451 25.78295702 -5.68733885 22.79243872 -5.68514538 19.80190659 C-5.68326977 18.41313456 -5.6796617 17.02436365 -5.67421246 15.63560104 C-5.66701865 13.74298586 -5.66654392 11.85034866 -5.66643429 9.9577198 C-5.66421368 8.89769941 -5.66199306 7.83767902 -5.65970516 6.7455368 C-5.66591229 4.01399571 -5.66591229 4.01399571 -6.77995968 1.12584114 C-4.32700484 -0.10063628 -2.74335944 0.00050545 0 0 Z " fill="#FEFEFE" transform="translate(1401.77995967865,913.8741588592529)"/>
<path d="M0 0 C8.25661804 0.1220619 16.51043076 0.19456602 24.76802063 0.17750549 C26.01986208 0.17512863 26.01986208 0.17512863 27.29699326 0.17270374 C31.21715161 0.16339367 35.13708177 0.14665243 39.05714417 0.11779785 C76.54052192 -0.08909038 76.54052192 -0.08909038 82.68452454 4.88038635 C84.99317058 7.67974616 85.14049769 9.12445897 85.30122375 12.71607971 C85.39403625 14.39709778 85.39403625 14.39709778 85.48872375 16.11207581 C85.53899719 17.32975647 85.58927063 18.54743713 85.6410675 19.80201721 C85.78489172 22.43246888 85.93209742 25.06257307 86.08247375 27.69264221 C86.11986664 28.37921906 86.15725952 29.0657959 86.19578552 29.7731781 C86.63803403 37.71564003 87.35500304 45.63109375 88.0785675 53.55201721 C88.31816651 56.20566163 88.55774987 58.85930746 88.7973175 61.51295471 C88.85840195 62.18608704 88.91948639 62.85921936 88.98242188 63.55274963 C89.87666519 73.42495565 90.72323903 83.30138055 91.5785675 93.17701721 C94.16783957 123.05934277 96.81027483 152.93577683 99.5785675 182.80201721 C99.64115124 183.47727699 99.70373497 184.15253677 99.76821518 184.84825897 C100.27121259 190.27492747 100.77440321 195.70157807 101.27781487 201.12820816 C102.55192627 214.86414976 103.81290958 228.6012648 105.06416321 242.33930969 C105.27897318 244.69680502 105.49413184 247.05426861 105.70967102 249.41169739 C106.66164302 259.82591681 107.60284677 270.23655635 108.37471008 280.66578674 C108.64891973 284.04365558 109.0620013 287.38092831 109.5160675 290.73951721 C110.65417553 299.41395002 111.50481313 308.11270175 112.33686829 316.82106018 C112.59012579 319.2896813 112.89563868 321.74934738 113.19966125 324.21217346 C113.32470032 325.5205719 113.44973938 326.82897034 113.5785675 328.17701721 C112.5785675 329.17701721 112.5785675 329.17701721 110.08167934 329.30006504 C108.96170087 329.29914325 107.84172239 329.29822145 106.68780518 329.29727173 C104.76731606 329.29933372 104.76731606 329.29933372 102.80802917 329.30143738 C101.37599159 329.29789776 99.94395424 329.29426295 98.51191711 329.2905426 C97.01425173 329.29026074 95.5165862 329.29041845 94.0189209 329.29098511 C89.94058579 329.29127312 85.86227983 329.28537585 81.78395152 329.27841115 C77.52649122 329.27217817 73.26903032 329.27157386 69.01156616 329.27038574 C60.94383564 329.26727226 52.87611859 329.25905865 44.80839401 329.24903625 C35.62595971 329.23787563 26.44352478 329.2323648 17.26108539 329.22734082 C-1.63309489 329.21687605 -20.52726261 329.19927629 -39.4214325 329.17701721 C-40.5113727 324.44074619 -41.58640785 319.74352018 -42.1894989 314.91603088 C-42.30618927 313.98994522 -42.42287964 313.06385956 -42.54310608 312.10971069 C-42.66021942 311.13547653 -42.77733276 310.16124237 -42.897995 309.15748596 C-43.08949631 307.59105598 -43.08949631 307.59105598 -43.28486633 305.99298096 C-44.66201027 294.51100176 -45.75307094 283.0058401 -46.7964325 271.48951721 C-46.89959778 270.36623016 -47.00276306 269.24294312 -47.10905457 268.08561707 C-49.16397225 245.70939116 -51.01329952 223.31669724 -52.80961609 200.91847229 C-52.91037445 199.66603729 -53.01113281 198.41360229 -53.11494446 197.12321472 C-53.30245313 194.78825857 -53.48872485 192.4532026 -53.67347717 190.11802673 C-54.15435514 184.12268973 -54.72225136 178.1509491 -55.4214325 172.17701721 C-74.30253306 169.84260958 -93.14449933 168.33067471 -112.13957214 167.30134583 C-114.56079625 167.16942389 -116.98184482 167.03456768 -119.40287781 166.89918518 C-124.55461841 166.61160066 -129.70669746 166.33058865 -134.8589325 166.05201721 C-135.67512054 166.00745392 -136.49130859 165.96289062 -137.33222961 165.91697693 C-145.36948025 165.4811544 -153.36985055 165.12093654 -161.4214325 165.17701721 C-164.21585533 165.07435805 -167.00528813 164.90779634 -169.7964325 164.73951721 C-177.68958257 164.29496687 -185.58347123 163.96188689 -193.4839325 163.67701721 C-194.61814636 163.63584778 -195.75236023 163.59467834 -196.92094421 163.55226135 C-201.61096596 163.38313573 -206.30106097 163.21624784 -210.99125671 163.05201721 C-214.46808134 162.92963757 -217.94475659 162.80354221 -221.4214325 162.67701721 C-222.46436462 162.64156799 -223.50729675 162.60611877 -224.58183289 162.56959534 C-231.22203587 162.32538753 -237.81065818 161.84720398 -244.4214325 161.17701721 C-245.33993918 157.27482717 -245.54490875 153.65800346 -245.54168701 149.65338135 C-245.54306168 148.33389999 -245.54443634 147.01441864 -245.54585266 145.654953 C-245.54231393 144.19966103 -245.53867913 142.74436928 -245.53495789 141.28907776 C-245.53467571 139.751414 -245.53483434 138.21375011 -245.53540039 136.67608643 C-245.53568718 132.50708216 -245.5298096 128.33810669 -245.52282643 124.16910911 C-245.51657317 119.81024048 -245.51598753 115.45137119 -245.51480103 111.09249878 C-245.51169354 102.84073855 -245.50348798 94.58899157 -245.49345154 86.33723718 C-245.48227234 76.94189673 -245.47677539 67.54655564 -245.4717561 58.15121019 C-245.46130489 38.82647168 -245.4437167 19.50174551 -245.4214325 0.17701721 C-220.65071673 -0.02676946 -195.87988919 -0.21345932 -171.1089325 -0.38548279 C-170.19176264 -0.39186563 -169.27459278 -0.39824847 -168.3296299 -0.40482473 C-112.20835477 -0.79399838 -56.11819226 -0.85837321 0 0 Z " fill="#FFFFFF" transform="translate(1645.4214324951172,505.82298278808594)"/>
<path d="M0 0 C71.94 0 143.88 0 218 0 C218 61 218 61 217 63 C208.70682489 64.66696987 200.12959974 64.06414728 191.71044922 63.97949219 C185.14153667 63.9193576 178.61665549 63.86623098 172.0703125 64.5 C163.70587897 65.30037032 155.31547815 65.05766247 146.92333984 64.97949219 C137.21961505 64.89738541 127.67538255 65.13979532 118 66 C120.0205774 68.1669058 122.04142875 70.33355486 124.0625 72.5 C124.68793701 73.1705542 125.31337402 73.8411084 125.95776367 74.53198242 C129.28360928 78.09594948 132.61370235 81.65577955 135.953125 85.20703125 C142.06909872 91.71222427 148.14418213 98.23734101 154.0859375 104.90234375 C156.42353399 107.46415868 158.87655419 109.88843428 161.34765625 112.3203125 C162.99379791 113.99369527 164.53158393 115.72093045 166.0625 117.5 C173.05991973 125.60391594 180.52728834 133.30222777 187.85546875 141.10546875 C202.61217798 156.82257395 202.61217798 156.82257395 207.12109375 161.96069336 C209.04166008 164.08060887 210.81574516 165.63322537 213.11523438 167.41821289 C218.98317882 172.15892551 222.16934637 176.54179675 222.9855957 184.19018555 C223.36571369 191.55374272 223.09674933 198.88770746 222.8125 206.25 C222.7608096 208.8319276 222.71453655 211.41396965 222.67382812 213.99609375 C222.58299242 218.68015824 222.4748412 223.36206172 222.30395508 228.04394531 C222.26998123 228.97958313 222.23600739 229.91522095 222.20100403 230.87921143 C222 233 222 233 221 234 C218.15529168 234.097926 215.33486096 234.12992493 212.48973083 234.12025452 C211.58641134 234.12110894 210.68309184 234.12196337 209.75239903 234.12284368 C206.70136809 234.12450126 203.65039117 234.1189726 200.59936523 234.11352539 C198.42190553 234.11324355 196.24444573 234.11340119 194.06698608 234.1139679 C188.13540803 234.114256 182.20385001 234.10835716 176.27227664 234.10139394 C170.08093793 234.09516258 163.88959881 234.09455677 157.69825745 234.09336853 C146.63286153 234.09043182 135.56747393 234.08320169 124.50208182 234.07372581 C110.48013616 234.06178151 96.45819165 234.05559925 82.43624198 234.05032361 C54.95748951 234.03985775 27.47874527 234.02225706 0 234 C-0.0231271 225.80309439 -0.04091696 217.60620232 -0.05181217 209.40927219 C-0.0570402 205.60348423 -0.06413638 201.79771852 -0.07543945 197.99194336 C-0.0862712 194.32207456 -0.09227744 190.65222722 -0.09487724 186.98234367 C-0.09673097 185.57925008 -0.1003506 184.17615771 -0.10573006 182.7730732 C-0.11294419 180.8143032 -0.11340809 178.8555118 -0.11352539 176.89672852 C-0.115746 175.77976089 -0.11796661 174.66279327 -0.12025452 173.51197815 C0 171 0 171 1 170 C3.73588412 169.88008486 6.44764681 169.82452953 9.18481445 169.81054688 C10.04350632 169.80225357 10.90219818 169.79396027 11.78691101 169.78541565 C13.66011488 169.76796668 15.53334116 169.7528133 17.40657997 169.73963928 C20.37985047 169.71863294 23.35301149 169.69159981 26.32621765 169.66296387 C32.65493594 169.60314241 38.9837068 169.55118075 45.3125 169.5 C52.60972466 169.44059153 59.90689779 169.37791702 67.20403099 169.30812073 C70.11739324 169.28177795 73.0307611 169.26081123 75.94416809 169.2401123 C85.00431315 169.16274587 93.98270865 168.99496734 103 168 C98.84647663 162.18357085 94.28152592 156.90724687 89.4375 151.65234375 C87.44338734 149.48246796 85.48999177 147.29116236 83.5625 145.0625 C80.13028449 141.11098947 76.58616049 137.26483465 73.04052734 133.41552734 C70.54902942 130.70582091 68.08854176 127.97757131 65.6875 125.1875 C61.71429568 120.60449933 57.54761459 116.20301468 53.40185547 111.77685547 C48.78849669 106.85064375 44.2130782 101.89221959 39.66015625 96.91015625 C37.81714028 94.89393467 35.97138637 92.88060483 34.12109375 90.87109375 C29.55662863 85.9107587 25.01290758 80.94180547 20.6328125 75.81640625 C18.51339023 73.45867573 16.2417453 71.2417453 14 69 C0 54 0 54 0 0 Z " fill="#0E0E0F" transform="translate(1404,2)"/>
<path d="M0 0 C66.33 0 132.66 0 201 0 C199.86343229 15.91194795 199.86343229 15.91194795 199.0546875 23.01953125 C198.86605701 24.73935915 198.67802215 26.45925246 198.49047852 28.17919922 C198.39082794 29.08893494 198.29117737 29.99867065 198.18850708 30.93597412 C196.35663338 47.74399041 194.74393557 64.56296386 193.32421875 81.41015625 C193.21691846 82.68299532 193.21691846 82.68299532 193.10745049 83.98154831 C192.73997705 88.34545251 192.37371095 92.7094575 192.00772095 97.07348633 C189.88565889 122.35869568 187.71893204 147.61676038 184.6875 172.8125 C184.50297775 174.37191315 184.50297775 174.37191315 184.31472778 175.96282959 C183.97383982 178.81643121 183.62106458 181.66820158 183.26171875 184.51953125 C183.11369308 185.74306557 183.11369308 185.74306557 182.962677 186.99131775 C182.05284738 193.90933489 182.05284738 193.90933489 180 197 C177.89254761 198.11923218 177.89254761 198.11923218 175.25341797 198.98974609 C174.26098083 199.32061218 173.2685437 199.65147827 172.24603271 199.99237061 C166.49541697 201.77746952 160.73381773 203.50549842 154.9453125 205.1640625 C153.58723989 205.55543655 152.2291774 205.94684572 150.87112427 206.33828735 C135.24584733 210.82890271 119.56616035 215.12138464 103.875 219.375 C102.74742216 219.6810573 102.74742216 219.6810573 101.59706497 219.99329758 C81.75896101 225.37754604 61.90469095 230.67367828 41.9375 235.5625 C41.03795593 235.78419861 40.13841187 236.00589722 39.21160889 236.23431396 C29.51553728 238.61418706 19.91199453 240.71891832 10 242 C10.05534912 241.34781494 10.11069824 240.69562988 10.16772461 240.02368164 C11.48949207 223.89151665 12.23568086 207.77403623 12.5625 191.59375 C12.58340132 190.58762728 12.60430264 189.58150455 12.62583733 188.54489326 C13.29682192 154.95735661 13.11366388 121.3565781 13.07202762 87.76415783 C13.06060799 78.38482938 13.05529147 69.00549996 13.05032361 59.62616622 C13.04002108 40.41743603 13.02235346 21.20871971 13 2 C8.71 1.67 4.42 1.34 0 1 C0 0.67 0 0.34 0 0 Z " fill="#EFBE25" transform="translate(1387,1072)"/>
<path d="M0 0 C1.57486825 0.00506283 3.14973821 0.00961669 4.72460938 0.01367188 C8.42061144 0.02421438 12.11654232 0.04116644 15.8125 0.0625 C16.77329268 5.70123868 16.95368905 11.14364063 16.93948364 16.85702515 C16.94104363 17.82601891 16.94260362 18.79501268 16.94421089 19.79336989 C16.94819023 23.03071923 16.94504318 26.26802143 16.94189453 29.50537109 C16.94324988 31.82987495 16.94503056 34.1543786 16.94720459 36.47888184 C16.95176152 42.78412386 16.9499969 49.0893495 16.9468255 55.39459181 C16.94455123 61.31904094 16.9462866 67.24348805 16.9477527 73.16793723 C16.95060161 85.60918601 16.947329 98.05042741 16.94195233 110.49167497 C16.93747853 121.17495497 16.9382661 131.8582241 16.94287109 142.54150391 C16.94821641 154.94811339 16.9502184 167.35471595 16.94725883 179.76132643 C16.94569629 186.32904994 16.94550184 192.89676595 16.94879532 199.46448898 C16.95167218 205.63190206 16.94970178 211.79929449 16.94390106 217.96670532 C16.94257281 220.23677155 16.94296867 222.5068395 16.94516373 224.77690506 C16.94787249 227.86125282 16.94449758 230.9455333 16.93948364 234.02987671 C16.94171436 234.94045283 16.94394509 235.85102895 16.94624341 236.78919828 C16.92665036 242.94834964 16.92665036 242.94834964 15.8125 244.0625 C13.63557389 244.15946917 11.45543607 244.18436746 9.27635193 244.18275452 C8.58537715 244.18360894 7.89440238 244.18446337 7.18248898 244.18534368 C4.8500678 244.18700047 2.51771737 244.1814739 0.18530273 244.17602539 C-1.47984821 244.17574354 -3.14499928 244.17590122 -4.81015015 244.1764679 C-9.34508106 244.17675594 -13.87998576 244.17085816 -18.41491055 244.16389394 C-23.14883369 244.15766148 -27.88275736 244.15705669 -32.61668396 244.15586853 C-41.587521 244.15275489 -50.55834592 244.14454108 -59.52917761 244.13451904 C-69.73940392 244.1233589 -79.9496308 244.1178477 -90.15986168 244.11282361 C-111.16908123 244.10235849 -132.17828985 244.08475843 -153.1875 244.0625 C-151.20923661 222.37702926 -149.22684144 200.69193945 -147.23995018 179.00725746 C-146.31681334 168.93127549 -145.39488756 158.85518581 -144.47607422 148.77880859 C-137.39411667 71.12630501 -137.39411667 71.12630501 -133.7265625 35.8359375 C-133.60147686 34.63164722 -133.47639122 33.42735695 -133.34751511 32.18657303 C-133.00197551 28.87329241 -132.65361841 25.56032889 -132.30322266 22.24755859 C-132.20375965 21.30308239 -132.10429665 20.35860619 -132.00181961 19.38550949 C-130.50185521 5.37685521 -130.50185521 5.37685521 -129.1875 4.0625 C-127.07434198 3.88411948 -124.95541987 3.77383589 -122.83642578 3.68945312 C-121.83789078 3.64775246 -121.83789078 3.64775246 -120.81918335 3.60520935 C-118.59055567 3.51337977 -116.36171973 3.42850259 -114.1328125 3.34375 C-112.55897602 3.28067384 -110.98515419 3.21723134 -109.41134644 3.15344238 C-106.08049224 3.01943768 -102.74953281 2.88863071 -99.41845703 2.76025391 C-95.26262049 2.60003341 -91.10703542 2.43421281 -86.95150852 2.26617336 C-26.85818955 -0.16042872 -26.85818955 -0.16042872 0 0 Z " fill="#E4A126" transform="translate(1384.1875,669.9375)"/>
<path d="M0 0 C26.4 0 52.8 0 80 0 C80.02202663 29.66580079 80.04049801 59.33159684 80.05106533 88.99740365 C80.05231611 92.49607185 80.05361042 95.99474003 80.05493164 99.4934082 C80.05532511 100.5382346 80.05532511 100.5382346 80.05572652 101.6041686 C80.06008328 112.89728418 80.06797086 124.1903947 80.0771528 135.48350727 C80.08648918 147.06274912 80.09198068 158.64198741 80.09408849 170.22123295 C80.09539604 176.72870034 80.09848466 183.23615621 80.10573006 189.74361992 C80.1124862 195.86086959 80.11461779 201.97810294 80.11310768 208.09535599 C80.11338419 210.3476794 80.11539171 212.60000333 80.11920547 214.85232353 C80.12413639 217.91295764 80.12300052 220.97352906 80.12025452 224.03416443 C80.12462378 225.3896816 80.12462378 225.3896816 80.12908131 226.77258295 C80.11412121 232.88587879 80.11412121 232.88587879 79 234 C76.53598507 234.09992176 74.09993993 234.1344173 71.63537598 234.12698364 C70.46521494 234.12932363 70.46521494 234.12932363 69.27141428 234.13171089 C66.63730428 234.13572399 64.00325113 234.13253005 61.36914062 234.12939453 C59.48886582 234.13074843 57.60859129 234.1325283 55.72831726 234.13470459 C50.60656527 234.13928023 45.48483333 234.13748883 40.36308098 234.1343255 C35.01569437 234.13180257 29.66830953 234.13413925 24.32092285 234.13571167 C15.33910818 234.13753356 6.35730171 234.13512654 -2.62451172 234.13037109 C-13.02471306 234.12492844 -23.42489479 234.12669108 -33.82509565 234.1321975 C-42.73716128 234.13672807 -51.64922099 234.13737945 -60.5612874 234.13475883 C-65.89166619 234.13319575 -71.22203574 234.13300314 -76.55241394 234.13629532 C-81.56245534 234.13917322 -86.57247135 234.13719983 -91.58250999 234.13140106 C-93.42685593 234.13007303 -95.27120398 234.13046831 -97.11554909 234.13266373 C-99.62218741 234.13537355 -102.12874301 234.13199619 -104.63537598 234.12698364 C-105.74474022 234.13032973 -105.74474022 234.13032973 -106.87651587 234.13374341 C-111.88585015 234.11414985 -111.88585015 234.11414985 -113 233 C-113.09500705 230.53551872 -113.12556678 228.0992917 -113.11352539 225.63452148 C-113.11364593 224.85133828 -113.11376646 224.06815508 -113.11389065 223.26123905 C-113.11314152 220.71449552 -113.10551331 218.16782427 -113.09765625 215.62109375 C-113.09618683 214.05342647 -113.09516612 212.48575869 -113.09460449 210.91809082 C-113.08935161 205.09121975 -113.07539052 199.26435918 -113.0625 193.4375 C-113.041875 180.423125 -113.02125 167.40875 -113 154 C-76.04 153.67 -39.08 153.34 -1 153 C-1.01160156 142.12289062 -1.02320313 131.24578125 -1.03515625 120.0390625 C-1.04026306 113.16666643 -1.04511811 106.29427173 -1.04882812 99.421875 C-1.05476985 88.50292493 -1.06176799 77.58398256 -1.07543945 66.66503906 C-1.08539002 58.71407706 -1.09185432 50.76312128 -1.09408849 42.81215322 C-1.09539496 38.60010914 -1.09847683 34.38808286 -1.10573006 30.17604446 C-1.11249613 26.21496742 -1.11461575 22.2539156 -1.11310768 18.29283333 C-1.11338374 16.83592021 -1.1153854 15.37900629 -1.11920547 13.92209816 C-1.12415179 11.93908924 -1.12239542 9.95606691 -1.12025452 7.97305298 C-1.12117631 6.86137064 -1.1220981 5.7496883 -1.12304783 4.60431862 C-1 2 -1 2 0 0 Z " fill="#0E0E0F" transform="translate(1288,2)"/>
<path d="M0 0 C0.99 0 1.98 0 3 0 C3.09236938 1.24302383 3.18473877 2.48604767 3.27990723 3.76673889 C5.89060757 38.77559289 8.8289605 73.75138297 11.90890867 108.72159153 C12.65927624 117.24280698 13.40590028 125.76435011 14.15258789 134.28588867 C14.44500737 137.62275829 14.73744624 140.95962621 15.02989197 144.29649353 C15.10408232 145.14306088 15.17827267 145.98962823 15.25471121 146.86184913 C15.7175118 152.14228678 16.18067603 157.42269241 16.64409906 162.70307547 C19.13886627 191.12958694 21.61890233 219.55736808 24.09354842 247.98563784 C24.87028472 256.90853211 25.64742145 265.83139142 26.42483521 274.75422668 C26.53533073 276.022462 26.64582626 277.29069732 26.75967014 278.59736401 C27.2069055 283.73048977 27.6541578 288.86361405 28.10144591 293.99673522 C29.31553662 307.92977412 30.52908437 321.86285966 31.74072266 335.79611206 C32.68964148 346.70804622 33.64013611 357.61984194 34.59235197 368.5314889 C35.08182073 374.14097006 35.5706716 379.75050282 36.05753899 385.36021042 C38.25725055 410.69954957 40.55071487 436.0285043 42.94091797 461.35058594 C45.71112847 490.699778 48.34284783 520.05999291 50.91689272 549.42709265 C51.53147531 556.43740774 52.148643 563.4474948 52.76591203 570.45757378 C53.87931344 583.10238197 54.99139027 595.74730621 56.10229492 608.39233398 C56.16779125 609.13784954 56.23328758 609.8833651 56.30076865 610.65147204 C56.76304681 615.91347834 57.22527678 621.17548887 57.6875 626.4375 C59.68738141 649.20425782 61.68837567 671.97091702 63.69330335 694.73723108 C63.88705468 696.93740847 64.08076974 699.13758905 64.27448082 701.33776999 C68.09320517 744.70738567 71.98630802 788.06960276 75.94664693 831.42655253 C79.47914403 870.1017347 82.94860613 908.78194972 86.3515625 947.46875 C86.46089906 948.71135692 86.57023562 949.95396384 86.68288541 951.23422551 C88.55495871 972.51073594 90.42255192 993.78763931 92.28839111 1015.06469727 C93.71933372 1031.38199831 95.15188444 1047.69915666 96.58813763 1064.01599121 C96.80482589 1066.47773758 97.02145841 1068.93948886 97.23803425 1071.40124512 C99.61983927 1098.47046894 102.03010719 1125.53661426 104.54589844 1152.59375 C104.64885971 1153.70126901 104.75182098 1154.80878801 104.85790229 1155.9498682 C105.83022488 1166.40125738 106.80721591 1176.85219314 107.79506814 1187.30212641 C110.08327626 1211.51961737 112.16790348 1235.74353756 114 1260 C115.10147306 1260.15235107 116.20294613 1260.30470215 117.33779716 1260.46166992 C120.35856744 1260.90571182 123.13070346 1261.48144767 126.05908203 1262.3125 C127.00530426 1262.57857056 127.95152649 1262.84464111 128.92642212 1263.11877441 C130.45171036 1263.55498108 130.45171036 1263.55498108 132.0078125 1264 C133.09629486 1264.30723999 134.18477722 1264.61447998 135.3062439 1264.93103027 C137.6701306 1265.59878854 140.03344193 1266.26858625 142.39624023 1266.94018555 C146.19338135 1268.01943583 149.99191297 1269.0936971 153.79101562 1270.16601562 C155.10345482 1270.53649819 156.41589379 1270.9069816 157.72833252 1271.27746582 C158.71394039 1271.55566917 158.71394039 1271.55566917 159.71945953 1271.8394928 C161.74365768 1272.41107727 163.76769031 1272.98324465 165.79168701 1273.55554199 C178.75225705 1277.21917413 191.72599636 1280.83492084 204.70196533 1284.44363403 C225.72519212 1290.29092697 246.74161468 1296.16211012 267.75 1302.0625 C268.91753815 1302.3903952 270.08507629 1302.71829041 271.28799438 1303.05612183 C281.91101103 1306.03979982 292.53348512 1309.02540729 303.15576172 1312.01171875 C331.15643905 1319.8834472 359.16485473 1327.72554686 387.19311523 1335.49853516 C401.02722453 1339.33590143 414.85466517 1343.19628527 428.67715454 1347.07528687 C457.42616411 1355.14200353 486.20870325 1363.0856906 515 1371 C515.97914242 1371.26918118 515.97914242 1371.26918118 516.97806549 1371.54380035 C521.02564472 1372.65653527 525.0732978 1373.769001 529.12104034 1374.88114166 C530.47883364 1375.25420702 531.83661666 1375.62730975 533.19438934 1376.00045013 C540.52509163 1378.01490409 547.85690785 1380.02512362 555.19189453 1382.02392578 C576.44218877 1387.81823577 576.44218877 1387.81823577 585.97251892 1390.57324219 C589.41365335 1391.56743431 592.85929537 1392.54538116 596.30551147 1393.52178955 C598.52485431 1394.15875744 600.73527124 1394.8214804 602.9465332 1395.48583984 C604.26862228 1395.86053704 605.59110593 1396.23384607 606.9140625 1396.60546875 C608.0067041 1396.92668701 609.0993457 1397.24790527 610.22509766 1397.57885742 C620.77371498 1398.75570161 631.75445829 1394.60604615 641.85757065 1391.83168221 C644.52548915 1391.09907741 647.19521768 1390.3734264 649.86550903 1389.64952087 C652.69639831 1388.88204533 655.5271792 1388.11419618 658.35741234 1387.34430408 C667.69232093 1384.80566642 677.04051814 1382.31805159 686.39104462 1379.83766556 C691.09328924 1378.58985258 695.7946192 1377.33860128 700.49609375 1376.08789062 C706.18240108 1374.57547434 711.8689139 1373.06384321 717.55615234 1371.55493164 C739.93622279 1365.61617075 762.27946144 1359.56693502 784.5736084 1353.31295776 C795.58529007 1350.2248624 806.60720952 1347.17998293 817.6484375 1344.19921875 C818.33864361 1344.01282774 819.02884972 1343.82643673 819.73997116 1343.63439751 C823.20157683 1342.69987674 826.66346847 1341.76642026 830.12548828 1340.83343506 C853.52369835 1334.52610107 876.88700989 1328.11436822 900.19061279 1321.46453857 C915.82604482 1317.00362498 931.49045582 1312.66347075 947.17980766 1308.39612103 C981.66935788 1299.01478689 1016.01149771 1289.15452814 1050.3059082 1279.08447266 C1053.7419444 1278.07575725 1057.17853084 1277.06893888 1060.61523438 1276.0625 C1065.3037192 1274.68811585 1069.98980037 1273.30588498 1074.67340088 1271.91494751 C1076.2566405 1271.44516283 1077.8403876 1270.97708351 1079.42474365 1270.51107788 C1104.81451627 1264.61789579 1104.81451627 1264.61789579 1125 1251 C1125.51856089 1248.16435953 1125.51856089 1248.16435953 1125.77441406 1244.88208008 C1125.89504211 1243.60734329 1126.01567017 1242.33260651 1126.13995361 1241.01924133 C1126.26530934 1239.60268297 1126.39052825 1238.1861125 1126.515625 1236.76953125 C1126.6545818 1235.26797113 1126.7943103 1233.76648226 1126.93475342 1232.26506042 C1127.30818215 1228.25099727 1127.67145738 1224.2360771 1128.03253174 1220.22088623 C1128.37683786 1216.40781436 1128.72951537 1212.59552329 1129.08203125 1208.78320312 C1129.53261604 1203.90440599 1129.98153927 1199.02546819 1130.42593384 1194.14610291 C1131.32467555 1184.28565931 1132.24073891 1174.42711742 1133.18115234 1164.57055664 C1136.68686284 1127.7540598 1139.99026828 1090.92036846 1143.2578125 1054.08203125 C1143.31668365 1053.41832147 1143.3755548 1052.75461169 1143.43620992 1052.07078949 C1144.9614438 1034.87403904 1146.48340681 1017.67699945 1148.00440264 1000.47987372 C1148.87837651 990.59858117 1149.75312191 980.71735715 1150.62841797 970.83618164 C1150.69029392 970.13766418 1150.75216987 969.43914673 1150.81592084 968.71946207 C1151.12716916 965.20583259 1151.43843219 961.69220441 1151.7497046 958.17857707 C1152.36263771 951.2598183 1152.975512 944.34105432 1153.58834839 937.42228699 C1153.64797177 936.74915862 1153.70759516 936.07603026 1153.76902531 935.38250407 C1154.73687082 924.45563875 1155.70403189 913.52871294 1156.67089337 902.60176051 C1157.49197894 893.32247257 1158.31347658 884.04322119 1159.13534099 874.7640022 C1159.61065454 869.39740538 1160.08578854 864.03079282 1160.56043434 858.66413689 C1162.4366857 837.45218949 1164.33129293 816.24276254 1166.31799507 795.04083443 C1170.60625981 749.17615575 1174.58543802 703.28334785 1178.61171472 657.3951143 C1179.56281999 646.55618979 1180.51574854 635.71742595 1181.46884537 624.87867641 C1186.07375677 572.61236 1186.07375677 572.61236 1190.61035156 520.34008789 C1190.6694838 519.65241479 1190.72861604 518.96474168 1190.78954017 518.25623 C1191.35344674 511.69646783 1191.91517 505.13652787 1192.4723053 498.57618713 C1193.6730543 484.48379168 1194.98562898 470.40351994 1196.33616829 456.32472229 C1199.44915266 423.8594473 1202.25797059 391.36810976 1205.0625 358.875 C1205.14829237 357.88112007 1205.14829237 357.88112007 1205.23581791 356.86716175 C1206.37653811 343.65177499 1207.51572964 330.43625656 1208.65380859 317.22064209 C1211.3252579 286.20118016 1214.012752 255.18311131 1216.70173359 224.16516495 C1217.55544495 214.31735606 1218.40871311 204.46950893 1219.26151371 194.62162113 C1219.73278772 189.17957617 1220.20426396 183.73754873 1220.67580527 178.29552692 C1220.98736003 174.69982442 1221.29884011 171.1041155 1221.61009026 167.50838661 C1223.75792388 142.69696696 1225.9402607 117.88867033 1228.14904976 93.08260632 C1232.29401421 46.55966215 1232.29401421 46.55966215 1236 0 C1236.99 0.33 1237.98 0.66 1239 1 C1239.3243275 19.28826994 1238.54703523 37.28004429 1236.93296409 55.49424648 C1236.62083977 59.04504512 1236.32206254 62.5969759 1236.02119446 66.14874268 C1235.42658053 73.14170174 1234.81904636 80.13348072 1234.20681149 87.12491679 C1233.69778607 92.94099556 1233.19416812 98.75752277 1232.69366455 104.57434082 C1227.33717941 166.8079352 1221.69645844 229.01593926 1216.00231278 291.21942043 C1215.18086603 300.19312205 1214.35982388 309.16686067 1213.5390625 318.140625 C1213.4476784 319.13965284 1213.3562943 320.13868069 1213.26214099 321.1679821 C1210.17756901 354.89432244 1207.14697841 388.62528129 1204.1484375 422.359375 C1204.04729149 423.49714504 1203.94614548 424.63491508 1203.84193444 425.807163 C1202.82039808 437.29870918 1201.7995693 448.79031815 1200.77914149 460.28196281 C1194.82423794 527.34363021 1188.82760576 594.39935193 1182.49376059 661.42636907 C1181.78780297 668.8974325 1181.08282703 676.36858813 1180.37890625 683.83984375 C1180.28211751 684.86689336 1180.28211751 684.86689336 1180.18337345 685.91469145 C1177.59224775 713.4181516 1175.08370852 740.92897476 1172.58984375 768.44140625 C1172.49392331 769.49953711 1172.39800286 770.55766796 1172.29917574 771.64786339 C1171.21953905 783.55872622 1170.14095937 795.46968469 1169.06274414 807.38067627 C1163.57213493 868.03429411 1158.07469792 928.68522658 1152.20410156 989.3034668 C1151.77776297 993.70749713 1151.3516837 998.11155247 1150.92578125 1002.515625 C1150.81818859 1003.62765604 1150.71059593 1004.73968708 1150.59974289 1005.88541603 C1148.35764396 1029.08185867 1146.18520866 1052.28472562 1144.01641297 1075.4881146 C1143.63501337 1079.56796617 1143.25333035 1083.64779121 1142.87164575 1087.72761613 C1141.24870913 1105.07571419 1139.6258461 1122.42381819 1138.01168823 1139.7727356 C1135.70891766 1164.518455 1133.39234963 1189.26275612 1131 1214 C1130.93245955 1214.69883773 1130.86491909 1215.39767546 1130.79533195 1216.11769009 C1130.04904951 1223.82995353 1129.28678819 1231.54022327 1128.48498154 1239.24692345 C1128.28473661 1241.18335878 1128.08870055 1243.12023497 1127.89731216 1245.05756569 C1127.64488482 1247.5981384 1127.37592785 1250.13633134 1127.10107422 1252.67456055 C1127.03302456 1253.39117796 1126.9649749 1254.10779537 1126.89486313 1254.84612846 C1126.5854326 1257.54849347 1126.2783117 1259.5967774 1124.71644592 1261.8596344 C1122.65796805 1263.22723784 1120.81481054 1263.89190155 1118.43579102 1264.57128906 C1117.50053589 1264.84360352 1116.56528076 1265.11591797 1115.60168457 1265.39648438 C1114.0682843 1265.82670898 1114.0682843 1265.82670898 1112.50390625 1266.265625 C1111.4303186 1266.57532227 1110.35673096 1266.88501953 1109.25061035 1267.20410156 C1105.69050689 1268.22871608 1102.12659445 1269.23936368 1098.5625 1270.25 C1096.04913836 1270.97012381 1093.53603966 1271.69116592 1091.02319336 1272.41308594 C1086.49566719 1273.71275913 1081.96734788 1275.00952713 1077.43764591 1276.30159378 C1070.05586817 1278.40742539 1062.68185425 1280.53864112 1055.3125 1282.6875 C1027.68889163 1290.73223633 999.98810418 1298.4832189 972.25969124 1306.15683174 C955.83998147 1310.701064 939.43001282 1315.27039224 923.0625 1320 C901.49015617 1326.23169353 879.81942169 1332.10991106 858.1534071 1338.00580788 C854.40529114 1339.0259699 850.65758212 1340.04761856 846.91015625 1341.0703125 C846.16808489 1341.27282246 845.42601353 1341.47533241 844.66145515 1341.68397903 C833.55154403 1344.71940595 822.47074348 1347.84805815 811.40234375 1351.03125 C794.88600678 1355.78056309 778.31367686 1360.30552347 761.72012329 1364.77646255 C754.81204158 1366.63885713 747.90594588 1368.50861017 741 1370.37890625 C740.25012314 1370.58192793 739.50024628 1370.78494961 738.72764587 1370.99412346 C727.12645161 1374.13632874 715.54548997 1377.34493084 703.97891235 1380.61245728 C686.64294741 1385.50811892 669.24433436 1390.14523306 651.8125 1394.6875 C650.62495117 1394.99853668 649.43740234 1395.30957336 648.21386719 1395.6300354 C644.83802426 1396.51290609 641.46038931 1397.38852814 638.08203125 1398.26171875 C637.07884354 1398.52463715 636.07565582 1398.78755554 635.04206848 1399.05844116 C625.74414149 1401.4431001 618.65141611 1402.36463657 609.24609375 1399.97265625 C608.32015915 1399.74877731 607.39422455 1399.52489838 606.44023132 1399.29423523 C603.43579288 1398.56395942 600.43674681 1397.81378721 597.4375 1397.0625 C595.35488977 1396.55080115 593.27204259 1396.04006576 591.18896484 1395.53027344 C586.0515747 1394.26849778 580.9188368 1392.98898476 575.78814697 1391.70025635 C573.25958191 1391.06519523 570.73029418 1390.43312689 568.20068359 1389.80224609 C554.74087535 1386.4389108 541.35877428 1382.87565384 528.06298828 1378.91162109 C517.76114831 1375.87006178 507.38150541 1373.12889398 497 1370.375 C495.0460544 1369.85622677 493.09211567 1369.33742766 491.13818359 1368.81860352 C488.13174402 1368.02041722 485.12529848 1367.2222536 482.11880493 1366.42427063 C453.38528831 1358.79411007 424.71389113 1350.9653755 396.12106323 1342.82342529 C374.96423736 1336.80083337 353.75995373 1330.95985042 332.53905392 1325.16806126 C330.60576839 1324.64040101 328.67255081 1324.11249182 326.73933411 1323.58457947 C324.3884087 1322.94287994 322.0372634 1322.30198514 319.68583679 1321.66212463 C309.60224961 1318.91142629 299.55526428 1316.03600351 289.51670837 1313.12574768 C265.07180949 1306.04050523 240.54019832 1299.29509309 215.96020508 1292.69628906 C201.7820336 1288.88347562 187.66553303 1284.9063601 173.58251953 1280.75650024 C167.42387287 1278.9524412 161.24229696 1277.22992082 155.0625 1275.5 C153.71719325 1275.11979119 152.37198047 1274.73924975 151.02685547 1274.35839844 C144.52444697 1272.52124137 138.01687173 1270.73113075 131.47265625 1269.046875 C130.31306396 1268.74201172 129.15347168 1268.43714844 127.95874023 1268.12304688 C125.78953082 1267.55496977 123.61594107 1267.00328103 121.43774414 1266.47070312 C120.4811792 1266.21740234 119.52461426 1265.96410156 118.5390625 1265.703125 C117.70584473 1265.49333008 116.87262695 1265.28353516 116.01416016 1265.06738281 C113.1967093 1263.57430461 113.01180787 1261.97652438 112 1259 C111.61973953 1257.30482189 111.29247165 1255.59710555 111.01194763 1253.88259888 C110.76884023 1252.40010556 110.76884023 1252.40010556 110.52082157 1250.88766289 C110.35595973 1249.82919214 110.19109789 1248.7707214 110.02124023 1247.68017578 C109.84653167 1246.56884844 109.6718231 1245.4575211 109.49182034 1244.31251717 C107.75861188 1232.94994951 106.6506555 1221.56432751 105.66015625 1210.1171875 C105.45557084 1207.83086754 105.25017544 1205.54461994 105.04405212 1203.25843811 C104.60403271 1198.36013115 104.16934531 1193.46139283 103.73901367 1188.56222534 C103.0501848 1180.72112196 102.34927024 1172.8811224 101.64648438 1165.04125977 C101.40130376 1162.30446703 101.15623362 1159.56766441 100.91122437 1156.83085632 C100.81894265 1155.80010254 100.81894265 1155.80010254 100.72479665 1154.74852544 C100.28077331 1149.78677019 99.83854976 1144.82485634 99.39712524 1139.86286926 C97.45382522 1118.02229631 95.48239807 1096.18435867 93.49609375 1074.34765625 C93.42297446 1073.54379549 93.34985518 1072.73993473 93.27452016 1071.91171455 C92.61504892 1064.66221484 91.95526258 1057.41274382 91.29505634 1050.163311 C90.37289355 1040.03723471 89.45236182 1029.91101166 88.5331651 1019.7846657 C88.13043017 1015.34848218 87.727418 1010.91232383 87.32439536 1006.47616643 C87.01268809 1003.04498687 86.70114441 999.61379268 86.38987541 996.18257332 C84.74220006 978.02258061 83.05638484 959.86645395 81.34885025 941.71201897 C77.74331382 903.3465037 74.28024676 864.96874056 70.87948555 826.58460748 C70.23242623 819.28205175 69.58383998 811.97963179 68.93528092 804.67720914 C66.4725661 776.94651401 64.01681127 749.21521249 61.57353401 721.48279762 C61.24293018 717.7310842 60.91209048 713.97939166 60.5811615 710.22770691 C60.47355279 709.00772286 60.36594408 707.78773882 60.2550745 706.53078556 C60.04107271 704.10464412 59.82706005 701.67850365 59.61303616 699.25236416 C59.11296158 693.58186946 58.61363344 687.91131145 58.11636353 682.24057007 C55.86211732 656.53477039 53.52677355 630.83771447 51.11321831 605.14645386 C47.37997471 565.4046341 43.83062098 525.64792057 40.33948582 485.88416624 C39.52604424 476.62015958 38.71003651 467.3563793 37.89408231 458.09259367 C34.10690634 415.09168288 30.34373501 372.08870624 26.59934235 329.08404922 C24.62102479 306.36324229 22.63252197 283.64445409 20.5 260.9375 C14.61798088 198.28188013 9.25567736 135.57635232 3.94599324 72.86994952 C3.55254842 68.22588277 3.1565751 63.58203584 2.75967407 58.93826294 C2.22409721 52.66896509 1.69365741 46.39925299 1.16715622 40.12918663 C0.9724981 37.8200823 0.77616861 35.51111815 0.578022 33.20231056 C-1.59324256 7.86889697 -1.59324256 7.86889697 -1 1 C-0.67 0.67 -0.34 0.34 0 0 Z " fill="#EAE9E4" transform="translate(781,348)"/>
<path d="M0 0 C1.50774479 1.20415783 1.50774479 1.20415783 3 3 C3.16956997 5.16775227 3.16956997 5.16775227 2.87608337 7.73347473 C2.77306097 8.70746279 2.67003857 9.68145084 2.56389427 10.68495369 C2.43444735 11.75160696 2.30500042 12.81826023 2.17163086 13.91723633 C2.04910257 15.03924879 1.92657429 16.16126125 1.80033302 17.31727409 C1.53177468 19.76226532 1.25587938 22.20645894 0.97363472 24.64990807 C0.52077926 28.57644946 0.08662834 32.50478486 -0.33961487 36.4342804 C-0.44793704 37.43237635 -0.44793704 37.43237635 -0.55844754 38.45063585 C-0.70564463 39.80751314 -0.85275827 41.16439948 -0.99978983 42.52129471 C-1.22498303 44.59357851 -1.45215982 46.66563731 -1.67972088 48.73766232 C-3.16455062 62.29440903 -4.4470483 75.86768235 -5.68359375 89.44921875 C-5.90595061 91.87725688 -6.128348 94.30529129 -6.3507843 96.73332214 C-6.92913841 103.05965895 -7.50331941 109.38636894 -8.07674789 115.71315384 C-8.44617575 119.78307931 -8.81716914 123.85285885 -9.18887329 127.9225769 C-12.35007287 162.53569163 -15.46601038 197.15276281 -18.55424666 231.77246046 C-19.9307763 247.20258267 -21.30839376 262.63260787 -22.6875 278.0625 C-22.76755767 278.95822503 -22.84761535 279.85395006 -22.93009901 280.77681828 C-30.66641718 367.32137165 -30.66641718 367.32137165 -34.97226334 410.29063034 C-35.24443828 413.00699287 -35.51537045 415.7234774 -35.78622437 418.43997192 C-36.80540577 428.63270392 -37.87409292 438.81849163 -39 449 C-39.12689209 450.18519226 -39.25378418 451.37038452 -39.38452148 452.5914917 C-39.73054865 455.77085796 -40.1017295 458.94595624 -40.484375 462.12109375 C-40.57962463 463.01723892 -40.67487427 463.91338409 -40.77301025 464.83668518 C-41.08496094 467.25561523 -41.08496094 467.25561523 -42 471 C-44.05718994 472.23402405 -44.05718994 472.23402405 -46 473 C-45.87471924 471.93418701 -45.74943848 470.86837402 -45.62036133 469.77026367 C-42.98324918 447.26202548 -40.51399447 424.74276752 -38.3125 402.1875 C-38.15921738 400.62205948 -38.15921738 400.62205948 -38.00283813 399.0249939 C-36.92344674 387.97215237 -35.89546504 376.91662059 -34.94921875 365.8515625 C-34.24458373 357.61450463 -33.4342831 349.40196061 -32.5 341.1875 C-31.53593302 332.44498827 -30.69652461 323.7100565 -30.0625 314.9375 C-29.23654106 303.52594475 -28.20080304 292.14008534 -27.125 280.75 C-24.87493223 256.89673109 -22.80164043 233.02907224 -20.75646973 209.1574707 C-19.89857326 199.14769204 -19.02586212 189.1404866 -18.05859375 179.140625 C-17.19267778 170.17587332 -16.38741308 161.20610565 -15.59765625 152.234375 C-15.53567425 151.53031021 -15.47369225 150.82624542 -15.409832 150.10084534 C-15.02445816 145.72041875 -14.64012918 141.3399009 -14.25616455 136.95935059 C-13.68346684 130.42593997 -13.1097627 123.89261802 -12.53515625 117.359375 C-12.4724309 116.64583925 -12.40970554 115.9323035 -12.34507942 115.19714546 C-11.25594742 102.81548778 -10.13861919 90.43649496 -9.00428772 78.05889893 C-8.28800432 70.2289416 -7.5995045 62.39722175 -6.9375 54.5625 C-6.24547382 46.503734 -5.43188495 38.468027 -4.5 30.43359375 C-4.13432379 27.26178115 -3.80718149 24.08816475 -3.5 20.91015625 C-3.41621094 20.05905273 -3.33242187 19.20794922 -3.24609375 18.33105469 C-3.08729604 16.70589881 -2.93329524 15.08026367 -2.78515625 13.45410156 C-2.3193743 8.75338112 -1.4318286 4.50429413 0 0 Z " fill="#EAE8E1" transform="translate(1759,918)"/>
<path d="M0 0 C-57.79583738 17.39703206 -57.79583738 17.39703206 -81.43655396 24.35192871 C-83.18246716 24.86592075 -84.92797424 25.38129442 -86.67306519 25.89807129 C-89.06341989 26.6053961 -91.45525064 27.30746109 -93.84765625 28.0078125 C-94.88401718 28.31584305 -94.88401718 28.31584305 -95.9413147 28.63009644 C-98.74288942 29.44413383 -101.06343203 30 -104 30 C-103.48046875 28.1328125 -103.48046875 28.1328125 -102 26 C-99.38173535 25.09265121 -97.004035 24.43320834 -94.3125 23.875 C-92.91251053 23.56100792 -91.51276828 23.24591146 -90.11328125 22.9296875 C-89.49235596 22.79804199 -88.87143066 22.66639648 -88.23168945 22.53076172 C-85.12391544 21.7916412 -82.06599045 20.89363302 -79 20 C-77.68898567 19.61945969 -77.68898567 19.61945969 -76.35148621 19.23123169 C-73.15967553 18.30406382 -69.96847308 17.37482265 -66.77734375 16.4453125 C-64.35742465 15.74087588 -61.93750268 15.03644911 -59.51757812 14.33203125 C-55.73506815 13.2307663 -51.95258936 12.1293945 -48.17016602 11.02783203 C-44.49764751 9.95835311 -40.82502534 8.88923123 -37.15234375 7.8203125 C-35.39112686 7.30757782 -35.39112686 7.30757782 -33.59432983 6.78448486 C-26.62574829 4.75763434 -19.65304228 2.74799128 -12.66625977 0.78466797 C-9.89751233 0.01334017 -9.89751233 0.01334017 -6.89819336 -1.22607422 C-3.52488824 -2.12687257 -2.89677371 -1.66966497 0 0 Z " fill="#EAE7DF" transform="translate(1701,1396)"/>
<path d="M0 0 C0.52207031 0.36480469 1.04414062 0.72960938 1.58203125 1.10546875 C-1.04191181 1.94226152 -3.66701259 2.77503817 -6.29296875 3.60546875 C-7.03933594 3.84394531 -7.78570313 4.08242187 -8.5546875 4.328125 C-14.19140625 6.10546875 -14.19140625 6.10546875 -16.41796875 6.10546875 C-16.08796875 5.11546875 -15.75796875 4.12546875 -15.41796875 3.10546875 C-12.6171875 1.8671875 -12.6171875 1.8671875 -9.10546875 0.79296875 C-7.95433594 0.42558594 -6.80320312 0.05820313 -5.6171875 -0.3203125 C-2.41796875 -0.89453125 -2.41796875 -0.89453125 0 0 Z " fill="#EAE3D1" transform="translate(1699.41796875,1394.89453125)"/>
</svg>
