<?xml version="1.0" encoding="UTF-8"?>
<svg version="1.1" xmlns="http://www.w3.org/2000/svg" width="3840" height="2160">
<path d="M0 0 C63.36 0 126.72 0 192 0 C191.32354219 7.44103587 190.51754437 13.80656985 188.625 20.875 C188.07503645 23.00214308 187.52703208 25.1297932 186.98046875 27.2578125 C186.51326416 29.07007324 186.51326416 29.07007324 186.03662109 30.91894531 C184.16725773 38.23341357 182.40938399 45.57594158 180.62722778 52.91201782 C177.33171256 66.47187969 174.00492694 80.02340698 170.609375 93.55859375 C170.32409439 94.69618134 170.03881378 95.83376892 169.74488831 97.00582886 C168.3643002 102.50779548 166.98028638 108.00887299 165.59155273 113.50878906 C162.59018259 125.42930358 159.71625728 137.37127062 156.9941864 149.3589325 C155.76256485 154.77156892 154.4758443 160.14864378 153 165.5 C151.14745292 172.22605268 149.60449943 179.00910553 148.0625 185.8125 C146.37153294 193.2612099 144.62053272 200.66141145 142.5 208 C139.17050994 219.54402949 136.65113063 231.28592315 134 243 C133.29828076 246.08489474 132.59135818 249.16847131 131.875 252.25 C131.7205542 252.91483398 131.5661084 253.57966797 131.40698242 254.26464844 C130.05915113 259.95818434 128.44006664 265.54855061 126.734375 271.14453125 C125.83394897 274.1542574 125.83394897 274.1542574 126 278 C126.94875 277.175 127.8975 276.35 128.875 275.5 C131.75 273 131.75 273 134 273 C134 272.34 134 271.68 134 271 C135.57286684 269.58561594 137.21139996 268.24395599 138.875 266.9375 C142.68835562 263.88974135 146.39808809 260.79499659 150 257.5 C153.35326272 254.44245809 156.774552 251.52912249 160.3125 248.6875 C165.20410582 244.73391518 169.82942901 240.55429651 174.40942383 236.2487793 C184.26784185 227 184.26784185 227 187 227 C187 226.34 187 225.68 187 225 C188.57286684 223.58561594 190.21139996 222.24395599 191.875 220.9375 C195.68835562 217.88974135 199.39808809 214.79499659 203 211.5 C207.28782652 207.59210747 211.73127057 203.92655702 216.24609375 200.28515625 C219.95637703 197.20641055 223.48462742 193.94638873 227.00390625 190.65234375 C229 189 229 189 231 189 C231.33 188.01 231.66 187.02 232 186 C233.57054206 184.58303493 235.20746664 183.23893184 236.875 181.9375 C240.93119023 178.70620856 244.81512227 175.39967502 248.625 171.875 C252.64062729 168.17579033 256.75413958 164.7427669 261.125 161.47265625 C263.01166296 160.08494966 263.01166296 160.08494966 264.36961633 158.43103045 C267.30180933 155.85736785 271.36883631 156.60251825 275.092453 156.63923645 C276.50512348 156.63539154 276.50512348 156.63539154 277.94633275 156.63146895 C281.11567945 156.62651059 284.2845543 156.64305794 287.45385742 156.65942383 C289.72028085 156.66026966 291.9867051 156.65979583 294.25312805 156.65809631 C300.41811457 156.65723321 306.58292709 156.67491001 312.74787307 156.69581819 C319.18609858 156.71453249 325.62432778 156.71633128 332.06257629 156.71989441 C342.87272524 156.72816865 353.6828026 156.74692565 364.49291992 156.77368164 C375.62800781 156.80121333 386.76307832 156.82245126 397.89819336 156.83520508 C398.58441417 156.83599325 399.27063498 156.83678142 399.97765037 156.83759347 C403.42017474 156.84150855 406.86269924 156.84529968 410.30522382 156.84902918 C438.87019249 156.88013579 467.43509374 156.93320374 496 157 C496 157.66 496 158.32 496 159 C494.28430794 160.4432174 492.49887717 161.8038685 490.6875 163.125 C490.13989014 163.52750977 489.59228027 163.93001953 489.02807617 164.34472656 C487.35716627 165.57036586 485.67993555 166.78676934 484 168 C477.43043919 172.74791268 470.92810818 177.56249821 464.5 182.5 C459.00434743 186.72092487 453.4740778 190.87451267 447.8515625 194.92578125 C444.31271633 197.49992826 440.81126259 200.12174494 437.3125 202.75 C436.6309082 203.26199951 435.94931641 203.77399902 435.24707031 204.30151367 C432.50606324 206.36176665 429.7661146 208.42342389 427.02636719 210.48535156 C418.31453722 217.04005 409.56588623 223.54155359 400.78369141 230.00170898 C395.09322333 234.18928607 389.42737848 238.40772751 383.78369141 242.65820312 C379.77616491 245.67289866 375.76226795 248.6791198 371.75 251.6875 C369.27103919 253.5466612 366.79213472 255.4058975 364.31323242 257.26513672 C362.83170324 258.37624452 361.35010189 259.4872561 359.8684082 260.59814453 C356.70602136 262.96926604 353.54476535 265.34185021 350.38671875 267.71875 C343.0592718 273.2298741 335.70286969 278.69850477 328.3125 284.125 C321.89442367 288.84029526 315.54253824 293.62326337 309.24609375 298.5 C300.06804981 305.59303489 290.75362534 312.51550684 281.33203125 319.28125 C279.62266394 320.54108521 277.95883325 321.86333243 276.32421875 323.21875 C274 325 274 325 272 325 C273.98995173 330.62459542 276.3264917 335.77211264 279.1875 341 C282.21709583 346.62427415 285.17098487 352.27215269 288 358 C290.74618997 363.54852244 293.5853107 369.03814463 296.5 374.5 C301.1625713 383.2441896 305.58494919 392.09839682 309.97949219 400.97949219 C314.08423405 409.266578 318.2902496 417.4852277 322.64428711 425.64428711 C325.51860736 431.04667601 328.27013344 436.50201641 330.98266602 441.98706055 C333.37882813 446.81188513 335.8889015 451.56675808 338.4375 456.3125 C341.62120109 462.25404377 344.58963717 468.26573363 347.4375 474.375 C351.59094953 483.27356627 356.09838054 491.9516424 360.72509766 500.61181641 C362.87050418 504.63065337 364.99963162 508.65803671 367.125 512.6875 C367.54185059 513.47753418 367.95870117 514.26756836 368.38818359 515.08154297 C371.34892261 520.71288954 374.21373038 526.38657316 377.03393555 532.08935547 C379.41265405 536.88018637 381.90763036 541.60007256 384.4375 546.3125 C387.80733972 552.61253908 390.99073057 558.98684526 394.0625 565.4375 C394.65405884 566.67270386 394.65405884 566.67270386 395.25756836 567.93286133 C395.61729736 568.69622803 395.97702637 569.45959473 396.34765625 570.24609375 C396.82730835 571.26207642 396.82730835 571.26207642 397.31665039 572.29858398 C398 574 398 574 398 576 C392.86573935 576.84641855 387.88096764 577.14648371 382.67501831 577.14044189 C381.45852354 577.14489858 381.45852354 577.14489858 380.21745312 577.1494453 C377.51458702 577.15807975 374.81176549 577.15963603 372.10888672 577.16113281 C370.16525173 577.16576445 368.22161765 577.17078957 366.27798462 577.17617798 C361.00963673 577.18926453 355.74130156 577.19573878 350.47293997 577.20018864 C347.1814631 577.20312342 343.88998968 577.20722883 340.59851456 577.21169281 C330.29943734 577.22535345 320.00036803 577.23502899 309.70128238 577.2388947 C297.81224598 577.24338203 285.92332417 577.26096717 274.03432262 577.2898953 C264.84097109 577.31148894 255.64765188 577.32159762 246.45427525 577.32293582 C240.96396735 577.32398485 235.47376739 577.32991444 229.98348618 577.34775543 C224.82392338 577.36419758 219.66455016 577.36641042 214.50497055 577.35761642 C212.61069227 577.35684417 210.71640395 577.36121346 208.82215118 577.37107468 C206.23821148 577.38373895 203.65494898 577.37794782 201.0710144 577.36749268 C200.31994569 577.37554908 199.56887697 577.38360548 198.79504859 577.39190602 C194.35977107 577.34987286 191.52939622 576.73259581 188 574 C186.8828125 572.046875 186.8828125 572.046875 186.125 569.75 C184.58087345 565.47914203 182.83129517 561.41249245 180.875 557.3125 C177.31407667 549.80515708 174.00769396 542.19361254 170.72802734 534.55981445 C168.60193088 529.62586998 166.42376195 524.7241082 164.16015625 519.8515625 C160.15502164 511.22226561 156.35361884 502.50446654 152.53173828 493.79296875 C148.93104929 485.58988165 145.29628094 477.40882332 141.52294922 469.28320312 C138.89802867 463.62434908 136.30967261 457.94896871 133.73071289 452.26904297 C133.11495126 450.91505501 132.49741675 449.561872 131.87817383 448.20947266 C128.53838426 440.91326309 125.33088211 433.69614894 123 426 C118.67771277 428.8379314 114.47208897 431.80296313 110.3125 434.875 C109.36648926 435.5709729 109.36648926 435.5709729 108.40136719 436.28100586 C106.26636333 437.85236251 104.13299642 439.42591954 102 441 C99.43659373 442.89164466 96.8731568 444.78324691 94.30932617 446.67431641 C92.62532838 447.91671257 90.94188187 449.15985636 89.2590332 450.40380859 C88.487771 450.97309082 87.71650879 451.54237305 86.921875 452.12890625 C85.89465332 452.88796265 85.89465332 452.88796265 84.84667969 453.66235352 C83.2580746 454.8130631 81.63213376 455.91191082 80 457 C79.10906276 459.39604099 79.10906276 459.39604099 78.5703125 462.25 C78.33183594 463.33539062 78.09335938 464.42078125 77.84765625 465.5390625 C77.60917969 466.68117188 77.37070313 467.82328125 77.125 469 C75.55795298 476.33623132 73.87459253 483.59864272 71.8125 490.8125 C69.37917559 499.36683483 67.2318717 507.98753599 65.1171875 516.625 C64.94582401 517.3244574 64.77446053 518.02391479 64.59790421 518.74456787 C63.3531266 523.82878447 62.11360885 528.91427767 60.875 534 C59.62762773 539.12075456 58.37834314 544.24103026 57.12485123 549.36029053 C56.63144514 551.37916197 56.14117518 553.39877671 55.65109253 555.41845703 C53.95673337 562.34431781 52.14724709 569.19995074 50 576 C45.04682465 576.80853426 40.25316681 577.14322914 35.23101807 577.12698364 C34.10428653 577.12932363 34.10428653 577.12932363 32.95479274 577.13171089 C30.454542 577.1356784 27.95435269 577.13254784 25.45410156 577.12939453 C23.65500351 577.13075041 21.85590573 577.1325314 20.05680847 577.13470459 C15.1832031 577.13925538 10.30961895 577.13749939 5.43601322 577.1343255 C0.33516953 577.13179131 -4.76567235 577.13414225 -9.86651611 577.13571167 C-18.42745286 577.1375296 -26.98838097 577.13513621 -35.54931641 577.13037109 C-45.45313893 577.12492225 -55.3569409 577.12669716 -65.26076293 577.1321975 C-73.76364244 577.13673104 -82.26651574 577.1373782 -90.76939607 577.13475883 C-95.8482384 577.13319829 -100.92707106 577.13299637 -106.00591278 577.13629532 C-110.77637384 577.13917776 -115.54680828 577.13719145 -120.31726646 577.13140106 C-122.07047417 577.13007577 -123.82368411 577.13046368 -125.57689095 577.13266373 C-127.96427538 577.13538407 -130.35157373 577.13198326 -132.73895264 577.12698364 C-133.43748281 577.12921436 -134.13601299 577.13144509 -134.85571074 577.13374341 C-137.85718054 577.12149672 -140.12594361 576.9580188 -143 576 C-135.74770663 543.24438113 -135.74770663 543.24438113 -131.89526367 529.90625 C-129.71286429 522.2283694 -127.99389094 514.44892665 -126.23046875 506.66625977 C-124.76377797 500.22363249 -123.21814135 493.81758689 -121.5 487.4375 C-119.63478713 480.50448299 -117.90772893 473.5480431 -116.25 466.5625 C-113.54042513 455.148135 -110.70397199 443.76795054 -107.84448242 432.39047241 C-105.5854249 423.39886599 -103.35833059 414.40342264 -101.25 405.375 C-99.63915905 398.4794584 -97.81668041 391.67164902 -95.87182617 384.86352539 C-94.23644132 379.05385741 -92.86852778 373.20415949 -91.5625 367.3125 C-89.93540162 359.97786542 -88.18148988 352.69791424 -86.25 345.4375 C-83.5924428 335.42765834 -81.12069045 325.37861824 -78.6875 315.3125 C-75.59091103 302.50825619 -72.45265542 289.71565268 -69.25 276.9375 C-68.9623024 275.78950424 -68.9623024 275.78950424 -68.66879272 274.61831665 C-67.75855005 270.9873582 -66.84743092 267.35662078 -65.93554688 263.72607422 C-64.60342053 258.42051255 -63.27748697 253.11341263 -61.95214844 247.80615234 C-60.7871013 243.14300682 -59.61882917 238.48068143 -58.44830322 233.81890869 C-57.46460276 229.90033952 -56.48215244 225.98145741 -55.5 222.0625 C-55.20325378 220.87892914 -55.20325378 220.87892914 -54.9005127 219.67144775 C-52.41810814 209.76398933 -49.99550357 199.84646292 -47.671875 189.90039062 C-46.24016281 183.84046991 -44.58651676 177.86022357 -42.87402344 171.87451172 C-40.94441667 165.02727642 -39.40823315 158.107731 -37.87280273 151.16333008 C-36.60032091 145.47012644 -35.17968032 139.8544218 -33.5625 134.25 C-30.79160078 124.62500272 -28.61922826 114.87314722 -26.3984375 105.109375 C-24.8947355 98.50432883 -23.27284239 91.93670365 -21.60107422 85.37207031 C-20.26134928 80.08499984 -18.94632347 74.79169253 -17.625 69.5 C-17.01570165 67.06248084 -16.40632654 64.62498086 -15.796875 62.1875 C-15.49587891 60.98351562 -15.19488281 59.77953125 -14.88476562 58.5390625 C-14.05338542 55.21354167 -13.22200521 51.88802083 -12.390625 48.5625 C-12.01103638 47.04402466 -12.01103638 47.04402466 -11.6237793 45.49487305 C-11.12800175 43.51192452 -10.63207288 41.52901382 -10.13598633 39.54614258 C-8.96077169 34.84805111 -7.78800179 30.14938086 -6.62109375 25.44921875 C-6.40018066 24.56105469 -6.17926758 23.67289063 -5.95166016 22.7578125 C-5.54536748 21.12395103 -5.13998935 19.48986167 -4.73583984 17.85546875 C-3.24698088 11.87407196 -1.62314569 5.95153421 0 0 Z " fill="#666766" transform="translate(3232,883)"/>
<path d="M0 0 C1.34111343 0.00539291 1.34111343 0.00539291 2.70932007 0.01089478 C3.64580887 0.01074875 4.58229767 0.01060272 5.54716492 0.01045227 C8.65845007 0.01115179 11.76967617 0.01894602 14.88095093 0.02676392 C17.0318651 0.02862796 19.18277971 0.03005192 21.33369446 0.03105164 C27.00711225 0.03487792 32.68050463 0.04470914 38.35391235 0.05575562 C44.13831234 0.06596736 49.92271641 0.07054875 55.7071228 0.07559204 C67.06585796 0.08633131 78.42457421 0.10340906 89.78329468 0.12442017 C90.2684013 1.55076603 90.75099624 2.97796627 91.23254395 4.40551758 C91.63606929 5.59753564 91.63606929 5.59753564 92.04774666 6.81363487 C93.00929837 9.83442956 93.63826363 12.85978147 94.21298218 15.97598267 C94.44807495 17.22637329 94.68316772 18.47676392 94.92538452 19.76504517 C95.04468323 20.41408813 95.16398193 21.0631311 95.28689575 21.73184204 C95.92748963 25.211788 96.5903203 28.68750327 97.25204468 32.16348267 C97.3834787 32.85580994 97.51491272 33.54813721 97.65032959 34.26144409 C98.72725823 39.90419694 99.91013173 45.51743407 101.15829468 51.12442017 C103.40773938 61.27042024 105.51407529 71.44297628 107.59579468 81.62442017 C107.85000183 82.86695053 107.85000183 82.86695053 108.10934448 84.13458252 C109.3358423 90.1308182 110.55976412 96.12757844 111.78329468 102.12442017 C113.15652122 108.85395 114.53099686 115.58322229 115.90829468 122.31192017 C116.15972229 123.54040176 116.15972229 123.54040176 116.41622925 124.79370117 C118.73926823 136.13487859 121.1230992 147.46121904 123.56723022 158.77700806 C126.28156161 171.37278733 128.86386833 183.99535453 131.449646 196.61801147 C132.89107078 203.65436913 134.34060757 210.68904593 135.79049683 217.72366333 C137.12297855 224.1902633 138.45312747 230.65734378 139.78329468 237.12442017 C139.94934204 237.93167542 140.1153894 238.73893066 140.28646851 239.57064819 C141.5155764 245.54670045 142.74356939 251.52298104 143.97079468 257.49942017 C144.1419278 258.33251709 144.31306091 259.16561401 144.48937988 260.0239563 C146.56005206 270.10733706 148.62799871 280.19108929 150.59262085 290.29580688 C151.21131125 293.44379389 151.89258202 296.55302176 152.68539429 299.66226196 C153.98995969 304.84439314 155.06079104 310.0709511 156.13876343 315.30410767 C156.36117706 316.37734787 156.5835907 317.45058807 156.81274414 318.55635071 C157.53365017 322.03705392 158.25223011 325.5182329 158.97079468 328.99942017 C159.46959794 331.40952376 159.96854084 333.81959847 160.46762085 336.22964478 C162.60398127 346.55105919 164.73422899 356.87372364 166.85360718 367.19863892 C167.00431671 367.93280029 167.15502625 368.66696167 167.31030273 369.42337036 C168.46294707 375.0390338 168.46294707 375.0390338 169.01431274 377.72799683 C171.14088087 388.09372322 173.34632904 398.44112936 175.58309937 408.78359985 C177.69269606 418.58801386 179.65519644 428.41932289 181.60165405 438.25723267 C183.28643955 446.73864626 185.08420674 455.18820554 186.9571228 463.62979126 C188.55821779 470.91580311 189.96796941 478.23075035 191.34579468 485.56192017 C193.156045 495.18580197 195.22691258 504.67009086 197.78329468 514.12442017 C203.48786157 506.57714095 209.18831932 499.03174508 214.65829468 491.31192017 C220.36644995 483.25753233 226.2443064 475.3298275 232.1109314 467.39053345 C234.50927668 464.14068806 236.89698641 460.88310886 239.28329468 457.62442017 C245.16793316 449.59250773 251.07638993 441.57819262 256.98495483 433.56387329 C260.49737246 428.79926877 264.00835452 424.03360627 267.51937866 419.26797485 C270.50995907 415.20894049 273.50138045 411.15053018 276.49423218 407.09317017 C282.61799865 398.78986787 288.73089401 390.47994675 294.78329468 382.12442017 C298.56274004 376.90677879 302.35388793 371.69931565 306.18954468 366.52285767 C306.8010437 365.6965686 307.41254272 364.87027954 308.04257202 364.01895142 C309.25460911 362.38217797 310.46837939 360.74668602 311.68417358 359.11270142 C315.1473597 354.43393404 318.41986503 349.69367837 321.5171814 344.76358032 C321.93499878 344.22265747 322.35281616 343.68173462 322.78329468 343.12442017 C323.44329468 343.12442017 324.10329468 343.12442017 324.78329468 343.12442017 C324.99856812 342.45539673 325.21384155 341.78637329 325.43563843 341.09707642 C327.22590477 337.14811212 329.70614506 333.98259889 332.34579468 330.56192017 C332.88446167 329.85374146 333.42312866 329.14556274 333.9781189 328.41592407 C335.06838626 326.98262215 336.16081096 325.5509585 337.25546265 324.1210022 C342.87281716 316.78020238 348.35881696 309.35253707 353.71054077 301.81607056 C359.03577959 294.33508944 364.51015832 286.96380435 369.96884155 279.57998657 C372.91124142 275.59792819 375.84706947 271.61103248 378.78329468 267.62442017 C382.29216683 262.8605929 385.80227272 258.09770215 389.31845093 253.33926392 C395.05752973 245.5684211 400.76757142 237.77951952 406.40829468 229.93692017 C411.06658198 223.46079909 415.80598631 217.05242678 420.60702515 210.68154907 C424.73013088 205.20841206 428.77066188 199.6790626 432.78329468 194.12442017 C434.01201177 192.43659279 435.24119504 190.7491047 436.47079468 189.06192017 C438.88367428 185.74597451 441.28899054 182.42476265 443.68563843 179.09707642 C451.06409644 168.85428186 458.51510046 158.66808737 466.0171814 148.51553345 C468.9428557 144.55450854 471.86279773 140.58926299 474.78329468 136.62442017 C475.94993358 135.04106638 477.11660025 133.45773305 478.28329468 131.87442017 C478.86079468 131.09067017 479.43829468 130.30692017 480.03329468 129.49942017 C499.28329468 103.37442017 499.28329468 103.37442017 501.03475952 100.99746704 C502.19658783 99.42067688 503.35837198 97.84385418 504.52011108 96.26699829 C507.51043575 92.20828089 510.50162198 88.15020274 513.49423218 84.09317017 C518.88997652 76.77690665 524.27987859 69.45749097 529.61532593 62.09707642 C532.55022033 58.07283383 535.5120704 54.06865909 538.47079468 50.06192017 C543.11142095 43.77525978 547.71793449 37.4659372 552.28329468 31.12442017 C556.96581404 24.62625952 561.67133016 18.14552288 566.40829468 11.68692017 C567.0006189 10.87545532 567.59294312 10.06399048 568.20321655 9.22793579 C569.03562866 8.09581665 569.03562866 8.09581665 569.88485718 6.94082642 C570.37292847 6.2751062 570.86099976 5.60938599 571.36386108 4.92349243 C575.03333366 0.27259057 575.03333366 0.27259057 577.65170574 -0.24472332 C578.35687737 -0.24195794 579.06204901 -0.23919256 579.78858948 -0.23634338 C580.60047226 -0.24046738 581.41235504 -0.24459137 582.24884033 -0.24884033 C583.57916794 -0.23266159 583.57916794 -0.23266159 584.93637085 -0.21615601 C585.8731517 -0.21659409 586.80993256 -0.21703217 587.77510071 -0.21748352 C590.8756993 -0.21539122 593.97575914 -0.19203914 597.07626343 -0.16854858 C599.22431645 -0.16295421 601.3723733 -0.15868336 603.52043152 -0.15568542 C609.17747544 -0.14422424 614.83428873 -0.11474596 620.49124146 -0.08157349 C626.26238892 -0.05090012 632.0335736 -0.03718593 637.80477905 -0.02206421 C649.13105232 0.0101224 660.45715433 0.06133424 671.78329468 0.12442017 C670.74846827 6.70692655 669.65353172 13.17826225 667.90048218 19.60879517 C667.72524017 20.25962067 667.54999817 20.91044617 667.3694458 21.58099365 C666.99636657 22.96522717 666.62089676 24.34881842 666.24313354 25.73178101 C665.22530634 29.46073363 664.22758437 33.19506909 663.22860718 36.92910767 C662.92177002 38.07399155 662.92177002 38.07399155 662.60873413 39.24200439 C660.49872248 47.14005166 658.50381372 55.06559805 656.53329468 62.99942017 C656.28351364 64.00340851 656.28351364 64.00340851 656.02868652 65.02767944 C654.69122513 70.40484183 653.36058218 75.78367917 652.03378296 81.16348267 C649.71222779 90.57564065 647.30244242 99.94172615 644.65756226 109.26846313 C642.79658189 115.90743964 641.22029285 122.60251327 639.65609741 129.31655884 C638.34939083 134.87782469 636.91641596 140.38224766 635.34579468 145.87442017 C633.28727609 153.07923521 631.50375862 160.33186244 629.78329468 167.62442017 C628.13540863 174.60123159 626.45105601 181.5466958 624.47079468 188.43692017 C621.83837633 197.60621628 619.57728094 206.86617181 617.28329468 216.12442017 C612.45236919 235.61554503 612.45236919 235.61554503 610.09579468 243.87442017 C607.04867315 254.5535844 604.44501784 265.34404408 601.78329468 276.12442017 C594.97835416 303.66549476 594.97835416 303.66549476 591.55429077 315.68154907 C589.74840677 322.08584485 588.2361645 328.54864534 586.7281189 335.0284729 C585.00366742 342.36643599 583.03463381 349.62246677 581.01620483 356.88418579 C579.03700378 364.0586307 577.2915811 371.27186498 575.60531616 378.51992798 C574.31635911 384.01357313 572.89646801 389.44921637 571.34579468 394.87442017 C569.28738596 402.07925763 567.50351974 409.33180471 565.78329468 416.62442017 C563.89169891 424.64353398 561.87490565 432.59622598 559.60751343 440.51675415 C557.99621609 446.20342013 556.61865589 451.92979867 555.28329468 457.68692017 C553.82098218 463.98226084 552.23779748 470.19457952 550.34579468 476.37442017 C548.31112732 483.04819259 546.62557357 489.76963624 545.03329468 496.56192017 C542.61304005 506.88534203 539.96204825 517.13288239 537.22079468 527.37442017 C534.66910117 536.91184572 532.15748329 546.44739332 529.90829468 556.06192017 C529.7144519 556.88949829 529.52060913 557.71707642 529.32089233 558.56973267 C528.9679754 560.0780212 528.61510672 561.58632102 528.26229858 563.09463501 C527.56976298 566.02926346 526.8488988 568.95475048 526.09579468 571.87442017 C525.88567749 572.69426392 525.6755603 573.51410767 525.45907593 574.35879517 C524.78329468 576.12442017 524.78329468 576.12442017 522.78329468 577.12442017 C520.75098571 577.21594689 518.7156089 577.24193451 516.6812439 577.23794556 C515.40006683 577.23787003 514.11888977 577.23779449 512.79888916 577.23771667 C511.39525311 577.23260965 509.99161745 577.22739364 508.58798218 577.22207642 C507.15594533 577.22021162 505.72390784 577.21878801 504.29187012 577.2177887 C500.52056114 577.21396836 496.7492906 577.20414218 492.97799683 577.19308472 C489.13054932 577.18286022 485.2830956 577.17828885 481.43563843 577.17324829 C473.88483964 577.16251949 466.33407254 577.14544886 458.78329468 577.12442017 C458.92595264 575.54368913 459.07306675 573.96335992 459.22201538 572.38320923 C459.30345291 571.50312195 459.38489044 570.62303467 459.46879578 569.71627808 C459.92283287 565.97445379 460.89015202 562.47642216 461.97079468 558.87442017 C462.42474079 557.30304256 462.8778268 555.73141629 463.33016968 554.15957642 C463.56800171 553.34118286 463.80583374 552.52278931 464.0508728 551.67959595 C465.32420141 547.23737686 466.51665864 542.77328752 467.72079468 538.31192017 C469.69711663 531.02129013 471.74432091 523.75487831 473.84579468 516.49942017 C476.08493508 508.75497021 478.11001908 500.97558866 480.03182983 493.1468811 C481.45665139 487.36277041 483.02403672 481.63630587 484.69345093 475.91738892 C486.06461437 471.14534697 487.3608969 466.35445029 488.65829468 461.56192017 C490.63921653 454.25183691 492.6796162 446.9625725 494.78329468 439.68692017 C498.91377506 425.36393988 502.70376749 410.93422074 506.14266968 396.42910767 C506.78329468 394.12442017 506.78329468 394.12442017 507.72079468 391.88223267 C509.19832733 388.04716629 510.0792561 384.11713356 511.03329468 380.12442017 C512.79371468 372.90775864 514.70400867 365.75559611 516.78329468 358.62442017 C519.09462117 350.69149015 521.19605534 342.7269117 523.13485718 334.69473267 C524.17310359 330.42085529 525.39017115 326.29865008 526.78329468 322.12442017 C527.88487891 318.19738384 528.92482119 314.25407802 529.97079468 310.31192017 C532.35144525 301.39948461 534.77940208 292.50301529 537.28329468 283.62442017 C539.97908046 274.0577325 542.58675773 264.47002022 545.15390015 254.86807251 C547.1795644 247.31126676 549.27852228 239.77747344 551.40829468 232.24942017 C553.78180674 223.85068775 555.99908355 215.42922356 558.08065796 206.95376587 C560.13244512 198.6267738 562.49417037 190.40200378 564.96688843 182.19082642 C567.23579611 174.62393452 569.3434487 167.04868077 571.22079468 159.37442017 C573.10906367 151.65811465 575.20096276 144.0228847 577.41415405 136.39395142 C579.75036071 128.3148165 581.93257179 120.19776635 584.10263062 112.07266235 C586.14430309 104.44727396 588.25873837 96.84502756 590.40829468 89.24942017 C593.41969488 78.59272688 596.17403802 67.88610084 598.78329468 57.12442017 C597.6927478 58.68676392 597.6927478 58.68676392 596.58016968 60.28067017 C590.96320362 68.29883966 585.25673733 76.22848816 579.35214233 84.03726196 C575.63875319 88.95783274 572.00684488 93.93184657 568.40829468 98.93692017 C562.70647655 106.8661583 556.92949901 114.73736543 551.12704468 122.59317017 C548.12526327 126.65722582 545.14015754 130.73324282 542.15829468 134.81192017 C538.44803468 139.88405427 534.69046687 144.91823309 530.90829468 149.93692017 C525.48357842 157.13989949 520.19865301 164.43843839 514.93173218 171.75723267 C509.16546248 179.76691428 503.3065129 187.70888702 497.44345093 195.64785767 C491.68562482 203.44663537 485.94746921 211.25727121 480.28329468 219.12442017 C474.10235641 227.70806556 467.8354372 236.22643375 461.54940796 244.73330688 C458.62373365 248.69433179 455.70379162 252.65957734 452.78329468 256.62442017 C451.61665577 258.20777396 450.4499891 259.79110729 449.28329468 261.37442017 C448.70579468 262.15817017 448.12829468 262.94192017 447.53329468 263.74942017 C442.28329468 270.87442016 442.28329468 270.87442016 440.53305054 273.24966431 C439.36708662 274.83210202 438.20123364 276.41462148 437.03549194 277.9972229 C434.10898024 281.96993903 431.18051934 285.94119011 428.24813843 289.90957642 C422.50905962 297.68041923 416.79901794 305.46932081 411.15829468 313.31192017 C406.50119222 319.78639402 401.76156242 326.19200241 396.96395874 332.56289673 C391.06477878 340.39817728 385.22296592 348.22762608 380.00985718 356.54238892 C379.40270874 357.32549438 379.40270874 357.32549438 378.78329468 358.12442017 C378.12329468 358.12442017 377.46329468 358.12442017 376.78329468 358.12442017 C376.56286499 358.80117798 376.3424353 359.47793579 376.11532593 360.17520142 C374.39109766 363.99277427 372.02829157 367.01392353 369.47079468 370.31192017 C368.37947666 371.74178574 367.2896875 373.17281922 366.20126343 374.60488892 C365.63713745 375.34658325 365.07301147 376.08827759 364.49179077 376.85244751 C361.69766239 380.56810322 358.99168622 384.34605685 356.28329468 388.12442017 C352.17849371 393.8394018 348.02287287 399.50869139 343.78329468 405.12442017 C339.59000071 410.68077598 335.4730336 416.28583713 331.40829468 421.93692017 C322.64496915 434.1185082 313.75057476 446.20150464 304.72079468 458.18692017 C299.99464752 464.46208457 295.37616062 470.8093118 290.79013062 477.18740845 C286.13120646 483.66122694 281.40711541 490.08541209 276.66928101 496.50161743 C273.01486024 501.45102895 269.38081425 506.41429704 265.76766968 511.39395142 C259.97392763 519.36604924 254.15737527 527.32042645 248.22079468 535.18692017 C245.11693986 539.31076968 242.08331972 543.47837522 239.09579468 547.68692017 C234.89542815 553.59848463 230.63587167 559.46513439 226.34579468 565.31192017 C225.74227173 566.13828979 225.13874878 566.96465942 224.51693726 567.81607056 C223.66071777 568.97997314 223.66071777 568.97997314 222.78720093 570.16738892 C222.2800354 570.85856812 221.77286987 571.54974731 221.25033569 572.26187134 C220.76621216 572.87651245 220.28208862 573.49115356 219.78329468 574.12442017 C219.38525131 574.64982895 218.98720795 575.17523773 218.57710266 575.71656799 C215.9511366 577.77753107 213.92421604 577.50556015 210.61532593 577.51260376 C209.34390747 577.52206024 208.07248901 577.53151672 206.76254272 577.54125977 C205.37362354 577.53589007 203.9847072 577.52973713 202.59579468 577.52285767 C201.17237194 577.52487855 199.7489502 577.52779012 198.32553101 577.53155518 C195.34292743 577.53597788 192.36059347 577.52954952 189.37802124 577.51553345 C185.55444377 577.4984412 181.73149802 577.50828272 177.90794373 577.52625084 C174.9688338 577.53709035 172.02987371 577.53364166 169.09075928 577.52586746 C167.68094813 577.5238659 166.2711234 577.52632323 164.86132812 577.53330612 C162.8913092 577.5409224 160.92124259 577.52725596 158.95126343 577.51260376 C157.83002075 577.51021698 156.70877808 577.5078302 155.55355835 577.50537109 C152.78329468 577.12442017 152.78329468 577.12442017 150.95230103 575.78477478 C149.13629557 573.20547909 148.80102627 570.60063434 148.20516968 567.51895142 C148.07300049 566.85521011 147.9408313 566.19146881 147.80465698 565.50761414 C147.37072987 563.31924484 146.95229859 561.12819097 146.53329468 558.93692017 C145.92353782 555.84090589 145.30598944 552.74645245 144.68954468 549.65176392 C144.53334656 548.86150818 144.37714844 548.07125244 144.21621704 547.25704956 C142.35338035 537.8673683 140.26928795 528.52776463 138.18075562 519.18618774 C136.46338653 511.44216319 134.92241934 503.6887185 133.52059937 495.88272095 C132.88491713 492.64242546 132.12731495 489.46326698 131.30825806 486.26550293 C130.31225906 482.20328379 129.51432371 478.09917097 128.68954468 473.99942017 C128.49735352 473.05308716 128.30516235 472.10675415 128.10714722 471.13174438 C127.29194442 467.11747066 126.48092546 463.10235453 125.66952515 459.08731079 C125.07348578 456.14105043 124.47531024 453.19522914 123.87704468 450.24942017 C123.60664368 448.90533081 123.60664368 448.90533081 123.33078003 447.53408813 C122.41217958 443.01207542 121.40620041 438.5340074 120.26229858 434.06399536 C119.42232404 430.66278346 118.74062819 427.23017573 118.04891968 423.79629517 C117.89054123 423.01825531 117.73216278 422.24021545 117.56898499 421.43859863 C117.23095562 419.77796073 116.89362584 418.1171803 116.5569458 416.45626831 C115.66440835 412.05563577 114.765276 407.65635448 113.86532593 403.25723267 C113.68615128 402.38138519 113.50697662 401.50553772 113.32237244 400.60314941 C111.8273818 393.31005471 110.28940241 386.02707406 108.72079468 378.74942017 C108.48175415 377.63985962 108.24271362 376.53029907 107.99642944 375.38711548 C107.50959639 373.12925391 107.02253491 370.87144159 106.5352478 368.61367798 C105.17156041 362.28581425 103.81768276 355.95587792 102.47079468 349.62442017 C102.32811157 348.95377533 102.18542847 348.28313049 102.03842163 347.59216309 C99.36585687 335.01232309 96.78814911 322.41359055 94.22079468 309.81192017 C90.84184153 293.22683589 87.37358984 276.665241 83.78329468 260.12442017 C79.93245659 242.38325407 76.24131729 224.61503218 72.62649536 206.82455444 C70.38170639 195.78738497 68.0927948 184.77199697 65.52304077 173.80508423 C63.50934239 165.13042483 61.81194311 156.39457223 60.08773804 147.65859985 C58.1265771 137.75156176 56.03923494 127.8760756 53.90170288 118.00576782 C52.21307217 110.18975589 50.59652713 102.36305983 49.07577515 94.51260376 C48.28602279 90.47124416 47.38126936 86.49000294 46.35897827 82.49942017 C44.70166506 75.66212463 43.34909913 68.74780353 41.90634155 61.86270142 C41.64788452 60.64195923 41.38942749 59.42121704 41.12313843 58.16348267 C40.88973755 57.05182739 40.65633667 55.94017212 40.41586304 54.79483032 C39.90194044 52.17087515 39.90194044 52.17087515 38.78329468 50.12442017 C38.53591553 51.15937622 38.53591553 51.15937622 38.28353882 52.21524048 C34.81068279 66.72321807 31.28323759 81.21619059 27.65829468 95.68692017 C27.38692688 96.77072968 27.38692688 96.77072968 27.1100769 97.87643433 C25.14715245 105.71423042 23.17921161 113.55076365 21.20858765 121.3866272 C19.7857599 127.04455555 18.36543455 132.70310844 16.94619751 138.36193848 C16.39094985 140.57370353 15.83479737 142.78524168 15.27761841 144.996521 C12.05451458 157.78866688 8.95832477 170.60015665 6.01959229 183.46066284 C3.65111594 193.7872623 1.10633156 204.06588247 -1.48278809 214.33908081 C-2.31064669 217.62418566 -3.13523131 220.91009915 -3.95913696 224.19619751 C-6.00325172 232.34639847 -8.05259763 240.49528194 -10.10183716 248.64419556 C-11.84493216 255.576593 -13.58592384 262.50951265 -15.32434082 269.44308472 C-16.12313217 272.62561891 -16.92482799 275.80741095 -17.72671509 278.98916626 C-20.69327132 290.79797205 -23.5288287 302.62944417 -26.21620178 314.50518799 C-27.41126575 319.76251872 -28.66527633 324.96066419 -30.21670532 330.12442017 C-32.02510497 336.19652628 -33.44532569 342.32283396 -34.84170532 348.49942017 C-37.4320334 359.93735348 -40.22936155 371.31456668 -43.09170532 382.68692017 C-46.6457198 396.80882648 -50.14254216 410.94197355 -53.52871704 425.10513306 C-55.33263716 432.61428127 -57.25848551 440.08007512 -59.26602173 447.53726196 C-60.67072034 452.83752821 -61.95219963 458.16426311 -63.21670532 463.49942017 C-63.47379272 464.57522339 -63.73088013 465.65102661 -63.99575806 466.75942993 C-65.11776111 471.46214428 -66.23095166 476.16656344 -67.31436157 480.87832642 C-68.91452172 487.82639023 -70.6315546 494.70599752 -72.59170532 501.56192017 C-74.99863006 510.00291029 -76.96774975 518.52442292 -78.91104126 527.08242798 C-81.50426203 538.47466928 -84.31621582 549.80686489 -87.21670532 561.12442017 C-87.42601685 561.94233032 -87.63532837 562.76024048 -87.85098267 563.60293579 C-91.02058433 575.92829917 -91.02058433 575.92829917 -92.21670532 577.12442017 C-94.21102262 577.21847158 -96.20870075 577.24185266 -98.20523071 577.23794556 C-99.48648331 577.23787003 -100.7677359 577.23779449 -102.08781433 577.23771667 C-103.4966638 577.23260926 -104.90551288 577.22739325 -106.31436157 577.22207642 C-107.74782767 577.22021219 -109.1812944 577.21878831 -110.61476135 577.2177887 C-114.39430489 577.21396389 -118.17381022 577.20413393 -121.95333862 577.19308472 C-125.80739831 577.18286979 -129.66146414 577.1782909 -133.51553345 577.17324829 C-141.08260819 577.16251162 -148.64965141 577.14543566 -156.21670532 577.12442017 C-156.07423171 575.53691941 -155.92707908 573.94983818 -155.77798462 572.36294556 C-155.69654709 571.47909683 -155.61510956 570.59524811 -155.53120422 569.68461609 C-155.09820345 566.15974904 -154.11708819 562.93822976 -153.02920532 559.56192017 C-150.78013577 552.33620373 -148.94353995 545.05389572 -147.21670532 537.68692017 C-145.33586914 529.69321697 -143.35031096 521.75740421 -141.10903931 513.85757446 C-136.90489365 499.0187261 -133.14505785 484.05228127 -129.48452759 469.07119751 C-128.04351627 463.23139148 -126.47476658 457.43719935 -124.84561157 451.64785767 C-121.85462062 440.99361764 -119.2219174 430.25587468 -116.59170532 419.50796509 C-114.23842106 409.90821994 -111.76737703 400.37895398 -108.9259491 390.9112854 C-107.30625785 385.49907631 -105.90550285 380.0693014 -104.65420532 374.56192017 C-104.24080902 372.78832725 -103.82673869 371.01489132 -103.41201782 369.24160767 C-103.2125354 368.38405884 -103.01305298 367.52651001 -102.80752563 366.64297485 C-101.91002883 362.81711656 -100.97667923 359.00067144 -100.02920532 355.18692017 C-99.72627563 353.96102173 -99.42334595 352.73512329 -99.11123657 351.47207642 C-98.55324502 349.38387223 -97.9406829 347.30859583 -97.24795532 345.26113892 C-95.90683802 341.18190713 -94.91638949 337.0454557 -93.90420532 332.87442017 C-92.35867767 326.5924517 -90.74682122 320.34379987 -88.96670532 314.12442017 C-87.21433302 307.97560619 -85.61741718 301.79371693 -84.07608032 295.58926392 C-83.88350647 294.81426544 -83.69093262 294.03926697 -83.49252319 293.24078369 C-82.52272454 289.33050385 -81.55914322 285.41878475 -80.60244751 281.50527954 C-78.57666904 273.26697942 -76.37758734 265.11311496 -73.94239807 256.98614502 C-72.35621711 251.67227648 -70.99094015 246.34637023 -69.77920532 240.93692017 C-68.08322461 233.59744091 -66.22738006 226.32144691 -64.21670532 219.06192017 C-62.33551902 212.26911017 -60.52322421 205.46944789 -58.84170532 198.62442017 C-56.84594387 190.51081053 -54.70414601 182.4417155 -52.52920532 174.37442017 C-50.15737414 165.56941871 -47.8544539 156.75135368 -45.65420532 147.90176392 C-45.43612717 147.02474823 -45.21804901 146.14773254 -44.99336243 145.24414062 C-43.92430914 140.93726245 -42.86152142 136.62892475 -41.80581665 132.3187561 C-39.71801383 123.8392518 -37.47659589 115.44042265 -34.96495056 107.07635498 C-33.14918769 100.99739314 -31.63577719 94.87041795 -30.21670532 88.68692017 C-28.5735831 81.68781623 -26.8922964 74.72132357 -24.90420532 67.81192017 C-22.51543138 59.496631 -20.44842672 51.10702344 -18.37213135 42.70968628 C-15.62018758 31.58094977 -12.86644932 20.46151646 -9.71670532 9.43692017 C-9.47379761 8.58315796 -9.23088989 7.72939575 -8.98062134 6.84976196 C-7.06714923 0.28400831 -6.88749911 0.01170141 0 0 Z " fill="#666766" transform="translate(315.2167053222656,882.8755798339844)"/>
<path d="M0 0 C1.4303443 0.00394052 1.4303443 0.00394052 2.88958445 0.00796065 C3.89700901 0.0068068 4.90443357 0.00565296 5.94238615 0.00446415 C9.36337451 0.00178913 12.78431706 0.00632688 16.2053031 0.01075396 C18.66454729 0.01031844 21.12379143 0.00944388 23.58303532 0.00816479 C28.95320722 0.00638711 34.32336506 0.00774459 39.69353476 0.011803 C47.67886513 0.01782107 55.66418849 0.01814039 63.64952071 0.01726101 C77.08004386 0.01594494 90.5105621 0.01929674 103.94108382 0.02527842 C117.24536848 0.03118873 130.5496511 0.03504301 143.85393706 0.03613123 C144.680131 0.03619997 145.50632494 0.03626871 146.35755506 0.03633953 C150.55311287 0.03667785 154.74867068 0.03697924 158.94422849 0.03726641 C188.68705208 0.03936868 218.42987299 0.04611121 248.17269507 0.05556902 C277.07341107 0.06474847 305.97412634 0.07183453 334.87484351 0.07607684 C335.76516931 0.07620836 336.6554951 0.07633989 337.57280047 0.0764754 C346.5135472 0.07779388 355.45429393 0.0790697 364.39504067 0.08031426 C382.60953533 0.0828507 400.82402995 0.08567195 419.03852454 0.08866534 C419.87605865 0.08880263 420.71359275 0.08893992 421.57650668 0.08908137 C477.53720016 0.09828719 533.49789211 0.11415374 589.45858374 0.13100848 C588.88062991 4.91578934 588.24004952 9.50863486 587.07918921 14.19448504 C586.8015473 15.32477129 586.5239054 16.45505755 586.2378501 17.6195949 C585.78637107 19.427354 585.78637107 19.427354 585.32577124 21.27163348 C585.01084723 22.54786578 584.69592322 23.82409808 584.37145606 25.13900408 C583.53321471 28.53553097 582.68944182 31.93065998 581.84450904 35.32552752 C581.01189049 38.67519839 580.18474024 42.02621801 579.35702124 45.37710223 C576.75359119 55.90855011 574.13520914 66.43624178 571.49935523 76.95962176 C571.1854383 78.2132149 570.87152136 79.46680804 570.5480918 80.75838885 C569.96058904 83.10270948 569.37233346 85.44684165 568.78313819 87.79073748 C567.05466806 94.68280558 565.38875105 101.58713512 563.77108374 108.50600848 C562.22379188 115.08447079 560.4939333 121.55985791 558.56014624 128.03725848 C557.56978311 131.55108926 556.7742133 135.0989041 555.98202124 138.66225848 C555.72026099 139.83699725 555.45850073 141.01173602 555.18880835 142.22207293 C554.66668582 144.59084009 554.15422511 146.9617608 553.65218726 149.3348659 C553.41169654 150.42646014 553.17120581 151.51805437 552.92342749 152.64272723 C552.71322974 153.62716814 552.50303198 154.61160906 552.2864646 155.62588152 C551.38136058 158.36468199 550.68505169 159.35107944 548.45858374 161.13100848 C546.52194585 161.50502197 546.52194585 161.50502197 544.27724287 161.50360397 C543.41905117 161.51034584 542.56085947 161.51708772 541.67666197 161.5240339 C540.73156182 161.51615286 539.78646167 161.50827182 538.81272212 161.50015196 C537.80636661 161.50361349 536.80001111 161.50707503 535.76315999 161.51064146 C532.35772156 161.51864436 528.95270029 161.50507193 525.54728308 161.49177203 C523.09456148 161.49307905 520.64184029 161.49570356 518.18912134 161.49953952 C512.83935603 161.50486666 507.48971796 161.50081317 502.1399726 161.4886249 C494.18506964 161.47055155 486.23022995 161.46961452 478.2753102 161.47225087 C464.89519284 161.47619673 451.51511985 161.46615257 438.1350154 161.44819865 C424.88262135 161.43046157 411.63024578 161.41890364 398.37783995 161.41564021 C397.55455618 161.41543399 396.73127242 161.41522777 395.88304065 161.4150153 C391.70218087 161.41400033 387.52132107 161.41309617 383.34046125 161.41223467 C353.70965681 161.40592957 324.07887652 161.38570672 294.4480857 161.35732684 C265.65804794 161.32978399 236.86801679 161.30852803 208.07796851 161.2958034 C207.19089387 161.29540882 206.30381924 161.29501424 205.38986356 161.29460771 C196.48168291 161.29065222 187.57350222 161.28682477 178.66532147 161.28309113 C160.51752569 161.27548202 142.36973034 161.26701826 124.22193518 161.25803789 C123.38748663 161.25762603 122.55303808 161.25721416 121.69330321 161.2567898 C65.94838659 161.22917706 10.20348368 161.18157792 -45.54141626 161.13100848 C-46.99875178 158.21633743 -46.05405476 156.50291717 -45.24844751 153.37319598 C-44.95002954 152.19902117 -44.65161157 151.02484637 -44.34415063 149.81509051 C-44.01737329 148.55809344 -43.69059595 147.30109637 -43.35391626 146.00600848 C-43.02180727 144.70655259 -42.69042944 143.40690962 -42.35977563 142.10708269 C-41.42611985 138.4468747 -40.48470968 134.78874229 -39.54141626 131.13100848 C-37.57078804 123.43602563 -35.67333356 115.72979509 -33.88516626 107.99038348 C-33.73474878 107.34016222 -33.5843313 106.68994097 -33.42935571 106.02001604 C-32.67383099 102.75231174 -31.92254443 99.48379272 -31.17813501 96.21352801 C-29.4966272 88.91067817 -27.59343781 81.71841244 -25.49649438 74.52456316 C-23.988126 69.16507429 -22.76047981 63.7498239 -21.54141626 58.31850848 C-21.02203972 56.04112944 -20.50250846 53.76378568 -19.98282251 51.48647723 C-19.50214142 49.36803581 -19.02165519 47.24955017 -18.54141626 45.13100848 C-16.35464281 35.4999784 -14.01947109 25.94940936 -11.29117212 16.45522723 C-10.00892229 11.9655307 -8.92771969 7.47409475 -7.99307641 2.8985866 C-6.93875829 -1.22750162 -3.66208033 0.00960789 0 0 Z " fill="#666766" transform="translate(2319.54141625762,882.8689915239811)"/>
<path d="M0 0 C0.85376016 -0.00155999 1.70752032 -0.00311998 2.587152 -0.00472724 C5.46457204 -0.00873437 8.34193986 -0.0055487 11.21936035 -0.00241089 C13.27549775 -0.00376506 15.33163491 -0.00554508 17.38777161 -0.00772095 C22.98472242 -0.01229343 28.58165488 -0.01050647 34.17860603 -0.00734186 C40.02467017 -0.00481731 45.87073268 -0.00715606 51.71679688 -0.00872803 C61.53585087 -0.01054944 71.35489734 -0.00814414 81.1739502 -0.00338745 C92.54038326 0.00205511 103.9067984 0.00029244 115.27323103 -0.00521386 C125.01674793 -0.00974578 134.76025942 -0.01039515 144.50377703 -0.00777519 C150.32992885 -0.00621285 156.15607223 -0.00601747 161.98222351 -0.00931168 C167.45848115 -0.01219153 172.93471557 -0.01021257 178.41097069 -0.00441742 C180.42582854 -0.00309044 182.44068833 -0.0034829 184.45554543 -0.00568008 C187.19605769 -0.00839399 189.93649455 -0.00500746 192.67700195 0 C193.48302022 -0.00223072 194.2890385 -0.00446144 195.11948156 -0.00675976 C200.6102009 0.0128336 200.6102009 0.0128336 202.83850098 1.12698364 C202.23279523 8.19111812 200.81737513 14.7751839 199.02600098 21.62698364 C198.47810434 23.7647429 197.93123362 25.90276534 197.38537598 28.04104614 C197.11918457 29.08035278 196.85299316 30.11965942 196.57873535 31.19046021 C195.58931958 35.11549084 194.67705313 39.05593159 193.77600098 43.00198364 C192.49408991 48.57283125 191.0366642 54.06919591 189.46350098 59.56448364 C187.32909259 67.03035761 185.54972534 74.55369651 183.83850098 82.12698364 C182.16434064 89.53261858 180.43624992 96.89175242 178.33850098 104.18948364 C175.80593387 113.01225962 173.67215952 121.91783842 171.56115723 130.84963989 C171.15471642 132.56781087 170.74823223 134.28597163 170.34130859 136.00402832 C169.97534069 137.54921874 169.60975005 139.09449852 169.24438477 140.63983154 C165.33845208 157.13225304 161.22507726 173.56844292 157.0345459 189.990448 C155.16445219 197.31977598 153.3022712 204.65111755 151.44006348 211.98245239 C151.24946098 212.73270439 151.05885849 213.48295639 150.86248016 214.2559433 C146.65280699 230.82919515 142.48566398 247.41298938 138.33850098 264.00198364 C138.17094677 264.67197262 138.00339256 265.34196159 137.83076096 266.03225327 C133.30736394 284.12082076 128.81457508 302.21648736 124.48693848 320.35305786 C122.81140229 327.34729176 121.01902395 334.27102314 118.83850098 341.12698364 C113.58533449 341.99972188 108.54714271 342.26926127 103.22758484 342.25396729 C102.38588676 342.25552728 101.54418869 342.25708727 100.67698461 342.25869453 C97.87037239 342.2626677 95.06381472 342.25952925 92.25720215 342.25637817 C90.2397356 342.2577338 88.2222693 342.25951464 86.20480347 342.26168823 C80.73624366 342.26624193 75.26770274 342.26448186 69.7991426 342.26130915 C64.07856301 342.25877665 58.35798504 342.26112541 52.6374054 342.26269531 C43.03654693 342.26451366 33.43569616 342.26211868 23.83483887 342.25735474 C12.72335005 342.25190501 1.61187956 342.25368127 -9.49960881 342.25918114 C-19.03516033 342.26371255 -28.57070632 342.26436292 -38.10625857 342.26174247 C-43.80378596 342.26018085 -49.50130472 342.25998297 -55.19883156 342.26327896 C-60.54957696 342.26615834 -65.90029859 342.26418076 -71.25104141 342.2583847 C-73.21913933 342.2570578 -75.18723924 342.25745006 -77.15533638 342.25964737 C-79.83208534 342.26236137 -82.50875712 342.25897473 -85.1855011 342.25396729 C-86.36606692 342.25731337 -86.36606692 342.25731337 -87.57048255 342.26072705 C-92.93319788 342.24113421 -92.93319788 342.24113421 -95.16149902 341.12698364 C-93.7849971 333.95349816 -92.19372918 326.85044427 -90.47399902 319.75198364 C-90.21489746 318.67690552 -89.9557959 317.60182739 -89.68884277 316.49417114 C-87.4357116 307.18122894 -85.11095872 297.8866054 -82.77258301 288.59475708 C-80.80118423 280.74398656 -78.90161655 272.87860208 -77.03649902 265.00198364 C-75.38118383 258.02051848 -73.64153616 251.08591256 -71.66149902 244.18948364 C-68.34473618 232.62171997 -65.81537115 220.86039661 -63.16149902 209.12698364 C-61.02798655 199.72392653 -58.72037545 190.41574621 -56.0892334 181.13894653 C-53.07314627 170.40163025 -50.62637006 159.51890903 -48.13415527 148.65042114 C-46.50795514 141.59165817 -44.76884624 134.59478616 -42.78649902 127.62698364 C-40.47607926 119.49241782 -38.48147886 111.29831458 -36.53308105 103.07034302 C-34.35695367 93.89114241 -32.07468099 84.74093046 -29.77185059 75.59280396 C-27.80112762 67.742576 -25.90166814 59.87788086 -24.03649902 52.00198364 C-22.15784024 44.08725231 -20.15145365 36.22996758 -17.92150879 28.40701294 C-16.13718896 22.13611276 -14.57479077 15.82246961 -13.05603027 9.48245239 C-12.27514328 6.55327368 -11.46982168 3.85981205 -10.16149902 1.12698364 C-6.96772421 -0.46990376 -3.5074866 -0.00970726 0 0 Z " fill="#666766" transform="translate(2456.1614990234375,1117.8730163574219)"/>
<path d="M0 0 C1.88482445 0.56723861 3.76968846 1.13435269 5.65551758 1.69824219 C13.08278775 3.94346768 20.01185461 6.60676002 27 10 C28.52623483 10.70423119 30.05369138 11.40581772 31.58203125 12.10546875 C47.99704345 19.66199319 47.99704345 19.66199319 55 25 C55.98871094 25.72703125 56.97742187 26.4540625 57.99609375 27.203125 C75.2133089 40.00810755 89.806844 54.63198815 101 73 C101.35690918 73.57524414 101.71381836 74.15048828 102.08154297 74.74316406 C117.14605524 99.40962239 121.22162625 127.49150797 121.1875 155.8125 C121.18689575 156.73140015 121.1862915 157.65030029 121.18566895 158.5970459 C121.14869825 179.25464683 119.38130795 198.79613202 115 219 C114.78859375 219.9904834 114.5771875 220.9809668 114.359375 222.00146484 C111.07511597 237.17445512 106.68678298 251.56256947 101 266 C100.42824234 267.49343482 99.85662065 268.98692169 99.28515625 270.48046875 C91.07036822 291.53931949 79.45626288 310.9003433 66 329 C65.58411621 329.56299805 65.16823242 330.12599609 64.73974609 330.70605469 C51.12628905 349.00161192 34.98249871 365.17072285 16.67822266 378.75439453 C15.57050382 379.57656234 14.46592894 380.40298524 13.36474609 381.23388672 C-7.1176723 396.66148659 -29.89987082 407.48479623 -54 416 C-54.98613281 416.35578125 -55.97226563 416.7115625 -56.98828125 417.078125 C-69.84600837 421.55965644 -83.04062295 424.80563094 -96.4375 427.1875 C-97.29255127 427.3421875 -98.14760254 427.496875 -99.02856445 427.65625 C-116.7796205 430.65964707 -134.41279634 431.32319524 -152.39086914 431.26074219 C-156.06087722 431.25000475 -159.73039711 431.26071061 -163.40039062 431.2734375 C-180.09896643 431.28405669 -196.657248 430.83304109 -213 427.0625 C-214.18166748 426.80146484 -214.18166748 426.80146484 -215.38720703 426.53515625 C-221.31218372 425.20737569 -227.17862627 423.72877159 -233 422 C-233.97453125 421.72671875 -234.9490625 421.4534375 -235.953125 421.171875 C-262.31591997 413.50978188 -286.31648791 400.65089831 -306.16796875 381.671875 C-308.30922896 379.65170675 -310.43715789 377.80773866 -312.75 376 C-317.65764602 371.89587285 -321.49511826 366.30898186 -325 361 C-325 360.34 -325 359.68 -325 359 C-325.66 359 -326.32 359 -327 359 C-327.87591797 357.453125 -327.87591797 357.453125 -328.76953125 355.875 C-330.08224012 353.57357979 -331.42576929 351.31439292 -332.82421875 349.0625 C-350.06179083 320.73072535 -355.64661743 288.62908302 -355.4375 255.9375 C-355.43412628 254.90885834 -355.43075256 253.88021667 -355.42727661 252.82040405 C-355.35025719 236.56426627 -354.52638173 220.92335185 -351 205 C-350.74798828 203.84564453 -350.49597656 202.69128906 -350.23632812 201.50195312 C-345.78726698 181.60387392 -340.09322463 162.29815964 -331 144 C-330.37580318 142.71508599 -329.75213277 141.42991617 -329.12890625 140.14453125 C-320.74186541 122.97766234 -311.04018924 106.98949715 -299.26171875 91.921875 C-297.48552902 89.62724647 -295.7792834 87.31966809 -294.125 84.9375 C-292.2391814 82.3306331 -290.43505066 80.09918161 -288 78 C-287.34 78 -286.68 78 -286 78 C-285.73574219 77.4112207 -285.47148438 76.82244141 -285.19921875 76.21582031 C-283.95631056 73.91927416 -282.64993519 72.39166834 -280.8125 70.546875 C-280.19632813 69.928125 -279.58015625 69.309375 -278.9453125 68.671875 C-278.30335937 68.03765625 -277.66140625 67.4034375 -277 66.75 C-276.03707031 65.77546875 -276.03707031 65.77546875 -275.0546875 64.78125 C-274.43851563 64.16765625 -273.82234375 63.5540625 -273.1875 62.921875 C-272.62417969 62.36081055 -272.06085938 61.79974609 -271.48046875 61.22167969 C-270 60 -270 60 -268 60 C-267.505 58.515 -267.505 58.515 -267 57 C-262.54285714 53 -262.54285714 53 -260 53 C-260 52.34 -260 51.68 -260 51 C-258.42700195 49.62719727 -258.42700195 49.62719727 -256.23828125 48.06640625 C-255.05395508 47.2165918 -255.05395508 47.2165918 -253.84570312 46.34960938 C-253.00974609 45.75986328 -252.17378906 45.17011719 -251.3125 44.5625 C-250.49587891 43.97662109 -249.67925781 43.39074219 -248.83789062 42.78710938 C-237.92179519 35 -237.92179519 35 -235 35 C-235 34.34 -235 33.68 -235 33 C-217.08282269 23.03837353 -199.25308258 14.07433086 -180 7 C-179.27973633 6.73300293 -178.55947266 6.46600586 -177.81738281 6.19091797 C-165.14607956 1.55052006 -152.23096814 -1.41883974 -139 -4 C-137.67875122 -4.2618811 -137.67875122 -4.2618811 -136.33081055 -4.52905273 C-129.15134764 -5.90057188 -121.95297315 -6.78429462 -114.6875 -7.5625 C-113.48907471 -7.69180908 -112.29064941 -7.82111816 -111.0559082 -7.9543457 C-107.70470011 -8.31083779 -104.35276308 -8.65847497 -101 -9 C-99.88625 -9.11456543 -99.88625 -9.11456543 -98.75 -9.23144531 C-67.12491755 -12.36380253 -30.16518827 -10.58002587 0 0 Z M-103 35 C-104.97653939 35.21115395 -106.95310451 35.4220671 -108.9296875 35.6328125 C-111.14081821 35.87847549 -113.35175466 36.12589282 -115.5625 36.375 C-116.60365967 36.48875977 -117.64481934 36.60251953 -118.7175293 36.71972656 C-128.08064069 37.82621574 -137.10853738 39.8363232 -146 43 C-147.17691406 43.3815625 -148.35382813 43.763125 -149.56640625 44.15625 C-165.46963982 49.44064101 -181.29076929 56.26510653 -195 66 C-195.89460938 66.62390625 -196.78921875 67.2478125 -197.7109375 67.890625 C-209.65179774 76.3863631 -221.69065399 85.63424255 -231.18359375 96.8671875 C-233.25414658 99.29841728 -235.40564316 101.64510121 -237.5625 104 C-241.31625162 108.16660078 -244.75121311 112.4324851 -248 117 C-248.81210938 118.11955078 -248.81210938 118.11955078 -249.640625 119.26171875 C-270.82240149 148.88758182 -285.0187005 184.10890022 -291 220 C-291.17877686 221.01666748 -291.35755371 222.03333496 -291.54174805 223.08081055 C-293.11662048 232.81555656 -293.35807973 242.35488972 -293.3125 252.1875 C-293.31067719 253.00326508 -293.30885437 253.81903015 -293.30697632 254.65951538 C-293.23905235 272.70937053 -291.13833092 288.97653565 -285 306 C-284.77441406 306.63921387 -284.54882812 307.27842773 -284.31640625 307.93701172 C-279.46033565 321.52097756 -272.25804679 332.96311452 -263 344 C-262.236875 345.010625 -261.47375 346.02125 -260.6875 347.0625 C-256.55010137 351.58477292 -251.85013404 355.26817712 -247 359 C-246.01902344 359.75796875 -245.03804687 360.5159375 -244.02734375 361.296875 C-210.31143212 386.01903524 -164.36299618 390.30006819 -124 387 C-123.28811523 386.94859863 -122.57623047 386.89719727 -121.84277344 386.84423828 C-104.90394858 385.55424992 -87.52742973 380.84974585 -72 374 C-70.82824219 373.48824219 -69.65648438 372.97648437 -68.44921875 372.44921875 C-54.30085299 366.12752974 -41.10963695 358.72134744 -29 349 C-28.030625 348.23429687 -27.06125 347.46859375 -26.0625 346.6796875 C-21.21347877 342.7925645 -16.61461645 338.82766334 -12.33984375 334.3125 C-11 333 -11 333 -9 332 C-9 331.34 -9 330.68 -9 330 C-8.34 330 -7.68 330 -7 330 C-5.41808182 328.51573767 -5.41808182 328.51573767 -3.875 326.625 C-3.33617188 325.99851562 -2.79734375 325.37203125 -2.2421875 324.7265625 C-0.80532853 323.08391572 -0.80532853 323.08391572 -1 321 C-0.34 321 0.32 321 1 321 C2.3637976 319.61986159 2.3637976 319.61986159 3.72265625 317.7734375 C4.25705322 317.07782715 4.7914502 316.3822168 5.34204102 315.66552734 C5.90979248 314.90965332 6.47754395 314.1537793 7.0625 313.375 C7.64378662 312.60752441 8.22507324 311.84004883 8.82397461 311.04931641 C14.75120151 303.13926081 20.18993326 294.96968662 25.07421875 286.37109375 C26.56995806 283.75279147 28.12554424 281.22451768 29.75 278.6875 C43.47566586 255.79986575 51.47545932 228.49263529 56.3125 202.4375 C56.47194092 201.58244873 56.63138184 200.72739746 56.7956543 199.84643555 C58.835523 188.15066323 59.18119363 176.41217565 59.1875 164.5625 C59.19974609 163.35529297 59.21199219 162.14808594 59.22460938 160.90429688 C59.27366781 130.34088901 49.7978637 100.47776402 30 77 C28.07859291 75.13075781 26.15435552 73.61576664 24 72 C22.824375 70.7934375 22.824375 70.7934375 21.625 69.5625 C16.06641491 63.72569527 16.06641491 63.72569527 9 61 C9 60.34 9 59.68 9 59 C-24.02831312 39.22316813 -64.58247053 30.50349244 -103 35 Z " fill="#666766" transform="translate(2164,1040)"/>
<path d="M0 0 C63.36 0 126.72 0 192 0 C191.32124455 6.10879907 190.55391675 11.19710568 188.8125 16.9375 C186.67662077 24.23943297 184.89776033 31.59108645 183.2265625 39.01171875 C180.18517634 52.34615278 176.90380131 65.6130718 173.5625 78.875 C172.98737442 81.16603281 172.41250729 83.45713051 171.83789062 85.74829102 C170.46606867 91.21636951 169.09192113 96.68385922 167.71661377 102.15106201 C166.14162671 108.41251088 164.56922274 114.67460383 163 120.9375 C162.73155273 122.00814697 162.46310547 123.07879395 162.18652344 124.18188477 C160.3191957 131.65534796 158.51114838 139.14197661 156.77148438 146.64624023 C155.64862534 151.44666828 154.41650811 156.20865593 153.1328125 160.96875 C151.0012749 168.87983547 149.05823334 176.83260442 147.13867188 184.7973938 C146.14974071 188.89972959 145.1546033 193.00056099 144.16015625 197.1015625 C143.96769318 197.89581131 143.7752301 198.69006012 143.57693481 199.50837708 C142.23774067 205.03141428 140.88404635 210.55050905 139.5 216.0625 C139.31961182 216.78155518 139.13922363 217.50061035 138.95336914 218.24145508 C138.14513975 221.45765536 137.33474892 224.67330873 136.5234375 227.88873291 C135.17917832 233.21670792 133.83809273 238.54547292 132.5 243.875 C132.30216919 244.66252655 132.10433838 245.4500531 131.9005127 246.26144409 C129.35844415 256.39437555 126.9257658 266.54017829 124.671875 276.74169922 C123.28366762 282.95127614 121.63396233 289.05576389 119.8762207 295.16967773 C118.18487542 301.13152056 116.78472184 307.13946575 115.4375 313.1875 C114.81826104 315.93489507 114.19805302 318.68206981 113.57763672 321.42919922 C113.20533369 323.08615226 112.83687266 324.74397557 112.47314453 326.40283203 C112.002833 328.52405174 111.50585077 330.63702188 111 332.75 C110.731875 333.92046875 110.46375 335.0909375 110.1875 336.296875 C109 339 109 339 106.90063572 340.15307236 C103.36148571 341.18643341 100.05431959 341.2771593 96.40232849 341.25396729 C95.26696792 341.25864726 95.26696792 341.25864726 94.10867077 341.26342177 C91.57684347 341.27138797 89.04525675 341.26508357 86.51342773 341.25878906 C84.69654195 341.26149951 82.87965726 341.26506075 81.06277466 341.26940918 C76.13111387 341.27852835 71.19953674 341.27499102 66.26787448 341.26865101 C61.10876155 341.26358937 55.94965581 341.26828285 50.7905426 341.27142334 C42.12768263 341.27506217 33.46485675 341.2702657 24.80200195 341.26074219 C14.7823407 341.24985437 4.76276082 341.25338593 -5.25689846 341.264395 C-13.85657307 341.27346612 -22.45622315 341.27475411 -31.05590099 341.26951766 C-36.19350102 341.26639744 -41.33106278 341.26599012 -46.46866035 341.27259064 C-51.29740211 341.27836103 -56.12603875 341.27437279 -60.95476913 341.26280212 C-62.72851703 341.26015405 -64.50227374 341.26092313 -66.27601814 341.26532745 C-68.69390288 341.27077844 -71.11144906 341.26395433 -73.52931213 341.25396729 C-74.2340756 341.25842873 -74.93883907 341.26289017 -75.66495901 341.26748681 C-79.27872499 341.23845967 -81.92436062 340.97433658 -85 339 C-84.75765625 338.1028125 -84.5153125 337.205625 -84.265625 336.28125 C-80.89815801 323.74391137 -77.71419087 311.18051076 -74.83520508 298.52172852 C-72.70413606 289.15377805 -70.48809475 279.85644185 -67.82446289 270.62548828 C-66.164504 264.79535633 -64.80844069 258.91802124 -63.5 253 C-62.03116374 246.35651648 -60.44867927 239.78740271 -58.5625 233.25 C-55.21796528 221.62047257 -52.66864943 209.798747 -50 198 C-47.87095321 188.61662458 -45.56570668 179.33332097 -42.92553711 170.08007812 C-40.98451112 163.1714168 -39.42548779 156.19437914 -37.87963867 149.18847656 C-36.38647732 142.49826951 -34.62927801 135.92188089 -32.734375 129.3359375 C-31.43429367 124.75273941 -30.38453187 120.18603118 -29.5 115.5 C-28.47031777 110.04499808 -27.15800601 104.76563066 -25.625 99.4375 C-23.67793885 92.66970311 -22.01734343 85.87667439 -20.5 79 C-19.03148179 72.35648539 -17.44907042 65.78725578 -15.5625 59.25 C-13.42343889 51.82739852 -11.64748081 44.34489039 -9.9375 36.8125 C-7.10199425 24.33214183 -4.05155588 12.15466765 0 0 Z " fill="#666766" transform="translate(2903,1119)"/>
<path d="M0 0 C20.46 0 40.92 0 62 0 C60.87557441 10.11983033 60.87557441 10.11983033 59.765625 14.20703125 C59.52384521 15.11300049 59.28206543 16.01896973 59.03295898 16.95239258 C58.77458252 17.89622803 58.51620605 18.84006348 58.25 19.8125 C57.70346662 21.85390977 57.1579111 23.89558156 56.61328125 25.9375 C56.34080566 26.95457031 56.06833008 27.97164062 55.78759766 29.01953125 C54.61997333 33.43811703 53.52799535 37.87437646 52.4375 42.3125 C50.89665176 48.55330401 49.25483282 54.75357571 47.5 60.9375 C45.43996234 68.20031922 43.63351531 75.50480412 41.96289062 82.86694336 C40.68693274 88.40113089 39.22006263 93.8658878 37.68359375 99.33203125 C35.06408485 108.65819952 32.64708227 118.03073635 30.26477051 127.41992188 C29.06201283 132.15987009 27.85279315 136.89817123 26.64453125 141.63671875 C26.41071747 142.55440033 26.17690369 143.47208191 25.93600464 144.41757202 C23.57641875 153.67398761 21.16559108 162.91660728 18.74316406 172.15673828 C17.19462393 178.08127785 15.66087558 184.00966727 14.125 189.9375 C13.81401367 191.13761719 13.50302734 192.33773438 13.18261719 193.57421875 C12.45493096 196.38277441 11.72738335 199.19136588 11 202 C11.99 202 12.98 202 14 202 C14 201.34 14 200.68 14 200 C15.9140625 198.625 15.9140625 198.625 18.625 197 C23.25923017 194.13943782 27.71507379 191.12610535 32.125 187.9375 C36.14108823 185.04482366 40.15691598 182.15856035 44.25 179.375 C44.93578125 178.90835937 45.6215625 178.44171875 46.328125 177.9609375 C48 177 48 177 50 177 C50 176.34 50 175.68 50 175 C51.6796875 173.7109375 51.6796875 173.7109375 53.875 172.375 C54.59429688 171.92898438 55.31359375 171.48296875 56.0546875 171.0234375 C58 170 58 170 60 170 C60 169.34 60 168.68 60 168 C61.80859375 166.6953125 61.80859375 166.6953125 64.4375 165.125 C69.48800641 162.00404604 74.35185535 158.69379889 79.1875 155.25 C80.64049034 154.21856028 82.09361702 153.1873126 83.546875 152.15625 C84.27712891 151.63804687 85.00738281 151.11984375 85.75976562 150.5859375 C89.47376506 147.95667199 93.20008842 145.34586266 96.9375 142.75 C97.61772217 142.27208008 98.29794434 141.79416016 98.9987793 141.30175781 C103.76968472 138 103.76968472 138 106 138 C106 137.34 106 136.68 106 136 C107.9140625 134.625 107.9140625 134.625 110.625 133 C115.25923017 130.13943782 119.71507379 127.12610535 124.125 123.9375 C128.14108823 121.04482366 132.15691598 118.15856035 136.25 115.375 C136.93578125 114.90835937 137.6215625 114.44171875 138.328125 113.9609375 C140 113 140 113 142 113 C142 112.34 142 111.68 142 111 C143.6796875 109.7109375 143.6796875 109.7109375 145.875 108.375 C146.59429688 107.92898438 147.31359375 107.48296875 148.0546875 107.0234375 C150 106 150 106 152 106 C152 105.34 152 104.68 152 104 C153.80859375 102.6953125 153.80859375 102.6953125 156.4375 101.125 C161.48797004 98.00406851 166.35218496 94.69421349 171.1875 91.25 C176.69966044 87.33034994 182.23007937 83.4439952 187.8125 79.625 C193.75422694 75.55616073 199.66617864 71.4468618 205.5625 67.3125 C215.70569426 60.20051514 225.87366322 53.12456411 236.04589844 46.05419922 C239.03413177 43.97626573 242.02114864 41.89659484 245.0078125 39.81640625 C253.38668284 33.98153833 261.76565803 28.14773312 270.1875 22.375 C276.39848173 18.11680891 282.57929138 13.81633612 288.75 9.5 C289.60875732 8.89978027 290.46751465 8.29956055 291.35229492 7.68115234 C292.56236206 6.83351318 292.56236206 6.83351318 293.796875 5.96875 C294.51198242 5.46794922 295.22708984 4.96714844 295.96386719 4.45117188 C298.00684627 3.07134347 298.00684627 3.07134347 299.62268066 1.43058777 C303.01622187 -0.61152684 306.23023419 -0.39499179 310.07324219 -0.34057617 C310.88337265 -0.34101425 311.69350311 -0.34145233 312.52818298 -0.34190369 C315.20132695 -0.33981654 317.87384083 -0.31648924 320.546875 -0.29296875 C322.40203509 -0.28737253 324.25719961 -0.28310255 326.11236572 -0.28010559 C330.9918037 -0.26865889 335.87097318 -0.23919317 340.75030518 -0.20599365 C345.73063525 -0.17528903 350.71100877 -0.16159941 355.69140625 -0.14648438 C365.46105537 -0.11432335 375.23050535 -0.06312905 385 0 C385 0.66 385 1.32 385 2 C383.05078125 3.41015625 383.05078125 3.41015625 380.3125 5.0625 C375.39748927 8.09972458 370.63309207 11.29370935 365.89624023 14.60083008 C362.41594346 17.02627507 358.91139966 19.40719687 355.375 21.75 C350.04798533 25.28250309 344.77126051 28.88490559 339.5 32.5 C337.07300181 34.16157133 334.64556624 35.82250011 332.21777344 37.48291016 C330.82986692 38.43232133 329.44242162 39.38240748 328.05566406 40.33349609 C326.41547195 41.45642475 324.77043166 42.57226299 323.125 43.6875 C322.24070312 44.28949219 321.35640625 44.89148437 320.4453125 45.51171875 C318.0253527 46.98456968 315.65791066 48.03305401 313 49 C313 49.66 313 50.32 313 51 C311.26171875 52.26953125 311.26171875 52.26953125 308.6875 53.8125 C303.20083283 57.20090686 297.87341942 60.78012327 292.5625 64.4375 C287.27164857 68.07557255 281.97743289 71.70303584 276.625 75.25 C272.54921442 77.95205284 268.51403771 80.70731751 264.5 83.5 C260.36112219 86.37750552 256.20103671 89.21404934 252 92 C248.04901451 94.62034271 244.13678538 97.28541973 240.25 100 C233.89229696 104.42274994 227.44989374 108.71308396 221 113 C212.60394416 118.58218356 204.26734019 124.22886317 196 130 C193.52381046 131.71266858 191.04354635 133.41937679 188.5625 135.125 C187.91224854 135.57222412 187.26199707 136.01944824 186.59204102 136.48022461 C182.51296884 139.28255544 178.42652814 142.07388409 174.3359375 144.859375 C172.87111938 145.85686768 172.87111938 145.85686768 171.37670898 146.87451172 C169.46008674 148.17900567 167.54295581 149.48275265 165.62524414 150.78564453 C160.70642433 154.13267276 155.82481471 157.5187208 151 161 C153.97865881 166.63011646 157.05711748 172.16276424 160.4375 177.5625 C164.50671016 184.10119266 168.35118788 190.75992376 172.1875 197.4375 C181.43303512 213.52067596 190.87522848 229.47836772 200.4375 245.375 C207.09008077 256.43684942 213.61036755 267.57161386 220.09765625 278.73095703 C223.31374343 284.25757501 226.53902571 289.77879026 229.769104 295.29724121 C230.49083767 296.53086844 231.2120142 297.76482184 231.93255615 298.99914551 C236.23092316 306.36218082 240.62197622 313.65995323 245.10644531 320.91137695 C247.95896418 325.56418976 250.70216366 330.27765073 253.4375 335 C254.65207041 337.08870064 255.86692736 339.17723467 257.08203125 341.265625 C257.7157666 342.35552734 258.34950195 343.44542969 259.00244141 344.56835938 C262.53359219 350.63458468 266.07711315 356.69355032 269.625 362.75 C269.98585693 363.36605103 270.34671387 363.98210205 270.71850586 364.61682129 C275.25151277 372.35202076 279.8152152 380.06771102 284.4375 387.75 C284.90978027 388.53592529 285.38206055 389.32185059 285.86865234 390.1315918 C287.73467584 393.23607147 289.60113652 396.34024469 291.47509766 399.43994141 C292.90627537 401.81046212 294.32895934 404.18589261 295.75 406.5625 C296.18111084 407.27180664 296.61222168 407.98111328 297.05639648 408.71191406 C300 413.65838812 300 413.65838812 300 417 C291.46380765 417.0926956 282.92782571 417.16376219 274.39125443 417.20724869 C270.42732207 417.22812052 266.46373413 417.25642999 262.5 417.30175781 C258.67447273 417.34523119 254.84927666 417.36914015 251.02352142 417.37950897 C249.56424495 417.38689778 248.10498654 417.40132665 246.64585114 417.42292023 C244.601068 417.45197624 242.5576518 417.45595541 240.51269531 417.45410156 C239.34909485 417.46298401 238.18549438 417.47186646 236.9866333 417.48101807 C233.35870258 416.89671459 232.253392 415.83543024 230 413 C228.61328125 410.73046875 228.61328125 410.73046875 227.3125 408.1875 C225.02110748 403.85427255 222.61088953 399.62334797 220.0625 395.4375 C217.06086192 390.49764994 214.13715928 385.51843798 211.26171875 380.50390625 C210.9326503 379.93014755 210.60358185 379.35638885 210.26454163 378.76524353 C208.61030042 375.87938189 206.96066434 372.9910776 205.31665039 370.09936523 C201.49791607 363.40843807 201.49791607 363.40843807 197.19921875 357.0234375 C195.30674801 354.42171041 193.8989556 352.0328924 192.5625 349.125 C190.53120085 344.91640207 188.16697001 341.16874699 185.5234375 337.32421875 C183.93481892 334.90055707 182.55379293 332.43019424 181.1875 329.875 C178.56779627 324.97904984 175.76097266 320.2180471 172.8840332 315.47119141 C168.5403684 308.28260012 164.3364338 301.01291294 160.13671875 293.73950195 C156.73575854 287.87683414 153.21565148 282.11725006 149.53369141 276.42651367 C147.65692948 273.45721459 145.9626541 270.41069918 144.28125 267.328125 C139.18205124 258.06250774 133.65022839 249.02478199 128.26513672 239.92358398 C122.3599738 229.93391861 116.50692195 219.91380925 110.68066406 209.87792969 C109.47333274 207.81052387 108.25524411 205.74938612 107.03027344 203.69238281 C106.38864258 202.61053711 105.74701172 201.52869141 105.0859375 200.4140625 C104.49603027 199.42615723 103.90612305 198.43825195 103.29833984 197.42041016 C102 195 102 195 102 193 C97.22663885 195.16152203 93.08899726 197.56065023 88.87890625 200.6875 C83.39849261 204.71911067 77.84316198 208.62690262 72.25 212.5 C70.22393605 213.9062179 68.19789504 215.31246884 66.171875 216.71875 C65.14771484 217.42902344 64.12355469 218.13929688 63.06835938 218.87109375 C58.20895375 222.24267372 53.35460252 225.62150968 48.5 229 C42.68108583 233.04889092 36.86144496 237.09672265 31.0390625 241.140625 C30.05768311 241.82253906 29.07630371 242.50445313 28.06518555 243.20703125 C26.12687265 244.55385532 24.18824064 245.90022027 22.24926758 247.24609375 C17.76414203 250.36347573 13.29149993 253.49586155 8.84765625 256.671875 C8.05665527 257.23616211 7.2656543 257.80044922 6.45068359 258.38183594 C4.98054898 259.43297426 3.51325094 260.48809535 2.04931641 261.54785156 C-2.77956727 265 -2.77956727 265 -5 265 C-5.09796875 265.53625 -5.1959375 266.0725 -5.296875 266.625 C-6.41641001 272.49290762 -7.78606712 278.2742669 -9.2590332 284.06298828 C-10.61405332 289.40612755 -11.89903946 294.76378244 -13.16821289 300.12792969 C-15.25043975 308.9167641 -17.4023842 317.65795474 -19.89428711 326.33935547 C-22.29793314 334.84081028 -24.37546382 343.42563144 -26.5 352 C-28.9637197 361.94026266 -31.4249551 371.86881828 -34.2512207 381.71362305 C-36.34816241 389.0734415 -38.14585426 396.5091319 -39.94604492 403.94628906 C-40.18427979 404.91920898 -40.42251465 405.89212891 -40.66796875 406.89453125 C-40.98157349 408.19161011 -40.98157349 408.19161011 -41.30151367 409.51489258 C-42 412 -42 412 -44 417 C-64.13 417 -84.26 417 -105 417 C-106.13906263 413.5828121 -105.83196016 412.61881185 -104.85546875 409.24609375 C-104.45811523 407.8394043 -104.45811523 407.8394043 -104.05273438 406.40429688 C-103.76720703 405.42525391 -103.48167969 404.44621094 -103.1875 403.4375 C-101.34853504 397.0465559 -99.69463187 390.72024816 -98.45703125 384.18481445 C-97.86817633 381.36982371 -96.92919881 378.71995361 -96 376 C-95.17299792 372.76306794 -94.43490414 369.50610048 -93.6875 366.25 C-92.12097113 359.53779844 -90.46036853 352.87611965 -88.5625 346.25 C-86.50366144 339.04528812 -84.7203719 331.79255959 -83 324.5 C-81.29371605 317.27252559 -79.53406729 310.08006386 -77.5 302.9375 C-74.7612417 293.2992401 -72.36036563 283.58505619 -69.95556641 273.85888672 C-67.9804167 265.88259233 -65.99058408 257.90995437 -64 249.9375 C-63.7813327 249.06140076 -63.56266541 248.18530151 -63.33737183 247.28265381 C-60.67998557 236.64106493 -57.99059384 226.01016434 -55.18969727 215.40527344 C-52.84210543 206.4842592 -50.63473533 197.52873848 -48.41357422 188.57565308 C-46.50086337 180.87543998 -44.55698557 173.19180759 -42.375 165.5625 C-40.13248506 157.71789716 -38.24563211 149.80177216 -36.3684082 141.86279297 C-34.25947686 132.98216793 -31.99210315 124.14864736 -29.68066406 115.31884766 C-27.51719899 107.03984518 -25.43215668 98.74350139 -23.375 90.4375 C-21.2993871 82.0652703 -19.13237071 73.73566402 -16.77075195 65.43994141 C-14.97406093 59.06268355 -13.45487573 52.63014072 -11.94702148 46.17944336 C-8.31058899 30.70016878 -4.09649406 15.36185272 0 0 Z " fill="#666766" transform="translate(1196,1043)"/>
<path d="M0 0 C1.15891251 -0.00095673 2.31782501 -0.00191345 3.51185608 -0.00289917 C5.94483495 -0.00357621 8.37781567 -0.00175533 10.81079102 0.00244141 C14.54772942 0.00783063 18.2845495 0.00246283 22.02148438 -0.00390625 C24.38932318 -0.00324605 26.75716192 -0.0019661 29.125 0 C30.24575424 -0.00202423 31.36650848 -0.00404846 32.52122498 -0.00613403 C34.06907433 -0.00140579 34.06907433 -0.00140579 35.64819336 0.00341797 C36.5581456 0.00421356 37.46809784 0.00500916 38.40562439 0.00582886 C40.59765625 0.1328125 40.59765625 0.1328125 42.59765625 1.1328125 C41.21952142 8.38118565 39.58362978 15.54030117 37.78515625 22.6953125 C37.39420776 24.25390991 37.39420776 24.25390991 36.99536133 25.84399414 C35.36293736 32.28396371 33.65077017 38.69387341 31.78515625 45.0703125 C31.475177 46.13390991 31.475177 46.13390991 31.15893555 47.21899414 C29.72754818 52.00292057 29.72754818 52.00292057 28.59765625 53.1328125 C27.18408006 53.21029042 25.76663126 53.21869855 24.35107422 53.19873047 C23.44436981 53.18897186 22.53766541 53.17921326 21.60348511 53.16915894 C20.60898346 53.15458649 19.61448181 53.14001404 18.58984375 53.125 C16.46484897 53.10742983 14.33984859 53.09052701 12.21484375 53.07421875 C8.88069784 53.04373237 5.54684043 53.00886815 2.21289062 52.96142578 C-18.84344159 52.67765631 -39.10748378 54.24348988 -59.40234375 60.1328125 C-60.03624023 60.31038086 -60.67013672 60.48794922 -61.32324219 60.67089844 C-78.43144019 65.48660294 -94.57804075 72.28797576 -109.40234375 82.1328125 C-109.99885742 82.52726562 -110.59537109 82.92171875 -111.20996094 83.328125 C-118.53145027 88.22755661 -125.25018166 93.51136059 -131.5847168 99.64208984 C-133.87866078 101.84791354 -135.33186233 103.10931869 -138.40234375 104.1328125 C-139.1006009 105.44987711 -139.76401213 106.78568408 -140.40234375 108.1328125 C-141.91357422 109.78881836 -141.91357422 109.78881836 -143.64453125 111.41015625 C-159.84923239 127.18356948 -171.63064624 148.47162579 -180.40234375 169.1328125 C-180.89863281 170.256875 -181.39492187 171.3809375 -181.90625 172.5390625 C-189.88012332 191.35990188 -194.32464752 211.49516521 -199.20629883 231.28393555 C-201.01059649 238.59450054 -202.81556461 245.89655002 -204.90234375 253.1328125 C-207.70747803 262.8694561 -210.06625609 272.72267737 -212.50283813 282.55630493 C-214.76441421 291.67752806 -217.06410184 300.77184066 -219.66015625 309.8046875 C-221.42841346 316.03626979 -222.91331997 322.32949687 -224.40234375 328.6328125 C-226.05045516 335.60957575 -227.73457951 342.55507801 -229.71484375 349.4453125 C-232.34727403 358.6146502 -234.60763941 367.87471014 -236.90234375 377.1328125 C-247.62923663 420.35970538 -247.62923663 420.35970538 -250.40234375 423.1328125 C-252.27415315 423.22667631 -254.14952435 423.25025054 -256.02368164 423.24633789 C-257.22485123 423.24626236 -258.42602081 423.24618683 -259.66358948 423.24610901 C-260.97085495 423.24094772 -262.27812042 423.23578644 -263.625 423.23046875 C-264.96878507 423.22860448 -266.31257082 423.22718062 -267.65635681 423.22618103 C-271.19916652 423.22235652 -274.74193545 423.21252682 -278.284729 423.20147705 C-281.89749602 423.19126149 -285.51026959 423.1866831 -289.12304688 423.18164062 C-296.21616255 423.17090448 -303.30925049 423.15382886 -310.40234375 423.1328125 C-311.79533977 418.68591695 -310.53275968 415.27016852 -309.21484375 410.9453125 C-308.7380557 409.3120213 -308.26415788 407.67788397 -307.79296875 406.04296875 C-307.55513672 405.21812988 -307.31730469 404.39329102 -307.07226562 403.54345703 C-306.09145005 400.01409369 -305.27055483 396.45549941 -304.46484375 392.8828125 C-302.9911854 386.41429161 -301.30487798 380.02420239 -299.52734375 373.6328125 C-296.99809772 364.52816752 -294.7521693 355.37549292 -292.5847168 346.17871094 C-290.95624626 339.31468894 -289.16748525 332.52084063 -287.22631836 325.73950195 C-285.61503358 320.05318432 -284.2375927 314.32711179 -282.90234375 308.5703125 C-281.42109784 302.19187443 -279.81244049 295.89637846 -277.90234375 289.6328125 C-275.75140603 282.57465562 -274.01215068 275.46107543 -272.34545898 268.2746582 C-270.85808218 261.91458202 -269.21074988 255.61403615 -267.46484375 249.3203125 C-264.23050681 237.64289401 -261.3038648 225.89664929 -258.40234375 214.1328125 C-252.70914152 191.05520497 -252.70914152 191.05520497 -249.90234375 181.1953125 C-246.97063996 170.88691066 -244.56107195 160.45443514 -242.09130859 150.02783203 C-241.13163531 145.99529987 -240.15066055 141.96843769 -239.15234375 137.9453125 C-238.8584375 136.75550781 -238.56453125 135.56570313 -238.26171875 134.33984375 C-237.72288183 132.32900234 -237.12666321 130.33175716 -236.44921875 128.36328125 C-234.98653469 123.84970022 -233.96587094 119.25432154 -232.90234375 114.6328125 C-231.61336146 109.03159855 -230.24969536 103.57956744 -228.40234375 98.1328125 C-227.60340447 95.16564079 -226.87979613 92.18070151 -226.15234375 89.1953125 C-224.2933977 81.65874207 -222.37455933 74.14052756 -220.40234375 66.6328125 C-218.49628503 59.37412312 -216.63872458 52.10627835 -214.83984375 44.8203125 C-212.90155202 36.98709584 -210.80586988 29.20701796 -208.61328125 21.44140625 C-207.18132502 16.34641362 -205.79486509 11.23872407 -204.40234375 6.1328125 C-185.92234375 6.1328125 -167.44234375 6.1328125 -148.40234375 6.1328125 C-149.06148658 12.72424084 -149.72948523 18.15217438 -151.58984375 24.3203125 C-152.04603401 25.89792872 -152.50037231 27.47608131 -152.953125 29.0546875 C-153.19111816 29.88033203 -153.42911133 30.70597656 -153.67431641 31.55664062 C-154.94233584 36.04360946 -156.10853458 40.55666591 -157.27734375 45.0703125 C-157.52427979 46.02196289 -157.77121582 46.97361328 -158.02563477 47.95410156 C-158.5443271 49.95493704 -159.06246014 51.95591757 -159.58007812 53.95703125 C-160.45040109 57.31842114 -161.32450489 60.67881268 -162.19921875 64.0390625 C-165.32509023 76.05613516 -168.42987171 88.07676131 -171.40234375 100.1328125 C-171.00144531 99.55015625 -170.60054687 98.9675 -170.1875 98.3671875 C-166.03021088 92.37164128 -161.72473528 86.51366329 -157.3203125 80.69921875 C-155.96201125 78.88169549 -154.66095997 77.02073683 -153.40234375 75.1328125 C-152.74234375 75.1328125 -152.08234375 75.1328125 -151.40234375 75.1328125 C-150.74234375 73.4828125 -150.08234375 71.8328125 -149.40234375 70.1328125 C-148.74234375 70.1328125 -148.08234375 70.1328125 -147.40234375 70.1328125 C-147.15427979 69.56167725 -146.90621582 68.99054199 -146.65063477 68.40209961 C-144.13226821 63.82392297 -140.01127549 60.36062689 -136.33984375 56.6953125 C-135.44821533 55.80384521 -134.55658691 54.91237793 -133.63793945 53.99389648 C-125.7604729 46.24924728 -117.39955795 39.5146412 -108.40234375 33.1328125 C-107.78810547 32.68574951 -107.17386719 32.23868652 -106.54101562 31.77807617 C-81.99675224 13.96102814 -51.19836132 4.6858205 -21.40234375 1.1328125 C-20.10490234 0.96241455 -18.80746094 0.7920166 -17.47070312 0.61645508 C-11.64866464 -0.02510595 -5.85157449 -0.01070405 0 0 Z " fill="#666766" transform="translate(1820.40234375,1036.8671875)"/>
<path d="M0 0 C63.36 0 126.72 0 192 0 C191.06208857 6.56537999 189.74903071 12.86405116 188.25 19.3125 C187.8468457 21.05563477 187.8468457 21.05563477 187.43554688 22.83398438 C185.76394748 29.9748357 183.9331187 37.0401429 181.89770508 44.08447266 C179.68635286 51.85990084 177.94698328 59.74046215 176.15795898 67.62158203 C174.61479673 74.39840064 172.95689417 81.10916236 171.12109375 87.8125 C166.7536088 103.92093277 162.93574373 120.18807773 159.07226562 136.4230957 C157.18441086 144.321093 155.16356758 152.17297611 153 160 C148.36510195 160.90897255 143.88586766 161.1395604 139.17922974 161.12025452 C138.02610348 161.12153615 138.02610348 161.12153615 136.84968174 161.12284368 C134.28404116 161.12448555 131.71846654 161.11899835 129.15283203 161.11352539 C127.30960593 161.11324321 125.46637972 161.11340185 123.62315369 161.1139679 C118.62572462 161.11425468 113.62831958 161.10837712 108.63089609 161.10139394 C103.40585864 161.09514064 98.18082064 161.09455503 92.95578003 161.09336853 C83.06429487 161.09026105 73.17282077 161.0820555 63.28134048 161.07201904 C52.01902292 161.06083982 40.75670483 161.05534289 29.4943831 161.05032361 C6.3295826 161.03987242 -16.83520808 161.02228424 -40 161 C-39.84482581 159.55536484 -39.68814412 158.11089155 -39.53082275 156.66648865 C-39.44373173 155.8620806 -39.3566407 155.05767256 -39.26691055 154.22888851 C-38.97934465 151.82751351 -38.54895813 149.5116186 -37.984375 147.16015625 C-37.68950195 145.9218103 -37.68950195 145.9218103 -37.38867188 144.65844727 C-37.17791016 143.80178467 -36.96714844 142.94512207 -36.75 142.0625 C-36.52892578 141.14718506 -36.30785156 140.23187012 -36.08007812 139.28881836 C-34.48793373 132.77647419 -32.71960804 126.32587944 -30.87597656 119.88110352 C-29.20818865 113.96383882 -27.82758088 108.00184748 -26.5 102 C-25.02597365 95.33847962 -23.44421982 88.74582499 -21.5625 82.1875 C-19.26512934 74.16565195 -17.30018829 66.08269398 -15.37573242 57.96411133 C-3.98703312 9.96758281 -3.98703312 9.96758281 0 0 Z " fill="#666766" transform="translate(2962,883)"/>
<path d="M0 0 C20.46 0 40.92 0 62 0 C59.75041093 12.37273987 59.75041093 12.37273987 58.49121094 17.08447266 C58.21041687 18.14413239 57.9296228 19.20379211 57.64031982 20.29556274 C57.19187714 21.96297012 57.19187714 21.96297012 56.734375 23.6640625 C56.41849426 24.8543808 56.10261353 26.0446991 55.77716064 27.27108765 C54.77214763 31.05681394 53.76160872 34.84103132 52.75 38.625 C48.65029125 53.98136626 44.58971169 69.3339535 40.9586792 84.80911255 C39.59774429 90.59958209 38.13023361 96.34197032 36.5 102.0625 C33.40189616 112.97504667 30.71698313 123.98743719 28 135 C26.98211205 139.12573597 25.96077066 143.25059614 24.9375 147.375 C24.71650635 148.27557129 24.4955127 149.17614258 24.26782227 150.10400391 C22.82311523 155.92549174 21.25258683 161.70317342 19.62890625 167.4765625 C16.88174601 177.26806632 14.42876866 187.1255374 12 197 C9.37727753 207.66300605 6.68224537 218.2883527 3.70471191 228.85838318 C2.15044334 234.39478565 0.76656815 239.95300145 -0.5 245.5625 C-1.95866793 251.85859298 -3.54556845 258.07039209 -5.4375 264.25 C-7.47217454 270.92379598 -9.15735167 277.64529158 -10.75 284.4375 C-13.10563706 294.46401813 -15.65629289 304.42505373 -18.3125 314.375 C-19.08761066 317.28115119 -19.86240823 320.18738551 -20.63671875 323.09375 C-20.92866119 324.18954628 -20.92866119 324.18954628 -21.22650146 325.30747986 C-23.40137368 333.48580972 -25.5190361 341.67869416 -27.625 349.875 C-27.9063681 350.96905151 -27.9063681 350.96905151 -28.19342041 352.08520508 C-30.44017362 360.82751481 -32.64698891 369.57850021 -34.81347656 378.34106445 C-37.20137258 387.99603507 -39.65541735 397.61991097 -42.375 407.1875 C-42.62596436 408.07356934 -42.87692871 408.95963867 -43.13549805 409.87255859 C-44.871534 415.871534 -44.871534 415.871534 -46 417 C-47.90243762 417.09391296 -49.80838459 417.11743658 -51.71313477 417.11352539 C-52.9343251 417.11344986 -54.15551544 417.11337433 -55.41371155 417.11329651 C-56.75627686 417.10818911 -58.09884175 417.10297311 -59.44140625 417.09765625 C-60.80761158 417.09579199 -62.17381757 417.09436813 -63.5400238 417.09336853 C-67.14201695 417.08954394 -70.74397 417.07971417 -74.34594727 417.06866455 C-78.01903745 417.05844916 -81.69213409 417.05387064 -85.36523438 417.04882812 C-92.57684123 417.03809184 -99.788415 417.02101614 -107 417 C-106.44026886 410.96507389 -105.49090398 405.34981658 -103.890625 399.51171875 C-103.68370529 398.73550674 -103.47678558 397.95929474 -103.26359558 397.15956116 C-102.598128 394.66729846 -101.92401354 392.17746347 -101.25 389.6875 C-100.55496717 387.09084586 -99.8623284 384.49356118 -99.16990662 381.89620972 C-98.71810844 380.20178702 -98.26561212 378.50755031 -97.81239319 376.81350708 C-96.29586438 371.13947784 -94.83087075 365.4556351 -93.4375 359.75 C-91.06419454 350.0680418 -88.46912144 340.44522752 -85.90023804 330.81384277 C-83.34697213 321.22956558 -80.9056758 311.63373127 -78.66308594 301.97119141 C-77.4824283 296.91947531 -76.17730604 291.92475904 -74.75 286.9375 C-72.1016222 277.68339826 -69.81465386 268.34168564 -67.5 259 C-62.7048583 239.6540081 -62.7048583 239.6540081 -59.953125 230.1015625 C-57.37080942 220.99366566 -55.17907741 211.77970996 -52.90353394 202.59161377 C-50.55660652 193.12080773 -48.15699794 183.68038879 -45.4675293 174.29980469 C-44.22826909 169.94603685 -43.20926008 165.60440046 -42.45703125 161.140625 C-42 159 -42 159 -41.09375 156.3125 C-39.72701663 152.17325036 -38.71483461 147.98402488 -37.6875 143.75 C-36.08667212 137.23688012 -34.40295098 130.76185498 -32.5625 124.3125 C-30.20419203 116.01499188 -28.21322148 107.64286979 -26.23291016 99.24829102 C-24.58695224 92.31719079 -22.78454996 85.45555866 -20.82421875 78.60766602 C-19.21292141 72.92100004 -17.83536121 67.1946215 -16.5 61.4375 C-14.87864307 54.45746378 -13.0501718 47.60123255 -10.94970703 40.75170898 C-8.67579869 33.19065311 -6.91143078 25.50790369 -5.14282227 17.81542969 C-4.90748779 16.80383789 -4.67215332 15.79224609 -4.4296875 14.75 C-4.22585449 13.85796875 -4.02202148 12.9659375 -3.81201172 12.046875 C-2.72737909 7.97705683 -1.3319102 3.9957306 0 0 Z " fill="#666766" transform="translate(1048,1043)"/>
<path d="M0 0 C1.32 0.33 2.64 0.66 4 1 C4.10957031 2.26070312 4.21914062 3.52140625 4.33203125 4.8203125 C7.08162703 35.57714224 12.15712311 65.37795287 21 95 C21.26361328 95.90484131 21.52722656 96.80968262 21.79882812 97.74194336 C23.08382539 102.12110018 24.43173187 106.36895906 26.25 110.5625 C27.73411756 114.0224875 29.20277439 117.48366438 30.59765625 120.98046875 C34.57956981 130.92777002 39.04980661 140.49989201 44 150 C44.33676758 150.65274902 44.67353516 151.30549805 45.02050781 151.97802734 C55.22112818 171.71911288 67.9688824 189.80072722 82 207 C82.43683105 207.54124512 82.87366211 208.08249023 83.32373047 208.64013672 C96.07702728 224.35561051 110.62510764 239.98188152 127.28125 251.58984375 C127.8484375 252.05519531 128.415625 252.52054688 129 253 C129 253.66 129 254.32 129 255 C129.58394531 255.27312012 130.16789062 255.54624023 130.76953125 255.82763672 C132.95373284 256.97568138 134.75028471 258.23535216 136.6875 259.7578125 C137.72535645 260.56605469 137.72535645 260.56605469 138.78417969 261.390625 C139.51540039 261.96296875 140.24662109 262.5353125 141 263.125 C147.82095479 268.39090357 154.71398466 273.39175098 162 278 C163.13695312 278.72703125 163.13695312 278.72703125 164.296875 279.46875 C175.58497167 286.67097119 186.91821548 293.23791815 199 299 C200.98055508 300.01813701 202.95980639 301.03881578 204.9375 302.0625 C251.85097407 325.39312555 303.30868918 331.75649692 355 333 C354.67 333.99 354.34 334.98 354 336 C351.59375 337.0625 351.59375 337.0625 348.5 338 C347.40300781 338.3403125 346.30601562 338.680625 345.17578125 339.03125 C343.60376953 339.51078125 343.60376953 339.51078125 342 340 C340.56090345 340.49538608 339.12321328 340.99489246 337.6875 341.5 C282.1829966 359.93470871 214.78243144 359.78712024 161.1796875 334.94921875 C157.54450594 333.36615581 153.78185028 332.18015186 150 331 C150 330.34 150 329.68 150 329 C149.236875 328.855625 148.47375 328.71125 147.6875 328.5625 C145 328 145 328 142 327 C142 326.34 142 325.68 142 325 C141.35289062 324.92910156 140.70578125 324.85820313 140.0390625 324.78515625 C135.75639084 323.67870766 132.20953673 321.60613157 128.375 319.4375 C127.57102783 318.98640869 126.76705566 318.53531738 125.9387207 318.07055664 C120.5898873 315.02245874 115.55507511 311.73962959 110.65234375 308.0078125 C107.57920272 305.68145832 104.42678319 303.49383096 101.25 301.3125 C100.16847656 300.56484375 99.08695313 299.8171875 97.97265625 299.046875 C96.19325312 297.82163553 94.41050762 296.60119728 92.62109375 295.390625 C91.04627962 294.30893448 89.51563484 293.16316162 88 292 C88 291.34 88 290.68 88 290 C87.46246094 289.77957031 86.92492188 289.55914063 86.37109375 289.33203125 C83.19562706 287.54811998 80.69557844 285.16976622 78.0625 282.6875 C77.49692383 282.15842041 76.93134766 281.62934082 76.34863281 281.08422852 C66.56813329 271.88088119 57.27478814 262.60260329 49 252 C47.88818359 250.6696875 47.88818359 250.6696875 46.75390625 249.3125 C45 247 45 247 45 245 C44.34 245 43.68 245 43 245 C42.67 243.68 42.34 242.36 42 241 C41.34 241 40.68 241 40 241 C38.34375 238.76953125 38.34375 238.76953125 36.5 235.8125 C35.8915625 234.84957031 35.283125 233.88664063 34.65625 232.89453125 C33.17379596 230.30373304 32.02309993 227.79817831 31 225 C30.34 225 29.68 225 29 225 C27.62334744 222.50043084 26.25540264 219.99649152 24.89453125 217.48828125 C23.93233212 215.7166445 22.96968342 213.94520657 21.99365234 212.18115234 C7.56782822 186.10136651 -3.99601353 157.62866635 -8.125 127.9375 C-8.64841716 124.0232133 -8.64841716 124.0232133 -9.4934082 120.17382812 C-18.36052781 82.12427004 -11.34318495 36.63848738 0 0 Z " fill="#666766" transform="translate(1037,632)"/>
<path d="M0 0 C2.44004196 3.87718533 2.6870227 8.1217701 3.25 12.5625 C5.79215815 30.70114193 10.13341345 48.45475142 15.125 66.0625 C15.44944092 67.20912109 15.77388184 68.35574219 16.1081543 69.53710938 C17.82245488 75.43559095 19.74702197 81.13860012 22.10205078 86.81176758 C23.31601304 89.7700992 24.32709597 92.79186388 25.375 95.8125 C28.35799667 104.00287421 32.10768327 111.83735908 35.875 119.6875 C36.16542175 120.29816315 36.45584351 120.90882629 36.75506592 121.53799438 C46.8340279 142.66849953 60.02860815 162.5013642 75.91015625 179.72265625 C77.86929438 181.85756753 79.75020041 184.0411604 81.625 186.25 C84.3986617 189.45887325 87.38414534 192.15280007 90.71484375 194.7734375 C91.13894531 195.17820312 91.56304688 195.58296875 92 196 C92 196.66 92 197.32 92 198 C92.52207031 198.21140625 93.04414062 198.4228125 93.58203125 198.640625 C97.01377004 200.56993857 99.75213274 203.14437838 102.6875 205.75 C107.90484555 210.2899073 113.10156166 214.37089853 119 218 C120.17028724 218.75232751 121.33945626 219.5063959 122.5078125 220.26171875 C144.0118703 234.06904977 166.71453446 244.12059056 191 252 C191.81629883 252.26554688 192.63259766 252.53109375 193.47363281 252.8046875 C219.82480015 261.21707123 248.05237568 265.37876711 275.6484375 266.75 C279.93368505 267.0696455 283.85533557 267.88982203 288 269 C287 271 287 271 283.51953125 272.33203125 C281.95414559 272.83690093 280.38475188 273.32943718 278.8125 273.8125 C277.96389404 274.07458252 277.11528809 274.33666504 276.2409668 274.60668945 C224.24719276 290.27922712 166.25878292 289.68917153 117 265 C115.76128298 264.40833909 114.52165568 263.81858118 113.28125 263.23046875 C105.63027062 259.55936676 98.26482228 255.51238005 91 251.125 C90.20376221 250.64844971 89.40752441 250.17189941 88.5871582 249.6809082 C87.857146 249.23191162 87.12713379 248.78291504 86.375 248.3203125 C85.39660156 247.72114014 85.39660156 247.72114014 84.3984375 247.10986328 C83.93695312 246.7436084 83.47546875 246.37735352 83 246 C83 245.34 83 244.68 83 244 C82.27425781 243.7421875 81.54851562 243.484375 80.80078125 243.21875 C77.87952333 241.94757501 75.69127351 240.45983598 73.1875 238.5 C72.39730469 237.8915625 71.60710937 237.283125 70.79296875 236.65625 C70.20128906 236.1096875 69.60960937 235.563125 69 235 C69 234.34 69 233.68 69 233 C67.35 232.34 65.7 231.68 64 231 C64 230.34 64 229.68 64 229 C62.02 228.01 62.02 228.01 60 227 C60 226.34 60 225.68 60 225 C59.46375 224.79375 58.9275 224.5875 58.375 224.375 C55.08021991 222.46749574 52.40636372 219.95180616 50 217 C50 216.34 50 215.68 50 215 C49.42507813 214.76925781 48.85015625 214.53851562 48.2578125 214.30078125 C43.95129903 211.81969304 41.27486679 207.46567611 38.25292969 203.59716797 C37.01860117 202.02371178 35.76332784 200.46675913 34.5078125 198.91015625 C28.21682022 191.03874695 22.92521896 182.78319956 18 174 C17.61956543 173.32420898 17.23913086 172.64841797 16.84716797 171.95214844 C4.36015375 149.57717961 -4.34032282 125.43733367 -8 100 C-8.10151367 99.3395166 -8.20302734 98.6790332 -8.30761719 97.99853516 C-12.87354073 67.4270124 -10.0335835 36.50476706 -3.4375 6.51953125 C-3.09525391 4.95875854 -3.09525391 4.95875854 -2.74609375 3.36645508 C-2.49988281 2.5855249 -2.25367188 1.80459473 -2 1 C-1.34 0.67 -0.68 0.34 0 0 Z " fill="#666766" transform="translate(1131,604)"/>
</svg>
