<?xml version="1.0" encoding="UTF-8"?>
<svg version="1.1" xmlns="http://www.w3.org/2000/svg" width="640" height="244">
<path d="M0 0 C2.4431727 1.86934713 4.48107164 4.05455475 6.5625 6.3125 C7.66558974 7.47751758 8.77101888 8.64032508 9.87890625 9.80078125 C10.40887207 10.35717285 10.93883789 10.91356445 11.48486328 11.48681641 C13.51325402 13.5125924 15.74794725 15.22974784 18 17 C19.67963266 18.653599 21.34362358 20.32310623 23 22 C24.08031315 23.08643271 25.16106868 24.17242565 26.2421875 25.25805664 C27.11834717 26.13905785 27.11834717 26.13905785 28.01220703 27.03785706 C30.64626862 29.68536082 33.28303904 32.33016001 35.91992188 34.97485352 C37.30753609 36.36751656 38.69425425 37.76107297 40.08007812 39.15551758 C42.09267742 41.18027832 44.10851762 43.2017636 46.125 45.22265625 C46.73972168 45.84253922 47.35444336 46.46242218 47.98779297 47.10108948 C50.5569949 49.67062363 53.06495819 52.05096511 55.9296875 54.29858398 C56.61289063 54.86005127 57.29609375 55.42151855 58 56 C58 56.66 58 57.32 58 58 C58.928125 58.37125 58.928125 58.37125 59.875 58.75 C62.35068687 60.20628639 62.95125002 61.37812506 64 64 C64.66 64 65.32 64 66 64 C70.76744186 68.30232558 70.76744186 68.30232558 72 72 C73.485 72.495 73.485 72.495 75 73 C75.00879936 71.71666779 75.00879936 71.71666779 75.01777649 70.40740967 C75.07568369 62.34402408 75.14774896 54.28091607 75.23571491 46.21780014 C75.28043982 42.07246596 75.31969109 37.92723055 75.34643555 33.78173828 C75.37244764 29.78097651 75.41283473 25.78059434 75.46318626 21.78006744 C75.47986925 20.25390597 75.49137463 18.72767881 75.49761391 17.2014389 C75.50723983 15.06324991 75.53527858 12.92603519 75.56762695 10.78808594 C75.57873001 9.5711908 75.58983307 8.35429565 75.60127258 7.1005249 C76.03226763 3.74908524 76.61124186 2.35106696 79 0 C82.14741037 -0.93752649 84.11437428 -1.29520857 87.25 -0.25 C89 1 89 1 91 4 C91.20527611 6.90293632 91.2936899 9.71072511 91.29052734 12.61474609 C91.29724457 13.49472763 91.30396179 14.37470917 91.31088257 15.28135681 C91.32990742 18.19544088 91.33378906 21.10929517 91.3359375 24.0234375 C91.34236245 26.04741512 91.34909058 28.07139179 91.35610962 30.09536743 C91.36809372 34.34061842 91.37178929 38.58578797 91.37060547 42.83105469 C91.37040225 48.27091835 91.39770254 53.71025975 91.43214989 59.14999962 C91.45438794 63.33131305 91.45844395 67.51250021 91.45738602 71.69386673 C91.45974671 73.69933497 91.46859652 75.70480644 91.48405075 77.71021652 C91.50364745 80.51600448 91.49789751 83.32065862 91.48583984 86.12646484 C91.49707886 86.95469254 91.50831787 87.78292023 91.51989746 88.63624573 C91.4766634 92.59543177 91.2722352 94.55942323 89.14151001 98.00772095 C87 100 87 100 84.25 100.75 C76.73812845 99.01649118 71.28676656 91.33822446 66.0546875 86.015625 C63.90965051 83.84190409 63.90965051 83.84190409 60.9375 81.5625 C60.298125 81.046875 59.65875 80.53125 59 80 C59 79.34 59 78.68 59 78 C58.4130838 77.73872818 57.8261676 77.47745636 57.22146606 77.20826721 C54.867256 75.92779983 53.33546555 74.57043285 51.45654297 72.66772461 C50.78259491 71.9903978 50.10864685 71.31307098 49.41427612 70.61521912 C48.69748688 69.88497025 47.98069763 69.15472137 47.2421875 68.40234375 C46.12579391 67.27814781 46.12579391 67.27814781 44.98684692 66.13124084 C42.61143574 63.73802366 40.24281991 61.33822632 37.875 58.9375 C35.49917784 56.53408548 33.12192511 54.13213131 30.74172974 51.73304749 C29.26100567 50.2400398 27.78296256 48.74436764 26.30783081 47.24583435 C25.64018707 46.5716597 24.97254333 45.89748505 24.28466797 45.20288086 C23.40341751 44.30925087 23.40341751 44.30925087 22.50436401 43.39756775 C21.03306111 41.89939547 21.03306111 41.89939547 19 41 C19 40.34 19 39.68 19 39 C17.515 38.505 17.515 38.505 16 38 C16 37.34 16 36.68 16 36 C14.515 35.505 14.515 35.505 13 35 C13 34.34 13 33.68 13 33 C11.515 32.505 11.515 32.505 10 32 C8.29319053 30.37446717 6.62339805 28.70884005 5 27 C4.67 26.67 4.34 26.34 4 26 C3.99786247 27.2800013 3.99786247 27.2800013 3.99568176 28.58586121 C3.97783999 36.63430763 3.93619196 44.68220488 3.86790943 52.73038769 C3.83364237 56.86793938 3.80852998 61.00512196 3.80444336 65.14282227 C3.80015966 69.13726411 3.77169243 73.13087337 3.72656822 77.12505531 C3.71359526 78.64759786 3.70928488 80.17024006 3.71384621 81.69283104 C3.71875433 83.8289272 3.69265847 85.96259181 3.65942383 88.09838867 C3.65276199 89.3130632 3.64610016 90.52773773 3.63923645 91.77922058 C2.81654564 95.92433093 1.30674221 97.44304181 -2 100 C-5.625 100.125 -5.625 100.125 -9 99 C-12.4914823 94.79953244 -12.42752033 90.56526506 -12.38818359 85.34179688 C-12.39344055 84.48103043 -12.39869751 83.62026398 -12.40411377 82.7334137 C-12.41729134 79.89500655 -12.40858363 77.05716261 -12.3984375 74.21875 C-12.40045888 72.24247124 -12.40337085 70.2661932 -12.40713501 68.28991699 C-12.41155532 64.15072519 -12.40513666 60.01172778 -12.39111328 55.87255859 C-12.37402164 50.56957271 -12.38386438 45.26704235 -12.40183067 39.96407318 C-12.41267636 35.88397801 -12.40921854 31.80399065 -12.4014473 27.72389221 C-12.39944747 25.76868129 -12.40189694 23.81346056 -12.40888596 21.85826111 C-12.41651327 19.12464504 -12.40487827 16.39176448 -12.38818359 13.65820312 C-12.39425629 12.851819 -12.40032898 12.04543488 -12.40658569 11.21461487 C-12.35512367 6.66117557 -11.93413283 3.56590195 -9 0 C-5.3111689 -1.22961037 -3.73089725 -1.10796342 0 0 Z " fill="#2B2E34" transform="translate(53,79)"/>
<path d="M0 0 C3.15093349 2.48030526 5.89395067 5.31330892 8.6796875 8.19140625 C9.49245148 9.01124496 10.30521545 9.83108368 11.14260864 10.67576599 C13.73205322 13.29316542 16.30355969 15.92742206 18.875 18.5625 C20.62905328 20.3416343 22.38424876 22.11964328 24.140625 23.89648438 C28.44041522 28.2513589 32.72561169 32.62019814 37 37 C41.14237991 35.09929699 43.96190719 32.29224202 47.12109375 29.07421875 C47.7028688 28.4896138 48.28464386 27.90500885 48.88404846 27.3026886 C50.73995842 25.43561298 52.58880352 23.56171566 54.4375 21.6875 C55.67727058 20.4376908 56.91750025 19.18833682 58.15820312 17.93945312 C60.44744394 15.6339166 62.73395135 13.32574236 65.01733398 11.0144043 C67.66788969 8.33254135 70.33114213 5.66366273 73 3 C73.78375 2.21625 74.5675 1.4325 75.375 0.625 C78 -1 78 -1 81.625 -1 C85 0 85 0 86.68667603 1.52272034 C88.60335969 5.13809748 88.41778441 8.64272059 88.38818359 12.63647461 C88.39344055 13.5068486 88.39869751 14.3772226 88.40411377 15.27397156 C88.41731423 18.15027835 88.40857474 21.02603135 88.3984375 23.90234375 C88.4004584 25.90247199 88.40336998 27.90259951 88.40713501 29.90272522 C88.41155858 34.09497085 88.40512686 38.28702471 88.39111328 42.47924805 C88.37403251 47.85064198 88.38385544 53.22158585 88.40183067 58.59296322 C88.412677 62.72367232 88.40921806 66.85427493 88.4014473 70.98498726 C88.39944707 72.96531795 88.40189834 74.94565833 88.40888596 76.92597771 C88.41651307 79.69562209 88.40487799 82.46454047 88.38818359 85.23413086 C88.39425629 86.05143677 88.40032898 86.86874268 88.40658569 87.71081543 C88.35552841 92.28794907 87.95857757 95.27643838 85 99 C82.15916359 100.42041821 80.14522722 100.31452272 77 100 C74.04181101 97.80857252 73.10206962 96.60232238 72.48101807 92.93743896 C72.47213562 91.73830872 72.46325317 90.53917847 72.45410156 89.30371094 C72.44376389 88.63988403 72.43342621 87.97605713 72.42277527 87.29211426 C72.39336354 85.1059531 72.39184857 82.92071839 72.390625 80.734375 C72.37564209 79.21549719 72.3589147 77.69663567 72.34051514 76.17779541 C72.2968411 72.18623097 72.27684266 68.19488629 72.26177979 64.203125 C72.2422087 60.12747197 72.20023877 56.05205629 72.16015625 51.9765625 C72.0848537 43.9844371 72.03456278 35.99240491 72 28 C69.62123344 27.77172006 69.62123344 27.77172006 67.28198242 30.55444336 C66.13536128 31.72858094 64.99352639 32.90740394 63.85546875 34.08984375 C62.60900703 35.36160562 61.36225297 36.63308104 60.11523438 37.90429688 C58.14954633 39.91958754 56.18714704 41.93786502 54.23022461 43.96166992 C52.34329083 45.90906556 50.44407625 47.84379666 48.54296875 49.77734375 C47.96258347 50.38464828 47.38219818 50.99195282 46.78422546 51.61766052 C44.43262213 53.99796098 42.53594847 55.75910978 39.46606445 57.13891602 C33.24819218 56.7886567 28.64429628 50.91590844 24.5078125 46.703125 C23.91700897 46.10949158 23.32620544 45.51585815 22.71749878 44.90423584 C20.84854618 43.02417013 18.98670459 41.1372404 17.125 39.25 C15.85202757 37.96698632 14.57859455 36.68442945 13.3046875 35.40234375 C10.19777333 32.273487 7.09721325 29.13845866 4 26 C3.99413376 26.84080612 3.98826752 27.68161224 3.98222351 28.54789734 C3.92427754 36.47852842 3.85218994 44.40887843 3.76428509 52.33923626 C3.71959101 56.41616012 3.68033293 60.49298427 3.65356445 64.57006836 C3.62752161 68.50599859 3.58711271 72.44154495 3.53681374 76.37723732 C3.52015157 77.8774519 3.50863322 79.37773286 3.50238609 80.87802696 C3.49273751 82.98248746 3.46467174 85.08596738 3.43237305 87.19018555 C3.42126999 88.38709518 3.41016693 89.58400482 3.39872742 90.81718445 C2.95878948 94.32896032 2.18637297 96.23191461 0 99 C-3.5147327 100.02246769 -5.77188266 100.52542013 -9.1893158 99.06335449 C-12.05921968 95.79297247 -11.56443425 92.13076541 -11.53344727 87.98632812 C-11.54206284 87.06411972 -11.55067841 86.14191132 -11.55955505 85.1917572 C-11.58229114 82.13797076 -11.57546245 79.08509624 -11.56640625 76.03125 C-11.57163824 73.91279831 -11.57791315 71.79434897 -11.58518982 69.67590332 C-11.59560801 65.23385667 -11.5910118 60.79213008 -11.57641602 56.35009766 C-11.55922164 50.6498063 -11.5827246 44.95052225 -11.61790562 39.25034332 C-11.63983583 34.87519618 -11.63844881 30.50029171 -11.6301403 26.12510681 C-11.62931847 24.02309565 -11.63622592 21.92106708 -11.65091133 19.81910706 C-11.66827737 16.88332664 -11.6538813 13.9493776 -11.63110352 11.01367188 C-11.64279572 10.14085068 -11.65448792 9.26802948 -11.66653442 8.36875916 C-11.62818909 5.94714355 -11.62818909 5.94714355 -11 2 C-7.23028117 -1.26721605 -4.67354768 -1.73553589 0 0 Z " fill="#2B2E34" transform="translate(273,79)"/>
<path d="M0 0 C11.28726815 8.18839999 20.66828302 18.69738873 23.1953125 32.828125 C24.56826091 47.62053685 23.69925181 62.04569567 14.07958984 74.14550781 C5.46402288 84.0884813 -5.23987373 92.32179381 -18.79980469 93.65795898 C-34.2148404 94.39985071 -47.17098585 92.45765497 -59.5625 82.4375 C-59.8925 81.4475 -60.2225 80.4575 -60.5625 79.4375 C-62.0475 78.9425 -62.0475 78.9425 -63.5625 78.4375 C-72.54674416 68.75782271 -77.90646413 55.69922818 -77.5625 42.4375 C-76.50148809 30.25193899 -72.81726762 18.68790845 -64.5625 9.4375 C-63.23207145 8.76505514 -61.89921444 8.09736115 -60.5625 7.4375 C-60.2325 6.4475 -59.9025 5.4575 -59.5625 4.4375 C-58.9025 4.4375 -58.2425 4.4375 -57.5625 4.4375 C-57.5625 3.7775 -57.5625 3.1175 -57.5625 2.4375 C-55.37873234 1.30472732 -53.19092872 0.18127211 -51 -0.9375 C-50.39091797 -1.25460938 -49.78183594 -1.57171875 -49.15429688 -1.8984375 C-33.82013686 -9.68721719 -14.70035331 -8.89758226 0 0 Z M-52.5625 18.4375 C-59.27867766 26.28899894 -63.12898589 35.90838757 -62.34765625 46.29296875 C-60.93219706 56.92913351 -56.24938502 66.12265402 -47.75390625 72.875 C-39.23746619 78.63259328 -29.92175093 80.70270073 -19.8359375 78.96875 C-9.01800934 76.46542778 -0.87578792 69.48654602 5.4375 60.4375 C9.31851381 52.38798989 10.69256099 43.05434137 8.4375 34.3125 C5.42509039 25.90513864 0.25975184 17.1187704 -7.5625 12.4375 C-23.9863215 5.10121086 -38.94213439 5.96845716 -52.5625 18.4375 Z " fill="#2A2D33" transform="translate(552.5625,85.5625)"/>
<path d="M0 0 C2.88644771 3.7730757 3.40061836 6.70609468 3.51171875 11.39453125 C3.54716797 12.59658203 3.58261719 13.79863281 3.61914062 15.03710938 C3.64169922 16.28298828 3.66425781 17.52886719 3.6875 18.8125 C3.73874023 20.71032227 3.73874023 20.71032227 3.79101562 22.64648438 C3.87337129 25.76423445 3.94256529 28.88170759 4 32 C4.38757477 31.60132217 4.77514954 31.20264435 5.17446899 30.79188538 C9.21515887 26.64047597 13.27342405 22.50685484 17.34228516 18.38305664 C18.85792385 16.84229239 20.36904232 15.29706788 21.87548828 13.74731445 C24.04323672 11.51883476 26.22680175 9.30696695 28.4140625 7.09765625 C29.08305573 6.4028566 29.75204895 5.70805695 30.4413147 4.99220276 C34.10112093 1.33023764 36.54123757 -0.98050799 42 -1 C45.36056696 0.12018899 45.96356066 0.94534099 48 4 C48.06239046 8.58847163 47.1414381 11.2319596 44.12011719 14.56103516 C42.86100028 15.81920801 41.58551265 17.06114259 40.296875 18.2890625 C39.62207092 18.95537689 38.94726685 19.62169128 38.25201416 20.30819702 C36.09839765 22.42835067 33.92489206 24.52669883 31.75 26.625 C30.30201161 28.0428692 28.8553815 29.46212696 27.41015625 30.8828125 C24.74757653 33.49650835 22.07743157 36.10189595 19.39746094 38.69775391 C18.26455647 39.79807292 17.13203886 40.89879045 16 42 C15.50028687 42.48515076 15.00057373 42.97030151 14.48571777 43.47015381 C12.07922928 45.83450113 10.20952661 47.81124802 9 51 C9 51.66 9 52.32 9 53 C10.485 53.495 10.485 53.495 12 54 C12 54.66 12 55.32 12 56 C12.56203125 56.2371875 13.1240625 56.474375 13.703125 56.71875 C16.51894042 58.28947697 18.47955416 60.21471464 20.75 62.5 C21.54921875 63.2940625 22.3484375 64.088125 23.171875 64.90625 C25 67 25 67 25 69 C25.55171875 69.226875 26.1034375 69.45375 26.671875 69.6875 C29.68692417 71.38725926 31.81230369 73.54804816 34.25 76 C35.58804688 77.3303125 35.58804688 77.3303125 36.953125 78.6875 C39 81 39 81 39 83 C39.99 83.33 40.98 83.66 42 84 C42 84.66 42 85.32 42 86 C42.99 86.33 43.98 86.66 45 87 C46.54586876 90.09173752 46.29359521 92.59429552 46 96 C43.97164659 99.04253011 42.75083727 99.83314727 39.1875 100.625 C34.6383633 99.73301241 32.21869852 97.2031116 29 94 C28.43667969 93.48050781 27.87335938 92.96101563 27.29296875 92.42578125 C26 91 26 91 26 89 C25.42507813 88.76410156 24.85015625 88.52820313 24.2578125 88.28515625 C21.50500395 86.71824619 19.91439244 84.85297812 17.875 82.4375 C15.30529501 79.2525427 15.30529501 79.2525427 12 77 C12 76.34 12 75.68 12 75 C10.515 74.505 10.515 74.505 9 74 C9 73.34 9 72.68 9 72 C7.515 71.505 7.515 71.505 6 71 C6 70.34 6 69.68 6 69 C5.34 69 4.68 69 4 69 C3.98541748 69.73114014 3.97083496 70.46228027 3.95581055 71.21557617 C3.8811709 74.54007371 3.78456199 77.86358467 3.6875 81.1875 C3.65366211 82.91323242 3.65366211 82.91323242 3.61914062 84.67382812 C3.58369141 85.78564453 3.54824219 86.89746094 3.51171875 88.04296875 C3.48553467 89.06414795 3.45935059 90.08532715 3.43237305 91.13745117 C2.93331849 94.44146846 2.03083479 96.35693908 0 99 C-3.74008713 100.08802535 -5.87078128 100.59432564 -9.375 98.75 C-12.83298514 95.026016 -12.14795068 90.42901781 -12.14526367 85.66064453 C-12.14862228 84.80992371 -12.1519809 83.95920288 -12.15544128 83.08270264 C-12.16495216 80.2660578 -12.16689449 77.4494724 -12.16796875 74.6328125 C-12.17118133 72.67609635 -12.17454541 70.71938044 -12.17805481 68.76266479 C-12.18404649 64.6586654 -12.18589468 60.55468706 -12.18530273 56.45068359 C-12.18520113 51.19258206 -12.19885117 45.93461562 -12.21607494 40.6765461 C-12.22719529 36.63422017 -12.22922193 32.5919269 -12.22869301 28.54958725 C-12.22987315 26.61111867 -12.23429687 24.67264924 -12.24202538 22.73419571 C-12.25182548 20.02208252 -12.24894706 17.31026247 -12.24291992 14.59814453 C-12.24853943 13.79796906 -12.25415894 12.99779358 -12.25994873 12.17337036 C-12.23651511 8.02249717 -11.9726844 4.69327102 -10 1 C-6.69465793 -1.59705449 -3.89512184 -1.24312399 0 0 Z " fill="#2B2E34" transform="translate(433,79)"/>
<path d="M0 0 C1.28003906 -0.01611328 2.56007812 -0.03222656 3.87890625 -0.04882812 C5.11253906 -0.04947266 6.34617188 -0.05011719 7.6171875 -0.05078125 C8.74495605 -0.05376221 9.87272461 -0.05674316 11.03466797 -0.05981445 C14.49543291 0.35712871 16.37345671 1.19758218 19.125 3.3125 C20.125 6.1875 20.125 6.1875 20.125 9.3125 C18.98720128 11.63981556 17.95659286 13.48090714 16.125 15.3125 C14.6362814 15.39919432 13.143555 15.41953494 11.65234375 15.41015625 C10.84273193 15.40765869 10.03312012 15.40516113 9.19897461 15.40258789 C8.16393799 15.39348389 7.12890137 15.38437988 6.0625 15.375 C2.783125 15.354375 -0.49625 15.33375 -3.875 15.3125 C-3.875 24.5525 -3.875 33.7925 -3.875 43.3125 C2.19816469 43.19418514 2.19816469 43.19418514 8.27050781 43.04223633 C14.49026668 42.98103895 14.49026668 42.98103895 17.67578125 44.64453125 C19.84960234 47.14647628 20.05940708 49.03285384 20.125 52.3125 C17.99456522 56.87771739 17.99456522 56.87771739 15.125 58.3125 C13.67651418 58.39592159 12.22429131 58.41982861 10.7734375 58.41015625 C10.00692871 58.40765869 9.24041992 58.40516113 8.45068359 58.40258789 C6.99009521 58.38893188 6.99009521 58.38893188 5.5 58.375 C2.40625 58.354375 -0.6875 58.33375 -3.875 58.3125 C-3.545 67.5525 -3.215 76.7925 -2.875 86.3125 C2.16562956 86.2338221 2.16562956 86.2338221 7.20581055 86.13232422 C11.30307968 86.10020503 14.48924107 86.37434495 18.125 88.3125 C20.1046225 90.83201955 20.13157316 92.15145746 20 95.375 C18.95374406 98.88743064 18.26886051 99.53113011 15.125 101.3125 C11.98046875 101.71655273 11.98046875 101.71655273 8.3125 101.74609375 C7.66176514 101.7513356 7.01103027 101.75657745 6.34057617 101.76197815 C4.96892724 101.76838282 3.59722326 101.76708142 2.22558594 101.75854492 C0.13116479 101.75002508 -1.96053497 101.77882474 -4.0546875 101.81054688 C-5.39062419 101.81215892 -6.72656568 101.81158128 -8.0625 101.80859375 C-9.87814453 101.81137329 -9.87814453 101.81137329 -11.73046875 101.81420898 C-14.875 101.3125 -14.875 101.3125 -17.23828125 99.65649414 C-20.61977048 94.81376173 -20.02768409 88.71383243 -20.03613281 82.99975586 C-20.04109772 82.18761124 -20.04606262 81.37546661 -20.05117798 80.53871155 C-20.06571245 77.86824684 -20.07258485 75.19784141 -20.078125 72.52734375 C-20.08388099 70.66459655 -20.08963867 68.80184936 -20.09539795 66.93910217 C-20.10588126 63.04134853 -20.11174224 59.14361536 -20.11523438 55.24584961 C-20.12073183 50.25344898 -20.1447977 45.26131931 -20.17320633 40.26900387 C-20.19182842 36.42484237 -20.19703795 32.58074645 -20.19857025 28.73654366 C-20.20159523 26.89575268 -20.20961856 25.05496282 -20.22275543 23.21421623 C-20.23981675 20.64121633 -20.23793629 18.06888318 -20.23144531 15.49584961 C-20.2406601 14.73779022 -20.24987488 13.97973083 -20.2593689 13.19869995 C-20.22400741 8.72233873 -19.66510503 5.85376945 -16.875 2.3125 C-11.83015146 -1.05073236 -5.92381643 -0.01482437 0 0 Z " fill="#2C2F35" transform="translate(168.875,77.6875)"/>
<path d="M0 0 C1.54168602 -0.00934319 1.54168602 -0.00934319 3.11451721 -0.01887512 C4.21359909 -0.00966537 5.31268097 -0.00045563 6.44506836 0.0090332 C8.15151772 0.00828545 8.15151772 0.00828545 9.8924408 0.00752258 C12.29387156 0.00986008 14.69530491 0.01956939 17.09667969 0.03613281 C20.7748806 0.05975004 24.45235763 0.05668784 28.13061523 0.05004883 C30.46460394 0.05562494 32.79858958 0.0627344 35.13256836 0.0715332 C36.23367447 0.0706218 37.33478058 0.06971039 38.46925354 0.06877136 C39.49389206 0.07830338 40.51853058 0.08783539 41.57421875 0.09765625 C42.47402969 0.10226364 43.37384064 0.10687103 44.30091858 0.11161804 C46.93223232 0.39490356 48.50840017 0.93538086 50.72241211 2.37231445 C52.72241211 5.37231445 52.72241211 5.37231445 52.53491211 8.87231445 C51.50428463 13.31194053 51.50428463 13.31194053 48.72241211 15.37231445 C46.45410156 15.71289062 46.45410156 15.71289062 43.83569336 15.6652832 C42.89790039 15.65561523 41.96010742 15.64594727 40.99389648 15.63598633 C40.01743164 15.61084961 39.0409668 15.58571289 38.03491211 15.55981445 C36.5528125 15.53951172 36.5528125 15.53951172 35.04077148 15.51879883 C32.6007698 15.48343648 30.16186492 15.43408478 27.72241211 15.37231445 C27.73129456 16.39073425 27.740177 17.40915405 27.74932861 18.45843506 C27.83038513 28.05205259 27.89036338 37.64560073 27.9296608 47.23948288 C27.95054321 52.17192598 27.97887281 57.10409284 28.02416992 62.03637695 C28.06760432 66.79557259 28.09154429 71.55450239 28.10192108 76.31388092 C28.10931678 78.13040605 28.1237588 79.94691648 28.14533234 81.76332855 C28.17433477 84.30616289 28.17836951 86.84789624 28.17651367 89.39086914 C28.19808533 90.51943832 28.19808533 90.51943832 28.22009277 91.67080688 C28.19273617 95.13081541 27.97709836 97.03092291 25.88153076 99.83990479 C22.93407411 101.9318283 21.26101212 101.96208112 17.72241211 101.37231445 C15.40991211 99.87231445 15.40991211 99.87231445 13.72241211 97.37231445 C12.86390473 92.09976781 12.59972766 87.02003027 12.60888672 81.67114258 C12.60874069 80.94821014 12.60859467 80.22527771 12.60844421 79.48043823 C12.60913373 77.12144839 12.61688048 74.76254028 12.62475586 72.40356445 C12.62662346 70.7559005 12.62804575 69.10823599 12.62904358 67.46057129 C12.63284181 63.14683469 12.64264879 58.83313235 12.65374756 54.51940918 C12.6640199 50.10840315 12.66855362 45.69739153 12.67358398 41.28637695 C12.68427373 32.64834049 12.70131741 24.01033175 12.72241211 15.37231445 C12.16779297 15.3880249 11.61317383 15.40373535 11.04174805 15.41992188 C8.51874059 15.48244308 5.99589635 15.52135787 3.47241211 15.55981445 C2.16336914 15.59751953 2.16336914 15.59751953 0.82788086 15.63598633 C-5.64612626 15.71011618 -5.64612626 15.71011618 -8.8515625 13.99536133 C-10.70373627 11.88728887 -10.84473039 10.65781354 -10.84008789 7.87231445 C-10.86200195 7.09887695 -10.88391602 6.32543945 -10.90649414 5.52856445 C-10.27758789 3.37231445 -10.27758789 3.37231445 -8.06813049 1.76081848 C-5.07155576 0.26979803 -3.31616439 -0.00231763 0 0 Z " fill="#2E3137" transform="translate(205.277587890625,77.627685546875)"/>
<path d="M0 0 C3.26189156 0.5623951 4.91134848 1.4140505 7 4 C8.30765478 7.92296433 8.1971417 10.86002433 8 15 C7.34 15.66 6.68 16.32 6 17 C5.5065866 19.03408189 5.5065866 19.03408189 5.1875 21.3125 C4.18995227 25.95035249 3.02148513 28.20958175 -1 31 C-4.61421845 32.27623738 -8.26027746 33.17514317 -12 34 C-13.33424547 34.32966332 -14.66796721 34.66150696 -16 35 C-16 36.98 -16 38.96 -16 41 C-12.62038379 42.12653874 -12.22560349 41.94969843 -9.12890625 40.6015625 C-8.38962891 40.28703125 -7.65035156 39.9725 -6.88867188 39.6484375 C-6.12103516 39.31070313 -5.35339844 38.97296875 -4.5625 38.625 C-3.04402058 37.96891438 -1.52451969 37.31518679 -0.00390625 36.6640625 C0.66825928 36.36967285 1.3404248 36.0752832 2.03295898 35.77197266 C7.38987343 33.6696314 13.52654565 32.7132885 19.03515625 34.75390625 C22.52796768 36.64491881 24.97498562 38.60914014 27 42 C27.81080726 47.31042232 27.87326391 52.32064633 25.375 57.125 C21.05366937 60.53657681 16.59047214 61.26539344 11.1875 61.1875 C10.07117188 61.17203125 8.95484375 61.1565625 7.8046875 61.140625 C2.71698142 60.95257837 -2.36182532 60.64986228 -7.4387207 60.26831055 C-11.33921596 59.88385053 -11.33921596 59.88385053 -15 61 C-15.93290716 63.32859537 -15.93290716 63.32859537 -16 66 C-14.66846734 68.30504044 -14.66846734 68.30504044 -13 70 C-8.65045611 69.51671735 -4.64530107 68.65615277 -0.4375 67.4375 C8.89821616 64.85772618 8.89821616 64.85772618 13.875 67.5625 C16 70 16 70 16.6875 73.4375 C15.94258208 77.29752921 14.95353923 78.64545713 11.796875 80.9453125 C9.96842373 82.0185339 8.15405512 82.8367527 6.1875 83.625 C4.6096875 84.305625 4.6096875 84.305625 3 85 C2.67 85.99 2.34 86.98 2 88 C1.34 88 0.68 88 0 88 C0.2784375 88.928125 0.2784375 88.928125 0.5625 89.875 C1 92 1 92 0 94 C-1.485 93.505 -1.485 93.505 -3 93 C-2.88148629 86.12620486 -2.88148629 86.12620486 -0.62109375 83.23828125 C3.22757356 79.82011364 7.1910943 77.76653679 12 76 C11.67 74.35 11.34 72.7 11 71 C6.0526338 71.29400332 1.47594908 71.61946971 -3.125 73.5625 C-7.88712298 75.52904471 -12.29551545 75.80403595 -17.3125 74.3125 C-20.80771995 71.5939956 -21.88490798 68.90429443 -22.4375 64.5625 C-21.909287 60.26133703 -20.862816 58.23950231 -18 55 C-13.55655155 53.06668791 -10.21915039 52.87633426 -5.4375 53.375 C-0.59472635 53.80079472 4.20022621 54.12672158 9.0625 54.1875 C10.08472656 54.20167969 11.10695313 54.21585938 12.16015625 54.23046875 C15.13549345 53.98900397 17.30543584 53.25087107 20 52 C19.1395861 47.66770285 19.1395861 47.66770285 17 44 C9.27574688 43.15860814 3.80190448 44.48501189 -3 48 C-7.94055602 50.05856501 -12.69486802 50.92815385 -18 50 C-21.00380966 47.99746023 -22.52639956 46.55566767 -23.58984375 43.0625 C-24.2900248 38.90861689 -24.27851994 35.66544512 -22 32 C-17.38955851 26.64191934 -12.80449711 26.15276783 -5.92578125 25.359375 C-2.94296847 25.09110668 -2.94296847 25.09110668 0 24 C0.2502157 21.08365871 0.2502157 21.08365871 0 18 C-0.99 17.34 -1.98 16.68 -3 16 C-3.3984375 13.3203125 -3.3984375 13.3203125 -3.375 10.125 C-3.38273437 9.07570313 -3.39046875 8.02640625 -3.3984375 6.9453125 C-2.96373166 3.73189873 -2.15808856 2.3636208 0 0 Z " fill="#A1CD42" transform="translate(388,80)"/>
<path d="M0 0 C1.485 0.99 1.485 0.99 3 2 C2.67 2.33 2.34 2.66 2 3 C1.89946492 5.8250333 1.86384284 8.62565285 1.87060547 11.45117188 C1.86885315 12.33728653 1.86710083 13.22340118 1.86529541 14.1363678 C1.8608756 17.08051482 1.86381533 20.02460231 1.8671875 22.96875 C1.8665145 25.00516776 1.8655445 27.04158544 1.86428833 29.07800293 C1.86281118 33.35197716 1.86496645 37.62593053 1.86962891 41.89990234 C1.8753262 47.39158539 1.87204729 52.88321957 1.86605644 58.37490082 C1.86245128 62.58177054 1.86358921 66.78862859 1.86618423 70.99549866 C1.86685363 73.02100124 1.86602465 75.04650486 1.86370468 77.07200623 C1.8611789 79.8976423 1.8650177 82.72319807 1.87060547 85.54882812 C1.86858124 86.39457901 1.86655701 87.2403299 1.86447144 88.11170959 C1.51557623 91.86059746 1.51557623 91.86059746 3 95 C6 95.16666667 6 95.16666667 9 95 C10.88892905 93.11107095 10.15478534 89.82040183 10.17358398 87.30883789 C10.180271 86.60964737 10.18695801 85.91045685 10.19384766 85.19007874 C10.20792822 83.66716845 10.21981262 82.14423668 10.22979546 80.62129402 C10.24615507 78.21363151 10.26938995 75.8061284 10.29469299 73.39854431 C10.36561213 66.55166513 10.42565039 59.70472079 10.47680664 52.85766602 C10.50854469 48.67430765 10.54980716 44.49113161 10.59700203 40.30792046 C10.6130541 38.71031401 10.62536079 37.11266551 10.63390923 35.5150013 C10.6460221 33.28333075 10.67015387 31.05209119 10.69702148 28.82055664 C10.70732895 27.5489418 10.71763641 26.27732697 10.72825623 24.96717834 C11 22 11 22 13 20 C13.58136215 20.60134766 13.58136215 20.60134766 14.17446899 21.21484375 C18.21214508 25.38528417 22.27080886 29.53443181 26.34228516 33.671875 C27.85883925 35.21859798 29.36996419 36.77066376 30.87548828 38.328125 C33.04093807 40.56637501 35.2252062 42.78466446 37.4140625 45 C38.08305573 45.69996094 38.75204895 46.39992187 39.4413147 47.12109375 C42.24485524 49.92661884 44.15997305 51.75991453 48.01367188 52.86132812 C52.59886351 51.5388497 55.12575789 48.61529728 58.3671875 45.21875 C59.04677521 44.53067261 59.72636292 43.84259521 60.42654419 43.13366699 C62.59052914 40.93613792 64.73270965 38.71866348 66.875 36.5 C68.33975549 35.0051468 69.80588628 33.51163988 71.2734375 32.01953125 C74.86509456 28.36177579 78.4373373 24.68599294 82 21 C82.99 21.99 82.99 21.99 84 23 C84.33 23 84.66 23 85 23 C85.0154612 24.28666313 85.0154612 24.28666313 85.03123474 25.59931946 C85.12915653 33.6776163 85.23166345 41.75583908 85.33933926 49.83401203 C85.39453599 53.9872148 85.44795082 58.14042465 85.49731445 62.29370117 C85.54500591 66.3007999 85.59735049 70.30781314 85.65294075 74.3148098 C85.67334263 75.8446153 85.69205929 77.37444423 85.70907402 78.90429115 C85.73316605 81.04476012 85.76321392 83.18506793 85.79467773 85.32543945 C85.81799416 87.15411308 85.81799416 87.15411308 85.84178162 89.01972961 C85.87064557 92.05441943 85.87064557 92.05441943 87 95 C87.66 95.33 88.32 95.66 89 96 C88.505 97.485 88.505 97.485 88 99 C85.54121399 97.41851807 85.54121399 97.41851807 83 95 C82.36076355 91.93743896 82.36076355 91.93743896 82.34057617 88.30371094 C82.33009247 87.63988403 82.31960876 86.97605713 82.30880737 86.29211426 C82.28008728 84.10572391 82.28634417 81.92091994 82.29296875 79.734375 C82.27985164 78.21549498 82.26454736 76.6966324 82.24714661 75.17779541 C82.20728413 71.18614507 82.19710546 67.1949509 82.19311523 63.203125 C82.18378599 59.12746329 82.14637388 55.05206986 82.11132812 50.9765625 C82.04673978 42.98437009 82.0135101 34.99244119 82 27 C79.62123344 26.77172006 79.62123344 26.77172006 77.28198242 29.55444336 C76.13536128 30.72858094 74.99352639 31.90740394 73.85546875 33.08984375 C72.60900703 34.36160562 71.36225297 35.63308104 70.11523438 36.90429688 C68.14954633 38.91958754 66.18714704 40.93786502 64.23022461 42.96166992 C62.34329083 44.90906556 60.44407625 46.84379666 58.54296875 48.77734375 C57.96258347 49.38464828 57.38219818 49.99195282 56.78422546 50.61766052 C54.43262213 52.99796098 52.53594847 54.75910978 49.46606445 56.13891602 C43.24819218 55.7886567 38.64429628 49.91590844 34.5078125 45.703125 C33.91700897 45.10949158 33.32620544 44.51585815 32.71749878 43.90423584 C30.84854618 42.02417013 28.98670459 40.1372404 27.125 38.25 C25.85202757 36.96698632 24.57859455 35.68442945 23.3046875 34.40234375 C20.19777333 31.273487 17.09721325 28.13845866 14 25 C13.99413376 25.84080612 13.98826752 26.68161224 13.98222351 27.54789734 C13.92427754 35.47852842 13.85218994 43.40887843 13.76428509 51.33923626 C13.71959101 55.41616012 13.68033293 59.49298427 13.65356445 63.57006836 C13.62752161 67.50599859 13.58711271 71.44154495 13.53681374 75.37723732 C13.52015157 76.8774519 13.50863322 78.37773286 13.50238609 79.87802696 C13.49273751 81.98248746 13.46467174 84.08596738 13.43237305 86.19018555 C13.42126999 87.38709518 13.41016693 88.58400482 13.39872742 89.81718445 C12.95878948 93.32896032 12.18637297 95.23191461 10 98 C6.48395751 99.02284872 4.22681644 99.52280463 0.80671692 98.06533813 C-2.06492898 94.78263251 -1.53067639 91.10569892 -1.4699707 86.95458984 C-1.4721611 86.02916885 -1.4743515 85.10374786 -1.47660828 84.15028381 C-1.47892272 81.08680671 -1.45264813 78.02428671 -1.42578125 74.9609375 C-1.42085973 72.83770045 -1.4175593 70.71445908 -1.41581726 68.59121704 C-1.40817153 64.14074868 -1.38759071 59.69060126 -1.35668945 55.24023438 C-1.31706615 49.52215403 -1.29907411 43.80428253 -1.28938007 38.08608055 C-1.27942861 32.64850429 -1.25951968 27.21097965 -1.23828125 21.7734375 C-1.23318763 20.20637117 -1.23318763 20.20637117 -1.2279911 18.60764694 C-1.21647112 15.66724172 -1.19796007 12.72697231 -1.17700195 9.78662109 C-1.17431305 8.90660934 -1.17162415 8.0265976 -1.16885376 7.11991882 C-1.11490021 1.11490021 -1.11490021 1.11490021 0 0 Z " fill="#090E16" transform="translate(263,80)"/>
<path d="M0 0 C0.99 0 1.98 0 3 0 C3.01030746 1.11055756 3.02061493 2.22111511 3.03123474 3.36532593 C3.12884106 13.8132219 3.23156284 24.26105661 3.33933926 34.70885277 C3.39458717 40.08062025 3.44801015 45.45239316 3.49731445 50.82421875 C3.54493044 56.00487751 3.59727224 61.18546863 3.65294075 66.36604691 C3.67337685 68.34604847 3.69208783 70.32606859 3.70907402 72.30610275 C3.73309026 75.07181277 3.76314858 77.83739424 3.79467773 80.60302734 C3.8004332 81.42805252 3.80618866 82.2530777 3.81211853 83.10310364 C3.76849416 87.18351815 3.76849416 87.18351815 5 91 C6.99954746 91.04254356 9.00041636 91.04080783 11 91 C12.90340115 89.09659885 12.17499006 85.71154214 12.20532227 83.18530273 C12.21522186 82.47314606 12.22512146 81.76098938 12.23532104 81.0272522 C12.26702212 78.66273372 12.29172724 76.29819511 12.31640625 73.93359375 C12.33696836 72.29833948 12.35796463 70.66309062 12.37937927 69.02784729 C12.43467672 64.71571214 12.48405201 60.40352842 12.53222656 56.09130859 C12.58238572 51.69429176 12.63810087 47.2973458 12.69335938 42.90039062 C12.80103473 34.26698693 12.90245871 25.6335241 13 17 C13.66 16.67 14.32 16.34 15 16 C15.7110791 16.7213916 16.4221582 17.4427832 17.15478516 18.18603516 C19.86175704 20.89300704 22.67976596 23.45999775 25.5234375 26.0234375 C32.10884658 32.01030136 38.37403328 38.2926758 44.625 44.625 C46.73929716 46.76590803 48.85693775 48.90343062 50.9765625 51.0390625 C51.89518066 51.96928223 52.81379883 52.89950195 53.76025391 53.85791016 C55.80732854 56.02658576 55.80732854 56.02658576 58 57 C58 57.66 58 58.32 58 59 C58.556875 59.20625 59.11375 59.4125 59.6875 59.625 C62.92501302 61.55000774 64.68231141 64.03850902 67 67 C61.22732235 65.6440641 58.32882063 62.84840307 54.359375 58.71484375 C53.75111877 58.09855606 53.14286255 57.48226837 52.51617432 56.8473053 C50.58439632 54.88664035 48.66680723 52.91279343 46.75 50.9375 C44.8163426 48.96133672 42.8798655 46.98801569 40.940979 45.01698303 C39.73759598 43.79189549 38.53772884 42.56334253 37.34173584 41.33103943 C34.46554127 38.28389844 34.46554127 38.28389844 31 36 C31 35.34 31 34.68 31 34 C29.515 33.505 29.515 33.505 28 33 C28 32.34 28 31.68 28 31 C27.01 30.67 26.02 30.34 25 30 C25 29.34 25 28.68 25 28 C24.01 27.67 23.02 27.34 22 27 C20.29319053 25.37446717 18.62339805 23.70884005 17 22 C16.67 21.67 16.34 21.34 16 21 C15.99786247 22.2800013 15.99786247 22.2800013 15.99568176 23.58586121 C15.97783999 31.63430763 15.93619196 39.68220488 15.86790943 47.73038769 C15.83364237 51.86793938 15.80852998 56.00512196 15.80444336 60.14282227 C15.80015966 64.13726411 15.77169243 68.13087337 15.72656822 72.12505531 C15.71359526 73.64759786 15.70928488 75.17024006 15.71384621 76.69283104 C15.71875433 78.8289272 15.69265847 80.96259181 15.65942383 83.09838867 C15.65276199 84.3130632 15.64610016 85.52773773 15.63923645 86.77922058 C14.81654564 90.92433093 13.30674221 92.44304181 10 95 C6.375 95.125 6.375 95.125 3 94 C-0.52282134 89.77963248 -0.41012067 85.51247621 -0.34057617 80.26245117 C-0.34101425 79.39365326 -0.34145233 78.52485535 -0.34190369 77.62973022 C-0.33981902 74.76724525 -0.31650313 71.90535101 -0.29296875 69.04296875 C-0.28737165 67.05471619 -0.28310209 65.06645948 -0.28010559 63.07820129 C-0.26866581 57.85190352 -0.23920595 52.62585692 -0.20599365 47.3996582 C-0.17527418 42.0639994 -0.16159623 36.72829992 -0.14648438 31.39257812 C-0.11433553 20.92827523 -0.06314953 10.46415852 0 0 Z " fill="#0F1012" transform="translate(41,84)"/>
<path d="M0 0 C0.99 0 1.98 0 3 0 C2.39060413 6.45959622 2.39060413 6.45959622 0.76245117 8.7121582 C-1.57364649 10.41916958 -3.01239397 10.3452292 -5.88671875 10.29296875 C-6.82451172 10.28330078 -7.76230469 10.27363281 -8.72851562 10.26367188 C-9.70498047 10.23853516 -10.68144531 10.21339844 -11.6875 10.1875 C-13.16959961 10.16719727 -13.16959961 10.16719727 -14.68164062 10.14648438 C-17.12164231 10.11112203 -19.56054719 10.06177033 -22 10 C-21.99111755 11.0184198 -21.98223511 12.0368396 -21.9730835 13.08612061 C-21.89202698 22.67973814 -21.83204873 32.27328627 -21.79275131 41.86716843 C-21.7718689 46.79961153 -21.7435393 51.73177839 -21.69824219 56.6640625 C-21.65480779 61.42325814 -21.63086782 66.18218793 -21.62049103 70.94156647 C-21.61309533 72.75809159 -21.59865331 74.57460203 -21.57707977 76.3910141 C-21.54807734 78.93384844 -21.5440426 81.47558179 -21.54589844 84.01855469 C-21.52432678 85.14712387 -21.52432678 85.14712387 -21.50231934 86.29849243 C-21.52967593 89.75850096 -21.74531375 91.65860845 -23.84088135 94.46759033 C-26.788338 96.55951384 -28.46139999 96.58976667 -32 96 C-34.3125 94.5 -34.3125 94.5 -36 92 C-36.85850738 86.72745336 -37.12268444 81.64771581 -37.11352539 76.29882812 C-37.11367142 75.57589569 -37.11381744 74.85296326 -37.1139679 74.10812378 C-37.11327838 71.74913394 -37.10553163 69.39022583 -37.09765625 67.03125 C-37.09578865 65.38358605 -37.09436636 63.73592154 -37.09336853 62.08825684 C-37.0895703 57.77452024 -37.07976332 53.46081789 -37.06866455 49.14709473 C-37.05839221 44.7360887 -37.05385849 40.32507707 -37.04882812 35.9140625 C-37.03813838 27.27602604 -37.0210947 18.63801729 -37 10 C-37.83192871 10.0314209 -37.83192871 10.0314209 -38.68066406 10.06347656 C-41.20359023 10.14683548 -43.72622649 10.19871868 -46.25 10.25 C-47.55904297 10.30027344 -47.55904297 10.30027344 -48.89453125 10.3515625 C-55.35895752 10.45025603 -55.35895752 10.45025603 -58.625 8.15625 C-60 6 -60 6 -59.75 3.25 C-59.5025 2.5075 -59.255 1.765 -59 1 C-58 3 -57 5 -56 7 C-55.36908447 7.02505615 -54.73816895 7.0501123 -54.08813477 7.07592773 C-51.24603175 7.19154137 -48.40428917 7.31442316 -45.5625 7.4375 C-44.07266602 7.49647461 -44.07266602 7.49647461 -42.55273438 7.55664062 C-41.60849609 7.59853516 -40.66425781 7.64042969 -39.69140625 7.68359375 C-38.37958374 7.73858032 -38.37958374 7.73858032 -37.04125977 7.79467773 C-35 8 -35 8 -34 9 C-33.88028366 11.54983254 -33.82456382 14.07381431 -33.81054688 16.625 C-33.80225357 17.42333252 -33.79396027 18.22166504 -33.78541565 19.04418945 C-33.76797694 20.78318263 -33.75282068 22.52219981 -33.73963928 24.26123047 C-33.71868248 27.00885287 -33.69165485 29.75635445 -33.66296387 32.50390625 C-33.59298365 39.32838997 -33.53367265 46.1529594 -33.47393799 52.97753906 C-33.42309584 58.74012304 -33.3682949 64.50264241 -33.30812073 70.26513672 C-33.28144529 72.98012398 -33.26069159 75.6951169 -33.2401123 78.41015625 C-33.22351637 80.0651071 -33.20664516 81.72005523 -33.18945312 83.375 C-33.1831765 84.51739136 -33.1831765 84.51739136 -33.17677307 85.68286133 C-33.44344585 89.13194304 -33.44344585 89.13194304 -32 92 C-29 92.16666667 -29 92.16666667 -26 92 C-24.01675383 90.01675383 -24.82546557 86.09031067 -24.81054688 83.375 C-24.80225357 82.57666748 -24.79396027 81.77833496 -24.78541565 80.95581055 C-24.76797694 79.21681737 -24.75282068 77.47780019 -24.73963928 75.73876953 C-24.71868248 72.99114713 -24.69165485 70.24364555 -24.66296387 67.49609375 C-24.60316102 61.66410843 -24.55104733 55.83206767 -24.5 50 C-24.44087347 43.24489831 -24.37865895 36.48985628 -24.30812073 29.73486328 C-24.28144529 27.01987602 -24.26069159 24.3048831 -24.2401123 21.58984375 C-24.22351637 19.9348929 -24.20664516 18.27994477 -24.18945312 16.625 C-24.18526871 15.86340576 -24.18108429 15.10181152 -24.17677307 14.31713867 C-24.11384346 9.11384346 -24.11384346 9.11384346 -23 8 C-21.44051458 7.84313751 -19.87457332 7.74923361 -18.30859375 7.68359375 C-17.36435547 7.64169922 -16.42011719 7.59980469 -15.44726562 7.55664062 C-14.45404297 7.51732422 -13.46082031 7.47800781 -12.4375 7.4375 C-11.44041016 7.39431641 -10.44332031 7.35113281 -9.41601562 7.30664062 C-6.9441585 7.20019702 -4.4721969 7.09818072 -2 7 C-1.34 4.69 -0.68 2.38 0 0 Z " fill="#0B111C" transform="translate(255,83)"/>
<path d="M0 0 C3.375 1 3.375 1 5.06266785 2.52172852 C6.98036401 6.14319866 6.78454985 9.65343897 6.74731445 13.65234375 C6.75096512 14.52432404 6.75461578 15.39630432 6.75837708 16.29470825 C6.76648018 19.17583721 6.7528744 22.05640334 6.73828125 24.9375 C6.73776261 26.94002278 6.73828045 28.94254608 6.73979187 30.94506836 C6.73970216 35.14151614 6.72927455 39.33777177 6.71118164 43.53417969 C6.68849461 48.9145667 6.68795051 54.29467293 6.69469929 59.6750946 C6.69804 63.81004331 6.69140722 67.94492795 6.68157005 72.0798645 C6.67771954 74.06380885 6.67656922 76.04776032 6.6781559 78.03170776 C6.67852656 80.80382884 6.6659061 83.57558931 6.6496582 86.34765625 C6.65213562 87.16855743 6.65461304 87.98945862 6.65716553 88.8352356 C6.62112608 92.68594949 6.57051091 95.74029127 4.375 99 C2.395 98.505 2.395 98.505 0.375 98 C1.035 97.34 1.695 96.68 2.375 96 C2.56849721 93.11325756 2.63718751 90.32279896 2.61791992 87.43530273 C2.62076744 86.10591171 2.62076744 86.10591171 2.62367249 84.74966431 C2.62738685 81.81088505 2.61666746 78.87235116 2.60546875 75.93359375 C2.60427731 73.89860564 2.60382371 71.86361698 2.6040802 69.82862854 C2.60251424 65.56060349 2.59421538 61.29266219 2.58081055 57.0246582 C2.56380979 51.54084488 2.55999644 46.0571236 2.56075573 40.57328701 C2.56048444 36.37070326 2.55501004 32.16813983 2.54775429 27.96556282 C2.54456172 25.94285295 2.54259885 23.92014077 2.54186058 21.89742851 C2.53970383 19.07667962 2.5309744 16.25603039 2.52026367 13.43530273 C2.52094345 12.16903297 2.52094345 12.16903297 2.52163696 10.87718201 C2.86147162 7.13386845 2.86147162 7.13386845 1.375 4 C-2.05960701 4 -4.63236431 4.08868868 -7.24609375 6.48828125 C-8.25997664 7.71810802 -9.25197474 8.96626552 -10.22265625 10.23046875 C-12.06834454 12.55942919 -14.27658804 14.19352926 -16.625 16 C-18.3042619 17.65397552 -19.96928888 19.32244933 -21.625 21 C-28.625 28 -35.625 35 -42.625 42 C-45.85245524 40.58098338 -47.99758107 38.87144235 -50.47558594 36.37646484 C-51.21605164 35.63584808 -51.95651733 34.89523132 -52.71942139 34.13217163 C-53.50810608 33.33316437 -54.29679077 32.5341571 -55.109375 31.7109375 C-55.92496887 30.89251373 -56.74056274 30.07408997 -57.58087158 29.23086548 C-60.18364562 26.61690027 -62.77937762 23.99606495 -65.375 21.375 C-67.1388634 19.60110546 -68.9031809 17.82766234 -70.66796875 16.0546875 C-74.99226136 11.70834858 -79.3107933 7.35634919 -83.625 3 C-82.965 2.34 -82.305 1.68 -81.625 1 C-69.415 13.21 -57.205 25.42 -44.625 38 C-40.43543861 35.90521931 -37.72862546 33.35899515 -34.50390625 30.07421875 C-33.9221312 29.4896138 -33.34035614 28.90500885 -32.74095154 28.3026886 C-30.88504158 26.43561298 -29.03619648 24.56171566 -27.1875 22.6875 C-25.94772942 21.4376908 -24.70749975 20.18833682 -23.46679688 18.93945312 C-21.17755606 16.6339166 -18.89104865 14.32574236 -16.60766602 12.0144043 C-13.95711031 9.33254135 -11.29385787 6.66366273 -8.625 4 C-7.84125 3.21625 -7.0575 2.4325 -6.25 1.625 C-3.625 0 -3.625 0 0 0 Z " fill="#17171A" transform="translate(354.625,78)"/>
<path d="M0 0 C4.21424915 0.49636653 6.09606034 2.82220218 8.9375 5.8125 C12.14038959 9.16390069 15.37783725 12.11474047 19 15 C20.67941711 16.65381792 22.34349766 18.32323062 24 20 C25.08032301 21.08642291 26.16107808 22.17241629 27.2421875 23.25805664 C28.11834717 24.13905785 28.11834717 24.13905785 29.01220703 25.03785706 C31.64626862 27.68536082 34.28303904 30.33016001 36.91992188 32.97485352 C38.30753609 34.36751656 39.69425425 35.76107297 41.08007812 37.15551758 C43.09267742 39.18027832 45.10851762 41.2017636 47.125 43.22265625 C47.73972168 43.84253922 48.35444336 44.46242218 48.98779297 45.10108948 C51.5569949 47.67062363 54.06495819 50.05096511 56.9296875 52.29858398 C57.61289063 52.86005127 58.29609375 53.42151855 59 54 C59 54.66 59 55.32 59 56 C59.61875 56.2475 60.2375 56.495 60.875 56.75 C63.35068687 58.20628639 63.95125002 59.37812506 65 62 C65.66 62 66.32 62 67 62 C71.76744186 66.30232558 71.76744186 66.30232558 73 70 C74.485 70.495 74.485 70.495 76 71 C76.33 48.23 76.66 25.46 77 2 C77.99 2.33 78.98 2.66 80 3 C80.06941953 12.22267087 80.12277008 21.44525222 80.15543652 30.66812706 C80.17111243 34.95039452 80.19238549 39.23248364 80.22631836 43.51464844 C80.25884364 47.6448912 80.2768385 51.77496211 80.28463173 55.90532303 C80.29018758 57.48345268 80.30103646 59.06157261 80.31719017 60.63962936 C80.33887438 62.84508561 80.34197082 65.04982592 80.34057617 67.25537109 C80.35056892 69.14067032 80.35056892 69.14067032 80.36076355 71.0640564 C80.24171158 72.03291779 80.12265961 73.00177917 80 74 C79.01 74.66 78.02 75.32 77 76 C76.5875 75.58226318 76.175 75.16452637 75.75 74.73413086 C73.83611222 72.79914973 71.91808329 70.86832199 70 68.9375 C69.35160156 68.28072266 68.70320313 67.62394531 68.03515625 66.94726562 C67.38417969 66.29306641 66.73320313 65.63886719 66.0625 64.96484375 C65.47597656 64.3730835 64.88945313 63.78132324 64.28515625 63.17163086 C62.29996749 61.28506525 60.27299507 59.49290158 58.20117188 57.70336914 C54.20058671 54.22231533 50.44191357 50.55492208 46.71875 46.78125 C46.06096558 46.11967896 45.40318115 45.45810791 44.72546387 44.77648926 C41.94933442 41.98421856 39.17928463 39.18594584 36.40869141 36.38818359 C34.3683292 34.32959102 32.32485669 32.27412097 30.28125 30.21875 C29.66954956 29.59875122 29.05784912 28.97875244 28.4276123 28.33996582 C24.68040914 24.57193215 20.80101837 21.02385099 16.77966309 17.550354 C14.76035164 15.79123026 12.83287464 13.96204219 10.9375 12.0703125 C9.96103516 11.09578125 9.96103516 11.09578125 8.96484375 10.1015625 C8.31644531 9.44929688 7.66804688 8.79703125 7 8.125 C6.32066406 7.44953125 5.64132813 6.7740625 4.94140625 6.078125 C4.30074219 5.43617187 3.66007812 4.79421875 3 4.1328125 C2.4225 3.55418457 1.845 2.97555664 1.25 2.37939453 C0 1 0 1 0 0 Z " fill="#0B0D12" transform="translate(52,81)"/>
<path d="M0 0 C0.66 0.33 1.32 0.66 2 1 C1.67 1.66 1.34 2.32 1 3 C0.90665568 5.86831552 0.87425189 8.71218264 0.88647461 11.58056641 C0.88632858 12.46843338 0.88618256 13.35630035 0.8860321 14.27107239 C0.88673045 17.21459369 0.89451919 20.15805221 0.90234375 23.1015625 C0.90420821 25.13894618 0.90563198 27.17633031 0.90663147 29.2137146 C0.91045445 34.58297966 0.92028289 39.95221777 0.93133545 45.32147217 C0.94155426 50.7976444 0.9461301 56.27382098 0.95117188 61.75 C0.96190533 72.50001185 0.97897915 83.25000369 1 94 C3.31 94.33 5.62 94.66 8 95 C5.58278807 96.52194825 4.26487742 97.01261321 1.375 96.875 C-1 96 -1 96 -2.133255 94.4756012 C-3.40048391 90.85613595 -3.26940358 87.30339788 -3.24291992 83.51538086 C-3.24481827 82.66130142 -3.24671661 81.80722198 -3.24867249 80.92726135 C-3.25237483 78.10636188 -3.24168419 75.28572031 -3.23046875 72.46484375 C-3.22927658 70.50476614 -3.22882387 68.54468794 -3.2290802 66.58460999 C-3.2275163 62.47816386 -3.21923323 58.37180503 -3.20581055 54.26538086 C-3.1888097 48.99705375 -3.1849966 43.72882248 -3.18575573 38.46047115 C-3.18548406 34.41393618 -3.18000345 30.36742223 -3.17275429 26.32089424 C-3.16956851 24.37798789 -3.16760042 22.43507916 -3.16686058 20.49217033 C-3.16469671 17.77981364 -3.15595168 15.06755936 -3.14526367 12.35522461 C-3.14571686 11.54942963 -3.14617004 10.74363464 -3.14663696 9.91342163 C-3.12798067 6.68174221 -3.02935173 4.08805519 -2 1 C-1.34 0.67 -0.68 0.34 0 0 Z " fill="#161B23" transform="translate(424,81)"/>
<path d="M0 0 C7.11125093 5.20115086 14.52186029 12.82441637 16.828125 21.56640625 C18.71417094 34.12258244 17.78027935 45.02284456 10.5 55.625 C6.23165419 60.96313375 0.83652545 65.3167108 -5.75 67.375 C-6.08 66.715 -6.41 66.055 -6.75 65.375 C-5.33531689 64.41374097 -3.9181636 63.45611675 -2.5 62.5 C-1.71109375 61.96632813 -0.9221875 61.43265625 -0.109375 60.8828125 C2.25 59.375 2.25 59.375 4.484375 58.28515625 C6.88291507 57.04874068 7.18242247 55.84377303 8.25 53.375 C10.25 49.9375 10.25 49.9375 11.25 48.25390625 C15.30569783 40.63363024 16.44071084 31.64996487 14.25 23.25 C11.3535937 15.14270748 6.60346442 7.04162165 -0.75 2.375 C-12.36743483 -2.6529297 -22.68852052 -4.32384797 -34.75 0.375 C-40.90795439 3.83393608 -45.42091556 7.86525617 -49.75 13.375 C-50.74 13.705 -51.73 14.035 -52.75 14.375 C-47.95336056 4.04730742 -39.48246533 -1.07130626 -29.125 -5 C-19.11724132 -6.85328864 -8.74545289 -5.42821214 0 0 Z " fill="#020308" transform="translate(545.75,96.625)"/>
<path d="M0 0 C2 1 2 1 3 3 C2.79375 3.78375 2.5875 4.5675 2.375 5.375 C1.70250504 8.07391725 1.70250504 8.07391725 3.4375 10.3125 C3.953125 10.869375 4.46875 11.42625 5 12 C9.34954389 11.51671735 13.35469893 10.65615277 17.5625 9.4375 C26.89821616 6.85772618 26.89821616 6.85772618 31.875 9.5625 C34 12 34 12 34.6875 15.4375 C33.94258208 19.29752921 32.95353923 20.64545713 29.796875 22.9453125 C27.96842373 24.0185339 26.15405512 24.8367527 24.1875 25.625 C22.6096875 26.305625 22.6096875 26.305625 21 27 C20.67 27.99 20.34 28.98 20 30 C19.34 30 18.68 30 18 30 C18.185625 30.61875 18.37125 31.2375 18.5625 31.875 C19 34 19 34 18 36 C16.515 35.505 16.515 35.505 15 35 C15.11851371 28.12620486 15.11851371 28.12620486 17.37890625 25.23828125 C21.22757356 21.82011364 25.1910943 19.76653679 30 18 C29.67 16.35 29.34 14.7 29 13 C24.0526338 13.29400332 19.47594908 13.61946971 14.875 15.5625 C10.05027464 17.55489671 5.74989829 17.6512917 0.625 16.4375 C-2.16771512 13.96702124 -2.47387432 11.62442137 -3 8 C-2.28916851 5.11130182 -1.24452686 2.72838582 0 0 Z " fill="#9FC83A" transform="translate(370,138)"/>
<path d="M0 0 C1 2 2 4 3 6 C3.63091553 6.02505615 4.26183105 6.0501123 4.91186523 6.07592773 C7.75396825 6.19154137 10.59571083 6.31442316 13.4375 6.4375 C14.92733398 6.49647461 14.92733398 6.49647461 16.44726562 6.55664062 C17.39150391 6.59853516 18.33574219 6.64042969 19.30859375 6.68359375 C20.62041626 6.73858032 20.62041626 6.73858032 21.95874023 6.79467773 C24 7 24 7 25 8 C25.09506052 10.55589888 25.12556761 13.08467972 25.11352539 15.64086914 C25.11367142 16.44080795 25.11381744 17.24074677 25.1139679 18.06492615 C25.11326855 20.72169665 25.10547518 23.37839793 25.09765625 26.03515625 C25.09579215 27.87218691 25.09436821 29.70921806 25.09336853 31.54624939 C25.08954275 36.39109662 25.07971196 41.23591408 25.06866455 46.08074951 C25.05845172 51.02062578 25.05387119 55.96050685 25.04882812 60.90039062 C25.03808974 70.60027353 25.0210126 80.30013429 25 90 C24.67 90 24.34 90 24 90 C23.67 87.69 23.34 85.38 23 83 C22.67 83 22.34 83 22 83 C22 58.58 22 34.16 22 9 C15.73 9 9.46 9 3 9 C1.68 7.68 0.36 6.36 -1 5 C-0.75 2.25 -0.75 2.25 0 0 Z " fill="#050509" transform="translate(196,84)"/>
<path d="M0 0 C7.53751122 11.30626683 3.18713344 35.63274467 3.18530273 49.26098633 C3.1851998 53.08616103 3.19902238 56.91115554 3.21607494 60.73628712 C3.22717611 63.70367786 3.22922278 66.67102407 3.22869301 69.63843346 C3.22986938 71.05021491 3.23427184 72.46199766 3.24202538 73.87375832 C3.25181724 75.83484115 3.24768504 77.79597859 3.24291992 79.75708008 C3.24434494 80.86940506 3.24576996 81.98173004 3.24723816 83.12776184 C3.00399751 85.95355977 2.46583338 87.60389695 1 90 C-0.32 89.67 -1.64 89.34 -3 89 C-2.01 88.01 -2.01 88.01 -1 87 C-0.78236556 84.23075979 -0.68857851 81.55855356 -0.68115234 78.78662109 C-0.67110672 77.9377684 -0.6610611 77.08891571 -0.65071106 76.21434021 C-0.61975093 73.40071305 -0.60280845 70.58718157 -0.5859375 67.7734375 C-0.56723616 65.825726 -0.54766353 63.87802269 -0.5272522 61.93032837 C-0.47581573 56.79785987 -0.43625177 51.66536507 -0.39910889 46.53277588 C-0.35914125 41.29782545 -0.30801598 36.06298551 -0.2578125 30.828125 C-0.16091695 20.55216082 -0.07655595 10.27613442 0 0 Z " fill="#161717" transform="translate(358,87)"/>
<path d="M0 0 C0.99 0.33 1.98 0.66 3 1 C3 24.43 3 47.86 3 72 C2.01 71.67 1.02 71.34 0 71 C0 47.57 0 24.14 0 0 Z " fill="#131416" transform="translate(129,83)"/>
<path d="M0 0 C1.76170894 3.2922434 2.95513066 6.66704561 4.1875 10.1875 C8.71091322 21.90904034 16.42746125 30.06095829 27.94140625 35.3515625 C35.59803134 38.2475377 42.32239299 39.19901287 50.4375 38.625 C51.16259766 38.58117187 51.88769531 38.53734375 52.63476562 38.4921875 C57.13268189 38.20121718 61.54640572 37.69239015 66 37 C62.7432103 40.60573146 60.69172125 41.77308164 55.90039062 42.17700195 C40.29866383 42.60302822 27.63213458 41.21472796 15 31 C14.67 30.01 14.34 29.02 14 28 C13.01 27.67 12.02 27.34 11 27 C4.14444489 19.61378477 0.87129319 11.45594151 -2 2 C-1.34 1.34 -0.68 0.68 0 0 Z " fill="#0D1118" transform="translate(478,137)"/>
<path d="M0 0 C10.89 0 21.78 0 33 0 C35.18187972 4.36375943 35.25414712 5.4657758 34 10 C32.3649972 12.16256624 31.53045914 12.9169949 28.82348633 13.34057617 C28.00130615 13.32486572 27.17912598 13.30915527 26.33203125 13.29296875 C25.52741455 13.28547607 24.72279785 13.2779834 23.89379883 13.27026367 C22.87697021 13.24295166 21.8601416 13.21563965 20.8125 13.1875 C17.574375 13.125625 14.33625 13.06375 11 13 C11 22.24 11 31.48 11 41 C11.66 41.33 12.32 41.66 13 42 C11.35 42 9.7 42 8 42 C8 32.1 8 22.2 8 12 C10.46120841 10.76939579 12.25776866 10.7942277 15.0078125 10.68359375 C15.99394531 10.64169922 16.98007813 10.59980469 17.99609375 10.55664062 C19.02863281 10.51732422 20.06117188 10.47800781 21.125 10.4375 C22.16527344 10.39431641 23.20554688 10.35113281 24.27734375 10.30664062 C26.85142528 10.2003712 29.42560508 10.09833417 32 10 C32 7.36 32 4.72 32 2 C21.11 2 10.22 2 -1 2 C-0.67 1.34 -0.34 0.68 0 0 Z " fill="#050911" transform="translate(154,80)"/>
<path d="M0 0 C1.98 0.99 1.98 0.99 4 2 C4 32.03 4 62.06 4 93 C3.34 93 2.68 93 2 93 C1.98969254 91.87913498 1.97938507 90.75826996 1.96876526 89.60343933 C1.87111179 79.05284291 1.76838535 68.50230652 1.66066074 57.95180798 C1.60543919 52.52738171 1.55202034 47.10295005 1.50268555 41.6784668 C1.45503077 36.44593362 1.40268744 31.21346662 1.34705925 25.98101234 C1.32664077 23.98229935 1.30792684 21.98356821 1.29092598 19.98482323 C1.26687086 17.19058024 1.23681767 14.39646254 1.20532227 11.60229492 C1.1995668 10.77151428 1.19381134 9.94073364 1.18788147 9.08477783 C1.14576504 5.80886078 1.0430296 3.1290888 0 0 Z " fill="#000001" transform="translate(140,81)"/>
<path d="M0 0 C3.27591794 1.09197265 3.84649089 1.73962284 5.953125 4.32421875 C10.89051844 10.14291875 16.33643762 15.44383884 21.75 20.8125 C22.80101685 21.85848728 23.85179966 22.90470978 24.90234375 23.95117188 C26.81985666 25.8605875 28.7389556 27.76835468 30.65917969 29.67504883 C32.44288842 31.44666526 34.22398263 33.22068284 36 35 C31.82252779 35 29.93046229 32.67424701 27 30 C26.38125 29.443125 25.7625 28.88625 25.125 28.3125 C24 27 24 27 24 25 C23.42507813 24.76410156 22.85015625 24.52820313 22.2578125 24.28515625 C19.50500395 22.71824619 17.91439244 20.85297812 15.875 18.4375 C13.30529501 15.2525427 13.30529501 15.2525427 10 13 C10 12.34 10 11.68 10 11 C9.01 10.67 8.02 10.34 7 10 C7 9.34 7 8.68 7 8 C6.01 7.67 5.02 7.34 4 7 C4 6.34 4 5.68 4 5 C3.34 5 2.68 5 2 5 C1.98018066 5.74161377 1.96036133 6.48322754 1.93994141 7.24731445 C1.84477072 10.60273834 1.73505906 13.95753286 1.625 17.3125 C1.5940625 18.47974609 1.563125 19.64699219 1.53125 20.84960938 C1.49257813 21.96787109 1.45390625 23.08613281 1.4140625 24.23828125 C1.36693115 25.7857605 1.36693115 25.7857605 1.31884766 27.36450195 C1 30 1 30 -1 33 C-2 32 -2 32 -2.11352539 29.04077148 C-2.10828857 27.74727783 -2.10305176 26.45378418 -2.09765625 25.12109375 C-2.0962413 24.4344313 -2.09482635 23.74776886 -2.09336853 23.04029846 C-2.08775479 20.83932199 -2.07520007 18.63844591 -2.0625 16.4375 C-2.05748676 14.94856917 -2.05292355 13.45963676 -2.04882812 11.97070312 C-2.03778093 8.31376925 -2.02050713 4.65689442 -2 1 C-1.34 0.67 -0.68 0.34 0 0 Z " fill="#20262C" transform="translate(435,143)"/>
<path d="M0 0 C0.66 0.66 1.32 1.32 2 2 C-2.466498 6.59300249 -6.95227316 11.16650115 -11.45214844 15.72680664 C-12.9814288 17.28127171 -14.50619698 18.84018906 -16.02636719 20.40356445 C-18.20905612 22.64672554 -20.40733643 24.87350791 -22.609375 27.09765625 C-23.2886908 27.80277847 -23.96800659 28.5079007 -24.66790771 29.23439026 C-25.30826965 29.87512985 -25.94863159 30.51586945 -26.60839844 31.17602539 C-27.44778961 32.03207115 -27.44778961 32.03207115 -28.30413818 32.90541077 C-28.86377258 33.26662521 -29.42340698 33.62783966 -30 34 C-31.32 33.67 -32.64 33.34 -34 33 C-34 22.77 -34 12.54 -34 2 C-33.01 2.33 -32.02 2.66 -31 3 C-30.67 11.91 -30.34 20.82 -30 30 C-20.1 20.1 -10.2 10.2 0 0 Z " fill="#1A1C1E" transform="translate(467,81)"/>
<path d="M0 0 C0.33 0 0.66 0 1 0 C1.01030746 0.85777542 1.02061493 1.71555084 1.03123474 2.59931946 C1.12915653 10.6776163 1.23166345 18.75583908 1.33933926 26.83401203 C1.39453599 30.9872148 1.44795082 35.14042465 1.49731445 39.29370117 C1.54500591 43.3007999 1.59735049 47.30781314 1.65294075 51.3148098 C1.67334263 52.8446153 1.69205929 54.37444423 1.70907402 55.90429115 C1.73316605 58.04476012 1.76321392 60.18506793 1.79467773 62.32543945 C1.81022202 63.54455521 1.8257663 64.76367096 1.84178162 66.01972961 C1.87064557 69.05441943 1.87064557 69.05441943 3 72 C3.66 72.33 4.32 72.66 5 73 C4.67 73.99 4.34 74.98 4 76 C1.53646851 74.43473816 1.53646851 74.43473816 -1 72 C-1.60800171 68.83027649 -1.60800171 68.83027649 -1.58349609 65.04418945 C-1.58583252 64.35270813 -1.58816895 63.66122681 -1.59057617 62.9487915 C-1.59218763 60.66951296 -1.55820171 58.39227159 -1.5234375 56.11328125 C-1.51664763 54.5295637 -1.51192571 52.94583605 -1.50918579 51.36210632 C-1.49851546 48.04733868 -1.47183303 44.73324672 -1.43212891 41.41870117 C-1.38113724 37.16130471 -1.35609905 32.90429573 -1.34119225 28.6466341 C-1.32643415 24.59379566 -1.30119099 20.54104911 -1.2734375 16.48828125 C-1.26852673 15.71083368 -1.26361595 14.93338612 -1.25855637 14.13237953 C-1.24234842 11.94402564 -1.21894776 9.75588284 -1.19287109 7.56762695 C-1.17358047 5.69709404 -1.17358047 5.69709404 -1.15390015 3.78877258 C-1 1 -1 1 0 0 Z " fill="#171D25" transform="translate(347,103)"/>
<path d="M0 0 C0.99 0 1.98 0 3 0 C3.92117061 3.60093965 4.28640374 5.38627771 2.6875 8.8125 C1 11 1 11 -1 12 C-2.44848582 12.08342159 -3.90070869 12.10732861 -5.3515625 12.09765625 C-6.11807129 12.09515869 -6.88458008 12.09266113 -7.67431641 12.09008789 C-8.64804199 12.08098389 -9.62176758 12.07187988 -10.625 12.0625 C-13.71875 12.041875 -16.8125 12.02125 -20 12 C-19.67 21.57 -19.34 31.14 -19 41 C-20.32 41 -21.64 41 -23 41 C-23 31.1 -23 21.2 -23 11 C-20.65208941 9.8260447 -19.11746336 9.83078388 -16.5 9.75390625 C-15.613125 9.72103516 -14.72625 9.68816406 -13.8125 9.65429688 C-11.9376233 9.59310298 -10.06261519 9.53581057 -8.1875 9.48242188 C-7.300625 9.44826172 -6.41375 9.41410156 -5.5 9.37890625 C-4.27796875 9.34132202 -4.27796875 9.34132202 -3.03125 9.30297852 C-0.77578696 9.17248872 -0.77578696 9.17248872 1 7 C1.20872719 4.21697081 1.25640898 2.51281795 0 0 Z " fill="#05080E" transform="translate(185,124)"/>
<path d="M0 0 C7.59 0 15.18 0 23 0 C25.17426785 4.34853569 25.34392604 5.48824829 24 10 C21.62598592 12.42068912 20.23485372 12.97115354 16.83959961 13.38818359 C15.62280518 13.39156738 14.40601074 13.39495117 13.15234375 13.3984375 C12.17268394 13.40274277 12.17268394 13.40274277 11.17323303 13.40713501 C9.79736459 13.4091703 8.42146687 13.40367778 7.0456543 13.39111328 C4.94058656 13.37502359 2.83743089 13.39099077 0.73242188 13.41015625 C-0.60677506 13.40817423 -1.94597081 13.40433139 -3.28515625 13.3984375 C-4.50082275 13.39505371 -5.71648926 13.39166992 -6.96899414 13.38818359 C-10 13 -10 13 -11.91967773 11.47509766 C-12.27618408 10.98831543 -12.63269043 10.5015332 -13 10 C-12.34 9.01 -11.68 8.02 -11 7 C-10.67 7.66 -10.34 8.32 -10 9 C-5.60343827 9.02465504 -1.2069128 9.04283842 3.18969727 9.05493164 C4.68644918 9.05997121 6.18319616 9.06680287 7.67993164 9.07543945 C9.82699807 9.08752159 11.97399962 9.09323191 14.12109375 9.09765625 C15.4145874 9.10289307 16.70808105 9.10812988 18.04077148 9.11352539 C20.88652404 9.33996932 20.88652404 9.33996932 22 8 C22.16666667 5.5 22.16666667 5.5 22 3 C20.38219843 1.38219843 18.54364482 1.77727853 16.30859375 1.68359375 C15.36435547 1.64169922 14.42011719 1.59980469 13.44726562 1.55664062 C12.45404297 1.51732422 11.46082031 1.47800781 10.4375 1.4375 C9.44041016 1.39431641 8.44332031 1.35113281 7.41601562 1.30664062 C4.9441585 1.20019702 2.4721969 1.09818072 0 1 C0 0.67 0 0.34 0 0 Z " fill="#1E232A" transform="translate(164,166)"/>
<path d="M0 0 C1.32 0.66 2.64 1.32 4 2 C3.79875814 8.33245091 0.60887394 11.04871713 -3.703125 15.19140625 C-4.37792908 15.85913559 -5.05273315 16.52686493 -5.74798584 17.21482849 C-7.90384416 19.34277207 -10.0764046 21.45269228 -12.25 23.5625 C-13.69775941 24.98516405 -15.14438709 26.40898075 -16.58984375 27.83398438 C-19.25379218 30.45717531 -21.92409695 33.07349657 -24.60253906 35.68188477 C-27.42471959 38.43196115 -30.22062656 41.20657355 -33 44 C-33.66 44.66 -34.32 45.32 -35 46 C-35.99 45.67 -36.98 45.34 -38 45 C-37.52393311 44.53947739 -37.04786621 44.07895477 -36.55737305 43.60447693 C-31.60535629 38.80733997 -26.67816836 33.98572368 -21.76464844 29.14916992 C-19.92780348 27.34752413 -18.08472466 25.55221116 -16.23535156 23.76342773 C-13.57773451 21.19073454 -10.94338421 18.59608348 -8.3125 15.99609375 C-7.48129639 15.20101913 -6.65009277 14.40594452 -5.79370117 13.58677673 C-0.99037683 9.06294779 -0.99037683 9.06294779 0.51953125 2.93774414 C0.34808594 1.96828857 0.17664063 0.99883301 0 0 Z " fill="#121518" transform="translate(477,82)"/>
<path d="M0 0 C3.78975057 1.12288906 4.4698291 1.6628379 6.375 5 C6.71557617 7.65722656 6.71557617 7.65722656 6.66796875 10.640625 C6.65830078 11.71054688 6.64863281 12.78046875 6.63867188 13.8828125 C6.61353516 14.99398437 6.58839844 16.10515625 6.5625 17.25 C6.54219727 18.93996094 6.54219727 18.93996094 6.52148438 20.6640625 C6.48615645 23.44319264 6.4368252 26.22135363 6.375 29 C6.045 29 5.715 29 5.375 29 C5.33761719 27.865625 5.30023438 26.73125 5.26171875 25.5625 C4.87818018 14.45319314 4.87818018 14.45319314 1.375 4 C-3.33865247 4.09393577 -3.33865247 4.09393577 -7.25 6.484375 C-8.2594798 7.71467851 -9.2476419 8.96275208 -10.21484375 10.2265625 C-12.05905728 12.54587813 -14.30088106 14.17839327 -16.625 16 C-17.16125 16.7425 -17.6975 17.485 -18.25 18.25 C-18.70375 18.8275 -19.1575 19.405 -19.625 20 C-20.615 20 -21.605 20 -22.625 20 C-21.26257574 16.93286756 -19.72800295 14.88159707 -17.3125 12.5625 C-16.68988281 11.95921875 -16.06726563 11.3559375 -15.42578125 10.734375 C-14.53439453 9.87585938 -14.53439453 9.87585938 -13.625 9 C-12.75875 8.113125 -11.8925 7.22625 -11 6.3125 C-10.21625 5.549375 -9.4325 4.78625 -8.625 4 C-7.84125 3.21625 -7.0575 2.4325 -6.25 1.625 C-3.625 0 -3.625 0 0 0 Z " fill="#22252B" transform="translate(354.625,78)"/>
<path d="M0 0 C1.63001953 0.15275391 1.63001953 0.15275391 3.29296875 0.30859375 C4.12441406 0.39238281 4.95585937 0.47617188 5.8125 0.5625 C5.8125 0.8925 5.8125 1.2225 5.8125 1.5625 C4.1625 1.8925 2.5125 2.2225 0.8125 2.5625 C2.26269531 2.63597656 2.26269531 2.63597656 3.7421875 2.7109375 C11.26241228 3.14279199 18.46590279 3.78203056 25.8125 5.5625 C25.8125 5.8925 25.8125 6.2225 25.8125 6.5625 C18.43656206 6.67794946 11.11321381 6.54355395 3.75 6.125 C2.66150757 6.06614624 2.66150757 6.06614624 1.55102539 6.00610352 C-1.81695149 5.80075349 -4.92604966 5.40022914 -8.1875 4.5625 C-10.17747798 6.55247798 -10.45835124 9.91933573 -11.1875 12.5625 C-11.5175 13.5525 -11.8475 14.5425 -12.1875 15.5625 C-13.7422669 12.45296621 -13.47394437 9.99983239 -13.1875 6.5625 C-9.6624143 -0.00145268 -7.15595792 -0.69251206 0 0 Z " fill="#99C828" transform="translate(379.1875,134.4375)"/>
<path d="M0 0 C2.17406048 3.26109073 2.29551866 4.4500749 2.44921875 8.25390625 C2.49240234 9.27291016 2.53558594 10.29191406 2.58007812 11.34179688 C2.61552734 12.40462891 2.65097656 13.46746094 2.6875 14.5625 C2.73455078 15.62919922 2.78160156 16.69589844 2.83007812 17.79492188 C3.13650977 25.72698045 3.13650977 25.72698045 2 28 C1.88017743 29.87844908 1.82270839 31.76100831 1.79467773 33.64306641 C1.77473251 34.82413971 1.75478729 36.00521301 1.73423767 37.22207642 C1.71752518 38.50230682 1.70081268 39.78253723 1.68359375 41.1015625 C1.6524221 43.06166763 1.6524221 43.06166763 1.62062073 45.06137085 C1.56540706 48.536689 1.51599475 52.01206653 1.46777344 55.48748779 C1.41755323 59.033379 1.36186988 62.5791839 1.30664062 66.125 C1.19906772 73.0832585 1.09762083 80.04159496 1 87 C0.67 87 0.34 87 0 87 C0 58.29 0 29.58 0 0 Z " fill="#020203" transform="translate(358,87)"/>
<path d="M0 0 C0 0.66 0 1.32 0 2 C-0.66644531 1.96519531 -1.33289063 1.93039063 -2.01953125 1.89453125 C-13.89845102 1.5456399 -22.8877953 4.20601659 -32 12 C-33.79039405 13.9277864 -35.37245662 15.92858116 -37 18 C-37.99 18.33 -38.98 18.66 -40 19 C-35.20336056 8.67230742 -26.73246533 3.55369374 -16.375 -0.375 C-10.79627445 -1.40809732 -5.48496193 -1.54767549 0 0 Z " fill="#15171E" transform="translate(533,92)"/>
<path d="M0 0 C1.1055189 0.93590504 2.20935453 1.87379858 3.3125 2.8125 C3.92738281 3.33457031 4.54226563 3.85664063 5.17578125 4.39453125 C8.51952278 7.3373102 8.51952278 7.3373102 10 9 C10 9.66 10 10.32 10 11 C10.82757813 11.3403125 10.82757813 11.3403125 11.671875 11.6875 C14.68692417 13.38725926 16.81230369 15.54804816 19.25 18 C20.14203125 18.886875 21.0340625 19.77375 21.953125 20.6875 C24 23 24 23 24 25 C24.66 25.33 25.32 25.66 26 26 C25.34 26.66 24.68 27.32 24 28 C15.42 19.42 6.84 10.84 -2 2 C-1.34 1.34 -0.68 0.68 0 0 Z " fill="#1B1C25" transform="translate(448,137)"/>
<path d="M0 0 C3.27591794 1.09197265 3.84649089 1.73962284 5.953125 4.32421875 C10.89051844 10.14291875 16.33643762 15.44383884 21.75 20.8125 C22.80101685 21.85848728 23.85179966 22.90470978 24.90234375 23.95117188 C26.81985666 25.8605875 28.7389556 27.76835468 30.65917969 29.67504883 C32.44288842 31.44666526 34.22398263 33.22068284 36 35 C31.82252779 35 29.93046229 32.67424701 27 30 C26.38125 29.443125 25.7625 28.88625 25.125 28.3125 C24 27 24 27 24 25 C23.42507813 24.76410156 22.85015625 24.52820313 22.2578125 24.28515625 C19.50500395 22.71824619 17.91439244 20.85297812 15.875 18.4375 C13.30529501 15.2525427 13.30529501 15.2525427 10 13 C10 12.34 10 11.68 10 11 C9.01 10.67 8.02 10.34 7 10 C7 9.34 7 8.68 7 8 C6.01 7.67 5.02 7.34 4 7 C4 6.34 4 5.68 4 5 C3.34 5 2.68 5 2 5 C2 4.34 2 3.68 2 3 C1.34 3 0.68 3 0 3 C0 2.01 0 1.02 0 0 Z " fill="#080B13" transform="translate(435,143)"/>
<path d="M0 0 C0.33 0 0.66 0 1 0 C1 1.65 1 3.3 1 5 C1.928125 5.4640625 1.928125 5.4640625 2.875 5.9375 C4.25 6.625 5.625 7.3125 7 8 C7.32366639 12.63921823 7.02936588 15.38430524 4 19 C-0.0099283 21.11432583 -2.44409956 22 -7 22 C-7 20.68 -7 19.36 -7 18 C-4.36 17.34 -1.72 16.68 1 16 C0.67 15.34 0.34 14.68 0 14 C0.66 14 1.32 14 2 14 C2.2502157 11.08365871 2.2502157 11.08365871 2 8 C1.01 7.34 0.02 6.68 -1 6 C-0.67 4.02 -0.34 2.04 0 0 Z " fill="#9BC832" transform="translate(386,90)"/>
<path d="M0 0 C0.33 0 0.66 0 1 0 C2.92874922 6.10770588 0.78392693 10.56671663 -2 16 C-6.39194948 23.3328714 -12.70010849 29.4062839 -21 32 C-21.33 31.34 -21.66 30.68 -22 30 C-20.58531689 29.03874097 -19.1681636 28.08111675 -17.75 27.125 C-16.56664062 26.32449219 -16.56664062 26.32449219 -15.359375 25.5078125 C-13 24 -13 24 -10.765625 22.91015625 C-8.36708493 21.67374068 -8.06757753 20.46877303 -7 18 C-6.34 16.865625 -5.68 15.73125 -5 14.5625 C-2.26289232 9.78019289 -0.76586075 5.48866868 0 0 Z " fill="#080B12" transform="translate(561,132)"/>
<path d="M0 0 C0.33 0 0.66 0 1 0 C1 24.42 1 48.84 1 74 C-0.98 74.495 -0.98 74.495 -3 75 C-2.34 74.01 -1.68 73.02 -1 72 C-0.66934174 68.78350792 -0.66934174 68.78350792 -0.68115234 65.05004883 C-0.67110672 64.34735367 -0.6610611 63.64465851 -0.65071106 62.92066956 C-0.61983573 60.59946506 -0.60283213 58.27837613 -0.5859375 55.95703125 C-0.56722932 54.34705101 -0.54765617 52.73708061 -0.5272522 51.12712097 C-0.47588789 46.89065345 -0.43628527 42.65415412 -0.39910889 38.4175415 C-0.35909612 34.0940359 -0.30799136 29.77066308 -0.2578125 25.44726562 C-0.16100233 16.9649344 -0.07661394 8.48253756 0 0 Z " fill="#000001" transform="translate(54,102)"/>
<path d="M0 0 C3.27813387 0.57906889 4.87148449 1.51462337 7.1640625 3.90625 C8.01097656 4.77443359 8.01097656 4.77443359 8.875 5.66015625 C9.4525 6.26730469 10.03 6.87445313 10.625 7.5 C11.78169215 8.70000441 12.94045249 9.89801974 14.1015625 11.09375 C14.61025879 11.62677734 15.11895508 12.15980469 15.64306641 12.70898438 C16.9907948 14.117281 16.9907948 14.117281 19 15 C19 15.66 19 16.32 19 17 C19.8353125 17.309375 19.8353125 17.309375 20.6875 17.625 C23.92501302 19.55000774 25.68231141 22.03850902 28 25 C22.93844628 23.68982522 20.24884532 21.73436939 16.6015625 18.02734375 C15.88182755 17.30267662 15.88182755 17.30267662 15.14755249 16.56336975 C14.1429776 15.54843028 13.14316127 14.52876065 12.14794922 13.50463867 C10.61761907 11.92990491 9.07401773 10.36921627 7.52734375 8.81054688 C0 1.17977291 0 1.17977291 0 0 Z " fill="#161719" transform="translate(80,126)"/>
<path d="M0 0 C12.71484375 0.90820312 12.71484375 0.90820312 25.4296875 1.81640625 C26.70199219 1.90728516 26.70199219 1.90728516 28 2 C22.7829279 6.44417253 18.19845191 6.1195221 11.5625 5.625 C10.28503906 5.53476563 9.00757813 5.44453125 7.69140625 5.3515625 C4.4199108 5.0399915 1.23145563 4.58935358 -2 4 C-1.34 2.68 -0.68 1.36 0 0 Z " fill="#A4CD52" transform="translate(376,133)"/>
<path d="M0 0 C0.7425 0.5775 1.485 1.155 2.25 1.75 C1.92 2.41 1.59 3.07 1.25 3.75 C0.52296875 3.34007813 -0.2040625 2.93015625 -0.953125 2.5078125 C-14.36248247 -4.67822778 -26.00616404 -4.46227096 -40.75 -3.25 C-39.75 -5.25 -39.75 -5.25 -37.95898438 -5.86010742 C-25.19918127 -8.11225216 -11.02932621 -7.11569433 0 0 Z " fill="#45474F" transform="translate(551.75,85.25)"/>
<path d="M0 0 C0.33 0 0.66 0 1 0 C1.309375 0.969375 1.61875 1.93875 1.9375 2.9375 C2.69523342 5.84065792 2.69523342 5.84065792 4 7 C4.10091846 9.57342064 4.1386752 12.11428381 4.125 14.6875 C4.12886719 15.39583984 4.13273438 16.10417969 4.13671875 16.83398438 C4.12903062 20.99710733 3.81372802 24.89906912 3 29 C2.01 29.33 1.02 29.66 0 30 C0 20.1 0 10.2 0 0 Z " fill="#12161F" transform="translate(572,114)"/>
<path d="M0 0 C1.76170894 3.2922434 2.95513066 6.66704561 4.1875 10.1875 C6.55010265 16.43855285 9.682301 20.97537295 14 26 C14.66 26.99 15.32 27.98 16 29 C15.34 29.33 14.68 29.66 14 30 C14 29.34 14 28.68 14 28 C13.01 27.67 12.02 27.34 11 27 C4.14444489 19.61378477 0.87129319 11.45594151 -2 2 C-1.34 1.34 -0.68 0.68 0 0 Z " fill="#080A11" transform="translate(478,137)"/>
<path d="M0 0 C0.99 0.33 1.98 0.66 3 1 C3.08636719 1.61746094 3.17273438 2.23492187 3.26171875 2.87109375 C4.35682868 9.47189399 6.55323662 14.32167828 10 20 C10.67949091 21.32684374 11.35023237 22.65835018 12 24 C11.01 24 10.02 24 9 24 C9 23.34 9 22.68 9 22 C8.34 22 7.68 22 7 22 C6.01836578 20.06374902 5.03977546 18.12595461 4.0625 16.1875 C3.51722656 15.10855469 2.97195313 14.02960938 2.41015625 12.91796875 C0.2039638 8.35280044 -0.09513975 5.04240652 0 0 Z " fill="#14161F" transform="translate(488,130)"/>
<path d="M0 0 C0.66 0 1.32 0 2 0 C0.69490568 3.40170417 -0.79494681 6.59473194 -2.5 9.8125 C-6.95577821 18.73716165 -7.47360183 27.13696065 -8 37 C-8.33 37 -8.66 37 -9 37 C-10.60503093 23.25256114 -9.4115197 13.30076972 -1.3671875 1.546875 C-0.91601562 1.03640625 -0.46484375 0.5259375 0 0 Z " fill="#06080D" transform="translate(486,98)"/>
<path d="M0 0 C0.99 0 1.98 0 3 0 C3.92117061 3.60093965 4.28640374 5.38627771 2.6875 8.8125 C1 11 1 11 -1 12 C-2.59262066 12.15175549 -4.19064856 12.24900325 -5.7890625 12.31640625 C-7.20058594 12.37924805 -7.20058594 12.37924805 -8.640625 12.44335938 C-10.11789063 12.50233398 -10.11789063 12.50233398 -11.625 12.5625 C-12.61757812 12.60568359 -13.61015625 12.64886719 -14.6328125 12.69335938 C-17.08839838 12.79961069 -19.54408703 12.90164964 -22 13 C-22.33 12.34 -22.66 11.68 -23 11 C-20.65208941 9.8260447 -19.11746336 9.83078388 -16.5 9.75390625 C-15.613125 9.72103516 -14.72625 9.68816406 -13.8125 9.65429688 C-11.9376233 9.59310298 -10.06261519 9.53581057 -8.1875 9.48242188 C-7.300625 9.44826172 -6.41375 9.41410156 -5.5 9.37890625 C-4.27796875 9.34132202 -4.27796875 9.34132202 -3.03125 9.30297852 C-0.77578696 9.17248872 -0.77578696 9.17248872 1 7 C1.20872719 4.21697081 1.25640898 2.51281795 0 0 Z " fill="#101721" transform="translate(185,124)"/>
<path d="M0 0 C0.99 0.33 1.98 0.66 3 1 C3.33 11.23 3.66 21.46 4 32 C2.68 31.67 1.36 31.34 0 31 C0 20.77 0 10.54 0 0 Z " fill="#1A2027" transform="translate(433,83)"/>
<path d="M0 0 C0.99 0 1.98 0 3 0 C2.38996449 6.46637639 2.38996449 6.46637639 0.7487793 8.7121582 C-1.52658208 10.38778731 -2.86169825 10.34659175 -5.66796875 10.29296875 C-6.56064453 10.28330078 -7.45332031 10.27363281 -8.37304688 10.26367188 C-9.76620117 10.2259668 -9.76620117 10.2259668 -11.1875 10.1875 C-12.12787109 10.17396484 -13.06824219 10.16042969 -14.03710938 10.14648438 C-16.35865038 10.11113096 -18.67903653 10.06178674 -21 10 C-21.33 9.34 -21.66 8.68 -22 8 C-12.1 7.505 -12.1 7.505 -2 7 C-1.34 4.69 -0.68 2.38 0 0 Z " fill="#010108" transform="translate(255,83)"/>
<path d="M0 0 C-2 3 -2 3 -5.5625 4.5 C-7.2640625 5.2425 -7.2640625 5.2425 -9 6 C-9.33 6.99 -9.66 7.98 -10 9 C-10.66 9 -11.32 9 -12 9 C-11.7215625 9.928125 -11.7215625 9.928125 -11.4375 10.875 C-11 13 -11 13 -12 15 C-12.99 14.67 -13.98 14.34 -15 14 C-14.88267654 7.19523905 -14.88267654 7.19523905 -12.62109375 4.1328125 C-8.55871985 0.33399306 -5.69215094 -0.69699807 0 0 Z " fill="#B8CC79" transform="translate(400,159)"/>
<path d="M0 0 C3.65236803 -0.33975517 5.61672415 -0.20830209 8.875 1.5625 C11 4 11 4 11.5625 7.5625 C11 11 11 11 9 12.9375 C8.34 13.288125 7.68 13.63875 7 14 C5.68 13.34 4.36 12.68 3 12 C4.32 11.34 5.64 10.68 7 10 C6.814375 9.030625 6.62875 8.06125 6.4375 7.0625 C6.293125 6.051875 6.14875 5.04125 6 4 C6.33 3.67 6.66 3.34 7 3 C4.69 2.67 2.38 2.34 0 2 C0 1.34 0 0.68 0 0 Z " fill="#94BA48" transform="translate(393,146)"/>
<path d="M0 0 C1 2 2 4 3 6 C9.6 6.33 16.2 6.66 23 7 C22.67 7.66 22.34 8.32 22 9 C18.91698584 9.11644156 15.83453877 9.18732432 12.75 9.25 C11.44095703 9.30027344 11.44095703 9.30027344 10.10546875 9.3515625 C3.64104248 9.45025603 3.64104248 9.45025603 0.375 7.15625 C-1 5 -1 5 -0.75 2.25 C-0.5025 1.5075 -0.255 0.765 0 0 Z " fill="#02020A" transform="translate(196,84)"/>
<path d="M0 0 C10.89 0 21.78 0 33 0 C35 4 35 4 35 7 C34.01 7.33 33.02 7.66 32 8 C32 6.02 32 4.04 32 2 C21.11 2 10.22 2 -1 2 C-0.67 1.34 -0.34 0.68 0 0 Z " fill="#030D1A" transform="translate(154,80)"/>
<path d="M0 0 C0.33 0.99 0.66 1.98 1 3 C-0.66736408 5.04470249 -1.52497566 5.92566921 -4.17651367 6.34057617 C-4.99869385 6.32486572 -5.82087402 6.30915527 -6.66796875 6.29296875 C-7.56064453 6.28330078 -8.45332031 6.27363281 -9.37304688 6.26367188 C-10.76620117 6.2259668 -10.76620117 6.2259668 -12.1875 6.1875 C-13.12787109 6.17396484 -14.06824219 6.16042969 -15.03710938 6.14648438 C-17.35865038 6.11113096 -19.67903653 6.06178674 -22 6 C-22.33 5.34 -22.66 4.68 -23 4 C-15.74 3.67 -8.48 3.34 -1 3 C-0.67 2.01 -0.34 1.02 0 0 Z " fill="#000008" transform="translate(187,87)"/>
<path d="M0 0 C7.59 0 15.18 0 23 0 C25.16812775 4.3362555 25.43303924 5.50981038 24 10 C21.4375 11.875 21.4375 11.875 19 13 C19 12.01 19 11.02 19 10 C19.99 9.34 20.98 8.68 22 8 C22.33343551 5.45792029 22.33343551 5.45792029 22 3 C20.38219843 1.38219843 18.54364482 1.77727853 16.30859375 1.68359375 C15.36435547 1.64169922 14.42011719 1.59980469 13.44726562 1.55664062 C12.45404297 1.51732422 11.46082031 1.47800781 10.4375 1.4375 C9.44041016 1.39431641 8.44332031 1.35113281 7.41601562 1.30664062 C4.9441585 1.20019702 2.4721969 1.09818072 0 1 C0 0.67 0 0.34 0 0 Z " fill="#010312" transform="translate(164,166)"/>
<path d="M0 0 C0.98226563 0.07863281 1.96453125 0.15726563 2.9765625 0.23828125 C3.76804687 0.38652344 4.55953125 0.53476563 5.375 0.6875 C5.705 1.3475 6.035 2.0075 6.375 2.6875 C5.16263672 2.86925781 5.16263672 2.86925781 3.92578125 3.0546875 C2.85714844 3.22226563 1.78851563 3.38984375 0.6875 3.5625 C-0.36824219 3.72492188 -1.42398437 3.88734375 -2.51171875 4.0546875 C-5.42294914 4.64643069 -7.91455607 5.4906806 -10.625 6.6875 C-10.955 6.0275 -11.285 5.3675 -11.625 4.6875 C-10.635 4.0275 -9.645 3.3675 -8.625 2.6875 C-8.625 2.0275 -8.625 1.3675 -8.625 0.6875 C-5.36448028 -0.39933991 -3.39521868 -0.30010508 0 0 Z " fill="#99C532" transform="translate(394.625,147.3125)"/>
<path d="M0 0 C0.66 0.66 1.32 1.32 2 2 C-2.95 6.95 -7.9 11.9 -13 17 C-13.33 16.01 -13.66 15.02 -14 14 C-9.38 9.38 -4.76 4.76 0 0 Z " fill="#151618" transform="translate(451,97)"/>
<path d="M0 0 C0 0.66 0 1.32 0 2 C-0.70125 1.97679688 -1.4025 1.95359375 -2.125 1.9296875 C-8.15558862 1.81497522 -13.22443873 2.25643433 -19 4 C-19.33 3.01 -19.66 2.02 -20 1 C-13.29106049 -1.2838943 -6.89853955 -1.94654051 0 0 Z " fill="#080D15" transform="translate(533,92)"/>
<path d="M0 0 C2.27991712 1.77502198 2.95047123 2.6300787 3.34057617 5.54370117 C3.32486572 6.53345947 3.30915527 7.52321777 3.29296875 8.54296875 C3.28330078 9.61611328 3.27363281 10.68925781 3.26367188 11.79492188 C3.23853516 12.91447266 3.21339844 14.03402344 3.1875 15.1875 C3.17396484 16.31865234 3.16042969 17.44980469 3.14648438 18.61523438 C3.11109958 21.41063317 3.06172948 24.20507892 3 27 C2.67 27 2.34 27 2 27 C1.96261719 25.87722656 1.92523438 24.75445312 1.88671875 23.59765625 C1.55630226 15.57363952 1.13750826 8.50273713 -2 1 C-1.34 0.67 -0.68 0.34 0 0 Z " fill="#16191E" transform="translate(358,80)"/>
<path d="M0 0 C4.07376031 1.61010527 6.76507069 4.53822271 9.75 7.625 C10.25660156 8.140625 10.76320313 8.65625 11.28515625 9.1875 C12.52803902 10.45383339 13.76465276 11.7263144 15 13 C14.01 13.33 13.02 13.66 12 14 C10.17578125 12.85546875 10.17578125 12.85546875 8.3125 11.1875 C7.68988281 10.64480469 7.06726563 10.10210937 6.42578125 9.54296875 C5 8 5 8 5 6 C4.01 5.67 3.02 5.34 2 5 C0.8125 2.4375 0.8125 2.4375 0 0 Z " fill="#0D0F15" transform="translate(67,112)"/>
<path d="M0 0 C0.33 0 0.66 0 1 0 C1 2.97 1 5.94 1 9 C1.66 9 2.32 9 3 9 C3.33 9.66 3.66 10.32 4 11 C6.3140622 11.73075648 8.64828869 12.40138258 11 13 C10.34 13.66 9.68 14.32 9 15 C2.53846154 14.53846154 2.53846154 14.53846154 0 12 C-0.1953125 9.1796875 -0.1953125 9.1796875 -0.125 5.875 C-0.10695312 4.77929688 -0.08890625 3.68359375 -0.0703125 2.5546875 C-0.04710937 1.71164063 -0.02390625 0.86859375 0 0 Z " fill="#151A20" transform="translate(42,164)"/>
<path d="M0 0 C1.32 0.33 2.64 0.66 4 1 C4.48461538 7.3 4.48461538 7.3 2.3125 10.4375 C-0.38410809 12.25953249 -1.81126451 12.35430394 -5 12 C-5 11.01 -5 10.02 -5 9 C-3.02 8.34 -1.04 7.68 1 7 C1.15149298 3.37114676 1.15149298 3.37114676 0 0 Z " fill="#1C1E23" transform="translate(475,167)"/>
<path d="M0 0 C0.66 0.99 1.32 1.98 2 3 C-2.27884606 5.1103435 -6.13864142 5.24128739 -10.8125 5.125 C-11.85180664 5.11146484 -11.85180664 5.11146484 -12.91210938 5.09765625 C-14.60822395 5.07426157 -16.30415871 5.03839641 -18 5 C-18 4.67 -18 4.34 -18 4 C-17.25234375 3.95101562 -16.5046875 3.90203125 -15.734375 3.8515625 C-14.74953125 3.77679688 -13.7646875 3.70203125 -12.75 3.625 C-11.28820312 3.52058594 -11.28820312 3.52058594 -9.796875 3.4140625 C-7.06737243 3.00997413 -5.38042011 2.33262835 -3 1 C-2.01 0.67 -1.02 0.34 0 0 Z " fill="#11141C" transform="translate(537,162)"/>
<path d="M0 0 C0.66 0.66 1.32 1.32 2 2 C-0.33511483 4.87398748 -1.37431801 5.92491816 -5.125 6.375 C-8 6 -8 6 -10 4 C-9.67 3.01 -9.34 2.02 -9 1 C-8.67 1.33 -8.34 1.66 -8 2 C-5.04182893 2.25005386 -5.04182893 2.25005386 -2 2 C-1.34 1.34 -0.68 0.68 0 0 Z " fill="#0A0F19" transform="translate(231,173)"/>
<path d="M0 0 C0.99 0 1.98 0 3 0 C3.05429959 1.74965358 3.09292823 3.49979787 3.125 5.25 C3.14820313 6.22453125 3.17140625 7.1990625 3.1953125 8.203125 C2.99862781 11.0196498 2.44568916 12.60949036 1 15 C0.15318867 9.91913204 -0.09038099 5.15171623 0 0 Z " fill="#091120" transform="translate(162,92)"/>
<path d="M0 0 C0.99 0.33 1.98 0.66 3 1 C-3.26637555 7.44541485 -3.26637555 7.44541485 -7 10 C-7.99 9.67 -8.98 9.34 -10 9 C-8.625 7.5 -8.625 7.5 -7 6 C-6.34 6 -5.68 6 -5 6 C-4.67 5.01 -4.34 4.02 -4 3 C-3.34 3 -2.68 3 -2 3 C-2 2.34 -2 1.68 -2 1 C-1.34 0.67 -0.68 0.34 0 0 Z " fill="#15171F" transform="translate(497,87)"/>
<path d="M0 0 C0.99 0 1.98 0 3 0 C3 0.66 3 1.32 3 2 C3.556875 2.20625 4.11375 2.4125 4.6875 2.625 C7.92501302 4.55000774 9.68231141 7.03850902 12 10 C6.33012418 8.65002957 3.74337399 6.2781417 0 2 C0 1.34 0 0.68 0 0 Z " fill="#1C1F29" transform="translate(96,141)"/>
<path d="M0 0 C0.66 0 1.32 0 2 0 C0.125 3.875 0.125 3.875 -1 5 C-6.41176471 5.47058824 -6.41176471 5.47058824 -8.875 3.5 C-9.24625 3.005 -9.6175 2.51 -10 2 C-7.06156148 0.53078074 -4.24602179 1 -1 1 C-0.67 0.67 -0.34 0.34 0 0 Z " fill="#14171D" transform="translate(141,174)"/>
<path d="M0 0 C-3.74525799 3.74525799 -7.98270909 3.68909949 -13 4 C-13 3.34 -13 2.68 -13 2 C-13.99 1.67 -14.98 1.34 -16 1 C-13.8973294 0.63705686 -11.79278943 0.28493028 -9.6875 -0.0625 C-8.51574219 -0.25972656 -7.34398437 -0.45695313 -6.13671875 -0.66015625 C-3 -1 -3 -1 0 0 Z " fill="#1A1D23" transform="translate(544,175)"/>
<path d="M0 0 C1.12894876 0.93274109 2.25300876 1.87140122 3.375 2.8125 C4.00148438 3.33457031 4.62796875 3.85664063 5.2734375 4.39453125 C7 6 7 6 9 9 C5 9 5 9 3.25 7.625 C2 6 2 6 2 4 C0.68 3.34 -0.64 2.68 -2 2 C-1.34 1.34 -0.68 0.68 0 0 Z " fill="#17181D" transform="translate(110,153)"/>
<path d="M0 0 C0.99 0 1.98 0 3 0 C3.89381941 3.49402134 4.23253301 5.41866747 2.875 8.8125 C0.64317461 11.41629629 -0.64239623 11.72776186 -4 12 C-4.33 11.34 -4.66 10.68 -5 10 C-4.195625 9.690625 -3.39125 9.38125 -2.5625 9.0625 C-0.10919595 8.23664655 -0.10919595 8.23664655 1 7 C1.19149081 3.36805359 1.19149081 3.36805359 0 0 Z " fill="#050810" transform="translate(185,124)"/>
<path d="M0 0 C1.485 0.99 1.485 0.99 3 2 C2.01 2.33 1.02 2.66 0 3 C0 10.26 0 17.52 0 25 C-0.33 25 -0.66 25 -1 25 C-1.02886984 21.02084841 -1.04675406 17.04172347 -1.0625 13.0625 C-1.07087891 11.92619141 -1.07925781 10.78988281 -1.08789062 9.61914062 C-1.09111328 8.53955078 -1.09433594 7.45996094 -1.09765625 6.34765625 C-1.10289307 5.34742432 -1.10812988 4.34719238 -1.11352539 3.31665039 C-1 1 -1 1 0 0 Z " fill="#181D27" transform="translate(263,80)"/>
<path d="M0 0 C0.66 0 1.32 0 2 0 C2.391875 0.66 2.78375 1.32 3.1875 2 C4.96483185 4.42601514 4.96483185 4.42601514 8.6875 4.25 C9.780625 4.1675 10.87375 4.085 12 4 C12 4.66 12 5.32 12 6 C10.39667209 6.08121924 8.79215974 6.13929134 7.1875 6.1875 C6.29417969 6.22230469 5.40085937 6.25710937 4.48046875 6.29296875 C1.58352485 5.95081002 0.77444972 5.24606427 -1 3 C-0.67 2.01 -0.34 1.02 0 0 Z " fill="#A8CF47" transform="translate(370,146)"/>
<path d="M0 0 C0.66 0.66 1.32 1.32 2 2 C1.07347299 3.17539996 0.13336613 4.34010577 -0.8125 5.5 C-1.33457031 6.1496875 -1.85664063 6.799375 -2.39453125 7.46875 C-4 9 -4 9 -7 9 C-5.44499019 5.18315774 -2.96404505 2.80804268 0 0 Z " fill="#1E1F24" transform="translate(339,89)"/>
<path d="M0 0 C1.32 0 2.64 0 4 0 C4 0.99 4 1.98 4 3 C3.34 3 2.68 3 2 3 C2.185625 3.61875 2.37125 4.2375 2.5625 4.875 C3 7 3 7 2 9 C1.01 8.67 0.02 8.34 -1 8 C-0.67 5.36 -0.34 2.72 0 0 Z " fill="#CF8342" transform="translate(386,165)"/>
<path d="M0 0 C0.66 0.99 1.32 1.98 2 3 C0.88671875 4.51953125 0.88671875 4.51953125 -1 6 C-3.91796875 6.07421875 -3.91796875 6.07421875 -7.1875 5.6875 C-8.81751953 5.50767578 -8.81751953 5.50767578 -10.48046875 5.32421875 C-11.31191406 5.21722656 -12.14335937 5.11023438 -13 5 C-13 4.67 -13 4.34 -13 4 C-9.7 4 -6.4 4 -3 4 C-3 3.01 -3 2.02 -3 1 C-2.01 0.67 -1.02 0.34 0 0 Z " fill="#A1CD28" transform="translate(385,148)"/>
<path d="M0 0 C0.99 0.33 1.98 0.66 3 1 C2.33333333 5.66666667 1.66666667 10.33333333 1 15 C0.67 15 0.34 15 0 15 C0 10.05 0 5.1 0 0 Z " fill="#050C1B" transform="translate(162,136)"/>
<path d="M0 0 C0.33 0.66 0.66 1.32 1 2 C-1.01822917 1.90234375 -3.03645833 1.8046875 -5.0546875 1.70703125 C-5.69664063 1.80371094 -6.33859375 1.90039062 -7 2 C-7.99 3.485 -7.99 3.485 -9 5 C-9.66 5 -10.32 5 -11 5 C-10.65660347 2.42452602 -10.39993284 1.31105887 -8.3125 -0.3125 C-5.22704635 -1.22979703 -3.08311675 -0.82216447 0 0 Z " fill="#37393E" transform="translate(53,79)"/>
<path d="M0 0 C0.66 0.33 1.32 0.66 2 1 C1.68950274 2.43793392 1.3765224 3.8753318 1.0625 5.3125 C0.88847656 6.11300781 0.71445312 6.91351563 0.53515625 7.73828125 C0 10 0 10 -1 13 C-2.5121867 9.97562661 -2.17263369 7.33758466 -2 4 C-1 1.5625 -1 1.5625 0 0 Z " fill="#91C029" transform="translate(368,137)"/>
<path d="M0 0 C0.99 0.495 0.99 0.495 2 1 C2.309375 2.11375 2.61875 3.2275 2.9375 4.375 C3.91204934 7.69993306 4.3498113 8.95212691 7 11 C5.68 11 4.36 11 3 11 C0 4.5 0 4.5 0 0 Z " fill="#97C32E" transform="translate(364,117)"/>
<path d="M0 0 C0.66 0 1.32 0 2 0 C0.66749209 3.5875213 -0.830717 6.8364623 -3 10 C-3.66 10 -4.32 10 -5 10 C-4.49890042 5.61537866 -3.01704885 3.1999003 0 0 Z " fill="#0F1217" transform="translate(486,98)"/>
<path d="M0 0 C3.45201639 1.47721422 5.64961936 3.43794001 8.25 6.125 C8.95640625 6.84945312 9.6628125 7.57390625 10.390625 8.3203125 C11.18726563 9.15175781 11.18726563 9.15175781 12 10 C11.34 10.66 10.68 11.32 10 12 C8.51814875 10.37744772 7.03959744 8.75188112 5.5625 7.125 C4.73878906 6.22007813 3.91507813 5.31515625 3.06640625 4.3828125 C1 2 1 2 0 0 Z " fill="#3F4145" transform="translate(556,90)"/>
<path d="M0 0 C0 0.66 0 1.32 0 2 C-5.29230769 5.07692308 -5.29230769 5.07692308 -8.875 4.6875 C-9.57625 4.460625 -10.2775 4.23375 -11 4 C-3.28571429 0 -3.28571429 0 0 0 Z " fill="#9ACA2F" transform="translate(389,124)"/>
<path d="M0 0 C4.51478398 0.53115106 7.34666857 2.36620292 11 5 C10.67 5.66 10.34 6.32 10 7 C6.7 5.35 3.4 3.7 0 2 C0 1.34 0 0.68 0 0 Z " fill="#3C3D42" transform="translate(543,82)"/>
<path d="M0 0 C0.66 0.99 1.32 1.98 2 3 C5.56769552 3.73606499 5.56769552 3.73606499 9 4 C6.42786866 5.61949011 5.32330841 6.04408751 2.25 5.625 C1.5075 5.41875 0.765 5.2125 0 5 C-0.5625 3.0625 -0.5625 3.0625 -1 1 C-0.67 0.67 -0.34 0.34 0 0 Z " fill="#0E1218" transform="translate(423,172)"/>
<path d="M0 0 C0.66 0 1.32 0 2 0 C1.8125 2.8125 1.8125 2.8125 1 6 C-1.5625 7.875 -1.5625 7.875 -4 9 C-4 8.01 -4 7.02 -4 6 C-3.01 5.34 -2.02 4.68 -1 4 C-0.27617533 1.94074861 -0.27617533 1.94074861 0 0 Z " fill="#0A0E14" transform="translate(187,170)"/>
<path d="M0 0 C0.33 0 0.66 0 1 0 C1 2.97 1 5.94 1 9 C1.66 9 2.32 9 3 9 C3 10.32 3 11.64 3 13 C2.01 12.67 1.02 12.34 0 12 C0 8.04 0 4.08 0 0 Z " fill="#222327" transform="translate(42,164)"/>
<path d="M0 0 C0.99 0 1.98 0 3 0 C3 2.31 3 4.62 3 7 C2.01 7 1.02 7 0 7 C0 4.69 0 2.38 0 0 Z " fill="#0E1013" transform="translate(488,121)"/>
<path d="M0 0 C2.375 -0.1875 2.375 -0.1875 5 0 C5.66 0.99 6.32 1.98 7 3 C4.69 3.33 2.38 3.66 0 4 C0 2.68 0 1.36 0 0 Z " fill="#96C824" transform="translate(379,108)"/>
<path d="M0 0 C0.33 0 0.66 0 1 0 C1.29296875 6.0546875 1.29296875 6.0546875 1 8 C0.01 8.66 -0.98 9.32 -2 10 C-2 6.38970831 -1.03907418 3.44193324 0 0 Z " fill="#98C822" transform="translate(395,87)"/>
<path d="M0 0 C2.125 0.375 2.125 0.375 4 1 C3.54625 1.433125 3.0925 1.86625 2.625 2.3125 C0.79975666 4.10798342 0.79975666 4.10798342 -1 7 C-1.625 4.625 -1.625 4.625 -2 2 C-1.34 1.34 -0.68 0.68 0 0 Z " fill="#99C139" transform="translate(388,80)"/>
<path d="M0 0 C0.99 0.33 1.98 0.66 3 1 C1.68 2.32 0.36 3.64 -1 5 C-2.32 4.34 -3.64 3.68 -5 3 C-2.6875 1.4375 -2.6875 1.4375 0 0 Z " fill="#9EC05A" transform="translate(401,155)"/>
<path d="M0 0 C1.65 1.65 3.3 3.3 5 5 C4.67 5.99 4.34 6.98 4 8 C3.34 7.67 2.68 7.34 2 7 C2 6.34 2 5.68 2 5 C1.34 5 0.68 5 0 5 C0 3.35 0 1.7 0 0 Z " fill="#1A1E2B" transform="translate(495,147)"/>
<path d="M0 0 C0.99 0.33 1.98 0.66 3 1 C-0.465 3.97 -0.465 3.97 -4 7 C-3.04065919 3.16263678 -2.76390737 2.40339772 0 0 Z " fill="#111116" transform="translate(320,126)"/>
<path d="M0 0 C0.99 0.33 1.98 0.66 3 1 C3.33 2.98 3.66 4.96 4 7 C3.01 7.33 2.02 7.66 1 8 C0.67 5.36 0.34 2.72 0 0 Z " fill="#191C22" transform="translate(185,80)"/>
<path d="M0 0 C4.875 2.625 4.875 2.625 6 6 C2.34683329 4.75023244 1.21934164 4.32901247 -1 1 C-0.67 0.67 -0.34 0.34 0 0 Z " fill="#1B2025" transform="translate(502,156)"/>
<path d="M0 0 C0.99 0.33 1.98 0.66 3 1 C2.67 2.98 2.34 4.96 2 7 C1.34 7 0.68 7 0 7 C0 4.69 0 2.38 0 0 Z " fill="#0E0E16" transform="translate(488,130)"/>
<path d="M0 0 C0.99 0.33 1.98 0.66 3 1 C1.625 3.5 1.625 3.5 0 6 C-0.66 6 -1.32 6 -2 6 C-1.125 1.125 -1.125 1.125 0 0 Z " fill="#17191F" transform="translate(492,112)"/>
<path d="M0 0 C0.99 0 1.98 0 3 0 C3 1.32 3 2.64 3 4 C1.68 4 0.36 4 -1 4 C-0.67 2.68 -0.34 1.36 0 0 Z " fill="#CE7327" transform="translate(387,175)"/>
</svg>
