<?xml version="1.0" encoding="UTF-8"?>
<svg version="1.1" xmlns="http://www.w3.org/2000/svg" width="1280" height="720">
<path d="M0 0 C0.78044678 0.10924805 1.56089355 0.21849609 2.36499023 0.33105469 C7.15614973 1.11040436 11.04623949 2.47849487 15.30761719 4.80834961 C17.27718229 5.90851001 17.27718229 5.90851001 20.375 7.0625 C38.87603152 14.99151351 50.81629126 30.77319663 58.9375 48.625 C64.94356529 64.19391392 66.29832879 80.53550613 66.3125 97.0625 C66.31317474 97.77075928 66.31384949 98.47901855 66.31454468 99.20874023 C66.27956577 122.39288941 63.06629756 144.14557635 50.0625 163.75 C49.68464355 164.32411621 49.30678711 164.89823242 48.91748047 165.48974609 C43.91193634 172.92816411 38.6162982 178.3953199 30.82421875 183.06640625 C28.03397892 184.65731895 28.03397892 184.65731895 25.78125 186.76171875 C22.07758095 189.47029281 18.22333673 190.6396265 13.875 192 C12.64620117 192.4021875 12.64620117 192.4021875 11.39257812 192.8125 C5.38731665 194.75 5.38731665 194.75 3.0625 194.75 C3.0625 199.7 3.0625 204.65 3.0625 209.75 C4.99996094 209.81058594 6.93742187 209.87117187 8.93359375 209.93359375 C11.45573759 210.01797774 13.97787257 210.1026268 16.5 210.1875 C17.77939453 210.22681641 19.05878906 210.26613281 20.37695312 210.30664062 C21.59189453 210.34853516 22.80683594 210.39042969 24.05859375 210.43359375 C25.74746704 210.48858032 25.74746704 210.48858032 27.47045898 210.54467773 C30.0625 210.75 30.0625 210.75 31.0625 211.75 C31.15025605 213.89558827 31.16945219 216.04404421 31.16015625 218.19140625 C31.15693359 219.49658203 31.15371094 220.80175781 31.15039062 222.14648438 C31.14203401 223.5351569 31.13356905 224.92382877 31.125 226.3125 C31.11998666 227.70507656 31.11542347 229.09765481 31.11132812 230.49023438 C31.09949434 233.9101987 31.0830088 237.33007844 31.0625 240.75 C25.74836248 242.52137917 20.01643878 242.01560204 14.45117188 242.04516602 C12.95986365 242.05658565 11.46859296 242.07687496 9.97753906 242.10668945 C-1.54532994 242.3367869 -13.19939686 242.04723637 -22.5 234.3125 C-23.67176566 233.15058111 -24.82143311 231.9655184 -25.9375 230.75 C-26.700625 229.945625 -27.46375 229.14125 -28.25 228.3125 C-32.89857936 221.25354615 -33.4358872 214.48451171 -33.625 206.25 C-33.65916016 205.23679687 -33.69332031 204.22359375 -33.72851562 203.1796875 C-33.81028526 200.70323583 -33.8796625 198.22710651 -33.9375 195.75 C-34.53570557 195.62085205 -35.13391113 195.4917041 -35.75024414 195.35864258 C-44.86965509 193.36587899 -54.01915469 190.90320885 -61.9375 185.75 C-62.2675 184.76 -62.5975 183.77 -62.9375 182.75 C-63.80375 182.481875 -64.67 182.21375 -65.5625 181.9375 C-73.91248613 178.99954192 -78.28565054 171.89317329 -82.9375 164.75 C-83.83855469 163.42935547 -83.83855469 163.42935547 -84.7578125 162.08203125 C-97.46340307 143.0236454 -100.31718677 121.91344356 -100.19824219 99.52441406 C-100.18747846 97.12018823 -100.19823236 94.71670406 -100.2109375 92.3125 C-100.2275937 73.89334432 -98.10853586 51.36372715 -86.18359375 36.4296875 C-84.70150113 34.4318824 -83.63505303 32.33708417 -82.5 30.125 C-80.19094663 25.85433703 -77.80583923 23.65125442 -73.9375 20.75 C-73.174375 19.945625 -72.41125 19.14125 -71.625 18.3125 C-63.37936889 10.45038661 -52.80017978 4.94254359 -41.9375 1.75 C-40.803125 1.37875 -39.66875 1.0075 -38.5 0.625 C-25.94225117 -2.45935936 -12.69936447 -1.88028485 0 0 Z M-51.9375 48.75 C-62.26494147 66.53777455 -61.2198748 87.17324915 -60.79333496 107.03308105 C-60.7513203 109.06126486 -60.72357298 111.08972861 -60.69628906 113.11816406 C-60.3160571 126.11429758 -58.13230036 139.22283338 -49.9375 149.75 C-47.3118391 152.18901128 -47.3118391 152.18901128 -44.9375 153.75 C-44.4425 154.74 -44.4425 154.74 -43.9375 155.75 C-42.05757519 156.83701174 -40.13264855 157.84704212 -38.1875 158.8125 C-37.14078125 159.33972656 -36.0940625 159.86695313 -35.015625 160.41015625 C-24.93069866 164.7999148 -10.98882797 163.82099661 -0.58984375 160.796875 C6.53658865 157.98408578 14.06812745 153.02365545 17.375 145.9375 C17.601875 145.215625 17.82875 144.49375 18.0625 143.75 C18.7225 143.75 19.3825 143.75 20.0625 143.75 C20.88192948 141.23123707 21.69315069 138.7102933 22.5 136.1875 C22.73009766 135.48302734 22.96019531 134.77855469 23.19726562 134.05273438 C23.41962891 133.35341797 23.64199219 132.65410156 23.87109375 131.93359375 C24.07532959 131.29993896 24.27956543 130.66628418 24.48999023 130.01342773 C26.1154246 123.5872435 26.24772916 117.18544659 26.30078125 110.6015625 C26.31288887 109.14537003 26.31288887 109.14537003 26.32524109 107.65975952 C26.33902642 105.60733799 26.34977321 103.55489406 26.35766602 101.50244141 C26.36912316 99.43531414 26.38947403 97.36821496 26.41918945 95.30126953 C26.65556889 78.8180957 26.61669092 60.48179678 16.0625 46.75 C7.12998546 37.62910203 -4.15301272 32.53125437 -16.8125 32.3125 C-30.90961031 32.20308561 -42.44583175 38.34347216 -51.9375 48.75 Z " fill="#000000" transform="translate(425.9375,236.25)"/>
<path d="M0 0 C1.07894531 0.00193359 2.15789063 0.00386719 3.26953125 0.00585938 C4.39230469 0.01810547 5.51507812 0.03035156 6.671875 0.04296875 C8.33283203 0.04393555 8.33283203 0.04393555 10.02734375 0.04492188 C15.91436762 0.076422 21.60108363 0.34315299 27.421875 1.23046875 C28.62762375 6.89307963 28.55558484 12.4343653 28.53540039 18.19287109 C28.53554642 19.28614716 28.53569244 20.37942322 28.5358429 21.50582886 C28.53514779 25.10937503 28.52737419 28.71286913 28.51953125 32.31640625 C28.51766564 34.81889823 28.51624241 37.32139058 28.51524353 39.82388306 C28.51181915 45.73107497 28.50394245 51.63825026 28.49389404 57.54543364 C28.48159987 64.93393161 28.47624475 72.32243191 28.47070312 79.7109375 C28.45998563 92.88412402 28.44311553 106.05729521 28.421875 119.23046875 C28.82672119 118.60833496 29.23156738 117.98620117 29.64868164 117.34521484 C30.18356201 116.53133301 30.71844238 115.71745117 31.26953125 114.87890625 C31.79812744 114.07114746 32.32672363 113.26338867 32.87133789 112.43115234 C34.421875 110.23046875 34.421875 110.23046875 36.859375 107.85546875 C39.2387912 105.418018 40.54420797 103.39666368 42.234375 100.48046875 C47.2279131 92.32138417 54.16639394 85.74920918 60.8371582 78.95703125 C62.61155474 77.11274961 62.61155474 77.11274961 64.421875 74.23046875 C65.081875 74.23046875 65.741875 74.23046875 66.421875 74.23046875 C66.82889648 73.14076782 66.82889648 73.14076782 67.24414062 72.02905273 C69.41094786 66.88019051 71.59155509 63.24154659 76.421875 60.23046875 C83.09279243 58.71887982 90.1434057 59.3867118 96.921875 59.66796875 C98.81240483 59.71315876 100.70303825 59.75421544 102.59375 59.79101562 C107.20569904 59.88974355 111.81264207 60.04476618 116.421875 60.23046875 C115.7434312 64.13452431 115.04884736 66.09274888 112.296875 68.98046875 C109.6566129 71.83626245 107.24379642 74.73505852 104.921875 77.85546875 C102.27323836 81.3218053 99.4971992 83.97095819 96.1171875 86.69921875 C93.04943688 89.47009028 90.80363221 92.87372321 88.421875 96.23046875 C85.10500029 100.55245701 81.38813536 104.29235527 77.51171875 108.11328125 C76.53912109 109.13035156 76.53912109 109.13035156 75.546875 110.16796875 C74.93070313 110.79574219 74.31453125 111.42351562 73.6796875 112.0703125 C72.16940503 114.2271547 72.16940503 114.2271547 72.50390625 117.09765625 C73.54489798 120.65031739 75.00064771 123.29291891 76.984375 126.41796875 C77.33790039 126.97895264 77.69142578 127.53993652 78.05566406 128.11791992 C81.05802843 132.8198986 84.36278048 137.27975036 87.6875 141.7578125 C89.55422589 144.41915819 90.94237766 147.07465509 92.30859375 150.01171875 C95.90969424 157.18864885 100.45213451 163.95219714 105.109375 170.48046875 C108.2543011 174.89477545 110.86885408 179.45706807 113.421875 184.23046875 C114.77939512 186.61641321 116.13878829 189.00120671 117.50390625 191.3828125 C118.421875 193.23046875 118.421875 193.23046875 118.421875 195.23046875 C119.081875 195.23046875 119.741875 195.23046875 120.421875 195.23046875 C123.16563171 198.18528367 123.421875 199.00518783 123.421875 203.23046875 C117.53209444 203.37897941 111.64340728 203.48776198 105.75219727 203.56005859 C103.74907443 203.59020024 101.74608325 203.6311219 99.7434082 203.68310547 C96.86116049 203.75603756 93.98065945 203.78995049 91.09765625 203.81640625 C90.20476395 203.84737396 89.31187164 203.87834167 88.391922 203.9102478 C82.31668411 203.91352351 82.31668411 203.91352351 79.79171753 201.98608398 C78.4597168 200.42724609 78.4597168 200.42724609 76.421875 197.23046875 C75.98810547 196.57336914 75.55433594 195.91626953 75.10742188 195.23925781 C74.78837891 194.66401367 74.46933594 194.08876953 74.140625 193.49609375 C73.77622314 192.84455322 73.41182129 192.1930127 73.03637695 191.52172852 C72.66859131 190.84811279 72.30080566 190.17449707 71.921875 189.48046875 C71.5302417 188.775271 71.1386084 188.07007324 70.73510742 187.34350586 C68.63571292 183.53810828 66.63157467 179.70402439 64.734375 175.79296875 C62.75791575 171.72418886 60.3800346 168.08982904 57.8203125 164.3671875 C56.16160099 161.83278752 54.8676241 159.22197643 53.56640625 156.4921875 C51.0945159 151.6074622 48.21437191 146.93692422 45.421875 142.23046875 C39.76469008 145.70510297 39.76469008 145.70510297 36.421875 151.23046875 C35.761875 151.23046875 35.101875 151.23046875 34.421875 151.23046875 C34.174375 151.80796875 33.926875 152.38546875 33.671875 152.98046875 C32.421875 155.23046875 32.421875 155.23046875 30.36157227 156.79272461 C27.41380407 160.49737727 27.97748041 163.89223353 28.13671875 168.484375 C28.15588097 169.83026955 28.15588097 169.83026955 28.1754303 171.20335388 C28.21764465 174.06728083 28.28606828 176.92968049 28.359375 179.79296875 C28.42735132 182.65974397 28.48930011 185.52603635 28.53260803 188.39329529 C28.55992718 190.1765135 28.6016511 191.95958083 28.65916443 193.74208069 C28.67230179 194.54979416 28.68543915 195.35750763 28.69897461 196.18969727 C28.71770126 196.89933121 28.73642792 197.60896515 28.75572205 198.34010315 C28.31139254 200.85606137 27.44883982 201.7147851 25.421875 203.23046875 C22.77545766 203.50422313 20.36964993 203.60360028 17.7265625 203.55859375 C16.97851349 203.55672058 16.23046448 203.55484741 15.45974731 203.55291748 C13.88115979 203.5462021 12.30258876 203.53229767 10.72412109 203.51171875 C8.29899764 203.48049608 5.87452349 203.47074115 3.44921875 203.46484375 C1.91665868 203.45567645 0.38410526 203.44530155 -1.1484375 203.43359375 C-1.87757355 203.42934387 -2.60670959 203.42509399 -3.35794067 203.42071533 C-8.46095035 203.3476434 -8.46095035 203.3476434 -9.578125 202.23046875 C-9.67590283 199.65067608 -9.70807388 197.09767547 -9.69837952 194.5174408 C-9.69923394 193.6998759 -9.70008837 192.882311 -9.70096868 192.03997141 C-9.70262599 189.27914864 -9.69709804 186.5183856 -9.69165039 183.75756836 C-9.69136855 181.78700258 -9.6915262 179.81643669 -9.6920929 177.84587097 C-9.69238098 172.47832366 -9.6864825 167.11079848 -9.67951894 161.74325633 C-9.6732872 156.14048928 -9.67268174 150.53772177 -9.67149353 144.93495178 C-9.66837968 134.31727317 -9.66016557 123.69960479 -9.65014404 113.0819307 C-9.63898457 100.99749551 -9.63347287 88.91305984 -9.62844861 76.82862079 C-9.617983 51.96256442 -9.60038253 27.09651716 -9.578125 2.23046875 C-6.17219262 0.40367055 -3.89071889 -0.01638806 0 0 Z " fill="#000000" transform="translate(740.578125,226.76953125)"/>
<path d="M0 0 C4.31236506 3.35077422 8.44568062 7.06748011 11.27734375 11.76953125 C10.75635532 17.75755468 7.03858775 20.89374259 3.08984375 25.08203125 C2.42919922 25.82259766 1.76855469 26.56316406 1.08789062 27.32617188 C-3.81382323 32.57628 -3.81382323 32.57628 -7.9375 33.453125 C-11.10967957 32.67453955 -12.66134727 31.675076 -15.09765625 29.51953125 C-24.40140462 21.83112483 -34.63118226 18.78559575 -46.72265625 19.76953125 C-51.49847376 20.23396855 -54.774006 21.33703393 -58.22265625 24.76953125 C-61.08323687 28.51571629 -61.55153655 31.82409527 -61.234375 36.46875 C-60.40270588 40.20808674 -58.83934532 41.62680751 -55.72265625 43.76953125 C-49.02623379 46.74571901 -42.51610148 47.64919296 -35.28515625 48.58203125 C-19.94123902 50.77232808 -2.49472463 53.76184252 7.5859375 66.7421875 C9.60159983 69.69921085 11.49273471 72.66833563 13.27734375 75.76953125 C13.65890625 76.42566406 14.04046875 77.08179688 14.43359375 77.7578125 C17.56949521 85.23461459 17.87315101 97.30524244 15.15234375 105.01953125 C14.55819747 106.28448785 13.92998221 107.53373675 13.27734375 108.76953125 C12.88675781 109.61773437 12.49617187 110.4659375 12.09375 111.33984375 C6.31140616 123.10109835 -2.38894816 131.26920447 -14.72265625 135.76953125 C-36.08204261 142.80786451 -60.33640534 142.222551 -80.59765625 132.20703125 C-84.15874239 130.35212675 -86.99303624 128.69694981 -89.72265625 125.76953125 C-91.55199355 124.44943131 -93.4181961 123.20168799 -95.296875 121.953125 C-95.76738281 121.56253906 -96.23789062 121.17195312 -96.72265625 120.76953125 C-96.72265625 120.10953125 -96.72265625 119.44953125 -96.72265625 118.76953125 C-97.36203125 118.46015625 -98.00140625 118.15078125 -98.66015625 117.83203125 C-100.72265625 116.76953125 -100.72265625 116.76953125 -101.72265625 115.76953125 C-102.09765625 113.51953125 -102.09765625 113.51953125 -101.72265625 110.76953125 C-99.72265625 108.39453125 -99.72265625 108.39453125 -96.72265625 105.76953125 C-96.04847656 105.15207031 -95.37429688 104.53460938 -94.6796875 103.8984375 C-89.01415524 98.76953125 -89.01415524 98.76953125 -86.72265625 98.76953125 C-86.61953125 98.15078125 -86.51640625 97.53203125 -86.41015625 96.89453125 C-85.72265625 94.76953125 -85.72265625 94.76953125 -82.72265625 92.76953125 C-80.03515625 92.64453125 -80.03515625 92.64453125 -77.72265625 92.76953125 C-77.47515625 93.55328125 -77.22765625 94.33703125 -76.97265625 95.14453125 C-75.51588203 98.20375711 -74.75992119 98.51889274 -71.72265625 99.76953125 C-71.12453125 100.24390625 -70.52640625 100.71828125 -69.91015625 101.20703125 C-67.04262415 103.25526847 -63.99113204 104.51640022 -60.72265625 105.76953125 C-60.02914062 106.04023438 -59.335625 106.3109375 -58.62109375 106.58984375 C-48.67723907 110.20898521 -37.23486099 111.3278974 -27.22265625 107.39453125 C-23.67344717 105.08754535 -22.07332526 103.82153827 -20.72265625 99.76953125 C-20.60578287 98.2936651 -20.54763883 96.81246513 -20.53515625 95.33203125 C-20.52097656 94.57019531 -20.50679687 93.80835938 -20.4921875 93.0234375 C-20.7555397 90.44794224 -21.29924049 88.92982784 -22.72265625 86.76953125 C-30.39794619 81.2096261 -41.74846948 80.68920286 -50.89453125 79.28125 C-65.69548616 76.9811016 -78.25223782 74.13741412 -88.72265625 62.76953125 C-89.40328125 62.19203125 -90.08390625 61.61453125 -90.78515625 61.01953125 C-98.41628835 52.15757139 -98.49188819 40.19152155 -97.95800781 29.09667969 C-97.16161477 21.22197171 -94.10643005 13.5947745 -88.72265625 7.76953125 C-88.06265625 7.76953125 -87.40265625 7.76953125 -86.72265625 7.76953125 C-86.63886719 7.17140625 -86.55507813 6.57328125 -86.46875 5.95703125 C-85.01136885 1.68408127 -80.49590684 -0.12855288 -76.72265625 -2.23046875 C-73.44548525 -3.73796741 -70.11319294 -5.00352171 -66.72265625 -6.23046875 C-65.99691406 -6.51921875 -65.27117188 -6.80796875 -64.5234375 -7.10546875 C-44.91676335 -14.87344632 -17.79215341 -10.92905371 0 0 Z " fill="#000000" transform="translate(687.72265625,293.23046875)"/>
<path d="M0 0 C1.29292969 -0.02900391 2.58585938 -0.05800781 3.91796875 -0.08789062 C5.15933594 -0.09626953 6.40070312 -0.10464844 7.6796875 -0.11328125 C9.38874268 -0.13515503 9.38874268 -0.13515503 11.13232422 -0.1574707 C14.125 0.3125 14.125 0.3125 16.50341797 1.82250977 C18.78781055 5.33026646 18.62448624 8.53475285 18.515625 12.578125 C18.50996521 13.37152283 18.50430542 14.16492065 18.49847412 14.98236084 C18.47613147 17.50969473 18.42594176 20.03559665 18.375 22.5625 C18.35493214 24.27862532 18.33668187 25.99477292 18.3203125 27.7109375 C18.27627395 31.9120078 18.20726326 36.11201135 18.125 40.3125 C18.93243652 40.29678955 19.73987305 40.2810791 20.57177734 40.26489258 C24.21444756 40.20270321 27.85700634 40.16355991 31.5 40.125 C32.77101563 40.09986328 34.04203125 40.07472656 35.3515625 40.04882812 C37.16914062 40.03432617 37.16914062 40.03432617 39.0234375 40.01953125 C40.14411621 40.0038208 41.26479492 39.98811035 42.41943359 39.97192383 C43.75868896 40.14050903 43.75868896 40.14050903 45.125 40.3125 C48.23996916 44.98495375 47.45350857 49.81835754 47.4375 55.3125 C47.45361328 56.41851562 47.46972656 57.52453125 47.48632812 58.6640625 C47.48697266 59.72367187 47.48761719 60.78328125 47.48828125 61.875 C47.49126221 62.84566406 47.49424316 63.81632812 47.49731445 64.81640625 C47.125 67.3125 47.125 67.3125 44.125 70.3125 C35.545 70.3125 26.965 70.3125 18.125 70.3125 C18.125 97.7025 18.125 125.0925 18.125 153.3125 C26.375 153.3125 34.625 153.3125 43.125 153.3125 C44.66829683 157.94239048 45.37668781 160.1088991 45.35546875 164.640625 C45.35353516 165.60484375 45.35160156 166.5690625 45.34960938 167.5625 C45.33736328 168.5525 45.32511719 169.5425 45.3125 170.5625 C45.3115332 172.07070313 45.3115332 172.07070313 45.31054688 173.609375 C45.26565689 181.03118622 45.26565689 181.03118622 44.125 183.3125 C39.18118504 183.38731328 34.23770811 183.44141154 29.29345703 183.47729492 C27.61566417 183.49227234 25.93790972 183.51266154 24.26025391 183.53881836 C11.99885269 183.72503976 -0.03906911 183.76078919 -9.875 175.3125 C-21.09549641 163.4611323 -20.30977634 147.4769922 -20.16796875 132.2265625 C-20.16235877 130.43053546 -20.15809532 128.63450377 -20.15510559 126.83847046 C-20.14376699 122.15973764 -20.11439732 117.48129368 -20.08099365 112.80267334 C-20.05005297 108.00911362 -20.03654948 103.21550625 -20.02148438 98.421875 C-19.98951463 89.05193738 -19.93683946 79.68228813 -19.875 70.3125 C-26.145 70.3125 -32.415 70.3125 -38.875 70.3125 C-40.2517748 67.5589504 -40.00469689 65.32409591 -40.0078125 62.24609375 C-40.00910156 61.03888672 -40.01039063 59.83167969 -40.01171875 58.58789062 C-40.00591797 56.68813477 -40.00591797 56.68813477 -40 54.75 C-40.00386719 53.47962891 -40.00773438 52.20925781 -40.01171875 50.90039062 C-40.01042969 49.69447266 -40.00914062 48.48855469 -40.0078125 47.24609375 C-40.00668457 46.13290771 -40.00555664 45.01972168 -40.00439453 43.87280273 C-39.875 41.3125 -39.875 41.3125 -38.875 40.3125 C-37.53484779 40.15667697 -36.18741097 40.06205858 -34.83984375 39.99609375 C-34.03095703 39.95419922 -33.22207031 39.91230469 -32.38867188 39.86914062 C-31.53853516 39.82982422 -30.68839844 39.79050781 -29.8125 39.75 C-28.95849609 39.70681641 -28.10449219 39.66363281 -27.22460938 39.61914062 C-25.10827963 39.51273298 -22.99166187 39.41208269 -20.875 39.3125 C-20.545 38.3225 -20.215 37.3325 -19.875 36.3125 C-19.215 36.3125 -18.555 36.3125 -17.875 36.3125 C-17.0638339 31.97665841 -16.69509925 27.7899902 -16.55859375 23.3828125 C-16.51669922 22.09375 -16.47480469 20.8046875 -16.43164062 19.4765625 C-16.39183972 18.13021091 -16.35212727 16.78385671 -16.3125 15.4375 C-16.26924817 14.06769667 -16.22563188 12.69790479 -16.18164062 11.328125 C-16.07584478 7.98967843 -15.97375628 4.651161 -15.875 1.3125 C-11.30741635 -0.97129183 -5.01458876 0.03727395 0 0 Z " fill="#000000" transform="translate(983.875,246.6875)"/>
<path d="M0 0 C0.88365234 -0.00128906 1.76730469 -0.00257813 2.67773438 -0.00390625 C3.59748047 -0.00003906 4.51722656 0.00382813 5.46484375 0.0078125 C6.38845703 0.00394531 7.31207031 0.00007812 8.26367188 -0.00390625 C9.5872168 -0.00197266 9.5872168 -0.00197266 10.9375 0 C11.74582275 0.00112793 12.55414551 0.00225586 13.38696289 0.00341797 C15.40234375 0.1328125 15.40234375 0.1328125 17.40234375 1.1328125 C17.42520873 38.95183399 17.44284126 76.77085445 17.45340908 114.58988145 C17.45465986 119.04991121 17.45595417 123.50994096 17.45727539 127.9699707 C17.4575377 128.85792098 17.45780001 129.74587126 17.45807027 130.66072912 C17.46242726 145.05777682 17.47031497 159.45482054 17.47949655 173.85186588 C17.48883228 188.61322245 17.49439919 203.37457692 17.49643224 218.13593632 C17.49780764 227.2520431 17.50215911 236.36813865 17.51026022 245.48424197 C17.51552669 251.72674228 17.51714827 257.96923674 17.51584513 264.21173912 C17.51520159 267.81887035 17.51622099 271.42598189 17.52154922 275.03310966 C17.5272704 278.93451036 17.52534486 282.83588497 17.52259827 286.73728943 C17.52551111 287.88998823 17.52842395 289.04268703 17.53142506 290.2303161 C17.52943401 291.26687564 17.52744296 292.30343517 17.52539158 293.3714056 C17.5257713 294.27324139 17.52615102 295.17507717 17.52654225 296.10424131 C17.40234375 298.1328125 17.40234375 298.1328125 16.40234375 299.1328125 C14.70675649 299.23213403 13.00708628 299.26361257 11.30859375 299.265625 C10.27863281 299.26691406 9.24867187 299.26820313 8.1875 299.26953125 C7.10339844 299.26566406 6.01929688 299.26179688 4.90234375 299.2578125 C3.81824219 299.26167969 2.73414063 299.26554687 1.6171875 299.26953125 C0.58722656 299.26824219 -0.44273438 299.26695312 -1.50390625 299.265625 C-2.93186523 299.26393311 -2.93186523 299.26393311 -4.38867188 299.26220703 C-6.59765625 299.1328125 -6.59765625 299.1328125 -7.59765625 298.1328125 C-7.69467879 296.54811428 -7.72137257 294.95907099 -7.72070408 293.3714056 C-7.72269513 292.33484607 -7.72468618 291.29828653 -7.72673756 290.2303161 C-7.72382472 289.0776173 -7.72091188 287.9249185 -7.71791077 286.73728943 C-7.71876519 285.52361995 -7.71961962 284.30995048 -7.72049993 283.05950314 C-7.72186816 279.67547374 -7.71872055 276.29150146 -7.71372187 272.90747893 C-7.70942079 269.26397234 -7.71086355 265.62046764 -7.71162415 261.97695923 C-7.7121496 255.65926631 -7.70900058 249.34158369 -7.70338631 243.02389336 C-7.69527419 233.88946907 -7.69265638 224.75504978 -7.69139832 215.62062228 C-7.68920734 200.8021731 -7.68254603 185.98372941 -7.6730957 171.1652832 C-7.66392276 156.76684598 -7.65684135 142.36841025 -7.65258789 127.9699707 C-7.65232517 127.08309574 -7.65206244 126.19622078 -7.65179176 125.28247081 C-7.65048676 120.8334723 -7.64922304 116.38447377 -7.64797986 111.93547523 C-7.63760583 75.00125044 -7.61998628 38.0670319 -7.59765625 1.1328125 C-4.74856019 0.18311381 -2.95516877 0.00411788 0 0 Z " fill="#8B55F2" transform="translate(1056.59765625,196.8671875)"/>
<path d="M0 0 C7.97686961 2.88488095 14.88802928 11.68979256 20.20703125 18.01953125 C22.25347109 20.27997787 24.45478244 22.24303582 26.75 24.25 C31.69020499 28.58774097 36.01372131 33.28498998 40.359375 38.203125 C42.24916643 40.20473841 43.99582445 41.88882463 46.10546875 43.609375 C48.55366341 45.63136573 50.53530716 47.57713819 52.5625 50 C56.80632419 54.95886678 61.33909415 59.32276724 66.3125 63.53515625 C68.66368153 65.57611244 70.82628794 67.77194514 73 70 C73.60328125 70.58136719 74.2065625 71.16273438 74.828125 71.76171875 C75.46234375 72.37660156 76.0965625 72.99148438 76.75 73.625 C77.63945312 74.47964844 77.63945312 74.47964844 78.546875 75.3515625 C80 77 80 77 81 80 C82.37094257 80.89111267 83.74439644 81.77855364 85.12890625 82.6484375 C91.4168272 87.19044303 96.57428848 93.50182694 101.58984375 99.37109375 C102.67629098 100.62607573 103.82625655 101.82625655 105 103 C104.8125 105.0625 104.8125 105.0625 104 107 C102.515 107.495 102.515 107.495 101 108 C100.28774167 109.30954583 99.62654246 110.64734825 99 112 C95.25341537 116.91106364 90.92810364 121.03481185 86.23828125 125.0234375 C80.2398681 130.32046551 74.5510024 136.08678255 69.375 142.1875 C66.25608205 145.85241558 62.76395393 148.9155999 59.12890625 152.05859375 C56.65371043 154.31579067 54.58500855 156.75961561 52.46484375 159.34375 C50.39481347 161.68426424 48.0505673 163.61522851 45.65234375 165.609375 C41.96452022 168.71307518 38.80468489 172.21600194 35.6875 175.875 C32.76056356 179.2551395 29.63856742 182.13154363 26.23828125 185.0234375 C19.48531816 190.98678711 13.19586 197.51697835 7.4375 204.44140625 C5.36188332 206.69187107 3.6249561 207.90509552 0.58203125 208.3671875 C-2.82756032 207.88231366 -3.9705315 206.60369359 -6.3125 204.125 C-7.00988281 203.40570313 -7.70726562 202.68640625 -8.42578125 201.9453125 C-10 200 -10 200 -10 198 C-10.66 198 -11.32 198 -12 198 C-15.98378378 194.01621622 -15.98378378 194.01621622 -16.03515625 190.796875 C-14.43973615 186.48623049 -11.41774419 183.69822453 -8.25 180.4375 C-7.31800781 179.4484668 -7.31800781 179.4484668 -6.3671875 178.43945312 C-3.08748389 174.99714818 0.25778998 171.94215133 4 169 C5.20163834 167.71944049 6.37082464 166.40739047 7.5 165.0625 C10.22144447 161.89044599 12.9134336 158.82200356 16 156 C16.66 156 17.32 156 18 156 C18.23847656 155.4225 18.47695312 154.845 18.72265625 154.25 C20.26619621 151.53110393 22.05006134 150.01690818 24.4375 148 C28.44903438 144.49207816 32.08181094 140.83980565 35.625 136.875 C39.25385885 132.81999877 42.99948454 129.13457799 47.171875 125.640625 C49.776583 123.30306654 51.94778432 120.65353966 54.203125 117.984375 C56.6585695 115.2727102 59.38344869 112.96403828 62.203125 110.640625 C64.0945434 108.91367776 65.52800067 107.08987559 67 105 C65.69239897 101.46947723 63.59999218 99.76939454 60.69921875 97.47265625 C58.14720102 95.26090755 56.05955019 92.69982203 53.87890625 90.12890625 C51.24387229 87.14326486 48.38596338 84.40939965 45.50390625 81.6640625 C44 80 44 80 44 78 C43.41605469 77.731875 42.83210938 77.46375 42.23046875 77.1875 C35.35785886 73.52852731 30.28217938 67.16329984 25.21875 61.40625 C22.6649628 58.6366498 19.91338417 56.26811432 17.03515625 53.84765625 C13.81504886 50.92421902 11.0387394 47.6204914 8.16796875 44.359375 C5.79171718 41.77332825 3.28117208 39.53599358 0.57421875 37.30859375 C-1.79479071 35.3393179 -3.91740014 33.27192712 -6 31 C-6 30.34 -6 29.68 -6 29 C-6.59167969 28.74863281 -7.18335938 28.49726563 -7.79296875 28.23828125 C-10.28371715 26.8408171 -11.57516824 25.44215139 -13.3125 23.1875 C-13.84488281 22.52105469 -14.37726563 21.85460937 -14.92578125 21.16796875 C-16 19 -16 19 -16.0703125 16.66015625 C-14.4611702 12.66079162 -11.64975318 10.1886688 -8.5625 7.25 C-7.96373047 6.66089844 -7.36496094 6.07179687 -6.74804688 5.46484375 C-2.33930416 1.16965208 -2.33930416 1.16965208 0 0 Z " fill="#8A55F1" transform="translate(177,236)"/>
<path d="M0 0 C0.73541016 0.00202423 1.47082031 0.00404846 2.22851562 0.00613403 C2.97939453 0.00517731 3.73027344 0.00422058 4.50390625 0.00323486 C6.09440189 0.00255315 7.6849003 0.00440682 9.27539062 0.00857544 C11.71816217 0.01392386 14.16074984 0.00863019 16.60351562 0.00222778 C18.1451827 0.00288857 19.68684966 0.00416973 21.22851562 0.00613403 C21.96392578 0.0041098 22.69933594 0.00208557 23.45703125 0 C28.61356402 0.02399493 28.61356402 0.02399493 29.72851562 1.13894653 C29.827136 2.95891159 29.85483696 4.7827422 29.85549927 6.6053772 C29.85831909 7.79170242 29.86113892 8.97802765 29.86404419 10.20030212 C29.86201996 11.51358994 29.85999573 12.82687775 29.85791016 14.17996216 C29.85926417 15.56763251 29.86104411 16.9553025 29.86322021 18.3429718 C29.86779451 22.12179374 29.86600501 25.9005885 29.86284113 29.67941093 C29.8603175 33.62543692 29.86265507 37.5714605 29.86422729 41.51748657 C29.86604898 48.14537984 29.8636427 54.77326198 29.85888672 61.40115356 C29.8534441 69.07477857 29.85520676 76.748377 29.86071312 84.42200136 C29.86524427 90.99863046 29.86589479 97.57525154 29.86327446 104.15188169 C29.86171169 108.08497777 29.8615179 112.01806134 29.86481094 115.95115662 C29.86768969 119.64796002 29.86571391 123.34472903 29.85991669 127.0415287 C29.85795346 129.05354896 29.86094297 131.06557212 29.86404419 133.07759094 C29.86122437 134.26391617 29.85840454 135.45024139 29.85549927 136.67251587 C29.85512224 137.71007774 29.85474522 138.74763962 29.85435677 139.81664276 C29.72851562 142.13894653 29.72851562 142.13894653 28.72851562 143.13894653 C25.28529017 143.52782241 21.81447269 143.61456478 18.35351562 143.76394653 C16.85062988 143.83041382 16.85062988 143.83041382 15.31738281 143.89822388 C-1.45985479 144.54476133 -1.45985479 144.54476133 -6.27148438 142.13894653 C-6.29481241 123.77210272 -6.31246308 105.40526274 -6.32329655 87.03840733 C-6.32845971 78.51096159 -6.33550278 69.98352504 -6.34692383 61.45608521 C-6.35687006 54.02628398 -6.36333766 46.5964894 -6.36557287 39.16668171 C-6.36688008 35.23021334 -6.36996659 31.293764 -6.37721443 27.35730171 C-6.38397369 23.65641326 -6.38610153 19.95555178 -6.38459206 16.25465775 C-6.38500076 14.24023852 -6.39039645 12.22582226 -6.39590454 10.21141052 C-6.39452988 9.02364014 -6.39315521 7.83586975 -6.39173889 6.61210632 C-6.39266068 5.57324563 -6.39358248 4.53438494 -6.3945322 3.46404362 C-6.16240575 -0.92219022 -3.83207851 0.01783184 0 0 Z " fill="#000000" transform="translate(889.271484375,286.8610534667969)"/>
<path d="M0 0 C0.70837509 0.00718552 1.41675018 0.01437103 2.14659119 0.02177429 C3.23749306 0.02246162 3.23749306 0.02246162 4.35043335 0.02316284 C5.88788993 0.02618468 7.42534346 0.03406899 8.9627533 0.0464325 C11.32427229 0.06469731 13.68539954 0.06694214 16.04698181 0.06669617 C17.53852168 0.07161101 19.03005888 0.07743918 20.52159119 0.08427429 C21.23199051 0.08538712 21.94238983 0.08649994 22.67431641 0.08764648 C27.65163129 0.13618939 27.65163129 0.13618939 28.76768494 1.25224304 C28.86630532 3.0722081 28.89400628 4.89603871 28.89466858 6.71867371 C28.8974884 7.90499893 28.90030823 9.09132416 28.9032135 10.31359863 C28.90118927 11.62688644 28.89916504 12.94017426 28.89707947 14.29325867 C28.89843348 15.68092902 28.90021342 17.06859901 28.90238953 18.45626831 C28.90696382 22.23509025 28.90517432 26.01388501 28.90201044 29.79270744 C28.89948682 33.73873343 28.90182438 37.68475701 28.90339661 41.63078308 C28.9052183 48.25867635 28.90281201 54.88655849 28.89805603 61.51445007 C28.89261341 69.18807508 28.89437607 76.86167351 28.89988244 84.53529787 C28.90441359 91.11192697 28.90506411 97.68854805 28.90244377 104.2651782 C28.900881 108.19827428 28.90068721 112.13135784 28.90398026 116.06445312 C28.906859 119.76125653 28.90488323 123.45802554 28.899086 127.15482521 C28.89712277 129.16684547 28.90011228 131.17886862 28.9032135 133.19088745 C28.90039368 134.37721268 28.89757385 135.5635379 28.89466858 136.78581238 C28.89429155 137.82337425 28.89391453 138.86093613 28.89352608 139.92993927 C28.76768494 142.25224304 28.76768494 142.25224304 27.76768494 143.25224304 C25.2584434 143.35311516 22.7773211 143.39196337 20.26768494 143.38505554 C19.51680603 143.38601227 18.76592712 143.38696899 17.99229431 143.38795471 C16.40179867 143.38863642 14.81130026 143.38678276 13.22080994 143.38261414 C10.77803839 143.37726571 8.33545072 143.38255938 5.89268494 143.38896179 C4.35101786 143.38830101 2.8093509 143.38701984 1.26768494 143.38505554 C0.53227478 143.38707977 -0.20313538 143.389104 -0.96083069 143.39118958 C-6.11736346 143.36719465 -6.11736346 143.36719465 -7.23231506 142.25224304 C-7.33309368 140.44725885 -7.36308332 138.63829839 -7.36602783 136.83050537 C-7.37029282 135.65403946 -7.3745578 134.47757355 -7.37895203 133.26545715 C-7.37827225 131.31190811 -7.37827225 131.31190811 -7.37757874 129.31889343 C-7.38056868 127.94269723 -7.38397082 126.56650186 -7.38775635 125.19030762 C-7.39661737 121.44241373 -7.39893534 117.69454265 -7.39957213 113.9466393 C-7.4005195 110.82271756 -7.40419581 107.69880118 -7.40774423 104.57488149 C-7.41589679 97.20732283 -7.41832774 89.8397764 -7.4176178 82.47221375 C-7.41701679 74.86107222 -7.42757128 67.25000152 -7.44336146 59.63887793 C-7.45641784 53.11403635 -7.4618025 46.58921797 -7.46116239 40.06436342 C-7.46090684 36.16307269 -7.46378925 32.26184486 -7.47434044 28.36056709 C-7.48398952 24.6924607 -7.48412271 21.02447774 -7.47682381 17.35636711 C-7.47527191 15.36242453 -7.48364693 13.36848206 -7.49226379 11.3745575 C-7.48806931 10.19527176 -7.48387482 9.01598602 -7.47955322 7.80096436 C-7.48009799 6.77169862 -7.48064276 5.74243288 -7.48120403 4.68197727 C-6.9843271 -0.16869532 -4.23595782 0.0198271 0 0 Z " fill="#000000" transform="translate(530.2323150634766,286.7477569580078)"/>
<path d="M0 0 C0.88365234 -0.00128906 1.76730469 -0.00257813 2.67773438 -0.00390625 C3.59748047 -0.00003906 4.51722656 0.00382813 5.46484375 0.0078125 C6.38845703 0.00394531 7.31207031 0.00007812 8.26367188 -0.00390625 C9.5872168 -0.00197266 9.5872168 -0.00197266 10.9375 0 C11.74582275 0.00112793 12.55414551 0.00225586 13.38696289 0.00341797 C15.40234375 0.1328125 15.40234375 0.1328125 17.40234375 1.1328125 C17.42520873 38.95183399 17.44284126 76.77085445 17.45340908 114.58988145 C17.45465986 119.04991121 17.45595417 123.50994096 17.45727539 127.9699707 C17.4575377 128.85792098 17.45780001 129.74587126 17.45807027 130.66072912 C17.46242726 145.05777682 17.47031497 159.45482054 17.47949655 173.85186588 C17.48883228 188.61322245 17.49439919 203.37457692 17.49643224 218.13593632 C17.49780764 227.2520431 17.50215911 236.36813865 17.51026022 245.48424197 C17.51552669 251.72674228 17.51714827 257.96923674 17.51584513 264.21173912 C17.51520159 267.81887035 17.51622099 271.42598189 17.52154922 275.03310966 C17.5272704 278.93451036 17.52534486 282.83588497 17.52259827 286.73728943 C17.52551111 287.88998823 17.52842395 289.04268703 17.53142506 290.2303161 C17.52943401 291.26687564 17.52744296 292.30343517 17.52539158 293.3714056 C17.5257713 294.27324139 17.52615102 295.17507717 17.52654225 296.10424131 C17.40234375 298.1328125 17.40234375 298.1328125 16.40234375 299.1328125 C14.70675649 299.23213403 13.00708628 299.26361257 11.30859375 299.265625 C10.27863281 299.26691406 9.24867187 299.26820313 8.1875 299.26953125 C7.10339844 299.26566406 6.01929688 299.26179688 4.90234375 299.2578125 C3.81824219 299.26167969 2.73414063 299.26554687 1.6171875 299.26953125 C0.58722656 299.26824219 -0.44273438 299.26695312 -1.50390625 299.265625 C-2.93186523 299.26393311 -2.93186523 299.26393311 -4.38867188 299.26220703 C-6.59765625 299.1328125 -6.59765625 299.1328125 -7.59765625 298.1328125 C-7.69467879 296.54811428 -7.72137257 294.95907099 -7.72070408 293.3714056 C-7.72269513 292.33484607 -7.72468618 291.29828653 -7.72673756 290.2303161 C-7.72382472 289.0776173 -7.72091188 287.9249185 -7.71791077 286.73728943 C-7.71876519 285.52361995 -7.71961962 284.30995048 -7.72049993 283.05950314 C-7.72186816 279.67547374 -7.71872055 276.29150146 -7.71372187 272.90747893 C-7.70942079 269.26397234 -7.71086355 265.62046764 -7.71162415 261.97695923 C-7.7121496 255.65926631 -7.70900058 249.34158369 -7.70338631 243.02389336 C-7.69527419 233.88946907 -7.69265638 224.75504978 -7.69139832 215.62062228 C-7.68920734 200.8021731 -7.68254603 185.98372941 -7.6730957 171.1652832 C-7.66392276 156.76684598 -7.65684135 142.36841025 -7.65258789 127.9699707 C-7.65232517 127.08309574 -7.65206244 126.19622078 -7.65179176 125.28247081 C-7.65048676 120.8334723 -7.64922304 116.38447377 -7.64797986 111.93547523 C-7.63760583 75.00125044 -7.61998628 38.0670319 -7.59765625 1.1328125 C-4.74856019 0.18311381 -2.95516877 0.00411788 0 0 Z M-1.59765625 4.1328125 C-3.79170595 5.91405212 -3.79170595 5.91405212 -3.84605324 8.23428595 C-3.8452938 9.11143991 -3.84453436 9.98859388 -3.84375191 10.89232826 C-3.847734 11.90301168 -3.8517161 12.9136951 -3.85581887 13.95500529 C-3.84999318 15.07366366 -3.8441675 16.19232204 -3.83816528 17.34487915 C-3.83987413 18.52673463 -3.84158298 19.70859011 -3.84334362 20.9262594 C-3.84607702 24.21688357 -3.83979353 27.50727201 -3.82978749 30.79786777 C-3.82117634 34.34251474 -3.82407149 37.887154 -3.82559204 41.43180847 C-3.82664238 47.57652143 -3.8203503 53.72119202 -3.80911636 59.86589432 C-3.7928844 68.75017174 -3.78765572 77.6344286 -3.78514038 86.51871924 C-3.78075965 100.93176195 -3.76744032 115.34478206 -3.74853516 129.7578125 C-3.73018612 143.76139208 -3.71602484 157.76496552 -3.70751953 171.76855469 C-3.70699408 172.63127096 -3.70646864 173.49398724 -3.70592727 174.38284643 C-3.70331725 178.71070171 -3.70078982 183.03855704 -3.69830346 187.3664124 C-3.6775592 223.28856188 -3.64217507 259.21068507 -3.59765625 295.1328125 C2.34234375 295.1328125 8.28234375 295.1328125 14.40234375 295.1328125 C14.40234375 199.1028125 14.40234375 103.0728125 14.40234375 4.1328125 C9.12234375 4.1328125 3.84234375 4.1328125 -1.59765625 4.1328125 Z " fill="#7D4DDD" transform="translate(1056.59765625,196.8671875)"/>
<path d="M0 0 C4.38620381 4.09606582 7.72331908 7.68436471 8.23828125 13.85546875 C8.43961055 22.89409447 7.51548935 28.23924395 1.3125 34.875 C-6.2967747 39.75642151 -14.27473965 39.50822358 -23 38 C-27.72128826 36.28316791 -30.81690699 33.89044701 -34 30 C-36.92019175 22.90810575 -37.23612371 15.30125648 -34.3125 8.1875 C-31.80221312 3.21958959 -29.15516199 -0.07635915 -23.9375 -2.3125 C-16.07872027 -3.68466789 -6.98743859 -4.55832904 0 0 Z " fill="#000000" transform="translate(915,229)"/>
<path d="M0 0 C0.83402344 -0.02900391 1.66804687 -0.05800781 2.52734375 -0.08789062 C8.48522107 -0.14868529 11.86109906 0.8751879 16.75 4.3125 C22.38536283 10.24446087 22.1014346 15.90082401 22.02734375 23.8203125 C21.662651 28.41235926 20.68373315 31.73982497 17.75 35.3125 C11.84462537 40.11061689 6.8406554 40.52902132 -0.5625 40.625 C-1.29662109 40.65400391 -2.03074219 40.68300781 -2.78710938 40.71289062 C-8.42627936 40.77793873 -11.59900358 39.51261955 -16.25 36.3125 C-21.19380133 31.1084986 -21.30079591 25.17841332 -21.25 18.3125 C-21.01361748 13.51642302 -20.74177422 9.1744688 -17.66015625 5.328125 C-12.07284613 0.36687711 -7.20471116 0.08199595 0 0 Z " fill="#000000" transform="translate(541.25,226.6875)"/>
<path d="M0 0 C6.6 0 13.2 0 20 0 C20 96.69 20 193.38 20 293 C13.4 293 6.8 293 0 293 C0 196.31 0 99.62 0 0 Z M3 1 C0.8059503 2.78123962 0.8059503 2.78123962 0.75160301 5.10147345 C0.75236245 5.97862741 0.75312189 6.85578138 0.75390434 7.75951576 C0.74992225 8.77019918 0.74594015 9.7808826 0.74183738 10.82219279 C0.74766307 11.94085116 0.75348875 13.05950954 0.75949097 14.21206665 C0.75778212 15.39392213 0.75607327 16.57577761 0.75431263 17.7934469 C0.75157923 21.08407107 0.75786272 24.37445951 0.76786876 27.66505527 C0.77647991 31.20970224 0.77358476 34.7543415 0.77206421 38.29899597 C0.77101387 44.44370893 0.77730595 50.58837952 0.78853989 56.73308182 C0.80477185 65.61735924 0.81000053 74.5016161 0.81251587 83.38590674 C0.8168966 97.79894945 0.83021593 112.21196956 0.84912109 126.625 C0.86747013 140.62857958 0.88163141 154.63215302 0.89013672 168.63574219 C0.89066217 169.49845846 0.89118761 170.36117474 0.89172898 171.25003393 C0.894339 175.57788921 0.89686643 179.90574454 0.89935279 184.2335999 C0.92009705 220.15574938 0.95548118 256.07787257 1 292 C6.94 292 12.88 292 19 292 C19 195.97 19 99.94 19 1 C13.72 1 8.44 1 3 1 Z " fill="#8355E0" transform="translate(1052,200)"/>
<path d="M0 0 C3.73584906 1.47169811 3.73584906 1.47169811 5 4 C4.13375 4.020625 3.2675 4.04125 2.375 4.0625 C-1.85919242 5.23866456 -3.13876257 7.07786289 -5.703125 10.50390625 C-6.13109375 10.99761719 -6.5590625 11.49132812 -7 12 C-7.66 12 -8.32 12 -9 12 C-10.76462683 15.08809695 -11 16.23312136 -11 20 C-9.33082717 22.15150823 -7.69148582 24.05106478 -5.8125 26 C-5.32974609 26.52078125 -4.84699219 27.0415625 -4.34960938 27.578125 C-1.4281986 30.68383955 1.62053677 33.38624138 5 36 C7.75553827 38.61776136 10.28818765 41.30890745 12.6875 44.25 C14.7042322 47.01742194 14.7042322 47.01742194 17 48 C17 48.66 17 49.32 17 50 C17.66 50 18.32 50 19 50 C20.23820964 51.43900039 21.47046036 52.88392027 22.66015625 54.36328125 C25.88898305 58.30753323 29.69187769 61.63321636 33.5 65 C37.75666761 68.76334521 41.7949284 72.5095167 45.375 76.9375 C47.81029025 79.94854578 50.6173625 82.30204445 53.64453125 84.703125 C54.09183594 85.13109375 54.53914063 85.5590625 55 86 C55 86.66 55 87.32 55 88 C55.9590625 88.37125 55.9590625 88.37125 56.9375 88.75 C59.544301 90.32987939 59.29195078 91.16780311 60 94 C61.9001177 95.24174796 61.9001177 95.24174796 64 96 C64.66 96.33 65.32 96.66 66 97 C66 97.66 66 98.32 66 99 C66.9590625 99.37125 66.9590625 99.37125 67.9375 99.75 C70 101 70 101 70.75 103.125 C70.8325 103.74375 70.915 104.3625 71 105 C64.07270549 101.22147572 58.89837617 96.06739911 53.84375 90.09375 C51.22314034 87.11780344 48.37375256 84.39776809 45.50390625 81.6640625 C44 80 44 80 44 78 C43.41605469 77.731875 42.83210938 77.46375 42.23046875 77.1875 C35.35785886 73.52852731 30.28217938 67.16329984 25.21875 61.40625 C22.6649628 58.6366498 19.91338417 56.26811432 17.03515625 53.84765625 C13.81504886 50.92421902 11.0387394 47.6204914 8.16796875 44.359375 C5.79171718 41.77332825 3.28117208 39.53599358 0.57421875 37.30859375 C-1.79479071 35.3393179 -3.91740014 33.27192712 -6 31 C-6 30.34 -6 29.68 -6 29 C-6.59167969 28.74863281 -7.18335938 28.49726563 -7.79296875 28.23828125 C-10.28371715 26.8408171 -11.57516824 25.44215139 -13.3125 23.1875 C-13.84488281 22.52105469 -14.37726563 21.85460937 -14.92578125 21.16796875 C-16 19 -16 19 -16.0703125 16.66015625 C-14.4611702 12.66079162 -11.64975318 10.1886688 -8.5625 7.25 C-7.96373047 6.66089844 -7.36496094 6.07179687 -6.74804688 5.46484375 C-2.33930416 1.16965208 -2.33930416 1.16965208 0 0 Z " fill="#7142D6" transform="translate(177,236)"/>
<path d="M0 0 C0.99 0.495 0.99 0.495 2 1 C-0.58247639 6.0693055 -2.10782305 8.08798991 -7 11 C-7.97846385 12.21820144 -8.91172005 13.47328479 -9.8125 14.75 C-11.8257386 17.55740559 -13.7903105 19.84504905 -16.4375 22.0625 C-25.53121405 29.68155772 -34.17494518 38.41465098 -41.703125 47.58203125 C-43.72047795 49.78775149 -45.46275505 50.91841514 -48.41796875 51.3671875 C-51.82756032 50.88231366 -52.9705315 49.60369359 -55.3125 47.125 C-56.00988281 46.40570313 -56.70726562 45.68640625 -57.42578125 44.9453125 C-59 43 -59 43 -59 41 C-59.66 41 -60.32 41 -61 41 C-63.1875 38.8125 -63.1875 38.8125 -65 36 C-64.68805052 32.14505834 -63.61944722 30.10458892 -60.98046875 27.3359375 C-60.37009766 26.68882812 -59.75972656 26.04171875 -59.13085938 25.375 C-58.48955078 24.715 -57.84824219 24.055 -57.1875 23.375 C-56.55779297 22.70726562 -55.92808594 22.03953125 -55.27929688 21.3515625 C-50.88551204 16.74108523 -47.08222907 13.1963605 -41 11 C-42.44077046 14.36179774 -44.24750021 16.59156268 -47 19 C-47.66 19 -48.32 19 -49 19 C-49.226875 19.556875 -49.45375 20.11375 -49.6875 20.6875 C-51.37377267 23.65855185 -53.530354 25.64522125 -56 28 C-56.928125 28.928125 -57.85625 29.85625 -58.8125 30.8125 C-59.534375 31.534375 -60.25625 32.25625 -61 33 C-59.05452791 38.67760223 -55.6629814 42.30415549 -51 46 C-47.70604085 47.11446714 -47.70604085 47.11446714 -45 47 C-44.67 46.01 -44.34 45.02 -44 44 C-43.01 43.505 -43.01 43.505 -42 43 C-40.97784597 41.24317275 -39.95804552 39.48399924 -39 37.69140625 C-38 36 -38 36 -36 34 C-35.01 34 -34.02 34 -33 34 C-33 33.34 -33 32.68 -33 32 C-32.01 32 -31.02 32 -30 32 C-29.731875 31.401875 -29.46375 30.80375 -29.1875 30.1875 C-28.00691239 28.01273336 -26.73183488 26.73183488 -25 25 C-24.505 23.515 -24.505 23.515 -24 22 C-22.35 21.67 -20.7 21.34 -19 21 C-19 20.01 -19 19.02 -19 18 C-14.77777778 15 -14.77777778 15 -12 15 C-12 14.01 -12 13.02 -12 12 C-11.34 12 -10.68 12 -10 12 C-9.7525 11.443125 -9.505 10.88625 -9.25 10.3125 C-7.35861283 6.81343373 -5.60990894 3.58135601 -1.75 2.1875 C-1.1725 2.125625 -0.595 2.06375 0 2 C0 1.34 0 0.68 0 0 Z " fill="#7749D6" transform="translate(226,393)"/>
<path d="M0 0 C3.74339115 -0.54591121 5.86468923 -0.75830191 9.0703125 1.3828125 C11.12593394 3.1883203 13.07577752 5.05547981 15 7 C15.9075 7.86625 16.815 8.7325 17.75 9.625 C20 12 20 12 21.8125 14.375 C23.64545504 16.57454605 25.32582592 18.17996974 27.5 20 C32.04816377 23.86164849 35.98522383 28.2118546 39.96289062 32.64453125 C42.64679542 35.73606479 42.64679542 35.73606479 46 38 C46 38.66 46 39.32 46 40 C41.61537866 39.49890042 39.1999003 38.01704885 36 35 C36 34.34 36 33.68 36 33 C34.68 32.67 33.36 32.34 32 32 C32 31.01 32 30.02 32 29 C31.443125 28.79375 30.88625 28.5875 30.3125 28.375 C27.68790422 26.81442954 26.15602079 24.87547006 24.27734375 22.5 C22.93075539 20.81950216 22.93075539 20.81950216 20.625 19.125 C17.59477564 16.67196123 15.23390948 13.92112612 12.70703125 10.96484375 C10.57865472 8.51501905 8.32709414 6.26060573 6 4 C5.34 3.34 4.68 2.68 4 2 C2.68252676 1.30251417 1.35085807 0.63040043 0 0 Z " fill="#8351DF" transform="translate(176,240)"/>
<path d="M0 0 C2.21875 -0.29296875 2.21875 -0.29296875 5 0 C7.28125 2.01171875 7.28125 2.01171875 9.5 4.6875 C10.27988281 5.60273438 11.05976563 6.51796875 11.86328125 7.4609375 C12.56839844 8.29882812 13.27351562 9.13671875 14 10 C16.57453539 12.69428122 19.1368863 15.11407192 22 17.5 C24.84902716 19.8741893 27.41083616 22.34768582 30 25 C30.60457031 25.58265625 31.20914063 26.1653125 31.83203125 26.765625 C32.46496094 27.37921875 33.09789062 27.9928125 33.75 28.625 C34.34296875 29.19476563 34.9359375 29.76453125 35.546875 30.3515625 C37 32 37 32 38 35 C38.66 35.639375 39.32 36.27875 40 36.9375 C42.05502754 39.05674715 42.59106845 40.13747914 43 43 C39.27382578 41.75794193 37.60708543 39.8889325 35 37 C35 36.34 35 35.68 35 35 C34.34 35 33.68 35 33 35 C32.9175 34.38125 32.835 33.7625 32.75 33.125 C32.18741541 30.81562433 32.18741541 30.81562433 29.9375 29.75 C29.298125 29.5025 28.65875 29.255 28 29 C28 28.34 28 27.68 28 27 C27.443125 26.938125 26.88625 26.87625 26.3125 26.8125 C21.58578076 25.15176081 18.68587783 20.64168767 15.5 16.9375 C12.88884471 13.90353182 10.14775225 11.48004723 7 9 C7 8.34 7 7.68 7 7 C6.01 7 5.02 7 4 7 C4 6.01 4 5.02 4 4 C2.68 3.34 1.36 2.68 0 2 C0 1.34 0 0.68 0 0 Z " fill="#7F53DA" transform="translate(220,281)"/>
<path d="M0 0 C-2.6853696 6.34723724 -7.5777651 10.58381347 -12.69140625 14.953125 C-18.70621522 20.28605208 -24.42510009 26.05861565 -29.625 32.1875 C-32.81221851 35.93035951 -36.36612904 39.12529566 -40.08203125 42.3359375 C-41.43264616 43.5077541 -42.73561976 44.73561976 -44 46 C-44.33 44.68 -44.66 43.36 -45 42 C-43.47005208 40.79557292 -41.94010417 39.59114583 -40.41015625 38.38671875 C-38.72844923 36.94316909 -38.72844923 36.94316909 -38 34 C-36.515 33.505 -36.515 33.505 -35 33 C-34.34 32.01 -33.68 31.02 -33 30 C-32.34 30 -31.68 30 -31 30 C-30.73832031 29.42121094 -30.47664062 28.84242188 -30.20703125 28.24609375 C-27.10789615 22.47909478 -21.81624857 17.40342726 -17 13 C-16.34 13 -15.68 13 -15 13 C-15 12.34 -15 11.68 -15 11 C-11.53846154 8 -11.53846154 8 -9 8 C-9 7.01 -9 6.02 -9 5 C-8.34 5 -7.68 5 -7 5 C-7 4.34 -7 3.68 -7 3 C-4.4385343 0.70351351 -3.52032428 0 0 0 Z " fill="#7A4BD5" transform="translate(276,346)"/>
<path d="M0 0 C1.12341797 0.12181641 1.12341797 0.12181641 2.26953125 0.24609375 C0.88075771 3.60229646 -0.6472484 5.31908103 -3.73046875 7.24609375 C-4.39046875 7.24609375 -5.05046875 7.24609375 -5.73046875 7.24609375 C-5.97796875 7.82359375 -6.22546875 8.40109375 -6.48046875 8.99609375 C-7.91346863 11.57549354 -9.51471551 13.30730967 -11.73046875 15.24609375 C-12.39046875 15.24609375 -13.05046875 15.24609375 -13.73046875 15.24609375 C-13.99085938 15.81972656 -14.25125 16.39335937 -14.51953125 16.984375 C-15.82385462 19.42051445 -17.30575033 21.33916161 -19.10546875 23.43359375 C-19.69070312 24.12839844 -20.2759375 24.82320313 -20.87890625 25.5390625 C-22.89462135 27.39743275 -24.10824237 27.69609288 -26.73046875 28.24609375 C-27.88055185 30.2128229 -27.88055185 30.2128229 -28.73046875 32.24609375 C-29.72046875 32.74109375 -29.72046875 32.74109375 -30.73046875 33.24609375 C-31.4375 31.48046875 -31.4375 31.48046875 -31.73046875 29.24609375 C-30.3671875 27.32421875 -30.3671875 27.32421875 -28.41796875 25.49609375 C-27.46470703 24.57570313 -27.46470703 24.57570313 -26.4921875 23.63671875 C-24.73046875 22.24609375 -24.73046875 22.24609375 -22.73046875 22.24609375 C-22.49585938 21.67246094 -22.26125 21.09882813 -22.01953125 20.5078125 C-20.43321848 17.72455464 -18.54477379 16.13162544 -16.10546875 14.05859375 C-11.79438759 10.31361416 -8.14852807 6.37963974 -4.6171875 1.8984375 C-2.73046875 0.24609375 -2.73046875 0.24609375 0 0 Z " fill="#8050D7" transform="translate(217.73046875,369.75390625)"/>
<path d="M0 0 C0 3 0 3 -1.375 4.6875 C-3 6 -3 6 -5 6 C-5.268125 6.556875 -5.53625 7.11375 -5.8125 7.6875 C-8.05609803 12.05661195 -10.26012849 15.74269255 -14 19 C-14.66 19 -15.32 19 -16 19 C-16.33 19.99 -16.66 20.98 -17 22 C-18.3153341 22.70151152 -19.65117592 23.36525925 -21 24 C-22.70921589 25.5412312 -22.70921589 25.5412312 -24 27 C-24.68139648 25.22998047 -24.68139648 25.22998047 -25 23 C-23.86352539 21.17236328 -23.86352539 21.17236328 -22.09765625 19.3203125 C-21.45376953 18.63839844 -20.80988281 17.95648438 -20.14648438 17.25390625 C-19.45876953 16.55136719 -18.77105469 15.84882813 -18.0625 15.125 C-17.40958984 14.43019531 -16.75667969 13.73539062 -16.08398438 13.01953125 C-11.3257526 8.05075824 -6.21075468 3.10537734 0 0 Z " fill="#8556E3" transform="translate(246,342)"/>
<path d="M0 0 C0 3 0 3 -2.375 5.6875 C-5 8 -5 8 -7 8 C-7.226875 8.556875 -7.45375 9.11375 -7.6875 9.6875 C-9.37028092 12.65239972 -11.56108512 14.616515 -14 17 C-15.5471723 18.83095013 -17.06791691 20.67903184 -18.5703125 22.546875 C-20 24 -20 24 -23 25 C-22.47461921 21.16698658 -21.6453708 19.13178632 -18.98046875 16.3359375 C-18.37009766 15.68882812 -17.75972656 15.04171875 -17.13085938 14.375 C-16.48955078 13.715 -15.84824219 13.055 -15.1875 12.375 C-14.55779297 11.70726562 -13.92808594 11.03953125 -13.27929688 10.3515625 C-9.2173344 6.08927239 -5.39423337 2.5044655 0 0 Z " fill="#8351D9" transform="translate(184,404)"/>
<path d="M0 0 C0 0.33 0 0.66 0 1 C4.95 1.33 9.9 1.66 15 2 C15 2.33 15 2.66 15 3 C8.07 3 1.14 3 -6 3 C-6 18.18 -6 33.36 -6 49 C-6.33 49 -6.66 49 -7 49 C-7.33 35.47 -7.66 21.94 -8 8 C-8.33 8 -8.66 8 -9 8 C-9 5.69 -9 3.38 -9 1 C-5.8035914 -0.06546953 -3.34252724 -0.07427838 0 0 Z " fill="#7A51D2" transform="translate(1058,197)"/>
<path d="M0 0 C3.73584906 1.47169811 3.73584906 1.47169811 5 4 C4.13375 4.020625 3.2675 4.04125 2.375 4.0625 C-1.85919242 5.23866456 -3.13876257 7.07786289 -5.703125 10.50390625 C-6.13109375 10.99761719 -6.5590625 11.49132812 -7 12 C-7.66 12 -8.32 12 -9 12 C-9.268125 12.598125 -9.53625 13.19625 -9.8125 13.8125 C-10.99917406 15.99847854 -12.09599113 17.41332594 -14 19 C-14.66 19 -15.32 19 -16 19 C-15.74033557 13.47434102 -12.3335861 10.83958997 -8.5625 7.25 C-7.96373047 6.66089844 -7.36496094 6.07179687 -6.74804688 5.46484375 C-2.33930416 1.16965208 -2.33930416 1.16965208 0 0 Z " fill="#774DCE" transform="translate(177,236)"/>
<path d="M0 0 C4.29475923 0.50482258 6.33731829 1.76917204 9.375 4.8125 C10.08398438 5.49957031 10.79296875 6.18664062 11.5234375 6.89453125 C13 9 13 9 12.88671875 11.18359375 C12 13 12 13 9.4375 14.25 C8.633125 14.4975 7.82875 14.745 7 15 C6.773125 14.195625 6.54625 13.39125 6.3125 12.5625 C4.66368412 8.08714261 2.39455588 4.11278682 0 0 Z " fill="#8056DD" transform="translate(269,330)"/>
<path d="M0 0 C7.92 0 15.84 0 24 0 C23.67 0.99 23.34 1.98 23 3 C15.41 3 7.82 3 0 3 C0 2.01 0 1.02 0 0 Z " fill="#6D42BF" transform="translate(1050,493)"/>
<path d="M0 0 C3.33435305 1.41856248 5.19565826 3.09931563 7.5 5.875 C8.40878906 6.94041016 8.40878906 6.94041016 9.3359375 8.02734375 C10.15964844 9.00380859 10.15964844 9.00380859 11 10 C13.90151528 13.32820871 15.57331854 14.5081465 20 15 C18 17 18 17 15.64453125 17.3671875 C12.18680105 16.88708907 11.06115156 15.63722632 8.6875 13.125 C7.99011719 12.40570313 7.29273438 11.68640625 6.57421875 10.9453125 C5 9 5 9 5 7 C4.34 7 3.68 7 3 7 C0.70351351 4.4385343 0 3.52032428 0 0 Z " fill="#6C42CE" transform="translate(162,427)"/>
<path d="M0 0 C-4.26497631 4.38492876 -8.65919429 8.53451455 -13.30078125 12.51953125 C-14.57729445 13.63171172 -15.80283014 14.80283014 -17 16 C-17.33 14.68 -17.66 13.36 -18 12 C-16.47005208 10.79557292 -14.94010417 9.59114583 -13.41015625 8.38671875 C-11.72844923 6.94316909 -11.72844923 6.94316909 -11 4 C-10.01 3.67 -9.02 3.34 -8 3 C-7.34 2.01 -6.68 1.02 -6 0 C-3 -1 -3 -1 0 0 Z " fill="#7E47DC" transform="translate(249,376)"/>
<path d="M0 0 C4.92784505 0.417313 6.9777145 2.54985927 10.3125 6.0625 C11.19550781 6.98160156 12.07851563 7.90070313 12.98828125 8.84765625 C13.65214844 9.55792969 14.31601562 10.26820313 15 11 C14.67 11.66 14.34 12.32 14 13 C9.56090219 11.60485497 7.01975019 9.52304189 4 6 C3.375 3.8125 3.375 3.8125 3 2 C2.01 1.34 1.02 0.68 0 0 Z " fill="#8651DD" transform="translate(258,318)"/>
<path d="M0 0 C0.66 0.33 1.32 0.66 2 1 C0.37660195 2.70884005 -1.29319053 4.37446717 -3 6 C-3.66 6 -4.32 6 -5 6 C-5.226875 6.7425 -5.45375 7.485 -5.6875 8.25 C-7.24407532 11.51139591 -9.08518854 12.92894975 -12 15 C-12.6640625 13.2265625 -12.6640625 13.2265625 -13 11 C-10.45323656 6.46178244 -6.96697965 3.51768823 -2 2 C-1.34 1.34 -0.68 0.68 0 0 Z " fill="#7F4FD5" transform="translate(234,354)"/>
<path d="M0 0 C0.66 0 1.32 0 2 0 C1.64950425 3.24208567 1.43778819 4.61527704 -1.0625 6.8125 C-1.701875 7.204375 -2.34125 7.59625 -3 8 C-3.33 6.68 -3.66 5.36 -4 4 C-4 4.66 -4 5.32 -4 6 C-4.639375 6.103125 -5.27875 6.20625 -5.9375 6.3125 C-6.618125 6.539375 -7.29875 6.76625 -8 7 C-8.33 7.99 -8.66 8.98 -9 10 C-9.66 10 -10.32 10 -11 10 C-10.8125 8.1875 -10.8125 8.1875 -10 6 C-6.65188866 3.46629412 -5.29875783 3 -1 3 C-0.67 2.01 -0.34 1.02 0 0 Z " fill="#8658E6" transform="translate(230,389)"/>
<path d="M0 0 C0 3 0 3 -1.375 4.6875 C-3 6 -3 6 -5 6 C-5.268125 6.639375 -5.53625 7.27875 -5.8125 7.9375 C-7 10 -7 10 -10 11 C-10 10.34 -10 9.68 -10 9 C-9.34 8.67 -8.68 8.34 -8 8 C-8 7.01 -8 6.02 -8 5 C-6.25 3.61328125 -6.25 3.61328125 -4 2.3125 C-3.2575 1.87550781 -2.515 1.43851562 -1.75 0.98828125 C-0.88375 0.49908203 -0.88375 0.49908203 0 0 Z " fill="#734BD7" transform="translate(246,342)"/>
<path d="M0 0 C0 0.33 0 0.66 0 1 C4.95 1.33 9.9 1.66 15 2 C15 2.33 15 2.66 15 3 C7.08 3 -0.84 3 -9 3 C-9 2.34 -9 1.68 -9 1 C-5.8035914 -0.06546953 -3.34252724 -0.07427838 0 0 Z " fill="#6A46B7" transform="translate(1058,197)"/>
<path d="M0 0 C4.6460097 2.80921516 7.86216434 5.53096133 11 10 C10.67 10.99 10.34 11.98 10 13 C8.88625 11.8553125 8.88625 11.8553125 7.75 10.6875 C5.21089545 8.04047915 5.21089545 8.04047915 2.75 6.5 C0.45012455 4.52867818 0.31841635 2.9453512 0 0 Z " fill="#6B3CD4" transform="translate(197,289)"/>
<path d="M0 0 C1.98 0.99 1.98 0.99 4 2 C4 2.66 4 3.32 4 4 C4.66 4 5.32 4 6 4 C6.66 6.31 7.32 8.62 8 11 C1.29540481 5.9059081 1.29540481 5.9059081 0.0625 2.125 C0.041875 1.42375 0.02125 0.7225 0 0 Z " fill="#784FDE" transform="translate(190,282)"/>
<path d="M0 0 C3.875 1.75 3.875 1.75 5 4 C4.030625 4.12375 3.06125 4.2475 2.0625 4.375 C0.5465625 4.684375 0.5465625 4.684375 -1 5 C-1.33 5.66 -1.66 6.32 -2 7 C-2.66 7 -3.32 7 -4 7 C-4.33 6.01 -4.66 5.02 -5 4 C-3.35 2.68 -1.7 1.36 0 0 Z " fill="#6F4EBF" transform="translate(177,236)"/>
<path d="M0 0 C-2.31 2.31 -4.62 4.62 -7 7 C-7.99 6.34 -8.98 5.68 -10 5 C-5.03424658 -1.67808219 -5.03424658 -1.67808219 0 0 Z " fill="#6846E0" transform="translate(249,376)"/>
<path d="M0 0 C4.52615993 3.67832017 8.39424999 7.41086363 12 12 C9.05043472 10.63055898 6.47531189 9.12169591 4 7 C4 6.34 4 5.68 4 5 C2.68 4.67 1.36 4.34 0 4 C0 2.68 0 1.36 0 0 Z " fill="#7C52D3" transform="translate(208,268)"/>
<path d="M0 0 C0 3 0 3 -2.375 5.6875 C-5 8 -5 8 -7 8 C-7.33 8.99 -7.66 9.98 -8 11 C-8.66 10.67 -9.32 10.34 -10 10 C-9.09373216 8.7010161 -8.17450463 7.41106833 -7.25 6.125 C-6.73953125 5.40570313 -6.2290625 4.68640625 -5.703125 3.9453125 C-3.92496453 1.91429435 -2.47298393 1.02144988 0 0 Z " fill="#7E52CB" transform="translate(184,404)"/>
<path d="M0 0 C4.875 2.75 4.875 2.75 6 5 C5.01 6.485 5.01 6.485 4 8 C2.35 6.35 0.7 4.7 -1 3 C-0.67 2.01 -0.34 1.02 0 0 Z " fill="#7851DC" transform="translate(208,300)"/>
<path d="M0 0 C3.1875 -0.3125 3.1875 -0.3125 7 0 C9.9375 2.5 9.9375 2.5 12 5 C6.25 4.25 6.25 4.25 4 2 C2.68252676 1.30251417 1.35085807 0.63040043 0 0 Z " fill="#7952D5" transform="translate(176,240)"/>
<path d="M0 0 C3.40312738 1.05875074 6.01353231 2.00902154 9 4 C6.69 4.33 4.38 4.66 2 5 C1.01 3.68 0.02 2.36 -1 1 C-0.67 0.67 -0.34 0.34 0 0 Z " fill="#5E35C0" transform="translate(173,439)"/>
<path d="M0 0 C0.33 0.99 0.66 1.98 1 3 C-1.80804268 5.96404505 -4.18315774 8.44499019 -8 10 C-6.34908222 5.70761377 -3.26245434 3.1206085 0 0 Z " fill="#7F53E0" transform="translate(170,242)"/>
<path d="M0 0 C0.33 0.99 0.66 1.98 1 3 C-1.3125 6.1875 -1.3125 6.1875 -4 9 C-4.66 9 -5.32 9 -6 9 C-5.52797514 4.75177626 -3.03344482 2.80010291 0 0 Z " fill="#7043D7" transform="translate(193,427)"/>
<path d="M0 0 C6.0546875 -0.1953125 6.0546875 -0.1953125 8 0 C8.66 0.66 9.32 1.32 10 2 C6.52674819 3.1577506 3.63932552 3.06866652 0 3 C0 2.01 0 1.02 0 0 Z " fill="#151515" transform="translate(987,247)"/>
<path d="M0 0 C0.99 0.33 1.98 0.66 3 1 C2.375 3.375 2.375 3.375 1 6 C-2.125 7.3125 -2.125 7.3125 -5 8 C-4.360625 7.236875 -3.72125 6.47375 -3.0625 5.6875 C-0.85767219 3.11753287 -0.85767219 3.11753287 0 0 Z " fill="#7F53DC" transform="translate(202,415)"/>
<path d="M0 0 C0.66 0 1.32 0 2 0 C1.64950425 3.24208567 1.43778819 4.61527704 -1.0625 6.8125 C-1.701875 7.204375 -2.34125 7.59625 -3 8 C-2.45276317 4.62537285 -1.9451 2.91765 0 0 Z " fill="#7754E1" transform="translate(230,389)"/>
<path d="M0 0 C0.66 0.33 1.32 0.66 2 1 C0.37660195 2.70884005 -1.29319053 4.37446717 -3 6 C-3.66 6 -4.32 6 -5 6 C-5.33 6.99 -5.66 7.98 -6 9 C-7 6 -7 6 -7 4 C-5.824375 3.566875 -5.824375 3.566875 -4.625 3.125 C-1.90328368 2.15087746 -1.90328368 2.15087746 0 0 Z " fill="#764DCC" transform="translate(234,354)"/>
<path d="M0 0 C0.99 0.33 1.98 0.66 3 1 C3.33 2.65 3.66 4.3 4 6 C3.01 6.495 3.01 6.495 2 7 C1.34 6.34 0.68 5.68 0 5 C0.33 4.34 0.66 3.68 1 3 C-0.32 3.33 -1.64 3.66 -3 4 C-2.01 2.68 -1.02 1.36 0 0 Z " fill="#934BED" transform="translate(245,340)"/>
<path d="M0 0 C0.66 0.33 1.32 0.66 2 1 C-2.625 5.875 -2.625 5.875 -6 7 C-5.34 5.35 -4.68 3.7 -4 2 C-2.68 2 -1.36 2 0 2 C0 1.34 0 0.68 0 0 Z " fill="#7748DF" transform="translate(209,412)"/>
<path d="M0 0 C0 3 0 3 -2 5.1875 C-2.66 5.785625 -3.32 6.38375 -4 7 C-4.99 6.67 -5.98 6.34 -7 6 C-6.67 5.01 -6.34 4.02 -6 3 C-3.5 1.875 -3.5 1.875 -1 1 C-0.67 0.67 -0.34 0.34 0 0 Z " fill="#7A55CB" transform="translate(203,385)"/>
<path d="M0 0 C1.485 0.99 1.485 0.99 3 2 C3.1875 4.625 3.1875 4.625 3 7 C1.68 7.33 0.36 7.66 -1 8 C-0.67 5.36 -0.34 2.72 0 0 Z " fill="#744FC9" transform="translate(277,337)"/>
<path d="M0 0 C2.31 1.98 4.62 3.96 7 6 C6.34 6.66 5.68 7.32 5 8 C2.5 5.6875 2.5 5.6875 0 3 C0 2.01 0 1.02 0 0 Z " fill="#8754EE" transform="translate(264,321)"/>
<path d="M0 0 C0.66 0.33 1.32 0.66 2 1 C1.67 2.32 1.34 3.64 1 5 C-0.65 5.33 -2.3 5.66 -4 6 C-1.125 1.125 -1.125 1.125 0 0 Z " fill="#8E50E2" transform="translate(185,400)"/>
<path d="M0 0 C0.66 0.33 1.32 0.66 2 1 C0.35 2.65 -1.3 4.3 -3 6 C-3.33 4.68 -3.66 3.36 -4 2 C-2.125 0.9375 -2.125 0.9375 0 0 Z " fill="#7C4ECF" transform="translate(190,397)"/>
<path d="M0 0 C1.875 0.3125 1.875 0.3125 4 1 C4.66 1.99 5.32 2.98 6 4 C4.68 4 3.36 4 2 4 C1.34 2.68 0.68 1.36 0 0 Z " fill="#7046DF" transform="translate(168,435)"/>
<path d="M0 0 C0.99 0.33 1.98 0.66 3 1 C2.38125 1.2475 1.7625 1.495 1.125 1.75 C-1.37818306 3.22246063 -1.83045281 4.41028837 -3 7 C-3.99 7.495 -3.99 7.495 -5 8 C-3.62845496 5.04590299 -2.01136276 2.55991624 0 0 Z " fill="#8357DF" transform="translate(190,427)"/>
<path d="M0 0 C3.91402949 1.26941497 5.79072873 2.51167694 8 6 C4.65750371 5.40312566 2.53563658 4.26396123 0 2 C0 1.34 0 0.68 0 0 Z " fill="#8554E2" transform="translate(245,304)"/>
</svg>
