<?xml version="1.0" encoding="UTF-8"?>
<svg version="1.1" xmlns="http://www.w3.org/2000/svg" width="1280" height="1220">
<path d="M0 0 C1.76853584 -0.00855011 1.76853584 -0.00855011 3.57279968 -0.01727295 C6.06130083 -0.02667681 8.54981417 -0.03323846 11.03833008 -0.03710938 C14.77513461 -0.04674839 18.51137256 -0.07778982 22.24804688 -0.109375 C36.61155934 -0.17346905 50.38252526 0.5865855 64.51171875 3.203125 C65.73834229 3.42226563 66.96496582 3.64140625 68.22875977 3.8671875 C92.71931781 8.51855842 116.0970094 16.34826575 138.51171875 27.203125 C139.84873121 27.83251396 141.18596199 28.4614394 142.5234375 29.08984375 C184.15583791 48.96568711 224.33529056 80.50824177 252.51171875 117.203125 C253.92592519 118.89268732 255.34271878 120.58008658 256.76171875 122.265625 C315.84501023 194.762974 344.57285477 287.6349694 356.51171875 401.203125 C353.65283802 402.63256536 351.87865574 401.52155034 348.978302 400.56427002 C348.21202484 400.30329529 347.44574768 400.04232056 346.65625 399.7734375 C345.85468475 399.50762878 345.05311951 399.24182007 344.2272644 398.96795654 C342.49521886 398.39346958 340.76417535 397.81595472 339.0340271 397.23577881 C334.48322907 395.71148313 329.92390987 394.21333676 325.36328125 392.71875 C324.44538315 392.41786469 323.52748505 392.11697937 322.58177185 391.80697632 C314.16822293 389.0637649 305.70531314 386.51750104 297.19921875 384.078125 C295.96985596 383.72508301 294.74049316 383.37204102 293.47387695 383.00830078 C286.5003426 381.02223199 279.51162296 379.09403127 272.51171875 377.203125 C272.42535156 376.15640625 272.33898437 375.1096875 272.25 374.03125 C268.21505345 329.12341288 255.06894138 285.17650625 236.51171875 244.203125 C236.04008301 243.15817871 235.56844727 242.11323242 235.08251953 241.03662109 C219.87077009 207.64082983 200.41252988 176.6886105 175.6328125 149.546875 C173.69340372 147.40388188 171.81842576 145.21967862 169.94921875 143.015625 C167.1355476 139.7990873 164.1615712 136.97417468 160.89453125 134.22265625 C159.11107137 132.71110091 157.3610014 131.15999505 155.62890625 129.58984375 C125.89291344 102.8410283 89.09061909 86.1764937 49.51171875 81.203125 C48.56941406 81.07164063 47.62710937 80.94015625 46.65625 80.8046875 C-12.22955126 73.87694617 -81.08267657 94.93759932 -129.48828125 128.203125 C-130.01695801 128.56341797 -130.54563477 128.92371094 -131.09033203 129.29492188 C-149.29784171 141.76169865 -166.25064424 156.45105405 -179.48828125 174.203125 C-180.60571813 175.65575832 -181.72432727 177.10749021 -182.84375 178.55859375 C-196.13971808 195.90551522 -207.92481814 214.07238534 -218.48828125 233.203125 C-218.97151855 234.07775391 -219.45475586 234.95238281 -219.95263672 235.85351562 C-265.44412368 318.93136294 -276.80189765 412.83467034 -251.70532227 636.2824707 C-238.96150846 679.71310504 -221.85211279 721.35239559 -200.171875 761.10546875 C-198.41759931 764.33530342 -196.91350822 767.53101903 -195.5859375 770.95703125 C-193.12007922 776.9179485 -193.12007922 776.9179485 -188.48828125 781.203125 C-181.56104861 782.765628 -174.36055492 781.83459586 -167.34765625 781.32470703 C-145.5722265 780.39880505 -125.0334474 793.55659752 -109.203125 807.16796875 C-94.68227569 820.82276343 -83.48900969 842.25561627 -82.3112793 862.20068359 C-81.76988955 890.03803864 -81.76988955 890.03803864 -86.48828125 903.203125 C-86.85050781 904.24855469 -87.21273438 905.29398438 -87.5859375 906.37109375 C-92.25013625 918.59287555 -99.40906894 928.87629781 -108.48828125 938.203125 C-109.07351563 938.83863281 -109.65875 939.47414063 -110.26171875 940.12890625 C-124.67064755 955.38342946 -146.87792562 964.81027845 -167.7109375 965.40625 C-178.6942961 965.55443296 -188.92092488 965.4890874 -199.48828125 962.203125 C-200.11750488 962.00976562 -200.74672852 961.81640625 -201.39501953 961.6171875 C-216.34571813 956.89476357 -228.22143285 949.12361459 -239.48828125 938.203125 C-240.08769531 937.6771875 -240.68710937 937.15125 -241.3046875 936.609375 C-256.65900321 922.64442892 -265.44937965 900.1192772 -266.63061523 879.74853516 C-267.24013455 862.61065122 -265.82151552 848.3182681 -257.46484375 833.0703125 C-256.14116093 829.18397975 -256.76575284 827.93453566 -258.48828125 824.203125 C-260.35086451 820.5562699 -262.31618031 816.9722773 -264.30078125 813.390625 C-265.48329273 811.22869632 -266.6642353 809.06590888 -267.84375 806.90234375 C-268.75133057 805.23824463 -268.75133057 805.23824463 -269.67724609 803.54052734 C-311.13936528 727.1335215 -339.36209846 643.42121906 -355.48828125 519.203125 C-355.61746948 517.56476685 -355.61746948 517.56476685 -355.74926758 515.89331055 C-356.67205302 502.73683884 -356.67438952 489.5808996 -356.67358398 476.39672852 C-356.67346351 472.43693352 -356.69393032 468.47732766 -356.71289062 464.51757812 C-356.76682596 440.74190314 -355.33035953 417.20603542 -352.17578125 393.640625 C-352.06812439 392.82071075 -351.96046753 392.00079651 -351.84954834 391.15603638 C-344.29834792 333.83292937 -328.86218468 277.13169348 -305.48828125 224.203125 C-305.09576172 223.30899902 -304.70324219 222.41487305 -304.29882812 221.49365234 C-287.34588898 183.25984119 -263.4298226 147.33460254 -234.890625 116.7890625 C-232.92653433 114.67487059 -231.03877776 112.5302705 -229.17578125 110.328125 C-221.35162572 101.3133371 -212.63524711 92.86264034 -203.48828125 85.203125 C-202.56144531 84.39875 -201.63460937 83.594375 -200.6796875 82.765625 C-181.1970065 65.91277035 -159.96037633 51.74197288 -137.48828125 39.203125 C-136.80507813 38.81560059 -136.121875 38.42807617 -135.41796875 38.02880859 C-95.19194246 15.28335696 -46.4653403 0.17831387 0 0 Z " fill="#7549BB" transform="translate(611.48828125,-0.203125)"/>
<path d="M0 0 C9.72049149 7.79649465 17.8737409 17.13083062 24 28 C24 28.66 24 29.32 24 30 C24.55454865 29.99555878 25.10909729 29.99111755 25.68045044 29.98654175 C111.09045136 29.33550284 194.31708784 37.68208791 449 149 C449.77214844 149.54543457 450.54429687 150.09086914 451.33984375 150.65283203 C461.45501146 157.82054759 471.34416349 165.22509104 481 173 C481.9178125 173.73476563 482.835625 174.46953125 483.78125 175.2265625 C489.05923457 179.49552061 494.23439998 183.8798789 499.375 188.3125 C500.22082642 189.03928955 500.22082642 189.03928955 501.08374023 189.78076172 C512.75123911 199.90223978 523.79336791 210.63101909 534.6953125 221.56494141 C536.88948502 223.76452072 539.08901723 225.95864007 541.2890625 228.15234375 C542.71125856 229.5752 544.13314471 230.99836609 545.5546875 232.421875 C546.19961151 233.06477478 546.84453552 233.70767456 547.50900269 234.37005615 C551.86942007 238.75270716 555.97474959 243.3089533 560 248 C560.95005161 249.0941576 561.90048953 250.18798007 562.8515625 251.28125 C623.07023635 321.00643944 670.68583359 409.72510971 671.23828125 503.9921875 C671.24235678 504.65415257 671.2464323 505.31611763 671.25063133 505.99814224 C671.27138163 509.51877764 671.28571684 513.03937563 671.29516602 516.56005859 C671.30391748 519.40468486 671.3245445 522.24880521 671.35668945 525.09326172 C671.83343606 568.27990574 664.02724133 610.9531236 645 650 C644.7019043 650.62068359 644.40380859 651.24136719 644.09667969 651.88085938 C633.87245638 672.91547977 619.58299548 692.19325468 603.609375 709.203125 C601.22522271 711.75859362 598.92257894 714.36700808 596.625 717 C591.14350261 723.0959713 585.12501508 728.56373441 579 734 C578.48985352 734.45487793 577.97970703 734.90975586 577.45410156 735.37841797 C522.25640905 784.27035467 450.46338686 813.50430528 377.6875 822.3125 C377.01538483 822.39399292 376.34326965 822.47548584 375.65078735 822.55944824 C359.63387598 824.46687403 343.7369505 825.20948444 327.625 825.1875 C326.79751251 825.18689575 325.97002502 825.1862915 325.11746216 825.18566895 C310.66786254 825.15723065 296.3707428 824.59922401 282 823 C280.90623047 822.88172852 279.81246094 822.76345703 278.68554688 822.64160156 C246.81082329 819.06456948 215.54252887 811.68772159 185 802 C183.9078418 801.65388672 182.81568359 801.30777344 181.69042969 800.95117188 C159.30181591 793.74579816 137.43001848 784.67576085 116 775 C116 774.01 116 773.02 116 772 C117.765625 770.4921875 117.765625 770.4921875 120.25 768.875 C140.8135156 755.06971846 160.09346568 738.93595816 178.81640625 722.75390625 C179.33992676 722.31449707 179.86344727 721.87508789 180.40283203 721.42236328 C182.06064984 719.99377044 182.06064984 719.99377044 183.64013672 718.21435547 C185.36895049 716.43488413 186.78175653 715.11884335 189 714 C192.3261082 714.25694435 195.01229718 715.58123387 198 717 C199.46902011 717.58473975 200.94174351 718.16025896 202.41796875 718.7265625 C203.18133545 719.03158691 203.94470215 719.33661133 204.73120117 719.65087891 C236.93400895 732.42189601 270.78901151 740.04411006 305 745 C305.90975586 745.13422363 306.81951172 745.26844727 307.75683594 745.40673828 C336.58154227 749.43313636 368.34158034 748.90416715 397 744 C397.96035156 743.8443457 398.92070313 743.68869141 399.91015625 743.52832031 C431.94347635 738.18587911 463.11831458 726.26201455 490 708 C490.59039063 707.60490234 491.18078125 707.20980469 491.7890625 706.80273438 C511.05989063 693.83524981 528.9464107 677.51022302 543 659 C543.63301025 658.17363037 543.63301025 658.17363037 544.27880859 657.33056641 C551.45949598 647.91898585 557.94763111 638.17103425 564 628 C564.39461426 627.3385498 564.78922852 626.67709961 565.19580078 625.99560547 C595.77614045 574.31319072 600.42809758 514.90945022 585.87988281 457.28710938 C581.34962077 440.36273419 574.96454825 424.0533535 568 408 C567.58379395 407.03594238 567.16758789 406.07188477 566.73876953 405.07861328 C544.9084386 354.9189707 512.53562212 311.58745497 474.125 273 C473.09113159 271.95912231 473.09113159 271.95912231 472.03637695 270.8972168 C467.52000686 266.39497904 462.83375535 262.15720533 458 258 C456.95192204 257.07427684 455.90497172 256.14727478 454.859375 255.21875 C445.00709637 246.5632706 434.57158028 238.75011122 424 231 C423.0409375 230.29230469 423.0409375 230.29230469 422.0625 229.5703125 C348.46564708 175.35834495 262.03433363 139.12165631 132.5 115.1875 C131.67590637 115.08813141 130.85181274 114.98876282 130.00274658 114.88638306 C104.6378024 111.8746095 79.27932672 110.69119344 53.75 110.375 C51.13149974 110.33665988 48.51300992 110.29760007 45.89453125 110.2578125 C39.59644943 110.16363282 33.2983004 110.07812796 27 110 C26.87109375 110.75901611 26.7421875 111.51803223 26.609375 112.30004883 C25.79766231 115.89649538 23.99987551 118.64867393 22 121.6875 C21.59773193 122.30326904 21.19546387 122.91903809 20.78100586 123.5534668 C17.01502724 129.18960032 12.79167544 134.20016157 8 139 C7.25363281 139.75796875 6.50726562 140.5159375 5.73828125 141.296875 C-10.83108212 157.18155393 -32.93577784 165.43858581 -55.75 165.3125 C-57.33325073 165.30512817 -57.33325073 165.30512817 -58.94848633 165.29760742 C-82.20028848 164.94955327 -102.83173322 155.36995406 -120 140 C-120.63292969 139.44957031 -121.26585937 138.89914062 -121.91796875 138.33203125 C-138.01526571 123.41348372 -147.30337273 100.5916081 -148.2578125 78.984375 C-149.02898043 52.01498508 -141.00438204 28.36670835 -122.47827148 8.3671875 C-90.06440282 -24.9734184 -36.63688388 -27.96110254 0 0 Z " fill="#7549BB" transform="translate(609,391)"/>
<path d="M0 0 C0.20979492 0.95624268 0.41958984 1.91248535 0.63574219 2.89770508 C1.65903275 7.53931939 2.70150666 12.17651955 3.75 16.8125 C4.0396312 18.09563583 4.0396312 18.09563583 4.33511353 19.4046936 C6.7463757 30.02067326 9.36041797 40.55172449 12.33984375 51.0234375 C12.75748489 52.4924778 12.75748489 52.4924778 13.18356323 53.99119568 C14.55205678 58.77957894 15.94524284 63.55960833 17.36425781 68.33325195 C17.87189356 70.08019766 18.37938784 71.82718449 18.88671875 73.57421875 C19.13099106 74.37044647 19.37526337 75.16667419 19.62693787 75.98703003 C21.18064657 81.39035672 21.18064657 81.39035672 20.29125977 84.3918457 C18.2749187 86.90302714 15.8443606 88.60168736 13.25 90.5 C1.13505243 99.50456707 -9.89693121 109.56041201 -20.5246582 120.26391602 C-22.32215805 122.07221608 -24.13022316 123.86945977 -25.93945312 125.66601562 C-32.75276667 132.47160169 -39.03024979 139.43457445 -45 147 C-45.8629301 148.02793482 -46.73133544 149.0513472 -47.609375 150.06640625 C-93.68430356 203.79246346 -123.57654009 275.95049049 -118.48681641 347.32202148 C-113.70638094 406.42693127 -86.19116124 467.26632319 -40.984375 506.5703125 C-7.99279193 533.42995212 30.13184794 550.45757555 72 558 C73.00289063 558.18401367 74.00578125 558.36802734 75.0390625 558.55761719 C155.32312734 572.96951229 239.24834918 560.53077363 314 529 C315.31701904 528.44626709 315.31701904 528.44626709 316.66064453 527.88134766 C340.42183584 517.77990352 363.32239216 505.75355223 385.45800781 492.50146484 C388.38413073 490.77310757 391.34691512 489.12383507 394.32714844 487.49121094 C404.57263647 481.87674594 414.29069912 475.48769967 424 469 C425.35134033 468.09773682 425.35134033 468.09773682 426.72998047 467.17724609 C444.85840793 455.03295973 462.45531386 442.35392766 479.26318359 428.43261719 C481.76234405 426.37117868 484.29045371 424.34583293 486.8125 422.3125 C491.41773356 418.54395302 495.82873534 414.59211696 500.19921875 410.5546875 C501.65498273 409.22683583 503.11496713 407.90245581 504.61743164 406.62768555 C511.14162951 401.07877673 517.14027717 395.01063017 523.18188477 388.94848633 C525.05829475 387.06671726 526.93998969 385.19035262 528.82226562 383.31445312 C534.76077303 377.37958424 540.5952998 371.43232198 546 365 C546.98400209 363.86963346 547.96965611 362.74070263 548.95703125 361.61328125 C555.09047631 354.54363424 560.99798175 347.35800811 566.60595703 339.86230469 C567.59571423 338.54008613 568.58927569 337.22071149 569.58544922 335.90332031 C588.39146431 311.01316585 604.18316678 284.41857013 619 257 C618.61908203 256.49863525 618.23816406 255.99727051 617.84570312 255.48071289 C600.35945486 232.33763057 590.59483454 207.39066728 594.47265625 177.96484375 C598.00195165 157.86688015 606.84258202 141.60560439 621 127 C621.53753906 126.38898438 622.07507813 125.77796875 622.62890625 125.1484375 C634.65011178 111.95222692 653.75130857 103.99456448 671 101 C671.70125 100.86980469 672.4025 100.73960937 673.125 100.60546875 C696.15827656 97.00651929 721.02943325 103.67525328 740 117 C744.2965527 120.36769841 748.14759806 124.14167129 752 128 C752.65226563 128.58136719 753.30453125 129.16273438 753.9765625 129.76171875 C767.4570606 141.98034374 775.84200084 162.30025692 778 180 C779.41662177 209.55106483 773.06565837 234.63591167 753 257 C752.12214844 257.98419922 752.12214844 257.98419922 751.2265625 258.98828125 C740.05437327 270.81611539 723.74607314 279.33559127 708 283 C707.15268311 283.01780518 706.30536621 283.03561035 705.43237305 283.05395508 C702.21228925 283.2539139 699.94132112 283.64524181 697 285 C694.06068071 288.63684211 692.14769703 292.61861852 690.24719238 296.85632324 C688.64379418 300.42643373 686.90539788 303.93125602 685.19140625 307.44921875 C684.67349014 308.52745407 684.67349014 308.52745407 684.14511108 309.62747192 C680.71394644 316.72913363 676.81572544 323.49623194 672.75 330.25 C671.75057373 331.91337402 671.75057373 331.91337402 670.73095703 333.61035156 C668.83306157 336.7480429 666.92087758 339.87633471 665 343 C664.1644458 344.3610083 664.1644458 344.3610083 663.31201172 345.74951172 C647.03398546 372.14967353 628.79046429 397.3272042 608.62890625 420.8984375 C606.1327295 423.824486 603.72073366 426.81356752 601.3125 429.8125 C598.11831705 433.74117422 594.78945732 437.37089272 591.1171875 440.85546875 C589.32613744 442.66965045 587.68866083 444.51643602 586.03515625 446.453125 C581.3512687 451.84644712 576.28797268 456.86175679 571.23022461 461.90014648 C569.56573723 463.5592732 567.90666553 465.22368051 566.24804688 466.88867188 C560.66971203 472.47049823 555.00544972 477.87592311 549 483 C547.22429779 484.61967817 545.45291693 486.24411718 543.6875 487.875 C538.2850248 492.79577302 532.69762419 497.4270049 527 502 C525.86801214 502.92389449 524.73652513 503.8484029 523.60546875 504.7734375 C499.6830947 524.25086339 473.74622593 541.64441185 447 557 C446.26587891 557.42152344 445.53175781 557.84304688 444.77539062 558.27734375 C439.55508587 561.25639767 434.28827103 564.14368742 429 567 C427.75138184 567.6796582 427.75138184 567.6796582 426.47753906 568.37304688 C380.96635363 593.0496212 332.07786635 611.10444213 282 624 C280.33396729 624.4319165 280.33396729 624.4319165 278.63427734 624.87255859 C189.16134587 647.84551499 99.94871345 652.9806359 -55.75 593.375 C-72.91647059 583.06699742 -88.56207328 571.18513465 -103.21875 557.55859375 C-105.50117896 555.45888734 -107.81747882 553.43602977 -110.1875 551.4375 C-114.8906022 547.34531623 -118.93190298 542.71221239 -123 538 C-123.7940625 537.09378906 -124.588125 536.18757813 -125.40625 535.25390625 C-163.51691287 490.81156679 -182.17570054 433.15540692 -190 376 C-190.13657516 375.04764465 -190.13657516 375.04764465 -190.27590942 374.0760498 C-191.19485258 366.96845905 -191.17978292 359.86860529 -191.203125 352.7109375 C-191.20595238 352.03078205 -191.20877975 351.3506266 -191.21169281 350.64986038 C-191.22661657 347.03772865 -191.23588435 343.42563602 -191.24023438 339.81347656 C-191.24458577 336.87942847 -191.25835609 333.94567995 -191.28125 331.01171875 C-191.41545498 313.45435165 -190.89452627 296.36715761 -188 279 C-187.81179687 277.75154297 -187.62359375 276.50308594 -187.4296875 275.21679688 C-182.10859686 240.69206423 -170.9860827 207.4871864 -156 176 C-155.61231445 175.18080078 -155.22462891 174.36160156 -154.82519531 173.51757812 C-146.57931344 156.21540829 -136.92581677 139.7502034 -126 124 C-125.57283691 123.37593262 -125.14567383 122.75186523 -124.70556641 122.10888672 C-117.75968384 111.97132645 -110.41944642 102.27758722 -102.54199219 92.84619141 C-101.09641356 91.11543372 -99.66068306 89.37697087 -98.2265625 87.63671875 C-87.85639146 75.12956055 -76.58699419 63.50405288 -65.125 52 C-64.24537598 51.11570312 -63.36575195 50.23140625 -62.45947266 49.3203125 C-57.46577657 44.33891849 -52.35786399 39.58479672 -47 35 C-45.84325976 33.97858871 -44.688271 32.95519 -43.53515625 31.9296875 C-34.97541588 24.37704739 -26.11985592 17.33150465 -16.98193359 10.49267578 C-15.09604445 9.07233503 -13.22718631 7.63261135 -11.36328125 6.18359375 C-10.8118042 5.75852539 -10.26032715 5.33345703 -9.69213867 4.89550781 C-8.23263207 3.77046674 -6.77634167 2.6412567 -5.3203125 1.51171875 C-3 0 -3 0 0 0 Z " fill="#7549BB" transform="translate(191,565)"/>
</svg>
