<?xml version="1.0" encoding="UTF-8"?>
<svg version="1.1" xmlns="http://www.w3.org/2000/svg" width="600" height="327">
<path d="M0 0 C2.27455645 2.85547875 3.93034657 5.68281607 5.48046875 8.984375 C5.92197266 9.91894531 6.36347656 10.85351562 6.81835938 11.81640625 C7.27017578 12.78449219 7.72199219 13.75257812 8.1875 14.75 C8.65091797 15.73355469 9.11433594 16.71710937 9.59179688 17.73046875 C10.73192565 20.15177315 11.86783065 22.57496629 13 25 C16.41758811 25 17.95758161 24.1865986 21 22.6875 C36.919141 15.2445109 55.19454655 13.29127726 72 19 C84.40975664 24.46351624 91.92820963 31.85641926 98 44 C100.58535056 42.5660323 103.16828628 41.12798906 105.75 39.6875 C106.47960937 39.28337891 107.20921875 38.87925781 107.9609375 38.46289062 C111.48124399 36.49471927 114.85961421 34.5536295 118 32 C121.33402263 33.02641308 122.01963773 34.03636118 123.7109375 37.16796875 C124.2797131 38.50189297 124.83358361 39.84223877 125.375 41.1875 C125.67027588 41.89277832 125.96555176 42.59805664 126.26977539 43.32470703 C127.19390575 45.54429877 128.09778341 47.77142298 129 50 C129.59458347 51.44159962 130.18962396 52.88301084 130.78515625 54.32421875 C131.33730048 55.67392239 131.8881361 57.0241623 132.4375 58.375 C132.69644043 59.01074951 132.95538086 59.64649902 133.22216797 60.30151367 C135 64.76073616 135 64.76073616 135 67 C131.09461576 68.30179475 127.38082789 68.1447332 123.3125 68.125 C122.53455078 68.12886719 121.75660156 68.13273437 120.95507812 68.13671875 C117.11451833 68.13031248 113.41015252 67.97109983 109.60546875 67.4296875 C106.05076595 66.74626018 106.05076595 66.74626018 103 68 C103.185625 68.680625 103.37125 69.36125 103.5625 70.0625 C104.08523943 73.57232191 103.61378577 76.52188063 103 80 C115.0255764 84.15429003 127.06063074 87.79027461 139.5625 90.1875 C140.36333008 90.34210693 141.16416016 90.49671387 141.98925781 90.65600586 C155.78747564 93.18512962 169.30036141 94.37385751 183.3125 94.3125 C184.45413605 94.3122583 184.45413605 94.3122583 185.61883545 94.31201172 C196.00414274 94.29676363 205.99853311 93.79246451 216.1953125 91.65625 C226.40072746 89.89597309 235.94580054 91.30970968 244.9375 96.625 C249.5488757 100.02155092 251.79130532 103.39677961 253 109 C256.9525279 145.44646777 225.41242438 184.85347173 204 212 C197.90335659 219.53352197 191.48940827 226.80400859 185 234 C186.30324219 234.36351562 186.30324219 234.36351562 187.6328125 234.734375 C199.3814433 238.15120275 199.3814433 238.15120275 204 242 C204.33 242.66 204.66 243.32 205 244 C205.7115625 242.5459375 205.7115625 242.5459375 206.4375 241.0625 C208 238 208 238 209 237 C213.13962283 236.74698761 217.29105996 236.81477451 221.4375 236.8125 C222.60861328 236.80025391 223.77972656 236.78800781 224.98632812 236.77539062 C226.10330078 236.77345703 227.22027344 236.77152344 228.37109375 236.76953125 C229.9168811 236.76336792 229.9168811 236.76336792 231.49389648 236.75708008 C234 237 234 237 236 239 C236.4140625 241.8203125 236.4140625 241.8203125 236.625 245.125 C236.73714844 246.76855469 236.73714844 246.76855469 236.8515625 248.4453125 C236.90054687 249.28835937 236.94953125 250.13140625 237 251 C237.34933594 250.07316406 237.69867188 249.14632812 238.05859375 248.19140625 C238.51363281 246.99386719 238.96867187 245.79632813 239.4375 244.5625 C240.11619141 242.77005859 240.11619141 242.77005859 240.80859375 240.94140625 C242 238 242 238 243 237 C244.91458282 236.90028214 246.83282317 236.86919411 248.75 236.8671875 C249.9153125 236.86589844 251.080625 236.86460937 252.28125 236.86328125 C254.12203125 236.86908203 254.12203125 236.86908203 256 236.875 C257.2271875 236.87113281 258.454375 236.86726562 259.71875 236.86328125 C260.8840625 236.86457031 262.049375 236.86585938 263.25 236.8671875 C264.32765625 236.86831543 265.4053125 236.86944336 266.515625 236.87060547 C269 237 269 237 270 238 C270.04080783 239.99958364 270.04254356 242.00045254 270 244 C270.4846875 243.67386719 270.969375 243.34773437 271.46875 243.01171875 C282.95376899 235.52436983 295.25526906 233.17569408 308.921875 235.49609375 C315.49568801 237.25907088 319.2278727 240.2278727 324 245 C324.7115625 243.2984375 324.7115625 243.2984375 325.4375 241.5625 C327 238 327 238 328 237 C330.86355185 236.88629874 333.70201852 236.83580488 336.56640625 236.83203125 C337.43385971 236.82870285 338.30131317 236.82537445 339.1950531 236.82194519 C341.03864002 236.81686894 342.88223618 236.81453708 344.72583008 236.81469727 C347.52636297 236.81252799 350.32649093 236.79442793 353.12695312 236.77539062 C354.91926949 236.77245327 356.71158772 236.77047077 358.50390625 236.76953125 C359.749692 236.75875298 359.749692 236.75875298 361.02064514 236.74775696 C367.70504081 236.77356054 374.1071648 237.5625128 380 241 C380.66 239.68 381.32 238.36 382 237 C389.65807215 236.95370832 397.31612984 236.91814697 404.97430992 236.89637566 C408.53012399 236.88592776 412.0858425 236.87175041 415.64160156 236.84912109 C419.727223 236.82328168 423.81274369 236.81353556 427.8984375 236.8046875 C429.17866791 236.79436493 430.45889832 236.78404236 431.77792358 236.77340698 C432.95899689 236.77325592 434.14007019 236.77310486 435.35693359 236.77294922 C436.92246475 236.76628738 436.92246475 236.76628738 438.5196228 236.75949097 C441 237 441 237 443 239 C442.02660461 245.7056127 439.91994918 256.08005082 435 261 C432.65012738 261.23527773 430.29443961 261.41386417 427.9375 261.5625 C426.00197266 261.68818359 426.00197266 261.68818359 424.02734375 261.81640625 C423.02832031 261.87699219 422.02929688 261.93757813 421 262 C420.72882355 262.75977142 420.45764709 263.51954285 420.17825317 264.30233765 C417.62391872 271.45579778 415.06417135 278.60728608 412.49829292 285.75661278 C411.17928526 289.43237783 409.86239717 293.10887383 408.55029297 296.78710938 C407.28439371 300.33557427 406.01300584 303.88202742 404.73775864 307.4271431 C404.25176115 308.78124161 403.76775879 310.13605787 403.28577042 311.49158859 C402.61129797 313.3873842 401.92912 315.28043309 401.24658203 317.17333984 C400.66700241 318.79216568 400.66700241 318.79216568 400.07571411 320.44369507 C399 323 399 323 397 325 C394.14257813 325.25878906 394.14257813 325.25878906 390.53125 325.265625 C389.23832031 325.26820313 387.94539062 325.27078125 386.61328125 325.2734375 C385.93861816 325.26924805 385.26395508 325.26505859 384.56884766 325.26074219 C382.50783843 325.2500407 380.44770081 325.26063943 378.38671875 325.2734375 C377.09378906 325.27085937 375.80085938 325.26828125 374.46875 325.265625 C373.27701172 325.26336914 372.08527344 325.26111328 370.85742188 325.25878906 C368 325 368 325 366 323 C366.37935247 318.85389765 367.52280471 315.16416827 368.94946289 311.27001953 C369.3498024 310.16933136 369.75014191 309.06864319 370.16261292 307.93460083 C370.59492722 306.76251068 371.02724152 305.59042053 371.47265625 304.3828125 C372.13641518 302.56437332 372.13641518 302.56437332 372.81358337 300.709198 C373.98440337 297.50179285 375.16147682 294.29671841 376.33990479 291.09210205 C377.54356833 287.81540028 378.74125187 284.53651471 379.93945312 281.2578125 C382.28714841 274.83640203 384.64146291 268.417436 387 262 C385.35 262 383.7 262 382 262 C381.54560547 263.21236328 381.54560547 263.21236328 381.08203125 264.44921875 C376.95148879 274.98527936 376.95148879 274.98527936 372 279 C371.34 279.66 370.68 280.32 370 281 C370.33 281.99 370.66 282.98 371 284 C371.31838373 289.6794587 370.65285569 294.14101844 368.6640625 299.4921875 C368.42464935 300.16420197 368.18523621 300.83621643 367.93856812 301.52859497 C367.43506905 302.93397746 366.92552351 304.33720743 366.41015625 305.73828125 C365.62106008 307.88572208 364.85212826 310.03960592 364.0859375 312.1953125 C360.30230916 322.69769084 360.30230916 322.69769084 358 325 C355.48165894 325.24050903 355.48165894 325.24050903 352.26513672 325.22705078 C351.06404266 325.22689972 349.86294861 325.22674866 348.62545776 325.22659302 C346.67230148 325.21110916 346.67230148 325.21110916 344.6796875 325.1953125 C343.33733327 325.19158276 341.99497633 325.18873561 340.65261841 325.18673706 C337.117986 325.17909744 333.58351772 325.1594463 330.0489502 325.1373291 C326.4428123 325.11687765 322.83664791 325.10773685 319.23046875 325.09765625 C312.15357865 325.0762006 305.07680003 325.04206079 298 325 C297.67 323.02 297.34 321.04 297 319 C296.23816406 319.40992188 295.47632813 319.81984375 294.69140625 320.2421875 C282.16195797 326.78065115 269.45347621 329.601063 255.375 325.75 C251.6368761 324.43576738 248.87208236 322.78504956 246 320 C245.401875 319.4225 244.80375 318.845 244.1875 318.25 C243.795625 317.8375 243.40375 317.425 243 317 C242.525625 318.134375 242.05125 319.26875 241.5625 320.4375 C240 324 240 324 239 325 C234.69352364 325.25342236 230.37554946 325.18522638 226.0625 325.1875 C224.84369141 325.19974609 223.62488281 325.21199219 222.36914062 325.22460938 C221.20705078 325.22654297 220.04496094 325.22847656 218.84765625 325.23046875 C217.77523682 325.23457764 216.70281738 325.23868652 215.59790039 325.24291992 C213 325 213 325 211 323 C210.5859375 320.8359375 210.5859375 320.8359375 210.375 318.375 C210.26285156 317.14910156 210.26285156 317.14910156 210.1484375 315.8984375 C210.09945313 315.27195312 210.05046875 314.64546875 210 314 C209.72285156 314.71027344 209.44570313 315.42054688 209.16015625 316.15234375 C208.79792969 317.07144531 208.43570312 317.99054688 208.0625 318.9375 C207.70285156 319.85402344 207.34320313 320.77054687 206.97265625 321.71484375 C206 324 206 324 205 325 C203.07332493 325.08748207 201.14348139 325.10697334 199.21484375 325.09765625 C197.46010742 325.09282227 197.46010742 325.09282227 195.66992188 325.08789062 C194.43822266 325.07951172 193.20652344 325.07113281 191.9375 325.0625 C190.08415039 325.05573242 190.08415039 325.05573242 188.19335938 325.04882812 C185.12885883 325.03699608 182.06445279 325.02051173 179 325 C178.67 323.68 178.34 322.36 178 321 C177.45472656 321.26554687 176.90945313 321.53109375 176.34765625 321.8046875 C163.97295347 327.60070214 149.21436161 329.6810937 136.0546875 324.984375 C131.37266725 322.74127785 128.03999081 319.85755658 126 315 C125.26518031 308.70154555 126.49056913 303.54703219 128.3125 297.5625 C128.52527588 296.8519043 128.73805176 296.14130859 128.95727539 295.40917969 C130.16050118 291.68531455 130.65141636 290.2323891 134 288 C136.58885171 287.70008931 139.09149082 287.49134775 141.6875 287.375 C142.38939453 287.33632813 143.09128906 287.29765625 143.81445312 287.2578125 C145.54254655 287.1637666 147.27123675 287.0808032 149 287 C148.27683594 286.41992188 148.27683594 286.41992188 147.5390625 285.828125 C146.90742188 285.30734375 146.27578125 284.7865625 145.625 284.25 C144.99851562 283.73953125 144.37203125 283.2290625 143.7265625 282.703125 C140.80424882 279.82048074 140.0337451 277.87737257 139.875 273.75 C139.91625 272.8425 139.9575 271.935 140 271 C138.98164063 271.65226562 137.96328125 272.30453125 136.9140625 272.9765625 C120.51380968 283.20225713 102.02139092 290.90669194 82.30078125 287.5390625 C73.04106588 284.79185201 65.43380232 277.80013559 60 270 C55.69628102 261.76357231 52.6325823 253.04377715 49.5 244.3125 C45.86678371 234.19103369 41.73098426 223.73098426 34 216 C33.34 216 32.68 216 32 216 C29.525 220.455 29.525 220.455 27 225 C27.804375 225.86625 28.60875 226.7325 29.4375 227.625 C31.96838132 230.69666793 33 232.91730322 33 237 C31.75861484 240.51725795 30.65906706 242.46908487 27.75 244.8125 C23.67722286 246.57119922 20.18801226 247.7769029 15.84375 246.234375 C12.79666311 244.75499224 10.40636729 243.40636729 8 241 C3.66235871 241.39150631 -0.27184854 242.64919227 -4.375 244.0625 C-5.43460937 244.42472656 -6.49421875 244.78695312 -7.5859375 245.16015625 C-8.38257812 245.43730469 -9.17921875 245.71445313 -10 246 C-9.59007813 246.45890625 -9.18015625 246.9178125 -8.7578125 247.390625 C-8.21898438 248.00421875 -7.68015625 248.6178125 -7.125 249.25 C-6.59132813 249.85328125 -6.05765625 250.4565625 -5.5078125 251.078125 C-1.89140542 255.68763869 -1.9249336 259.08238221 -2.25 264.8125 C-2.47631725 271.57225347 -2.47631725 271.57225347 0.875 277.25 C1.40867188 277.70890625 1.94234375 278.1678125 2.4921875 278.640625 C5.29994331 281.17196962 5.9360998 283.4033505 6.3359375 287.13671875 C6.41934446 294.71841158 6.03625292 300.49924373 2 307 C1.36384766 308.04607422 1.36384766 308.04607422 0.71484375 309.11328125 C-5.17242849 317.82119645 -14.01657764 322.31926622 -24 325 C-27.6875 325.25 -27.6875 325.25 -30 325 C-27.85575898 322.73552117 -25.61779981 320.96787204 -23.0625 319.1875 C-18.46373265 315.78914619 -15.83329478 312.49988435 -14 307 C-13.8552037 305.04524991 -13.77932498 303.0848862 -13.75 301.125 C-13.72421875 300.09632813 -13.6984375 299.06765625 -13.671875 298.0078125 C-14.04242686 294.61108707 -15.13529984 292.81667866 -17 290 C-17 289.34 -17 288.68 -17 288 C-17.9590625 288.23783203 -17.9590625 288.23783203 -18.9375 288.48046875 C-33.00959671 290.86769944 -47.471446 289.55096708 -59.5625 281.625 C-63.81032552 278.35957061 -67.53373334 275.48103191 -68.28515625 269.87109375 C-68.23040567 266.27580558 -67.65474222 263.87806514 -65.48828125 260.97265625 C-56.92036196 252.7523199 -46.33016375 252.47345065 -35 252 C-38.26220022 248.63025472 -41.22277429 248.64195487 -45.65039062 248.53417969 C-46.50826172 248.52290039 -47.36613281 248.51162109 -48.25 248.5 C-61.05991469 248.07733784 -72.76296906 246.51706733 -84.546875 241.0859375 C-85.35640625 240.72757813 -86.1659375 240.36921875 -87 240 C-87.93585938 239.57460938 -87.93585938 239.57460938 -88.890625 239.140625 C-92.357602 238.9094932 -95.04530403 240.75548045 -98 242.375 C-105.56365204 246.4258262 -112.46806084 248.65119652 -121.1015625 246.46875 C-124.74773182 245.0413135 -127.35166634 243.58754973 -129 240 C-129.68039191 232.96928358 -128.29727157 228.81703423 -123.73828125 223.2265625 C-122.53751953 221.93878906 -122.53751953 221.93878906 -121.3125 220.625 C-120.50425781 219.75101563 -119.69601563 218.87703125 -118.86328125 217.9765625 C-118.24839844 217.32429687 -117.63351563 216.67203125 -117 216 C-117.48210937 215.23816406 -117.96421875 214.47632813 -118.4609375 213.69140625 C-127.02462941 199.69239152 -127.4705497 187.72245632 -123.9765625 171.73828125 C-120.0160191 156.57732112 -112.56824455 144.18356473 -103 132 C-104.33998047 131.83757812 -104.33998047 131.83757812 -105.70703125 131.671875 C-111.52753443 130.48429902 -116.24984218 127.06836833 -120.0625 122.5625 C-121.71560584 118.0440107 -121.50417571 114.45321234 -119.9375 109.9375 C-115.81791946 103.69168435 -110.98849585 100.33308403 -103.7421875 98.4609375 C-95.84516064 97.13351703 -87.88385221 97.9488197 -80 99 C-79.50113281 98.16339844 -79.00226563 97.32679687 -78.48828125 96.46484375 C-70.62531228 83.59850707 -61.06934588 72.29456109 -49.73046875 62.34375 C-46.89080978 58.49771076 -47.80408471 54.36859338 -48.45898438 49.79370117 C-48.77319336 48.18458862 -48.77319336 48.18458862 -49.09375 46.54296875 C-49.31933594 45.34736328 -49.54492188 44.15175781 -49.77734375 42.91992188 C-50.25692782 40.44293498 -50.738679 37.96636664 -51.22265625 35.49023438 C-52.52469369 28.56711532 -53.3668047 22.04774469 -53 15 C-52.15405273 15.04189453 -51.30810547 15.08378906 -50.43652344 15.12695312 C-47.23845179 15.26489889 -44.04191446 15.36433299 -40.84179688 15.43945312 C-39.46823662 15.4792107 -38.09500402 15.53344392 -36.72265625 15.60351562 C-25.65310288 16.15375658 -19.57482922 13.87984356 -11 7 C-9.8205641 6.20900811 -8.63057894 5.43300116 -7.421875 4.6875 C-5.60887978 3.54245039 -3.7963965 2.39658988 -1.984375 1.25 C-1.32953125 0.8375 -0.6746875 0.425 0 0 Z M181 269 C182.65 270.65 184.3 272.3 186 274 C187.12042201 275.25652533 188.22731495 276.52542005 189.3125 277.8125 C189.82425781 278.41707031 190.33601563 279.02164062 190.86328125 279.64453125 C191.23839844 280.09183594 191.61351562 280.53914063 192 281 C193.79068573 278.3139714 194.66055791 276.3373411 195.625 273.3125 C196.07875 271.889375 196.5325 270.46625 197 269 C191.72 269 186.44 269 181 269 Z M159 299 C160 301 160 301 160 301 Z M211 309 C212 312 212 312 212 312 Z " fill="#040302" transform="translate(131,0)"/>
<path d="M0 0 C2.71538935 1.213037 3.63058469 2.69111111 5.2668457 5.16186523 C5.84047852 6.01586914 6.41411133 6.86987305 7.00512695 7.74975586 C7.59165039 8.64758789 8.17817383 9.54541992 8.7824707 10.47045898 C9.38446289 11.3721582 9.98645508 12.27385742 10.60668945 13.20288086 C12.09231442 15.43131831 13.56693848 17.66627734 15.0324707 19.90795898 C15.56090576 19.70638184 16.08934082 19.50480469 16.63378906 19.29711914 C19.07681625 18.36936031 21.52332622 17.45113383 23.9699707 16.53295898 C24.80077148 16.21584961 25.63157227 15.89874023 26.48754883 15.57202148 C40.52233598 10.32945508 56.91202075 7.78307894 71.3449707 13.03295898 C76.46750704 15.39670005 80.85693339 18.12180709 85.0324707 21.90795898 C85.8677832 22.65174805 86.7030957 23.39553711 87.5637207 24.16186523 C98.87070568 34.78710553 102.09435697 45.84850896 102.6574707 60.97045898 C102.69614258 61.83606445 102.73481445 62.70166992 102.7746582 63.59350586 C102.86767552 65.69802258 102.95109739 67.80295988 103.0324707 69.90795898 C131.50203155 83.92063645 162.98645111 91.20209051 194.7199707 90.97045898 C195.91041992 90.96594727 197.10086914 90.96143555 198.32739258 90.95678711 C201.22914007 90.94513351 204.13077696 90.92877458 207.0324707 90.90795898 C203.79592297 93.06565747 201.06087632 93.9035764 197.3449707 95.03295898 C143.61196274 112.29376322 102.97222899 162.54398436 78.0324707 210.90795898 C74.34310236 218.38042097 72.05339633 224.32330719 71.4699707 232.65795898 C71.38618164 233.82842773 71.30239258 234.99889648 71.21606445 236.20483398 C71.15547852 237.09686523 71.09489258 237.98889648 71.0324707 238.90795898 C68.06206452 237.42275589 68.0247396 235.39055768 66.9699707 232.28295898 C61.02325613 216.36111029 50.5365526 202.53059397 39.07543945 190.14233398 C37.35293897 188.258452 35.75130703 186.33661268 34.1574707 184.34545898 C30.06935864 179.528547 24.99851929 175.77124207 20.0324707 171.90795898 C19.31961914 171.34077148 18.60676758 170.77358398 17.87231445 170.18920898 C15.89130165 168.62945765 15.89130165 168.62945765 13.0324707 166.90795898 C12.0424707 167.23795898 11.0524707 167.56795898 10.0324707 167.90795898 C10.8574707 168.83608398 11.6824707 169.76420898 12.5324707 170.72045898 C26.61716837 187.18614126 26.61716837 187.18614126 26.34887695 196.66577148 C25.72664406 201.07517497 23.98498734 204.93762414 22.0324707 208.90795898 C21.73985352 209.52670898 21.44723633 210.14545898 21.14575195 210.78295898 C15.62480737 220.21002642 2.97380058 225.49555177 -7.0300293 228.25170898 C-12.64308548 229.50568962 -18.00515945 230.0667094 -23.75268555 230.07592773 C-24.49022568 230.07925613 -25.22776581 230.08258453 -25.98765564 230.08601379 C-27.54498679 230.09105629 -29.10232866 230.09342295 -30.65966797 230.09326172 C-32.99880681 230.09543004 -35.33745919 230.1135637 -37.67651367 230.13256836 C-62.04398747 230.22411156 -62.04398747 230.22411156 -70.9675293 224.90795898 C-73.7240155 221.72739799 -74.87624061 219.85736135 -75.2800293 215.65795898 C-74.9675293 212.90795898 -74.9675293 212.90795898 -73.9675293 210.90795898 C-74.77834961 211.56022461 -75.58916992 212.21249023 -76.42456055 212.88452148 C-95.04495916 227.67555404 -95.04495916 227.67555404 -105.8737793 227.41186523 C-108.43822912 226.79467489 -109.35973022 225.97373719 -110.9675293 223.90795898 C-112.0925293 220.84545898 -112.0925293 220.84545898 -111.9675293 216.90795898 C-106.6672573 206.02942871 -95.65819887 195.47650555 -84.9675293 189.90795898 C-84.3075293 189.90795898 -83.6475293 189.90795898 -82.9675293 189.90795898 C-83.4625293 188.91795898 -83.4625293 188.91795898 -83.9675293 187.90795898 C-89.241115 188.50812452 -92.94274299 191.30584827 -97.15112305 194.28881836 C-98.8112793 195.38842773 -98.8112793 195.38842773 -101.9675293 196.90795898 C-106.91068349 195.85727428 -109.02870565 192.87934229 -111.9675293 188.90795898 C-117.39576508 179.4860926 -114.5421441 167.85171493 -111.9675293 157.90795898 C-108.34883577 145.51745007 -103.1316033 132.23360323 -91.44018555 125.43920898 C-88.9743049 124.19359527 -86.48903547 123.03566777 -83.9675293 121.90795898 C-82.63103437 121.24765334 -81.29655785 120.5831666 -79.9675293 119.90795898 C-81.05291992 119.65401367 -82.13831055 119.40006836 -83.2565918 119.13842773 C-84.70199653 118.79115517 -86.14730395 118.44347735 -87.5925293 118.09545898 C-88.30538086 117.92981445 -89.01823242 117.76416992 -89.75268555 117.59350586 C-95.89388079 116.10046298 -102.12070713 114.23432813 -105.9675293 108.90795898 C-106.71155057 104.44383135 -106.37546661 102.53840756 -103.9050293 98.72045898 C-98.48102969 93.1470379 -94.40867554 91.63436625 -86.6550293 91.34545898 C-79.53253257 91.52158403 -74.96607194 93.3088334 -68.9675293 96.90795898 C-67.31235436 97.60266621 -65.64804916 98.27702697 -63.9675293 98.90795898 C-64.3284668 98.4606543 -64.6894043 98.01334961 -65.0612793 97.55249023 C-65.5253418 96.94791992 -65.9894043 96.34334961 -66.4675293 95.72045898 C-66.9315918 95.1287793 -67.3956543 94.53709961 -67.8737793 93.92749023 C-69.28457134 91.32256349 -69.35354481 89.84078949 -68.9675293 86.90795898 C-63.57431905 75.77470825 -53.51029152 62.54082263 -42.9675293 55.90795898 C-40.27612305 55.95874023 -40.27612305 55.95874023 -37.9675293 56.90795898 C-36.2800293 60.34545898 -36.2800293 60.34545898 -34.9675293 63.90795898 C-32.44909704 66.42639124 -31.345414 66.31922023 -27.8425293 66.47045898 C-22.48431404 66.31676833 -19.61569929 65.22250679 -15.8737793 61.39624023 C-6.9112068 49.69714457 -2.1121918 35.37878705 0.0324707 20.90795898 C-0.9575293 20.90795898 -1.9475293 20.90795898 -2.9675293 20.90795898 C-3.1531543 21.92889648 -3.1531543 21.92889648 -3.3425293 22.97045898 C-6.06655112 35.77336157 -12.68407596 51.3802172 -22.9675293 59.90795898 C-25.9253236 60.48508958 -27.32494139 60.21884913 -30.01831055 58.91577148 C-32.97634116 55.86882211 -33.08714248 52.33487077 -33.5925293 48.28295898 C-33.71023682 47.4413623 -33.82794434 46.59976563 -33.94921875 45.73266602 C-34.30739746 43.12653135 -34.6392978 40.51801633 -34.9675293 37.90795898 C-35.17689515 36.33500641 -35.38651872 34.76208812 -35.59643555 33.18920898 C-36.51072528 26.05589262 -37.08893448 19.09888135 -36.9675293 11.90795898 C-36.40469238 11.935271 -35.84185547 11.96258301 -35.26196289 11.99072266 C-24.73315795 12.36514215 -16.10406785 12.54654434 -7.9050293 5.28295898 C-6.82801739 4.25201489 -5.75358619 3.21836455 -4.68237305 2.18139648 C-1.9675293 -0.09204102 -1.9675293 -0.09204102 0 0 Z " fill="#F6A8AA" transform="translate(126.967529296875,13.092041015625)"/>
<path d="M0 0 C5.49605153 6.91438741 4.87173445 16.60277371 4 25 C1.5119471 37.98470237 -3.85699399 50.4457638 -10.25 61.9375 C-10.73452637 62.81212891 -11.21905273 63.68675781 -11.71826172 64.58789062 C-15.37806696 71.09689961 -19.39936619 77.11525353 -24 83 C-25.02480469 84.40185547 -25.02480469 84.40185547 -26.0703125 85.83203125 C-55.50980775 126.08711167 -55.50980775 126.08711167 -69.8125 129.4375 C-77.75220693 131.63509745 -83.12795449 135.28447781 -88 142 C-88.33829834 142.62076416 -88.67659668 143.24152832 -89.02514648 143.88110352 C-92.15651538 149.5892772 -95.64200733 152.20456831 -101.375 155.125 C-102.56113892 155.75438477 -102.56113892 155.75438477 -103.77124023 156.39648438 C-116.80906565 163.18132847 -133.24258176 171.61712877 -148.30078125 167.34765625 C-154.65219293 164.5606903 -157.73011028 160.0840179 -160.3125 153.8125 C-164.70912996 129.43118838 -147.75800134 103.96227518 -134.39819336 84.64453125 C-125.21537463 71.69710867 -114.99415676 59.44228815 -104 48 C-103.484375 47.46246094 -102.96875 46.92492187 -102.4375 46.37109375 C-81.38316437 24.55758737 -32.86854696 -17.98467664 0 0 Z " fill="#F6C3C2" transform="translate(366,109)"/>
<path d="M0 0 C11.37719944 3.39319983 21.08438512 12.26428844 30.23144531 19.5859375 C43.22370463 31.020832 43.22370463 31.020832 58.625 37.625 C66.37104305 36.19054758 72.70323255 31.36488634 79.16430664 27.08618164 C81.76644856 25.37197782 84.0281584 23.99061387 87 23 C85.51739524 27.28839442 83.22147499 30.70509931 80.625 34.375 C76.08014789 40.99186988 72.21933316 47.89020817 68.5 55 C67.9838916 55.97888184 67.4677832 56.95776367 66.93603516 57.96630859 C63.18117935 65.24985418 60.88532845 71.68719001 60.375 79.9375 C60.30023438 81.08089844 60.22546875 82.22429687 60.1484375 83.40234375 C60.07496094 84.68818359 60.07496094 84.68818359 60 86 C57.02959381 84.51479691 56.9922689 82.48259869 55.9375 79.375 C49.99078543 63.4531513 39.50408189 49.62263499 28.04296875 37.234375 C26.32046827 35.35049302 24.71883633 33.42865369 23.125 31.4375 C19.03688794 26.62058802 13.96604859 22.86328308 9 19 C8.28714844 18.4328125 7.57429688 17.865625 6.83984375 17.28125 C4.85883094 15.72149866 4.85883094 15.72149866 2 14 C1.01 14.33 0.02 14.66 -1 15 C-0.175 15.928125 0.65 16.85625 1.5 17.8125 C15.58469767 34.27818228 15.58469767 34.27818228 15.31640625 43.7578125 C14.69417335 48.16721599 12.95251664 52.02966516 11 56 C10.56107422 56.928125 10.56107422 56.928125 10.11328125 57.875 C4.59233667 67.30206743 -8.05867013 72.58759279 -18.0625 75.34375 C-23.67555618 76.59773064 -29.03763015 77.15875042 -34.78515625 77.16796875 C-35.52269638 77.17129715 -36.26023651 77.17462555 -37.02012634 77.17805481 C-38.5774575 77.18309731 -40.13479936 77.18546397 -41.69213867 77.18530273 C-44.03127751 77.18747106 -46.36992989 77.20560471 -48.70898438 77.22460938 C-73.07645818 77.31615258 -73.07645818 77.31615258 -82 72 C-84.74616564 69.18518021 -85.99180752 67.3701921 -86.015625 63.38671875 C-85.77611159 60.89648375 -85.44740325 58.46071789 -85 56 C-84.34 56 -83.68 56 -83 56 C-82.9071875 54.9171875 -82.9071875 54.9171875 -82.8125 53.8125 C-81.47031224 49.16646544 -78.31057276 46.95016525 -74.5 44.1875 C-69.13163583 42.36609073 -63.59920126 42.11001432 -58 43 C-53.27117531 46.01488386 -50.80515973 50.0154924 -47.84375 54.66015625 C-43.9486254 59.60333345 -37.98773163 61.65932786 -32 63 C-19.10532852 64.47769769 -8.05854377 59.95822794 2 52 C5.68439833 48.44347667 6.88094723 45.49137723 7.2890625 40.37890625 C7.31006998 36.902169 7.21925866 33.46915929 7 30 C6.34 30 5.68 30 5 30 C5 29.34 5 28.68 5 28 C4.16275391 27.61134766 4.16275391 27.61134766 3.30859375 27.21484375 C0.72260633 25.85402804 -1.56244546 24.26419547 -3.9375 22.5625 C-6.48250036 20.74127099 -8.97176384 19.01610568 -11.69140625 17.46484375 C-14 16 -14 16 -16 13 C-16.42402824 8.6183749 -16.43827294 6.05185506 -14.75 2 C-10.20633876 -1.30448091 -5.41644017 -0.6376497 0 0 Z " fill="#F29096" transform="translate(138,166)"/>
<path d="M0 0 C0.81210937 -0.03287109 1.62421875 -0.06574219 2.4609375 -0.09960938 C8.64505845 -0.15411685 12.87240947 1.42678101 17.625 5.4375 C19.94349123 10.07448246 17.74012124 16.44972173 16.27734375 21.171875 C15.7165569 22.84741293 15.1444553 24.51919629 14.5625 26.1875 C14.10157959 27.5336438 14.10157959 27.5336438 13.63134766 28.90698242 C12.64571102 31.75660711 11.63990585 34.59817434 10.625 37.4375 C10.28452637 38.39027832 9.94405273 39.34305664 9.59326172 40.32470703 C8.57748907 43.13905399 7.54343948 45.94580332 6.5 48.75 C6.18796631 49.60239258 5.87593262 50.45478516 5.55444336 51.33300781 C1.79107652 61.24186742 -2.75037613 68.87892198 -12.625 73.625 C-21.80666229 77.39576615 -32.04458069 79.12744517 -41.62109375 75.61328125 C-45.11265098 73.7767657 -46.96425097 72.07574751 -48.375 68.4375 C-48.28444165 62.82288235 -47.07999919 58.31033869 -45.15625 53.046875 C-44.70693115 51.81275879 -44.2576123 50.57864258 -43.79467773 49.30712891 C-43.56005829 48.66833801 -43.32543884 48.02954712 -43.08370972 47.37139893 C-42.3932809 45.4873842 -41.71225653 43.59993142 -41.03149414 41.71240234 C-39.6846 37.98899704 -38.3132681 34.27532253 -36.9375 30.5625 C-36.59851685 29.62180664 -36.59851685 29.62180664 -36.25268555 28.66210938 C-32.84818605 19.22716391 -29.55938718 10.15512494 -20.375 5.0625 C-19.570625 4.60101563 -18.76625 4.13953125 -17.9375 3.6640625 C-11.86085212 0.75542312 -6.64532384 0.0470188 0 0 Z " fill="#F7B412" transform="translate(429.375,242.5625)"/>
<path d="M0 0 C2.99958809 0.63260206 4.91011639 1.436518 7.22265625 3.46875 C13.55994032 18.75014422 7.18082454 35.52944378 1.34277344 49.90722656 C-0.53803123 54.20831692 -2.74648467 58.30629596 -5.02734375 62.40625 C-5.51187012 63.28087891 -5.99639648 64.15550781 -6.49560547 65.05664062 C-10.15541071 71.56564961 -14.17670994 77.58400353 -18.77734375 83.46875 C-19.80214844 84.87060547 -19.80214844 84.87060547 -20.84765625 86.30078125 C-50.2871515 126.55586167 -50.2871515 126.55586167 -64.58984375 129.90625 C-72.52955068 132.10384745 -77.90529824 135.75322781 -82.77734375 142.46875 C-83.11564209 143.08951416 -83.45394043 143.71027832 -83.80249023 144.34985352 C-86.93385913 150.0580272 -90.41935108 152.67331831 -96.15234375 155.59375 C-97.33848267 156.22313477 -97.33848267 156.22313477 -98.54858398 156.86523438 C-111.54073968 163.62631209 -125.76633795 170.36163343 -140.77734375 168.46875 C-143.72990196 167.39763267 -146.0698351 166.1034722 -148.77734375 164.46875 C-148.199855 161.62893419 -147.82464496 160.52215459 -145.83984375 158.28125 C-140.6811209 155.22812831 -135.22247801 155.53805653 -129.33203125 155.37109375 C-114.87749241 154.76231728 -107.49230099 147.98583463 -96.81640625 138.77734375 C-92.95166711 135.46875 -92.95166711 135.46875 -90.77734375 135.46875 C-90.77734375 137.11875 -90.77734375 138.76875 -90.77734375 140.46875 C-90.10251953 139.55996094 -90.10251953 139.55996094 -89.4140625 138.6328125 C-84.15324472 131.78004385 -78.29889738 126.1131356 -71.77734375 120.46875 C-63.15583895 112.99275982 -55.78225212 105.37805466 -48.796875 96.3359375 C-46.25210562 93.05134169 -43.62764893 89.84107614 -40.97827148 86.640625 C-31.48199025 75.13924311 -22.84543429 63.32488095 -15.58984375 50.28125 C-12.37141066 44.51419031 -9.52801424 40.50820131 -3.4921875 37.37890625 C-1.59286219 36.58344245 -1.59286219 36.58344245 -0.77734375 34.46875 C-1.47601563 34.76910156 -2.1746875 35.06945312 -2.89453125 35.37890625 C-3.80460938 35.75917969 -4.7146875 36.13945312 -5.65234375 36.53125 C-6.55726563 36.91410156 -7.4621875 37.29695313 -8.39453125 37.69140625 C-10.77734375 38.46875 -10.77734375 38.46875 -12.77734375 37.46875 C-12.00197266 36.59863281 -12.00197266 36.59863281 -11.2109375 35.7109375 C-6.98867463 31.10406573 -6.98867463 31.10406573 -5.90234375 25.28125 C-6.19109375 24.353125 -6.47984375 23.425 -6.77734375 22.46875 C-6.43703125 21.0146875 -6.43703125 21.0146875 -6.08984375 19.53125 C-5.71219558 15.83029791 -6.88444022 14.38837217 -8.83984375 11.33984375 C-10.53900799 7.94859512 -10.21948312 5.19535322 -9.77734375 1.46875 C-5.99890934 -1.05020628 -4.32483627 -0.61883836 0 0 Z " fill="#F7D8D7" transform="translate(360.77734375,108.53125)"/>
<path d="M0 0 C2.375 0.1875 2.375 0.1875 5 1 C7.73586872 5.60630958 7.29553446 10.69166031 7.25 15.875 C7.26160156 17.18404297 7.26160156 17.18404297 7.2734375 18.51953125 C7.2547626 24.72893582 7.0886458 30.45446294 3 35.4375 C1 37 1 37 -1 37 C-1 37.66 -1 38.32 -1 39 C-2.46875 40.2265625 -2.46875 40.2265625 -4.5 41.625 C-7.59521922 43.88604666 -10.47654777 46.22666592 -13.25 48.875 C-14.18585938 49.76832031 -14.18585938 49.76832031 -15.140625 50.6796875 C-20.79137864 57.73125822 -21.58057676 63.97924689 -21.625 72.875 C-21.90207006 94.90207006 -21.90207006 94.90207006 -30 103 C-36.21736335 103.64317552 -40.87451589 102.75574266 -46 99 C-49.13675449 96.07942723 -52.13047118 93.05950883 -55.09765625 89.96875 C-57.42715486 87.54880756 -59.85288073 85.33727785 -62.4375 83.1875 C-66.37859766 79.80589011 -70.61362031 75.9932199 -71.30859375 70.609375 C-69.90568597 58.74681304 -55.57679699 46.27212786 -47.359375 38.484375 C-45 37 -45 37 -42.30859375 37.05078125 C-40 38 -40 38 -38.3125 41.4375 C-37.879375 42.613125 -37.44625 43.78875 -37 45 C-34.48156774 47.51843226 -33.3778847 47.41126125 -29.875 47.5625 C-24.51678475 47.40880934 -21.64816999 46.3145478 -17.90625 42.48828125 C-8.9436775 30.78918559 -4.14466251 16.47082807 -2 2 C-1.34 2 -0.68 2 0 2 C0 1.34 0 0.68 0 0 Z " fill="#F39197" transform="translate(129,32)"/>
<path d="M0 0 C4.45831922 -0.02933699 8.91661318 -0.04691123 13.375 -0.0625 C14.62667969 -0.07087891 15.87835938 -0.07925781 17.16796875 -0.08789062 C35.81403401 -0.13670231 35.81403401 -0.13670231 41.125 2.625 C43.095865 5.121429 43.72386976 6.61582333 43.49609375 9.8046875 C42.37235893 14.77743527 40.2118691 19.42672699 38 24 C37.5875 24.89847656 37.175 25.79695313 36.75 26.72265625 C34.33643252 29.86352643 32.09534473 30.30124448 28.3125 31.3125 C27.13300781 31.63863281 25.95351563 31.96476562 24.73828125 32.30078125 C23.38283203 32.64689453 23.38283203 32.64689453 22 33 C22.22276902 35.44961446 22.22276902 35.44961446 23 38 C26.47307328 39.86983745 26.47307328 39.86983745 30 41 C29.49871888 48.51921673 27.56039423 54.9365348 25 62 C24.63132812 63.04800781 24.26265625 64.09601563 23.8828125 65.17578125 C21.15857646 72.84142354 21.15857646 72.84142354 20 74 C17.46950598 74.07313567 14.96695163 74.09247527 12.4375 74.0625 C11.37112305 74.05573242 11.37112305 74.05573242 10.28320312 74.04882812 C8.52209987 74.03700864 6.76103964 74.01907263 5 74 C6.49817608 69.46312761 8.01481544 64.93507384 9.60546875 60.4296875 C9.86650391 59.67816406 10.12753906 58.92664063 10.39648438 58.15234375 C10.92751854 56.62348984 11.46670665 55.09744578 12.01367188 53.57421875 C13.64086018 48.83538965 14.2990101 45.01008031 14 40 C11.59454362 38.79727181 10.05003047 38.89928528 7.375 38.9375 C6.55773437 38.94652344 5.74046875 38.95554687 4.8984375 38.96484375 C4.27195312 38.97644531 3.64546875 38.98804688 3 39 C1.58238409 42.77047714 0.16608654 46.54144824 -1.25 50.3125 C-1.64574219 51.36501953 -2.04148437 52.41753906 -2.44921875 53.50195312 C-5.00850452 60.31972258 -7.52227456 67.15215791 -10 74 C-15.61 74 -21.22 74 -27 74 C-25.5236303 68.71615053 -23.92453899 63.66304084 -21.75 58.625 C-19.50033717 53.36011743 -17.55713736 48.03282499 -15.6875 42.625 C-13.11593863 35.1883033 -10.49833449 27.7712877 -7.8125 20.375 C-7.49176514 19.4876416 -7.17103027 18.6002832 -6.84057617 17.68603516 C-4.67773282 11.74170441 -2.38206923 5.85981181 0 0 Z " fill="#F7B312" transform="translate(464,244)"/>
<path d="M0 0 C2.72998676 0.11437651 5.4584582 0.24111406 8.1875 0.375 C9.34088867 0.42140625 9.34088867 0.42140625 10.51757812 0.46875 C15.79645992 0.74062374 20.09594926 1.09594926 24 5 C24.99056205 11.60374701 24.99056205 11.60374701 22.85546875 14.61328125 C19.24586495 17.87158541 15.09352096 20.11992089 10.875 22.5 C5.43888191 25.56844713 1.83278124 28.33443752 -1 34 C-1.12082534 35.66345582 -1.1753794 37.33220591 -1.1875 39 C-1.20167969 39.886875 -1.21585938 40.77375 -1.23046875 41.6875 C-1.22713126 44.19519984 -1.22713126 44.19519984 1 46 C2.134375 46.2475 3.26875 46.495 4.4375 46.75 C8 48 8 48 10 50.625 C11.58866026 55.98672837 11.05210431 59.89579139 8.5625 64.875 C4.25441069 68.44756187 -0.98175159 68.64289768 -6.41015625 69.28515625 C-10.49771901 70.41339756 -13.75943147 72.95375595 -17.18359375 75.38085938 C-18.84375 76.48046875 -18.84375 76.48046875 -22 78 C-26.94315419 76.9493153 -29.06117635 73.97138331 -32 70 C-37.42823578 60.57813361 -34.5746148 48.94375595 -32 39 C-28.38130648 26.60949108 -23.164074 13.32564424 -11.47265625 6.53125 C-9.00677561 5.28563628 -6.52150617 4.12770879 -4 3 C-2.66350508 2.33969436 -1.32902856 1.67520761 0 1 C0 0.67 0 0.34 0 0 Z " fill="#F39197" transform="translate(47,132)"/>
<path d="M0 0 C1.93166016 0.01740234 1.93166016 0.01740234 3.90234375 0.03515625 C5.19269531 0.04417969 6.48304688 0.05320313 7.8125 0.0625 C8.81152344 0.07410156 9.81054688 0.08570313 10.83984375 0.09765625 C11.72758722 7.79869469 12.12767274 15.4778343 12.40234375 23.22265625 C12.44552734 24.36992187 12.48871094 25.5171875 12.53320312 26.69921875 C12.63818021 29.49860768 12.7403384 32.2980684 12.83984375 35.09765625 C14.15984375 35.42765625 15.47984375 35.75765625 16.83984375 36.09765625 C21.45776265 26.81925699 24.73354925 17.12672436 28.04956055 7.32666016 C28.91268676 4.8922016 29.88056418 2.49585516 30.83984375 0.09765625 C35.12984375 0.09765625 39.41984375 0.09765625 43.83984375 0.09765625 C41.38599133 7.58988615 38.74178546 15.00510744 36.05859375 22.41796875 C35.59920418 23.68869644 35.13985434 24.95943849 34.68054199 26.23019409 C33.72320651 28.87787202 32.76496705 31.5252207 31.80615234 34.17236328 C30.58355034 37.54820008 29.36388853 40.92509091 28.14498138 44.30226326 C27.19925505 46.92116607 26.25163107 49.53937929 25.30348206 52.15740585 C24.63593505 54.00195953 23.97022919 55.84717919 23.30456543 57.69241333 C21.29425113 63.2338957 19.24813666 68.71619847 16.83984375 74.09765625 C11.88984375 74.09765625 6.93984375 74.09765625 1.83984375 74.09765625 C1.50984375 62.21765625 1.17984375 50.33765625 0.83984375 38.09765625 C-1.63515625 38.59265625 -1.63515625 38.59265625 -4.16015625 39.09765625 C-5.55619759 41.73470925 -6.5413263 44.0550154 -7.4921875 46.8515625 C-7.77366135 47.62700912 -8.05513519 48.40245575 -8.34513855 49.20140076 C-9.24029148 51.68121821 -10.10662222 54.17003846 -10.97265625 56.66015625 C-11.57430189 58.34246681 -12.17779538 60.02411776 -12.78320312 61.70507812 C-14.26374281 65.82858785 -15.71851283 69.96039555 -17.16015625 74.09765625 C-21.45015625 74.09765625 -25.74015625 74.09765625 -30.16015625 74.09765625 C-28.04376887 67.65732666 -25.80359355 61.27565228 -23.47265625 54.91015625 C-23.125979 53.95963379 -22.77930176 53.00911133 -22.42211914 52.02978516 C-20.99070057 48.10525068 -19.55650207 44.18173477 -18.12207031 40.25830078 C-17.11286706 37.49680658 -16.10487419 34.73487515 -15.09765625 31.97265625 C-14.60700684 30.6280835 -14.60700684 30.6280835 -14.10644531 29.25634766 C-11.43936391 21.92253461 -8.85743005 14.56028717 -6.32983398 7.17724609 C-3.89283448 0.12029773 -3.89283448 0.12029773 0 0 Z " fill="#F8B412" transform="translate(348.16015625,243.90234375)"/>
<path d="M0 0 C-0.34614136 2.50952489 -0.75158301 3.75158301 -2.5625 5.5625 C-4.79669066 6.88009962 -6.54354214 7.46474331 -9 8.1875 C-12.56759984 9.47944332 -12.92113359 9.86691292 -15 13.375 C-15.29777344 14.08398438 -15.59554687 14.79296875 -15.90234375 15.5234375 C-22.78596953 31.05446507 -34.43052726 45.68648702 -45.58642578 58.38476562 C-47.53822744 60.61501084 -49.45919519 62.87101102 -51.38232422 65.12597656 C-57.25606807 72.00845955 -63.17957806 78.8483808 -69.1171875 85.67578125 C-70.71840769 87.5176443 -72.30847999 89.36543999 -73.8828125 91.23046875 C-82.21584285 101.05004471 -91.4784997 110.19398533 -101.6953125 118.03515625 C-105.7292306 121.47424236 -108.28252792 124.99070642 -110 130 C-110.33 130 -110.66 130 -111 130 C-113.13091592 109.44849981 -97.48820342 89.12916743 -85.44189453 73.83886719 C-84.07576517 72.09662432 -82.73447542 70.33862888 -81.40234375 68.5703125 C-75.54125897 60.8061884 -69.36476926 53.35518571 -63 46 C-62.20299683 45.0716333 -62.20299683 45.0716333 -61.38989258 44.12451172 C-23.23034115 0 -23.23034115 0 0 0 Z " fill="#030202" transform="translate(341,124)"/>
<path d="M0 0 C6.85812532 5.81821764 10.29146116 13.22212142 11.37890625 22.08984375 C11.6308385 28.53443337 10.96447304 33.77849892 7 39 C2.85577485 43.22880118 -0.36001619 45.12969778 -6.30615234 45.29321289 C-18.51868762 45.40372724 -26.86104158 43.0863655 -35.8984375 34.37890625 C-41.40548865 28.14508812 -43.13860148 21.59744129 -43.25 13.4375 C-43.27578125 12.30183594 -43.3015625 11.16617188 -43.328125 9.99609375 C-43 7 -43 7 -41.72265625 5.11328125 C-40 4 -40 4 -36.1875 3.75 C-33.45484385 3.52938189 -32.32776155 3.30163022 -30.28515625 1.421875 C-29.29063645 0.17682731 -28.33280284 -1.09880063 -27.421875 -2.40625 C-21.04883839 -9.54965368 -6.45575754 -4.58728005 0 0 Z " fill="#F8D8D7" transform="translate(213,40)"/>
<path d="M0 0 C1.25901123 -0.02211548 1.25901123 -0.02211548 2.54345703 -0.04467773 C8.59389745 0.05510733 12.52002155 1.53176364 17.75 4.5625 C17.95818303 10.49571622 17.48620116 13.48579596 15.75 19.5625 C10.8 19.5625 5.85 19.5625 0.75 19.5625 C0.75 15.9325 0.75 12.3025 0.75 8.5625 C-2.10324437 7.13587781 -4.08454549 7.25216132 -7.25 7.5625 C-10.75602851 9.79360905 -12.67004861 11.75530437 -14.25 15.5625 C-14.99876532 19.96839279 -15.0577159 23.42055684 -12.4375 27.125 C-11.4070526 27.97778406 -10.33653044 28.78242686 -9.25 29.5625 C-8.37859375 30.201875 -7.5071875 30.84125 -6.609375 31.5 C-4.70853629 32.88242815 -2.79622529 34.24926315 -0.87109375 35.59765625 C5.41563493 40.31036046 5.41563493 40.31036046 6.31640625 43.68359375 C6.30053323 53.09629571 3.20406986 63.3124828 -3.46484375 70.203125 C-11.79904065 76.54951563 -23.4933637 78.25451411 -33.62890625 77.046875 C-38.33361515 76.1774504 -42.79322411 75.01927589 -46.25 71.5625 C-46.84056786 64.94813997 -45.3406402 59.83442059 -43.25 53.5625 C-38.3 53.5625 -33.35 53.5625 -28.25 53.5625 C-28.600625 54.738125 -28.95125 55.91375 -29.3125 57.125 C-30.34019548 61.19235817 -30.17641955 64.43572199 -29.25 68.5625 C-28.09431881 69.94018644 -28.09431881 69.94018644 -24.9375 69.75 C-21.44407662 69.5723683 -20.08230433 69.40436662 -17.25 67.5625 C-13.93929552 62.72928019 -12.8026695 57.47082538 -12.62109375 51.703125 C-14.47894284 45.37951445 -22.41872664 41.44799036 -27.5078125 37.84375 C-31.21368737 34.76079997 -33.04283351 32.46489473 -33.5703125 27.62109375 C-32.80897158 20.35121641 -29.28095072 12.299506 -24.12890625 7.03125 C-16.78705164 1.29208715 -9.06302704 0.10577141 0 0 Z " fill="#F7B412" transform="translate(311.25,242.4375)"/>
<path d="M0 0 C-0.5625 1.75 -0.5625 1.75 -2 4 C-3.06734375 4.515625 -4.1346875 5.03125 -5.234375 5.5625 C-10.11529863 8.26293153 -12.08867374 12.47719439 -14.6875 17.25 C-20.13005788 26.76737056 -26.22637758 35.39743204 -33 44 C-33.97317089 45.24959938 -34.94583194 46.49959598 -35.91796875 47.75 C-38.19148447 50.66625926 -40.4829544 53.56769035 -42.78320312 56.46289062 C-43.88910214 57.85990912 -44.98422938 59.26543778 -46.078125 60.671875 C-56.42955307 73.88467343 -68.23083454 86.09906771 -81.27734375 96.68359375 C-83.53207446 98.60189405 -85.12740114 100.1911017 -86.75 102.625 C-87.13671875 103.19476563 -87.5234375 103.76453125 -87.921875 104.3515625 C-88.27765625 104.89554687 -88.6334375 105.43953125 -89 106 C-89.66 106.99 -90.32 107.98 -91 109 C-88.68728496 77.77834703 -54.70121888 39.17886122 -32 19 C-24.45676471 12.62368722 -16.72385503 6.68866366 -8 2 C-7.33226562 1.61972656 -6.66453125 1.23945313 -5.9765625 0.84765625 C-4 0 -4 0 0 0 Z " fill="#050303" transform="translate(360,143)"/>
<path d="M0 0 C0.79719955 0.00222061 1.59439911 0.00444122 2.41575623 0.00672913 C3.31661453 0.00680466 4.21747284 0.00688019 5.14562988 0.00695801 C6.12478867 0.01211929 7.10394745 0.01728058 8.11277771 0.02259827 C9.11018478 0.02401321 10.10759186 0.02542816 11.13522339 0.02688599 C14.3348027 0.03250337 17.53431315 0.04505881 20.73387146 0.05775452 C22.89728191 0.06276728 25.06069345 0.06733057 27.22410583 0.07142639 C32.53988471 0.08247845 37.85562317 0.09923348 43.17137146 0.12025452 C42.8631879 1.43377475 42.54969481 2.74605024 42.23387146 4.05775452 C42.05984802 4.78865295 41.88582458 5.51955139 41.70652771 6.27259827 C41.17137146 8.12025452 41.17137146 8.12025452 40.17137146 9.12025452 C37.64540887 9.35678974 35.14029939 9.54199143 32.60887146 9.68275452 C31.89795349 9.72593811 31.18703552 9.7691217 30.45457458 9.81361389 C28.69375234 9.91997228 26.93258826 10.02064298 25.17137146 10.12025452 C25.0041156 10.71016174 24.83685974 11.30006897 24.66453552 11.90785217 C22.72733798 18.56843139 20.40359617 25.02076294 17.92137146 31.49525452 C14.96037743 39.29397156 12.08266428 47.1104723 9.35887146 54.99525452 C7.12956392 61.44674504 4.79781629 67.81678693 2.17137146 74.12025452 C-3.43862854 74.12025452 -9.04862854 74.12025452 -14.82862854 74.12025452 C-11.44585177 64.40561353 -7.95934983 54.74494717 -4.32862854 45.12025452 C-0.25277083 34.29301591 -0.25277083 34.29301591 3.73387146 23.43275452 C3.98523865 22.75664124 4.23660583 22.08052795 4.49559021 21.38392639 C5.75560625 17.86095052 6.55398417 14.86985904 6.17137146 11.12025452 C4.50794309 9.45682615 2.38880056 9.75977355 0.10887146 9.55775452 C-0.8102301 9.47396545 -1.72933167 9.39017639 -2.67628479 9.30384827 C-3.38655823 9.24326233 -4.09683167 9.18267639 -4.82862854 9.12025452 C-4.52044498 7.80673429 -4.20695189 6.49445879 -3.89112854 5.18275452 C-3.7171051 4.45185608 -3.54308167 3.72095764 -3.36378479 2.96791077 C-2.67001762 0.57264164 -2.51568895 0.16543708 0 0 Z " fill="#F8B412" transform="translate(520.8286285400391,243.87974548339844)"/>
<path d="M0 0 C-3.549153 3.75480486 -7.28391821 6.72422625 -11.5625 9.625 C-18.60007638 14.53948802 -24.85198398 20.01773465 -31 26 C-31.85924072 26.82854492 -31.85924072 26.82854492 -32.73583984 27.67382812 C-40.37356839 35.0618498 -47.44109139 42.6235625 -54 51 C-54.95232531 52.17618403 -55.90688945 53.35055767 -56.86328125 54.5234375 C-85.46191702 89.34279595 -85.46191702 89.34279595 -95 132 C-98.88471119 128.54335616 -99.58522454 125.08457508 -100 120 C-98.48185991 86.80067324 -69.76900933 54.87094145 -47.75195312 31.83544922 C-46.63665191 30.66699401 -45.52549655 29.49455705 -44.41992188 28.31689453 C-34.45901144 17.71638196 -23.60307538 9.73761105 -10.8125 2.8125 C-10.08135986 2.41329346 -9.35021973 2.01408691 -8.59692383 1.6027832 C-3.36935867 -1.12311956 -3.36935867 -1.12311956 0 0 Z " fill="#F8D8D7" transform="translate(325,128)"/>
<path d="M0 0 C0.99 0.66 1.98 1.32 3 2 C3.69781771 7.83305219 2.11357949 12.42779038 0.11328125 17.79296875 C-0.33504814 19.0338903 -0.33504814 19.0338903 -0.79243469 20.29988098 C-1.74707709 22.93300053 -2.71733682 25.5600653 -3.6875 28.1875 C-4.32062146 29.93259472 -4.9527916 31.67803489 -5.58398438 33.42382812 C-7.0869363 37.564408 -8.61879602 41.6931397 -10.17523193 45.81390381 C-10.69694178 47.19672638 -11.21474474 48.58103476 -11.72711182 49.96734619 C-12.3505483 51.64690396 -12.99665355 53.31799929 -13.64453125 54.98828125 C-13.98460205 55.87684814 -14.32467285 56.76541504 -14.67504883 57.6809082 C-16.34402958 60.60216271 -18.22175839 62.13106885 -21 64 C-26.05717627 64.70800468 -26.05717627 64.70800468 -28.68701172 62.7331543 C-30.3700404 60.51154393 -30.25666271 59.5601683 -29.8828125 56.83203125 C-29.18118493 52.14663422 -27.71261772 48.03303643 -25.875 43.6875 C-25.23777029 42.11975216 -24.60377527 40.5506865 -23.97265625 38.98046875 C-23.64668457 38.17013184 -23.32071289 37.35979492 -22.98486328 36.52490234 C-21.30769406 32.22512938 -19.81428963 27.8634514 -18.3125 23.5 C-17.45690345 21.04250017 -16.59941255 18.58566792 -15.74169922 16.12890625 C-15.10660473 14.30598856 -14.47661419 12.48129406 -13.84765625 10.65625 C-11.25836458 3.58509201 -8.33908428 -1.08770665 0 0 Z " fill="#030200" transform="translate(428,249)"/>
<path d="M0 0 C3.89752834 1.99825659 7.17990067 4.37244751 10.4609375 7.26171875 C11.05519531 7.76316406 11.64945313 8.26460938 12.26171875 8.78125 C19.44176586 15.32448584 25.29101673 24.47663966 25.8984375 34.32421875 C25.80697835 41.25224961 22.23746873 47.37988993 17.50390625 52.29296875 C15.88489686 53.69105425 14.1804518 54.98927816 12.4609375 56.26171875 C13.5628101 53.46465755 14.69643994 50.80882945 16.0859375 48.13671875 C19.40978053 40.24472222 17.65202193 31.81380183 14.78125 24.0546875 C10.78518091 15.60146444 3.31961036 9.84590678 -5.125 6.12109375 C-8.17821589 5.03418842 -10.31731883 4.85900079 -13.5390625 5.26171875 C-16.38826303 7.13941017 -16.38826303 7.13941017 -18.5390625 9.26171875 C-13.25601585 12.09891047 -8.39038585 13.99851089 -2.54296875 15.35546875 C-0.5390625 16.26171875 -0.5390625 16.26171875 0.37109375 18.23046875 C0.40074219 18.90078125 0.43039063 19.57109375 0.4609375 20.26171875 C-2.1353144 22.85797065 -3.29593757 22.5892368 -6.9140625 22.63671875 C-14.82972391 22.50336224 -21.97974285 20.53968332 -28.6640625 16.26171875 C-31.79471277 12.92235846 -32.55999304 11.43382891 -32.4765625 6.76171875 C-31.1845264 1.9381173 -28.86640052 0.6943246 -24.78125 -1.8203125 C-17.1236986 -4.95537274 -7.38760218 -3.08719446 0 0 Z " fill="#F0A3A5" transform="translate(105.5390625,260.73828125)"/>
<path d="M0 0 C2.75329021 1.79562405 4.52627461 3.05254922 6 6 C6.15067214 7.4465242 6.24861036 8.8987934 6.31640625 10.3515625 C6.35830078 11.20234375 6.40019531 12.053125 6.44335938 12.9296875 C6.48267578 13.81914063 6.52199219 14.70859375 6.5625 15.625 C6.60568359 16.5221875 6.64886719 17.419375 6.69335938 18.34375 C6.79956861 20.56234283 6.90161194 22.7810488 7 25 C7.7425 24.34 8.485 23.68 9.25 23 C12 21 12 21 16 21 C14.84826645 23.46800047 13.95216435 25.04783565 12 27 C9.31160615 27.26991906 6.70858064 27.08737357 4 27 C3.896875 27.721875 3.79375 28.44375 3.6875 29.1875 C2.93206053 32.27793421 1.84468685 34.41743841 0 37 C-0.66 37 -1.32 37 -2 37 C-1 29.57142857 -1 29.57142857 0 26 C-2.80494773 28.27902003 -3.91813151 29.34505209 -4.375 33 C-4.02059186 35.83526512 -3.48338437 37.58950039 -2 40 C-4.375 40.1875 -4.375 40.1875 -7 40 C-9.50304378 36.24543433 -9.45280074 34.45254066 -9 30 C-7.24505919 26.89960457 -5.51174333 24.51174333 -3 22 C-1.68 22 -0.36 22 1 22 C0.54901762 20.06077578 0.08894441 18.12366406 -0.375 16.1875 C-0.63023437 15.10855469 -0.88546875 14.02960937 -1.1484375 12.91796875 C-1.88732881 9.84466657 -1.88732881 9.84466657 -4 7 C-7.22505812 6.42486464 -8.57210217 6.70472119 -11.28125 8.57421875 C-12.0134375 9.27160156 -12.745625 9.96898437 -13.5 10.6875 C-14.27730469 11.41195312 -15.05460938 12.13640625 -15.85546875 12.8828125 C-17.56462249 14.57017375 -19.19485598 16.28960222 -20.8125 18.0625 C-21.534375 18.701875 -22.25625 19.34125 -23 20 C-25.3125 19.8125 -25.3125 19.8125 -27 19 C-25.36052893 14.85133844 -22.35499158 12.02355871 -19.25 8.9375 C-18.48042969 8.14375977 -18.48042969 8.14375977 -17.6953125 7.33398438 C-12.50458377 2.13673462 -7.61777939 -0.96953556 0 0 Z " fill="#0F0B0B" transform="translate(200,38)"/>
<path d="M0 0 C2.70511973 2.15889363 4.14415291 3.60433374 5.25 6.921875 C5.64308695 11.71753577 5.73270142 13.99095084 3.5 18.296875 C0.92072126 21.30603353 -0.97894312 22.58141305 -4.86328125 23.328125 C-9.23780285 23.51460549 -12.17888486 23.14246277 -15.75 20.484375 C-18.9457467 17.34065208 -19.80043464 14.53100938 -19.95703125 10.1015625 C-19.54965953 5.81263008 -17.91460506 3.01134425 -14.8125 0.109375 C-10.06774264 -2.622455 -4.85784325 -2.99277843 0 0 Z M-10.75 2.921875 C-10.75 3.251875 -10.75 3.581875 -10.75 3.921875 C-8.44 3.921875 -6.13 3.921875 -3.75 3.921875 C-3.75 3.591875 -3.75 3.261875 -3.75 2.921875 C-6.06 2.921875 -8.37 2.921875 -10.75 2.921875 Z M-13.75 4.921875 C-15.58695434 9.26115469 -15.58695434 9.26115469 -14.875 13.796875 C-14.50375 14.498125 -14.1325 15.199375 -13.75 15.921875 C-13.42 15.921875 -13.09 15.921875 -12.75 15.921875 C-12.75 12.291875 -12.75 8.661875 -12.75 4.921875 C-13.08 4.921875 -13.41 4.921875 -13.75 4.921875 Z M-0.75 5.921875 C-1.13922918 7.20932536 -1.51098036 8.50207097 -1.875 9.796875 C-2.08382812 10.51617187 -2.29265625 11.23546875 -2.5078125 11.9765625 C-2.58773437 12.61851562 -2.66765625 13.26046875 -2.75 13.921875 C-2.09 14.581875 -1.43 15.241875 -0.75 15.921875 C1.81687367 12.0715645 1.08288724 10.33617737 0.25 5.921875 C-0.08 5.921875 -0.41 5.921875 -0.75 5.921875 Z M-8.75 6.921875 C-8.75 7.581875 -8.75 8.241875 -8.75 8.921875 C-7.43 8.921875 -6.11 8.921875 -4.75 8.921875 C-4.75 8.261875 -4.75 7.601875 -4.75 6.921875 C-6.07 6.921875 -7.39 6.921875 -8.75 6.921875 Z M-8.75 11.921875 C-9.08 14.231875 -9.41 16.541875 -9.75 18.921875 C-8.1 18.921875 -6.45 18.921875 -4.75 18.921875 C-5.35183749 16.90142058 -6.02306096 14.90076461 -6.75 12.921875 C-7.41 12.591875 -8.07 12.261875 -8.75 11.921875 Z " fill="#000000" transform="translate(592.75,238.078125)"/>
<path d="M0 0 C0.7940625 0.09796875 1.588125 0.1959375 2.40625 0.296875 C3.59734375 0.42835938 3.59734375 0.42835938 4.8125 0.5625 C6.90625 1.046875 6.90625 1.046875 8.90625 3.046875 C10.01721938 10.54591831 7.24465523 16.92981774 2.90625 23.046875 C-1.12050675 25.22883008 -4.54830538 25.30911219 -9.09375 25.046875 C-10.09375 24.046875 -10.09375 24.046875 -10.3359375 21.5 C-10.03495668 17.20859605 -8.78426132 13.77254561 -7.21875 9.796875 C-6.81462891 8.71792969 -6.81462891 8.71792969 -6.40234375 7.6171875 C-3.50829519 0.07854392 -3.50829519 0.07854392 0 0 Z " fill="#060400" transform="translate(481.09375,250.953125)"/>
<path d="M0 0 C9 17.33606557 9 17.33606557 9 23 C3.03570884 22.58866958 -0.08239266 21.62966256 -5 18 C-5.66 18 -6.32 18 -7 18 C-7.7425 19.2375 -7.7425 19.2375 -8.5 20.5 C-9.2425 21.7375 -9.2425 21.7375 -10 23 C-10.66 23 -11.32 23 -12 23 C-12.07347656 21.89591797 -12.07347656 21.89591797 -12.1484375 20.76953125 C-12.22320312 19.79371094 -12.29796875 18.81789063 -12.375 17.8125 C-12.44460937 16.84957031 -12.51421875 15.88664062 -12.5859375 14.89453125 C-13.00215853 11.98491062 -13.79874096 9.67109226 -15 7 C-12.87767021 5.82823482 -10.75242209 4.66245215 -8.625 3.5 C-7.72007812 2.99919922 -7.72007812 2.99919922 -6.796875 2.48828125 C-2.2265625 0 -2.2265625 0 0 0 Z " fill="#EFA3A5" transform="translate(247,40)"/>
<path d="M0 0 C2.5 1.4375 2.5 1.4375 4 4 C4.6062525 7.32916245 4.87103225 10.62104488 5 14 C0.06889557 14 -0.59408763 12.94170203 -4.0625 9.625 C-6.66328728 7.16109626 -9.01467222 4.99021852 -12 3 C-11.67 2.01 -11.34 1.02 -11 0 C-7.4927582 -1.7536209 -3.73072605 -0.82314952 0 0 Z " fill="#E99FA1" transform="translate(120,252)"/>
<path d="M0 0 C0.34718988 3.73229119 0.23503152 5.59957594 -1.6875 8.875 C-4 11 -4 11 -6.75 11.3125 C-7.86375 11.1578125 -7.86375 11.1578125 -9 11 C-8.10164835 3.21428571 -8.10164835 3.21428571 -6 0 C-3.50907189 -1.24546405 -2.58919267 -0.7767578 0 0 Z " fill="#564746" transform="translate(221,68)"/>
<path d="M0 0 C2.25 0.25 2.25 0.25 4 1 C4.625 3.375 4.625 3.375 5 6 C3 8 3 8 0.375 8.125 C-0.40875 8.08375 -1.1925 8.0425 -2 8 C-2.66 6.68 -3.32 5.36 -4 4 C-2.25 1.9375 -2.25 1.9375 0 0 Z " fill="#E79D9F" transform="translate(152,231)"/>
<path d="M0 0 C-1.3042328 3.9126984 -2.78934739 6.37310241 -6 9 C-6.99 9 -7.98 9 -9 9 C-9.3125 6.75 -9.3125 6.75 -9 4 C-5.79364489 0.70457948 -4.69279787 0 0 0 Z " fill="#0A0707" transform="translate(131,201)"/>
<path d="M0 0 C0.33 0.66 0.66 1.32 1 2 C0.67 2.99 0.34 3.98 0 5 C1.65 3.68 3.3 2.36 5 1 C4.25 5.75 4.25 5.75 2 8 C-0.625 8.125 -0.625 8.125 -3 8 C-2.74438677 5.6568787 -2.40729228 3.32156597 -2 1 C-1.34 0.67 -0.68 0.34 0 0 Z " fill="#130E0E" transform="translate(215,71)"/>
<path d="M0 0 C0.66 0 1.32 0 2 0 C1.44687265 4.02992782 0.8441938 8.02022924 0 12 C-0.99 11.34 -1.98 10.68 -3 10 C-3.44935048 6.55497967 -3.37778761 4.65254224 -1.625 1.625 C-1.08875 1.08875 -0.5525 0.5525 0 0 Z " fill="#E8C8C7" transform="translate(198,64)"/>
</svg>
