<?xml version="1.0" encoding="UTF-8"?>
<svg version="1.1" xmlns="http://www.w3.org/2000/svg" width="600" height="600">
<path d="M0 0 C2.31266267 1.32632512 4.40519068 2.63668094 6.41796875 4.38671875 C6.41796875 5.04671875 6.41796875 5.70671875 6.41796875 6.38671875 C7.07796875 6.38671875 7.73796875 6.38671875 8.41796875 6.38671875 C16.72411754 15.09630905 20.368127 26.48046953 20.66796875 38.32421875 C20.36359821 49.18010138 17.30446392 57.72129276 12.41796875 67.38671875 C11.75796875 67.38671875 11.09796875 67.38671875 10.41796875 67.38671875 C10.25296875 68.06734375 10.08796875 68.74796875 9.91796875 69.44921875 C6.44759499 76.24536737 -0.56838214 80.74331691 -7.58203125 83.38671875 C-16.89407105 86.29673119 -24.63116044 86.07215985 -33.80859375 82.84765625 C-37.54611277 80.87887863 -40.47906642 78.22781096 -43.58203125 75.38671875 C-43.72766136 79.66925097 -43.86988565 83.9518804 -44.00927734 88.23461914 C-44.05689865 89.68419263 -44.10536804 91.13373857 -44.15478516 92.58325195 C-44.46032081 101.56537671 -44.62103143 110.51817994 -44.50195312 119.50561523 C-44.58203125 122.38671875 -44.58203125 122.38671875 -45.58203125 124.38671875 C-49.22784812 124.41559387 -52.87363588 124.4334746 -56.51953125 124.44921875 C-57.56044922 124.45759766 -58.60136719 124.46597656 -59.67382812 124.47460938 C-60.66318359 124.47783203 -61.65253906 124.48105469 -62.671875 124.484375 C-63.58831787 124.48961182 -64.50476074 124.49484863 -65.44897461 124.50024414 C-67.58203125 124.38671875 -67.58203125 124.38671875 -68.58203125 123.38671875 C-68.68020333 121.78214684 -68.70835046 120.17324601 -68.70901489 118.56567383 C-68.71183472 117.52238922 -68.71465454 116.47910461 -68.71755981 115.40420532 C-68.71553558 114.24988007 -68.71351135 113.09555481 -68.71142578 111.90625 C-68.7131781 110.69826752 -68.71493042 109.49028503 -68.71673584 108.24569702 C-68.72039403 104.92345921 -68.71952093 101.60128332 -68.71635675 98.27904892 C-68.71383277 94.80948551 -68.7161708 91.33992483 -68.71774292 87.87036133 C-68.7195645 82.04280113 -68.7171586 76.21525359 -68.71240234 70.38769531 C-68.70695974 63.64110583 -68.70872241 56.89454656 -68.71422875 50.1479578 C-68.7187602 44.36537701 -68.71941027 38.58280534 -68.71679008 32.80022335 C-68.71522748 29.34220319 -68.71503307 25.88419724 -68.71832657 22.42617798 C-68.72173964 18.57316911 -68.71701502 14.72019436 -68.71142578 10.8671875 C-68.71345001 9.71286224 -68.71547424 8.55853699 -68.71755981 7.36923218 C-68.71473999 6.32594757 -68.71192017 5.28266296 -68.70901489 4.20776367 C-68.70863787 3.29556564 -68.70826084 2.38336761 -68.70787239 1.44352722 C-68.58203125 -0.61328125 -68.58203125 -0.61328125 -67.58203125 -1.61328125 C-65.95945581 -1.71244695 -64.33263294 -1.74407902 -62.70703125 -1.74609375 C-61.7221875 -1.74738281 -60.73734375 -1.74867188 -59.72265625 -1.75 C-58.68625 -1.74613281 -57.64984375 -1.74226562 -56.58203125 -1.73828125 C-55.02742188 -1.74408203 -55.02742188 -1.74408203 -53.44140625 -1.75 C-52.4565625 -1.74871094 -51.47171875 -1.74742187 -50.45703125 -1.74609375 C-49.54695313 -1.74496582 -48.636875 -1.74383789 -47.69921875 -1.74267578 C-45.58203125 -1.61328125 -45.58203125 -1.61328125 -44.58203125 -0.61328125 C-44.44087964 2.05730726 -44.53956018 4.71104113 -44.58203125 7.38671875 C-43.90140625 6.64421875 -43.90140625 6.64421875 -43.20703125 5.88671875 C-41.58203125 4.38671875 -41.58203125 4.38671875 -39.58203125 4.38671875 C-39.58203125 3.72671875 -39.58203125 3.06671875 -39.58203125 2.38671875 C-37.97912595 1.57173313 -36.37465847 0.75981948 -34.76953125 -0.05078125 C-33.87621094 -0.50324219 -32.98289063 -0.95570313 -32.0625 -1.421875 C-22.1570385 -6.17961635 -9.6369673 -4.52624839 0 0 Z M-38.26953125 16.94921875 C-44.94631181 25.80752167 -46.52954282 37.02154515 -45.30859375 47.80078125 C-44.11784802 55.05759013 -41.40658661 62.55357707 -35.58203125 67.38671875 C-30.36529338 69.97338744 -25.29380587 70.0670919 -19.58203125 69.38671875 C-14.26201272 66.77507329 -10.78089686 63.01016232 -8.31640625 57.6171875 C-4.19499828 44.87680334 -3.52588602 31.69692245 -9.58203125 19.38671875 C-12.89358684 15.00114513 -16.38025571 13.09074867 -21.58203125 11.38671875 C-28.36584047 10.65988205 -33.30860842 12.21903651 -38.26953125 16.94921875 Z " fill="#0D0E12" transform="translate(159.58203125,246.61328125)"/>
<path d="M0 0 C0.83724609 -0.00128906 1.67449219 -0.00257813 2.53710938 -0.00390625 C3.41302734 -0.00003906 4.28894531 0.00382813 5.19140625 0.0078125 C6.06345703 0.00394531 6.93550781 0.00007812 7.83398438 -0.00390625 C8.67251953 -0.00261719 9.51105469 -0.00132812 10.375 0 C11.14255615 0.00112793 11.9101123 0.00225586 12.70092773 0.00341797 C14.75390625 0.1328125 14.75390625 0.1328125 17.75390625 1.1328125 C18.08390625 24.2328125 18.41390625 47.3328125 18.75390625 71.1328125 C20.40390625 68.8228125 22.05390625 66.5128125 23.75390625 64.1328125 C24.41390625 64.1328125 25.07390625 64.1328125 25.75390625 64.1328125 C25.75390625 63.4728125 25.75390625 62.8128125 25.75390625 62.1328125 C26.41390625 62.1328125 27.07390625 62.1328125 27.75390625 62.1328125 C28.02203125 61.56046875 28.29015625 60.988125 28.56640625 60.3984375 C29.79523261 58.05396616 31.17912801 56.00876312 32.75390625 53.8828125 C33.26953125 53.17640625 33.78515625 52.47 34.31640625 51.7421875 C34.79078125 51.21109375 35.26515625 50.68 35.75390625 50.1328125 C36.41390625 50.1328125 37.07390625 50.1328125 37.75390625 50.1328125 C38.01816406 49.56175781 38.28242188 48.99070313 38.5546875 48.40234375 C40.66554875 44.40752165 43.28493248 41.0402106 46.75390625 38.1328125 C53.54222527 37.33418673 59.92818797 42.00471747 65.75390625 45.1328125 C64.26976895 48.61935726 62.29176573 50.77472322 59.56640625 53.3828125 C56.04335332 56.82707511 52.71014106 60.33110587 49.53515625 64.09765625 C48.23822344 65.57945887 46.87346538 67.00270014 45.47265625 68.38671875 C41.3111231 72.1856501 41.3111231 72.1856501 39.6953125 77.2578125 C40.25335467 79.42421294 40.25335467 79.42421294 41.75390625 82.1328125 C42.41390625 82.1328125 43.07390625 82.1328125 43.75390625 82.1328125 C45.26171875 83.8125 45.26171875 83.8125 46.87890625 86.0078125 C47.41773438 86.72710937 47.9565625 87.44640625 48.51171875 88.1875 C49.75390625 90.1328125 49.75390625 90.1328125 49.75390625 92.1328125 C50.41390625 92.1328125 51.07390625 92.1328125 51.75390625 92.1328125 C51.75390625 92.7928125 51.75390625 93.4528125 51.75390625 94.1328125 C52.41390625 94.1328125 53.07390625 94.1328125 53.75390625 94.1328125 C55.26171875 95.8125 55.26171875 95.8125 56.87890625 98.0078125 C57.41773438 98.72710937 57.9565625 99.44640625 58.51171875 100.1875 C59.75390625 102.1328125 59.75390625 102.1328125 59.75390625 104.1328125 C60.41390625 104.1328125 61.07390625 104.1328125 61.75390625 104.1328125 C63.26171875 105.8125 63.26171875 105.8125 64.87890625 108.0078125 C65.41773438 108.72710937 65.9565625 109.44640625 66.51171875 110.1875 C67.75390625 112.1328125 67.75390625 112.1328125 67.75390625 114.1328125 C68.41390625 114.1328125 69.07390625 114.1328125 69.75390625 114.1328125 C69.75390625 115.4528125 69.75390625 116.7728125 69.75390625 118.1328125 C65.2160934 120.24616742 60.65506117 122.25403432 55.94140625 123.9453125 C55.23371094 124.19925781 54.52601563 124.45320313 53.796875 124.71484375 C51.45475318 125.1940159 50.00262701 124.87564835 47.75390625 124.1328125 C47.75390625 123.4728125 47.75390625 122.8128125 47.75390625 122.1328125 C47.09390625 122.1328125 46.43390625 122.1328125 45.75390625 122.1328125 C41.75390625 116.72104779 41.75390625 116.72104779 41.75390625 114.1328125 C41.09390625 114.1328125 40.43390625 114.1328125 39.75390625 114.1328125 C38.30426666 112.22906895 36.94206302 110.25814091 35.62890625 108.2578125 C34.90445313 107.16726563 34.18 106.07671875 33.43359375 104.953125 C31.75390625 102.1328125 31.75390625 102.1328125 31.75390625 100.1328125 C31.09390625 100.1328125 30.43390625 100.1328125 29.75390625 100.1328125 C28.0625 97.83203125 28.0625 97.83203125 26.19140625 94.8203125 C25.57136719 93.83417969 24.95132812 92.84804688 24.3125 91.83203125 C22.75390625 89.1328125 22.75390625 89.1328125 21.75390625 86.1328125 C21.09390625 86.1328125 20.43390625 86.1328125 19.75390625 86.1328125 C19.25890625 85.1428125 19.25890625 85.1428125 18.75390625 84.1328125 C18.7288501 85.30900146 18.70379395 86.48519043 18.67797852 87.69702148 C18.58407819 92.04495872 18.48381577 96.39272966 18.3815918 100.74047852 C18.33817692 102.62520468 18.29650682 104.50997186 18.2565918 106.39477539 C18.19904732 109.09794499 18.13530821 111.80090686 18.0703125 114.50390625 C18.04524376 115.77578041 18.04524376 115.77578041 18.01966858 117.073349 C17.86777796 123.01894079 17.86777796 123.01894079 16.75390625 124.1328125 C15.13133081 124.2319782 13.50450794 124.26361027 11.87890625 124.265625 C10.8940625 124.26691406 9.90921875 124.26820313 8.89453125 124.26953125 C7.858125 124.26566406 6.82171875 124.26179688 5.75390625 124.2578125 C4.19929688 124.26361328 4.19929688 124.26361328 2.61328125 124.26953125 C1.6284375 124.26824219 0.64359375 124.26695312 -0.37109375 124.265625 C-1.28117187 124.26449707 -2.19125 124.26336914 -3.12890625 124.26220703 C-5.24609375 124.1328125 -5.24609375 124.1328125 -6.24609375 123.1328125 C-6.342036 121.55126402 -6.36797335 119.96542125 -6.36634827 118.38096619 C-6.36772293 117.35306473 -6.3690976 116.32516327 -6.37051392 115.26611328 C-6.36691864 114.12891846 -6.36332336 112.99172363 -6.35961914 111.82006836 C-6.35976517 110.62998672 -6.35991119 109.43990509 -6.36006165 108.21376038 C-6.35948269 104.94117976 -6.35445356 101.66864143 -6.34748769 98.39606929 C-6.34125342 94.97942585 -6.34065029 91.56278167 -6.33946228 88.14613342 C-6.33634918 81.67211983 -6.32813608 75.19812304 -6.31811279 68.72411686 C-6.306951 61.3554333 -6.30144104 53.98674895 -6.29641736 46.61805904 C-6.28595344 31.45630081 -6.26835441 16.29455833 -6.24609375 1.1328125 C-3.93085336 -0.0248077 -2.57493313 0.00378945 0 0 Z " fill="#0D0E12" transform="translate(416.24609375,205.8671875)"/>
<path d="M0 0 C3.81248426 -0.02887236 7.6249407 -0.04675492 11.4375 -0.0625 C12.52611328 -0.07087891 13.61472656 -0.07925781 14.73632812 -0.08789062 C15.77080078 -0.09111328 16.80527344 -0.09433594 17.87109375 -0.09765625 C18.82943115 -0.10289307 19.78776855 -0.10812988 20.77514648 -0.11352539 C23 0 23 0 24 1 C24.10240188 2.80916328 24.13571135 4.62227753 24.1418457 6.43432617 C24.14888016 7.59610886 24.15591461 8.75789154 24.16316223 9.95487976 C24.16732651 11.22144913 24.17149078 12.48801849 24.17578125 13.79296875 C24.19303886 15.77005331 24.21032007 17.747138 24.22898388 19.72420979 C24.27460515 24.61436764 24.31227387 29.50441661 24.32592773 34.39477539 C24.33407352 37.13255307 24.35267766 39.86987465 24.38285828 42.60749817 C24.4110067 45.1883375 24.42391843 47.76939772 24.41999817 50.35038757 C24.49398352 58.99366484 24.49398352 58.99366484 29 66 C32.53424712 68.35616475 34.18644102 68.2981228 38.375 68.3125 C40.05722656 68.33763672 40.05722656 68.33763672 41.7734375 68.36328125 C45.3069696 67.96543805 47.17135569 67.11376875 50 65 C50.495 64.01 50.495 64.01 51 63 C51.66 63 52.32 63 53 63 C55.39284211 54.78371161 56.45991282 47.21409644 56.51171875 38.671875 C56.52966995 37.55685608 56.54762115 36.44183716 56.56611633 35.29302979 C56.61971535 31.77872348 56.65395225 28.26454894 56.6875 24.75 C56.7207176 22.3476381 56.75521128 19.94529349 56.79101562 17.54296875 C56.87541207 11.69543091 56.94397205 5.84787487 57 0 C60.81248426 -0.02887236 64.6249407 -0.04675492 68.4375 -0.0625 C69.52611328 -0.07087891 70.61472656 -0.07925781 71.73632812 -0.08789062 C72.77080078 -0.09111328 73.80527344 -0.09433594 74.87109375 -0.09765625 C75.82943115 -0.10289307 76.78776855 -0.10812988 77.77514648 -0.11352539 C80 0 80 0 81 1 C81.10039611 3.58100756 81.13617269 6.13527897 81.12939453 8.71679688 C81.13202301 9.92892601 81.13202301 9.92892601 81.13470459 11.1655426 C81.13912376 13.8499666 81.13618489 16.53432528 81.1328125 19.21875 C81.13348552 21.07580579 81.13445553 22.9328615 81.13571167 24.78991699 C81.13718873 28.68726437 81.13503382 32.58458887 81.13037109 36.48193359 C81.1246738 41.489345 81.12795276 46.49670281 81.13394356 51.50411224 C81.13754895 55.34039721 81.13641069 59.17666937 81.13381577 63.01295471 C81.13314644 64.85982774 81.13397513 66.70670192 81.13629532 68.55357361 C81.13882149 71.13014832 81.13498177 73.70663501 81.12939453 76.28320312 C81.13141876 77.0541481 81.13344299 77.82509308 81.13552856 78.61940002 C81.11426255 83.88573745 81.11426255 83.88573745 80 85 C78.29227642 85.08713831 76.58101351 85.10700007 74.87109375 85.09765625 C73.31938477 85.09282227 73.31938477 85.09282227 71.73632812 85.08789062 C70.64771484 85.07951172 69.55910156 85.07113281 68.4375 85.0625 C66.7987793 85.05573242 66.7987793 85.05573242 65.12695312 85.04882812 C62.41791505 85.03699826 59.70898401 85.02051543 57 85 C56.505 80.545 56.505 80.545 56 76 C55.45472656 76.47050781 54.90945313 76.94101562 54.34765625 77.42578125 C49.1293419 81.73423566 44.56192061 84.36892987 38 86 C37.35804688 86.18175781 36.71609375 86.36351562 36.0546875 86.55078125 C25.8714636 88.77715149 16.98721921 85.62914771 8 81 C8 80.34 8 79.68 8 79 C7.34 79 6.68 79 6 79 C1.20161723 72.85207208 -0.2566208 66.84971829 -0.22705078 59.14672852 C-0.22734283 58.50197067 -0.22763489 57.85721283 -0.22793579 57.19291687 C-0.22655626 55.08810374 -0.21106128 52.98365658 -0.1953125 50.87890625 C-0.19157745 49.40917657 -0.1887328 47.93944438 -0.18673706 46.4697113 C-0.1791393 42.62115477 -0.15952447 38.77275171 -0.1373291 34.92425537 C-0.11678708 30.98923823 -0.10771755 27.05419605 -0.09765625 23.11914062 C-0.0762745 15.41269082 -0.04218578 7.706367 0 0 Z " fill="#0D0E12" transform="translate(223,245)"/>
<path d="M0 0 C7.48794215 5.01921013 11.62612321 10.31507395 13.7890625 19.19921875 C14.03630066 22.46395874 14.03630066 22.46395874 14.03198242 25.85302734 C14.03659737 27.76938492 14.03659737 27.76938492 14.04130554 29.72445679 C14.03441097 31.09885848 14.02714425 32.47325835 14.01953125 33.84765625 C14.01833773 35.27015135 14.01788665 36.69264725 14.0181427 38.11514282 C14.01658529 41.08218383 14.00834795 44.04910291 13.99487305 47.01611328 C13.97779096 50.82613546 13.97406175 54.63602516 13.97481823 58.44608116 C13.97454707 61.37648796 13.96907605 64.3068656 13.96181679 67.23726273 C13.95862881 68.64314173 13.95666241 70.04902404 13.95592308 71.45490646 C13.95376617 73.41054215 13.94423872 75.36616559 13.93432617 77.32177734 C13.93051437 78.43539642 13.92670258 79.5490155 13.92277527 80.69638062 C13.7890625 83.19921875 13.7890625 83.19921875 12.7890625 84.19921875 C11.16648706 84.29838445 9.53966419 84.33001652 7.9140625 84.33203125 C6.92921875 84.33332031 5.944375 84.33460938 4.9296875 84.3359375 C3.89328125 84.33207031 2.856875 84.32820313 1.7890625 84.32421875 C0.23445313 84.33001953 0.23445313 84.33001953 -1.3515625 84.3359375 C-2.33640625 84.33464844 -3.32125 84.33335937 -4.3359375 84.33203125 C-5.24601562 84.33090332 -6.15609375 84.32977539 -7.09375 84.32861328 C-9.2109375 84.19921875 -9.2109375 84.19921875 -10.2109375 83.19921875 C-10.31851557 81.42085071 -10.35719488 79.63827152 -10.36865234 77.85668945 C-10.37891449 76.71492752 -10.38917664 75.57316559 -10.39974976 74.39680481 C-10.40705109 73.15210922 -10.41435242 71.90741364 -10.421875 70.625 C-10.44995062 68.0123636 -10.47861513 65.39973348 -10.5078125 62.78710938 C-10.55021368 58.65050654 -10.58696194 54.51394123 -10.61230469 50.37719727 C-10.63734643 46.39708436 -10.68580119 42.41739676 -10.734375 38.4375 C-10.73762787 37.20292557 -10.74088074 35.96835114 -10.74423218 34.69636536 C-10.83029092 28.68331793 -10.94169299 24.30829548 -14.2109375 19.19921875 C-14.2109375 18.53921875 -14.2109375 17.87921875 -14.2109375 17.19921875 C-20.93097098 14.98194882 -26.57264588 13.18040204 -33.3046875 16.05859375 C-37.72695653 18.70470555 -39.76740114 21.81491895 -41.31616211 26.64868164 C-42.59943982 32.16001427 -42.54647448 37.6865898 -42.58984375 43.3203125 C-42.60683823 44.46081558 -42.6238327 45.60131866 -42.64134216 46.77638245 C-42.6942145 50.39643928 -42.73468625 54.0164854 -42.7734375 57.63671875 C-42.8173379 61.28189134 -42.86393413 64.92697488 -42.91624451 68.57203674 C-42.94826259 70.83558929 -42.97513346 73.09922139 -42.99647522 75.36289978 C-43.00996506 76.37808182 -43.0234549 77.39326385 -43.03735352 78.43920898 C-43.04686539 79.33663315 -43.05637726 80.23405731 -43.06617737 81.15867615 C-43.2109375 83.19921875 -43.2109375 83.19921875 -44.2109375 84.19921875 C-45.83351294 84.29838445 -47.46033581 84.33001652 -49.0859375 84.33203125 C-50.07078125 84.33332031 -51.055625 84.33460938 -52.0703125 84.3359375 C-53.10671875 84.33207031 -54.143125 84.32820313 -55.2109375 84.32421875 C-56.76554687 84.33001953 -56.76554687 84.33001953 -58.3515625 84.3359375 C-59.33640625 84.33464844 -60.32125 84.33335937 -61.3359375 84.33203125 C-62.24601562 84.33090332 -63.15609375 84.32977539 -64.09375 84.32861328 C-66.2109375 84.19921875 -66.2109375 84.19921875 -67.2109375 83.19921875 C-67.31133361 80.61821119 -67.34711019 78.06393978 -67.34033203 75.48242188 C-67.34208435 74.67433578 -67.34383667 73.86624969 -67.34564209 73.03367615 C-67.35006126 70.34925215 -67.34712239 67.66489347 -67.34375 64.98046875 C-67.34442302 63.12341296 -67.34539303 61.26635725 -67.34664917 59.40930176 C-67.34812623 55.51195438 -67.34597132 51.61462988 -67.34130859 47.71728516 C-67.3356113 42.70987375 -67.33889026 37.70251594 -67.34488106 32.69510651 C-67.34848645 28.85882154 -67.34734819 25.02254938 -67.34475327 21.18626404 C-67.34408394 19.33939101 -67.34491263 17.49251683 -67.34723282 15.64564514 C-67.34975899 13.06907043 -67.34591927 10.49258374 -67.34033203 7.91601562 C-67.34235626 7.14507065 -67.34438049 6.37412567 -67.34646606 5.57981873 C-67.32520005 0.3134813 -67.32520005 0.3134813 -66.2109375 -0.80078125 C-64.50321392 -0.88791956 -62.79195101 -0.90778132 -61.08203125 -0.8984375 C-59.53032227 -0.89360352 -59.53032227 -0.89360352 -57.94726562 -0.88867188 C-56.85865234 -0.88029297 -55.77003906 -0.87191406 -54.6484375 -0.86328125 C-53.0097168 -0.85651367 -53.0097168 -0.85651367 -51.33789062 -0.84960938 C-48.62885255 -0.83777951 -45.91992151 -0.82129668 -43.2109375 -0.80078125 C-42.8809375 1.83921875 -42.5509375 4.47921875 -42.2109375 7.19921875 C-41.5509375 7.19921875 -40.8909375 7.19921875 -40.2109375 7.19921875 C-40.2109375 6.53921875 -40.2109375 5.87921875 -40.2109375 5.19921875 C-39.5509375 5.19921875 -38.8909375 5.19921875 -38.2109375 5.19921875 C-38.2109375 4.53921875 -38.2109375 3.87921875 -38.2109375 3.19921875 C-27.35339963 -3.44825342 -11.76968795 -6.47560051 0 0 Z " fill="#0D0E12" transform="translate(383.2109375,245.80078125)"/>
<path d="M0 0 C-0.52268466 2.76276177 -1.10869587 5.3260876 -2 8 C-2.66 8 -3.32 8 -4 8 C-4.66 9.32 -5.32 10.64 -6 12 C-8.75732824 11.51341266 -11.24183206 10.91062728 -13.875 9.9375 C-18.76870461 8.46938862 -23.11955918 8.66800196 -28 10 C-28.81044131 13.06469402 -29.32052406 15.83094755 -29 19 C-27.37046152 21.0347902 -25.70999182 22.33618957 -23.56640625 23.80859375 C-23.04949219 24.20175781 -22.53257813 24.59492188 -22 25 C-22 25.66 -22 26.32 -22 27 C-21.236875 27.28875 -20.47375 27.5775 -19.6875 27.875 C-17 29 -17 29 -14 31 C-14 31.66 -14 32.32 -14 33 C-12.89011719 33.37898438 -12.89011719 33.37898438 -11.7578125 33.765625 C-8.81340656 35.08351774 -7.13196176 36.46648575 -4.875 38.75 C-4.21242187 39.40484375 -3.54984375 40.0596875 -2.8671875 40.734375 C1.6147046 46.17265412 2.42680726 50.58849144 2.1875 57.375 C2.16719727 58.47908203 2.16719727 58.47908203 2.14648438 59.60546875 C2.11144869 61.40396743 2.05765288 63.20208422 2 65 C1.34 65 0.68 65 0 65 C0 66.32 0 67.64 0 69 C-0.66 69 -1.32 69 -2 69 C-2.2784375 70.0828125 -2.2784375 70.0828125 -2.5625 71.1875 C-4.9575016 75.87337269 -8.7432297 78.16107771 -13.54296875 79.9453125 C-16.01716739 80.69817058 -18.4900438 81.3777663 -21 82 C-21.67675781 82.185625 -22.35351562 82.37125 -23.05078125 82.5625 C-34.19746285 85.0643604 -45.28416017 80.7923927 -54.91796875 75.5 C-57 74 -57 74 -58 71 C-56.890625 68.58984375 -56.890625 68.58984375 -55.25 65.9375 C-54.45335937 64.62072266 -54.45335937 64.62072266 -53.640625 63.27734375 C-52 61 -52 61 -49 59 C-46.96166576 60.2739589 -44.96147874 61.61061923 -43 63 C-43 63.66 -43 64.32 -43 65 C-39.39959663 65.82481968 -36.06648597 66.13516938 -32.375 66.125 C-30.96347656 66.12886719 -30.96347656 66.12886719 -29.5234375 66.1328125 C-26.87322493 66.10547998 -26.87322493 66.10547998 -24 65 C-24 64.34 -24 63.68 -24 63 C-23.34 63 -22.68 63 -22 63 C-22.66 59.04 -23.32 55.08 -24 51 C-24.66 51 -25.32 51 -26 51 C-26 50.34 -26 49.68 -26 49 C-26.70769531 48.76410156 -27.41539063 48.52820313 -28.14453125 48.28515625 C-31.50348493 46.77339735 -33.88402217 44.82026492 -36.6875 42.4375 C-40.13816051 39.40830054 -40.13816051 39.40830054 -44 37 C-44 36.34 -44 35.68 -44 35 C-44.66 35 -45.32 35 -46 35 C-46 34.34 -46 33.68 -46 33 C-46.66 33 -47.32 33 -48 33 C-52.3761037 28.72998366 -53.42003555 23.95677939 -53.625 18 C-53.31148783 9.85739229 -50.85359943 5.91996221 -45.3125 0.25 C-31.37758438 -10.07864349 -14.53363154 -7.38321786 0 0 Z " fill="#0D0E12" transform="translate(81,249)"/>
<path d="M0 0 C1.40282227 -0.00193359 1.40282227 -0.00193359 2.83398438 -0.00390625 C4.3102832 0.00189453 4.3102832 0.00189453 5.81640625 0.0078125 C6.79673828 0.00394531 7.77707031 0.00007812 8.78710938 -0.00390625 C9.72361328 -0.00261719 10.66011719 -0.00132812 11.625 0 C12.91942017 0.00169189 12.91942017 0.00169189 14.23999023 0.00341797 C16.37890625 0.1328125 16.37890625 0.1328125 18.37890625 1.1328125 C18.37890625 41.3928125 18.37890625 81.6528125 18.37890625 123.1328125 C15.87393621 124.38529752 14.17037351 124.24655656 11.37109375 124.23046875 C10.38496094 124.22724609 9.39882812 124.22402344 8.3828125 124.22070312 C7.35027344 124.21232422 6.31773437 124.20394531 5.25390625 124.1953125 C3.69349609 124.18854492 3.69349609 124.18854492 2.1015625 124.18164062 C-0.47271337 124.16983202 -3.04687521 124.15336325 -5.62109375 124.1328125 C-5.64442291 108.11287713 -5.66207301 92.09294724 -5.67290592 76.072999 C-5.67806884 68.6351674 -5.68511146 61.19734633 -5.6965332 53.75952148 C-5.70648016 47.27899908 -5.71294721 40.79848431 -5.71518224 34.31795448 C-5.71648933 30.88450708 -5.71957505 27.4510815 -5.72682381 24.01764107 C-5.73483791 20.19087429 -5.73508488 16.36412915 -5.73461914 12.53735352 C-5.73821442 11.39080795 -5.74180969 10.24426239 -5.74551392 9.06297302 C-5.74413925 8.02665741 -5.74276459 6.9903418 -5.74134827 5.92262268 C-5.74227006 5.01650018 -5.74319185 4.11037767 -5.74414158 3.17679691 C-5.50990883 -0.71411364 -3.38274574 0.00442726 0 0 Z " fill="#0D0F12" transform="translate(192.62109375,205.8671875)"/>
<path d="M0 0 C5.54658451 1.62603455 10.49711589 4.13584138 15.625 6.75 C16.50639648 7.19520996 17.38779297 7.64041992 18.29589844 8.09912109 C20.05317169 8.98677268 21.80970049 9.8758998 23.56542969 10.76660156 C26.78731178 12.39886674 30.01800398 14.01285879 33.25 15.625 C34.83333333 16.41666667 36.41666667 17.20833333 38 18 C38 18.66 38 19.32 38 20 C38.680625 20.103125 39.36125 20.20625 40.0625 20.3125 C43.62915989 21.14725019 46.66222194 22.49472754 50 24 C50 24.66 50 25.32 50 26 C51.32 26 52.64 26 54 26 C54 26.66 54 27.32 54 28 C54.66 28.0825 55.32 28.165 56 28.25 C60.03707907 29.25926977 63.31688508 31.06480402 67 33 C67 37.95 67 42.9 67 48 C58.96290165 52.37663772 50.91910033 56.57127504 42.625 60.4375 C36.39053689 63.34670663 30.25317461 66.37800668 24.1875 69.625 C23.4965625 69.99407471 22.805625 70.36314941 22.09375 70.7434082 C20.73313286 71.47067356 19.37261671 72.19812789 18.01220703 72.92578125 C14.72687673 74.67965814 11.43499805 76.41809902 8.125 78.125 C7.01382813 78.70507812 5.90265625 79.28515625 4.7578125 79.8828125 C2 81 2 81 -1 80 C-1 75.05 -1 70.1 -1 65 C3.55801634 62.35613313 8.14517005 59.86332025 12.859375 57.50390625 C13.48926331 57.18848373 14.11915161 56.87306122 14.76812744 56.54808044 C16.09199766 55.88580765 17.41636531 55.22452835 18.74121094 54.56420898 C20.73262049 53.57116652 22.72187348 52.57390253 24.7109375 51.57617188 C32.07310092 47.893371 39.47087851 44.33306149 47 41 C38.13302227 36.11125556 29.13691378 31.55225845 20 27.1875 C19.021521 26.71981201 18.04304199 26.25212402 17.03491211 25.77026367 C12.0631255 23.40905935 7.07820649 21.12297244 2 19 C2 18.34 2 17.68 2 17 C1.01 16.67 0.02 16.34 -1 16 C-1.02685095 13.52076199 -1.04676547 11.0418116 -1.0625 8.5625 C-1.07506836 7.50192383 -1.07506836 7.50192383 -1.08789062 6.41992188 C-1.09653588 4.61306441 -1.05220011 2.80612397 -1 1 C-0.67 0.67 -0.34 0.34 0 0 Z " fill="#71AE34" transform="translate(505,246)"/>
<path d="M0 0 C0.83724609 -0.00128906 1.67449219 -0.00257813 2.53710938 -0.00390625 C3.41302734 -0.00003906 4.28894531 0.00382813 5.19140625 0.0078125 C6.06345703 0.00394531 6.93550781 0.00007812 7.83398438 -0.00390625 C8.67251953 -0.00261719 9.51105469 -0.00132812 10.375 0 C11.14255615 0.00112793 11.9101123 0.00225586 12.70092773 0.00341797 C14.75390625 0.1328125 14.75390625 0.1328125 17.75390625 1.1328125 C18.08390625 24.2328125 18.41390625 47.3328125 18.75390625 71.1328125 C20.40390625 68.8228125 22.05390625 66.5128125 23.75390625 64.1328125 C24.41390625 64.1328125 25.07390625 64.1328125 25.75390625 64.1328125 C25.75390625 63.4728125 25.75390625 62.8128125 25.75390625 62.1328125 C26.41390625 62.1328125 27.07390625 62.1328125 27.75390625 62.1328125 C28.02203125 61.56046875 28.29015625 60.988125 28.56640625 60.3984375 C29.79523261 58.05396616 31.17912801 56.00876312 32.75390625 53.8828125 C33.26953125 53.17640625 33.78515625 52.47 34.31640625 51.7421875 C34.79078125 51.21109375 35.26515625 50.68 35.75390625 50.1328125 C36.41390625 50.1328125 37.07390625 50.1328125 37.75390625 50.1328125 C38.00914062 49.56046875 38.264375 48.988125 38.52734375 48.3984375 C40.65124181 44.47531369 43.77910922 41.43814254 46.75390625 38.1328125 C50.71390625 40.1128125 54.67390625 42.0928125 58.75390625 44.1328125 C56.75390625 45.1328125 56.75390625 45.1328125 54.58984375 44.57421875 C53.77773438 44.28417969 52.965625 43.99414062 52.12890625 43.6953125 C51.31164062 43.40785156 50.494375 43.12039062 49.65234375 42.82421875 C49.02585937 42.59605469 48.399375 42.36789063 47.75390625 42.1328125 C43.13270492 47.16915721 38.60953592 52.24989823 34.31640625 57.5703125 C32.79928807 59.42752021 31.27830425 61.2815754 29.75390625 63.1328125 C29.32899902 63.65182129 28.9040918 64.17083008 28.46630859 64.70556641 C27.16350202 66.28093067 25.83754434 67.83351592 24.50390625 69.3828125 C23.715 70.31609375 22.92609375 71.249375 22.11328125 72.2109375 C21.3346875 72.84515625 20.55609375 73.479375 19.75390625 74.1328125 C18.10390625 73.8028125 16.45390625 73.4728125 14.75390625 73.1328125 C14.75390625 50.0328125 14.75390625 26.9328125 14.75390625 3.1328125 C8.81390625 3.1328125 2.87390625 3.1328125 -3.24609375 3.1328125 C-3.24609375 42.0728125 -3.24609375 81.0128125 -3.24609375 121.1328125 C2.69390625 121.1328125 8.63390625 121.1328125 14.75390625 121.1328125 C14.75390625 107.2728125 14.75390625 93.4128125 14.75390625 79.1328125 C16.23890625 78.6378125 16.23890625 78.6378125 17.75390625 78.1328125 C23.46637017 84.79030131 28.59788459 91.65227454 33.50048828 98.91455078 C37.30948048 104.54308263 41.29926185 110.01852117 45.40185547 115.43652344 C48.75390625 119.9198453 48.75390625 119.9198453 48.75390625 122.1328125 C49.80191406 121.771875 50.84992188 121.4109375 51.9296875 121.0390625 C53.30851276 120.57007432 54.6874235 120.1013374 56.06640625 119.6328125 C57.1018457 119.27509766 57.1018457 119.27509766 58.15820312 118.91015625 C61.14322114 117.90072987 63.58049539 117.1328125 66.75390625 117.1328125 C61.61224533 110.07323044 56.25839812 103.23661137 50.69140625 96.5078125 C50.09110596 95.77925049 49.49080566 95.05068848 48.87231445 94.30004883 C46.29167 91.17365516 43.70265478 88.05954771 41.04296875 85 C40.30820312 84.13632812 39.5734375 83.27265625 38.81640625 82.3828125 C38.18863281 81.66609375 37.56085938 80.949375 36.9140625 80.2109375 C35.75390625 78.1328125 35.75390625 78.1328125 35.8046875 75.63671875 C36.97509984 72.54933476 38.46263539 71.06048226 40.87890625 68.8203125 C45.10530482 64.78115943 48.96358315 60.57814535 52.75390625 56.1328125 C54.00049503 54.67156217 55.25045451 53.2131801 56.50390625 51.7578125 C57.055625 51.11070312 57.60734375 50.46359375 58.17578125 49.796875 C59.75390625 48.1328125 59.75390625 48.1328125 62.75390625 46.1328125 C64.23890625 46.6278125 64.23890625 46.6278125 65.75390625 47.1328125 C65.04105469 47.8340625 64.32820313 48.5353125 63.59375 49.2578125 C58.71095571 54.08507194 53.88044265 58.90155933 49.46484375 64.16796875 C47.75390625 66.1328125 47.75390625 66.1328125 45.48046875 68.37890625 C41.31410302 72.18115812 41.31410302 72.18115812 39.6953125 77.2578125 C40.25335467 79.42421294 40.25335467 79.42421294 41.75390625 82.1328125 C42.41390625 82.1328125 43.07390625 82.1328125 43.75390625 82.1328125 C45.26171875 83.8125 45.26171875 83.8125 46.87890625 86.0078125 C47.41773438 86.72710937 47.9565625 87.44640625 48.51171875 88.1875 C49.75390625 90.1328125 49.75390625 90.1328125 49.75390625 92.1328125 C50.41390625 92.1328125 51.07390625 92.1328125 51.75390625 92.1328125 C51.75390625 92.7928125 51.75390625 93.4528125 51.75390625 94.1328125 C52.41390625 94.1328125 53.07390625 94.1328125 53.75390625 94.1328125 C55.26171875 95.8125 55.26171875 95.8125 56.87890625 98.0078125 C57.41773438 98.72710937 57.9565625 99.44640625 58.51171875 100.1875 C59.75390625 102.1328125 59.75390625 102.1328125 59.75390625 104.1328125 C60.41390625 104.1328125 61.07390625 104.1328125 61.75390625 104.1328125 C63.26171875 105.8125 63.26171875 105.8125 64.87890625 108.0078125 C65.41773438 108.72710937 65.9565625 109.44640625 66.51171875 110.1875 C67.75390625 112.1328125 67.75390625 112.1328125 67.75390625 114.1328125 C68.41390625 114.1328125 69.07390625 114.1328125 69.75390625 114.1328125 C69.75390625 115.4528125 69.75390625 116.7728125 69.75390625 118.1328125 C65.2160934 120.24616742 60.65506117 122.25403432 55.94140625 123.9453125 C55.23371094 124.19925781 54.52601563 124.45320313 53.796875 124.71484375 C51.45475318 125.1940159 50.00262701 124.87564835 47.75390625 124.1328125 C47.75390625 123.4728125 47.75390625 122.8128125 47.75390625 122.1328125 C47.09390625 122.1328125 46.43390625 122.1328125 45.75390625 122.1328125 C41.75390625 116.72104779 41.75390625 116.72104779 41.75390625 114.1328125 C41.09390625 114.1328125 40.43390625 114.1328125 39.75390625 114.1328125 C38.30426666 112.22906895 36.94206302 110.25814091 35.62890625 108.2578125 C34.90445313 107.16726563 34.18 106.07671875 33.43359375 104.953125 C31.75390625 102.1328125 31.75390625 102.1328125 31.75390625 100.1328125 C31.09390625 100.1328125 30.43390625 100.1328125 29.75390625 100.1328125 C28.0625 97.83203125 28.0625 97.83203125 26.19140625 94.8203125 C25.57136719 93.83417969 24.95132812 92.84804688 24.3125 91.83203125 C22.75390625 89.1328125 22.75390625 89.1328125 21.75390625 86.1328125 C21.09390625 86.1328125 20.43390625 86.1328125 19.75390625 86.1328125 C19.25890625 85.1428125 19.25890625 85.1428125 18.75390625 84.1328125 C18.7288501 85.30900146 18.70379395 86.48519043 18.67797852 87.69702148 C18.58407819 92.04495872 18.48381577 96.39272966 18.3815918 100.74047852 C18.33817692 102.62520468 18.29650682 104.50997186 18.2565918 106.39477539 C18.19904732 109.09794499 18.13530821 111.80090686 18.0703125 114.50390625 C18.04524376 115.77578041 18.04524376 115.77578041 18.01966858 117.073349 C17.86777796 123.01894079 17.86777796 123.01894079 16.75390625 124.1328125 C15.13133081 124.2319782 13.50450794 124.26361027 11.87890625 124.265625 C10.8940625 124.26691406 9.90921875 124.26820313 8.89453125 124.26953125 C7.858125 124.26566406 6.82171875 124.26179688 5.75390625 124.2578125 C4.19929688 124.26361328 4.19929688 124.26361328 2.61328125 124.26953125 C1.6284375 124.26824219 0.64359375 124.26695312 -0.37109375 124.265625 C-1.28117187 124.26449707 -2.19125 124.26336914 -3.12890625 124.26220703 C-5.24609375 124.1328125 -5.24609375 124.1328125 -6.24609375 123.1328125 C-6.342036 121.55126402 -6.36797335 119.96542125 -6.36634827 118.38096619 C-6.36772293 117.35306473 -6.3690976 116.32516327 -6.37051392 115.26611328 C-6.36691864 114.12891846 -6.36332336 112.99172363 -6.35961914 111.82006836 C-6.35976517 110.62998672 -6.35991119 109.43990509 -6.36006165 108.21376038 C-6.35948269 104.94117976 -6.35445356 101.66864143 -6.34748769 98.39606929 C-6.34125342 94.97942585 -6.34065029 91.56278167 -6.33946228 88.14613342 C-6.33634918 81.67211983 -6.32813608 75.19812304 -6.31811279 68.72411686 C-6.306951 61.3554333 -6.30144104 53.98674895 -6.29641736 46.61805904 C-6.28595344 31.45630081 -6.26835441 16.29455833 -6.24609375 1.1328125 C-3.93085336 -0.0248077 -2.57493313 0.00378945 0 0 Z " fill="#010102" transform="translate(416.24609375,205.8671875)"/>
<path d="M0 0 C0.98484375 -0.00128906 1.9696875 -0.00257813 2.984375 -0.00390625 C4.02078125 -0.00003906 5.0571875 0.00382813 6.125 0.0078125 C7.67960937 0.00201172 7.67960937 0.00201172 9.265625 -0.00390625 C10.25046875 -0.00261719 11.2353125 -0.00132812 12.25 0 C13.16007812 0.00112793 14.07015625 0.00225586 15.0078125 0.00341797 C17.125 0.1328125 17.125 0.1328125 18.125 1.1328125 C18.26615161 3.80340101 18.16747107 6.45713488 18.125 9.1328125 C18.805625 8.3903125 18.805625 8.3903125 19.5 7.6328125 C21.125 6.1328125 21.125 6.1328125 23.125 6.1328125 C23.125 5.4728125 23.125 4.8128125 23.125 4.1328125 C23.785 4.0296875 24.445 3.9265625 25.125 3.8203125 C27.62848396 3.24659743 29.70132998 2.53109569 32.0625 1.5703125 C35.53119468 0.21442805 38.37010192 -0.14880486 42.125 0.1328125 C42.125 0.4628125 42.125 0.7928125 42.125 1.1328125 C40.82175781 1.49632812 40.82175781 1.49632812 39.4921875 1.8671875 C31.77408745 4.1118251 26.57148282 6.24738502 20.4375 11.3828125 C18.125 13.1328125 18.125 13.1328125 15.125 13.1328125 C15.125 9.8328125 15.125 6.5328125 15.125 3.1328125 C9.185 3.1328125 3.245 3.1328125 -2.875 3.1328125 C-2.875 42.7328125 -2.875 82.3328125 -2.875 123.1328125 C3.065 123.1328125 9.005 123.1328125 15.125 123.1328125 C15.125 106.6328125 15.125 90.1328125 15.125 73.1328125 C19.88922624 73.1328125 20.40547861 73.92448558 23.8125 77.0078125 C28.54142059 80.92092515 32.02967242 82.67642358 38.125 83.1328125 C39.01316406 83.20113281 39.90132812 83.26945312 40.81640625 83.33984375 C50.73947644 83.71247643 57.32202208 81.02485705 65.125 75.1328125 C65.785 75.1328125 66.445 75.1328125 67.125 75.1328125 C67.351875 74.6171875 67.57875 74.1015625 67.8125 73.5703125 C69.125 71.1328125 69.125 71.1328125 71.5 68.0703125 C78.8239514 58.0377992 80.22247684 45.18412489 79.125 33.1328125 C76.99566955 22.06029416 72.37210617 12.76660606 63.125 6.1328125 C60.90912652 4.85428963 60.90912652 4.85428963 59.125 4.1328125 C59.455 3.1428125 59.785 2.1528125 60.125 1.1328125 C63.26691424 2.66885946 66.21096738 4.19012409 69.125 6.1328125 C69.125 6.7928125 69.125 7.4528125 69.125 8.1328125 C69.785 8.1328125 70.445 8.1328125 71.125 8.1328125 C79.43114879 16.8424028 83.07515825 28.22656328 83.375 40.0703125 C83.07062946 50.92619513 80.01149517 59.46738651 75.125 69.1328125 C74.465 69.1328125 73.805 69.1328125 73.125 69.1328125 C72.96 69.8134375 72.795 70.4940625 72.625 71.1953125 C69.15462624 77.99146112 62.13864911 82.48941066 55.125 85.1328125 C45.8129602 88.04282494 38.07587081 87.8182536 28.8984375 84.59375 C25.16091848 82.62497238 22.22796483 79.97390471 19.125 77.1328125 C18.97936989 81.41534472 18.8371456 85.69797415 18.69775391 89.98071289 C18.6501326 91.43028638 18.60166321 92.87983232 18.55224609 94.3293457 C18.24671044 103.31147046 18.08599982 112.26427369 18.20507812 121.25170898 C18.125 124.1328125 18.125 124.1328125 17.125 126.1328125 C13.47918313 126.16168762 9.83339537 126.17956835 6.1875 126.1953125 C4.62612305 126.20788086 4.62612305 126.20788086 3.03320312 126.22070312 C2.04384766 126.22392578 1.05449219 126.22714844 0.03515625 126.23046875 C-1.33950806 126.23832397 -1.33950806 126.23832397 -2.74194336 126.24633789 C-4.875 126.1328125 -4.875 126.1328125 -5.875 125.1328125 C-5.97317208 123.52824059 -6.00131921 121.91933976 -6.00198364 120.31176758 C-6.00480347 119.26848297 -6.00762329 118.22519836 -6.01052856 117.15029907 C-6.00850433 115.99597382 -6.0064801 114.84164856 -6.00439453 113.65234375 C-6.00614685 112.44436127 -6.00789917 111.23637878 -6.00970459 109.99179077 C-6.01336278 106.66955296 -6.01248968 103.34737707 -6.0093255 100.02514267 C-6.00680152 96.55557926 -6.00913955 93.08601858 -6.01071167 89.61645508 C-6.01253325 83.78889488 -6.01012735 77.96134734 -6.00537109 72.13378906 C-5.99992849 65.38719958 -6.00169116 58.64064031 -6.0071975 51.89405155 C-6.01172895 46.11147076 -6.01237902 40.32889909 -6.00975883 34.5463171 C-6.00819623 31.08829694 -6.00800182 27.63029099 -6.01129532 24.17227173 C-6.01470839 20.31926286 -6.00998377 16.46628811 -6.00439453 12.61328125 C-6.00641876 11.45895599 -6.00844299 10.30463074 -6.01052856 9.11532593 C-6.00770874 8.07204132 -6.00488892 7.02875671 -6.00198364 5.95385742 C-6.00160662 5.04165939 -6.00122959 4.12946136 -6.00084114 3.18962097 C-5.75674783 -0.79995812 -3.45295126 0.00427951 0 0 Z " fill="#000000" transform="translate(96.875,244.8671875)"/>
<path d="M0 0 C1.40282227 -0.00193359 1.40282227 -0.00193359 2.83398438 -0.00390625 C4.3102832 0.00189453 4.3102832 0.00189453 5.81640625 0.0078125 C6.79673828 0.00394531 7.77707031 0.00007812 8.78710938 -0.00390625 C9.72361328 -0.00261719 10.66011719 -0.00132812 11.625 0 C12.91942017 0.00169189 12.91942017 0.00169189 14.23999023 0.00341797 C16.37890625 0.1328125 16.37890625 0.1328125 18.37890625 1.1328125 C18.37890625 41.3928125 18.37890625 81.6528125 18.37890625 123.1328125 C15.87393621 124.38529752 14.17037351 124.24655656 11.37109375 124.23046875 C10.38496094 124.22724609 9.39882812 124.22402344 8.3828125 124.22070312 C7.35027344 124.21232422 6.31773437 124.20394531 5.25390625 124.1953125 C3.69349609 124.18854492 3.69349609 124.18854492 2.1015625 124.18164062 C-0.47271337 124.16983202 -3.04687521 124.15336325 -5.62109375 124.1328125 C-5.64442291 108.11287713 -5.66207301 92.09294724 -5.67290592 76.072999 C-5.67806884 68.6351674 -5.68511146 61.19734633 -5.6965332 53.75952148 C-5.70648016 47.27899908 -5.71294721 40.79848431 -5.71518224 34.31795448 C-5.71648933 30.88450708 -5.71957505 27.4510815 -5.72682381 24.01764107 C-5.73483791 20.19087429 -5.73508488 16.36412915 -5.73461914 12.53735352 C-5.73821442 11.39080795 -5.74180969 10.24426239 -5.74551392 9.06297302 C-5.74413925 8.02665741 -5.74276459 6.9903418 -5.74134827 5.92262268 C-5.74227006 5.01650018 -5.74319185 4.11037767 -5.74414158 3.17679691 C-5.50990883 -0.71411364 -3.38274574 0.00442726 0 0 Z M-2.62109375 3.1328125 C-2.62109375 42.0728125 -2.62109375 81.0128125 -2.62109375 121.1328125 C3.31890625 121.1328125 9.25890625 121.1328125 15.37890625 121.1328125 C15.37890625 82.1928125 15.37890625 43.2528125 15.37890625 3.1328125 C9.43890625 3.1328125 3.49890625 3.1328125 -2.62109375 3.1328125 Z " fill="#040405" transform="translate(192.62109375,205.8671875)"/>
<path d="M0 0 C7.75364848 0.0505453 14.31659501 2.80561854 21.125 6.3125 C20.60231534 9.07526177 20.01630413 11.6385876 19.125 14.3125 C18.465 14.3125 17.805 14.3125 17.125 14.3125 C16.465 15.6325 15.805 16.9525 15.125 18.3125 C12.36767176 17.82591266 9.88316794 17.22312728 7.25 16.25 C2.35629539 14.78188862 -1.99455918 14.98050196 -6.875 16.3125 C-7.68544131 19.37719402 -8.19552406 22.14344755 -7.875 25.3125 C-6.24546152 27.3472902 -4.58499182 28.64868957 -2.44140625 30.12109375 C-1.92449219 30.51425781 -1.40757813 30.90742188 -0.875 31.3125 C-0.875 31.9725 -0.875 32.6325 -0.875 33.3125 C-0.111875 33.60125 0.65125 33.89 1.4375 34.1875 C4.125 35.3125 4.125 35.3125 7.125 37.3125 C7.125 37.9725 7.125 38.6325 7.125 39.3125 C8.23488281 39.69148438 8.23488281 39.69148438 9.3671875 40.078125 C12.31159344 41.39601774 13.99303824 42.77898575 16.25 45.0625 C16.91257813 45.71734375 17.57515625 46.3721875 18.2578125 47.046875 C22.7397046 52.48515412 23.55180726 56.90099144 23.3125 63.6875 C23.29219727 64.79158203 23.29219727 64.79158203 23.27148438 65.91796875 C23.23644869 67.71646743 23.18265288 69.51458422 23.125 71.3125 C22.465 71.3125 21.805 71.3125 21.125 71.3125 C21.125 72.6325 21.125 73.9525 21.125 75.3125 C20.465 75.3125 19.805 75.3125 19.125 75.3125 C18.8465625 76.3953125 18.8465625 76.3953125 18.5625 77.5 C16.1674984 82.18587269 12.3817703 84.47357771 7.58203125 86.2578125 C5.10783261 87.01067058 2.6349562 87.6902663 0.125 88.3125 C-0.55175781 88.498125 -1.22851562 88.68375 -1.92578125 88.875 C-13.07246285 91.3768604 -24.15916017 87.1048927 -33.79296875 81.8125 C-35.875 80.3125 -35.875 80.3125 -36.875 77.3125 C-35.765625 74.90234375 -35.765625 74.90234375 -34.125 72.25 C-33.32835937 70.93322266 -33.32835937 70.93322266 -32.515625 69.58984375 C-30.875 67.3125 -30.875 67.3125 -27.875 65.3125 C-25.83666576 66.5864589 -23.83647874 67.92311923 -21.875 69.3125 C-21.875 69.9725 -21.875 70.6325 -21.875 71.3125 C-18.27459663 72.13731968 -14.94148597 72.44766938 -11.25 72.4375 C-9.83847656 72.44136719 -9.83847656 72.44136719 -8.3984375 72.4453125 C-5.74822493 72.41797998 -5.74822493 72.41797998 -2.875 71.3125 C-2.875 70.6525 -2.875 69.9925 -2.875 69.3125 C-2.215 69.3125 -1.555 69.3125 -0.875 69.3125 C-1.535 65.3525 -2.195 61.3925 -2.875 57.3125 C-3.535 57.3125 -4.195 57.3125 -4.875 57.3125 C-4.875 56.6525 -4.875 55.9925 -4.875 55.3125 C-5.58269531 55.07660156 -6.29039063 54.84070313 -7.01953125 54.59765625 C-10.37848493 53.08589735 -12.75902217 51.13276492 -15.5625 48.75 C-19.01316051 45.72080054 -19.01316051 45.72080054 -22.875 43.3125 C-22.875 42.6525 -22.875 41.9925 -22.875 41.3125 C-23.535 41.3125 -24.195 41.3125 -24.875 41.3125 C-24.875 40.6525 -24.875 39.9925 -24.875 39.3125 C-25.535 39.3125 -26.195 39.3125 -26.875 39.3125 C-31.33197209 34.96357572 -32.29754697 30.12343759 -32.5 24.0625 C-32.5390625 20.484375 -32.5390625 20.484375 -31.875 17.3125 C-29.3359375 14.890625 -29.3359375 14.890625 -26.875 13.3125 C-27.03355469 13.83070313 -27.19210938 14.34890625 -27.35546875 14.8828125 C-28.72266436 21.27676491 -29.01022339 28.64719291 -26.4375 34.6875 C-21.76946267 39.4693919 -16.88855474 43.82610183 -11.5390625 47.8359375 C-10.96406006 48.2680957 -10.38905762 48.70025391 -9.79663086 49.14550781 C-8.66928844 49.98541997 -7.53497227 50.81607963 -6.39282227 51.63574219 C-2.63353989 54.41920596 -0.17210969 57.24208711 2.125 61.3125 C2.72927117 65.54239818 2.41587919 67.70747128 0.5625 71.5625 C-2.40559608 74.91112121 -4.582826 76.0757719 -8.875 77.3125 C-14.5376445 77.3125 -18.75401556 75.07898858 -23.640625 72.46875 C-25.94529981 71.20286912 -25.94529981 71.20286912 -28.875 70.3125 C-30.195 72.9525 -31.515 75.5925 -32.875 78.3125 C-23.8576466 83.34977196 -23.8576466 83.34977196 -13.875 85.3125 C-12.90949219 85.37308594 -11.94398437 85.43367188 -10.94921875 85.49609375 C-1.56671091 85.85992778 6.54001842 84.37024741 14.125 78.5625 C18.547936 74.34108866 20.20456943 69.33928367 20.5 63.3125 C20.32810715 58.94642153 18.89054204 55.26520606 17.125 51.3125 C16.815625 50.52875 16.50625 49.745 16.1875 48.9375 C15.24008568 47.1832247 15.24008568 47.1832247 13.3828125 46.47265625 C10.56018069 45.02227278 8.3689217 43.16346466 5.9375 41.125 C2.40428731 38.17356129 -1.16299963 35.34672858 -4.875 32.625 C-8.37501298 29.89159668 -10.67683 27.73651229 -11.875 23.3125 C-11.34719781 18.93928188 -10.53513629 16.95613289 -7.375 13.875 C-2.73889713 11.80531122 1.12184794 11.60588599 6.125 12.3125 C9.625 13.8125 9.625 13.8125 12.125 15.3125 C12.785 15.3125 13.445 15.3125 14.125 15.3125 C16.44092022 12.09135843 16.44092022 12.09135843 17.125 8.3125 C6.4649539 3.7900562 -4.50299841 2.61740136 -15.875 5.3125 C-15.545 4.6525 -15.215 3.9925 -14.875 3.3125 C-12.84375 2.71484375 -12.84375 2.71484375 -10.375 2.25 C-6.45984835 1.50042191 -4.04069836 0.10874401 0 0 Z " fill="#010101" transform="translate(59.875,242.6875)"/>
<path d="M0 0 C3.81248426 -0.02887236 7.6249407 -0.04675492 11.4375 -0.0625 C12.52611328 -0.07087891 13.61472656 -0.07925781 14.73632812 -0.08789062 C15.77080078 -0.09111328 16.80527344 -0.09433594 17.87109375 -0.09765625 C18.82943115 -0.10289307 19.78776855 -0.10812988 20.77514648 -0.11352539 C23 0 23 0 24 1 C24.09866871 2.63072518 24.12798822 4.26570719 24.12939453 5.89941406 C24.13254669 6.94429993 24.13569885 7.98918579 24.13894653 9.06573486 C24.1369223 10.20419861 24.13489807 11.34266235 24.1328125 12.515625 C24.13424759 14.2603006 24.13424759 14.2603006 24.13571167 16.04022217 C24.13639392 18.5084234 24.13453656 20.97662641 24.13037109 23.44482422 C24.12504267 27.21976785 24.13030466 30.99459145 24.13671875 34.76953125 C24.1360576 37.16406276 24.13477567 39.5585942 24.1328125 41.953125 C24.13483673 43.08349182 24.13686096 44.21385864 24.13894653 45.378479 C24.13579437 46.43597351 24.13264221 47.49346802 24.12939453 48.58300781 C24.12859894 49.51042786 24.12780334 50.4378479 24.12698364 51.39337158 C23.99902328 54.02004945 23.58284016 56.43903237 23 59 C22.34 58.67 21.68 58.34 21 58 C21 39.85 21 21.7 21 3 C14.73 3 8.46 3 2 3 C2.09401778 10.77404712 2.2002174 18.54780043 2.31738281 26.3215332 C2.35550929 28.9624382 2.39038971 31.60339224 2.421875 34.24438477 C2.46788163 38.05502777 2.52581629 41.86533786 2.5859375 45.67578125 C2.59748871 46.84393875 2.60903992 48.01209625 2.62094116 49.21565247 C2.82552153 60.7506981 3.2199056 70.34835214 11.8125 78.75 C19.18026088 83.95077238 27.21958863 83.75975082 36 83 C43.30781053 81.42933802 48.58097012 78.23571598 54.125 73.29296875 C55.053125 72.65294922 55.053125 72.65294922 56 72 C56.99 72.33 57.98 72.66 59 73 C59 75.97 59 78.94 59 82 C65.27 82 71.54 82 78 82 C78 61.21 78 40.42 78 19 C78.33 19 78.66 19 79 19 C79.0154612 19.84231422 79.0154612 19.84231422 79.03123474 20.7016449 C79.13907685 26.52493466 79.25369208 32.34806264 79.37231445 38.17114258 C79.41573507 40.34688953 79.45740471 42.52267214 79.49731445 44.69848633 C79.55484502 47.81863168 79.61858823 50.93859633 79.68359375 54.05859375 C79.70030624 55.03775253 79.71701874 56.01691132 79.73423767 57.02574158 C79.7641555 58.37702904 79.7641555 58.37702904 79.79467773 59.75561523 C79.81799416 60.95141457 79.81799416 60.95141457 79.84178162 62.17137146 C79.80400665 64.01851382 79.80400665 64.01851382 81 65 C81.09860131 66.40348735 81.13078937 67.81180477 81.1328125 69.21875 C81.13410156 70.06824219 81.13539063 70.91773438 81.13671875 71.79296875 C81.13285156 72.68628906 81.12898438 73.57960938 81.125 74.5 C81.12886719 75.39332031 81.13273437 76.28664063 81.13671875 77.20703125 C81.13542969 78.05652344 81.13414062 78.90601563 81.1328125 79.78125 C81.13168457 80.56564453 81.13055664 81.35003906 81.12939453 82.15820312 C81 84 81 84 80 85 C78.29227642 85.08713831 76.58101351 85.10700007 74.87109375 85.09765625 C73.31938477 85.09282227 73.31938477 85.09282227 71.73632812 85.08789062 C70.64771484 85.07951172 69.55910156 85.07113281 68.4375 85.0625 C66.7987793 85.05573242 66.7987793 85.05573242 65.12695312 85.04882812 C62.41791505 85.03699826 59.70898401 85.02051543 57 85 C56.505 80.545 56.505 80.545 56 76 C55.45472656 76.47050781 54.90945313 76.94101562 54.34765625 77.42578125 C49.1293419 81.73423566 44.56192061 84.36892987 38 86 C37.35804688 86.18175781 36.71609375 86.36351562 36.0546875 86.55078125 C25.8714636 88.77715149 16.98721921 85.62914771 8 81 C8 80.34 8 79.68 8 79 C7.34 79 6.68 79 6 79 C1.20161723 72.85207208 -0.2566208 66.84971829 -0.22705078 59.14672852 C-0.22734283 58.50197067 -0.22763489 57.85721283 -0.22793579 57.19291687 C-0.22655626 55.08810374 -0.21106128 52.98365658 -0.1953125 50.87890625 C-0.19157745 49.40917657 -0.1887328 47.93944438 -0.18673706 46.4697113 C-0.1791393 42.62115477 -0.15952447 38.77275171 -0.1373291 34.92425537 C-0.11678708 30.98923823 -0.10771755 27.05419605 -0.09765625 23.11914062 C-0.0762745 15.41269082 -0.04218578 7.706367 0 0 Z " fill="#010101" transform="translate(223,245)"/>
<path d="M0 0 C5.16697421 5.16697421 6.09951464 10.71582369 6.22705078 17.75170898 C6.2267365 19.99986211 6.21557858 22.24803195 6.1953125 24.49609375 C6.1924826 25.68477554 6.18965271 26.87345734 6.18673706 28.09815979 C6.17558206 31.87804418 6.15048566 35.65768776 6.125 39.4375 C6.11496417 42.00715803 6.10583937 44.57681978 6.09765625 47.14648438 C6.07565797 53.43108174 6.04116001 59.7155001 6 66 C12.27 66 18.54 66 25 66 C24.96447021 64.37578125 24.92894043 62.7515625 24.89233398 61.078125 C24.76162748 55.03250343 24.63858739 48.98674562 24.51782227 42.94091797 C24.46456513 40.32791899 24.40924943 37.7149611 24.35180664 35.10205078 C24.26943973 31.33895729 24.19455999 27.57577651 24.12109375 23.8125 C24.09405869 22.65073242 24.06702362 21.48896484 24.03916931 20.29199219 C23.93168752 14.40594322 24.07704294 8.81742632 25 3 C25.66 3.33 26.32 3.66 27 4 C27.02312684 12.32728947 27.04091683 20.65456563 27.05181217 28.98187923 C27.05704026 32.84820118 27.06413654 36.71450121 27.07543945 40.58081055 C27.086271 44.30903401 27.0922774 48.03723634 27.09487724 51.76547432 C27.09673101 53.19089656 27.10035071 54.61631759 27.10573006 56.04173088 C27.11294393 58.03163408 27.11340808 60.02155834 27.11352539 62.01147461 C27.115746 63.14620712 27.11796661 64.28093964 27.12025452 65.45005798 C27 68 27 68 26 69 C24.37742456 69.0991657 22.75060169 69.13079777 21.125 69.1328125 C20.14015625 69.13410156 19.1553125 69.13539063 18.140625 69.13671875 C17.10421875 69.13285156 16.0678125 69.12898438 15 69.125 C13.44539063 69.13080078 13.44539063 69.13080078 11.859375 69.13671875 C10.87453125 69.13542969 9.8896875 69.13414062 8.875 69.1328125 C7.96492188 69.13168457 7.05484375 69.13055664 6.1171875 69.12939453 C4 69 4 69 3 68 C2.89242193 66.22163196 2.85374262 64.43905277 2.84228516 62.6574707 C2.83202301 61.51570877 2.82176086 60.37394684 2.81118774 59.19758606 C2.80388641 57.95289047 2.79658508 56.70819489 2.7890625 55.42578125 C2.76098688 52.81314485 2.73232237 50.20051473 2.703125 47.58789062 C2.66072382 43.45128779 2.62397556 39.31472248 2.59863281 35.17797852 C2.57359107 31.19786561 2.52513631 27.21817801 2.4765625 23.23828125 C2.47330963 22.00370682 2.47005676 20.76913239 2.46670532 19.49714661 C2.38064658 13.48409918 2.26924451 9.10907673 -1 4 C-1 3.34 -1 2.68 -1 2 C-7.72130209 -0.21768851 -13.36588188 -2.02176491 -20.09765625 0.86328125 C-25.48966398 4.08519963 -27.54553364 8.72082115 -29.3734436 14.42404175 C-30.48041468 18.97512653 -30.4813566 23.49594179 -30.51171875 28.16015625 C-30.52966995 29.19063583 -30.54762115 30.22111542 -30.56611633 31.28282166 C-30.6198766 34.54267402 -30.65400482 37.80238287 -30.6875 41.0625 C-30.72070333 43.28582712 -30.75519574 45.50913538 -30.79101562 47.73242188 C-30.87558292 53.1548191 -30.94407641 58.57723571 -31 64 C-31.99 64.495 -31.99 64.495 -33 65 C-33.04991844 58.97177295 -33.08596198 52.94366966 -33.10986328 46.9152832 C-33.11984099 44.87001445 -33.13342795 42.82475966 -33.15087891 40.77954102 C-33.4170344 8.75477305 -33.4170344 8.75477305 -27 2 C-18.43740506 -4.43075546 -9.46272211 -6.16177253 0 0 Z " fill="#010102" transform="translate(370,261)"/>
<path d="M0 0 C0 0.33 0 0.66 0 1 C-1.63195312 1.02126953 -1.63195312 1.02126953 -3.296875 1.04296875 C-12.98293228 1.30379822 -22.99491101 1.79375313 -30.703125 8.4765625 C-31.13109375 8.93804687 -31.5590625 9.39953125 -32 9.875 C-32.66 10.57625 -33.32 11.2775 -34 12 C-36.3125 11.8125 -36.3125 11.8125 -38 11 C-38.33 8.36 -38.66 5.72 -39 3 C-44.94 3 -50.88 3 -57 3 C-57 29.07 -57 55.14 -57 82 C-55.68 82.33 -54.36 82.66 -53 83 C-53.99 83 -54.98 83 -56 83 C-56 83.66 -56 84.32 -56 85 C-57.32 84.67 -58.64 84.34 -60 84 C-60.02312312 73.19541915 -60.04091493 62.39084414 -60.05181217 51.58624363 C-60.05704107 46.5697753 -60.06413883 41.55332385 -60.07543945 36.53686523 C-60.0862681 31.69990306 -60.09227679 26.86295716 -60.09487724 22.02598381 C-60.09673153 20.17631715 -60.10035222 18.32665143 -60.10573006 16.47699165 C-60.1129402 13.89552986 -60.11399095 11.31413618 -60.11352539 8.73266602 C-60.11712067 7.96014999 -60.12071594 7.18763397 -60.12442017 6.39170837 C-60.11405216 1.11405216 -60.11405216 1.11405216 -59 0 C-57.29227642 -0.08713831 -55.58101351 -0.10700007 -53.87109375 -0.09765625 C-52.31938477 -0.09282227 -52.31938477 -0.09282227 -50.73632812 -0.08789062 C-49.64771484 -0.07951172 -48.55910156 -0.07113281 -47.4375 -0.0625 C-45.7987793 -0.05573242 -45.7987793 -0.05573242 -44.12695312 -0.04882812 C-41.41791505 -0.03699826 -38.70898401 -0.02051543 -36 0 C-35.67 2.64 -35.34 5.28 -35 8 C-34.34 8 -33.68 8 -33 8 C-33 7.34 -33 6.68 -33 6 C-32.34 6 -31.68 6 -31 6 C-31 5.34 -31 4.68 -31 4 C-21.88638729 -2.57027893 -10.67952365 -1.39112031 0 0 Z " fill="#010103" transform="translate(376,245)"/>
<path d="M0 0 C6.63539214 4.87521831 9.66690991 10.66042973 10.97265625 18.71875 C11.69390216 25.7889916 12.19652693 32.80781442 9.25 39.4375 C6.79760931 35.71138701 7.17379601 32.20715954 7.375 27.9375 C7.57320685 20.432239 6.1281824 14.40755618 3.25 7.4375 C2.755 5.9525 2.755 5.9525 2.25 4.4375 C-2.99163611 1.1372106 -8.62127602 -0.10010737 -14.75 0.4375 C-19.95165017 2.11260768 -22.87208026 3.77328525 -25.75 8.4375 C-31.12668467 19.74774026 -32.35897127 31.38279184 -28.75 43.4375 C-26.47686109 48.81339056 -24.31835119 53.02956435 -18.75 55.4375 C-18.09 55.7675 -17.43 56.0975 -16.75 56.4375 C-7.90530345 57.10648376 -7.90530345 57.10648376 0.25 54.4375 C2.83286754 51.25372042 5.08190756 47.91414527 7.25 44.4375 C7.58 45.0975 7.91 45.7575 8.25 46.4375 C0.52400487 58.86281175 0.52400487 58.86281175 -8 60.9375 C-13.93169566 61.80535883 -17.86779441 60.90948898 -22.75 57.4375 C-29.7130656 51.42560624 -33.21897923 45.36497611 -33.92138672 36.20166016 C-34.5939896 23.9727344 -34.35038331 14.0237461 -26.5625 4.0625 C-18.83439007 -4.06107824 -9.66412646 -5.84007642 0 0 Z " fill="#010102" transform="translate(145.75,258.5625)"/>
<path d="M0 0 C0.99 0.495 0.99 0.495 2 1 C2 5.95 2 10.9 2 16 C-6.03709835 20.37663772 -14.08089967 24.57127504 -22.375 28.4375 C-28.60946311 31.34670663 -34.74682539 34.37800668 -40.8125 37.625 C-41.5034375 37.99407471 -42.194375 38.36314941 -42.90625 38.7434082 C-44.26686714 39.47067356 -45.62738329 40.19812789 -46.98779297 40.92578125 C-50.27312327 42.67965814 -53.56500195 44.41809902 -56.875 46.125 C-57.98617187 46.70507812 -59.09734375 47.28515625 -60.2421875 47.8828125 C-63 49 -63 49 -66 48 C-65.67 43.38 -65.34 38.76 -65 34 C-64.67 34 -64.34 34 -64 34 C-64 37.63 -64 41.26 -64 45 C-62.515 44.443125 -61.03 43.88625 -59.5 43.3125 C-58.6646875 42.99925781 -57.829375 42.68601562 -56.96875 42.36328125 C-54.51247201 41.23533254 -52.44100579 40.04812026 -50.18359375 38.58984375 C-46.13906464 36.0035365 -41.97972511 34.10544071 -37.5625 32.25 C-30.45059519 29.18348736 -23.61208443 25.77748102 -16.80126953 22.0949707 C-11.95763701 19.4817612 -7.08133066 17.12492009 -2 15 C-1.93941406 14.08476562 -1.87882813 13.16953125 -1.81640625 12.2265625 C-1.69072266 10.44378906 -1.69072266 10.44378906 -1.5625 8.625 C-1.44068359 6.84996094 -1.44068359 6.84996094 -1.31640625 5.0390625 C-1 2 -1 2 0 0 Z " fill="#64A41F" transform="translate(570,278)"/>
<path d="M0 0 C2.89479637 1.73687782 3.01335881 3.05152682 3.875 6.375 C4.01368274 10.39679948 3.40382374 11.85653818 1 15 C-0.56941198 16.56941198 -2.14134994 16.2449847 -4.3125 16.3125 C-7.47061466 16.2571827 -8.78348237 16.12674203 -11.5625 14.5 C-13.58645748 10.98007394 -13.83083813 7.96684481 -13 4 C-9.03987453 -1.1481631 -6.20394385 -1.30609344 0 0 Z M-1 7 C0 9 0 9 0 9 Z " fill="#1B2316" transform="translate(516,225)"/>
<path d="M0 0 C7.59 0 15.18 0 23 0 C23.495 1.485 23.495 1.485 24 3 C16.74 3 9.48 3 2 3 C2.02618408 4.55315918 2.05236816 6.10631836 2.0793457 7.70654297 C2.17026232 13.502456 2.22740067 19.29830674 2.2746582 25.09472656 C2.29970793 27.59711326 2.33375742 30.09942748 2.37719727 32.6015625 C2.43826661 36.21112007 2.46630674 39.81970519 2.48828125 43.4296875 C2.51408768 44.53738495 2.5398941 45.6450824 2.56648254 46.78634644 C2.56913842 54.24327766 1.16671114 59.75158647 -3 66 C-5.5625 68.5 -5.5625 68.5 -8 70 C-8.598125 70.4125 -9.19625 70.825 -9.8125 71.25 C-13.22044188 72.41843722 -16.41133398 72.1196222 -20 72 C-20 71.67 -20 71.34 -20 71 C-19.41992188 70.90203125 -18.83984375 70.8040625 -18.2421875 70.703125 C-13.02234564 69.70394735 -9.18474515 68.47027646 -5 65 C-0.42639084 57.23912298 -0.68071401 47.5967901 -0.5859375 38.8671875 C-0.56657135 37.74933868 -0.5472052 36.63148987 -0.5272522 35.47976685 C-0.46795711 31.94491972 -0.42127267 28.41003913 -0.375 24.875 C-0.33677409 22.46352826 -0.29771975 20.0520695 -0.2578125 17.640625 C-0.16075384 11.76048811 -0.0807874 5.88047248 0 0 Z " fill="#020103" transform="translate(280,245)"/>
<path d="M0 0 C0.66 0.33 1.32 0.66 2 1 C2 5.62 2 10.24 2 15 C4.0625 16.03125 6.125 17.0625 8.25 18.125 C40.3359375 34.16796875 40.3359375 34.16796875 42.20214844 35.11083984 C43.92160862 35.96123012 45.6675411 36.75745288 47.4140625 37.55078125 C50 39 50 39 51 42 C49.68 42.66 48.36 43.32 47 44 C46.90211182 43.37834961 46.80422363 42.75669922 46.70336914 42.11621094 C46.1256951 39.59166901 46.1256951 39.59166901 42.74609375 38.140625 C41.31604717 37.49658015 39.87929106 36.86730506 38.4375 36.25 C36.88065015 35.55269879 35.32468019 34.85343021 33.76953125 34.15234375 C32.97498535 33.79769043 32.18043945 33.44303711 31.36181641 33.07763672 C27.73231167 31.42158608 24.18034398 29.62098871 20.625 27.8125 C14.4874679 24.71095523 8.29400684 21.77363013 2 19 C2 18.34 2 17.68 2 17 C1.01 16.67 0.02 16.34 -1 16 C-1.02685095 13.52076199 -1.04676547 11.0418116 -1.0625 8.5625 C-1.07506836 7.50192383 -1.07506836 7.50192383 -1.08789062 6.41992188 C-1.09653588 4.61306441 -1.05220011 2.80612397 -1 1 C-0.67 0.67 -0.34 0.34 0 0 Z " fill="#5AA016" transform="translate(505,246)"/>
<path d="M0 0 C5.96152931 3.279992 10.48494238 7.27359914 13.8125 13.3125 C15.19533046 18.20559238 14.57963322 22.36875256 13.8125 27.3125 C13.4825 27.3125 13.1525 27.3125 12.8125 27.3125 C12.64234375 26.44367188 12.4721875 25.57484375 12.296875 24.6796875 C10.65925429 16.89227837 9.43502172 11.08719749 2.875 6.0625 C0.2200824 4.54540423 -2.30923646 3.32835772 -5.1875 2.3125 C-5.1875 1.6525 -5.1875 0.9925 -5.1875 0.3125 C-12.58989645 0.18363817 -19.82709083 0.51524098 -27.1875 1.3125 C-21.61298628 -4.26201372 -6.93654319 -2.95070791 0 0 Z " fill="#09090A" transform="translate(381.1875,244.6875)"/>
<path d="M0 0 C0.33 0 0.66 0 1 0 C1.02526739 7.24486551 1.0428318 14.48971974 1.05493164 21.73461914 C1.05997356 24.20142033 1.06680691 26.66821852 1.07543945 29.13500977 C1.08751125 32.67204529 1.09322956 36.20904145 1.09765625 39.74609375 C1.10281754 40.85649521 1.10797882 41.96689667 1.11329651 43.11094666 C1.11340981 44.64242088 1.11340981 44.64242088 1.11352539 46.20483398 C1.115746 47.10862289 1.11796661 48.0124118 1.12025452 48.94358826 C1 51 1 51 0 52 C-1.41570123 52.08651611 -2.835595 52.10704904 -4.25390625 52.09765625 C-5.10791016 52.09443359 -5.96191406 52.09121094 -6.84179688 52.08789062 C-7.73962891 52.07951172 -8.63746094 52.07113281 -9.5625 52.0625 C-10.46419922 52.05798828 -11.36589844 52.05347656 -12.29492188 52.04882812 C-14.53001314 52.03700225 -16.76497437 52.0205222 -19 52 C-19 51.34 -19 50.68 -19 50 C-14.45255028 48.48418343 -9.81999829 48.55411033 -5.0546875 48.28125 C-2.12681152 48.33991096 -2.12681152 48.33991096 -1 47 C-0.87767356 45.52749355 -0.8222544 44.04934289 -0.79467773 42.57202148 C-0.77473251 41.63112167 -0.75478729 40.69022186 -0.73423767 39.72080994 C-0.71752518 38.69790359 -0.70081268 37.67499725 -0.68359375 36.62109375 C-0.66281265 35.57929459 -0.64203156 34.53749542 -0.62062073 33.46412659 C-0.55500943 30.12198753 -0.49618669 26.77976715 -0.4375 23.4375 C-0.39432578 21.17772582 -0.35071186 18.91795999 -0.30664062 16.65820312 C-0.19931633 11.10555579 -0.09757188 5.55282679 0 0 Z " fill="#08090B" transform="translate(339,278)"/>
<path d="M0 0 C0.66 0.33 1.32 0.66 2 1 C2 5.95 2 10.9 2 16 C-0.4335567 17.3410005 -2.87135301 18.67294856 -5.3125 20 C-6.00279297 20.3815625 -6.69308594 20.763125 -7.40429688 21.15625 C-12.66015625 24 -12.66015625 24 -16 24 C-16 23.34 -16 22.68 -16 22 C-15.00097656 21.64550781 -14.00195312 21.29101562 -12.97265625 20.92578125 C-8.90375456 19.31002661 -5.50883819 17.66395823 -2 15 C-0.48890198 10.55124289 -0.7080841 6.63821932 -1 2 C-0.67 1.34 -0.34 0.68 0 0 Z " fill="#65A925" transform="translate(570,278)"/>
<path d="M0 0 C4.96524101 1.49733049 9.40406643 3.58337989 14 5.9375 C14.68578125 6.28490234 15.3715625 6.63230469 16.078125 6.99023438 C17.42267312 7.6714892 18.76519782 8.3567552 20.10546875 9.04638672 C21.86141779 9.93024457 23.64862368 10.75124783 25.4375 11.56640625 C28 13 28 13 29 16 C27.02 16.99 27.02 16.99 25 18 C24.9079126 17.38125 24.8158252 16.7625 24.72094727 16.125 C24.20004901 13.91803555 24.20004901 13.91803555 22.45288086 12.875 C21.79682861 12.58625 21.14077637 12.2975 20.46484375 12 C19.37333008 11.505 19.37333008 11.505 18.25976562 11 C17.49341797 10.67 16.72707031 10.34 15.9375 10 C14.44618159 9.3343025 12.95529427 8.66763838 11.46484375 8 C10.36245361 7.51273437 10.36245361 7.51273437 9.23779297 7.015625 C5.77339549 5.44330408 2.39096258 3.72434873 -1 2 C-0.67 1.34 -0.34 0.68 0 0 Z " fill="#52A20D" transform="translate(527,272)"/>
<path d="M0 0 C2.05078125 0.03255208 4.1015625 0.06510417 6.15234375 0.09765625 C6.48234375 0.75765625 6.81234375 1.41765625 7.15234375 2.09765625 C5.83234375 2.09765625 4.51234375 2.09765625 3.15234375 2.09765625 C3.15234375 3.08765625 3.15234375 4.07765625 3.15234375 5.09765625 C3.15234375 6.08765625 3.15234375 7.07765625 3.15234375 8.09765625 C2.16234375 8.42765625 1.17234375 8.75765625 0.15234375 9.09765625 C1.80234375 9.42765625 3.45234375 9.75765625 5.15234375 10.09765625 C5.15234375 10.42765625 5.15234375 10.75765625 5.15234375 11.09765625 C2.33984375 11.34765625 2.33984375 11.34765625 -0.84765625 11.09765625 C-2.78515625 9.47265625 -2.78515625 9.47265625 -3.84765625 7.09765625 C-3.30467661 0.17466578 -3.30467661 0.17466578 0 0 Z " fill="#232A1D" transform="translate(508.84765625,227.90234375)"/>
<path d="M0 0 C-2.05448353 2.22053029 -3.94818116 3.66213753 -6.65234375 5.0078125 C-7.34650391 5.35457031 -8.04066406 5.70132812 -8.75585938 6.05859375 C-9.47580078 6.41050781 -10.19574219 6.76242187 -10.9375 7.125 C-11.65357422 7.48464844 -12.36964844 7.84429687 -13.10742188 8.21484375 C-16.39685892 9.84279498 -19.40113562 11.20180247 -23 12 C-22.01946447 8.67665819 -20.3947966 7.45662963 -17.48046875 5.859375 C-16.05572056 5.14368754 -14.62441012 4.4409452 -13.1875 3.75 C-12.47529297 3.38648438 -11.76308594 3.02296875 -11.02929688 2.6484375 C-7.23239232 0.77984063 -4.33713241 -0.51125333 0 0 Z " fill="#67A627" transform="translate(546,292)"/>
<path d="M0 0 C2.375 1.625 2.375 1.625 4 4 C4.25 7.25 4.25 7.25 4 10 C3.67 10 3.34 10 3 10 C2.34 7.69 1.68 5.38 1 3 C-1.64 3 -4.28 3 -7 3 C-7.86382428 5.75706416 -7.86382428 5.75706416 -8 9 C-6.18911155 11.86965747 -6.18911155 11.86965747 -4 14 C-8.75 13.25 -8.75 13.25 -11 11 C-11.56975037 5.8722467 -11.56975037 5.8722467 -11 3 C-7.65852532 -0.14491735 -4.48001454 -0.66723621 0 0 Z " fill="#090C06" transform="translate(514,226)"/>
<path d="M0 0 C0.33 0 0.66 0 1 0 C1 3.63 1 7.26 1 11 C3.3203125 10.0409375 3.3203125 10.0409375 5.6875 9.0625 C9.1181005 7.64451846 12.33827525 6.62678171 16 6 C16 6.66 16 7.32 16 8 C13.73495035 9.19984797 11.46410112 10.38494769 9.1875 11.5625 C8.54490234 11.90474609 7.90230469 12.24699219 7.24023438 12.59960938 C5.53073605 13.4765023 3.76678706 14.24515617 2 15 C1.01 14.67 0.02 14.34 -1 14 C-0.67 9.38 -0.34 4.76 0 0 Z " fill="#5A9C13" transform="translate(505,312)"/>
<path d="M0 0 C0.99 0.66 1.98 1.32 3 2 C1.4274835 2.89429374 -0.15853741 3.76487427 -1.75 4.625 C-2.63171875 5.11226563 -3.5134375 5.59953125 -4.421875 6.1015625 C-7 7 -7 7 -9.328125 6.1484375 C-9.87984375 5.76945312 -10.4315625 5.39046875 -11 5 C-9.2375228 4.10828827 -7.46466209 3.23707344 -5.6875 2.375 C-4.20830078 1.64410156 -4.20830078 1.64410156 -2.69921875 0.8984375 C-1.80847656 0.60195313 -0.91773438 0.30546875 0 0 Z " fill="#66A322" transform="translate(519,303)"/>
<path d="M0 0 C0.33 0 0.66 0 1 0 C1.268125 1.093125 1.53625 2.18625 1.8125 3.3125 C2.87663739 6.61692663 3.34654664 7.94960422 6 10 C1.125 9.125 1.125 9.125 0 8 C-0.14115161 5.32941149 -0.04247107 2.67567762 0 0 Z " fill="#020500" transform="translate(504,230)"/>
<path d="M0 0 C2.475 0.495 2.475 0.495 5 1 C5.33 1.99 5.66 2.98 6 4 C4.02 4.99 4.02 4.99 2 6 C1.855625 5.38125 1.71125 4.7625 1.5625 4.125 C1.06847775 1.96741678 1.06847775 1.96741678 0 0 Z " fill="#5FA220" transform="translate(550,284)"/>
<path d="M0 0 C2.875 0.75 2.875 0.75 6 2 C6.66 3.32 7.32 4.64 8 6 C3.545 4.02 3.545 4.02 -1 2 C-0.67 1.34 -0.34 0.68 0 0 Z " fill="#48AF0F" transform="translate(527,272)"/>
<path d="M0 0 C2 3 2 3 2 6 C0.35 6 -1.3 6 -3 6 C-3.33 5.34 -3.66 4.68 -4 4 C-2.68 4 -1.36 4 0 4 C0 3.34 0 2.68 0 2 C-0.99 1.67 -1.98 1.34 -3 1 C-2.01 0.67 -1.02 0.34 0 0 Z " fill="#070E05" transform="translate(512,232)"/>
</svg>
