<?xml version="1.0" encoding="UTF-8"?>
<svg version="1.1" xmlns="http://www.w3.org/2000/svg" width="1280" height="720">
<path d="M0 0 C1.01419981 3.04259944 1.00879983 4.068109 0.51171875 7.11328125 C0.38216797 7.95181641 0.25261719 8.79035156 0.11914062 9.65429688 C-0.15657666 11.35226625 -0.43258871 13.0501878 -0.70898438 14.74804688 C-3.45023723 32.48011247 -4.35213934 50.20603229 -4.31567383 68.13085938 C-4.31250858 71.36622739 -4.33612151 74.60068091 -4.36132812 77.8359375 C-4.42092342 97.12017078 -2.64939877 116.11373233 1.9375 134.875 C2.29618164 136.44701172 2.29618164 136.44701172 2.66210938 138.05078125 C4.65105484 146.45788056 7.26515888 154.5042911 11.75 161.9375 C14 165.67168675 14 165.67168675 14 169 C15.26357834 168.99777939 16.52715668 168.99555878 17.82902527 168.99327087 C29.87251299 168.97279445 41.91599708 168.95791187 53.95949841 168.94818783 C60.14772976 168.94302021 66.3359468 168.93603726 72.52416992 168.92456055 C119.55878124 168.83955135 119.55878124 168.83955135 134.30078125 169.50390625 C148.28170172 170.12868139 162.25772779 170.07942062 176.25 170.0625 C177.48667734 170.06106554 178.72335468 170.05963108 179.9975071 170.05815315 C188.99835683 170.04582887 197.99917437 170.02380541 207 170 C216.04528601 169.9761719 225.09055393 169.95588147 234.13586426 169.94406128 C237.70095341 169.93769906 241.26598398 169.92520486 244.83105469 169.91235352 C255.25618529 169.88844417 265.65828898 169.97156646 276.07421875 170.44140625 C276.96695999 170.48039536 277.85970123 170.51938446 278.77949524 170.55955505 C284.87358394 170.87358394 284.87358394 170.87358394 286 172 C286.0979057 173.49738124 286.12974864 174.99942892 286.125 176.5 C286.12757813 177.3146875 286.13015625 178.129375 286.1328125 178.96875 C286 181 286 181 285 182 C281.86005553 182.10521561 278.74185208 182.14389344 275.60124588 182.14145851 C274.59706659 182.14460033 273.59288729 182.14774214 272.55827832 182.15097916 C269.14734574 182.16040422 265.7364448 182.16262301 262.32550049 182.16494751 C259.87224063 182.17022425 257.41898167 182.17593628 254.96572375 182.18204916 C249.60592489 182.19438004 244.246134 182.20356526 238.88632584 182.21003914 C230.91099998 182.21968156 222.93569216 182.23499805 214.96037782 182.25145121 C200.69108247 182.28069051 186.42178189 182.30414139 172.15247232 182.32515697 C159.60248655 182.34364739 147.05250532 182.3639314 134.50252533 182.38599777 C132.8164399 182.38895596 131.13035447 182.39191413 129.44426905 182.3948723 C126.90246981 182.39933506 124.36067058 182.40380019 121.81887136 182.4082709 C89.96814468 182.46424687 58.11741097 182.5142391 26.26667058 182.56168602 C-1.80920942 182.60354903 -29.88507482 182.6509436 -57.9609375 182.703125 C-89.60380624 182.76192001 -121.24667829 182.81671488 -152.8895638 182.86572587 C-156.30002548 182.87101947 -159.71048714 182.87632379 -163.12094879 182.88163376 C-163.96048066 182.88293783 -164.80001253 182.8842419 -165.66498476 182.8855855 C-177.30081013 182.90372503 -188.93662929 182.92417087 -200.57244745 182.94643794 C-220.17166221 182.98388891 -239.77087823 183.01588101 -259.37011719 183.03759766 C-260.11062553 183.03842823 -260.85113387 183.03925881 -261.61408185 183.04011456 C-317.08091739 183.1011447 -372.53756632 182.74551011 -428 182 C-429.52491998 178.95016004 -429.23562548 176.3576631 -429 173 C-427.9747982 171.30226421 -427.9747982 171.30226421 -426 170 C-423.30845401 169.69957873 -420.84638068 169.58407129 -418.15322876 169.60127258 C-417.34432611 169.59462576 -416.53542346 169.58797893 -415.70200861 169.58113068 C-412.97910979 169.56241712 -410.25664739 169.56511216 -407.53369141 169.56762695 C-405.58298114 169.5586106 -403.63227656 169.5482837 -401.68157959 169.53674316 C-396.35550255 169.50901761 -391.02953242 169.499859 -385.70339251 169.49388909 C-380.07308347 169.4844692 -374.44285227 169.4582269 -368.81259155 169.43388367 C-358.0728824 169.39004464 -347.33318814 169.36164453 -336.59341657 169.33856028 C-324.62079873 169.31204543 -312.64826914 169.26783713 -300.67571115 169.22227693 C-252.78398451 169.04159659 -204.89206883 168.9389721 -157 169 C-156.80528107 168.40048019 -156.61056213 167.80096039 -156.40994263 167.18327332 C-156.14849457 166.38698013 -155.88704651 165.59068695 -155.61767578 164.77026367 C-155.23278488 163.59254646 -155.23278488 163.59254646 -154.84011841 162.39103699 C-153.75999674 159.31693358 -152.44157847 156.38602187 -151.08886719 153.42431641 C-149.88097765 150.7350018 -148.7523183 148.02023692 -147.6328125 145.29296875 C-138.9943525 124.25782414 -138.9943525 124.25782414 -134 115 C-133.34 115 -132.68 115 -132 115 C-131.78730469 114.22269531 -131.57460938 113.44539063 -131.35546875 112.64453125 C-129.51068789 107.68435678 -126.94714805 103.26653775 -124.3125 98.6875 C-123.80783203 97.78837891 -123.30316406 96.88925781 -122.78320312 95.96289062 C-119.30753185 89.88595841 -115.40514966 84.43147863 -111 79 C-110.10946306 77.85582616 -109.22238656 76.708945 -108.33984375 75.55859375 C-107.10734733 73.95735044 -105.87469495 72.35622426 -104.63916016 70.75732422 C-102.32328651 67.75325523 -100.07601428 64.71361677 -97.875 61.625 C-95.30468227 58.16412148 -92.31178394 55.54225974 -89.01171875 52.7890625 C-86.93475027 50.94197209 -85.17199753 48.99331496 -83.375 46.875 C-80.50871382 43.50404041 -77.47151388 40.76304166 -74 38 C-72.81123272 36.91805743 -71.62385031 35.83459223 -70.4375 34.75 C-65.56906496 30.46801124 -60.24225551 26.88782677 -54.86499023 23.28442383 C-53.49506496 22.34095258 -52.14568316 21.36747238 -50.80883789 20.37768555 C-44.2922254 15.60960874 -37.53502402 12.13031913 -30.1875 8.8125 C-29.10146484 8.30525391 -28.01542969 7.79800781 -26.89648438 7.27539062 C-5.45719772 -2.53451442 -5.45719772 -2.53451442 0 0 Z " fill="#000000" transform="translate(712,174)"/>
<path d="M0 0 C0.82846436 -0.00953201 1.65692871 -0.01906403 2.51049805 -0.02888489 C3.40937744 -0.02797348 4.30825684 -0.02706207 5.234375 -0.02612305 C6.1622583 -0.03040817 7.0901416 -0.0346933 8.04614258 -0.03910828 C10.01659327 -0.04486155 11.9870652 -0.04534453 13.95751953 -0.04101562 C16.94471655 -0.03788338 19.93089631 -0.06120489 22.91796875 -0.08666992 C24.83593626 -0.08894586 26.75390641 -0.08964504 28.671875 -0.08862305 C29.55456055 -0.09783279 30.43724609 -0.10704254 31.34667969 -0.11653137 C38.49668106 -0.06436221 45.70846566 0.88729655 51.60546875 5.18481445 C60.31719174 15.50773782 61.08544806 26.21330528 59.984375 39.2746582 C58.86763865 46.42780723 55.115022 52.22760627 49.984375 57.2746582 C47.62672456 58.71671624 45.65053375 59.45848716 42.984375 60.2746582 C43.52964844 60.96688477 43.52964844 60.96688477 44.0859375 61.6730957 C51.02707043 70.67877074 56.18578391 80.33607087 60.921875 90.6496582 C61.42783203 91.71571289 61.93378906 92.78176758 62.45507812 93.88012695 C62.92751953 94.90493164 63.39996094 95.92973633 63.88671875 96.9855957 C64.31460693 97.90646973 64.74249512 98.82734375 65.18334961 99.77612305 C66.05144533 102.48386203 66.1139938 103.68714909 64.984375 106.2746582 C62.30204673 107.61582234 60.16605241 107.44369842 57.171875 107.4621582 C56.13417969 107.47633789 55.09648438 107.49051758 54.02734375 107.50512695 C49.57287953 107.16775418 47.03535185 106.36917835 43.91015625 103.11450195 C41.67927251 99.82474033 39.89178989 96.40962146 38.171875 92.8371582 C37.82858154 92.14066162 37.48528809 91.44416504 37.1315918 90.7265625 C35.42429559 87.25973397 33.74689331 83.77951042 32.0859375 80.2902832 C31.78405518 79.66565186 31.48217285 79.04102051 31.17114258 78.39746094 C30.34654286 76.69000299 29.5341982 74.97664218 28.72265625 73.26293945 C26.51607411 69.46960162 23.96453406 66.26473773 19.984375 64.2746582 C17.674375 64.2746582 15.364375 64.2746582 12.984375 64.2746582 C12.654375 77.8046582 12.324375 91.3346582 11.984375 105.2746582 C7.62054162 107.45657489 6.02182414 107.40131921 1.296875 106.9621582 C-0.44142578 106.81327148 -0.44142578 106.81327148 -2.21484375 106.66137695 C-5.015625 106.2746582 -5.015625 106.2746582 -6.015625 105.2746582 C-6.1151954 103.93859687 -6.14636803 102.59734678 -6.14933777 101.25758362 C-6.15360275 100.39244141 -6.15786774 99.52729919 -6.16226196 98.63594055 C-6.16180878 97.67955185 -6.16135559 96.72316315 -6.16088867 95.73779297 C-6.16424728 94.73624176 -6.1676059 93.73469055 -6.17106628 92.70278931 C-6.18060797 89.3738686 -6.18252099 86.04499801 -6.18359375 82.71606445 C-6.18680404 80.41299925 -6.19016793 78.10993427 -6.19367981 75.80686951 C-6.1996791 70.97215298 -6.20151888 66.13745436 -6.20092773 61.30273438 C-6.20082605 55.09367779 -6.2144809 48.8847354 -6.23169994 42.67570591 C-6.24279341 37.91720549 -6.24484776 33.15873291 -6.24431801 28.40022087 C-6.24550204 26.11038761 -6.24994731 23.82055372 -6.25765038 21.53073311 C-6.26739708 18.33404562 -6.26459337 15.1376091 -6.25854492 11.94091797 C-6.26416443 10.9865535 -6.26978394 10.03218903 -6.27557373 9.04890442 C-6.27137924 8.18094238 -6.26718475 7.31298035 -6.26286316 6.41871643 C-6.26340793 5.66230142 -6.26395269 4.9058864 -6.26451397 4.12654972 C-5.74028168 0.22592959 -3.37549942 0.02132527 0 0 Z M11.984375 21.2746582 C11.95535071 24.54547291 11.93756816 27.8162545 11.921875 31.0871582 C11.91349609 32.01592773 11.90511719 32.94469727 11.89648438 33.90161133 C11.89326172 34.79428711 11.89003906 35.68696289 11.88671875 36.60668945 C11.88148193 37.42886963 11.87624512 38.2510498 11.87084961 39.09814453 C11.89695976 41.45638416 11.89695976 41.45638416 12.984375 44.2746582 C16.04711331 44.32875957 19.10888952 44.36838045 22.171875 44.3996582 C23.03619141 44.41641602 23.90050781 44.43317383 24.79101562 44.45043945 C30.63899087 44.49525152 34.85415872 44.34570181 39.234375 40.0871582 C41.40533219 36.59811987 41.91465076 34.3883882 41.984375 30.2746582 C40.89410363 25.6805376 39.98904786 22.94444011 35.984375 20.2746582 C32.16506665 19.24964724 28.49021114 19.11038162 24.546875 19.0871582 C22.90912109 19.06588867 22.90912109 19.06588867 21.23828125 19.04418945 C17.85102123 19.28410343 15.14578929 20.06826632 11.984375 21.2746582 Z " fill="#000000" transform="translate(815.015625,367.725341796875)"/>
<path d="M0 0 C0.79921875 0.11988281 1.5984375 0.23976563 2.421875 0.36328125 C3.02515625 0.47027344 3.6284375 0.57726562 4.25 0.6875 C5.25810189 3.86483736 5.20329346 6.09561499 4.578125 9.35546875 C4.40796875 10.24943359 4.2378125 11.14339844 4.0625 12.06445312 C3.7840625 13.45567383 3.7840625 13.45567383 3.5 14.875 C3.32984375 15.78314453 3.1596875 16.69128906 2.984375 17.62695312 C2.1714076 21.80237761 1.27203309 25.80635524 -0.1875 29.8046875 C-2.38593987 36.10192535 -3.3853535 42.6957099 -4.56796265 49.24179077 C-5.31023943 53.33634616 -6.08122471 57.42553526 -6.84765625 61.515625 C-7.16424211 63.21028331 -7.48081106 64.90494478 -7.79736328 66.59960938 C-8.11476238 68.29560034 -8.43230748 69.99156398 -8.75 71.6875 C-8.90571472 72.51918701 -9.06142944 73.35087402 -9.22186279 74.20776367 C-10.12515519 79.01701697 -11.04763288 83.82190998 -11.9967041 88.62234497 C-12.28964111 90.11937801 -12.5762266 91.61766844 -12.85632324 93.11715698 C-13.24621708 95.20011674 -13.65742002 97.27775107 -14.07421875 99.35546875 C-14.30197998 100.53391357 -14.52974121 101.7123584 -14.7644043 102.92651367 C-15.75 105.6875 -15.75 105.6875 -17.70727539 107.0847168 C-20.18416046 107.81561547 -21.95206567 107.68719622 -24.5 107.3125 C-25.25055664 107.20212402 -26.00111328 107.09174805 -26.77441406 106.97802734 C-27.7523291 106.83421631 -27.7523291 106.83421631 -28.75 106.6875 C-30.97182446 99.78185464 -32.60829813 92.91436053 -33.90625 85.78125 C-34.09465454 84.7759021 -34.28305908 83.7705542 -34.47717285 82.73474121 C-35.27390731 78.48235466 -36.05802045 74.22766576 -36.84326172 69.97314453 C-37.42235632 66.8458421 -38.00792153 63.71979683 -38.59375 60.59375 C-38.76571899 59.64866577 -38.93768799 58.70358154 -39.11486816 57.7298584 C-40.12993665 52.31736048 -41.42341797 47.09716716 -43.07685852 41.84329224 C-43.98210035 38.94417908 -44.71719367 36.01232594 -45.4375 33.0625 C-45.68886719 32.03898437 -45.94023437 31.01546875 -46.19921875 29.9609375 C-46.38097656 29.21070313 -46.56273437 28.46046875 -46.75 27.6875 C-48.13273316 30.94748813 -49.14438079 34.04342386 -49.83154297 37.51513672 C-50.01868866 38.44736053 -50.20583435 39.37958435 -50.39865112 40.34005737 C-50.59451813 41.33901031 -50.79038513 42.33796326 -50.9921875 43.3671875 C-51.20183136 44.41214386 -51.41147522 45.45710022 -51.62747192 46.53372192 C-52.52059724 50.98625268 -53.40269453 55.44095003 -54.28564453 59.89550781 C-58.82234695 82.72427547 -58.82234695 82.72427547 -61.95141602 93.77075195 C-62.69941884 96.50275738 -63.2769433 99.21994666 -63.8125 102 C-64.75 105.6875 -64.75 105.6875 -67.75 107.6875 C-74.07258065 108.1391129 -74.07258065 108.1391129 -77.75 105.6875 C-78.52432251 103.84448242 -78.52432251 103.84448242 -79.09619141 101.54296875 C-79.31914886 100.65826904 -79.54210632 99.77356934 -79.77182007 98.86206055 C-80.00438507 97.87633057 -80.23695007 96.89060059 -80.4765625 95.875 C-80.73063873 94.82675049 -80.98471497 93.77850098 -81.24649048 92.69848633 C-84.63121301 78.40440032 -87.40307603 63.9758286 -90.18408203 49.5546875 C-90.97463691 45.45585028 -91.77800884 41.3596393 -92.58475304 37.26396179 C-93.21293497 34.0667154 -93.83404489 30.86812604 -94.45308304 27.6690979 C-94.74664456 26.15691172 -95.04244765 24.64515874 -95.34064865 23.13388062 C-98.26478611 8.27843288 -98.26478611 8.27843288 -97.75 1.6875 C-96.75 0.6875 -96.75 0.6875 -94.46484375 0.58984375 C-93.09005859 0.60724609 -93.09005859 0.60724609 -91.6875 0.625 C-90.76839844 0.63402344 -89.84929687 0.64304687 -88.90234375 0.65234375 C-88.19207031 0.66394531 -87.48179687 0.67554688 -86.75 0.6875 C-84.97657302 3.8206004 -84.30123862 6.57237693 -83.78515625 10.125 C-83.62466797 11.18589844 -83.46417969 12.24679687 -83.29882812 13.33984375 C-83.13833984 14.44457031 -82.97785156 15.54929687 -82.8125 16.6875 C-81.7370407 24.06081353 -80.42403413 31.21432427 -78.54174805 38.42431641 C-76.94318492 45.01278227 -75.82681989 51.70482439 -74.625 58.375 C-74.10600864 61.25473829 -73.581968 64.13348807 -73.0546875 67.01171875 C-72.82765137 68.27072998 -72.60061523 69.52974121 -72.36669922 70.8269043 C-72.04519717 73.57303911 -72.04519717 73.57303911 -70.75 74.6875 C-70.58395264 73.93766846 -70.41790527 73.18783691 -70.24682617 72.4152832 C-69.47763673 68.94339203 -68.70757195 65.47169553 -67.9375 62 C-67.67646484 60.82115234 -67.41542969 59.64230469 -67.14648438 58.42773438 C-62.27436441 36.4731197 -62.27436441 36.4731197 -60.71875 31.17578125 C-58.91708905 24.68834888 -57.83550199 18.02429099 -56.60546875 11.40820312 C-56.39535156 10.31830078 -56.18523437 9.22839844 -55.96875 8.10546875 C-55.78248047 7.11313232 -55.59621094 6.1207959 -55.40429688 5.09838867 C-54.75 2.6875 -54.75 2.6875 -52.75 0.6875 C-50.03515625 0.38671875 -50.03515625 0.38671875 -46.8125 0.375 C-45.22115234 0.34986328 -45.22115234 0.34986328 -43.59765625 0.32421875 C-40.75 0.6875 -40.75 0.6875 -39.15917969 1.85913086 C-37.29573291 4.27689817 -36.93811015 6.31089483 -36.35546875 9.3046875 C-36.12512939 10.45509521 -35.89479004 11.60550293 -35.6574707 12.79077148 C-35.41988037 14.03544189 -35.18229004 15.2801123 -34.9375 16.5625 C-34.54805891 18.52348662 -34.1586002 20.48446995 -33.76805115 22.44523621 C-33.36245034 24.48871024 -32.96170139 26.53309446 -32.56152344 28.57763672 C-31.27918401 35.10382157 -29.91642067 41.6133474 -28.5625 48.125 C-28.32490967 49.27661621 -28.08731934 50.42823242 -27.8425293 51.61474609 C-26.1843292 59.64764966 -24.47838122 67.66941611 -22.75 75.6875 C-20.44397689 67.12965962 -18.73432695 58.52130182 -17.24530029 49.78982544 C-16.86676419 47.57685234 -16.48060081 45.3653296 -16.09228516 43.15405273 C-14.94498553 36.61449771 -13.81036338 30.07329842 -12.71865845 23.5242157 C-12.19931123 20.43076839 -11.66000246 17.34077231 -11.125 14.25 C-10.85260498 12.55508423 -10.85260498 12.55508423 -10.57470703 10.82592773 C-10.30182861 9.2743396 -10.30182861 9.2743396 -10.0234375 7.69140625 C-9.87310059 6.79236572 -9.72276367 5.8933252 -9.56787109 4.96704102 C-7.86215021 0.21291686 -4.68315381 -0.757569 0 0 Z " fill="#000000" transform="translate(380.75,367.3125)"/>
<path d="M0 0 C1.12535156 0.00580078 1.12535156 0.00580078 2.2734375 0.01171875 C3.02367187 0.00785156 3.77390625 0.00398438 4.546875 0 C10.14682697 0.01010822 10.14682697 0.01010822 11.2734375 1.13671875 C11.43373438 4.09201379 11.53301078 7.02654332 11.58984375 9.984375 C11.61062485 10.87080185 11.63140594 11.7572287 11.65281677 12.67051697 C11.7184115 15.51333575 11.77724302 18.35624992 11.8359375 21.19921875 C11.8791133 23.12175481 11.92272728 25.04428109 11.96679688 26.96679688 C12.07410293 31.69000543 12.17534201 36.41331028 12.2734375 41.13671875 C12.73959473 40.38688721 13.20575195 39.63705566 13.68603516 38.86450195 C14.30526855 37.87796631 14.92450195 36.89143066 15.5625 35.875 C16.17303223 34.89829346 16.78356445 33.92158691 17.41259766 32.9152832 C19.02459322 30.50828746 20.67084623 28.43052167 22.6484375 26.32421875 C26.29195363 22.35319555 29.07930711 17.9808828 31.90185547 13.41088867 C32.6176666 12.25825848 33.34736335 11.11414972 34.08984375 9.97851562 C34.93841404 8.65805063 35.73802255 7.30562771 36.50390625 5.93554688 C38.522679 2.67955482 39.89974737 0.49203307 43.7199707 -0.49609375 C46.57088686 -0.65092689 49.3008614 -0.56392347 52.1484375 -0.36328125 C53.12296875 -0.3271875 54.0975 -0.29109375 55.1015625 -0.25390625 C57.49628329 -0.15999563 59.88278459 -0.02890069 62.2734375 0.13671875 C61.98955349 6.84347845 59.27139616 10.63681192 55.2734375 15.88671875 C54.68836426 16.67731689 54.10329102 17.46791504 53.50048828 18.2824707 C49.54905062 23.58155543 45.44276194 28.71388359 41.078125 33.6796875 C38.74540649 36.85561811 37.31779068 39.30609508 36.2734375 43.13671875 C37.00313364 46.36992213 38.46280778 49.10381729 40.0234375 52.01171875 C40.44302734 52.84251953 40.86261719 53.67332031 41.29492188 54.52929688 C42.59302854 57.08088172 43.92697966 59.61036488 45.2734375 62.13671875 C45.66208984 62.8730957 46.05074219 63.60947266 46.45117188 64.36816406 C47.91835728 67.14762263 49.38986294 69.92448687 50.88012695 72.69165039 C55.00557464 80.38749209 58.68993659 88.28893625 62.36303711 96.20825195 C63.00699316 97.57231976 63.69486037 98.91605747 64.41235352 100.24291992 C65.48967076 102.61228479 65.13110126 103.73526021 64.2734375 106.13671875 C59.75540119 107.05001246 55.68254746 107.18232068 51.0859375 106.88671875 C49.87550781 106.8196875 48.66507813 106.75265625 47.41796875 106.68359375 C43.97635384 106.08505203 43.40862241 105.72406906 41.2734375 103.13671875 C40.23364258 101.16992188 40.23364258 101.16992188 39.29296875 98.91796875 C38.93726807 98.07669434 38.58156738 97.23541992 38.21508789 96.36865234 C37.65615845 95.01634521 37.65615845 95.01634521 37.0859375 93.63671875 C36.69591553 92.71068848 36.30589355 91.7846582 35.90405273 90.83056641 C34.68633759 87.93569523 33.47877718 85.03676212 32.2734375 82.13671875 C31.14523359 79.4295963 30.0159283 76.72295508 28.88354492 74.01757812 C28.1977538 72.37717728 27.51548409 70.73529874 26.8371582 69.09179688 C26.52866943 68.35123047 26.22018066 67.61066406 25.90234375 66.84765625 C25.63494385 66.20103027 25.36754395 65.5544043 25.09204102 64.88818359 C24.19773097 62.86042359 24.19773097 62.86042359 22.2734375 60.13671875 C21.35462723 61.3434229 20.43851699 62.55218299 19.5234375 63.76171875 C19.01296875 64.43460937 18.5025 65.1075 17.9765625 65.80078125 C17.13351562 66.95707031 17.13351562 66.95707031 16.2734375 68.13671875 C15.59015381 69.02367432 14.90687012 69.91062988 14.20288086 70.82446289 C11.9514078 74.68954387 11.75060193 77.02566651 11.69921875 81.46875 C11.67797188 82.48457405 11.67797188 82.48457405 11.65629578 83.5209198 C11.61466938 85.66385182 11.59919887 87.80594073 11.5859375 89.94921875 C11.5568843 92.10996079 11.52241832 94.27049089 11.48344421 96.43107605 C11.45074061 98.37814364 11.43265499 100.32544034 11.4152832 102.27270508 C11.2734375 105.13671875 11.2734375 105.13671875 10.2734375 106.13671875 C7.5961237 106.23653089 4.95039575 106.2755175 2.2734375 106.26171875 C1.14808594 106.26751953 1.14808594 106.26751953 0 106.2734375 C-5.59995197 106.26332928 -5.59995197 106.26332928 -6.7265625 105.13671875 C-6.82402561 103.78564555 -6.85287829 102.42953502 -6.85354614 101.07495117 C-6.85636597 100.19994965 -6.85918579 99.32494812 -6.86209106 98.4234314 C-6.86006683 97.45612091 -6.8580426 96.48881042 -6.85595703 95.4921875 C-6.85770935 94.47927643 -6.85946167 93.46636536 -6.86126709 92.42276001 C-6.86568772 89.05656244 -6.86274687 85.69041691 -6.859375 82.32421875 C-6.86004798 79.99633779 -6.86101795 77.66845689 -6.86227417 75.34057617 C-6.86375143 70.45458306 -6.86159568 65.56860819 -6.85693359 60.68261719 C-6.8512363 54.40399219 -6.85451515 48.12540993 -6.86050606 41.8467865 C-6.86411091 37.03771642 -6.86297343 32.22865656 -6.86037827 27.41958618 C-6.85970879 25.10381058 -6.86053814 22.78803406 -6.86285782 20.47225952 C-6.86538311 17.24189784 -6.86154549 14.01160642 -6.85595703 10.78125 C-6.85798126 9.81393951 -6.86000549 8.84662903 -6.86209106 7.8500061 C-6.85927124 6.97500458 -6.85645142 6.10000305 -6.85354614 5.19848633 C-6.85316912 4.43377518 -6.85279209 3.66906403 -6.85240364 2.88117981 C-6.5625026 -1.13754633 -3.28474835 0.00592915 0 0 Z " fill="#000000" transform="translate(895.7265625,367.86328125)"/>
<path d="M0 0 C0.69802734 -0.00386719 1.39605469 -0.00773437 2.11523438 -0.01171875 C7.31086006 -0.00163994 7.31086006 -0.00163994 8.4375 1.125 C8.59779688 4.08029504 8.69707328 7.01482457 8.75390625 9.97265625 C8.77468735 10.8590831 8.79546844 11.74550995 8.81687927 12.65879822 C8.882474 15.501617 8.94130552 18.34453117 9 21.1875 C9.0431758 23.11003606 9.08678978 25.03256234 9.13085938 26.95507812 C9.23899336 31.67828893 9.33799247 36.40156792 9.4375 41.125 C18.0175 40.795 26.5975 40.465 35.4375 40.125 C35.47488281 37.48886719 35.51226563 34.85273438 35.55078125 32.13671875 C35.59698646 29.58495766 35.64822366 27.03334386 35.69995117 24.48168945 C35.73321464 22.70769188 35.76124218 20.9335881 35.78393555 19.15942383 C35.81745602 16.60972824 35.86976865 14.06100708 35.92578125 11.51171875 C35.93217117 10.71787277 35.9385611 9.92402679 35.94514465 9.10612488 C36.09104517 3.64767882 36.09104517 3.64767882 37.76416016 1.12353516 C40.57184054 -0.55189711 43.28742111 -0.23068875 46.5 -0.1875 C47.74910156 -0.18363281 48.99820313 -0.17976563 50.28515625 -0.17578125 C53.4375 0.125 53.4375 0.125 55.4375 2.125 C55.68638897 3.95848083 55.68638897 3.95848083 55.68473816 6.22436523 C55.68893265 7.08246796 55.69312714 7.94057068 55.69744873 8.82467651 C55.69182922 9.7681192 55.68620972 10.71156189 55.68041992 11.68359375 C55.68231827 12.67553741 55.68421661 13.66748108 55.68617249 14.68948364 C55.68988843 17.98056855 55.67916437 21.27143458 55.66796875 24.5625 C55.6667773 26.84171523 55.66632371 29.12093096 55.6665802 31.40014648 C55.66501392 36.18183456 55.6567132 40.96344791 55.64331055 45.74511719 C55.62632053 51.88573724 55.62249613 58.02627509 55.62325573 64.16691589 C55.62298427 68.87480459 55.61750694 73.58267518 55.61025429 78.29055786 C55.60706382 80.55526594 55.60509933 82.81997608 55.60436058 85.08468628 C55.60220103 88.24529542 55.59346508 91.40581602 55.58276367 94.56640625 C55.58321686 95.50984894 55.58367004 96.45329163 55.58413696 97.42532349 C55.57987198 98.28342621 55.57560699 99.14152893 55.57121277 100.02563477 C55.56953692 100.77337662 55.56786108 101.52111847 55.56613445 102.29151917 C55.4375 104.125 55.4375 104.125 54.4375 106.125 C48.8275 106.125 43.2175 106.125 37.4375 106.125 C36.28339746 103.81679492 36.3164703 102.51715724 36.32397461 99.95068359 C36.32405014 99.08994232 36.32412567 98.22920105 36.32420349 97.34237671 C36.32936478 96.41212677 36.33452606 95.48187683 36.33984375 94.5234375 C36.3412587 93.57183746 36.34267365 92.62023743 36.34413147 91.63980103 C36.34973988 88.59316903 36.36229381 85.54660987 36.375 82.5 C36.38001392 80.43750106 36.38457701 78.37500097 36.38867188 76.3125 C36.39886219 71.24994919 36.41843598 66.18755637 36.4375 61.125 C23.0725 61.62 23.0725 61.62 9.4375 62.125 C9.37691406 65.21746094 9.31632813 68.30992187 9.25390625 71.49609375 C9.19216891 74.47797217 9.12875968 77.45981064 9.06518555 80.44165039 C9.02176666 82.52039057 8.98009688 84.59916803 8.94018555 86.67797852 C8.88265079 89.65913145 8.81890881 92.64009549 8.75390625 95.62109375 C8.72883751 97.02421059 8.72883751 97.02421059 8.70326233 98.45567322 C8.68331711 99.31649002 8.66337189 100.17730682 8.64282227 101.06420898 C8.62727798 101.82587875 8.6117337 102.58754852 8.59571838 103.37229919 C8.4375 105.125 8.4375 105.125 7.4375 106.125 C4.7601862 106.22481214 2.11445825 106.26379875 -0.5625 106.25 C-1.68785156 106.25580078 -1.68785156 106.25580078 -2.8359375 106.26171875 C-8.43588947 106.25161053 -8.43588947 106.25161053 -9.5625 105.125 C-9.65781163 103.7715941 -9.6843872 102.41326016 -9.68275452 101.0565033 C-9.68412918 100.18005661 -9.68550385 99.30360992 -9.68692017 98.40060425 C-9.68332489 97.43172272 -9.67972961 96.46284119 -9.67602539 95.46459961 C-9.67617142 94.45008224 -9.67631744 93.43556488 -9.6764679 92.39030457 C-9.67576829 89.01929627 -9.66797368 85.64834246 -9.66015625 82.27734375 C-9.65829224 79.94706757 -9.65686826 77.616791 -9.65586853 75.28651428 C-9.65204202 69.13962735 -9.6422106 62.99276387 -9.63116455 56.84588623 C-9.62095329 50.57890134 -9.61637152 44.31191268 -9.61132812 38.04492188 C-9.60058845 25.73827092 -9.58351044 13.43163741 -9.5625 1.125 C-6.51267742 -0.39991129 -3.34127461 -0.01861434 0 0 Z " fill="#000000" transform="translate(659.5625,367.875)"/>
<path d="M0 0 C0.89009766 -0.01546875 1.78019531 -0.0309375 2.69726562 -0.046875 C10.30850613 -0.00239733 16.38715672 1.90199186 22.3125 6.75 C28.46779512 14.27313848 32.27986633 21.45687138 31.5625 31.5 C31.2325 32.16 30.9025 32.82 30.5625 33.5 C24.86148948 34.59941727 17.56119006 35.83246004 12.5625 32.5 C11.59085339 30.25009829 10.94167433 28.080861 10.3984375 25.69140625 C9.3111 22.84095607 8.22779169 21.95714909 5.5625 20.5 C2.88334643 20.06450776 2.88334643 20.06450776 0.0625 20.1875 C-1.34515625 20.19330078 -1.34515625 20.19330078 -2.78125 20.19921875 C-5.49242518 20.50621947 -7.15374436 21.0311299 -9.4375 22.5 C-11.11290537 25.85081074 -11.38775961 28.93318047 -10.4375 32.5 C-5.49585319 38.61047944 3.98438806 40.57871368 11.20214844 42.78930664 C18.34801969 45.06997748 24.09249745 48.16291876 28.62109375 54.28125 C29.30365234 55.62703125 29.30365234 55.62703125 30 57 C30.47308594 57.8971875 30.94617188 58.794375 31.43359375 59.71875 C35.18009667 68.94888869 35.1152111 82.16144512 31.5625 91.5 C28.23128863 98.36933027 24.52803824 104.5137847 17.16015625 107.4609375 C6.65680741 110.74605952 -5.3240868 110.87199932 -15.58984375 106.60546875 C-23.04658822 102.5550682 -27.74691897 95.39451944 -30.3125 87.4375 C-31.45387068 82.94999914 -32.64811329 78.15355077 -32.4375 73.5 C-28.91989398 69.98239398 -24.30907039 70.44497491 -19.5625 70.4375 C-18.18743391 70.4533836 -16.81238287 70.47250234 -15.4375 70.5 C-15.025 71.49 -14.6125 72.48 -14.1875 73.5 C-13.60701395 74.8345754 -13.02345945 76.16781868 -12.4375 77.5 C-12.13585937 78.20640625 -11.83421875 78.9128125 -11.5234375 79.640625 C-10.08924081 82.78886163 -8.84920224 85.11251554 -6.3125 87.5 C-0.63833647 89.4736221 4.56119658 89.44607071 10 86.875 C12.89414398 84.19262265 14.29185119 82.23720238 15.5625 78.5 C15.5625 74.66419828 14.90351405 72.96201904 12.625 69.875 C6.91000144 65.4429603 0.13126193 63.67692151 -6.6875 61.5 C-16.2511119 58.29588544 -21.76223433 52.78588787 -27.4375 44.5 C-30.67676628 37.06695009 -30.90867407 25.90521257 -28.4375 18.125 C-25.03161531 10.92946896 -19.99049512 4.63475257 -12.71899414 1.25878906 C-8.51757997 -0.1385352 -4.38873822 -0.07594068 0 0 Z " fill="#000000" transform="translate(604.4375,366.5)"/>
<path d="M0 0 C0.77666016 -0.03287109 1.55332031 -0.06574219 2.35351562 -0.09960938 C4.62109375 -0.12109375 4.62109375 -0.12109375 8.5625 0.4375 C11.04916493 3.74762761 12.20017799 7.07022705 13.24609375 11.04296875 C13.53419922 12.10966797 13.82230469 13.17636719 14.11914062 14.27539062 C14.40982422 15.38076172 14.70050781 16.48613281 15 17.625 C17.30630418 26.48876815 17.30630418 26.48876815 20.4453125 35.078125 C23.6701746 42.80706265 25.71909522 50.95532485 28 59 C28.46890681 60.64141731 28.93830513 62.28269429 29.40820312 63.92382812 C30.10638445 66.36289362 30.80447245 68.80198414 31.5015564 71.24136353 C33.08420606 76.77765968 34.67423583 82.31170165 36.28515625 87.83984375 C36.48539902 88.53372696 36.68564178 89.22761017 36.89195251 89.94252014 C37.71582837 92.75705713 38.58415443 95.49032899 39.69702148 98.20532227 C40.79216424 101.02983289 40.70208225 103.43648169 40.5625 106.4375 C35.34193553 108.17768816 30.18112093 107.54363908 24.75 107.1875 C20.88409008 105.06503965 20.696067 104.0098859 19.3125 99.9375 C18.70960929 97.77619368 18.12928001 95.60855565 17.5625 93.4375 C16.5725 90.1375 15.5825 86.8375 14.5625 83.4375 C4.9925 83.4375 -4.5775 83.4375 -14.4375 83.4375 C-15.58797695 88.75895417 -15.58797695 88.75895417 -16.70996094 94.08642578 C-17.7895783 98.86938175 -18.95386861 102.81635684 -22.4375 106.4375 C-25.48495819 106.89645455 -27.6872965 107.0192278 -30.6875 106.8125 C-31.43257812 106.78542969 -32.17765625 106.75835937 -32.9453125 106.73046875 C-34.77728993 106.66000808 -36.60777151 106.55238993 -38.4375 106.4375 C-39.74332806 102.77965732 -39.11655875 100.37253276 -38.06640625 96.6875 C-37.74317383 95.53491699 -37.41994141 94.38233398 -37.08691406 93.19482422 C-36.72823242 91.95490723 -36.36955078 90.71499023 -36 89.4375 C-35.6329872 88.14492142 -35.26678772 86.85211166 -34.90136719 85.55908203 C-34.13968818 82.8701676 -33.37210107 80.18303818 -32.60009766 77.49707031 C-31.47048352 73.56255984 -30.36456231 69.62178797 -29.26171875 65.6796875 C-28.57084304 63.22380902 -27.87945617 60.76807427 -27.1875 58.3125 C-26.87111572 57.18328125 -26.55473145 56.0540625 -26.22875977 54.890625 C-24.81076479 49.90962511 -23.32296538 45.01358486 -21.4921875 40.16796875 C-18.50783468 32.17395961 -16.43445347 23.88720845 -14.21386719 15.65600586 C-13.63521281 13.51777849 -13.04851518 11.3818832 -12.4609375 9.24609375 C-12.11981934 7.98595459 -11.77870117 6.72581543 -11.42724609 5.42749023 C-9.40818721 -0.67201992 -5.65289012 0.04201157 0 0 Z M-0.4375 30.4375 C-1.40246793 33.4145577 -2.35820878 36.39450441 -3.3125 39.375 C-3.71662109 40.62120117 -3.71662109 40.62120117 -4.12890625 41.89257812 C-7.63081867 52.44698613 -7.63081867 52.44698613 -8.4375 63.4375 C-5.97909395 63.46441685 -3.52098118 63.48429802 -1.0625 63.5 C-0.01449219 63.51256836 -0.01449219 63.51256836 1.0546875 63.52539062 C4.93545376 63.6210442 4.93545376 63.6210442 8.5625 62.4375 C6.26163083 51.64299676 3.75760963 41.0085542 0.5625 30.4375 C0.2325 30.4375 -0.0975 30.4375 -0.4375 30.4375 Z " fill="#000000" transform="translate(761.4375,367.5625)"/>
<path d="M0 0 C1.69938721 0.0314209 1.69938721 0.0314209 3.43310547 0.06347656 C4.69541992 0.08216797 5.95773437 0.10085938 7.25830078 0.12011719 C8.25561218 0.14150757 8.25561218 0.14150757 9.27307129 0.16333008 C11.25684874 0.20322781 13.24100772 0.22245119 15.22509766 0.24121094 C18.53816577 0.27567932 21.8493278 0.33325708 25.16162109 0.41162109 C26.51467556 0.44016516 27.86790715 0.46120954 29.22119141 0.47509766 C38.54718832 0.57554521 45.09545221 0.98495631 52.50732422 6.99316406 C59.84538988 15.38462601 60.8534485 23.68313768 60.57763672 34.64941406 C59.8921777 43.43487467 56.85236532 49.26837957 50.30029297 55.20410156 C44.70029297 59.20410156 44.70029297 59.20410156 41.30029297 59.20410156 C41.65220703 59.65398437 42.00412109 60.10386719 42.36669922 60.56738281 C49.58744847 69.97509529 55.35113109 79.7784298 60.23779297 90.57910156 C60.73085938 91.63226563 61.22392578 92.68542969 61.73193359 93.77050781 C62.19664062 94.78757812 62.66134766 95.80464844 63.14013672 96.85253906 C63.76456665 98.21644775 63.76456665 98.21644775 64.40161133 99.60791016 C65.33860923 102.31479298 65.47745202 104.36250879 65.30029297 107.20410156 C61.62057101 109.04396254 57.62408805 108.45625301 53.67529297 107.70410156 C47.39333126 103.7365468 44.84336589 95.22751734 41.91748047 88.73144531 C39.20275287 82.81019164 36.24039756 77.01611245 33.30029297 71.20410156 C32.96384766 70.45644531 32.62740234 69.70878906 32.28076172 68.93847656 C30.19864562 65.2553708 26.17406333 63.49535835 22.30029297 62.20410156 C17.68029297 62.20410156 13.06029297 62.20410156 8.30029297 62.20410156 C7.97029297 77.05410156 7.64029297 91.90410156 7.30029297 107.20410156 C4.28160863 108.71344373 1.62732068 108.37920828 -1.69970703 108.20410156 C-4.69970703 106.20410156 -4.69970703 106.20410156 -5.07443714 104.33938599 C-5.0742694 103.57689545 -5.07410166 102.81440491 -5.07392883 102.02880859 C-5.08094315 101.15387756 -5.08795746 100.27894653 -5.09518433 99.37750244 C-5.08754059 98.41535828 -5.07989685 97.45321411 -5.07202148 96.46191406 C-5.07567215 95.45046326 -5.07932281 94.43901245 -5.08308411 93.39691162 C-5.09121535 90.04080615 -5.07755793 86.68517961 -5.06298828 83.32910156 C-5.06246998 81.00504558 -5.0629865 78.68098915 -5.0644989 76.35693359 C-5.06440906 71.48105341 -5.05395573 66.60533817 -5.03588867 61.72949219 C-5.01320121 55.46775382 -5.01265619 49.20625667 -5.01940632 42.94448853 C-5.02274185 38.14393964 -5.01612405 33.34344612 -5.00627708 28.54290771 C-5.00241762 26.2335438 -5.00127994 23.92417373 -5.00286293 21.61480713 C-5.00323225 18.3918476 -4.99065084 15.16920166 -4.97436523 11.94628906 C-4.97684265 10.9841449 -4.97932007 10.02200073 -4.98187256 9.03070068 C-4.97478775 8.15576965 -4.96770294 7.28083862 -4.96040344 6.37939453 C-4.95835057 5.61690399 -4.9562977 4.85441345 -4.95418262 4.06881714 C-4.50596888 0.78445048 -3.14140953 0.23749488 0 0 Z M7.30029297 16.20410156 C7.20030611 18.24119224 7.16948311 20.28174701 7.16748047 22.32128906 C7.16619141 23.5678125 7.16490234 24.81433594 7.16357422 26.09863281 C7.16744141 27.4121875 7.17130859 28.72574219 7.17529297 30.07910156 C7.17142578 31.38492187 7.16755859 32.69074219 7.16357422 34.03613281 C7.16486328 35.28523438 7.16615234 36.53433594 7.16748047 37.82128906 C7.1686084 38.97226074 7.16973633 40.12323242 7.17089844 41.30908203 C7.17109285 44.27242242 7.17109285 44.27242242 8.30029297 47.20410156 C12.30015226 47.29193631 16.29976001 47.34477258 20.30029297 47.39160156 C21.42564453 47.41673828 22.55099609 47.441875 23.71044922 47.46777344 C31.27771673 47.53415298 37.71066727 47.32140809 43.67529297 42.14160156 C46.3839647 37.24515651 47.76360372 32.30249222 46.92529297 26.69628906 C45.50454153 21.80438355 43.79470522 18.90074891 39.30029297 16.20410156 C35.96124846 15.09108673 33.43399925 15.07473518 29.91748047 15.07128906 C28.04382813 15.06935547 28.04382813 15.06935547 26.13232422 15.06738281 C24.82650391 15.07125 23.52068359 15.07511719 22.17529297 15.07910156 C20.86173828 15.07523437 19.54818359 15.07136719 18.19482422 15.06738281 C16.94830078 15.06867188 15.70177734 15.06996094 14.41748047 15.07128906 C13.26876465 15.07241699 12.12004883 15.07354492 10.93652344 15.07470703 C8.37593088 14.90459991 8.37593088 14.90459991 7.30029297 16.20410156 Z " fill="#000000" transform="translate(428.69970703125,366.7958984375)"/>
<path d="M0 0 C1.1146312 -0.00637985 2.22926239 -0.0127597 3.37767029 -0.01933289 C5.19791466 -0.02100212 5.19791466 -0.02100212 7.05493164 -0.02270508 C8.91016197 -0.02769768 8.91016197 -0.02769768 10.8028717 -0.03279114 C13.42489244 -0.03786562 16.04691967 -0.0401993 18.66894531 -0.04003906 C21.36465131 -0.03995762 24.06018808 -0.0469229 26.75585938 -0.06054688 C30.62643688 -0.07878979 34.49681556 -0.08377219 38.36743164 -0.08520508 C39.57890366 -0.09239059 40.79037567 -0.09957611 42.03855896 -0.10697937 C43.15634232 -0.10390274 44.27412567 -0.10082611 45.42578125 -0.09765625 C46.41315781 -0.09908127 47.40053436 -0.10050629 48.41783142 -0.10197449 C50.77758789 0.14526367 50.77758789 0.14526367 52.77758789 2.14526367 C53.07836914 4.67651367 53.07836914 4.67651367 53.09008789 7.64526367 C53.1068457 8.62495117 53.12360352 9.60463867 53.14086914 10.61401367 C53.02098633 11.44932617 52.90110352 12.28463867 52.77758789 13.14526367 C49.6422856 15.2354652 48.95927019 15.39272317 45.39794922 15.37231445 C44.51726273 15.37216339 43.63657623 15.37201233 42.72920227 15.37185669 C41.78223984 15.36153412 40.8352774 15.35121155 39.85961914 15.34057617 C38.88723801 15.33774628 37.91485687 15.33491638 36.91300964 15.33200073 C33.80524423 15.32079967 30.6977663 15.29569515 27.59008789 15.27026367 C25.48397226 15.26023378 23.37785211 15.25110795 21.27172852 15.24291992 C16.10681493 15.22256157 10.94252347 15.18341256 5.77758789 15.14526367 C5.77758789 24.71526367 5.77758789 34.28526367 5.77758789 44.14526367 C8.79786133 44.13366211 11.81813477 44.12206055 14.92993164 44.11010742 C17.84228409 44.10231759 20.75463539 44.09624041 23.66699219 44.09033203 C25.69727087 44.08529089 27.72754591 44.07845811 29.7578125 44.06982422 C32.66936136 44.057749 35.58086239 44.05203333 38.49243164 44.04760742 C39.40596909 44.04244614 40.31950653 44.03728485 41.26072693 44.03196716 C43.43334216 44.03177199 45.60586085 44.08314563 47.77758789 44.14526367 C49.58504923 45.95272501 48.95062272 48.64972148 48.96508789 51.08276367 C48.97926758 52.16428711 48.99344727 53.24581055 49.00805664 54.36010742 C48.77758789 57.14526367 48.77758789 57.14526367 46.77758789 59.14526367 C43.6923385 59.32079787 40.69794587 59.37649164 37.61352539 59.34057617 C36.25271347 59.33633133 36.25271347 59.33633133 34.8644104 59.33200073 C31.96033666 59.3207852 29.05656877 59.2956783 26.15258789 59.27026367 C24.1864465 59.26023564 22.22030029 59.25110948 20.25415039 59.24291992 C15.42841627 59.22254098 10.60334535 59.18339521 5.77758789 59.14526367 C6.10758789 69.70526367 6.43758789 80.26526367 6.77758789 91.14526367 C10.07500977 91.19424805 13.37243164 91.24323242 16.76977539 91.29370117 C19.95357921 91.34766789 23.137306 91.40499231 26.32104492 91.46264648 C28.53843479 91.50099501 30.75588813 91.53583738 32.97338867 91.56713867 C36.15574878 91.61266193 39.33766971 91.67067686 42.51977539 91.73120117 C43.51564667 91.74275238 44.51151794 91.75430359 45.53756714 91.76620483 C46.45837067 91.78607452 47.37917419 91.80594421 48.32788086 91.82641602 C49.54699661 91.84640152 49.54699661 91.84640152 50.79074097 91.86679077 C52.77758789 92.14526367 52.77758789 92.14526367 54.77758789 94.14526367 C55.00805664 96.45776367 55.00805664 96.45776367 54.96508789 99.14526367 C54.95864258 100.03213867 54.95219727 100.91901367 54.94555664 101.83276367 C54.77758789 104.14526367 54.77758789 104.14526367 53.77758789 106.14526367 C33.97758789 106.14526367 14.17758789 106.14526367 -6.22241211 106.14526367 C-6.26252092 79.98095038 -6.26252092 79.98095038 -6.27124023 68.86987305 C-6.27722935 61.27375596 -6.28433146 53.67765087 -6.29785156 46.08154297 C-6.30867817 39.96077785 -6.31468846 33.84002559 -6.31728935 27.71925163 C-6.31914401 25.37835424 -6.3227654 23.03745758 -6.32814217 20.69656563 C-6.33534959 17.43018165 -6.33640318 14.16385152 -6.3359375 10.89746094 C-6.33953278 9.91922867 -6.34312805 8.9409964 -6.34683228 7.93312073 C-6.34545761 7.04825989 -6.34408295 6.16339905 -6.34266663 5.25172424 C-6.34358842 4.47833993 -6.34451021 3.70495562 -6.34545994 2.90813541 C-6.07798925 -0.92384212 -3.19347929 0.01233847 0 0 Z " fill="#000000" transform="translate(510.222412109375,367.854736328125)"/>
<path d="M0 0 C2.22265625 1.01953125 2.22265625 1.01953125 4 2 C4.04626117 15.52536 4.08183748 29.0507013 4.10362434 42.57612419 C4.11407887 48.85595359 4.12826845 55.13572901 4.15087891 61.41552734 C4.17254784 67.47146259 4.18455604 73.52734579 4.18975449 79.5833168 C4.19346097 81.89827418 4.20069836 84.21322858 4.21146011 86.52816391 C4.22589595 89.76086419 4.22798127 92.9933471 4.22705078 96.22607422 C4.23424133 97.19136047 4.24143188 98.15664673 4.24884033 99.15118408 C4.246091 100.02900543 4.24334167 100.90682678 4.24050903 101.81124878 C4.24235262 102.57633696 4.24419621 103.34142513 4.24609566 104.1296978 C4 106 4 106 2 108 C-1.76623767 108.20923543 -5.43548026 108.37096913 -9 107 C-10.14171839 104.71656323 -10.1303299 103.44480259 -10.14044189 100.90736389 C-10.14615204 100.05070633 -10.15186218 99.19404877 -10.15774536 98.31143188 C-10.15886322 97.36956024 -10.15998108 96.4276886 -10.16113281 95.45727539 C-10.16609772 94.46693802 -10.17106262 93.47660065 -10.17617798 92.45625305 C-10.19082046 89.17004714 -10.19760452 85.88388947 -10.203125 82.59765625 C-10.20887402 80.32083636 -10.21463179 78.0440165 -10.22039795 75.76719666 C-10.2309134 70.98973362 -10.23675274 66.21228744 -10.24023438 61.43481445 C-10.24572511 55.30318449 -10.26976336 49.17177592 -10.29820633 43.04021549 C-10.31679733 38.33657675 -10.32203638 33.63299177 -10.32357025 28.92931938 C-10.32660451 26.66821518 -10.33465886 24.40711209 -10.34775543 22.14604378 C-10.36474451 18.98789562 -10.36295328 15.83029401 -10.35644531 12.67211914 C-10.3656601 11.73227173 -10.37487488 10.79242432 -10.3843689 9.82409668 C-10.37879974 8.96461929 -10.37323059 8.10514191 -10.36749268 7.21961975 C-10.36895924 6.47279969 -10.3704258 5.72597963 -10.3719368 4.95652866 C-9.29217456 -0.72343035 -4.91456943 -0.43110258 0 0 Z " fill="#000101" transform="translate(404,367)"/>
<path d="M0 0 C0.94258759 0.00291284 1.88517519 0.00582568 2.85632604 0.00882679 C4.34606252 0.00754515 4.34606252 0.00754515 5.86589468 0.00623763 C9.22095361 0.00457982 12.57596343 0.0101091 15.93101782 0.01555592 C18.32522353 0.01583775 20.71942934 0.01568013 23.113635 0.01511341 C28.28215861 0.0148851 33.45067094 0.01773642 38.61919111 0.02335125 C46.09208468 0.03146419 53.56497213 0.03408126 61.03786962 0.03533924 C73.16094721 0.03753009 85.28401809 0.04419106 97.40709203 0.05364186 C109.18638857 0.06281513 120.96568328 0.06989638 132.74498266 0.07414967 C133.83334846 0.07454375 133.83334846 0.07454375 134.94370145 0.0749458 C138.58356012 0.0762508 142.2234188 0.07751452 145.86327749 0.0787577 C176.0791404 0.08913133 206.29499517 0.10682465 236.5108518 0.12908131 C236.5108518 0.78908131 236.5108518 1.44908131 236.5108518 2.12908131 C241.4608518 2.45908131 246.4108518 2.78908131 251.5108518 3.12908131 C251.5108518 3.45908131 251.5108518 3.78908131 251.5108518 4.12908131 C234.91421485 4.28436981 218.31753025 4.43233953 201.72075552 4.57204491 C194.01126788 4.63710359 186.3018127 4.70438729 178.59239477 4.77727467 C171.85784794 4.84093925 165.12327762 4.9000572 158.38864678 4.95413685 C154.83637937 4.98280951 151.28415918 5.0134708 147.73195928 5.04961544 C132.70355148 5.20101572 117.7222857 5.12575049 102.70357794 4.51492459 C90.59356909 4.02598136 78.48873926 3.90445949 66.3702268 3.81267506 C64.01127615 3.7920119 61.65232842 3.77101374 59.29338354 3.74970204 C53.19131665 3.69544455 47.089222 3.6456257 40.98710912 3.59685475 C34.71765555 3.54591948 28.4482405 3.49061598 22.17882055 3.43572193 C9.95619748 3.32932537 -2.26645955 3.22763585 -14.4891482 3.12908131 C-14.8191482 2.46908131 -15.1491482 1.80908131 -15.4891482 1.12908131 C-14.1897732 1.14970631 -12.8903982 1.17033131 -11.5516482 1.19158131 C-10.19749187 1.21307585 -8.84158737 1.20056329 -7.4891482 1.12908131 C-5.54414872 -0.81591817 -2.58892606 0.00607536 0 0 Z " fill="#020B0F" transform="translate(739.4891481995583,343.8709186911583)"/>
<path d="M0 0 C0 0.99 0 1.98 0 3 C-1.54807823 4.54807823 -3.02424812 4.16235953 -5.18209839 4.20433044 C-6.54558977 4.23394143 -6.54558977 4.23394143 -7.93662643 4.26415062 C-8.94866764 4.28066988 -9.96070885 4.29718914 -11.00341797 4.31420898 C-12.07239948 4.33486734 -13.141381 4.3555257 -14.24275589 4.37681007 C-17.86748442 4.44384523 -21.4922828 4.5019194 -25.1171875 4.55859375 C-26.38431454 4.57965117 -27.65144157 4.60070858 -28.9569664 4.6224041 C-62.77954648 5.17351213 -96.60422847 5.11745416 -130.43024421 5.07202756 C-139.13988384 5.06054178 -147.8495246 5.05527595 -156.55917001 5.05032361 C-174.37278862 5.04006596 -192.18639303 5.02265673 -210 5 C-209.67 4.34 -209.34 3.68 -209 3 C-208.13693835 2.99576806 -207.27387671 2.99153612 -206.38466167 2.98717594 C-185.40374214 2.88396072 -164.42285672 2.77533673 -143.44199657 2.66066074 C-133.29589688 2.60533579 -123.14979366 2.55185497 -113.00366211 2.50268555 C-104.16235349 2.45983481 -95.32107069 2.41355454 -86.47980195 2.36312145 C-81.79657796 2.33652771 -77.11335905 2.31167478 -72.43010521 2.29092598 C-68.024961 2.27135521 -63.6198659 2.24721006 -59.21476555 2.21950912 C-57.59541464 2.21014103 -55.97605295 2.20246488 -54.35668564 2.19658089 C-52.15063411 2.18831561 -49.94470162 2.17403775 -47.73869324 2.15821838 C-45.88450665 2.14853956 -45.88450665 2.14853956 -43.99286175 2.1386652 C-40.94723914 2.13351395 -40.94723914 2.13351395 -38 1 C-35.80109635 0.90473934 -33.59940263 0.86926865 -31.3984375 0.8671875 C-30.10421875 0.86589844 -28.81 0.86460937 -27.4765625 0.86328125 C-26.80399414 0.86537598 -26.13142578 0.8674707 -25.43847656 0.86962891 C-23.37557685 0.8749985 -21.31289311 0.8696664 -19.25 0.86328125 C-17.95835937 0.86457031 -16.66671875 0.86585938 -15.3359375 0.8671875 C-14.14532715 0.86831543 -12.9547168 0.86944336 -11.72802734 0.87060547 C-9 1 -9 1 -8 2 C-3.6590631 1.85841338 -3.6590631 1.85841338 0 0 Z " fill="#040C10" transform="translate(558,343)"/>
<path d="M0 0 C40.92 0 81.84 0 124 0 C124 0.33 124 0.66 124 1 C114.19556036 3.55737693 104.51304209 3.2723811 94.45703125 3.23046875 C92.5599521 3.22927454 90.66287235 3.2288243 88.76579285 3.2290802 C84.80614475 3.22752283 80.84658802 3.21928914 76.88696289 3.20581055 C71.82322403 3.18878701 66.75958494 3.1849977 61.69582081 3.18575573 C57.78467363 3.18548331 53.87354804 3.17999112 49.96240807 3.17275429 C48.09537608 3.16958355 46.22834167 3.16760396 44.36130714 3.16686058 C41.75100186 3.16468199 39.14080038 3.15590616 36.53051758 3.14526367 C35.38558838 3.14594345 35.38558838 3.14594345 34.2175293 3.14663696 C29.72295911 3.11996809 25.45191909 2.6915294 21 2 C18.6670386 1.95833998 16.3329614 1.95833998 14 2 C9.19518966 2.04097919 4.71587512 1.89826193 0 1 C0 0.67 0 0.34 0 0 Z " fill="#000203" transform="translate(832,344)"/>
</svg>
